<svg width="24" height="20" viewBox="0 0 24 20" fill="none" xmlns="http://www.w3.org/2000/svg">
<path d="M3.31113 8.44442L6.51113 5.31109L11.1556 9.95553L20.6 0.599976L23.7111 3.64442L11.0667 16.2889L3.31113 8.44442Z" fill="#73919B"/>
<path d="M19.9333 9.13333L18.1111 10.9556C17.6444 15.0222 14.1778 18.1778 10 18.1778C5.48889 18.1778 1.82222 14.5111 1.82222 10C1.82222 9.57778 1.86666 9.15556 1.91111 8.73333C1.95555 8.46667 1.99999 8.2 2.08888 7.93333C2.99999 4.42222 6.2 1.82222 10 1.82222C12.1111 1.82222 14.0444 2.62222 15.4889 3.95556L16.7778 2.66667C15 1.02222 12.6 0 10 0C4.48889 0 0 4.48889 0 10C0 15.5111 4.48889 20 10 20C15.5111 20 20 15.5111 20 10C19.9778 9.71111 19.9556 9.42222 19.9333 9.13333Z" fill="#73919B"/>
</svg>
