<svg width="100" height="96" viewBox="0 0 100 96" fill="none" xmlns="http://www.w3.org/2000/svg">
<path d="M99.8072 52.6192C98.9094 43.5882 94.8747 35.0742 88.4461 28.6453C82.9523 23.1517 76.228 19.6214 69.1525 18.0516V13.089C72.0423 12.3701 74.1904 9.75423 74.1904 6.645C74.1904 2.98323 71.2115 0.00427246 67.5497 0.00427246H53.487C49.8252 0.00427246 46.8462 2.98323 46.8462 6.645C46.8462 9.75403 48.9943 12.3699 51.884 13.089V18.0655C44.8302 19.6419 38.1281 23.1673 32.6499 28.6455C31.4511 29.8444 30.3456 31.102 29.3337 32.4091C29.2846 32.4054 29.2356 32.4016 29.1856 32.4016H15.2672C14.1887 32.4016 13.3141 33.2761 13.3141 34.3548C13.3141 35.4335 14.1887 36.308 15.2672 36.308H26.676C25.2439 38.7055 24.0892 41.2233 23.2103 43.8151H1.95316C0.874623 43.8151 0 44.6895 0 45.7683C0 46.847 0.874623 47.7214 1.95316 47.7214H22.1066C21.5437 50.1924 21.2206 52.707 21.1372 55.2288H12.5002C11.4217 55.2288 10.547 56.1032 10.547 57.1819C10.547 58.2606 11.4217 59.1351 12.5002 59.1351H21.1996C21.3644 61.6632 21.7708 64.1781 22.4191 66.6424H9.76578C8.68725 66.6424 7.81262 67.5168 7.81262 68.5956C7.81262 69.6743 8.68725 70.5487 9.76578 70.5487H23.6656C25.5816 75.6174 28.576 80.368 32.6499 84.4419C39.0848 90.8768 47.6076 94.9124 56.648 95.8056C57.9382 95.9329 59.2294 95.996 60.5189 95.996C68.1405 95.996 75.6652 93.7903 82.0501 89.6324C82.954 89.0437 83.2097 87.8338 82.621 86.9298C82.0323 86.0259 80.8224 85.7702 79.9184 86.3589C65.9422 95.46 47.2246 93.4922 35.4121 81.6798C21.5521 67.8198 21.5521 45.2681 35.4121 31.4079C49.2719 17.5481 71.8236 17.5481 85.6838 31.4079C97.4806 43.2049 99.4592 61.9066 90.3881 75.876C89.8006 76.7807 90.0579 77.9904 90.9624 78.5778C91.8675 79.1653 93.0769 78.908 93.6642 78.0033C98.5107 70.5394 100.692 61.5246 99.8072 52.6192ZM50.7526 6.6452C50.7526 5.13736 51.9791 3.91078 53.487 3.91078H67.5497C69.0575 3.91078 70.2841 5.13736 70.2841 6.6452C70.2841 8.15303 69.0575 9.37961 67.5497 9.37961H67.1993H53.8372H53.487C51.9791 9.37961 50.7526 8.15284 50.7526 6.6452ZM55.7903 17.394V13.2859H65.2461V17.387C62.1062 17.0135 58.9296 17.0159 55.7903 17.394Z" fill="white"/>
<path d="M87.0657 81.1068C86.55 81.1068 86.0481 81.3158 85.685 81.6791C85.3198 82.0424 85.1125 82.5463 85.1125 83.0599C85.1125 83.5736 85.3198 84.0775 85.685 84.4408C86.0481 84.806 86.5502 85.0131 87.0657 85.0131C87.5793 85.0131 88.0813 84.806 88.4465 84.4408C88.8098 84.0775 89.0188 83.5736 89.0188 83.0599C89.0188 82.5463 88.81 82.0424 88.4465 81.6791C88.0813 81.3158 87.5792 81.1068 87.0657 81.1068Z" fill="white"/>
<path d="M60.5479 26.2444C43.841 26.2444 30.2488 39.8364 30.2488 56.5435C30.2488 73.2506 43.841 86.8426 60.5479 86.8426C77.2548 86.8426 90.847 73.2506 90.847 56.5435C90.847 39.8364 77.2548 26.2444 60.5479 26.2444ZM60.5479 82.9363C45.9947 82.9363 34.1551 71.0965 34.1551 56.5435C34.1551 41.9905 45.9947 30.1507 60.5479 30.1507C75.1011 30.1507 86.9407 41.9905 86.9407 56.5435C86.9407 71.0965 75.1011 82.9363 60.5479 82.9363Z" fill="white"/>
<path d="M72.9031 41.4264L63.2291 51.1002C62.4201 50.7002 61.5101 50.4742 60.5482 50.4742C59.5861 50.4742 58.6763 50.7002 57.8673 51.1002L53.5377 46.7706C52.7748 46.0079 51.5385 46.0079 50.7754 46.7706C50.0127 47.5333 50.0127 48.7701 50.7754 49.5328L55.105 53.8623C54.7048 54.6713 54.479 55.5813 54.479 56.5432C54.479 59.8898 57.2015 62.6125 60.5482 62.6125C63.8949 62.6125 66.6174 59.8898 66.6174 56.5432C66.6174 55.5813 66.3915 54.6713 65.9915 53.8623L75.3814 44.4723L75.6652 44.1886C76.4279 43.4258 76.4279 42.1891 75.6652 41.4264C74.9025 40.6637 73.6662 40.6637 72.9031 41.4264ZM60.5482 58.7064C59.3556 58.7064 58.3853 57.736 58.3853 56.5434C58.3853 55.3508 59.3556 54.3805 60.5482 54.3805C61.7408 54.3805 62.7111 55.3508 62.7111 56.5434C62.7111 57.736 61.7408 58.7064 60.5482 58.7064Z" fill="white"/>
<path d="M81.4309 54.6141H79.6213C78.5428 54.6141 77.6682 55.4885 77.6682 56.5673C77.6682 57.646 78.5428 58.5204 79.6213 58.5204H81.4309C82.5094 58.5204 83.384 57.646 83.384 56.5673C83.384 55.4885 82.5094 54.6141 81.4309 54.6141Z" fill="white"/>
<path d="M41.4744 54.5665H39.665C38.5865 54.5665 37.7119 55.4409 37.7119 56.5197C37.7119 57.5984 38.5865 58.4728 39.665 58.4728H41.4744C42.5529 58.4728 43.4275 57.5984 43.4275 56.5197C43.4275 55.4409 42.5529 54.5665 41.4744 54.5665Z" fill="white"/>
<path d="M60.5718 39.423C61.6503 39.423 62.5249 38.5486 62.5249 37.4699V35.6605C62.5249 34.5818 61.6503 33.7074 60.5718 33.7074C59.4933 33.7074 58.6187 34.5818 58.6187 35.6605V37.4699C58.6187 38.5486 59.4933 39.423 60.5718 39.423Z" fill="white"/>
<path d="M60.5242 73.6638C59.4457 73.6638 58.571 74.5382 58.571 75.6169V77.4263C58.571 78.505 59.4457 79.3794 60.5242 79.3794C61.6027 79.3794 62.4773 78.505 62.4773 77.4263V75.6169C62.4773 74.5382 61.6027 73.6638 60.5242 73.6638Z" fill="white"/>
<path d="M1.95312 66.6417C1.43945 66.6417 0.935547 66.8507 0.572266 67.214C0.208984 67.5773 0 68.0812 0 68.5948C0 69.1105 0.208789 69.6124 0.572266 69.9757C0.935742 70.339 1.43945 70.548 1.95312 70.548C2.4668 70.548 2.9707 70.339 3.33379 69.9757C3.69707 69.6124 3.90625 69.1085 3.90625 68.5948C3.90625 68.0812 3.69727 67.5773 3.33379 67.214C2.9707 66.8507 2.4668 66.6417 1.95312 66.6417Z" fill="white"/>
</svg>
