<svg width="100" height="100" viewBox="0 0 100 100" fill="none" xmlns="http://www.w3.org/2000/svg">
<path d="M99.6337 31.0068C98.9 28.2683 97.1436 25.9791 94.688 24.5616L82.2636 17.3883C81.3296 16.8492 80.1351 17.169 79.5957 18.1031C79.0563 19.0372 79.3764 20.2315 80.3105 20.771L92.735 27.9443C94.2869 28.8403 95.3968 30.2868 95.8606 32.0175C96.3243 33.7485 96.0864 35.5563 95.1904 37.1081L85.3304 54.1861V40.2611C85.3304 36.8384 82.5458 34.0538 79.1231 34.0538C78.3104 34.0538 77.5339 34.2108 76.8218 34.4959V29.1927C76.8218 25.77 74.0372 22.9853 70.6145 22.9853C69.7661 22.9853 68.9571 23.1562 68.2198 23.4658C67.7089 20.554 65.1616 18.3343 62.1056 18.3343C59.0497 18.3343 56.5026 20.554 55.9916 23.4658C55.2544 23.1564 54.4452 22.9853 53.597 22.9853C50.1743 22.9853 47.3897 25.77 47.3897 29.1927L47.3893 52.8274L45.2216 49.4436C43.5172 46.7825 40.2263 45.6013 37.219 46.572C33.6252 47.7315 31.6232 51.4835 32.661 55.1142L32.8235 55.6823C33.6764 58.6662 34.8394 61.543 36.278 64.2683L22.822 56.4995C19.6184 54.6498 18.5169 50.5388 20.3664 47.3352L43.5012 7.26548C44.3972 5.71359 45.8438 4.60348 47.5746 4.13963C49.3054 3.67559 51.1133 3.91386 52.6652 4.80992L65.0905 11.9834C66.0248 12.5231 67.2191 12.203 67.7583 11.2686C68.2978 10.3345 67.9777 9.1402 67.0435 8.60077L54.6183 1.42725C52.1627 0.00973368 49.3021 -0.367203 46.5635 0.36675C43.825 1.10051 41.5358 2.85707 40.1183 5.31244L38.8842 7.44984C34.1121 6.07158 29.178 5.32083 24.1928 5.22045C24.1793 5.22025 24.1661 5.22006 24.1528 5.22006C23.0925 5.22006 22.2224 6.06885 22.2009 7.13384C22.1792 8.21212 23.0358 9.10407 24.1143 9.12575C28.4348 9.21266 32.7137 9.82416 36.8681 10.9421L23.9331 33.346C21.1262 32.381 18.1974 31.8638 15.2047 31.8105C14.1239 31.7888 13.2365 32.6499 13.2171 33.7282C13.1978 34.8069 14.0565 35.6965 15.135 35.7158C17.4599 35.7574 19.7395 36.123 21.9374 36.8025L16.9841 45.382C14.0577 50.4507 15.8006 56.9555 20.8693 59.882L41.0687 71.544C43.3996 74.4349 46.0872 77.0428 49.0781 79.2854V98.046C49.0781 99.1244 49.9525 99.999 51.0311 99.999C52.1098 99.999 52.9842 99.1244 52.9842 98.046V78.2954C52.9842 77.665 52.6797 77.073 52.1668 76.7064C44.6535 71.3364 39.1178 63.4885 36.5794 54.6088L36.4169 54.0406C35.9611 52.4462 36.8403 50.7984 38.4184 50.2894C39.7386 49.8637 41.1843 50.382 41.9327 51.5503L47.6981 60.5505C48.1658 61.2805 49.0591 61.6149 49.8913 61.3714C50.7237 61.1278 51.2956 60.3644 51.2956 59.497V51.4079C51.2958 51.395 51.2959 51.3821 51.2959 51.3692V29.1929C51.2959 27.924 52.3283 26.8916 53.5972 26.8916C54.8661 26.8916 55.8985 27.924 55.8985 29.1929V47.5345C55.8985 48.6129 56.7729 49.4875 57.8515 49.4875C58.9302 49.4875 59.8046 48.6129 59.8046 47.5345V24.5417C59.8046 23.2728 60.8369 22.2404 62.1058 22.2404C63.3749 22.2404 64.4071 23.2728 64.4071 24.5417V47.5345C64.4071 48.6129 65.2815 49.4875 66.3601 49.4875C67.4388 49.4875 68.3132 48.6129 68.3132 47.5345V29.1929C68.3132 27.924 69.3456 26.8916 70.6145 26.8916C71.8833 26.8916 72.9157 27.924 72.9157 29.1929V47.5345C72.9157 48.6129 73.7901 49.4875 74.8688 49.4875C75.9474 49.4875 76.8218 48.6129 76.8218 47.5345V40.2615C76.8218 38.9926 77.8542 37.9603 79.1231 37.9603C80.392 37.9603 81.4243 38.9926 81.4243 40.2615V56.2706C81.4243 63.942 78.3089 71.4483 72.8767 76.8648C72.5093 77.2312 72.3027 77.7289 72.3027 78.2478V98.0463C72.3027 99.1248 73.177 99.9994 74.2557 99.9994C75.3344 99.9994 76.2087 99.1248 76.2087 98.0463V79.0444C80.4537 74.6011 83.3182 69.1745 84.5867 63.2865L98.573 39.0616C99.9911 36.606 100.368 33.7454 99.6337 31.0068Z" fill="white"/>
<path d="M1.9547 13.3045C2.20391 13.3045 2.45741 13.2564 2.70193 13.1549C6.63028 11.5264 10.7602 10.3736 14.977 9.72808C16.0434 9.565 16.7754 8.56836 16.6121 7.5022C16.449 6.43584 15.4528 5.70501 14.3862 5.86711C9.85885 6.55986 5.42447 7.79789 1.2061 9.54684C0.209657 9.95991 -0.263175 11.1024 0.149893 12.0989C0.461404 12.8508 1.18833 13.3045 1.9547 13.3045Z" fill="white"/>
<path d="M1.95467 26.0396C2.20232 26.0396 2.45407 25.9921 2.69722 25.892C8.79266 23.3835 15.4863 22.4845 22.0546 23.2921C23.1254 23.4255 24.0998 22.6628 24.2315 21.5921C24.3631 20.5217 23.602 19.5469 22.5313 19.4153C15.2982 18.5253 7.92532 19.5164 1.21057 22.28C0.213148 22.6905 -0.262808 23.8317 0.147721 24.8293C0.458254 25.5836 1.18654 26.0396 1.95467 26.0396Z" fill="white"/>
<path d="M4.85567 33.5587C3.53678 34.0448 2.24367 34.6348 1.01208 35.3123C0.0670053 35.8322 -0.277706 37.0197 0.242193 37.9648C0.597842 38.6114 1.26598 38.977 1.95521 38.977C2.27336 38.977 2.59639 38.8989 2.89481 38.7349C3.9559 38.1513 5.07011 37.6429 6.20658 37.224C7.21865 36.851 7.73679 35.7281 7.36357 34.7159C6.99053 33.704 5.86754 33.1855 4.85567 33.5587Z" fill="white"/>
<path d="M73.6775 16.6396C74.1912 16.6396 74.6931 16.4307 75.0584 16.0674C75.4216 15.7041 75.6306 15.2002 75.6306 14.6865C75.6306 14.1709 75.4216 13.667 75.0584 13.3037C74.6931 12.9406 74.191 12.7314 73.6775 12.7314C73.1638 12.7314 72.6599 12.9404 72.2966 13.3037C71.9314 13.6689 71.7244 14.1709 71.7244 14.6865C71.7244 15.2002 71.9314 15.7021 72.2966 16.0674C72.6599 16.4307 73.1617 16.6396 73.6775 16.6396Z" fill="white"/>
</svg>
