<svg width="100" height="100" viewBox="0 0 100 100" fill="none" xmlns="http://www.w3.org/2000/svg">
<g clip-path="url(#clip0)">
<path d="M22.6565 60.938C21.5784 60.938 20.7034 61.813 20.7034 62.8911C20.7034 63.9692 21.5784 64.8442 22.6565 64.8442C23.7346 64.8442 24.6096 63.9692 24.6096 62.8911C24.6096 61.813 23.7346 60.938 22.6565 60.938Z" fill="white"/>
<path d="M85.1561 23.4382H65.625C64.5465 23.4382 63.6719 24.3126 63.6719 25.3914V62.8912C63.6719 70.4298 57.5387 76.563 50 76.563C42.4756 76.563 36.3282 70.4755 36.3282 62.8912V25.3914C36.3282 24.3126 35.4536 23.4382 34.375 23.4382H14.844C13.7655 23.4382 12.8909 24.3126 12.8909 25.3914V62.8912C12.8909 83.3531 29.5379 100 50 100C70.4622 100 87.1092 83.3531 87.1092 62.891V25.3914C87.1092 24.3126 86.2346 23.4382 85.1561 23.4382ZM16.7971 27.3445H32.4221V41.407H16.7971V27.3445ZM83.203 62.8912C83.203 81.1992 68.3081 96.0941 50 96.0941C31.692 96.0941 16.7971 81.1992 16.7971 62.8912V45.3132H32.4221V62.8912C32.4221 72.5656 40.2491 80.4693 50 80.4693C59.6926 80.4693 67.578 72.5837 67.578 62.8912V45.3132H83.203V62.8912ZM83.203 41.4068H67.578V27.3443H83.203V41.4068Z" fill="white"/>
<path d="M34.674 83.1204C30.3699 79.8511 27.1628 75.2167 25.6431 70.0718C25.3374 69.0373 24.2513 68.4457 23.2165 68.7519C22.1822 69.0574 21.5912 70.1437 21.8966 71.1783C23.6503 77.1158 27.349 82.4617 32.3111 86.231C33.1697 86.8833 34.3953 86.7163 35.0478 85.8572C35.7003 84.9984 35.533 83.773 34.674 83.1204Z" fill="white"/>
<path d="M28.2242 8.73954C27.8683 8.16376 27.2396 7.81318 26.5627 7.81318H21.9105L24.4035 2.82724C24.8857 1.8624 24.4947 0.689155 23.5299 0.206733C22.5652 -0.275885 21.392 0.115326 20.9095 1.08017L17.0033 8.89267C16.7006 9.49814 16.733 10.2171 17.0888 10.7929C17.4447 11.3686 18.0734 11.7192 18.7504 11.7192H23.4025L20.9095 16.7052C20.4271 17.67 20.8181 18.8433 21.7832 19.3257C22.7511 19.8097 23.9228 19.4138 24.4035 18.4522L28.3097 10.6397C28.6125 10.0343 28.5801 9.31533 28.2242 8.73954Z" fill="white"/>
<path d="M82.9115 8.73954C82.5556 8.16376 81.9269 7.81318 81.2499 7.81318H76.5978L79.0908 2.82724C79.573 1.8624 79.182 0.689155 78.2171 0.206733C77.2525 -0.275885 76.0792 0.115326 75.5968 1.08017L71.6906 8.89267C71.3878 9.49814 71.4202 10.2171 71.7761 10.7929C72.132 11.3686 72.7607 11.7192 73.4376 11.7192H78.0898L75.5968 16.7052C75.1144 17.67 75.5054 18.8433 76.4704 19.3257C77.4384 19.8097 78.6101 19.4138 79.0908 18.4522L82.997 10.6397C83.2997 10.0343 83.2673 9.31533 82.9115 8.73954Z" fill="white"/>
</g>
<defs>
<clipPath id="clip0">
<rect width="100" height="100" fill="white"/>
</clipPath>
</defs>
</svg>
