<svg width="82" height="99" viewBox="0 0 82 99" fill="none" xmlns="http://www.w3.org/2000/svg">
<path d="M11.9668 73.9998H41.0002C43.7616 73.9998 46.0002 71.7612 46.0002 68.9998C45.9883 66.2433 43.7566 64.0117 41.0002 63.9998H11.5668C11.0747 64.0167 10.6153 63.7541 10.3802 63.3215C10.1098 62.8934 10.1027 62.3498 10.3618 61.9148L14.6802 54.4148L15.8685 55.0998C16.4152 55.4148 17.0929 55.394 17.6193 55.0461C18.1457 54.6982 18.4305 54.0829 18.3552 53.4565L17.0885 42.8731C17.0256 42.3526 16.7215 41.892 16.2675 41.6297C15.8134 41.3675 15.2625 41.3341 14.7802 41.5398L4.98015 45.7231C4.39944 45.97 4.00796 46.5237 3.96879 47.1535C3.92963 47.7833 4.2495 48.3812 4.79515 48.6981L6.02849 49.4131L1.70515 56.9181C-0.38656 60.497 -0.348169 64.9344 1.80515 68.4765C4.00062 71.9602 7.8493 74.0522 11.9668 73.9998ZM4.59515 58.5815L9.74515 49.6298C10.1598 48.9124 9.98446 47.9992 9.33349 47.4865L14.0518 45.4715L14.6618 50.5731C13.8976 50.2854 13.0375 50.5938 12.6302 51.3015L7.46682 60.2615C6.62758 61.7167 6.63139 63.5098 7.47682 64.9615C8.30469 66.4397 9.87266 67.3489 11.5668 67.3331H41.0002C41.4497 67.3316 41.8799 67.5162 42.1885 67.8431C42.4976 68.1483 42.6701 68.5655 42.6668 68.9998C42.6668 69.9203 41.9206 70.6665 41.0002 70.6665H11.9668C9.01993 70.723 6.25536 69.2442 4.66682 66.7615C3.1431 64.2547 3.11559 61.1145 4.59515 58.5815Z" fill="white"/>
<path d="M56.25 33.8998C56.2501 34.7718 56.48 35.6284 56.9167 36.3831L71.6333 61.9048C71.8984 62.3482 71.8894 62.9036 71.61 63.3382C71.3748 63.7644 70.9199 64.0221 70.4333 64.0048H61.0167V62.3331C61.0164 61.6929 60.6494 61.1093 60.0723 60.8318C59.4953 60.5544 58.8103 60.6319 58.31 61.0315L49.96 67.6982C49.5645 68.0144 49.3342 68.4934 49.3342 68.9998C49.3342 69.5062 49.5645 69.9852 49.96 70.3015L58.31 76.9681C58.8103 77.3677 59.4953 77.4453 60.0723 77.1678C60.6494 76.8903 61.0164 76.3068 61.0167 75.6665V73.9998H70.0333C74.1526 74.0539 78.0036 71.9618 80.2 68.4765C82.3509 64.935 82.3874 60.4995 80.295 56.9231L65.5917 31.3815C64.4519 29.4258 62.1427 28.4768 59.9572 29.066C57.7716 29.6552 56.2523 31.6362 56.25 33.8998ZM60.435 32.4415C61.2304 31.9901 62.2409 32.2601 62.705 33.0481L77.405 58.5815C78.885 61.112 78.86 64.2498 77.34 66.7565C75.751 69.2427 72.9834 70.7237 70.0333 70.6665H59.35C58.4768 70.664 57.7497 71.3358 57.6833 72.2065L53.6667 68.9998L57.6833 65.7931C57.7497 66.6638 58.4768 67.3357 59.35 67.3331H70.4333C72.1214 67.3508 73.6851 66.4476 74.5133 64.9765C75.3684 63.5182 75.3735 61.7129 74.5267 60.2498L59.8083 34.7148C59.5842 34.3315 59.5244 33.874 59.6424 33.446C59.7604 33.018 60.0462 32.6558 60.435 32.4415Z" fill="white"/>
<path d="M17.8485 38.8866C18.6049 39.3207 19.4613 39.5505 20.3335 39.5533C22.1203 39.5421 23.7697 38.5927 24.6768 37.0533L39.7935 10.8C40.0417 10.368 40.5019 10.1016 41.0002 10.1016C41.4984 10.1016 41.9586 10.368 42.2068 10.8L46.5118 18.2783L45.2785 18.9933C44.7329 19.3102 44.413 19.9081 44.4521 20.5379C44.4913 21.1677 44.8828 21.7214 45.4635 21.9683L55.2635 26.1516C55.7458 26.3573 56.2968 26.324 56.7508 26.0617C57.2048 25.7995 57.509 25.3388 57.5718 24.8183L58.8385 14.235C58.9139 13.6085 58.6291 12.9932 58.1027 12.6453C57.5763 12.2975 56.8986 12.2767 56.3518 12.5916L55.1618 13.2766L50.8618 5.80829C48.8318 2.28018 45.0715 0.105469 41.001 0.105469C36.9305 0.105469 33.1702 2.28018 31.1402 5.80829L16.0002 32.055C14.6352 34.4533 15.4605 37.5037 17.8485 38.8866ZM18.8935 33.72L34.0285 7.46329C35.4649 4.96985 38.1234 3.43323 41.001 3.43323C43.8786 3.43323 46.5371 4.96985 47.9735 7.46329L53.1068 16.38C53.5141 17.0868 54.3731 17.395 55.1368 17.1083L54.5268 22.21L49.8085 20.195C50.4627 19.6839 50.641 18.7694 50.2268 18.05L45.0935 9.13329C44.2512 7.66825 42.6901 6.76508 41.0002 6.76508C39.3102 6.76508 37.7492 7.66825 36.9068 9.13329L21.8002 35.365C21.3305 36.1627 20.3126 36.4437 19.5002 36C18.705 35.5348 18.4341 34.5152 18.8935 33.7166V33.72Z" fill="white"/>
<path d="M49.3336 84.8331C49.3336 81.6114 46.7219 78.9998 43.5002 78.9998H37.6669C36.7464 78.9998 36.0002 79.7459 36.0002 80.6664V97.3331C36.0002 98.2536 36.7464 98.9998 37.6669 98.9998H43.5002C45.8722 99.003 48.0093 97.5676 48.9035 95.3706C49.7977 93.1736 49.2704 90.6539 47.5702 88.9998C48.697 87.9063 49.3331 86.4032 49.3336 84.8331ZM46.0002 93.1664C46.0002 94.5471 44.881 95.6664 43.5002 95.6664H39.3336V90.6664H43.5002C44.881 90.6664 46.0002 91.7857 46.0002 93.1664ZM39.3336 87.3331V82.3331H43.5002C44.881 82.3331 46.0002 83.4524 46.0002 84.8331C46.0002 86.2138 44.881 87.3331 43.5002 87.3331H39.3336Z" fill="white"/>
<path d="M58.5003 82.3331H60.167C61.5477 82.3331 62.667 83.4524 62.667 84.8331C62.667 85.7536 63.4132 86.4998 64.3336 86.4998C65.2541 86.4998 66.0003 85.7536 66.0003 84.8331C66.0003 81.6114 63.3886 78.9998 60.167 78.9998H58.5003C55.2787 78.9998 52.667 81.6114 52.667 84.8331C52.667 88.0547 55.2787 90.6664 58.5003 90.6664H60.167C61.5477 90.6664 62.667 91.7857 62.667 93.1664C62.667 94.5471 61.5477 95.6664 60.167 95.6664H58.5003C57.1196 95.6664 56.0003 94.5471 56.0003 93.1664C56.0003 92.2459 55.2541 91.4998 54.3337 91.4998C53.4132 91.4998 52.667 92.2459 52.667 93.1664C52.667 96.3881 55.2787 98.9997 58.5003 98.9997H60.167C61.714 98.9978 63.1977 98.385 64.2953 97.2948C65.9666 95.6263 66.4671 93.1148 65.563 90.9331C64.6589 88.7515 62.5286 87.3302 60.167 87.3331H58.5003C57.1196 87.3331 56.0003 86.2138 56.0003 84.8331C56.0003 83.4524 57.1196 82.3331 58.5003 82.3331Z" fill="white"/>
<path d="M26.0001 78.9998H22.6667C21.9304 78.9997 21.2814 79.4828 21.0701 80.1881L16.0701 96.8548C15.8059 97.7366 16.3066 98.6656 17.1884 98.9298C18.0702 99.1939 18.9992 98.6932 19.2634 97.8114L20.4067 93.9998H28.2601L29.4034 97.8114C29.6147 98.5167 30.2638 98.9998 31.0001 98.9998C31.162 98.9993 31.3231 98.9757 31.4784 98.9298C31.9019 98.8029 32.2576 98.513 32.4673 98.1239C32.6771 97.7347 32.7236 97.2782 32.5967 96.8548L27.5967 80.1881C27.3854 79.4828 26.7363 78.9997 26.0001 78.9998ZM21.4067 90.6664L23.9067 82.3331H24.7601L27.2601 90.6664H21.4067Z" fill="white"/>
</svg>
