<svg width="100" height="100" viewBox="0 0 100 100" fill="none" xmlns="http://www.w3.org/2000/svg">
<g clip-path="url(#clip0)">
<path d="M62.765 12.4603C51.7654 6.90207 38.5151 9.02727 29.7942 17.7484C19.6585 27.8839 18.644 44.0453 27.4346 55.341C27.7454 55.7402 28.2098 55.9492 28.6794 55.9492C29.0176 55.9492 29.3585 55.8408 29.6462 55.6168C30.3331 55.0822 30.4565 54.0922 29.9221 53.4053C22.1059 43.3619 23.0092 28.9908 32.0231 19.9769C39.779 12.2206 51.5618 10.3304 61.3439 15.2732C62.1205 15.6661 63.0685 15.354 63.4611 14.5773C63.8535 13.8005 63.5421 12.8527 62.765 12.4603Z" fill="white"/>
<path d="M75.3491 25.0467C74.9565 24.2699 74.0091 23.9582 73.2317 24.3504C72.455 24.7427 72.1431 25.6904 72.5354 26.4676C77.4747 36.248 75.5835 48.0293 67.8294 55.7832C58.8153 64.7969 44.4444 65.7001 34.401 57.8842C33.7139 57.3498 32.724 57.4733 32.1895 58.16C31.6549 58.8469 31.7785 59.837 32.4654 60.3715C37.6108 64.3758 43.7653 66.3454 49.9002 66.3454C57.2336 66.3454 64.5393 63.5307 70.0583 58.0118C78.7772 49.293 80.9034 36.0453 75.3491 25.0467Z" fill="white"/>
<path d="M71.2774 19.0446C70.887 18.6028 70.4768 18.1664 70.0583 17.7481C69.6397 17.3295 69.2036 16.9194 68.7618 16.5289C68.1096 15.9524 67.1135 16.0141 66.5376 16.6662C65.9608 17.3182 66.0221 18.3141 66.6743 18.8905C67.0678 19.2381 67.4565 19.6037 67.8296 19.9766C68.2022 20.3496 68.5678 20.7381 68.9157 21.1317C69.227 21.484 69.661 21.6639 70.0971 21.6639C70.468 21.6639 70.8403 21.5336 71.1401 21.2688C71.7925 20.6926 71.8538 19.6967 71.2774 19.0446Z" fill="white"/>
<path d="M87.1223 40.7049C88.1731 38.9809 88.1731 36.8395 87.1219 35.1159L85.0487 31.7161C84.7756 31.268 84.6699 30.736 84.7516 30.218L85.3696 26.2916C85.6846 24.2906 84.8625 22.3076 83.2246 21.116L80.0115 18.7789C79.5867 18.4697 79.2848 18.0188 79.1611 17.5082L78.2254 13.6412C77.7504 11.677 76.235 10.1617 74.2709 9.68632L70.4037 8.75038C69.8932 8.62675 69.4418 8.3248 69.133 7.89999L66.7955 4.68612C65.6041 3.04822 63.6209 2.22576 61.6205 2.541L57.6927 3.15897C57.1748 3.24041 56.6425 3.13494 56.1949 2.8619L52.7945 0.788063C51.0707 -0.263111 48.9292 -0.262916 47.2054 0.788063L43.8054 2.86131C43.3578 3.13455 42.8259 3.23963 42.3074 3.15838L38.3808 2.54041C36.3804 2.22557 34.397 3.04764 33.2056 4.68553L30.8685 7.89862C30.5593 8.32343 30.1081 8.62538 29.5974 8.74902L25.7304 9.68476C23.7665 10.1598 22.2509 11.6752 21.7755 13.6393L20.8395 17.5065C20.7159 18.017 20.4142 18.4684 19.9892 18.7772L16.7753 21.1147C15.1374 22.3059 14.3155 24.2887 14.6302 26.2897L15.2481 30.2176C15.3296 30.7358 15.2241 31.2678 14.9511 31.7155L12.8774 35.1161C11.8266 36.8399 11.8266 38.9813 12.8776 40.7049L14.9509 44.1049C15.2239 44.553 15.3296 45.085 15.2479 45.603L14.63 49.5296C14.3149 51.5304 15.137 53.5136 16.7749 54.705L19.988 57.0421C20.4128 57.3509 20.7147 57.8022 20.8384 58.3128L21.7741 62.1798C22.2491 64.1441 23.7646 65.6593 25.7286 66.1347L27.3435 66.5255L16.4149 90.9033C16.1827 91.4214 16.247 92.0242 16.5835 92.4816C16.9198 92.939 17.4759 93.1802 18.0399 93.1127L26.8333 92.0613L31.8989 99.3252C32.1954 99.75 32.6792 99.9996 33.1911 99.9996C33.2402 99.9996 33.2898 99.9973 33.339 99.9928C33.9042 99.9396 34.3974 99.5863 34.6296 99.0685L45.7908 74.1702L47.205 75.0325C48.0669 75.5581 49.0332 75.8208 49.9996 75.8208C50.966 75.8208 51.9322 75.5579 52.7941 75.0325L54.2593 74.1392L65.4346 99.0685C65.6668 99.5867 66.1597 99.9396 66.7252 99.9928C66.7746 99.9975 66.824 99.9998 66.873 99.9998C67.3849 99.9998 67.8689 99.7502 68.1652 99.3254L73.2309 92.0615L82.0242 93.1129C82.5879 93.1799 83.1443 92.9392 83.4807 92.4818C83.817 92.0244 83.8817 91.4216 83.6492 90.9035L72.715 66.5122L74.2691 66.1362C76.233 65.6612 77.7486 64.1458 78.224 62.1817L79.16 58.3146C79.2836 57.804 79.5856 57.3526 80.0104 57.0438L83.2242 54.7063C84.8621 53.5151 85.684 51.5323 85.3694 49.5313L84.7514 45.6034C84.6699 45.0852 84.7754 44.5532 85.0485 44.1055L87.1223 40.7049ZM32.8921 95.2396L28.8776 89.483C28.5448 89.0056 27.9757 88.7502 27.398 88.8197L20.4294 89.6529L30.3862 67.4413C30.5683 67.5751 30.7316 67.7355 30.8661 67.9208L33.2036 71.1347C33.4257 71.44 33.6753 71.7167 33.9474 71.9632L28.7066 83.6541C28.3507 84.4484 28.7058 85.3806 29.4999 85.7367C29.7093 85.8306 29.9282 85.875 30.1435 85.875C30.7454 85.875 31.3204 85.5281 31.5823 84.9433L36.8046 73.2941C37.3185 73.3646 37.8476 73.3634 38.3786 73.2798L42.3064 72.6618C42.5415 72.6249 42.7792 72.6283 43.0107 72.6665L32.8921 95.2396ZM79.6352 89.6525L72.6664 88.8197C72.0881 88.7504 71.5195 89.0056 71.1867 89.483L67.1723 95.2396L57.0494 72.6577C57.2617 72.6288 57.4783 72.6288 57.6925 72.6624L61.6189 73.2804C62.1715 73.3673 62.722 73.3646 63.2554 73.2851L68.4816 84.9437C68.7439 85.5287 69.3185 85.8754 69.9205 85.8754C70.1359 85.8754 70.3549 85.831 70.5641 85.7371C71.3582 85.3812 71.7135 84.4486 71.3574 83.6544L66.0967 71.9191C66.3504 71.6835 66.5849 71.4228 66.7941 71.1353L69.1312 67.9222C69.2785 67.7196 69.459 67.546 69.6617 67.4056L79.6352 89.6525ZM84.4311 39.0639L82.3574 42.4645C81.6963 43.5493 81.4404 44.838 81.6379 46.093L82.2559 50.0208C82.3858 50.8468 82.0463 51.6653 81.3703 52.1571L78.1563 54.4948C77.1275 55.2433 76.3959 56.3364 76.0967 57.5729L75.1607 61.4401C74.9645 62.2509 74.3391 62.8765 73.5281 63.0728L69.6609 64.0085C68.4242 64.3077 67.3308 65.0394 66.5824 66.0683L64.2453 69.2814C63.7535 69.9577 62.9351 70.2968 62.1088 70.1667L58.1822 69.5488C56.9269 69.3513 55.6381 69.6068 54.5531 70.2683L51.1533 72.3415C50.4418 72.7751 49.5574 72.7751 48.8462 72.3415L45.4457 70.2681C44.5999 69.7523 43.6304 69.4835 42.6494 69.4835C42.372 69.4835 42.0933 69.505 41.8169 69.5486L37.889 70.1665C37.0628 70.2966 36.2445 69.957 35.7527 69.281L33.415 66.0671C32.6665 65.0384 31.5734 64.3067 30.3368 64.0075L26.4696 63.0716C25.6589 62.8753 25.0333 62.2499 24.837 61.439L23.9013 57.572C23.602 56.3353 22.8706 55.2417 21.8415 54.4933L18.6286 52.1559C17.9524 51.6641 17.6132 50.8454 17.7432 50.0194L18.3612 46.0928C18.5587 44.8376 18.3032 43.5489 17.6417 42.4639L15.5684 39.0637C15.1346 38.3522 15.1346 37.468 15.5684 36.7567L17.6421 33.3561C18.3034 32.2713 18.5591 30.9827 18.3616 29.7276L17.7436 25.7998C17.6138 24.9739 17.9532 24.1553 18.6292 23.6635L21.8433 21.3258C22.872 20.5774 23.6036 19.4842 23.9028 18.2477L24.8388 14.3805C25.0351 13.5697 25.6605 12.9441 26.4714 12.7479L30.3386 11.8121C31.5753 11.5129 32.6687 10.7812 33.4169 9.75234L35.754 6.53925C36.2458 5.86307 37.0642 5.52342 37.8906 5.6537L41.8171 6.27167C43.0726 6.46952 44.3615 6.21366 45.4462 5.55214L48.846 3.47889C49.5576 3.04529 50.4419 3.04529 51.1531 3.47889L54.5537 5.55233C55.6384 6.21405 56.9275 6.46972 58.1824 6.27206L62.1103 5.65409C62.9361 5.5246 63.7549 5.86366 64.2467 6.53964L66.5844 9.75351C67.3328 10.7822 68.426 11.5139 69.6625 11.8131L73.5297 12.749C74.3404 12.9453 74.966 13.5707 75.1623 14.3816L76.0981 18.2486C76.3973 19.4854 77.1287 20.5789 78.1578 21.3274L81.3709 23.6645C82.0471 24.1563 82.3863 24.975 82.2563 25.801L81.6383 29.7276C81.4408 30.9829 81.6963 32.2715 82.3578 33.3565L84.4311 36.7567C84.8651 37.4682 84.8651 38.3524 84.4311 39.0639Z" fill="white"/>
<path d="M68.4407 33.0074C68.0934 31.9383 67.1842 31.1918 66.0678 31.0593L56.5852 29.9349L52.5855 21.264C52.1146 20.2433 51.1238 19.6091 49.9996 19.6091C48.8756 19.6091 47.8846 20.2433 47.4137 21.264L43.414 29.9351L33.9314 31.0595C32.815 31.192 31.9056 31.9385 31.5585 33.0076C31.2113 34.0761 31.5082 35.2146 32.3332 35.9777L39.3439 42.4611L37.483 51.8272C37.264 52.9299 37.6929 54.0252 38.6025 54.6858C39.1043 55.0502 39.6865 55.2348 40.2724 55.2348C40.7488 55.2348 41.2273 55.1129 41.667 54.8668L49.9994 50.2029L58.3318 54.8668C59.3129 55.416 60.4869 55.3467 61.3965 54.686C62.3061 54.0252 62.735 52.9297 62.5158 51.8272L60.6549 42.4613L67.6657 35.9779C68.491 35.2148 68.7879 34.0765 68.4407 33.0074ZM57.8676 40.7463C57.4652 41.1184 57.2852 41.6728 57.3918 42.2103L59.2961 51.7945L50.7691 47.0217C50.5301 46.8879 50.2648 46.8209 49.9994 46.8209C49.734 46.8209 49.4689 46.8877 49.2297 47.0217L40.7027 51.7945L42.607 42.2103C42.714 41.6726 42.5338 41.1184 42.1312 40.7463L34.957 34.1115L44.6613 32.9609C45.2054 32.8965 45.6771 32.5537 45.9068 32.0562L49.9996 23.183L54.0924 32.0562C54.3221 32.5537 54.7936 32.8965 55.3379 32.9609L65.0418 34.1115L57.8676 40.7463Z" fill="white"/>
</g>
<defs>
<clipPath id="clip0">
<rect width="100" height="100" fill="white"/>
</clipPath>
</defs>
</svg>
