<svg width="290" height="290" viewBox="0 0 290 290" fill="none" xmlns="http://www.w3.org/2000/svg">
<circle cx="25" cy="25" r="25" fill="#27659A"/>
<circle cx="25" cy="85" r="25" fill="#27659A"/>
<circle cx="25" cy="145" r="25" fill="#27659A"/>
<circle cx="25" cy="205" r="25" fill="#27659A"/>
<circle cx="25" cy="265" r="25" fill="#27659A"/>
<circle cx="85" cy="25" r="25" fill="#27659A"/>
<circle cx="85" cy="85" r="25" fill="#27659A"/>
<circle cx="85" cy="145" r="25" fill="#27659A"/>
<circle cx="85" cy="205" r="25" fill="#27659A"/>
<circle cx="85" cy="265" r="25" fill="#27659A"/>
<circle cx="145" cy="25" r="25" fill="#27659A"/>
<circle cx="145" cy="85" r="25" fill="#27659A"/>
<circle cx="145" cy="145" r="25" fill="#27659A"/>
<circle cx="145" cy="205" r="25" fill="#27659A"/>
<circle cx="145" cy="265" r="25" fill="#27659A"/>
<circle cx="205" cy="25" r="25" fill="#27659A"/>
<circle cx="265" cy="25" r="25" fill="#27659A"/>
<circle cx="205" cy="85" r="25" fill="#27659A"/>
<circle cx="265" cy="85" r="25" fill="#27659A"/>
<circle cx="205" cy="145" r="25" fill="#27659A"/>
<circle cx="265" cy="145" r="25" fill="#27659A"/>
<circle cx="205" cy="205" r="25" fill="#27659A"/>
<circle cx="265" cy="205" r="25" fill="#27659A"/>
<circle cx="205" cy="265" r="25" fill="#27659A"/>
<circle cx="265" cy="265" r="25" fill="#27659A"/>
</svg>
