<svg width="125" height="125" viewBox="0 0 125 125" fill="none" xmlns="http://www.w3.org/2000/svg">
<path d="M48 49.5004L20.5 48.0004L24.5 104.5C24.5 105 24.8 105.9 26 105.5C26.3349 105.166 26.8441 104.781 27.5 104.38M48 49.5004L57 21.5004L87 33.6879M48 49.5004L53.2143 50.0692M105 41.0004C105.5 41.3337 106 42.3004 104 43.5004C101.5 45.0004 99 46.5004 98.5 49.5004C98 52.5004 94 73.5004 70.5 76.5004M105 41.0004L102.5 39.9847M105 41.0004L74.5 55.0005M70.5 76.5004C68 84.5004 60.5 101.5 38.5 101C33.8394 101.389 29.7822 102.984 27.5 104.38M70.5 76.5004C71.5 71.0004 73.5 58.0005 74.5 55.0005M27.5 104.38C25.8333 87.7532 33.3 54.2005 74.5 55.0005M74.5 55.0005L75.5 52.5004M75.5 52.5004L74 52.3367M75.5 52.5004L102.5 39.9847M53.2143 50.0692L83 35.6273M53.2143 50.0692L74 52.3367M87 33.6879L83 35.6273M87 33.6879L102.5 39.9847M83 35.6273L87 45.5004L74 52.3367M21.5 41.0004C22.5 32.8337 29.4 17.5004 49 21.5004M49 21.5004C49.4 20.7005 49.8333 20.1672 50 20.0005L52 23.0005H48.5L49 21.5004ZM25.5 54.5004C31.8333 54.667 44.7 55.1004 45.5 55.5004C46.5 56.0004 46.5 57.5004 45 58.0004C43.5 58.5004 30.5 69.0004 28.5 74.5004C27.5 76.5004 26 75.5004 26 74.0004C26 72.8004 25.6667 60.5004 25.5 54.5004ZM35 89.5004C37.5 82.8337 45.4 68.6004 57 65.0004C63 63.4004 62.1667 68.0004 61 70.5004C57.8333 75.3337 49.2 86.4004 40 92.0004C35 94.5004 34.5 91.5004 35 89.5004ZM20 41.0005H23L22 44.0005L20 41.0005Z" stroke="white" stroke-width="2"/>
<circle cx="62.5" cy="62.5" r="61.5" stroke="white" stroke-width="2"/>
</svg>
