<svg width="125" height="125" viewBox="0 0 125 125" fill="none" xmlns="http://www.w3.org/2000/svg">
<path d="M21 50.0753L53.5 60.5753L59.5 25.5753M21 50.0753C21.1667 49.5753 21.7 48.0752 22.5 46.0753C26.5 33.0753 34 26 43.5 25.0753C49.9195 24.4505 56.8333 25.742 59.5 25.5753M21 50.0753C26.8333 50.5753 40 50.3752 46 45.5752C52 40.7752 57.5 30.2419 59.5 25.5753M63.5 33.5752C64.5 33.9086 67 34.3752 69 33.5752C71.5 32.5752 79 27.4995 87.5 29.9995C101.5 34.9995 101.5 43.0752 103.5 44.5752C105.1 45.7752 105.833 46.0752 106 46.0752M63.5 33.5752C65.5417 34.6561 68.981 36.2173 73.5 37.9034M63.5 33.5752L69 45.4919M106 46.0752C102.179 45.5508 98.4977 44.8896 95 44.1415M106 46.0752L95.2034 53.9273M73.5 37.9034L72.5 46.5752M73.5 37.9034C79.1743 40.0205 86.5509 42.3345 95 44.1415M72.5 46.5752L92.5 53.0752M72.5 46.5752L69 45.4919M92.5 53.0752L95 44.1415M92.5 53.0752L95.2034 53.9273M95.2034 53.9273L78.5 66.0752L69 45.4919M30.5 43.5752C33.1667 39.7419 40.4 31.8752 48 31.0752C57.5 30.0752 45.5 39.0752 41.5 41.5752C37.5 44.0752 29 48.0752 30.5 43.5752ZM38 52C42 50.9248 49.2 48.4 52 44C52.4 48.8 51.6667 53.7419 51 56.0752C48.8333 55.9086 42.8 55.6 38 52ZM16 66.5752H110.5C108.167 67.4086 103.5 70.5752 103.5 76.5752C103.5 84.0752 102 99.0752 101 100.575C100.2 101.775 95.6667 102.075 93.5 102.075H30.5C28.6667 102.075 25 101.375 25 98.5752C25 95.0752 24.5 81.0752 24 77.0752C23.5 73.0752 20.5 66.5752 16 66.5752Z" stroke="white" stroke-width="2"/>
<circle cx="62.5" cy="62.5" r="61.5" stroke="white" stroke-width="2"/>
</svg>
