<svg width="20" height="17" viewBox="0 0 20 17" fill="none" xmlns="http://www.w3.org/2000/svg">
<g clip-path="url(#clip0)">
<path d="M0.35943 7.54114L7.56755 0.332862C7.77331 0.127101 8.04754 0.0141602 8.33996 0.0141602C8.6327 0.0141602 8.90677 0.127264 9.11253 0.332862L9.76698 0.987466C9.97258 1.1929 10.0858 1.4673 10.0858 1.75988C10.0858 2.05229 9.97258 2.33594 9.76698 2.54138L5.56187 6.75574H18.9217C19.5241 6.75574 20 7.2273 20 7.82982V8.75525C20 9.35777 19.5241 9.87688 18.9217 9.87688H5.51416L9.76682 14.1148C9.97241 14.3205 10.0857 14.5875 10.0857 14.88C10.0857 15.1723 9.97241 15.4431 9.76682 15.6487L9.11237 16.3012C8.90661 16.507 8.63253 16.6191 8.3398 16.6191C8.04738 16.6191 7.77314 16.5055 7.56738 16.2998L0.359268 9.09164C0.153021 8.88523 0.0395927 8.6097 0.0404053 8.3168C0.0397549 8.02292 0.153021 7.74722 0.35943 7.54114Z" fill="white"/>
</g>
<defs>
<clipPath id="clip0">
<rect width="20" height="16.6329" fill="white" transform="matrix(-1 0 0 1 20 0)"/>
</clipPath>
</defs>
</svg>
