<svg width="20" height="17" viewBox="0 0 20 17" fill="none" xmlns="http://www.w3.org/2000/svg">
<g clip-path="url(#clip0)">
<path d="M19.6406 7.54114L12.4325 0.332862C12.2267 0.127101 11.9525 0.0141602 11.66 0.0141602C11.3673 0.0141602 11.0932 0.127264 10.8875 0.332862L10.233 0.987466C10.0274 1.1929 9.91416 1.4673 9.91416 1.75988C9.91416 2.05229 10.0274 2.33594 10.233 2.54138L14.4381 6.75574H1.0783C0.475943 6.75574 0 7.2273 0 7.82982V8.75525C0 9.35777 0.475943 9.87688 1.0783 9.87688H14.4858L10.2332 14.1148C10.0276 14.3205 9.91432 14.5875 9.91432 14.88C9.91432 15.1723 10.0276 15.4431 10.2332 15.6487L10.8876 16.3012C11.0934 16.507 11.3675 16.6191 11.6602 16.6191C11.9526 16.6191 12.2269 16.5055 12.4326 16.2998L19.6407 9.09164C19.847 8.88523 19.9604 8.6097 19.9596 8.3168C19.9602 8.02292 19.847 7.74722 19.6406 7.54114Z" fill="white"/>
</g>
<defs>
<clipPath id="clip0">
<rect width="20" height="16.6329" fill="white"/>
</clipPath>
</defs>
</svg>
