<svg width="64" height="64" viewBox="0 0 64 64" fill="none" xmlns="http://www.w3.org/2000/svg">
<g clip-path="url(#clip0)">
<path d="M31.2306 49.4316C31.4336 49.3161 31.5897 49.1331 31.6719 48.9145C31.7541 48.6959 31.7572 48.4554 31.6806 48.2347L30.7306 45.4981C30.6713 45.3272 30.5668 45.1756 30.4281 45.0594C30.2894 44.9432 30.1218 44.8668 29.9431 44.8384C28.9918 44.6871 28.0604 44.43 27.1663 44.0719L26.4221 45.9282C27.267 46.2667 28.1411 46.5271 29.0334 46.7064L29.5541 48.2071C29.2284 48.5183 28.9687 48.892 28.7906 49.3058C28.6124 49.7196 28.5195 50.165 28.5174 50.6155C28.5174 52.4818 30.0799 54 32.0001 54C33.9204 54 35.4829 52.4818 35.4829 50.6154C35.4807 50.1649 35.3878 49.7195 35.2097 49.3057C35.0316 48.8919 34.7719 48.5183 34.4461 48.2071L34.967 46.7061C36.8706 46.3209 38.6815 45.5704 40.2996 44.4961L41.7308 45.1898C41.7204 45.6401 41.801 46.088 41.9676 46.5065C42.1342 46.925 42.3835 47.3057 42.7005 47.6258C43.0188 47.9446 43.3988 48.1951 43.8173 48.362C44.2358 48.5289 44.6839 48.6087 45.1343 48.5965C46.046 48.5772 46.9146 48.2043 47.5565 47.5564C48.9143 46.1985 48.9455 44.0201 47.626 42.7004C47.306 42.3833 46.9253 42.134 46.5068 41.9674C46.0882 41.8008 45.6404 41.7202 45.19 41.7306L44.4963 40.2996C45.5735 38.677 46.3251 36.8605 46.7095 34.9511L48.1794 34.4442C48.4927 34.7708 48.8684 35.031 49.2843 35.2094C49.7001 35.3878 50.1476 35.4807 50.6001 35.4827C52.4751 35.4827 54.0001 33.9202 54.0001 32C54.0001 30.0798 52.4751 28.5173 50.6001 28.5173C50.1476 28.5192 49.7001 28.6122 49.2843 28.7906C48.8684 28.969 48.4926 29.2292 48.1794 29.5557L46.7096 29.049C46.5303 28.1512 46.2688 27.2718 45.9284 26.4219L44.0719 27.1661C44.4321 28.0652 44.6901 29.002 44.841 29.9587C44.8693 30.138 44.9458 30.3062 45.0624 30.4453C45.1789 30.5844 45.3312 30.6892 45.5028 30.7484L48.2081 31.6812C48.4281 31.7571 48.6677 31.7538 48.8855 31.672C49.1034 31.5902 49.2859 31.435 49.4016 31.2331C49.5196 31.0179 49.6928 30.8381 49.9035 30.7122C50.1142 30.5864 50.3547 30.5191 50.6001 30.5173C51.3721 30.5173 52.0001 31.1824 52.0001 32C52.0001 32.8176 51.3721 33.4827 50.6001 33.4827C50.3547 33.4809 50.1142 33.4136 49.9035 33.2878C49.6928 33.1619 49.5196 32.9821 49.4016 32.7669C49.2859 32.565 49.1034 32.4097 48.8855 32.3279C48.6676 32.2461 48.428 32.2429 48.208 32.3187L45.5028 33.2518C45.3312 33.3109 45.1789 33.4157 45.0624 33.5548C44.9458 33.6939 44.8693 33.8621 44.841 34.0414C44.52 36.0573 43.729 37.9693 42.5319 39.6227C42.4257 39.7692 42.3612 39.9417 42.3453 40.1219C42.3293 40.3021 42.3626 40.4832 42.4415 40.646L43.7058 43.2539C43.8076 43.464 43.9799 43.6319 44.1926 43.7284C44.4053 43.8248 44.645 43.8438 44.8703 43.782C45.1032 43.7125 45.3504 43.7067 45.5863 43.7652C45.8222 43.8237 46.0381 43.9443 46.2116 44.1145C46.7515 44.6544 46.7204 45.5645 46.1423 46.1421C45.5641 46.7197 44.6548 46.7514 44.1148 46.2115C43.9445 46.038 43.8239 45.822 43.7654 45.5861C43.7069 45.3502 43.7127 45.1029 43.7821 44.87C43.8439 44.6448 43.8249 44.405 43.7284 44.1924C43.6319 43.9797 43.464 43.8075 43.2539 43.7056L40.6461 42.4415C40.4834 42.3626 40.3022 42.3293 40.122 42.3452C39.9418 42.3611 39.7693 42.4256 39.6229 42.5317C37.9738 43.7258 36.0674 44.5158 34.0571 44.8384C33.8785 44.8668 33.7109 44.9432 33.5722 45.0594C33.4335 45.1756 33.3289 45.3272 33.2696 45.4981L32.3196 48.2347C32.2431 48.4554 32.2461 48.6959 32.3283 48.9145C32.4105 49.1331 32.5667 49.3161 32.7696 49.4316C32.9834 49.5472 33.1624 49.718 33.2878 49.9262C33.4133 50.1344 33.4807 50.3723 33.483 50.6154C33.483 51.3789 32.8179 52 32.0003 52C31.1826 52 30.5176 51.3789 30.5175 50.6154C30.5198 50.3724 30.5872 50.1344 30.7126 49.9262C30.838 49.7181 31.0169 49.5473 31.2306 49.4316Z" fill="white"/>
<path d="M13.3846 35.4827C13.8351 35.4806 14.2805 35.3877 14.6943 35.2096C15.1081 35.0315 15.4817 34.7718 15.7929 34.446L17.2936 34.9669C17.5337 36.1638 17.9199 37.3267 18.4436 38.4294L20.2502 37.5711C19.7212 36.4579 19.3545 35.2747 19.1614 34.0574C19.1329 33.8787 19.0565 33.7111 18.9404 33.5724C18.8242 33.4337 18.6725 33.3292 18.5016 33.2699L15.7649 32.3199C15.5442 32.2433 15.3037 32.2464 15.0851 32.3286C14.8665 32.4108 14.6835 32.5669 14.568 32.7699C14.4524 32.9837 14.2816 33.1626 14.0735 33.2881C13.8653 33.4135 13.6273 33.4809 13.3842 33.4832C12.6211 33.4827 12 32.8176 12 32C12 31.1824 12.6211 30.5172 13.3846 30.5172C13.6277 30.5196 13.8657 30.5869 14.0738 30.7124C14.282 30.8379 14.4528 31.0168 14.5684 31.2306C14.6839 31.4336 14.8669 31.5897 15.0855 31.6719C15.3041 31.7541 15.5446 31.7572 15.7653 31.6806L18.502 30.7306C18.6729 30.6713 18.8245 30.5667 18.9407 30.428C19.0568 30.2894 19.1332 30.1218 19.1616 29.9431C19.485 27.9276 20.2783 26.0165 21.4775 24.3645C21.5842 24.2177 21.6489 24.0447 21.6648 23.864C21.6807 23.6833 21.6471 23.5016 21.5676 23.3385L20.3137 20.7647C20.2118 20.5555 20.0401 20.3884 19.8282 20.2922C19.6163 20.196 19.3775 20.1767 19.1529 20.2376C18.9173 20.3065 18.6677 20.3111 18.4298 20.2511C18.1918 20.1911 17.9742 20.0687 17.7995 19.8964C17.2535 19.3505 17.2797 18.4361 17.8577 17.858C18.4358 17.2799 19.3505 17.2536 19.8962 17.7995C20.0685 17.9743 20.191 18.1919 20.2509 18.4299C20.3109 18.6679 20.3063 18.9175 20.2375 19.1531C20.1766 19.3777 20.1959 19.6166 20.2921 19.8285C20.3883 20.0404 20.5554 20.2121 20.7646 20.314L23.3384 21.5679C23.5015 21.6473 23.6831 21.6809 23.8639 21.665C24.0446 21.6491 24.2176 21.5843 24.3644 21.4776C26.0207 20.2754 27.9374 19.4811 29.9586 19.1594C30.1379 19.1311 30.3062 19.0546 30.4453 18.938C30.5844 18.8214 30.6892 18.6691 30.7484 18.4975L31.6812 15.7921C31.7571 15.5721 31.7539 15.3325 31.672 15.1146C31.5902 14.8967 31.4349 14.7142 31.233 14.5985C31.0178 14.4806 30.838 14.3073 30.7121 14.0967C30.5863 13.886 30.519 13.6455 30.5173 13.4001C30.5173 12.6281 31.1824 12.0001 32 12.0001C32.8176 12.0001 33.4827 12.6281 33.4827 13.4001C33.481 13.6455 33.4137 13.886 33.2879 14.0967C33.162 14.3073 32.9822 14.4806 32.767 14.5985C32.5651 14.7142 32.4098 14.8967 32.328 15.1146C32.2461 15.3325 32.2429 15.5721 32.3187 15.7921L33.2516 18.4975C33.3108 18.6691 33.4156 18.8214 33.5547 18.938C33.6938 19.0546 33.8621 19.1311 34.0414 19.1594C35.2641 19.3519 36.4528 19.7195 37.5709 20.2507L38.4291 18.4442C37.3217 17.918 36.1535 17.5305 34.951 17.2906L34.4442 15.8209C34.7708 15.5076 35.031 15.1318 35.2094 14.716C35.3878 14.3001 35.4807 13.8526 35.4827 13.4001C35.4827 11.5251 33.9202 10.0001 32 10.0001C30.0798 10.0001 28.5173 11.5251 28.5173 13.4001C28.5193 13.8526 28.6122 14.3001 28.7906 14.716C28.969 15.1318 29.2292 15.5076 29.5557 15.8209L29.0489 17.2909C27.1344 17.6761 25.3134 18.4307 23.6875 19.5125L22.2875 18.8312C22.2968 18.3788 22.2151 17.9291 22.0472 17.5089C21.8793 17.0887 21.6286 16.7065 21.31 16.3851C19.9842 15.0601 17.8011 15.0859 16.4431 16.4436C15.0851 17.8014 15.059 19.9847 16.3846 21.3104C16.7059 21.629 17.0881 21.8798 17.5083 22.0478C17.9285 22.2157 18.3782 22.2974 18.8306 22.288L19.5125 23.6875C18.4335 25.3089 17.6798 27.1246 17.2935 29.0336L15.7925 29.5545C15.4813 29.2288 15.1077 28.9691 14.6939 28.791C14.2801 28.6128 13.8347 28.5199 13.3842 28.5177C11.5182 28.5172 10 30.0796 10 32C10 33.9204 11.5183 35.4827 13.3846 35.4827Z" fill="white"/>
<path d="M25 24C24.4067 24 23.8266 24.1759 23.3333 24.5056C22.8399 24.8352 22.4554 25.3038 22.2284 25.8519C22.0013 26.4001 21.9419 27.0033 22.0576 27.5853C22.1734 28.1672 22.4591 28.7018 22.8787 29.1213C23.2982 29.5409 23.8328 29.8266 24.4147 29.9424C24.9967 30.0581 25.5999 29.9987 26.148 29.7716C26.6962 29.5446 27.1648 29.1601 27.4944 28.6667C27.8241 28.1734 28 27.5933 28 27C27.9991 26.2046 27.6827 25.4421 27.1203 24.8797C26.5579 24.3172 25.7954 24.0009 25 24ZM25 28C24.8022 28 24.6089 27.9413 24.4444 27.8315C24.28 27.7216 24.1518 27.5654 24.0761 27.3827C24.0004 27.2 23.9806 26.9989 24.0192 26.8049C24.0578 26.6109 24.153 26.4327 24.2929 26.2929C24.4327 26.153 24.6109 26.0578 24.8049 26.0192C24.9989 25.9806 25.2 26.0004 25.3827 26.0761C25.5654 26.1518 25.7216 26.28 25.8315 26.4444C25.9414 26.6089 26 26.8022 26 27C25.9997 27.2651 25.8942 27.5193 25.7068 27.7068C25.5193 27.8942 25.2651 27.9997 25 28Z" fill="white"/>
<path d="M21 32H23V34H21V32Z" fill="white"/>
<path d="M30 21H32V23H30V21Z" fill="white"/>
<path d="M42 31H44V33H42V31Z" fill="white"/>
<path d="M20.2929 46.1214L14.2094 52.2049C14.1107 52.3036 14.0337 52.422 13.9835 52.5522C13.9332 52.6825 13.9109 52.8219 13.9177 52.9613C13.9246 53.1008 13.9606 53.2372 14.0235 53.3619C14.0863 53.4866 14.1745 53.5968 14.2825 53.6853C19.3204 57.8164 25.4471 60 32 60C39.4261 60 46.548 57.05 51.799 51.799C57.05 46.548 60 39.4261 60 32C60 25.447 57.8164 19.3204 53.6851 14.2824C53.5966 14.1744 53.4864 14.0862 53.3617 14.0234C53.237 13.9606 53.1006 13.9246 52.9611 13.9177C52.8217 13.9108 52.6823 13.9332 52.552 13.9835C52.4218 14.0337 52.3035 14.1107 52.2047 14.2094L22.1212 44.2929L23.5355 45.7072L31.1794 38.0633C31.7625 39.7544 33.703 41 36 41C38.757 41 41 39.2057 41 37C41 34.8583 38.8849 33.1043 36.2375 33.0045L52.8222 16.4204C55.7129 20.2852 57.4709 24.8783 57.8997 29.6854C58.3284 34.4926 57.4109 39.3242 55.2499 43.6396C53.0888 47.955 49.7695 51.5838 45.6633 54.12C41.5572 56.6562 36.8262 57.9997 32 58C26.3796 58.0286 20.9056 56.2094 16.4203 52.8224L21.7077 47.5349L20.2929 46.1214ZM39 37C39 38.0842 37.6262 39 36 39C34.3737 39 33 38.0842 33 37C33 35.9159 34.3737 35 36 35C37.6262 35 39 35.9159 39 37Z" fill="white"/>
<path d="M11.276 50.8294C11.3671 50.9295 11.4775 51.01 11.6005 51.0661C11.7236 51.1222 11.8568 51.1528 11.992 51.1559H12.0154C12.1467 51.1559 12.2767 51.1301 12.3981 51.0798C12.5194 51.0296 12.6296 50.9559 12.7225 50.8631L50.8634 12.7223C50.959 12.6267 51.0342 12.5126 51.0845 12.3871C51.1348 12.2615 51.1591 12.1271 51.1559 11.9919C51.1528 11.8567 51.1222 11.7235 51.0661 11.6005C51.01 11.4774 50.9295 11.367 50.8295 11.2759C45.5048 6.43809 38.5223 3.83536 31.3301 4.00754C24.1379 4.17972 17.2879 7.1136 12.2008 12.2007C7.11366 17.2878 4.17978 24.1378 4.0076 31.33C3.83542 38.5222 6.43815 45.5047 11.276 50.8294ZM13.6153 13.6152C18.2109 9.02013 24.3605 6.3124 30.8529 6.02531C37.3454 5.73822 43.71 7.89258 48.6933 12.0641L12.0643 48.6932C7.89272 43.71 5.73833 37.3453 6.02539 30.8529C6.31246 24.3604 9.02019 18.2108 13.6153 13.6152Z" fill="white"/>
<path d="M11.3545 7.54992L12.6455 9.07742C16.6365 5.70894 21.4375 3.44038 26.5739 2.49601C31.7104 1.55163 37.0043 1.96415 41.9324 3.69278C46.8606 5.42141 51.2522 8.40629 54.6733 12.3523C58.0943 16.2984 60.4262 21.069 61.4385 26.1924L63.401 25.8074C62.322 20.3418 59.8351 15.2525 56.1861 11.0427C52.5371 6.83297 47.8525 3.64859 42.5955 1.80446C37.3385 -0.0396584 31.6911 -0.47964 26.2119 0.528027C20.7327 1.53569 15.6114 3.95611 11.3545 7.54992Z" fill="white"/>
<path d="M61.7525 28.1278C61.9173 29.4119 62 30.7053 62 32C62 37.9335 60.2405 43.7337 56.9441 48.6672C53.6477 53.6007 48.9623 57.4459 43.4805 59.7165C37.9987 61.9871 31.9667 62.5812 26.1473 61.4237C20.3278 60.2661 14.9823 57.4089 10.7867 53.2133C7.99448 50.421 5.78095 47.105 4.27311 43.4553C2.76528 39.8057 1.99281 35.8942 2.00001 31.9454C2.00721 27.9965 2.79394 24.0879 4.31507 20.4438C5.83621 16.7997 8.06182 13.4917 10.8642 10.7097L9.45512 9.29041C6.47517 12.2558 4.10873 15.7793 2.49102 19.6596C0.873317 23.5399 0.0360532 27.7009 0.0270734 31.9049C0.0180936 36.1089 0.837574 40.2734 2.43869 44.1606C4.0398 48.0478 6.39117 51.5813 9.35843 54.5594C12.3257 57.5375 15.8507 59.9017 19.732 61.517C23.6133 63.1322 27.7748 63.9669 31.9788 63.9732C36.1828 63.9795 40.3469 63.1574 44.233 61.5538C48.1192 59.9503 51.6513 57.5967 54.6275 54.6275C57.6082 51.6629 59.9714 48.1366 61.5802 44.2526C63.189 40.3686 64.0114 36.204 64 32C64 30.6199 63.9118 29.2412 63.7361 27.8723L61.7525 28.1278Z" fill="white"/>
</g>
<defs>
<clipPath id="clip0">
<rect width="64" height="64" fill="white"/>
</clipPath>
</defs>
</svg>
