<svg width="64" height="53" viewBox="0 0 64 53" fill="none" xmlns="http://www.w3.org/2000/svg">
<path d="M55.217 26.7134H45.7942C44.638 26.7134 43.6977 25.7729 43.6977 24.6169C43.6977 23.4609 44.6382 22.5204 45.7942 22.5204H48.5069C50.923 22.5204 52.8886 20.5548 52.8886 18.1387C52.8886 17.1011 53.7328 16.2569 54.7704 16.2569H55.911C60.3713 16.2569 64 12.6282 64 8.16796C64 3.70772 60.3713 0.0789795 55.911 0.0789795H45.7544C45.064 0.0789795 44.5044 0.638603 44.5044 1.32898C44.5044 2.01935 45.064 2.57898 45.7544 2.57898H55.911C58.9928 2.57898 61.5 5.08622 61.5 8.16796C61.5 11.2497 58.9928 13.757 55.911 13.757H54.7704C52.3543 13.757 50.3887 15.7226 50.3887 18.1387C50.3887 19.1763 49.5445 20.0204 48.5069 20.0204H45.7942C43.2597 20.0204 41.1977 22.0824 41.1977 24.6169C41.1977 27.1514 43.2597 29.2134 45.7942 29.2134H55.217C57.914 29.2134 60.1083 31.4077 60.1083 34.1047V41.3774H57.4441V38.6419C57.4441 36.8534 55.9891 35.3985 54.2008 35.3985H47.0809C46.676 35.3985 46.3425 35.0694 46.3377 34.6648C46.3155 32.871 44.8605 31.4118 43.0942 31.4118H30.2037C27.5562 31.4118 25.4023 29.2579 25.4023 26.6103C25.4023 23.9627 27.5562 21.8089 30.2037 21.8089H36.1187C38.7706 21.8089 40.928 19.6514 40.928 16.9996C40.928 14.3477 38.7706 12.1901 36.1187 12.1901H34.7669C32.1171 12.1901 29.9613 10.0343 29.9613 7.38459C29.9613 4.73585 32.1163 2.57998 34.7651 2.5791C35.4553 2.57885 36.0148 2.01898 36.0146 1.32873C36.0143 0.638479 35.4547 0.0791044 34.7646 0.0791044C34.7644 0.0791044 34.7643 0.0791044 34.7642 0.0791044C30.7374 0.0806044 27.4613 3.35785 27.4613 7.38459C27.4613 11.4128 30.7386 14.6901 34.7669 14.6901H36.1187C37.3921 14.6901 38.4281 15.7261 38.4281 16.9996C38.4281 18.2729 37.3921 19.3089 36.1187 19.3089H30.2037C26.1777 19.3089 22.9023 22.5843 22.9023 26.6104C22.9023 30.6364 26.1777 33.9118 30.2037 33.9118H43.094C43.5057 33.9118 43.8323 34.256 43.8378 34.6957C43.8595 36.4618 45.3144 37.8987 47.0809 37.8987H54.2008C54.6106 37.8987 54.9441 38.2322 54.9441 38.642V41.3782H1.25C0.559624 41.3782 0 41.9378 0 42.6282V51.1709C0 51.8613 0.559624 52.4209 1.25 52.4209H61.3583C62.0486 52.4209 62.6083 51.8613 62.6083 51.1709V34.1048C62.6083 30.0292 59.2925 26.7134 55.217 26.7134ZM2.5 43.878H15.854V49.9208H2.5V43.878ZM18.354 43.878H56.935C56.0434 44.6769 55.5135 45.8325 55.5135 47.0509V48.166C55.5135 48.7915 55.6503 49.3853 55.8938 49.9208H18.3538V43.878H18.354ZM60.1083 49.9209H59.7684C58.8008 49.9209 58.0136 49.1338 58.0136 48.1661V47.051C58.0136 46.4323 58.3449 45.8529 58.8781 45.5389L60.1083 44.8146V49.9209Z" fill="white"/>
</svg>
