<svg width="64" height="47" viewBox="0 0 64 47" fill="none" xmlns="http://www.w3.org/2000/svg">
<path d="M56.7824 14.4273C57.2099 14.7194 57.7931 14.6099 58.0854 14.1824C58.4988 13.5777 59.182 13.2167 59.9131 13.2167C61.1328 13.2167 62.125 14.2089 62.125 15.4286C62.125 16.6482 61.1328 17.6403 59.9131 17.6403H49.1728C48.655 17.6403 48.2353 18.0599 48.2353 18.5778C48.2353 19.0957 48.655 19.5153 49.1728 19.5153H59.9131C62.1666 19.5153 64 17.6819 64 15.4286C64 13.1751 62.1666 11.3417 59.9131 11.3417C58.5625 11.3417 57.3006 12.008 56.5376 13.1243C56.2454 13.5517 56.355 14.1351 56.7824 14.4273Z" fill="white"/>
<path d="M54.4035 14.5374C54.4035 14.0195 53.9837 13.5999 53.466 13.5999H47.405C46.8872 13.5999 46.4675 14.0195 46.4675 14.5374C46.4675 15.0552 46.8872 15.4749 47.405 15.4749H53.466C53.9837 15.4749 54.4035 15.0551 54.4035 14.5374Z" fill="white"/>
<path d="M50.688 22.3125C50.1702 22.3125 49.7505 22.7321 49.7505 23.25C49.7505 23.7679 50.1702 24.1875 50.688 24.1875H59.7795C60.2972 24.1875 60.717 23.7679 60.717 23.25C60.717 22.7321 60.2972 22.3125 59.7795 22.3125H50.688Z" fill="white"/>
<path d="M59.9131 26.9845H49.1728C48.655 26.9845 48.2353 27.4041 48.2353 27.922C48.2353 28.4399 48.655 28.8595 49.1728 28.8595H59.9131C61.1328 28.8595 62.125 29.8517 62.125 31.0712C62.125 32.2907 61.1328 33.2831 59.9131 33.2831C59.1821 33.2831 58.4989 32.9221 58.0854 32.3174C57.7931 31.89 57.2098 31.7804 56.7824 32.0725C56.355 32.3647 56.2454 32.9481 56.5376 33.3755C57.3006 34.4917 58.5626 35.1581 59.9131 35.1581C62.1666 35.1581 64 33.3247 64 31.0712C64 28.8179 62.1666 26.9845 59.9131 26.9845Z" fill="white"/>
<path d="M52.0844 36.2023H39.2186C40.7122 35.3696 42.067 34.2756 43.2125 32.9524C43.5514 32.5609 43.5087 31.9689 43.1172 31.6299C42.7257 31.291 42.1336 31.3338 41.7949 31.7251C39.3316 34.5705 35.7616 36.2025 32 36.2025C24.858 36.2025 19.0475 30.3921 19.0475 23.25C19.0475 16.1079 24.858 10.2975 32 10.2975C39.142 10.2975 44.9525 16.1079 44.9525 23.25C44.9525 24.9911 44.613 26.68 43.9435 28.2699C43.7426 28.747 43.9665 29.2969 44.4436 29.4978C44.9211 29.6988 45.4705 29.4746 45.6715 28.9976C46.4386 27.1763 46.8275 25.2424 46.8275 23.25C46.8275 17.6896 43.7504 12.8353 39.2101 10.2978H52.0844C54.3379 10.2978 56.1712 8.46439 56.1712 6.21102C56.1712 3.95764 54.3379 2.12427 52.0844 2.12427C50.7337 2.12427 49.4719 2.79052 48.7087 3.90664C48.4165 4.33414 48.5261 4.91752 48.9535 5.20977C49.3807 5.50177 49.9644 5.39227 50.2565 4.96502C50.6699 4.36027 51.3531 3.99927 52.0842 3.99927C53.3039 3.99927 54.2961 4.99152 54.2961 6.21102C54.2961 7.43052 53.3039 8.42277 52.0842 8.42277C52.0842 8.42277 32.0062 8.42252 31.9999 8.42252C23.824 8.42252 17.1724 15.0741 17.1724 23.25C17.1724 31.4259 23.8241 38.0775 32 38.0775C32.006 38.0775 52.0844 38.0773 52.0844 38.0773C53.304 38.0773 54.2962 39.0695 54.2962 40.289C54.2962 41.5085 53.304 42.5008 52.0844 42.5008C51.3532 42.5008 50.67 42.1398 50.2566 41.535C49.9642 41.1078 49.3811 40.9981 48.9536 41.2903C48.5262 41.5825 48.4166 42.1659 48.7089 42.5934C49.472 43.7095 50.7339 44.3758 52.0845 44.3758C54.338 44.3758 56.1714 42.5424 56.1714 40.289C56.1714 38.0356 54.3379 36.2023 52.0844 36.2023Z" fill="white"/>
<path d="M46.5938 31.9627C46.5938 32.4805 47.0135 32.9002 47.5312 32.9002H53.466C53.9837 32.9002 54.4035 32.4805 54.4035 31.9627C54.4035 31.4448 53.9837 31.0251 53.466 31.0251H47.5312C47.0135 31.0251 46.5938 31.4449 46.5938 31.9627Z" fill="white"/>
<path d="M0.9375 19.5155H14.5747C15.0925 19.5155 15.5122 19.0959 15.5122 18.578C15.5122 18.0601 15.0925 17.6405 14.5747 17.6405H0.9375C0.41975 17.6405 0 18.0601 0 18.578C0 19.0959 0.41975 19.5155 0.9375 19.5155Z" fill="white"/>
<path d="M8.76623 15.4748H14.5747C16.4841 15.4748 18.0376 13.9213 18.0376 12.0119C18.0376 10.1026 16.4841 8.54907 14.5747 8.54907C13.4302 8.54907 12.361 9.1137 11.7146 10.0593C11.4224 10.4868 11.5321 11.0702 11.9595 11.3623C12.387 11.6544 12.9704 11.5449 13.2625 11.1174C13.5594 10.6832 14.0499 10.4241 14.5749 10.4241C15.4504 10.4241 16.1627 11.1363 16.1627 12.0119C16.1627 12.8876 15.4504 13.5998 14.5749 13.5998H8.76623C8.24848 13.5998 7.82874 14.0194 7.82874 14.5373C7.82874 15.0552 8.24848 15.4748 8.76623 15.4748Z" fill="white"/>
<path d="M14.5747 31.0251H8.76623C8.24848 31.0251 7.82874 31.4448 7.82874 31.9626C7.82874 32.4805 8.24848 32.9002 8.76623 32.9002H14.5747C15.4502 32.9002 16.1626 33.6124 16.1626 34.488C16.1626 35.3637 15.4502 36.0759 14.5747 36.0759C14.0499 36.0759 13.5592 35.8168 13.2624 35.3825C12.9702 34.9552 12.3869 34.8455 11.9594 35.1377C11.532 35.4298 11.4222 36.0132 11.7145 36.4407C12.3609 37.3863 13.4301 37.9509 14.5746 37.9509C16.484 37.9509 18.0375 36.3974 18.0375 34.488C18.0375 32.5786 16.4841 31.0251 14.5747 31.0251Z" fill="white"/>
<path d="M13.8171 22.3125H3.59662C3.07887 22.3125 2.65912 22.7321 2.65912 23.25C2.65912 23.7679 3.07887 24.1875 3.59662 24.1875H13.8171C14.3349 24.1875 14.7546 23.7679 14.7546 23.25C14.7546 22.7321 14.3349 22.3125 13.8171 22.3125Z" fill="white"/>
<path d="M15.5122 27.922C15.5122 27.4041 15.0925 26.9845 14.5747 26.9845H0.9375C0.41975 26.9845 0 27.4041 0 27.922C0 28.4399 0.41975 28.8595 0.9375 28.8595H14.5747C15.0925 28.8595 15.5122 28.4399 15.5122 27.922Z" fill="white"/>
<path d="M22.7795 19.6567C22.2814 19.516 21.763 19.8047 21.6217 20.3029C21.3509 21.2576 21.2136 22.2491 21.2136 23.25C21.2136 29.1975 26.0522 34.0362 31.9999 34.0362C37.9475 34.0362 42.7861 29.1975 42.7861 23.25C42.7861 17.3025 37.9475 12.4637 31.9999 12.4637C28.9096 12.4637 25.9632 13.7925 23.9161 16.1092C23.5732 16.4972 23.6099 17.0897 23.9979 17.4325C24.3859 17.7754 24.9784 17.7386 25.3211 17.3507C27.0125 15.4366 29.4469 14.3387 31.9999 14.3387C36.9136 14.3387 40.9111 18.3362 40.9111 23.25C40.9111 28.1637 36.9136 32.1612 31.9999 32.1612C27.0861 32.1612 23.0886 28.1637 23.0886 23.25C23.0886 22.4222 23.202 21.6027 23.4255 20.8146C23.567 20.3164 23.2776 19.7981 22.7795 19.6567Z" fill="white"/>
<path d="M27.1701 28.0799C27.3531 28.2629 27.5931 28.3544 27.833 28.3544C28.0729 28.3544 28.3129 28.2629 28.4959 28.0799L28.8562 27.7195C29.3119 27.7905 30.025 27.8749 30.8486 27.8749C32.4301 27.8749 34.4124 27.5634 35.7281 26.2476C38.1733 23.8025 37.15 19.0567 37.1052 18.8557C37.0261 18.5008 36.749 18.2237 36.3941 18.1447C36.1934 18.1001 31.4475 17.077 29.0024 19.5218C27.0015 21.5227 27.3231 25.0626 27.5305 26.3936L27.1702 26.7539C26.804 27.1201 26.804 27.7136 27.1701 28.0799ZM30.3281 20.8477C31.5415 19.6343 34.004 19.6808 35.3802 19.8696C35.569 21.2468 35.6154 23.7088 34.4024 24.9218C33.4989 25.8252 31.9029 26.03 30.5781 25.9977L32.1602 24.4156C32.5264 24.0494 32.5264 23.4558 32.1602 23.0897C31.7942 22.7237 31.2006 22.7237 30.8345 23.0897L29.2522 24.6718C29.22 23.3471 29.4247 21.7511 30.3281 20.8477Z" fill="white"/>
<path d="M20.5094 3.60549H21.2134V4.30949C21.2134 4.82737 21.6331 5.24699 22.1509 5.24699C22.6686 5.24699 23.0884 4.82737 23.0884 4.30949V3.60549H23.7924C24.3101 3.60549 24.7299 3.18587 24.7299 2.66799C24.7299 2.15012 24.3101 1.73049 23.7924 1.73049H23.0884V1.02637C23.0884 0.508492 22.6686 0.0888672 22.1509 0.0888672C21.6331 0.0888672 21.2134 0.508492 21.2134 1.02637V1.73049H20.5094C19.9916 1.73049 19.5719 2.15012 19.5719 2.66799C19.5719 3.18587 19.9916 3.60549 20.5094 3.60549Z" fill="white"/>
<path d="M3.71552 9.41384H4.41951V10.118C4.41951 10.6358 4.83926 11.0555 5.35701 11.0555C5.87476 11.0555 6.29451 10.6358 6.29451 10.118V9.41384H6.99852C7.51626 9.41384 7.93602 8.99422 7.93602 8.47634C7.93602 7.95847 7.51626 7.53884 6.99852 7.53884H6.29451V6.83484C6.29451 6.31696 5.87476 5.89734 5.35701 5.89734C4.83926 5.89734 4.41951 6.31696 4.41951 6.83484V7.53884H3.71552C3.19777 7.53884 2.77802 7.95847 2.77802 8.47634C2.77802 8.99422 3.19777 9.41384 3.71552 9.41384Z" fill="white"/>
<path d="M23.7924 42.8946H23.0884V42.1906C23.0884 41.6727 22.6686 41.2531 22.1509 41.2531C21.6331 41.2531 21.2134 41.6727 21.2134 42.1906V42.8946H20.5094C19.9916 42.8946 19.5719 43.3142 19.5719 43.8321C19.5719 44.3499 19.9916 44.7696 20.5094 44.7696H21.2134V45.4737C21.2134 45.9916 21.6331 46.4112 22.1509 46.4112C22.6686 46.4112 23.0884 45.9916 23.0884 45.4737V44.7696H23.7924C24.3101 44.7696 24.7299 44.3499 24.7299 43.8321C24.7299 43.3142 24.3101 42.8946 23.7924 42.8946Z" fill="white"/>
<path d="M6.99852 37.0861H6.29451V36.382C6.29451 35.8641 5.87476 35.4445 5.35701 35.4445C4.83926 35.4445 4.41951 35.8641 4.41951 36.382V37.0861H3.71552C3.19777 37.0861 2.77802 37.5057 2.77802 38.0236C2.77802 38.5415 3.19777 38.9611 3.71552 38.9611H4.41951V39.6651C4.41951 40.183 4.83926 40.6026 5.35701 40.6026C5.87476 40.6026 6.29451 40.183 6.29451 39.6651V38.9611H6.99852C7.51626 38.9611 7.93602 38.5415 7.93602 38.0236C7.93602 37.5057 7.51626 37.0861 6.99852 37.0861Z" fill="white"/>
</svg>
