<svg width="63" height="64" viewBox="0 0 63 64" fill="none" xmlns="http://www.w3.org/2000/svg">
<path d="M18.7022 57.7404C18.5563 57.2446 18.036 56.9612 17.5405 57.1069C17.0447 57.2527 16.7611 57.7729 16.9069 58.2686C17.7822 61.2432 18.6021 63.3216 18.6367 63.4087C18.7823 63.776 19.1343 63.9999 19.5067 63.9999C19.6214 63.9999 19.738 63.9787 19.8511 63.9339C20.3315 63.7437 20.5667 63.2 20.3765 62.7196C20.3684 62.699 19.5518 60.6276 18.7022 57.7404Z" fill="white"/>
<path d="M29.1784 33.2596C28.3658 33.2914 27.5497 33.0552 26.8807 32.5929C26.4555 32.2992 25.8726 32.4056 25.579 32.8307C25.2852 33.2558 25.3917 33.8386 25.8167 34.1324C26.7568 34.7821 27.8907 35.1338 29.0323 35.1338C29.1057 35.1338 29.1794 35.1323 29.2529 35.1294C29.7693 35.1089 30.1711 34.6736 30.1505 34.1572C30.13 33.6408 29.6939 33.24 29.1784 33.2596Z" fill="white"/>
<path d="M36.5965 31.1593L33.9143 28.8268C33.5244 28.4879 32.9333 28.5289 32.5942 28.9189C32.2551 29.3088 32.2964 29.8999 32.6863 30.2389L35.3686 32.5714C35.5457 32.7255 35.7644 32.8009 35.9821 32.8009C36.2435 32.8009 36.5036 32.692 36.6886 32.4792C37.0277 32.0895 36.9864 31.4985 36.5965 31.1593Z" fill="white"/>
<path d="M26.1992 27.0632C26.1216 26.5524 25.6447 26.2014 25.1335 26.2789L21.6195 26.8135C21.1086 26.8912 20.7575 27.3683 20.8352 27.8792C20.9055 28.3424 21.3044 28.6742 21.759 28.6742C21.8058 28.6742 21.8532 28.6707 21.9008 28.6635L25.4149 28.1289C25.9259 28.0513 26.2769 27.5743 26.1992 27.0632Z" fill="white"/>
<path d="M26.6615 37.6411C25.4989 37.3039 24.3087 37.4227 23.4778 37.9591C23.0438 38.2394 22.919 38.8185 23.1995 39.2527C23.4798 39.6867 24.059 39.8115 24.4931 39.531C24.7744 39.3495 25.3746 39.2161 26.14 39.4382C26.9055 39.6604 27.341 40.0942 27.4812 40.3981C27.6393 40.7403 27.9776 40.9417 28.3313 40.9417C28.4626 40.9417 28.5959 40.9139 28.7229 40.8554C29.1921 40.6388 29.3969 40.0829 29.1803 39.6137C28.7657 38.716 27.8242 37.9787 26.6615 37.6411Z" fill="white"/>
<path d="M62.3335 17.2792C62.3392 15.8537 61.0338 14.6767 58.3428 13.6808C56.1831 12.8816 53.1781 12.2062 49.4102 11.6709C48.5064 9.98214 47.2526 8.43851 45.5896 7.18195C45.1773 6.87043 44.5905 6.95227 44.279 7.36435C43.9675 7.77667 44.0492 8.36341 44.4614 8.67493C48.3028 11.5773 49.7174 16.5585 49.3712 20.9492C47.2877 21.2433 44.9488 21.4864 42.3832 21.6588C40.9426 20.4297 39.2947 19.8907 37.5678 19.3265C34.393 18.2891 31.1118 17.2137 27.9104 11.6262L28.7601 6.95938C32.3005 5.03787 36.5893 4.94405 40.8886 6.70588C41.3668 6.90187 41.9132 6.67294 42.1092 6.19487C42.3052 5.71667 42.0764 5.17023 41.5982 4.97424C36.8992 3.0486 31.9926 3.15003 28.0232 5.23161C27.3495 4.72397 26.6007 4.35057 25.7514 4.09707C24.4951 3.72217 23.2002 3.61949 21.9328 3.77681C18.4665 2.17293 15.0535 0.938698 12.7278 0.444533C9.83988 -0.178009 8.06758 0.106065 7.30967 1.31285C6.77621 2.16245 6.8815 3.2965 7.62269 4.68368C7.86622 5.13942 8.43312 5.31158 8.88885 5.06793C9.34459 4.8244 9.51664 4.25751 9.27311 3.80176C8.82635 2.96564 8.7898 2.47459 8.89434 2.30816C9.17917 1.85492 11.6763 1.4139 19.1327 4.582C18.943 4.67008 18.7544 4.76215 18.5689 4.86333C17.1976 5.611 15.4903 6.96849 14.1338 9.40763C13.2582 8.59758 12.469 7.81747 11.7817 7.07853C11.4298 6.70014 10.8377 6.67868 10.4593 7.03062C10.0809 7.38256 10.0595 7.97466 10.4114 8.35305C11.2493 9.25393 12.217 10.2018 13.2955 11.1833C13.2014 11.4201 13.1107 11.665 13.0235 11.9175C6.21318 13.1547 2.75589 14.8756 2.74753 17.0354C2.74005 18.9971 5.3642 20.5481 10.7585 21.7645C10.2147 22.271 9.8052 22.924 9.58089 23.6968C8.70496 26.7157 10.3485 29.8768 13.2667 30.9179C13.3972 31.9565 13.6769 33.0316 14.1244 34.288C15.5311 38.237 17.4643 41.4048 19.7024 43.5314L19.3844 46.256L16.4821 47.1305C16.3046 46.8239 16.0594 46.5563 15.7579 46.3484C15.1473 45.9279 14.3903 45.8092 13.6804 46.023L9.23219 47.3628C7.50467 47.8277 5.24019 49.2472 3.92512 50.7526C2.51648 52.3459 1.5778 54.3083 1.21101 56.4235L0.0592506 62.9004C-0.0311988 63.4092 0.307893 63.895 0.816655 63.9854C0.872047 63.9953 0.92719 64 0.981585 64C1.42647 64 1.82108 63.6813 1.90167 63.228L3.05419 56.7471C3.36184 54.9724 4.14582 53.3306 5.32178 51.9982C6.50997 50.7527 7.88942 49.728 9.77202 49.1546L14.2201 47.8148C14.4427 47.7478 14.6139 47.8329 14.6961 47.8894C14.7783 47.9459 14.9186 48.0757 14.9352 48.3079C15.0581 50.0189 15.3509 51.9359 15.8057 54.0057C15.9166 54.5104 16.416 54.8299 16.9204 54.7188C17.425 54.6079 17.7443 54.1088 17.6335 53.6041C17.2676 51.9386 17.0131 50.3842 16.8717 48.9676L19.2741 48.2436C19.372 49.3981 19.8028 50.5052 20.5199 51.3969C21.6239 52.7692 23.7576 54.4051 27.6539 54.4051C31.5506 54.4051 33.6845 52.769 34.7883 51.3964C35.5124 50.4961 35.9448 49.3762 36.0371 48.2098L38.4446 48.9413C38.3012 50.5914 38.0281 52.8351 37.507 55.2335L36.352 59.3977C35.941 60.5792 35.4767 61.6666 34.9722 62.6302C34.7325 63.088 34.9095 63.6534 35.3672 63.8931C35.5057 63.9657 35.6541 64 35.8004 64C36.1374 64 36.4629 63.8174 36.6301 63.4981C37.1813 62.4452 37.6858 61.2626 38.1297 59.9833C38.1362 59.9647 38.1421 59.9458 38.1473 59.9267L39.3174 55.7082C39.3221 55.6914 39.3263 55.6744 39.33 55.6573C39.9644 52.7455 40.2471 50.0535 40.3725 48.3077C40.3891 48.0756 40.5295 47.9459 40.6116 47.8893C40.6937 47.8327 40.8649 47.7476 41.0876 47.8147L45.5354 49.1545C49.0511 50.2144 51.6252 53.1238 52.2542 56.751L53.406 63.228C53.4966 63.7369 53.9829 64.0756 54.4911 63.9854C54.9998 63.8949 55.3389 63.4092 55.2485 62.9004L54.0972 56.4273C53.3473 52.1019 50.2736 48.6285 46.0753 47.3627L41.6272 46.0229C40.9174 45.8092 40.1603 45.9277 39.5498 46.3483C39.2564 46.5504 39.0169 46.8094 38.8406 47.1057L35.9195 46.2183L35.641 43.8257C36.7627 43.1668 37.8942 42.3952 39.0226 41.5126C40.0739 40.6902 40.8863 39.932 41.5524 39.1258C41.9846 39.2236 42.4214 39.273 42.8564 39.273C43.8406 39.273 44.8146 39.0244 45.701 38.5357C47.0844 37.7729 48.089 36.5168 48.5295 34.9983C48.7518 34.2322 48.7547 33.4712 48.5636 32.7603C49.4943 33.0887 50.3696 33.3652 51.1779 33.5832C52.6721 33.9862 53.9182 34.188 54.9251 34.188C56.3334 34.188 57.2739 33.7932 57.7712 33.0014C58.4722 31.8852 58.0883 30.3387 56.5977 28.2736C55.4212 26.6438 53.5881 24.7238 51.1493 22.5646C56.2962 21.7261 60.0308 20.5122 61.4948 19.0633C62.0488 18.5152 62.3308 17.915 62.3335 17.2792ZM45.4818 28.8095C45.5597 26.975 44.9954 25.0143 43.9324 23.4158C45.7531 23.2698 47.4832 23.0863 49.1001 22.8687C49.0151 23.2808 48.9154 23.6842 48.7982 24.0742C48.09 26.4303 46.876 28.1308 45.4818 28.8095ZM36.9865 21.1054C37.7125 21.3426 38.4011 21.5678 39.0467 21.8366C36.601 21.9348 33.848 21.9706 31.1519 21.9283C30.7661 21.691 30.3805 21.4522 29.9952 21.2103C27.7034 19.7713 25.487 18.2879 23.4035 16.8068C24.7996 15.986 25.9014 14.8017 26.8616 13.5152C30.2716 18.9113 33.9724 20.1206 36.9865 21.1054ZM15.4171 20.5365C14.6517 19.9865 14.3234 18.9306 14.1842 18.0595C13.9609 16.6629 14.0965 14.8501 14.5381 13.3283C14.6191 13.0491 14.7081 12.7788 14.8006 12.5127C16.2556 13.7621 17.8708 15.0543 19.6144 16.3647C17.7791 17.3865 16.1848 19.4367 15.4171 20.5365ZM21.2874 17.6804C21.3146 17.6735 21.3404 17.6647 21.3674 17.6576C23.2858 19.0454 25.3347 20.4443 27.4769 21.8258C23.8811 21.6794 20.469 21.4018 17.3928 21.0065C18.3885 19.7008 19.9226 18.0289 21.2874 17.6804ZM19.4647 6.50639C21.2474 5.53428 23.2898 5.31545 25.2162 5.89046C25.8482 6.07897 26.4023 6.3568 26.8996 6.73108L26.0437 11.4315C24.7244 13.3771 23.4356 14.845 21.698 15.5729C19.4346 13.9058 17.3634 12.2582 15.571 10.6968C16.5371 8.81154 17.8552 7.38394 19.4647 6.50639ZM4.6189 17.0426C4.62027 16.6924 6.00096 15.2086 12.4709 13.9269C12.1762 15.4276 12.1225 17.0174 12.3363 18.3549C12.4531 19.0852 12.6494 19.7362 12.9165 20.3012C6.69412 19.1682 4.51759 17.5255 4.6189 17.0426ZM11.378 24.2181C11.7689 22.8282 13.2549 22.278 14.5566 22.4884C13.7825 25.1946 13.305 27.095 13.2016 28.831C11.6516 27.9147 10.8527 26.0289 11.378 24.2181ZM34.1573 47.2641C34.282 48.3362 33.9805 49.4148 33.33 50.2238C32.0972 51.7567 30.1874 52.534 27.6538 52.534C25.1205 52.534 23.2108 51.7569 21.9779 50.2241C21.3272 49.4151 21.0258 48.3361 21.1508 47.2635L21.4244 44.9196C22.3053 45.5099 23.2203 45.9497 24.1588 46.222C25.0113 46.4693 25.9204 46.5911 26.8743 46.5911C29.0266 46.5911 31.4056 45.9713 33.8679 44.7777L34.1573 47.2641ZM37.8698 40.0385C33.0024 43.8458 28.1954 45.4448 24.6803 44.4247C21.1658 43.4049 17.9609 39.4812 15.8873 33.6599C14.5651 29.948 14.8999 28.0667 16.424 22.7654C20.6329 23.3412 25.4934 23.6943 30.6084 23.7905C32.3885 24.8768 34.1694 25.9123 35.922 26.8785C36.0652 26.9574 36.2202 26.995 36.3729 26.995C36.7027 26.995 37.0226 26.8202 37.1931 26.5109C37.4427 26.0584 37.2781 25.4893 36.8255 25.2398C35.9915 24.7799 35.1507 24.3041 34.3067 23.8145C36.8633 23.7992 39.3351 23.7167 41.6807 23.5741C41.7454 23.643 41.8099 23.712 41.8729 23.7852C43.0218 25.1213 43.6704 27.004 43.6107 28.6934C42.6437 28.2457 41.6438 27.762 40.6145 27.2424C40.1534 27.0095 39.5905 27.1947 39.3576 27.6558C39.1246 28.1172 39.3098 28.6798 39.771 28.9128C40.9666 29.5165 42.1251 30.073 43.2412 30.5825C41.6682 35.9575 40.9888 37.599 37.8698 40.0385ZM46.7325 34.4768C46.431 35.5157 45.7439 36.3752 44.7976 36.8968C44.1536 37.2518 43.4419 37.421 42.7263 37.3982C43.5654 35.883 44.1763 34.0328 44.9661 31.3504C46.0929 31.8886 47.1645 32.9877 46.7325 34.4768ZM56.1865 32.0061C56.0027 32.2988 54.8214 32.6274 51.6653 31.7763C50.2807 31.4029 48.6872 30.85 46.9331 30.1396C48.5223 29.104 49.8175 27.1842 50.5904 24.6127C50.5931 24.6034 50.5957 24.5939 50.5986 24.5847C55.888 29.4044 56.4394 31.6034 56.1865 32.0061ZM60.1785 17.7331C59.1165 18.7842 55.9999 19.8555 51.2746 20.6548C51.4063 18.3832 51.1241 15.9664 50.3082 13.6964C58.5936 14.9962 60.4643 16.6954 60.462 17.2715C60.4616 17.387 60.3583 17.5553 60.1785 17.7331Z" fill="white"/>
</svg>
