<svg width="127" height="126" viewBox="0 0 127 126" fill="none" xmlns="http://www.w3.org/2000/svg">
<path d="M63.4999 3.15C63.4999 1.4103 62.0887 -0.00809368 60.3511 0.0774372C44.9979 0.833179 30.3998 7.09545 19.3095 17.758C7.46344 29.1473 0.549513 44.6632 0.0313661 61.0211C-0.486781 77.379 5.43152 93.2949 16.5334 105.4C27.6353 117.504 43.0494 124.848 59.5127 125.876C75.976 126.903 92.1963 121.534 104.74 110.905C117.283 100.277 125.166 85.2221 126.718 68.9288C128.27 52.6354 123.371 36.3822 113.057 23.6097C103.4 11.6508 89.7063 3.62221 74.5676 0.964239C72.8563 0.663775 71.2809 1.89221 71.0614 3.61579C70.8413 5.34416 72.0685 6.91424 73.7828 7.22528C87.2798 9.67412 99.4787 16.8706 108.101 27.5487C117.384 39.044 121.793 53.6719 120.396 68.3359C118.999 82.9999 111.905 96.549 100.616 106.115C89.3267 115.681 74.7284 120.513 59.9115 119.588C45.0945 118.663 31.2218 112.054 21.2301 101.16C11.2384 90.2654 5.91189 75.9411 6.37822 61.219C6.84455 46.4969 13.0671 32.5326 23.7286 22.2822C33.634 12.7588 46.6487 7.13572 60.3512 6.38605C62.0882 6.29101 63.4999 4.88969 63.4999 3.15Z" fill="#FF3C1A"/>
</svg>
