<svg width="126" height="126" viewBox="0 0 126 126" fill="none" xmlns="http://www.w3.org/2000/svg">
<path d="M63 3.15C63 1.4103 61.5886 -0.0082163 59.8511 0.0786998C45.9791 0.772614 32.6911 6.03585 22.0849 15.0944C10.6784 24.8365 3.12237 38.3288 0.775775 53.1446C-1.57082 67.9604 1.44607 83.1274 9.28379 95.9174C17.1215 108.707 29.2657 118.281 43.532 122.917C57.7983 127.552 73.2504 126.945 87.109 121.204C100.968 115.464 112.323 104.967 119.133 91.6014C125.943 78.2359 127.761 62.879 124.259 48.2929C121.003 34.7302 113.347 22.6616 102.532 13.9465C101.177 12.8549 99.2015 13.1729 98.1789 14.5803C97.1563 15.9878 97.4748 17.9511 98.8233 19.0502C108.427 26.8781 115.227 37.6598 118.133 49.7636C121.285 62.8911 119.649 76.7123 113.52 88.7413C107.391 100.77 97.1709 110.218 84.6981 115.384C72.2254 120.55 58.3185 121.097 45.4788 116.925C32.6391 112.753 21.7094 104.137 14.6554 92.6257C7.60147 81.1146 4.88627 67.4644 6.9982 54.1302C9.11013 40.7959 15.9106 28.6528 26.1764 19.885C35.6418 11.8008 47.4804 7.07521 59.8513 6.38744C61.5883 6.29087 63 4.8897 63 3.15Z" fill="#FF3C1A"/>
</svg>
