<svg width="128" height="128" viewBox="0 0 128 128" fill="none" xmlns="http://www.w3.org/2000/svg">
<g filter="url(#filter0_d)">
<rect width="120" height="120" rx="20" fill="white"/>
<path d="M79.1039 70.0215H73.0912V72.0257H79.1039V70.0215Z" fill="black"/>
<path d="M71.087 70.0215H65.0742V72.0257H71.087V70.0215Z" fill="black"/>
<path d="M63.07 70.0215H57.0573V72.0257H63.07V70.0215Z" fill="black"/>
<path d="M89.1121 50.7833L69.2831 30.9513C68.7201 30.3829 67.9528 30.0635 67.1526 30.0645H67.1436C66.3487 30.0648 65.5873 30.3844 65.0301 30.9513L43.9956 51.9828H33.0064C31.346 51.9828 30 53.3288 30 54.9892V83.0486C30 84.709 31.346 86.055 33.0064 86.055H47.8538L50.8441 89.0483C51.4072 89.6168 52.1744 89.9362 52.9746 89.9352H52.9826C53.7778 89.9349 54.5397 89.6154 55.0971 89.0483L58.0935 86.055H81.1082C82.7686 86.055 84.1145 84.709 84.1145 83.0486V60.0339L89.1071 55.0413C89.6769 54.4835 89.9986 53.7202 90 52.9228C90.003 52.1194 89.6831 51.3485 89.1121 50.7833ZM76.3641 40.8693L65.2506 51.9828H56.7406L72.1091 36.6143L76.3641 40.8693ZM66.4491 32.3643C66.8303 31.9739 67.4559 31.9664 67.8465 32.3477C67.8521 32.3532 67.8577 32.3587 67.8631 32.3643L70.6921 35.1973L53.9056 51.9828H46.8296L66.4491 32.3643ZM53.6781 87.6353C53.4948 87.8267 53.2416 87.9352 52.9766 87.9359C52.7081 87.9353 52.451 87.8271 52.2631 87.6353L50.6888 86.055H55.2595L53.6781 87.6353ZM82.1103 83.0486C82.1103 83.602 81.6616 84.0507 81.1082 84.0507H33.0064C32.4529 84.0507 32.0042 83.602 32.0042 83.0486V69.0189H82.1103V83.0486ZM82.1103 67.0147H32.0042V61.0019H82.1103V67.0147ZM82.1103 58.9977H32.0042V54.9892C32.0042 54.4358 32.4529 53.9871 33.0064 53.9871H81.1082C81.6616 53.9871 82.1103 54.4358 82.1103 54.9892V58.9977ZM87.6951 53.6193L84.1145 57.1999V54.9892C84.1145 53.3288 82.7686 51.9828 81.1082 51.9828H68.0806L77.7771 42.2863L87.6911 52.2003C87.8836 52.389 87.992 52.6473 87.9917 52.9168C87.9915 53.1814 87.8845 53.4347 87.6951 53.6193Z" fill="black"/>
<path d="M39.6115 82.0734C39.7579 81.9469 39.8949 81.8099 40.0214 81.6636C41.3466 83.2071 43.6235 83.5003 45.2966 82.343C46.3764 81.588 47.0245 80.3576 47.0363 79.04C47.0363 76.8262 45.2416 75.0315 43.0278 75.0315C42.8289 75.0288 42.6302 75.0456 42.4345 75.0816L42.4085 75.0887C42.3984 75.0887 42.3884 75.0887 42.3794 75.0887C41.4613 75.2412 40.6264 75.7124 40.0214 76.4195C38.5733 74.7449 36.0419 74.5614 34.3674 76.0096C32.6929 77.4577 32.5094 79.9892 33.9576 81.6636C35.4056 83.3381 37.937 83.5216 39.6115 82.0734ZM42.7742 77.0568C42.8578 77.0409 42.9427 77.0339 43.0278 77.0358C44.1347 77.0358 45.032 77.9331 45.032 79.04C45.031 79.464 44.8928 79.8764 44.6382 80.2155C44.6021 80.2646 44.574 80.3157 44.533 80.3668C44.5259 80.3748 44.5159 80.3799 44.5079 80.3879C44.1294 80.8059 43.5917 81.0444 43.0278 81.0443C41.9211 81.0253 41.0391 80.1129 41.058 79.0062C41.0748 78.0235 41.8016 77.1979 42.7742 77.0568ZM37.015 77.0358C38.122 77.0358 39.0193 77.9331 39.0193 79.04C39.0193 80.147 38.122 81.0443 37.015 81.0443C35.9081 81.0443 35.0108 80.147 35.0108 79.04C35.0108 77.9331 35.9081 77.0358 37.015 77.0358Z" fill="black"/>
</g>
<defs>
<filter id="filter0_d" x="0" y="0" width="128" height="128" filterUnits="userSpaceOnUse" color-interpolation-filters="sRGB">
<feFlood flood-opacity="0" result="BackgroundImageFix"/>
<feColorMatrix in="SourceAlpha" type="matrix" values="0 0 0 0 0 0 0 0 0 0 0 0 0 0 0 0 0 0 127 0"/>
<feOffset dx="4" dy="4"/>
<feGaussianBlur stdDeviation="2"/>
<feColorMatrix type="matrix" values="0 0 0 0 0 0 0 0 0 0 0 0 0 0 0 0 0 0 0.25 0"/>
<feBlend mode="normal" in2="BackgroundImageFix" result="effect1_dropShadow"/>
<feBlend mode="normal" in="SourceGraphic" in2="effect1_dropShadow" result="shape"/>
</filter>
</defs>
</svg>
