<svg width="128" height="128" viewBox="0 0 128 128" fill="none" xmlns="http://www.w3.org/2000/svg">
<g filter="url(#filter0_d)">
<rect width="120" height="120" rx="20" fill="white"/>
<path d="M87 79.8C81.0316 76.635 76.4536 74.8603 72.3783 74.1799L72.8 73.6001C73.0001 73.4 73.1 73.1 73.0001 72.8L72.0629 69.0516C72.4025 68.5714 72.7229 68.075 73.023 67.5647C76.7496 66.2964 78.6341 64.1524 78.9507 60.9959C80.5876 60.9105 82 59.4496 82 57.8V50.3C82 48.658 80.6937 47.2029 78.9824 47.1055C78.7622 41.3286 76.215 30 60 30C43.7846 30 41.2377 41.3291 41.0175 47.1059C39.3941 47.2017 38 48.5647 38 50.2999V57.7999C38 59.5 39.5 61 41.3 61H42.8C43.3513 61 43.8811 60.8415 44.3426 60.5704C44.9096 63.5803 46.1611 66.5408 47.9372 69.0514L47 72.7999C47 73 47 73.3 47.2001 73.6L47.6218 74.1798C43.5465 74.8603 38.9685 76.6349 33.0001 79.7999C31.1 80.7 30 82.6 30 84.7V88.9999C30 89.6 30.4 90 31 90H55H55.3999H64.6H64.9999H88.9999C89.5999 90 89.9999 89.6 89.9999 89V84.7001C90 82.7 88.8 80.8 87 79.8ZM60.0055 77.5126L62.4 83H57.5666L60.0055 77.5126ZM56.84 85H63.1561L63.7414 88H56.2399L56.84 85ZM70.5 71L70.9 72.8L69.8784 74.2027C69.8133 74.256 69.7529 74.3205 69.7 74.4L65.5404 80.1594L64.2206 81.9716L61.5247 75.9059C64.8128 75.5048 67.7408 73.8291 70.0884 71.4279C70.2272 71.288 70.3645 71.1458 70.5 71ZM74.4048 64.7794C74.9688 63.407 75.394 61.9805 75.6628 60.5426C76.0435 60.7732 76.477 60.9273 76.9444 60.9796C76.771 62.3931 76.143 63.7276 74.4048 64.7794ZM79.9 50.2V57.7C79.9 58.3 79.3999 58.9 78.7 58.9H77.2C76.6 58.9 76 58.3999 76 57.7V57V50.2C76 49.6 76.5 49 77.2 49H78.7C79.3 49 79.9 49.5 79.9 50.2ZM60 32C66.1637 32 76.5373 34.0121 76.9833 47.1163C76.5642 47.1593 76.1628 47.2867 75.7998 47.4824C74.5829 39.8674 67.9438 34 60 34C52.0573 34 45.4188 39.8658 44.2007 47.4791C43.843 47.286 43.4436 47.1584 43.0166 47.1159C43.4628 34.0121 53.8364 32 60 32ZM43.9 57.7C43.9 58.3 43.3999 58.9 42.7 58.9H41.2C40.6 58.9 40 58.3999 40 57.7V50.2C40 49.6 40.5 49 41.2 49H42.7C43.3 49 43.9 49.5 43.9 50.2V57.7ZM46 50C46 42.3 52.3 36 60 36C67.7 36 74 42.3 74 50V57C74 60.3084 73.1387 63.3374 71.7423 65.893C69.3554 66.5854 65.9217 67 61.0001 67C60.4001 67 60.0001 67.3999 60.0001 67.9999C60.0001 68.5999 60.4001 68.9999 61.0001 68.9999C64.603 68.9999 67.6162 68.7786 70.0839 68.3161C70.0226 68.3774 69.9613 68.4387 69.9 68.5C69.3969 69.1707 68.8659 69.7823 68.3112 70.3338C65.9565 72.5275 63.1481 73.8563 60.4418 73.9879C60.3056 73.9294 60.1529 73.9 60 73.9C59.8462 73.9 59.7077 73.9301 59.5835 73.9891C57.927 73.9132 56.2316 73.3881 54.6246 72.49C52.9965 71.5546 51.465 70.2061 50.1 68.5C50 68.4 49.9 68.2999 49.8 68.2L49.7416 68.1805C47.4959 65.2351 46 61.3603 46 57V50ZM58.4752 75.9059L55.7793 81.9716L54.4595 80.1594L50.2999 74.4C50.268 74.3681 50.2329 74.3366 50.1963 74.3055L49.0999 72.8L49.4999 71C49.6352 71.1458 49.7726 71.2878 49.9111 71.4277C52.2588 73.8288 55.1871 75.5047 58.4752 75.9059ZM32 84.7C32 83.4 32.7 82.2 33.9 81.6C40.2742 78.2138 44.8627 76.5142 48.9502 76.0065L54.9176 84.2118L54.16 88H32V84.7ZM88 88H65.84L65.0824 84.2118L71.1145 75.9176C75.1876 76.5322 79.8585 78.2305 86.1001 81.4999C87.3001 82.1999 88.0001 83.3999 88.0001 84.7V88H88Z" fill="black"/>
</g>
<defs>
<filter id="filter0_d" x="0" y="0" width="128" height="128" filterUnits="userSpaceOnUse" color-interpolation-filters="sRGB">
<feFlood flood-opacity="0" result="BackgroundImageFix"/>
<feColorMatrix in="SourceAlpha" type="matrix" values="0 0 0 0 0 0 0 0 0 0 0 0 0 0 0 0 0 0 127 0"/>
<feOffset dx="4" dy="4"/>
<feGaussianBlur stdDeviation="2"/>
<feColorMatrix type="matrix" values="0 0 0 0 0 0 0 0 0 0 0 0 0 0 0 0 0 0 0.25 0"/>
<feBlend mode="normal" in2="BackgroundImageFix" result="effect1_dropShadow"/>
<feBlend mode="normal" in="SourceGraphic" in2="effect1_dropShadow" result="shape"/>
</filter>
</defs>
</svg>
