<svg width="128" height="128" viewBox="0 0 128 128" fill="none" xmlns="http://www.w3.org/2000/svg">
<g filter="url(#filter0_d)">
<rect width="120" height="120" rx="20" fill="white"/>
<path d="M85.999 31H34.001C31.795 31 30 32.7951 30 35.001V68C30 68.5519 30.448 68.9999 31 68.9999H88.9999C89.5519 68.9999 89.9999 68.5519 89.9999 68V35.001C90 32.7951 88.205 31 85.999 31ZM88 67H32V35.001C32 33.897 32.898 33 34.001 33H85.999C87.1019 33 88 33.897 88 35.001V67Z" fill="black"/>
<path d="M89 67H31C30.448 67 30 67.448 30 68V72.9989C30 75.205 31.795 77 34.001 77H85.999C88.205 77 90 75.205 90 72.9989V68C90 67.448 89.552 67 89 67ZM88 72.9991C88 74.1031 87.102 75 85.999 75H34.001C32.898 75 32 74.1031 32 72.9991V69H88.0001V72.9991H88Z" fill="black"/>
<path d="M62.9999 71H56.9999C56.448 71 56 71.448 56 72C56 72.5519 56.448 72.9999 56.9999 72.9999H62.9999C63.5519 72.9999 63.9999 72.5519 63.9999 72C63.9999 71.448 63.5519 71 62.9999 71Z" fill="black"/>
<path d="M85.0001 35H35.0001C34.4482 35 34.0002 35.448 34.0002 36V68C34.0002 68.552 34.4482 69 35.0001 69H85.0002C85.5521 69 86.0001 68.552 86.0001 68V36C86.0001 35.448 85.5521 35 85.0001 35ZM84.0001 66.9999H36.0001V36.9999H84.0001V66.9999Z" fill="black"/>
<path d="M73 83H47.0001C45.3461 83 44.0001 84.346 44.0001 86C44.0001 87.654 45.3461 89 47.0001 89H73.0001C74.6541 89 76.0001 87.654 76.0001 86C76.0001 84.346 74.654 83 73 83ZM73 87H47.0001C46.4481 87 46.0001 86.551 46.0001 86C46.0001 85.449 46.4481 85 47.0001 85H73.0001C73.5521 85 74.0001 85.449 74.0001 86C74.0001 86.551 73.5521 87 73 87Z" fill="black"/>
<path d="M71.0002 82.9999C67.6821 82.9999 66.0001 80.6449 66.0001 76C66.0001 75.448 65.5521 75 65.0002 75H55.0002C54.4483 75 54.0002 75.448 54.0002 76C54.0002 80.6449 52.3183 82.9999 49.0002 82.9999C48.4483 82.9999 48.0002 83.4479 48.0002 83.9999C48.0002 84.5518 48.4483 84.9998 49.0002 84.9998H71.0002C71.5521 84.9998 72.0001 84.5518 72.0001 83.9999C72.0001 83.4479 71.5521 82.9999 71.0002 82.9999ZM53.8711 82.9999C55.1022 81.636 55.8271 79.6049 55.9731 76.9999H64.0281C64.1731 79.6049 64.8981 81.636 66.1301 82.9999H53.8711Z" fill="black"/>
<path d="M77.7839 60.4637L75.37 58.0498L76.713 56.7068C76.962 56.4578 77.062 56.0958 76.9759 55.7548C76.8899 55.4137 76.6309 55.1437 76.2939 55.0418L66.294 52.0418C65.941 51.9357 65.56 52.0328 65.3 52.2928C65.039 52.5528 64.943 52.9348 65.049 53.2868L68.049 63.2868C68.15 63.6247 68.4209 63.8837 68.7619 63.9697C69.1019 64.0537 69.4649 63.9557 69.714 63.7068L71.1279 62.2917L73.5419 64.7067C73.7289 64.8947 73.9839 64.9997 74.2489 64.9997C74.5138 64.9997 74.7688 64.8947 74.9559 64.7067L77.7838 61.8777C78.1749 61.4868 78.1749 60.8548 77.7839 60.4637ZM74.2489 62.5857L72.0509 60.3867C71.7959 60.1317 71.4619 60.0047 71.1279 60.0047C70.7929 60.0047 70.4589 60.1327 70.205 60.3857L69.483 61.1077L67.4979 54.4907L74.1149 56.4757L73.3409 57.2497C73.1279 57.4637 73.0109 57.7478 73.0109 58.0498C73.0109 58.3528 73.1289 58.6387 73.3429 58.8507L75.6629 61.1707L74.2489 62.5857Z" fill="black"/>
<path d="M72.0002 39H44.0003C43.4483 39 43.0003 39.448 43.0003 40V45C43.0003 45.552 43.4483 46 44.0003 46H72.0002C72.5522 46 73.0002 45.552 73.0002 45V40C73.0002 39.448 72.5522 39 72.0002 39ZM71.0002 44H45.0002V41H71.0002V44Z" fill="black"/>
<path d="M55.9999 50H47.9998C47.4479 50 46.9999 50.448 46.9999 51V54.9999C46.9999 55.5519 47.4479 55.9999 47.9998 55.9999H55.9999C56.5518 55.9999 56.9998 55.5519 56.9998 54.9999V51C56.9998 50.448 56.5518 50 55.9999 50ZM54.9998 54H48.9998V51.9999H54.9998V54Z" fill="black"/>
<path d="M72.0002 39H44.0003C43.4483 39 43.0003 39.448 43.0003 40V58.9999C43.0003 59.5519 43.4483 59.9999 44.0003 59.9999H67.8063C68.1233 59.9999 68.4203 59.8509 68.6083 59.5969C68.7974 59.3429 68.8554 59.0149 68.7643 58.7119L67.4983 54.4909L71.7133 55.7559C72.0164 55.847 72.3444 55.789 72.5973 55.6C72.8512 55.412 73.0003 55.114 73.0003 54.7979V40C73.0002 39.448 72.5522 39 72.0002 39ZM71.0003 53.454L66.2932 52.042C65.9402 51.936 65.5592 52.033 65.2992 52.293C65.0382 52.554 64.9422 52.935 65.0482 53.2881L66.4622 58.0001H45.0002V41H71.0003V53.454Z" fill="black"/>
</g>
<defs>
<filter id="filter0_d" x="0" y="0" width="128" height="128" filterUnits="userSpaceOnUse" color-interpolation-filters="sRGB">
<feFlood flood-opacity="0" result="BackgroundImageFix"/>
<feColorMatrix in="SourceAlpha" type="matrix" values="0 0 0 0 0 0 0 0 0 0 0 0 0 0 0 0 0 0 127 0"/>
<feOffset dx="4" dy="4"/>
<feGaussianBlur stdDeviation="2"/>
<feColorMatrix type="matrix" values="0 0 0 0 0 0 0 0 0 0 0 0 0 0 0 0 0 0 0.25 0"/>
<feBlend mode="normal" in2="BackgroundImageFix" result="effect1_dropShadow"/>
<feBlend mode="normal" in="SourceGraphic" in2="effect1_dropShadow" result="shape"/>
</filter>
</defs>
</svg>
