<svg width="128" height="128" viewBox="0 0 128 128" fill="none" xmlns="http://www.w3.org/2000/svg">
<g filter="url(#filter0_d)">
<rect width="120" height="120" rx="20" fill="white"/>
<path d="M78.5742 52.0928H74.7967L75.9349 39.0253C75.937 39.0016 75.9373 38.9783 75.9374 38.955C75.9374 38.953 75.9377 38.9511 75.9377 38.9491C75.9377 38.9488 75.9377 38.9485 75.9377 38.9482C75.9377 38.5925 75.7231 38.279 75.4078 38.1427C75.4051 38.1416 75.4025 38.1402 75.3998 38.139C75.3802 38.1308 75.3599 38.1238 75.3396 38.117C75.3319 38.1145 75.3247 38.1114 75.3171 38.1091C75.3004 38.1041 75.2833 38.1001 75.2663 38.096C75.2544 38.0932 75.2429 38.0898 75.2308 38.0874C75.2159 38.0845 75.2005 38.0826 75.1852 38.0804C75.1709 38.0783 75.1569 38.0758 75.1424 38.0745C75.14 38.0743 75.1378 38.0738 75.1353 38.0736C75.1198 38.0722 75.1046 38.0724 75.0892 38.0718C75.0789 38.0715 75.0688 38.0703 75.0585 38.0703H75.0475C75.0466 38.0703 75.0456 38.0703 75.0448 38.0703H57.0716C56.5864 38.0703 56.1927 38.4641 56.1927 38.9492C56.1927 39.4332 56.5864 39.8281 57.0716 39.8281H74.1005L72.3514 59.9112C72.3511 59.9127 72.3511 59.9143 72.3509 59.9158L71.9096 64.9831H41.3693L41.8802 59.7099H47.6951C48.1807 59.7099 48.5741 59.3164 48.5741 58.831C48.5741 58.3456 48.1807 57.9521 47.6951 57.9521H42.0506L43.1292 46.8198H52.3841C52.8696 46.8198 53.263 46.4263 53.263 45.9409C53.263 45.4555 52.8696 45.062 52.3841 45.062H43.2995L43.8067 39.8281H53.556C54.0399 39.8281 54.4349 39.4332 54.4349 38.9492C54.4349 38.4641 54.0399 38.0703 53.556 38.0703H43.009C43.0086 38.0703 43.0082 38.0704 43.0077 38.0704C42.5949 38.0703 42.2368 38.3609 42.1502 38.7638C42.1496 38.7668 42.1485 38.7696 42.1479 38.7725C42.1435 38.7944 42.1406 38.8168 42.1376 38.8393C42.1368 38.8464 42.1353 38.8532 42.1346 38.8604C42.1345 38.8618 42.1341 38.8631 42.134 38.8645L41.5335 45.062H30.8789C30.3934 45.062 30 45.4555 30 45.9409C30 46.4263 30.3934 46.8198 30.8789 46.8198H41.3631L40.2845 57.9521H37.1487C36.6632 57.9521 36.2698 58.3456 36.2698 58.831C36.2698 59.3164 36.6632 59.7099 37.1487 59.7099H40.1143L39.5269 65.771C39.5268 65.7719 39.5268 65.7728 39.5267 65.7737L38.6186 75.1462C38.6185 75.1473 38.6184 75.1485 38.6182 75.1494L38.6179 75.1528C38.6167 75.165 38.6168 75.1769 38.6161 75.1891C38.6153 75.2053 38.6137 75.2211 38.6137 75.2375C38.6137 75.2382 38.6138 75.2389 38.6138 75.2398C38.6138 75.2624 38.6154 75.2846 38.6171 75.3069C38.6178 75.3141 38.6175 75.3213 38.6184 75.3283C38.6207 75.3511 38.6246 75.3735 38.6287 75.3957C38.6298 75.4023 38.6304 75.409 38.6317 75.4154C38.6351 75.4323 38.6399 75.4486 38.6444 75.4651C38.6474 75.4767 38.6499 75.4885 38.6534 75.4999C38.6544 75.5031 38.6559 75.5061 38.6568 75.5094C38.6993 75.6402 38.7715 75.7576 38.8657 75.8535C38.8675 75.8552 38.8689 75.8572 38.8707 75.8589C38.88 75.8682 38.8902 75.8767 38.9001 75.8856C38.9607 75.9411 39.0291 75.9882 39.104 76.0251C39.1196 76.0329 39.1349 76.041 39.1509 76.0476C39.1557 76.0498 39.1608 76.0512 39.1657 76.053C39.1878 76.0618 39.2099 76.0703 39.2328 76.0774C39.2349 76.078 39.2369 76.0784 39.239 76.0791C39.265 76.0868 39.2912 76.0936 39.3181 76.0991C39.3216 76.0998 39.3252 76.1 39.3286 76.1007C39.3542 76.1055 39.3798 76.1096 39.406 76.1122C39.4066 76.1122 39.407 76.1123 39.4076 76.1125C39.4364 76.1153 39.465 76.1167 39.4934 76.1167C39.4937 76.1167 39.4942 76.1166 39.4947 76.1166H43.4074C43.8394 79.3923 46.6478 81.9294 50.0398 81.9294C53.4316 81.9294 56.24 79.3923 56.6721 76.1166H70.7697C71.2019 79.3923 74.0102 81.9294 77.4021 81.9294C80.7938 81.9294 83.6025 79.3923 84.0347 76.1166H87.9483C87.9489 76.1166 87.9496 76.1167 87.9502 76.1167C87.9795 76.1167 88.0083 76.1149 88.0369 76.1121C88.042 76.1116 88.0469 76.1106 88.0521 76.11C88.075 76.1073 88.0977 76.1041 88.12 76.0997C88.1296 76.0978 88.1388 76.0952 88.1483 76.093C88.1655 76.089 88.1829 76.0848 88.1998 76.0798C88.2112 76.0764 88.2224 76.0724 88.2336 76.0685C88.248 76.0636 88.2625 76.0584 88.2766 76.0527C88.2888 76.0479 88.3004 76.0426 88.3123 76.0373C88.3252 76.0314 88.338 76.0253 88.3506 76.0188C88.3625 76.0127 88.374 76.0064 88.3855 75.9998C88.3976 75.9928 88.4095 75.9855 88.4214 75.978C88.4324 75.971 88.4434 75.9639 88.4539 75.9564C88.4659 75.948 88.4773 75.9392 88.4889 75.9303C88.4985 75.9227 88.5082 75.9152 88.5176 75.9073C88.5296 75.8971 88.541 75.8864 88.5525 75.8755C88.5605 75.8679 88.5688 75.8604 88.5765 75.8524C88.5887 75.84 88.6003 75.8269 88.6119 75.8136C88.6181 75.8065 88.6246 75.7996 88.6305 75.7923C88.6434 75.7764 88.6552 75.7599 88.6669 75.7434C88.6709 75.7377 88.6753 75.7323 88.6792 75.7264C88.6935 75.705 88.707 75.683 88.7194 75.6602C88.7203 75.6588 88.7212 75.6575 88.7218 75.656C88.7351 75.6316 88.7473 75.6067 88.7582 75.5809C88.7612 75.5735 88.7635 75.5659 88.7665 75.5585C88.7736 75.5403 88.7807 75.5222 88.7866 75.5033C88.7905 75.4911 88.7933 75.4786 88.7967 75.4663C88.8006 75.4516 88.8047 75.4371 88.808 75.4222C88.8109 75.409 88.8128 75.3954 88.815 75.3819C88.817 75.3701 88.8196 75.3585 88.8211 75.3464C88.8584 75.0478 89.5466 69.526 89.854 65.9555C89.8543 65.9521 89.8545 65.9486 89.8548 65.9452C89.9433 64.916 90 64.0492 90 63.5186C90 57.2185 84.8744 52.0928 78.5742 52.0928ZM74.6436 53.8508H78.2393L77.78 59.1238H74.1843L74.6436 53.8508ZM50.0401 80.1715C47.3193 80.1715 45.1059 77.958 45.1059 75.2374C45.1059 72.5168 47.3194 70.3033 50.0401 70.3033C52.7607 70.3033 54.9742 72.5168 54.9742 75.2374C54.9742 77.958 52.7607 80.1715 50.0401 80.1715ZM77.4021 80.1715C74.6814 80.1715 72.4681 77.958 72.4681 75.2374C72.4681 72.5168 74.6815 70.3033 77.4021 70.3033C80.1228 70.3033 82.3363 72.5168 82.3363 75.2374C82.3363 77.958 80.1228 80.1715 77.4021 80.1715ZM87.1717 74.3581H84.0349C83.6029 71.0822 80.7944 68.5449 77.4023 68.5449C74.0104 68.5449 71.2019 71.0823 70.7699 74.3581H56.6724C56.2405 71.0822 53.4321 68.5449 50.0401 68.5449C46.6481 68.5449 43.8394 71.0823 43.4075 74.3581H40.4609L41.1991 66.7405H72.715V66.7409C72.7155 66.7409 72.7158 66.7409 72.7163 66.7409C72.7457 66.7409 72.7749 66.7393 72.8037 66.7364C72.8091 66.7359 72.8144 66.7347 72.8198 66.734C72.8427 66.7313 72.8656 66.728 72.8881 66.7236C72.8978 66.7216 72.9073 66.7189 72.9169 66.7166C72.9345 66.7123 72.9521 66.7082 72.9692 66.7031C72.9809 66.6996 72.992 66.6953 73.0034 66.6914C73.0182 66.6862 73.0329 66.6812 73.0472 66.6753C73.0595 66.6703 73.0714 66.6646 73.0833 66.659C73.0963 66.653 73.1093 66.6471 73.1219 66.6405C73.1338 66.6342 73.1456 66.6274 73.1574 66.6206C73.1695 66.6135 73.1814 66.6064 73.1931 66.5989C73.2045 66.5915 73.2153 66.5838 73.2262 66.576C73.2378 66.5678 73.249 66.5594 73.2603 66.5506C73.2704 66.5425 73.2803 66.5342 73.2902 66.5257C73.3013 66.516 73.3122 66.5062 73.3228 66.496C73.3317 66.4875 73.3406 66.4787 73.3492 66.4696C73.3598 66.4586 73.37 66.4473 73.3801 66.4357C73.3879 66.4265 73.3956 66.4174 73.4031 66.408C73.4129 66.3957 73.4221 66.383 73.4313 66.3703C73.4382 66.3607 73.4449 66.351 73.4514 66.3412C73.46 66.328 73.4682 66.3144 73.476 66.3005C73.482 66.2902 73.4881 66.2799 73.4935 66.2694C73.5009 66.2555 73.5072 66.2415 73.5139 66.2273C73.519 66.2159 73.5243 66.2048 73.529 66.1931C73.5347 66.1792 73.5395 66.1651 73.5446 66.1509C73.5489 66.1383 73.5535 66.1258 73.5574 66.1129C73.5612 66.0993 73.5644 66.0854 73.5679 66.0716C73.5713 66.0576 73.5751 66.0438 73.5778 66.0296C73.5804 66.0158 73.5821 66.0017 73.5842 65.9876C73.5863 65.9731 73.5888 65.9588 73.5902 65.9441C73.5904 65.9419 73.5909 65.94 73.591 65.9378L74.0315 60.8812H78.5739C81.2668 60.8812 82.4813 62.2764 83.767 63.7537C84.8279 64.9726 86.0123 66.3325 88.0256 66.6643C87.7699 69.3678 87.3566 72.8385 87.1717 74.3581ZM88.1759 64.903C86.8698 64.6367 86.0662 63.7185 85.0928 62.6001C83.8753 61.2015 82.389 59.4946 79.5398 59.1766L79.9945 53.9561C84.6544 54.6453 88.2422 58.6704 88.2422 63.5188C88.2422 63.8483 88.2176 64.3269 88.1759 64.903Z" fill="black"/>
<path d="M50.0401 72.0146C48.2632 72.0146 46.8175 73.4603 46.8175 75.2373C46.8175 77.0144 48.2632 78.46 50.0401 78.46C51.8171 78.46 53.2628 77.0144 53.2628 75.2373C53.2628 73.4604 51.8171 72.0146 50.0401 72.0146ZM50.0401 76.7022C49.2324 76.7022 48.5753 76.0451 48.5753 75.2373C48.5753 74.4295 49.2324 73.7725 50.0401 73.7725C50.8479 73.7725 51.505 74.4295 51.505 75.2373C51.505 76.0451 50.8478 76.7022 50.0401 76.7022Z" fill="black"/>
<path d="M77.402 72.0146C75.6251 72.0146 74.1793 73.4603 74.1793 75.2373C74.1793 77.0144 75.6251 78.46 77.402 78.46C79.1789 78.46 80.6247 77.0144 80.6247 75.2373C80.6247 73.4604 79.1789 72.0146 77.402 72.0146ZM77.402 76.7022C76.5942 76.7022 75.9372 76.0451 75.9372 75.2373C75.9372 74.4295 76.5942 73.7725 77.402 73.7725C78.2098 73.7725 78.8669 74.4295 78.8669 75.2373C78.8669 76.0451 78.2098 76.7022 77.402 76.7022Z" fill="black"/>
<path d="M38.3203 52.0928H34.0235C33.538 52.0928 33.1446 52.4863 33.1446 52.9717C33.1446 53.4571 33.538 53.8506 34.0235 53.8506H38.3203C38.8058 53.8506 39.1992 53.4571 39.1992 52.9717C39.1992 52.4863 38.8058 52.0928 38.3203 52.0928Z" fill="black"/>
</g>
<defs>
<filter id="filter0_d" x="0" y="0" width="128" height="128" filterUnits="userSpaceOnUse" color-interpolation-filters="sRGB">
<feFlood flood-opacity="0" result="BackgroundImageFix"/>
<feColorMatrix in="SourceAlpha" type="matrix" values="0 0 0 0 0 0 0 0 0 0 0 0 0 0 0 0 0 0 127 0"/>
<feOffset dx="4" dy="4"/>
<feGaussianBlur stdDeviation="2"/>
<feColorMatrix type="matrix" values="0 0 0 0 0 0 0 0 0 0 0 0 0 0 0 0 0 0 0.25 0"/>
<feBlend mode="normal" in2="BackgroundImageFix" result="effect1_dropShadow"/>
<feBlend mode="normal" in="SourceGraphic" in2="effect1_dropShadow" result="shape"/>
</filter>
</defs>
</svg>
