<svg width="37" height="32" viewBox="0 0 37 32" fill="none" xmlns="http://www.w3.org/2000/svg">
<g clip-path="url(#clip0)">
<path d="M21.5855 25.5905C20.6837 25.9686 20.3055 27.045 20.7128 27.9177L22.1382 30.9141C22.5455 31.7574 23.5346 32.1359 24.4073 31.7574C26.88 30.7102 29.0037 29.3429 30.6909 27.6847C32.7564 25.7359 34.1528 23.4959 34.9091 21.0232C35.6655 18.5211 36.0728 15.1177 36.0728 10.7832L36.0728 1.85227C36.0728 0.892273 35.2873 0.106817 34.3273 0.106817L22.8946 0.106818C21.9346 0.106818 21.1491 0.892274 21.1491 1.85227L21.1491 13.285C21.1491 14.2453 21.9346 15.0305 22.8946 15.0305L28.3637 15.0305C28.3055 17.9689 27.6073 20.325 26.3273 22.0998C25.28 23.5247 23.7091 24.6883 21.5855 25.5905Z" fill="#0099FF"/>
<path d="M1.04731 25.5904C0.145493 25.9686 -0.232398 27.0449 0.174584 27.9177L1.60004 30.8846C2.00731 31.7283 2.9964 32.1065 3.86913 31.7283C6.31277 30.681 8.4076 29.3137 10.1237 27.6846C12.1894 25.7065 13.6146 23.4665 14.3712 20.9937C15.1276 18.5504 15.5055 15.1465 15.5055 10.7828L15.5055 1.85191C15.5055 0.891911 14.72 0.106455 13.76 0.106455L2.32731 0.106456C1.36731 0.106456 0.581855 0.891912 0.581855 1.85191L0.581856 13.2846C0.581856 14.2449 1.36731 15.0301 2.32731 15.0301L7.82549 15.0301C7.76731 17.9686 7.06884 20.3246 5.78913 22.0995C4.74186 23.5246 3.17095 24.6883 1.04731 25.5904Z" fill="#0099FF"/>
</g>
<defs>
<clipPath id="clip0">
<rect width="36.0727" height="32" fill="white" transform="translate(36.0728 32) rotate(180)"/>
</clipPath>
</defs>
</svg>
