<svg width="44" height="50" viewBox="0 0 44 50" fill="none" xmlns="http://www.w3.org/2000/svg">
<path d="M21.9126 0C20.7096 0.150376 17.5517 0.977444 13.6419 2.4812C9.73214 3.98496 5.89756 4.51128 2.66447 5.33835C-0.493421 6.16541 0.0328947 10 0.0328947 10C0.0328947 10 1.2359 25.4887 1.68703 28.0451C4.01786 40.2256 21.5367 50 21.5367 50C21.5367 50 39.4314 40.5263 41.8374 28.1203C42.3637 25.4887 43.5667 9.69925 43.5667 9.69925C43.5667 9.69925 44.1682 5.78947 40.86 5.03759C37.5517 4.28571 33.5667 3.7594 29.5818 2.33083C25.7472 0.902256 23.1156 0.075188 21.9126 0ZM28.2284 5.71429C31.3111 6.8421 34.2434 7.36842 36.875 7.89474C36.875 7.89474 39.281 8.49624 39.657 8.57143C39.657 8.57143 39.7321 8.57143 39.7321 9.24812C39.7321 9.32331 39.7321 9.3985 39.7321 9.47368C39.281 15.4887 38.3788 25.7143 38.0028 27.5188C36.9502 32.8571 32.1382 37.8195 28.3036 40.9774C25.7472 43.0827 23.266 44.7368 21.6118 45.7895C20.0329 44.7368 17.5517 43.0827 15.0705 40.9774C11.3111 37.6692 6.57425 32.7068 5.52162 27.3684C5.22086 25.6391 4.31861 15.6391 3.86748 9.69925C3.86748 9.54887 3.86748 9.54887 3.86748 9.47368C3.86748 9.24812 3.86748 8.94737 3.94267 8.7218C4.76974 8.49624 5.67199 8.34586 6.64944 8.1203C9.20583 7.59399 12.063 6.99248 15.0705 5.78947C18.4539 4.51128 20.86 3.83459 21.8374 3.60902C22.5141 3.83459 24.1682 4.21053 28.2284 5.71429Z" fill="#C83007"/>
<path d="M21.8374 5.03754C20.9351 5.11272 18.6043 5.78942 15.7472 6.99242C12.8148 8.19543 9.9577 8.57137 7.62687 9.24806C5.22086 9.92476 5.67198 12.9323 5.67198 12.9323C5.67198 12.9323 6.57424 25.1127 6.95018 27.0676C8.6795 36.6165 21.687 44.2857 21.687 44.2857C21.687 44.2857 34.9201 36.842 36.6494 27.1428C37.0254 25.1127 37.9276 12.7067 37.9276 12.7067C37.9276 12.7067 38.3788 9.624 35.8975 9.0225C33.4163 8.421 30.5592 8.04506 27.5517 6.91724C24.6945 5.71423 22.7397 5.11272 21.8374 5.03754Z" fill="#C83007"/>
</svg>
