<svg width="55" height="51" viewBox="0 0 55 51" fill="none" xmlns="http://www.w3.org/2000/svg">
<path d="M46.8195 17.087C47.5592 16.4213 47.4113 15.6077 46.4497 15.3118L43.0474 14.2023C42.0858 13.9065 41.642 12.871 42.0118 11.9094L43.3432 8.58104C43.713 7.6195 43.1953 7.02778 42.2337 7.17571L38.6834 7.76743C37.7219 7.91536 36.7604 7.24968 36.6864 6.21417L36.2426 2.58991C36.1687 1.55441 35.355 1.25855 34.5414 1.85027L31.6568 3.99524C30.8432 4.58696 29.7337 4.43903 29.142 3.55145L27.145 0.592873C26.6272 -0.220736 25.8136 -0.220736 25.3698 0.740802L23.8166 3.99524C23.3728 4.88281 22.3373 5.25264 21.4497 4.80885L18.2692 3.10767C17.3817 2.66388 16.716 3.0337 16.716 4.0692L16.8639 7.69346C16.9379 8.72897 16.1243 9.54258 15.0888 9.46861L11.4645 9.39465C10.429 9.39465 10.0592 10.0603 10.5769 10.9479L12.3521 14.0544C12.8698 14.942 12.5 16.0515 11.6124 16.4952L8.43197 18.1225C7.54439 18.5662 7.47043 19.3799 8.358 19.9716L11.3905 21.8946C12.2781 22.4124 12.4261 23.5219 11.9083 24.4094L9.83729 27.368C9.24558 28.1816 9.6154 28.9213 10.5769 28.9952L14.2012 29.2911C15.2367 29.3651 15.9024 30.2526 15.7545 31.2881L15.3107 34.7645C15.1627 35.8 15.8284 36.2438 16.79 35.8739L20.1184 34.4686C21.0799 34.0988 22.1154 34.5426 22.4113 35.5041L23.6687 38.9065C24.0385 39.868 24.8521 40.016 25.4438 39.2023L27.7367 36.3917C28.4024 35.5781 29.5119 35.5041 30.2515 36.1698L32.9142 38.6106C33.6539 39.2763 34.4675 39.0544 34.6154 38.0189L35.355 34.4686C35.5769 33.5071 36.5385 32.9154 37.5 33.1373L40.9763 34.0248C41.9379 34.2467 42.5296 33.729 42.2337 32.6935L41.1982 29.2171C40.9024 28.2556 41.4941 27.2941 42.4556 27.0722L45.932 26.2586C46.8935 26.0367 47.1154 25.2231 46.4497 24.4834L43.9349 21.8946C43.2692 21.155 43.2692 20.0455 44.0829 19.3799L46.8195 17.087Z" fill="#C83007"/>
<path d="M42.4557 30.4745L43.4912 33.9509C43.787 34.9124 43.1953 35.5041 42.2338 35.2822L38.7574 34.3947C37.7959 34.1728 36.8344 34.7645 36.6125 35.726L36.0208 38.7586L46.2278 50.0751L47.0415 43.1964L54.142 42.9745L42.3817 29.9568C42.3817 30.1047 42.4557 30.2526 42.4557 30.4745Z" fill="#C83007"/>
<path d="M18.787 35.8L15.4586 37.2053C14.497 37.5751 13.9053 37.1314 13.9793 36.0958L14.4231 32.5456C14.571 31.5101 13.8314 30.6964 12.8698 30.5485L12.3521 30.4745L0 41.7172L6.8787 42.5308L7.10059 49.6313L21.1538 36.9834L21.0799 36.8355C20.7101 35.874 19.6746 35.4302 18.787 35.8Z" fill="#C83007"/>
</svg>
