<svg width="51" height="50" viewBox="0 0 51 50" fill="none" xmlns="http://www.w3.org/2000/svg">
<path d="M10.1177 25.0702C10.1177 33.2835 16.7867 39.9525 25 39.9525C33.2134 39.9525 39.8823 33.2835 39.8823 25.0702C39.8823 16.8568 33.2134 10.1879 25 10.1879C16.8569 10.1177 10.1177 16.8568 10.1177 25.0702ZM35.4598 24.1576C35.9512 29.9139 31.7392 34.9683 25.9828 35.4597C20.2264 35.9511 15.1721 31.7391 14.6807 25.9828C14.1893 20.2264 18.4013 15.172 24.1576 14.6806C29.8438 14.1892 34.8982 18.4012 35.4598 24.1576Z" fill="#C83007"/>
<path d="M45.4983 33.2836L47.9553 33.2134C48.5169 33.2134 49.1487 32.722 49.2891 32.1604L50.1315 28.2292C50.2017 27.6676 49.8507 26.9656 49.3593 26.755L47.0427 25.702C46.5513 25.4212 46.1301 24.7894 46.0599 24.2278C46.0599 24.2278 46.0599 23.947 45.9897 23.245C45.9897 23.0344 45.9897 23.0344 45.9897 23.0344C45.9897 22.7536 46.3407 22.3324 46.8321 22.0516L48.9381 20.7178C49.4295 20.437 49.7103 19.735 49.5699 19.1734L48.3063 15.3827C48.0957 14.8211 47.4639 14.4701 46.9023 14.4701L44.4453 14.6807C43.8837 14.7509 43.1817 14.3999 42.9009 13.9787C42.6201 13.5575 42.1287 12.0833 42.4095 11.5919L43.5327 9.41569C43.8135 8.92429 43.6731 8.1521 43.2519 7.7309L40.3035 5.06332C39.8823 4.64212 39.1101 4.57192 38.6187 4.92292L36.5829 6.32691C36.0915 6.67791 35.3895 6.74811 34.8981 6.46731C34.4769 6.25671 33.2836 5.20371 33.2134 4.64212L33.1432 2.18513C33.1432 1.62354 32.6518 0.991739 32.0902 0.85134L28.2292 0.00894462C27.6676 -0.061255 26.9656 0.289743 26.755 0.78114L25.702 3.02753C25.4212 3.51892 24.7894 3.94012 24.2278 4.01032C24.2278 4.01032 23.947 4.01032 23.245 4.08052C23.0344 4.08052 23.0344 4.08052 23.0344 4.08052C22.7536 4.08052 22.3324 3.72952 22.0516 3.23813L20.7178 1.13214C20.3668 0.640741 19.6648 0.359943 19.1032 0.500342L15.3125 1.76393C14.7509 1.97453 14.3999 2.60633 14.3999 3.16793L14.6105 5.62491C14.6807 6.18651 14.3297 6.8885 13.9085 7.1693C13.4873 7.4501 12.0131 7.9415 11.5217 7.6607L9.34549 6.53751C8.85409 6.25671 8.0819 6.39711 7.6607 6.81831L4.99312 9.76669C4.64212 10.1879 4.64212 10.9601 4.92292 11.4515L6.32691 13.4873C6.67791 13.9787 6.74811 14.6807 6.46731 15.1721C6.25671 15.5933 5.20371 16.7866 4.64212 16.8568L2.11493 16.927C1.55334 16.927 0.921539 17.4184 0.78114 17.98L0.00894462 21.841C-0.061255 22.4026 0.289743 23.1046 0.78114 23.3152L3.02753 24.3682C3.51892 24.649 3.94012 25.2808 4.01032 25.8424C4.01032 25.8424 4.01032 26.1232 4.08052 26.8252C4.08052 27.0358 4.08052 27.0358 4.08052 27.0358C4.08052 27.3166 3.72952 27.7378 3.23813 28.0186L1.13214 29.3524C0.640741 29.6332 0.359943 30.3352 0.500342 30.8968L1.76393 34.6875C1.97453 35.2491 2.60633 35.6001 3.16793 35.6001L5.62491 35.3895C6.18651 35.3193 6.8885 35.6703 7.1693 36.0915C7.4501 36.5127 7.9415 37.9869 7.6607 38.4783L6.53751 40.6545C6.25671 41.1459 6.39711 41.9181 6.81831 42.3393L9.76669 45.0069C10.1879 45.3579 10.9601 45.3579 11.4515 45.0771L13.4873 43.6731C13.9787 43.3221 14.6807 43.2519 15.1721 43.5327C15.5933 43.7433 16.7866 44.7963 16.8568 45.3579L16.927 47.8149C16.927 48.3765 17.4184 49.0083 17.98 49.1487L21.9112 49.9911C22.4728 50.0613 23.1748 49.7103 23.3854 49.2189L24.4384 46.9725C24.7192 46.4811 25.351 46.0599 25.9126 45.9897C25.9126 45.9897 26.1934 45.9897 26.8954 45.9195C27.106 45.9195 27.106 45.9195 27.106 45.9195C27.3868 45.9195 27.808 46.2705 28.0888 46.7619L29.4226 48.8679C29.7034 49.3593 30.4054 49.6401 30.967 49.4997L34.7577 48.2361C35.3193 48.0255 35.6703 47.3937 35.6703 46.8321L35.4597 44.3751C35.3895 43.8135 35.7405 43.1115 36.1617 42.8307C36.5829 42.5499 38.0571 42.0585 38.5485 42.3393L40.7247 43.4625C41.2161 43.7433 41.9883 43.6029 42.4095 43.1817L45.0771 40.2333C45.4281 39.8121 45.4281 39.0399 45.1473 38.5485L43.7433 36.5127C43.3923 36.0213 43.3221 35.3193 43.6029 34.8279C43.8837 34.5471 44.9367 33.2836 45.4983 33.2836ZM25.0702 42.0585C15.7337 42.0585 8.0819 34.4067 8.0819 25.0702C8.0819 15.7337 15.7337 8.0819 25.0702 8.0819C34.4067 8.0819 42.0585 15.7337 42.0585 25.0702C42.0585 34.4067 34.4067 42.0585 25.0702 42.0585Z" fill="#C83007"/>
</svg>
