<svg width="48" height="42" viewBox="0 0 48 42" fill="none" xmlns="http://www.w3.org/2000/svg">
<path d="M15.9601 42C17.3518 42 18.4801 40.8717 18.4801 39.48C18.4801 38.0882 17.3518 36.96 15.9601 36.96C14.5683 36.96 13.4401 38.0882 13.4401 39.48C13.4401 40.8717 14.5683 42 15.9601 42Z" fill="#C83007"/>
<path d="M39.48 42C40.8717 42 42 40.8717 42 39.48C42 38.0882 40.8717 36.96 39.48 36.96C38.0882 36.96 36.96 38.0882 36.96 39.48C36.96 40.8717 38.0882 42 39.48 42Z" fill="#C83007"/>
<path d="M18.48 26.88H42C42.84 26.88 43.512 26.292 43.68 25.536L47.04 7.896C47.124 7.392 47.04 6.888 46.704 6.552C46.368 6.132 45.864 5.88 45.36 5.88H11.844L10.332 2.1C9.912 0.84 8.652 0 7.224 0H1.68C0.756 0 0 0.756 0 1.68C0 2.604 0.756 3.36 1.68 3.36H7.224L15.708 24.948L13.104 28.644C12.18 29.904 12.096 31.584 12.852 33.012C13.608 34.44 15.036 35.28 16.548 35.28H42C42.924 35.28 43.68 34.524 43.68 33.6C43.68 32.676 42.924 31.92 42 31.92H16.632C16.212 31.92 15.96 31.584 15.876 31.5C15.792 31.332 15.708 30.996 15.96 30.66L18.48 26.88ZM35.28 18.48H29.4V14.28H35.28V18.48ZM36.96 14.28H42.336L41.496 18.48H36.96V14.28ZM35.28 20.16V23.52H29.4V20.16H35.28ZM29.4 12.6V9.24H35.28V12.6H29.4ZM27.72 12.6H21.84V9.24H27.72V12.6ZM27.72 14.28V18.48H21.84V14.28H27.72ZM27.72 20.16V23.52H21.84V20.16H27.72ZM20.16 23.52H18.816L17.472 20.16H20.16V23.52ZM36.96 23.52V20.16H41.244L40.572 23.52H36.96ZM42.672 12.6H36.96V9.24H43.344L42.672 12.6ZM20.16 9.24V12.6H14.532L13.188 9.24H20.16ZM15.12 14.28H20.16V18.48H16.8L15.12 14.28Z" fill="#C83007"/>
</svg>
