<svg width="42" height="42" viewBox="0 0 42 42" fill="none" xmlns="http://www.w3.org/2000/svg">
<path d="M5.88 30.492C5.628 30.492 5.46 30.408 5.292 30.24C1.848 26.88 0 22.428 0 17.64C0 7.896 7.896 0 17.64 0C22.428 0 26.88 1.848 30.24 5.292C30.576 5.628 30.576 6.132 30.24 6.468C29.904 6.804 29.4 6.804 29.064 6.468C26.04 3.36 21.924 1.68 17.64 1.68C8.82 1.68 1.68 8.82 1.68 17.64C1.68 21.924 3.36 26.04 6.468 29.064C6.804 29.4 6.804 29.904 6.468 30.24C6.3 30.408 6.132 30.492 5.88 30.492Z" fill="#C83007"/>
<path d="M32.508 32.508C23.772 41.328 16.632 42 14.616 42C11.424 42 6.72003 37.8 6.72003 36.708V34.608C6.72003 34.104 7.05603 33.684 7.56003 33.516L15.96 30.828C16.38 30.66 16.8 30.828 17.136 31.08L20.244 34.188C20.58 34.524 21.168 34.608 21.588 34.356C22.848 33.6 25.62 31.92 28.812 28.644C32.004 25.452 33.768 22.68 34.524 21.42C34.776 21 34.692 20.412 34.356 20.076L31.248 16.968C30.912 16.632 30.828 16.212 30.996 15.792L33.684 7.392C33.852 6.888 34.272 6.552 34.776 6.552H36.876C37.8 6.72 42 11.424 42 14.616C42 16.632 41.328 23.772 32.508 32.508Z" fill="#C83007"/>
<path d="M15.12 21.8401H9.24002C8.73602 21.8401 8.40002 21.5041 8.40002 21.0001C8.40002 19.0681 10.164 17.6401 11.76 16.3801C13.02 15.4561 14.28 14.4481 14.28 13.5241C14.28 12.0121 13.104 11.7601 12.348 11.7601C11.256 11.7601 10.332 12.2641 9.99602 12.9361C9.82802 13.3561 9.32402 13.5241 8.90402 13.3561C8.48402 13.1881 8.31602 12.6841 8.48402 12.2641C9.15602 10.9201 10.584 10.0801 12.348 10.0801C14.112 10.0801 15.96 11.1721 15.96 13.5241C15.96 15.2041 14.364 16.4641 12.852 17.7241C11.844 18.4801 10.836 19.3201 10.332 20.1601H15.12C15.624 20.1601 15.96 20.4961 15.96 21.0001C15.96 21.5041 15.624 21.8401 15.12 21.8401Z" fill="#C83007"/>
<path d="M22.6799 21.8401C22.1759 21.8401 21.8399 21.5041 21.8399 21.0001V19.3201H17.6399C17.3039 19.3201 17.0519 19.1521 16.8839 18.9001C16.7159 18.6481 16.7159 18.3121 16.8839 18.0601L21.9239 10.5001C22.0919 10.1641 22.5119 10.0801 22.8479 10.1641C23.1839 10.2481 23.4359 10.5841 23.4359 11.0041V17.7241H24.2759C24.7799 17.7241 25.1159 18.0601 25.1159 18.5641C25.1159 19.0681 24.7799 19.4041 24.2759 19.4041H23.4359V21.0841C23.5199 21.5041 23.1839 21.8401 22.6799 21.8401ZM19.2359 17.6401H21.8399V13.6921L19.2359 17.6401Z" fill="#C83007"/>
</svg>
