<svg width="47" height="33" viewBox="0 0 47 33" fill="none" xmlns="http://www.w3.org/2000/svg">
<path d="M44.2896 0H13.0264C11.5501 0 10.4211 1.12895 10.4211 2.60526V5.21053H12.158V2.60526C12.158 2.08421 12.5054 1.73684 13.0264 1.73684H44.2896C44.8106 1.73684 45.158 2.08421 45.158 2.60526V8.68421H38.1238C38.2106 8.94474 38.2106 9.2921 38.2106 9.55263V13.8947H45.158V23.4474C45.158 23.9684 44.8106 24.3158 44.2896 24.3158H38.2106V26.0526H44.2896C45.7659 26.0526 46.8948 24.9237 46.8948 23.4474V2.60526C46.8948 1.12895 45.7659 0 44.2896 0Z" fill="#C83007"/>
<path d="M33.8684 6.94727H2.60526C1.12895 6.94727 0 8.07621 0 9.55253V30.3946C0 31.8709 1.12895 32.9999 2.60526 32.9999H33.8684C35.3447 32.9999 36.4737 31.8709 36.4737 30.3946V9.55253C36.4737 8.07621 35.3447 6.94727 33.8684 6.94727ZM10.4211 26.0525H5.21053V24.3157H10.4211V26.0525ZM13.8947 19.1052H5.21053V12.1578H13.8947V19.1052ZM20.8421 26.0525H15.6316V24.3157H20.8421V26.0525ZM31.2632 26.0525H26.0526V24.3157H31.2632V26.0525ZM31.2632 13.8946H22.5789V12.1578H31.2632V13.8946Z" fill="#C83007"/>
</svg>
