<svg width="40" height="34" viewBox="0 0 40 34" fill="none" xmlns="http://www.w3.org/2000/svg">
<path d="M23.2 8H39.52L32.56 0.24C32.48 0.08 32.24 0 32 0H23.2V8Z" fill="#C83007"/>
<path d="M16.8001 0H8.0001C7.7601 0 7.5201 0.08 7.4401 0.24L0.480103 8H16.8001V0Z" fill="#C83007"/>
<path d="M23.2 9.6001V13.6001H16.8V9.6001H0V32.8001C0 33.2801 0.32 33.6001 0.8 33.6001H39.2C39.68 33.6001 40 33.2801 40 32.8001V9.6001H23.2ZM12.8 28.8001H4.8V22.4001H12.8V28.8001ZM20.8 27.2001H16V25.6001H20.8V27.2001ZM24 24.0001H16V22.4001H24V24.0001Z" fill="#C83007"/>
</svg>
