<svg width="80" height="80" viewBox="0 0 80 80" fill="none" xmlns="http://www.w3.org/2000/svg">
<rect width="80" height="80" fill="white"/>
<path d="M65.999 11H14.001C11.795 11 10 12.7951 10 15.001V48C10 48.5519 10.448 48.9999 11 48.9999H68.9999C69.5519 48.9999 69.9999 48.5519 69.9999 48V15.001C70 12.7951 68.205 11 65.999 11ZM68 47H12V15.001C12 13.897 12.898 13 14.001 13H65.999C67.1019 13 68 13.897 68 15.001V47Z" fill="#005AAD"/>
<path d="M69 47H11C10.448 47 10 47.448 10 48V52.9989C10 55.205 11.795 57 14.001 57H65.999C68.205 57 70 55.205 70 52.9989V48C70 47.448 69.552 47 69 47ZM68 52.9991C68 54.1031 67.102 55 65.999 55H14.001C12.898 55 12 54.1031 12 52.9991V49H68.0001V52.9991H68Z" fill="#005AAD"/>
<path d="M43 51H37C36.448 51 36 51.448 36 52C36 52.5519 36.448 52.9999 37 52.9999H43C43.5519 52.9999 43.9999 52.5519 43.9999 52C43.9999 51.448 43.5519 51 43 51Z" fill="#005AAD"/>
<path d="M65.0001 15H15.0001C14.4482 15 14.0002 15.448 14.0002 16V48C14.0002 48.552 14.4482 49 15.0001 49H65.0002C65.5521 49 66.0001 48.552 66.0001 48V16C66.0001 15.448 65.5521 15 65.0001 15ZM64.0001 46.9999H16.0001V16.9999H64.0001V46.9999Z" fill="#005AAD"/>
<path d="M53 63H27.0001C25.3461 63 24.0001 64.346 24.0001 66C24.0001 67.654 25.3461 69 27.0001 69H53.0001C54.6541 69 56.0001 67.654 56.0001 66C56.0001 64.346 54.654 63 53 63ZM53 67H27.0001C26.4481 67 26.0001 66.551 26.0001 66C26.0001 65.449 26.4481 65 27.0001 65H53.0001C53.5521 65 54.0001 65.449 54.0001 66C54.0001 66.551 53.5521 67 53 67Z" fill="#005AAD"/>
<path d="M51.0002 62.9999C47.6821 62.9999 46.0001 60.6449 46.0001 56C46.0001 55.448 45.5521 55 45.0002 55H35.0002C34.4483 55 34.0002 55.448 34.0002 56C34.0002 60.6449 32.3183 62.9999 29.0002 62.9999C28.4483 62.9999 28.0002 63.4479 28.0002 63.9999C28.0002 64.5518 28.4483 64.9998 29.0002 64.9998H51.0002C51.5521 64.9998 52.0001 64.5518 52.0001 63.9999C52.0001 63.4479 51.5521 62.9999 51.0002 62.9999ZM33.8711 62.9999C35.1022 61.636 35.8271 59.6049 35.9731 56.9999H44.0281C44.1731 59.6049 44.8981 61.636 46.1301 62.9999H33.8711Z" fill="#005AAD"/>
<path d="M57.7839 40.4642L55.37 38.0502L56.713 36.7073C56.962 36.4583 57.062 36.0963 56.9759 35.7552C56.8899 35.4142 56.6309 35.1442 56.2939 35.0423L46.294 32.0423C45.941 31.9362 45.56 32.0333 45.3 32.2933C45.039 32.5533 44.943 32.9352 45.049 33.2873L48.049 43.2872C48.15 43.6252 48.4209 43.8842 48.7619 43.9702C49.1019 44.0542 49.4649 43.9561 49.714 43.7072L51.1279 42.2922L53.5419 44.7072C53.7289 44.8952 53.9839 45.0002 54.2489 45.0002C54.5138 45.0002 54.7688 44.8952 54.9559 44.7072L57.7838 41.8782C58.1749 41.4872 58.1749 40.8553 57.7839 40.4642ZM54.2489 42.5862L52.0509 40.3872C51.7959 40.1322 51.4619 40.0052 51.1279 40.0052C50.7929 40.0052 50.4589 40.1331 50.205 40.3861L49.483 41.1081L47.4979 34.4911L54.1149 36.4762L53.3409 37.2502C53.1279 37.4642 53.0109 37.7483 53.0109 38.0502C53.0109 38.3533 53.1289 38.6392 53.3429 38.8512L55.6629 41.1712L54.2489 42.5862Z" fill="#005AAD"/>
<path d="M52.0002 19H24.0003C23.4483 19 23.0003 19.448 23.0003 20V25C23.0003 25.552 23.4483 26 24.0003 26H52.0002C52.5522 26 53.0002 25.552 53.0002 25V20C53.0002 19.448 52.5522 19 52.0002 19ZM51.0002 24H25.0002V21H51.0002V24Z" fill="#005AAD"/>
<path d="M35.9999 30H27.9998C27.4479 30 26.9999 30.448 26.9999 31V34.9999C26.9999 35.5519 27.4479 35.9999 27.9998 35.9999H35.9999C36.5518 35.9999 36.9998 35.5519 36.9998 34.9999V31C36.9998 30.448 36.5518 30 35.9999 30ZM34.9998 34H28.9998V31.9999H34.9998V34Z" fill="#005AAD"/>
<path d="M52.0002 19H24.0003C23.4483 19 23.0003 19.448 23.0003 20V38.9999C23.0003 39.5519 23.4483 39.9999 24.0003 39.9999H47.8063C48.1233 39.9999 48.4203 39.8509 48.6083 39.5969C48.7974 39.3429 48.8554 39.0149 48.7643 38.7119L47.4983 34.4909L51.7133 35.7559C52.0164 35.847 52.3444 35.789 52.5973 35.6C52.8512 35.412 53.0003 35.114 53.0003 34.7979V20C53.0002 19.448 52.5522 19 52.0002 19ZM51.0003 33.454L46.2932 32.042C45.9402 31.936 45.5592 32.033 45.2992 32.293C45.0382 32.554 44.9422 32.935 45.0482 33.2881L46.4622 38.0001H25.0002V21H51.0003V33.454Z" fill="#005AAD"/>
</svg>
