<svg width="80" height="80" viewBox="0 0 80 80" fill="none" xmlns="http://www.w3.org/2000/svg">
<rect width="80" height="80" fill="white"/>
<path d="M67 59.8C61.0316 56.635 56.4536 54.8603 52.3783 54.1799L52.8 53.6001C53.0001 53.4 53.1 53.1 53.0001 52.8L52.0629 49.0516C52.4025 48.5714 52.7229 48.075 53.023 47.5647C56.7496 46.2964 58.6341 44.1524 58.9507 40.9959C60.5876 40.9105 62 39.4496 62 37.8V30.3C62 28.658 60.6937 27.2029 58.9824 27.1055C58.7622 21.3286 56.215 10 40 10C23.7846 10 21.2377 21.3291 21.0175 27.1059C19.3941 27.2017 18 28.5647 18 30.2999V37.7999C18 39.5 19.5 41 21.3 41H22.8C23.3513 41 23.8811 40.8415 24.3426 40.5704C24.9096 43.5803 26.1611 46.5408 27.9372 49.0514L27 52.7999C27 53 27 53.3 27.2001 53.6L27.6218 54.1798C23.5465 54.8603 18.9685 56.6349 13.0001 59.7999C11.1 60.7 10 62.6 10 64.7V68.9999C10 69.6 10.4 70 11 70H35H35.3999H44.6H44.9999H68.9999C69.5999 70 69.9999 69.6 69.9999 69V64.7001C70 62.7 68.8 60.8 67 59.8ZM40.0055 57.5126L42.4 63H37.5666L40.0055 57.5126ZM36.84 65H43.1561L43.7414 68H36.2399L36.84 65ZM50.5 51L50.9 52.8L49.8784 54.2027C49.8133 54.256 49.7529 54.3205 49.7 54.4L45.5404 60.1594L44.2206 61.9716L41.5247 55.9059C44.8128 55.5048 47.7408 53.8291 50.0884 51.4279C50.2272 51.288 50.3645 51.1458 50.5 51ZM54.4048 44.7794C54.9688 43.407 55.394 41.9805 55.6628 40.5426C56.0435 40.7732 56.477 40.9273 56.9444 40.9796C56.771 42.3931 56.143 43.7276 54.4048 44.7794ZM59.9 30.2V37.7C59.9 38.3 59.3999 38.9 58.7 38.9H57.2C56.6 38.9 56 38.3999 56 37.7V37V30.2C56 29.6 56.5 29 57.2 29H58.7C59.3 29 59.9 29.5 59.9 30.2ZM40 12C46.1637 12 56.5373 14.0121 56.9833 27.1163C56.5642 27.1593 56.1628 27.2867 55.7998 27.4824C54.5829 19.8674 47.9438 14 40 14C32.0573 14 25.4188 19.8658 24.2007 27.4791C23.843 27.286 23.4436 27.1584 23.0166 27.1159C23.4628 14.0121 33.8364 12 40 12ZM23.9 37.7C23.9 38.3 23.3999 38.9 22.7 38.9H21.2C20.6 38.9 20 38.3999 20 37.7V30.2C20 29.6 20.5 29 21.2 29H22.7C23.3 29 23.9 29.5 23.9 30.2V37.7ZM26 30C26 22.3 32.3 16 40 16C47.7 16 54 22.3 54 30V37C54 40.3084 53.1387 43.3374 51.7423 45.893C49.3554 46.5854 45.9217 47 41.0001 47C40.4001 47 40.0001 47.3999 40.0001 47.9999C40.0001 48.5999 40.4001 48.9999 41.0001 48.9999C44.603 48.9999 47.6162 48.7786 50.0839 48.3161C50.0226 48.3774 49.9613 48.4387 49.9 48.5C49.3969 49.1707 48.8659 49.7823 48.3112 50.3338C45.9565 52.5275 43.1481 53.8563 40.4418 53.9879C40.3056 53.9294 40.1529 53.9 40 53.9C39.8462 53.9 39.7077 53.9301 39.5835 53.9891C37.927 53.9132 36.2316 53.3881 34.6246 52.49C32.9965 51.5546 31.465 50.2061 30.1 48.5C30 48.4 29.9 48.2999 29.8 48.2L29.7416 48.1805C27.4959 45.2351 26 41.3603 26 37V30ZM38.4752 55.9059L35.7793 61.9716L34.4595 60.1594L30.2999 54.4C30.268 54.3681 30.2329 54.3366 30.1963 54.3055L29.0999 52.8L29.4999 51C29.6352 51.1458 29.7726 51.2878 29.9111 51.4277C32.2588 53.8288 35.1871 55.5047 38.4752 55.9059ZM12 64.7C12 63.4 12.7 62.2 13.9 61.6C20.2742 58.2138 24.8627 56.5142 28.9502 56.0065L34.9176 64.2118L34.16 68H12V64.7ZM68 68H45.84L45.0824 64.2118L51.1145 55.9176C55.1876 56.5322 59.8585 58.2305 66.1001 61.4999C67.3001 62.1999 68.0001 63.3999 68.0001 64.7V68H68Z" fill="#005AAD"/>
</svg>
