<svg width="80" height="80" viewBox="0 0 80 80" fill="none" xmlns="http://www.w3.org/2000/svg">
<rect width="80" height="80" fill="white"/>
<path d="M58.5742 32.0928H54.7967L55.9349 19.0253C55.937 19.0016 55.9373 18.9783 55.9374 18.955C55.9374 18.953 55.9377 18.9511 55.9377 18.9491C55.9377 18.9488 55.9377 18.9485 55.9377 18.9482C55.9377 18.5925 55.7231 18.279 55.4078 18.1427C55.4051 18.1416 55.4025 18.1402 55.3998 18.139C55.3802 18.1308 55.3599 18.1238 55.3396 18.117C55.3319 18.1145 55.3247 18.1114 55.3171 18.1091C55.3004 18.1041 55.2833 18.1001 55.2663 18.096C55.2544 18.0932 55.2429 18.0898 55.2308 18.0874C55.2159 18.0845 55.2005 18.0826 55.1852 18.0804C55.1709 18.0783 55.1569 18.0758 55.1424 18.0745C55.14 18.0743 55.1378 18.0738 55.1353 18.0736C55.1198 18.0722 55.1046 18.0724 55.0892 18.0718C55.0789 18.0715 55.0688 18.0703 55.0585 18.0703H55.0475C55.0466 18.0703 55.0456 18.0703 55.0448 18.0703H37.0716C36.5864 18.0703 36.1927 18.4641 36.1927 18.9492C36.1927 19.4332 36.5864 19.8281 37.0716 19.8281H54.1005L52.3514 39.9112C52.3511 39.9127 52.3511 39.9143 52.3509 39.9158L51.9096 44.9831H21.3693L21.8802 39.7099H27.6951C28.1807 39.7099 28.5741 39.3164 28.5741 38.831C28.5741 38.3456 28.1807 37.9521 27.6951 37.9521H22.0506L23.1292 26.8198H32.3841C32.8696 26.8198 33.263 26.4263 33.263 25.9409C33.263 25.4555 32.8696 25.062 32.3841 25.062H23.2995L23.8067 19.8281H33.556C34.0399 19.8281 34.4349 19.4332 34.4349 18.9492C34.4349 18.4641 34.0399 18.0703 33.556 18.0703H23.009C23.0086 18.0703 23.0082 18.0704 23.0077 18.0704C22.5949 18.0703 22.2368 18.3609 22.1502 18.7638C22.1496 18.7668 22.1485 18.7696 22.1479 18.7725C22.1435 18.7944 22.1406 18.8168 22.1376 18.8393C22.1368 18.8464 22.1353 18.8532 22.1346 18.8604C22.1345 18.8618 22.1341 18.8631 22.134 18.8645L21.5335 25.062H10.8789C10.3934 25.062 10 25.4555 10 25.9409C10 26.4263 10.3934 26.8198 10.8789 26.8198H21.3631L20.2845 37.9521H17.1487C16.6632 37.9521 16.2698 38.3456 16.2698 38.831C16.2698 39.3164 16.6632 39.7099 17.1487 39.7099H20.1143L19.5269 45.771C19.5268 45.7719 19.5268 45.7728 19.5267 45.7737L18.6186 55.1462C18.6185 55.1473 18.6184 55.1485 18.6182 55.1494L18.6179 55.1528C18.6167 55.165 18.6168 55.1769 18.6161 55.1891C18.6153 55.2053 18.6137 55.2211 18.6137 55.2375C18.6137 55.2382 18.6138 55.2389 18.6138 55.2398C18.6138 55.2624 18.6154 55.2846 18.6171 55.3069C18.6178 55.3141 18.6175 55.3213 18.6184 55.3283C18.6207 55.3511 18.6246 55.3735 18.6287 55.3957C18.6298 55.4023 18.6304 55.409 18.6317 55.4154C18.6351 55.4323 18.6399 55.4486 18.6444 55.4651C18.6474 55.4767 18.6499 55.4885 18.6534 55.4999C18.6544 55.5031 18.6559 55.5061 18.6568 55.5094C18.6993 55.6402 18.7715 55.7576 18.8657 55.8535C18.8675 55.8552 18.8689 55.8572 18.8707 55.8589C18.88 55.8682 18.8902 55.8767 18.9001 55.8856C18.9607 55.9411 19.0291 55.9882 19.104 56.0251C19.1196 56.0329 19.1349 56.041 19.1509 56.0476C19.1557 56.0498 19.1608 56.0512 19.1657 56.053C19.1878 56.0618 19.2099 56.0703 19.2328 56.0774C19.2349 56.078 19.2369 56.0784 19.239 56.0791C19.265 56.0868 19.2912 56.0936 19.3181 56.0991C19.3216 56.0998 19.3252 56.1 19.3286 56.1007C19.3542 56.1055 19.3798 56.1096 19.406 56.1122C19.4066 56.1122 19.407 56.1123 19.4076 56.1125C19.4364 56.1153 19.465 56.1167 19.4934 56.1167C19.4937 56.1167 19.4942 56.1166 19.4947 56.1166H23.4074C23.8394 59.3923 26.6478 61.9294 30.0398 61.9294C33.4316 61.9294 36.24 59.3923 36.6721 56.1166H50.7697C51.2019 59.3923 54.0102 61.9294 57.4021 61.9294C60.7938 61.9294 63.6025 59.3923 64.0347 56.1166H67.9483C67.9489 56.1166 67.9496 56.1167 67.9502 56.1167C67.9795 56.1167 68.0083 56.1149 68.0369 56.1121C68.042 56.1116 68.0469 56.1106 68.0521 56.11C68.075 56.1073 68.0977 56.1041 68.12 56.0997C68.1296 56.0978 68.1388 56.0952 68.1483 56.093C68.1655 56.089 68.1829 56.0848 68.1998 56.0798C68.2112 56.0764 68.2224 56.0724 68.2336 56.0685C68.248 56.0636 68.2625 56.0584 68.2766 56.0527C68.2888 56.0479 68.3004 56.0426 68.3123 56.0373C68.3252 56.0314 68.338 56.0253 68.3506 56.0188C68.3625 56.0127 68.374 56.0064 68.3855 55.9998C68.3976 55.9928 68.4095 55.9855 68.4214 55.978C68.4324 55.971 68.4434 55.9639 68.4539 55.9564C68.4659 55.948 68.4773 55.9392 68.4889 55.9303C68.4985 55.9227 68.5082 55.9152 68.5176 55.9073C68.5296 55.8971 68.541 55.8864 68.5525 55.8755C68.5605 55.8679 68.5688 55.8604 68.5765 55.8524C68.5887 55.84 68.6003 55.8269 68.6119 55.8136C68.6181 55.8065 68.6246 55.7996 68.6305 55.7923C68.6434 55.7764 68.6552 55.7599 68.6669 55.7434C68.6709 55.7377 68.6753 55.7323 68.6792 55.7264C68.6935 55.705 68.707 55.683 68.7194 55.6602C68.7203 55.6588 68.7212 55.6575 68.7218 55.656C68.7351 55.6316 68.7473 55.6067 68.7582 55.5809C68.7612 55.5735 68.7635 55.5659 68.7665 55.5585C68.7736 55.5403 68.7807 55.5222 68.7866 55.5033C68.7905 55.4911 68.7933 55.4786 68.7967 55.4663C68.8006 55.4516 68.8047 55.4371 68.808 55.4222C68.8109 55.409 68.8128 55.3954 68.815 55.3819C68.817 55.3701 68.8196 55.3585 68.8211 55.3464C68.8584 55.0478 69.5466 49.526 69.854 45.9555C69.8543 45.9521 69.8545 45.9486 69.8548 45.9452C69.9433 44.916 70 44.0492 70 43.5186C70 37.2185 64.8744 32.0928 58.5742 32.0928ZM54.6436 33.8508H58.2393L57.78 39.1238H54.1843L54.6436 33.8508ZM30.0401 60.1715C27.3193 60.1715 25.1059 57.958 25.1059 55.2374C25.1059 52.5168 27.3194 50.3033 30.0401 50.3033C32.7607 50.3033 34.9742 52.5168 34.9742 55.2374C34.9742 57.958 32.7607 60.1715 30.0401 60.1715ZM57.4021 60.1715C54.6814 60.1715 52.4681 57.958 52.4681 55.2374C52.4681 52.5168 54.6815 50.3033 57.4021 50.3033C60.1228 50.3033 62.3363 52.5168 62.3363 55.2374C62.3363 57.958 60.1228 60.1715 57.4021 60.1715ZM67.1717 54.3581H64.0349C63.6029 51.0822 60.7944 48.5449 57.4023 48.5449C54.0104 48.5449 51.2019 51.0823 50.7699 54.3581H36.6724C36.2405 51.0822 33.4321 48.5449 30.0401 48.5449C26.6481 48.5449 23.8394 51.0823 23.4075 54.3581H20.4609L21.1991 46.7405H52.715V46.7409C52.7155 46.7409 52.7158 46.7409 52.7163 46.7409C52.7457 46.7409 52.7749 46.7393 52.8037 46.7364C52.8091 46.7359 52.8144 46.7347 52.8198 46.734C52.8427 46.7313 52.8656 46.728 52.8881 46.7236C52.8978 46.7216 52.9073 46.7189 52.9169 46.7166C52.9345 46.7123 52.9521 46.7082 52.9692 46.7031C52.9809 46.6996 52.992 46.6953 53.0034 46.6914C53.0182 46.6862 53.0329 46.6812 53.0472 46.6753C53.0595 46.6703 53.0714 46.6646 53.0833 46.659C53.0963 46.653 53.1093 46.6471 53.1219 46.6405C53.1338 46.6342 53.1456 46.6274 53.1574 46.6206C53.1695 46.6135 53.1814 46.6064 53.1931 46.5989C53.2045 46.5915 53.2153 46.5838 53.2262 46.576C53.2378 46.5678 53.249 46.5594 53.2603 46.5506C53.2704 46.5425 53.2803 46.5342 53.2902 46.5257C53.3013 46.516 53.3122 46.5062 53.3228 46.496C53.3317 46.4875 53.3406 46.4787 53.3492 46.4696C53.3598 46.4586 53.37 46.4473 53.3801 46.4357C53.3879 46.4265 53.3956 46.4174 53.4031 46.408C53.4129 46.3957 53.4221 46.383 53.4313 46.3703C53.4382 46.3607 53.4449 46.351 53.4514 46.3412C53.46 46.328 53.4682 46.3144 53.476 46.3005C53.482 46.2902 53.4881 46.2799 53.4935 46.2694C53.5009 46.2555 53.5072 46.2415 53.5139 46.2273C53.519 46.2159 53.5243 46.2048 53.529 46.1931C53.5347 46.1792 53.5395 46.1651 53.5446 46.1509C53.5489 46.1383 53.5535 46.1258 53.5574 46.1129C53.5612 46.0993 53.5644 46.0854 53.5679 46.0716C53.5713 46.0576 53.5751 46.0438 53.5778 46.0296C53.5804 46.0158 53.5821 46.0017 53.5842 45.9876C53.5863 45.9731 53.5888 45.9588 53.5902 45.9441C53.5904 45.9419 53.5909 45.94 53.591 45.9378L54.0315 40.8812H58.5739C61.2668 40.8812 62.4813 42.2764 63.767 43.7537C64.8279 44.9726 66.0123 46.3325 68.0256 46.6643C67.7699 49.3678 67.3566 52.8385 67.1717 54.3581ZM68.1759 44.903C66.8698 44.6367 66.0662 43.7185 65.0928 42.6001C63.8753 41.2015 62.389 39.4946 59.5398 39.1766L59.9945 33.9561C64.6544 34.6453 68.2422 38.6704 68.2422 43.5188C68.2422 43.8483 68.2176 44.3269 68.1759 44.903Z" fill="#005AAD"/>
<path d="M30.0401 52.0146C28.2632 52.0146 26.8175 53.4603 26.8175 55.2373C26.8175 57.0144 28.2632 58.46 30.0401 58.46C31.8171 58.46 33.2628 57.0144 33.2628 55.2373C33.2628 53.4604 31.8171 52.0146 30.0401 52.0146ZM30.0401 56.7022C29.2324 56.7022 28.5753 56.0451 28.5753 55.2373C28.5753 54.4295 29.2324 53.7725 30.0401 53.7725C30.8479 53.7725 31.505 54.4295 31.505 55.2373C31.505 56.0451 30.8478 56.7022 30.0401 56.7022Z" fill="#005AAD"/>
<path d="M57.402 52.0146C55.6251 52.0146 54.1793 53.4603 54.1793 55.2373C54.1793 57.0144 55.6251 58.46 57.402 58.46C59.1789 58.46 60.6247 57.0144 60.6247 55.2373C60.6247 53.4604 59.1789 52.0146 57.402 52.0146ZM57.402 56.7022C56.5942 56.7022 55.9372 56.0451 55.9372 55.2373C55.9372 54.4295 56.5942 53.7725 57.402 53.7725C58.2098 53.7725 58.8669 54.4295 58.8669 55.2373C58.8669 56.0451 58.2098 56.7022 57.402 56.7022Z" fill="#005AAD"/>
<path d="M18.3203 32.0928H14.0235C13.538 32.0928 13.1446 32.4863 13.1446 32.9717C13.1446 33.4571 13.538 33.8506 14.0235 33.8506H18.3203C18.8058 33.8506 19.1992 33.4571 19.1992 32.9717C19.1992 32.4863 18.8058 32.0928 18.3203 32.0928Z" fill="#005AAD"/>
</svg>
