<svg width="80" height="80" viewBox="0 0 80 80" fill="none" xmlns="http://www.w3.org/2000/svg">
<rect width="80" height="80" fill="white"/>
<path d="M59.1039 50.0215H53.0912V52.0257H59.1039V50.0215Z" fill="#005AAD"/>
<path d="M51.087 50.0215H45.0742V52.0257H51.087V50.0215Z" fill="#005AAD"/>
<path d="M43.07 50.0215H37.0573V52.0257H43.07V50.0215Z" fill="#005AAD"/>
<path d="M69.1121 30.7833L49.2831 10.9513C48.7201 10.3829 47.9528 10.0635 47.1526 10.0645H47.1436C46.3487 10.0648 45.5873 10.3844 45.0301 10.9513L23.9956 31.9828H13.0064C11.346 31.9828 10 33.3288 10 34.9892V63.0486C10 64.709 11.346 66.055 13.0064 66.055H27.8538L30.8441 69.0483C31.4072 69.6168 32.1744 69.9362 32.9746 69.9352H32.9826C33.7778 69.9349 34.5397 69.6154 35.0971 69.0483L38.0935 66.055H61.1082C62.7686 66.055 64.1145 64.709 64.1145 63.0486V40.0339L69.1071 35.0413C69.6769 34.4835 69.9986 33.7202 70 32.9228C70.003 32.1194 69.6831 31.3485 69.1121 30.7833ZM56.3641 20.8693L45.2506 31.9828H36.7406L52.1091 16.6143L56.3641 20.8693ZM46.4491 12.3643C46.8303 11.9739 47.4559 11.9664 47.8465 12.3477C47.8521 12.3532 47.8577 12.3587 47.8631 12.3643L50.6921 15.1973L33.9056 31.9828H26.8296L46.4491 12.3643ZM33.6781 67.6353C33.4948 67.8267 33.2416 67.9352 32.9766 67.9359C32.7081 67.9353 32.451 67.8271 32.2631 67.6353L30.6888 66.055H35.2595L33.6781 67.6353ZM62.1103 63.0486C62.1103 63.602 61.6616 64.0507 61.1082 64.0507H13.0064C12.4529 64.0507 12.0042 63.602 12.0042 63.0486V49.0189H62.1103V63.0486ZM62.1103 47.0147H12.0042V41.0019H62.1103V47.0147ZM62.1103 38.9977H12.0042V34.9892C12.0042 34.4358 12.4529 33.9871 13.0064 33.9871H61.1082C61.6616 33.9871 62.1103 34.4358 62.1103 34.9892V38.9977ZM67.6951 33.6193L64.1145 37.1999V34.9892C64.1145 33.3288 62.7686 31.9828 61.1082 31.9828H48.0806L57.7771 22.2863L67.6911 32.2003C67.8836 32.389 67.992 32.6473 67.9917 32.9168C67.9915 33.1814 67.8845 33.4347 67.6951 33.6193Z" fill="#005AAD"/>
<path d="M19.6115 62.0734C19.7579 61.9469 19.8949 61.8099 20.0214 61.6636C21.3466 63.2071 23.6235 63.5003 25.2966 62.343C26.3764 61.588 27.0245 60.3576 27.0363 59.04C27.0363 56.8262 25.2416 55.0315 23.0278 55.0315C22.8289 55.0288 22.6302 55.0456 22.4345 55.0816L22.4085 55.0887C22.3984 55.0887 22.3884 55.0887 22.3794 55.0887C21.4613 55.2412 20.6264 55.7124 20.0214 56.4195C18.5733 54.7449 16.0419 54.5614 14.3674 56.0096C12.6929 57.4577 12.5094 59.9892 13.9576 61.6636C15.4056 63.3381 17.937 63.5216 19.6115 62.0734ZM22.7742 57.0568C22.8578 57.0409 22.9427 57.0339 23.0278 57.0358C24.1347 57.0358 25.032 57.9331 25.032 59.04C25.031 59.464 24.8929 59.8764 24.6382 60.2155C24.6021 60.2646 24.5741 60.3157 24.533 60.3668C24.526 60.3748 24.5159 60.3799 24.5079 60.3879C24.1294 60.8059 23.5917 61.0444 23.0278 61.0443C21.9211 61.0253 21.0391 60.1129 21.058 59.0062C21.0748 58.0235 21.8016 57.1979 22.7742 57.0568ZM17.0151 57.0358C18.122 57.0358 19.0193 57.9331 19.0193 59.04C19.0193 60.147 18.122 61.0443 17.0151 61.0443C15.9081 61.0443 15.0108 60.147 15.0108 59.04C15.0108 57.9331 15.9081 57.0358 17.0151 57.0358Z" fill="#005AAD"/>
</svg>
