<svg width="50" height="50" viewBox="0 0 50 50" fill="none" xmlns="http://www.w3.org/2000/svg">
<rect width="50" height="50" rx="10" fill="#005AAD"/>
<path d="M31.1698 5C23.7152 5 17.6504 11.0648 17.6504 18.5195C17.6504 20.1767 17.9448 21.7872 18.5262 23.3166L5.59934 36.2444C5.41457 36.4292 5.31075 36.6798 5.31075 36.941V44.0148C5.31075 44.5589 5.75184 45 6.29598 45H12.1254C12.3864 45 12.6367 44.8965 12.8214 44.712L14.7859 42.7505C14.9711 42.5657 15.075 42.3148 15.075 42.0533V39.6411H17.4842C18.0283 39.6411 18.4694 39.2 18.4694 38.6559V37.6902H19.4351C19.9792 37.6902 20.4204 37.2491 20.4204 36.705V34.585H22.5404C22.8016 34.585 23.0522 34.4812 23.237 34.2964L26.3714 31.162C27.9011 31.7439 29.5118 32.0387 31.1697 32.0387C38.6243 32.0387 44.6891 25.9739 44.6891 18.5193C44.6892 11.0648 38.6244 5 31.1698 5ZM31.1698 30.0683C29.5572 30.0683 27.9975 29.7426 26.5339 29.1001C26.1555 28.934 25.7293 29.0254 25.4503 29.2973C25.4472 29.3002 25.4443 29.3026 25.4413 29.3056L22.1324 32.6145H19.4353C18.8911 32.6145 18.45 33.0556 18.45 33.5998V35.7198H17.4843C16.9403 35.7198 16.4991 36.1609 16.4991 36.705V37.6706H14.0899C13.5458 37.6706 13.1047 38.1117 13.1047 38.6559V41.6447L11.7177 43.0295H7.28137V41.6372L19.3236 29.595C19.67 29.2487 19.67 28.6873 19.3236 28.341C18.9773 27.9948 18.4161 27.9946 18.0695 28.341L7.28137 39.1292V37.3492L20.3826 24.247C20.3856 24.2441 20.3879 24.2413 20.3906 24.2384C20.6626 23.9596 20.7543 23.5334 20.5882 23.1547C19.9464 21.6912 19.6211 20.1316 19.6211 18.5195C19.6211 12.1514 24.8019 6.97055 31.17 6.97055C37.5382 6.97055 42.7189 12.1513 42.7189 18.5195C42.7187 24.8875 37.5378 30.0683 31.1698 30.0683Z" fill="white"/>
<path d="M35.2844 10.7144C33.2494 10.7144 31.594 12.3698 31.594 14.4047C31.594 16.4397 33.2494 18.0951 35.2844 18.0951C37.3193 18.0951 38.9748 16.4397 38.9748 14.4047C38.9748 12.3698 37.3194 10.7144 35.2844 10.7144ZM35.2844 16.1247C34.336 16.1247 33.5644 15.3531 33.5644 14.4047C33.5644 13.4564 34.336 12.6848 35.2844 12.6848C36.2327 12.6848 37.0043 13.4564 37.0043 14.4047C37.0043 15.3531 36.2327 16.1247 35.2844 16.1247Z" fill="white"/>
</svg>
