<svg width="50" height="50" viewBox="0 0 50 50" fill="none" xmlns="http://www.w3.org/2000/svg">
<rect width="50" height="50" rx="10" fill="#005AAD"/>
<g clip-path="url(#clip0)">
<path d="M16.5628 34.6343C14.8152 34.545 14.8481 32.087 16.5627 32.0016C21.4196 32.0185 34.23 32.0062 39.2413 32.0097C40.612 32.0097 41.7846 31.0769 42.0929 29.7415L44.9385 17.4193C45.1015 16.7137 44.937 15.9835 44.4874 15.4159C44.0378 14.8484 43.3647 14.5183 42.6406 14.5183C40.6246 14.5183 23.512 14.4408 14.747 14.4059L13.3576 9.25056C13.024 8.01858 11.8998 7.1582 10.6234 7.1582H6.17249C5.52496 7.1582 4.99999 7.68317 4.99999 8.3307C4.99999 8.97823 5.52496 9.5032 6.17249 9.5032H10.6234C10.8432 9.5032 11.0366 9.65132 11.0938 9.86214L16.4298 29.6598C15.4916 29.6939 14.6177 30.0755 13.955 30.7479C13.2587 31.4545 12.8847 32.3899 12.902 33.3817C12.9366 35.3654 14.5788 36.9792 16.5628 36.9792H18.2724C18.0183 37.5126 17.8757 38.1089 17.8757 38.738C17.8757 41.0009 19.7166 42.8419 21.9796 42.8419C24.2425 42.8419 26.0835 41.0009 26.0835 38.738C26.0835 38.1089 25.9407 37.5126 25.6866 36.9792H33.0902C32.8363 37.5125 32.6937 38.1085 32.6937 38.7374C32.6937 41.0003 34.5347 42.8413 36.7976 42.8413C39.0605 42.8413 40.9016 41.0002 40.9016 38.7374C40.9016 38.084 40.7473 37.4662 40.4745 36.9173C40.9385 36.761 41.273 36.3234 41.273 35.8068C41.273 35.1593 40.748 34.6343 40.1005 34.6343H16.5628ZM23.7384 38.7381C23.7384 39.708 22.9494 40.497 21.9795 40.497C21.0096 40.497 20.2206 39.708 20.2206 38.7381C20.2206 37.7688 21.0088 36.9801 21.978 36.9793H21.981C22.9502 36.9801 23.7384 37.7688 23.7384 38.7381ZM36.7977 40.4964C35.8279 40.4964 35.0388 39.7073 35.0388 38.7375C35.0388 37.7772 35.8125 36.9947 36.7691 36.9793H36.8263C37.783 36.9947 38.5567 37.7772 38.5567 38.7375C38.5566 39.7073 37.7676 40.4964 36.7977 40.4964ZM42.6492 16.8719C42.6562 16.8806 42.6552 16.8848 42.6537 16.8915L41.4547 22.0837H37.3945L38.0859 16.8448L42.6312 16.863C42.6382 16.8632 42.6423 16.8632 42.6492 16.8719ZM30.5612 29.6646V24.4287H34.7198L34.0288 29.6646H30.5612ZM24.747 29.6646L24.0503 24.4287H28.2162V29.6646H24.747ZM19.3493 29.6646H19.3457C19.0599 29.6645 18.8081 29.4718 18.7338 29.1972L17.4486 24.4287H21.6846L22.3813 29.6646H19.3493ZM23.7383 22.0838L23.0332 16.7842L28.2161 16.805V22.0838H23.7383ZM30.5612 22.0838V16.8145L35.7219 16.8353L35.0292 22.0838H30.5612ZM20.6662 16.7746L21.3726 22.0837H16.8165L15.3798 16.7532L20.6662 16.7746ZM39.2413 29.6646H36.394L37.085 24.4287H40.9131L39.808 29.2138C39.7467 29.4793 39.5137 29.6646 39.2413 29.6646Z" fill="white"/>
</g>
<defs>
<clipPath id="clip0">
<rect width="40" height="40" fill="white" transform="translate(5 5)"/>
</clipPath>
</defs>
</svg>
