<svg width="50" height="50" viewBox="0 0 50 50" fill="none" xmlns="http://www.w3.org/2000/svg">
<rect width="50" height="50" rx="10" fill="#005AAD"/>
<g clip-path="url(#clip0)">
<path d="M25 21.1719C28.7478 21.1719 31.7969 18.1228 31.7969 14.375C31.7969 10.6272 28.7478 7.57812 25 7.57812C21.2522 7.57812 18.2031 10.6272 18.2031 14.375C18.2031 18.1228 21.2522 21.1719 25 21.1719ZM25 9.92188C27.4555 9.92188 29.4531 11.9195 29.4531 14.375C29.4531 16.8305 27.4555 18.8281 25 18.8281C22.5445 18.8281 20.5469 16.8305 20.5469 14.375C20.5469 11.9195 22.5445 9.92188 25 9.92188Z" fill="white"/>
<path d="M38.75 21.1719C41.1193 21.1719 43.0469 19.2443 43.0469 16.875C43.0469 14.5057 41.1193 12.5781 38.75 12.5781C36.3807 12.5781 34.4531 14.5057 34.4531 16.875C34.4531 19.2443 36.3807 21.1719 38.75 21.1719ZM38.75 14.9219C39.827 14.9219 40.7031 15.798 40.7031 16.875C40.7031 17.952 39.827 18.8281 38.75 18.8281C37.673 18.8281 36.7969 17.952 36.7969 16.875C36.7969 15.798 37.673 14.9219 38.75 14.9219Z" fill="white"/>
<path d="M39.6953 23.8281H37.8828C35.747 23.8281 33.9032 25.09 33.063 26.9025C31.3333 25.0142 28.8487 23.8281 26.0921 23.8281H23.908C21.1514 23.8281 18.6668 25.0142 16.937 26.9025C16.0968 25.09 14.253 23.8281 12.1172 23.8281H10.3047C7.37969 23.8281 5 26.1934 5 29.1008V37.6328C5 38.895 6.03078 39.9219 7.29781 39.9219H14.464C14.5841 41.3203 15.7601 42.4219 17.1892 42.4219H32.8109C34.2399 42.4219 35.4159 41.3203 35.5361 39.9219H42.6204C43.9326 39.9219 45.0001 38.8586 45.0001 37.5516V29.1008C45 26.1934 42.6203 23.8281 39.6953 23.8281ZM7.34375 29.1008C7.34375 27.4858 8.67203 26.1719 10.3047 26.1719H12.1172C13.7498 26.1719 15.0781 27.4858 15.0781 29.1008V29.9032C14.2901 31.9551 14.4531 33.1848 14.4531 37.5781H7.34375V29.1008ZM33.2031 39.6859C33.2031 39.9022 33.0272 40.0781 32.8109 40.0781H17.1891C16.9728 40.0781 16.7969 39.9021 16.7969 39.6859V33.283C16.7969 29.3619 19.9869 26.1719 23.9079 26.1719H26.092C30.0131 26.1719 33.2031 29.3619 33.2031 33.2829V39.6859ZM42.6562 37.5516C42.6562 37.592 43.0931 37.5781 35.5469 37.5781C35.5469 33.1523 35.7087 31.9517 34.9219 29.9032V29.1008C34.9219 27.4858 36.2502 26.1719 37.8828 26.1719H39.6953C41.328 26.1719 42.6562 27.4858 42.6562 29.1008V37.5516Z" fill="white"/>
<path d="M11.25 21.1719C13.6193 21.1719 15.5469 19.2443 15.5469 16.875C15.5469 14.5057 13.6193 12.5781 11.25 12.5781C8.8807 12.5781 6.95312 14.5057 6.95312 16.875C6.95312 19.2443 8.8807 21.1719 11.25 21.1719ZM11.25 14.9219C12.327 14.9219 13.2031 15.798 13.2031 16.875C13.2031 17.952 12.327 18.8281 11.25 18.8281C10.173 18.8281 9.29688 17.952 9.29688 16.875C9.29688 15.798 10.173 14.9219 11.25 14.9219Z" fill="white"/>
</g>
<defs>
<clipPath id="clip0">
<rect width="40" height="40" fill="white" transform="translate(5 5)"/>
</clipPath>
</defs>
</svg>
