<svg width="50" height="50" viewBox="0 0 50 50" fill="none" xmlns="http://www.w3.org/2000/svg">
<rect width="50" height="50" rx="10" fill="#005AAD"/>
<path d="M26.4205 11.1724H11.5871C11.1262 11.1724 10.749 11.5495 10.749 12.0104V21.8156C10.749 22.2765 11.1262 22.6536 11.5871 22.6536H26.4205C26.8814 22.6536 27.2586 22.2765 27.2586 21.8156V12.0104C27.2586 11.5495 26.8814 11.1724 26.4205 11.1724ZM25.5825 20.9775H12.4251V12.8485H25.5825V20.9775Z" fill="white"/>
<path d="M44.1536 41.2583H30.1079V27.8495H31.4739C32.7142 27.8495 33.7199 28.8635 33.7115 30.1038C33.7115 30.1122 33.7115 30.1122 33.7115 30.1206V32.442C33.7115 34.8975 35.6977 36.8836 38.1532 36.8836C40.6086 36.8836 42.5948 34.8975 42.5948 32.442V19.1841C42.5948 17.8097 42.0836 16.4856 41.145 15.4715L34.5915 8.00453L33.3344 9.11075L38.4129 14.9017C36.5776 15.2117 35.3373 16.9465 35.6474 18.7818C35.9156 20.4076 37.3235 21.5977 38.9744 21.5977C39.67 21.5893 40.3488 21.3798 40.9187 20.9775V32.442C40.9187 33.9672 39.6784 35.2076 38.1532 35.2076C36.6279 35.2076 35.3876 33.9672 35.3876 32.442V30.1206C35.396 27.9501 33.6445 26.1818 31.4823 26.1734H31.4739H30.1079V10.5606C30.1079 8.64983 28.5659 7.06592 26.6551 7.06592H11.0842C9.17348 7.06592 7.64823 8.65821 7.64823 10.5606V41.2583H5.83805C5.37712 41.2583 5 41.6354 5 42.0963C5 42.5572 5.37712 42.9343 5.83805 42.9343H44.162C44.6229 42.9343 45 42.5572 45 42.0963C45 41.6354 44.6229 41.2583 44.1536 41.2583ZM38.9744 19.9132C38.0358 19.9132 37.2816 19.1506 37.2816 18.2203C37.2816 17.2901 38.0442 16.5275 38.9744 16.5275C39.9131 16.5275 40.6673 17.2901 40.6673 18.2203C40.6673 19.1506 39.9047 19.9132 38.9744 19.9132ZM28.4318 41.2583H9.32432V10.5606C9.32432 9.57168 10.0953 8.74201 11.0842 8.74201H26.6551C27.644 8.74201 28.4318 9.58006 28.4318 10.5606V41.2583Z" fill="white"/>
</svg>
