<svg width="50" height="50" viewBox="0 0 50 50" fill="none" xmlns="http://www.w3.org/2000/svg">
<rect width="50" height="50" rx="10" fill="#005AAD"/>
<path d="M36.7699 28.4561H31.9911C31.5044 28.4561 31.1062 28.8543 31.1062 29.341V32.6153C31.1062 33.1021 31.5044 33.5003 31.9911 33.5003H36.7699C37.2566 33.5003 37.6549 33.1021 37.6549 32.6153V29.341C37.6549 28.8543 37.2566 28.4561 36.7699 28.4561ZM35.885 31.7304H32.8761V30.226H35.885V31.7304Z" fill="white"/>
<path d="M18.0088 28.4561H13.2301C12.7434 28.4561 12.3451 28.8543 12.3451 29.341V32.6153C12.3451 33.1021 12.7434 33.5003 13.2301 33.5003H18.0088C18.4956 33.5003 18.8938 33.1021 18.8938 32.6153V29.341C18.8938 28.8543 18.4956 28.4561 18.0088 28.4561ZM17.1239 31.7304H14.115V30.226H17.1239V31.7304Z" fill="white"/>
<path d="M28.5398 31.5532H21.4602C20.9735 31.5532 20.5752 31.9515 20.5752 32.4382C20.5752 32.9249 20.9735 33.3231 21.4602 33.3231H28.5398C29.0266 33.3231 29.4248 32.9249 29.4248 32.4382C29.4248 31.9515 29.0266 31.5532 28.5398 31.5532Z" fill="white"/>
<path d="M28.5398 29.0757H21.4602C20.9735 29.0757 20.5752 29.4739 20.5752 29.9606C20.5752 30.4474 20.9735 30.8456 21.4602 30.8456H28.5398C29.0266 30.8456 29.4248 30.4474 29.4248 29.9606C29.4248 29.4739 29.0266 29.0757 28.5398 29.0757Z" fill="white"/>
<path d="M42.708 21.3761H40.5752V11.7478C40.5752 9.74779 38.9646 8.11948 36.9646 8.11063L13.0354 8.00443C11.0442 7.99558 9.42478 9.6062 9.41593 11.5974C9.41593 11.6151 9.41593 11.6239 9.41593 11.6416V21.3761H7.28319C6.04425 21.3761 5 22.3761 5 23.6239V26.3761C5 27.6239 6.04425 28.6239 7.29204 28.6239H9.42478V34.4292C9.41593 35.7212 10.0885 36.9248 11.1947 37.5885V39.7389C11.1947 40.9867 12.2478 41.9867 13.4956 41.9867H16.4602C17.708 41.9956 18.7168 40.9867 18.7168 39.7478C18.7168 39.7478 18.7168 39.7478 18.7168 39.7389V38.1018H31.2832V39.7478C31.2832 40.9956 32.292 41.9956 33.5398 41.9956C33.5398 41.9956 33.5398 41.9956 33.5487 41.9956H36.5044C37.7522 41.9956 38.8053 40.9956 38.8053 39.7478V37.5974C39.9115 36.9336 40.5841 35.7301 40.5752 34.4381V28.6327H42.708C43.9558 28.6327 45 27.6328 45 26.385V23.6239C45 22.3761 43.9558 21.3761 42.708 21.3761ZM9.42478 26.8628H7.29204C7.0177 26.8717 6.78761 26.6593 6.76991 26.385V23.6239C6.78761 23.3496 7.0177 23.1372 7.29204 23.146H9.42478V26.8628ZM11.1858 12.5797V11.6416C11.1858 11.146 11.3805 10.6681 11.7257 10.323C12.0708 9.97788 12.5398 9.78319 13.0265 9.78319H13.0354L36.9558 9.88939C37.9823 9.89824 38.8053 10.7301 38.7965 11.7478V12.7035L11.1858 12.5797ZM16.9469 39.7478C16.9469 40.0133 16.7345 40.2257 16.469 40.2257H16.4602H13.4956C13.2212 40.2257 12.9646 40.0221 12.9646 39.7478V38.0752C13.0531 38.0752 13.0177 38.1018 13.0354 38.1018H16.9469V39.7478ZM37.0354 39.7478C37.0354 40.0221 36.7788 40.2257 36.5044 40.2257H33.5398C33.2743 40.2345 33.0531 40.0221 33.0531 39.7566V39.7478V38.1018H36.9646C36.9735 38.1018 36.9469 38.0752 37.0354 38.0752V39.7478ZM38.8053 34.4292C38.8053 35.4646 38 36.3319 36.9646 36.3319H13.0354C12.0088 36.3319 11.1947 35.4646 11.1947 34.4381V24.9071L38.8053 25.031V34.4292ZM15.115 23.1549C15.6372 21.6681 17.2655 20.8982 18.7522 21.4204C19.5752 21.7124 20.2124 22.3584 20.4956 23.1814L15.115 23.1549ZM38.8053 23.2611L22.3186 23.1903C21.823 20.6947 19.3982 19.0841 16.9027 19.5797C15.0973 19.9336 13.6726 21.3407 13.3009 23.146L11.1947 23.1372V14.3496L38.8053 14.4735V23.2611ZM43.2301 26.385C43.2124 26.6593 42.9823 26.8717 42.708 26.8628H40.5752V23.146H42.708C42.9823 23.1372 43.2124 23.3496 43.2301 23.6239V26.385Z" fill="white"/>
</svg>
