<svg width="50" height="50" viewBox="0 0 50 50" fill="none" xmlns="http://www.w3.org/2000/svg">
<rect width="50" height="50" rx="10" fill="#005AAD"/>
<path d="M33.5938 9.76898H28.5156V6.17584C28.5156 5.52887 27.9916 5.00427 27.3447 5.00397L22.7344 5C22.0868 5 21.5625 5.52582 21.5625 6.17188V9.76898H16.4062C14.0369 9.76898 12.1094 11.6965 12.1094 14.0656V40.7034C12.1094 43.0725 14.0369 45 16.4062 45H33.5938C35.9631 45 37.8906 43.0725 37.8906 40.7034V14.0656C37.8906 11.6965 35.9631 9.76898 33.5938 9.76898ZM23.9062 7.34467L26.1719 7.3465V12.1124H23.9062V7.34467ZM35.5469 40.7034C35.5469 41.7801 34.6707 42.6562 33.5938 42.6562H16.4062C15.3293 42.6562 14.4531 41.7801 14.4531 40.7034V14.0656C14.4531 12.9889 15.3293 12.1127 16.4062 12.1127H21.5625V13.2843C21.5625 13.9316 22.0871 14.4562 22.7344 14.4562H27.3438C27.991 14.4562 28.5156 13.9316 28.5156 13.2843V12.1127H33.5938C34.6707 12.1127 35.5469 12.9886 35.5469 14.0656V40.7034Z" fill="white"/>
<path d="M32.0312 33.2041H17.9688C17.3215 33.2041 16.7969 33.7287 16.7969 34.376C16.7969 35.0233 17.3215 35.5479 17.9688 35.5479H32.0312C32.6785 35.5479 33.2031 35.0233 33.2031 34.376C33.2031 33.7287 32.6785 33.2041 32.0312 33.2041Z" fill="white"/>
<path d="M22.6562 37.8911H17.9688C17.3215 37.8911 16.7969 38.4157 16.7969 39.063C16.7969 39.71 17.3215 40.2349 17.9688 40.2349H22.6562C23.3035 40.2349 23.8281 39.71 23.8281 39.063C23.8281 38.4157 23.3035 37.8911 22.6562 37.8911Z" fill="white"/>
<path d="M32.0312 37.8911H27.3438C26.6965 37.8911 26.1719 38.4157 26.1719 39.063C26.1719 39.71 26.6965 40.2349 27.3438 40.2349H32.0312C32.6785 40.2349 33.2031 39.71 33.2031 39.063C33.2031 38.4157 32.6785 37.8911 32.0312 37.8911Z" fill="white"/>
<path d="M20.3125 30.8609H29.6875C30.3348 30.8609 30.8594 30.336 30.8594 29.689V27.3453C30.8594 25.188 29.697 23.2907 27.9224 22.2665C29.4775 19.946 27.8085 16.7993 25 16.7993C22.1899 16.7993 20.5161 19.9521 22.0837 22.2757C20.2444 23.3536 19.1406 25.3433 19.1406 27.4231V29.689C19.1406 30.336 19.6652 30.8609 20.3125 30.8609ZM25 19.1431C25.6461 19.1431 26.1719 19.6689 26.1719 20.3149C26.1719 20.961 25.6461 21.4865 25 21.4865C24.3539 21.4865 23.8281 20.961 23.8281 20.3149C23.8281 19.6689 24.3539 19.1431 25 19.1431ZM21.4844 27.4231C21.4844 25.4327 23.0936 23.7921 25.072 23.8309C26.9708 23.869 28.5156 25.4456 28.5156 27.3453V28.5171H21.4844V27.4231Z" fill="white"/>
</svg>
