<svg width="22" height="18" viewBox="0 0 22 18" fill="none" xmlns="http://www.w3.org/2000/svg">
<path d="M20.0664 0.621094H1.93359C0.868742 0.621094 0 1.48889 0 2.55469V15.4453C0 16.5075 0.864875 17.3789 1.93359 17.3789H20.0664C21.1286 17.3789 22 16.514 22 15.4453V2.55469C22 1.4925 21.1351 0.621094 20.0664 0.621094ZM19.7994 1.91016L11.041 10.6686L2.20683 1.91016H19.7994ZM1.28906 15.1784V2.81546L7.49714 8.97031L1.28906 15.1784ZM2.20056 16.0898L8.41255 9.87785L10.5892 12.0358C10.8412 12.2856 11.2478 12.2848 11.4987 12.0339L13.6211 9.9115L19.7994 16.0898H2.20056ZM20.7109 15.1783L14.5326 9L20.7109 2.82161V15.1783Z" fill="white"/>
</svg>
