<svg width="79" height="63" viewBox="0 0 79 63" fill="none" xmlns="http://www.w3.org/2000/svg">
<path d="M0 40.6098C0 32.561 1.91644 25.0244 5.74933 18C9.72417 10.8293 15.1186 4.82927 21.9326 0L33.6442 9.65855C30.0952 11.561 26.6882 14.561 23.4232 18.6585C20.1581 22.7561 18.0287 26.7073 17.035 30.5122C17.6029 30.0732 19.0225 29.8537 21.2938 29.8537C25.4106 29.8537 28.8176 31.3171 31.5148 34.2439C34.354 37.1707 35.7736 40.9756 35.7736 45.6585C35.7736 50.3415 34.0701 54.439 30.6631 57.9512C27.398 61.3171 23.4942 63 18.9515 63C13.699 63 9.22731 61.0244 5.53639 57.0732C1.84546 52.9756 0 47.4878 0 40.6098ZM43.4394 40.6098C43.4394 32.561 45.3558 25.0244 49.1887 18C53.1635 10.8293 58.487 4.82927 65.159 0L77.0835 9.65855C73.5346 11.561 70.0566 14.561 66.6496 18.6585C63.3845 22.7561 61.3261 26.7073 60.4744 30.5122C61.0422 30.0732 62.4618 29.8537 64.7331 29.8537C68.708 29.8537 72.044 31.3171 74.7412 34.2439C77.5804 37.1707 79 40.9756 79 45.6585C79 50.3415 77.3675 54.439 74.1024 57.9512C70.8374 61.3171 66.8625 63 62.1779 63C56.9254 63 52.4537 61.0244 48.7628 57.0732C45.2138 52.9756 43.4394 47.4878 43.4394 40.6098Z" fill="#27659A"/>
</svg>
