<svg width="12" height="12" viewBox="0 0 12 12" fill="none" xmlns="http://www.w3.org/2000/svg">
<g clip-path="url(#clip0)">
<path d="M11.0085 7.85617C10.2757 7.85617 9.55618 7.74156 8.87436 7.51624C8.54026 7.40229 8.12955 7.50683 7.92564 7.71625L6.57986 8.73217C5.01915 7.89906 4.05778 6.93799 3.23604 5.389L4.22207 4.07829C4.47824 3.82245 4.57013 3.44874 4.46004 3.09809C4.23376 2.41269 4.11881 1.69353 4.11881 0.960436C4.11884 0.430847 3.68799 0 3.15843 0H0.960405C0.430847 0 0 0.430847 0 0.960405C0 7.03054 4.93833 11.9688 11.0085 11.9688C11.538 11.9688 11.9689 11.538 11.9689 11.0084V8.81654C11.9688 8.28701 11.538 7.85617 11.0085 7.85617Z" fill="white"/>
</g>
<defs>
<clipPath id="clip0">
<rect width="12" height="11.9688" fill="white"/>
</clipPath>
</defs>
</svg>
