<svg width="40" height="40" viewBox="0 0 40 40" fill="none" xmlns="http://www.w3.org/2000/svg">
<g clip-path="url(#clip0)">
<path d="M38.8914 28.7808C38.6255 27.7907 38.0729 26.9269 37.3051 26.2781C38.18 22.9248 38.0778 19.4249 36.9958 16.0832C35.7792 12.3259 33.438 9.12922 30.2252 6.8389C29.5216 6.33734 28.5439 6.49992 28.0414 7.20211C27.5388 7.90422 27.7018 8.88 28.4053 9.38148C31.0676 11.2793 33.0079 13.929 34.0165 17.0439C34.8716 19.685 34.9891 22.4441 34.3709 25.1022C32.5444 24.9952 30.7233 25.8946 29.7476 27.5785C29.0808 28.7294 28.9035 30.0703 29.2482 31.3542C29.5932 32.639 30.4195 33.7126 31.575 34.3774C33.9481 35.7428 37.0104 34.9409 38.3919 32.5564C39.0588 31.4056 39.2361 30.0647 38.8914 28.7808ZM35.6815 30.9924C35.1685 31.8777 34.0278 32.1819 33.1388 31.6705C33.1388 31.6705 33.1388 31.6705 33.1387 31.6705C32.7084 31.4229 32.4008 31.0234 32.2725 30.5455C32.1444 30.0686 32.2104 29.5704 32.4582 29.1427C33.2811 27.7225 35.4379 27.991 35.8672 29.5896C35.9951 30.0666 35.9292 30.5648 35.6815 30.9924ZM2.67412 21.6127C2.726 21.6177 2.77741 21.6202 2.82842 21.6202C3.62436 21.6202 4.30545 21.0169 4.38459 20.2099C4.7028 16.9641 6.03537 13.965 8.23826 11.5372C10.1072 9.4775 12.4478 7.99586 15.069 7.20015C15.8896 8.83023 17.5814 9.95218 19.5321 9.95218C22.2844 9.95218 24.5234 7.71992 24.5234 4.97609C24.5234 2.23226 22.2844 0 19.5321 0C17.0883 0 15.0504 1.76055 14.6241 4.07594C11.2719 4.99703 8.28092 6.83515 5.91741 9.43992C3.26014 12.3684 1.65264 15.9874 1.2685 19.9057C1.18428 20.7644 1.81366 21.5287 2.67412 21.6127ZM19.5321 3.12469C20.5579 3.12469 21.3924 3.95523 21.3924 4.97617C21.3924 5.99711 20.5579 6.82758 19.5321 6.82758C18.5058 6.82758 17.6717 5.99664 17.6717 4.97609C17.6717 3.95515 18.5063 3.12469 19.5321 3.12469ZM25.8079 35.5202C22.8268 36.8692 19.5529 37.2187 16.3404 36.5315C13.6179 35.949 11.1617 34.6715 9.16061 32.81C9.45217 32.3688 9.6749 31.8796 9.816 31.3543C10.1608 30.0704 9.98334 28.7294 9.31654 27.5785C7.94045 25.2036 4.8824 24.3866 2.49959 25.7576C1.34412 26.4223 0.517718 27.496 0.172796 28.7808C-0.171891 30.0647 0.00545271 31.4056 0.672328 32.5565C1.89678 34.6698 4.44655 35.5453 6.66936 34.755C9.146 37.1874 12.2389 38.8495 15.6842 39.5867C19.4828 40.3994 23.4357 40.0244 27.1009 38.3661C27.8883 38.0098 28.2373 37.084 27.8803 36.298C27.5232 35.5123 26.5954 35.164 25.8079 35.5202ZM6.79162 30.5455C6.36795 32.1234 4.21365 32.4266 3.38272 30.9925C3.13491 30.5648 3.06897 30.0666 3.19701 29.5896C3.3253 29.1117 3.63295 28.7123 4.06326 28.4647C4.9517 27.9535 6.09256 28.2567 6.60592 29.1426C6.85373 29.5704 6.91975 30.0686 6.79162 30.5455Z" fill="#7D859A"/>
</g>
<defs>
<clipPath id="clip0">
<rect width="39.0625" height="40" fill="white"/>
</clipPath>
</defs>
</svg>
