<svg width="40" height="31" viewBox="0 0 40 31" fill="none" xmlns="http://www.w3.org/2000/svg">
<g clip-path="url(#clip0)">
<path d="M38.8281 14.0625H35.3125C34.6653 14.0625 34.1406 14.5872 34.1406 15.2344C34.1406 15.8816 34.6653 16.4062 35.3125 16.4062H38.8281C39.4753 16.4062 40 15.8816 40 15.2344C40 14.5872 39.4753 14.0625 38.8281 14.0625Z" fill="#7D859A"/>
<path d="M37.313 21.4372L34.9693 19.0934C34.5117 18.6358 33.7697 18.6358 33.312 19.0934C32.8543 19.551 32.8543 20.293 33.312 20.7507L35.6558 23.0944C36.1133 23.5521 36.8555 23.5521 37.313 23.0944C37.7707 22.6368 37.7707 21.8948 37.313 21.4372Z" fill="#7D859A"/>
<path d="M37.313 7.37468C36.8554 6.9171 36.1134 6.9171 35.6557 7.37468L33.312 9.71843C32.8543 10.1761 32.8543 10.918 33.312 11.3757C33.7696 11.8333 34.5117 11.8333 34.9692 11.3757L37.313 9.03194C37.7706 8.57429 37.7706 7.83233 37.313 7.37468Z" fill="#7D859A"/>
<path d="M27.1094 0C25.3491 0 23.8871 1.30039 23.633 2.99094L22.5641 4.05992C20.7035 5.92047 17.9635 7.03125 15.2344 7.03125H8.20312C6.67539 7.03125 5.37281 8.01102 4.88906 9.375H4.6875C2.10281 9.375 0 11.4778 0 14.0625C0 16.6472 2.10281 18.75 4.6875 18.75H4.88906C5.24273 19.7472 6.03406 20.5385 7.03125 20.8922V26.9531C7.03125 28.8916 8.60844 30.4688 10.547 30.4688C12.4854 30.4688 14.0625 28.8916 14.0625 26.9531V21.0938H15.2344C17.9634 21.0938 20.7034 22.2045 22.5641 24.0651L23.633 25.1341C23.8871 26.8245 25.3492 28.125 27.1095 28.125C29.0479 28.125 30.625 26.5479 30.625 24.6094V3.51562C30.625 1.57711 29.0479 0 27.1094 0ZM4.6875 16.4062C3.39516 16.4062 2.34375 15.3548 2.34375 14.0625C2.34375 12.7702 3.39516 11.7188 4.6875 11.7188V16.4062ZM11.7188 26.9531C11.7188 27.5993 11.193 28.125 10.5469 28.125C9.9007 28.125 9.375 27.5993 9.375 26.9531V21.0938H11.7188V26.9531ZM14.0625 18.75H8.20312C7.55695 18.75 7.03125 18.2243 7.03125 17.5781V10.5469C7.03125 9.9007 7.55695 9.375 8.20312 9.375H14.0625V18.75ZM23.5938 21.8239C21.614 20.1105 19.0686 19.0459 16.3984 18.8031L16.3985 9.3218C19.0686 9.07914 21.614 8.01453 23.5938 6.30102V21.8239ZM28.2812 24.6094C28.2812 25.2555 27.7555 25.7812 27.1095 25.7812H27.1094C26.4632 25.7812 25.9375 25.2555 25.9375 24.6094V3.51562C25.9375 2.86945 26.4632 2.34375 27.1095 2.34375C27.7555 2.34375 28.2812 2.86945 28.2812 3.51562V24.6094Z" fill="#7D859A"/>
</g>
<defs>
<clipPath id="clip0">
<rect width="40" height="30.4688" fill="white"/>
</clipPath>
</defs>
</svg>
