<svg width="40" height="38" viewBox="0 0 40 38" fill="none" xmlns="http://www.w3.org/2000/svg">
<g clip-path="url(#clip0)">
<path d="M36.8015 14.7476C36.3678 14.4681 35.9073 14.2401 35.4282 14.0647C34.69 6.20147 28.053 0.0270996 20 0.0270996C11.9471 0.0270996 5.31008 6.2014 4.5718 14.0646C4.09297 14.2399 3.63258 14.4679 3.1993 14.747C1.19602 16.0369 0 18.2281 0 20.6087V22.8603C0 26.7026 3.12594 29.8286 6.96828 29.8286H8.53953C9.76031 29.8286 10.7535 28.8354 10.7535 27.6145V15.8544C10.7535 14.6336 9.76031 13.6403 8.53953 13.6403H6.96828C6.92898 13.6403 6.88984 13.6418 6.85055 13.6423C7.76742 7.20624 13.3143 2.24108 20 2.24108C26.6857 2.24108 32.2326 7.20616 33.1495 13.6425C33.1102 13.6419 33.071 13.6405 33.0317 13.6405H31.4605C30.2397 13.6405 29.2465 14.6337 29.2465 15.8544V27.6146C29.2465 28.8354 30.2397 29.8286 31.4605 29.8286H32.9473C32.0138 32.7916 29.2406 34.9462 25.9734 34.9462C25.362 34.9462 24.8663 35.4418 24.8663 36.0532C24.8663 36.6646 25.362 37.1602 25.9734 37.1602C30.6082 37.1602 34.4796 33.8321 35.3252 29.4404C38.0442 28.4899 40 25.8994 40 22.8603V20.6087C40 18.2281 38.8041 16.0369 36.8015 14.7476ZM6.96828 15.8544H8.53953L8.54094 27.6145C8.54094 27.6145 8.54047 27.6146 8.53953 27.6146H6.96828C4.3468 27.6146 2.21406 25.4819 2.21406 22.8604V20.6087C2.21406 18.9844 3.03047 17.4891 4.39828 16.6084C5.16359 16.1151 6.05234 15.8544 6.96828 15.8544ZM37.786 22.8603C37.786 25.4818 35.6534 27.6145 33.0318 27.6145H31.4605V15.8544H33.0318C33.9477 15.8544 34.8366 16.1151 35.6027 16.6088C36.9698 17.4891 37.786 18.9843 37.786 20.6086V22.8603Z" fill="#7FEAFF"/>
</g>
<defs>
<clipPath id="clip0">
<rect width="40" height="37.1875" fill="white"/>
</clipPath>
</defs>
</svg>
