<svg width="250" height="250" viewBox="0 0 250 250" fill="none" xmlns="http://www.w3.org/2000/svg">
<g style="mix-blend-mode:overlay" opacity="0.5">
<g style="mix-blend-mode:overlay" opacity="0.5">
<path d="M128.815 4.77359C128.424 5.16171 127.926 5.42525 127.385 5.53111C126.844 5.63697 126.284 5.58041 125.776 5.36846C125.267 5.1565 124.832 4.7986 124.526 4.34003C124.221 3.88146 124.058 3.34274 124.058 2.7916C124.058 2.24046 124.221 1.70162 124.526 1.24305C124.832 0.784478 125.267 0.426691 125.776 0.214735C126.284 0.00277936 126.844 -0.0538962 127.385 0.0519632C127.926 0.157823 128.424 0.421482 128.815 0.809596C129.339 1.33618 129.633 2.04878 129.633 2.7916C129.633 3.53441 129.339 4.24701 128.815 4.77359Z" fill="white"/>
</g>
<g style="mix-blend-mode:overlay" opacity="0.5">
<path d="M152.896 28.8365C152.506 29.2273 152.008 29.4934 151.467 29.6014C150.925 29.7094 150.364 29.6544 149.853 29.4432C149.343 29.232 148.907 28.8742 148.6 28.4151C148.293 27.956 148.129 27.4161 148.129 26.8638C148.129 26.3116 148.293 25.7717 148.6 25.3125C148.907 24.8534 149.343 24.4955 149.853 24.2843C150.364 24.0732 150.925 24.0181 151.467 24.1261C152.008 24.2341 152.506 24.5004 152.896 24.8911C153.414 25.4169 153.705 26.1255 153.705 26.8638C153.705 27.6021 153.414 28.3107 152.896 28.8365Z" fill="white"/>
</g>
<g style="mix-blend-mode:overlay" opacity="0.5">
<path d="M176.958 52.9183C176.566 53.3064 176.069 53.5699 175.528 53.6758C174.987 53.7816 174.427 53.7251 173.918 53.5131C173.41 53.3012 172.975 52.9433 172.669 52.4847C172.364 52.0261 172.2 51.4874 172.2 50.9362C172.2 50.3851 172.364 49.8463 172.669 49.3877C172.975 48.9291 173.41 48.5713 173.918 48.3594C174.427 48.1474 174.987 48.0907 175.528 48.1966C176.069 48.3024 176.566 48.5661 176.958 48.9542C177.482 49.4808 177.776 50.1934 177.776 50.9362C177.776 51.6791 177.482 52.3917 176.958 52.9183Z" fill="white"/>
</g>
<g style="mix-blend-mode:overlay" opacity="0.5">
<path d="M199.066 77.7998C200.608 77.7998 201.857 76.55 201.857 75.0083C201.857 73.4666 200.608 72.2167 199.066 72.2167C197.524 72.2167 196.274 73.4666 196.274 75.0083C196.274 76.55 197.524 77.7998 199.066 77.7998Z" fill="white"/>
</g>
<g style="mix-blend-mode:overlay" opacity="0.5">
<path d="M225.101 101.044C224.569 101.456 223.906 101.661 223.235 101.623C222.564 101.586 221.929 101.307 221.447 100.838C220.965 100.37 220.668 99.7428 220.611 99.0729C220.554 98.403 220.741 97.7351 221.137 97.1918C221.662 96.6735 222.371 96.3831 223.109 96.3831C223.848 96.3831 224.556 96.6735 225.082 97.1918C225.584 97.7063 225.866 98.3955 225.869 99.1141C225.873 99.8328 225.597 100.525 225.101 101.044Z" fill="white"/>
</g>
<g style="mix-blend-mode:overlay" opacity="0.5">
<path d="M247.209 125.944C248.75 125.944 250 124.695 250 123.153C250 121.611 248.75 120.362 247.209 120.362C245.667 120.362 244.417 121.611 244.417 123.153C244.417 124.695 245.667 125.944 247.209 125.944Z" fill="white"/>
</g>
<g style="mix-blend-mode:overlay" opacity="0.5">
<path d="M106.167 26.2682C107.709 26.2682 108.958 25.0184 108.958 23.4767C108.958 21.935 107.709 20.6852 106.167 20.6852C104.625 20.6852 103.376 21.935 103.376 23.4767C103.376 25.0184 104.625 26.2682 106.167 26.2682Z" fill="white"/>
</g>
<g style="mix-blend-mode:overlay" opacity="0.5">
<path d="M132.221 49.5124C131.83 49.9031 131.333 50.1693 130.791 50.2773C130.25 50.3853 129.688 50.3303 129.178 50.1191C128.668 49.9079 128.232 49.5501 127.925 49.091C127.618 48.6318 127.454 48.092 127.454 47.5397C127.454 46.9875 127.618 46.4476 127.925 45.9885C128.232 45.5293 128.668 45.1716 129.178 44.9604C129.688 44.7492 130.25 44.694 130.791 44.802C131.333 44.91 131.83 45.1763 132.221 45.567C132.739 46.0928 133.029 46.8015 133.029 47.5397C133.029 48.278 132.739 48.9866 132.221 49.5124Z" fill="white"/>
</g>
<g style="mix-blend-mode:overlay" opacity="0.5">
<path d="M156.283 73.5939C155.891 73.982 155.394 74.2456 154.853 74.3514C154.312 74.4573 153.752 74.4007 153.243 74.1888C152.735 73.9768 152.3 73.619 151.994 73.1605C151.689 72.7019 151.525 72.1631 151.525 71.612C151.525 71.0608 151.689 70.522 151.994 70.0634C152.3 69.6049 152.735 69.2471 153.243 69.0351C153.752 68.8232 154.312 68.7666 154.853 68.8725C155.394 68.9784 155.891 69.2419 156.283 69.63C156.806 70.1566 157.1 70.8692 157.1 71.612C157.1 72.3547 156.806 73.0673 156.283 73.5939Z" fill="white"/>
</g>
<g style="mix-blend-mode:overlay" opacity="0.5">
<path d="M180.363 97.6571C179.973 98.0478 179.476 98.314 178.934 98.422C178.392 98.53 177.831 98.4749 177.321 98.2638C176.81 98.0526 176.374 97.6948 176.067 97.2357C175.76 96.7765 175.597 96.2367 175.597 95.6844C175.597 95.1321 175.76 94.5923 176.067 94.1331C176.374 93.674 176.81 93.3162 177.321 93.105C177.831 92.8938 178.392 92.8387 178.934 92.9467C179.476 93.0547 179.973 93.3209 180.363 93.7117C180.882 94.2375 181.172 94.9461 181.172 95.6844C181.172 96.4227 180.882 97.1313 180.363 97.6571Z" fill="white"/>
</g>
<g style="mix-blend-mode:overlay" opacity="0.5">
<path d="M204.388 121.739C203.997 122.127 203.499 122.39 202.959 122.496C202.418 122.602 201.858 122.545 201.349 122.334C200.84 122.122 200.405 121.764 200.1 121.305C199.794 120.847 199.631 120.308 199.631 119.757C199.631 119.205 199.794 118.667 200.1 118.208C200.405 117.75 200.84 117.392 201.349 117.18C201.858 116.968 202.418 116.911 202.959 117.017C203.499 117.123 203.997 117.387 204.388 117.775C204.912 118.301 205.206 119.014 205.206 119.757C205.206 120.499 204.912 121.212 204.388 121.739Z" fill="white"/>
</g>
<g style="mix-blend-mode:overlay" opacity="0.5">
<path d="M226.533 146.62C228.075 146.62 229.325 145.371 229.325 143.829C229.325 142.287 228.075 141.037 226.533 141.037C224.992 141.037 223.742 142.287 223.742 143.829C223.742 145.371 224.992 146.62 226.533 146.62Z" fill="white"/>
</g>
<g style="mix-blend-mode:overlay" opacity="0.5">
<path d="M85.4919 46.9443C87.0336 46.9443 88.2833 45.6945 88.2833 44.1528C88.2833 42.611 87.0336 41.3612 85.4919 41.3612C83.9502 41.3612 82.7004 42.611 82.7004 44.1528C82.7004 45.6945 83.9502 46.9443 85.4919 46.9443Z" fill="white"/>
</g>
<g style="mix-blend-mode:overlay" opacity="0.5">
<path d="M111.545 70.1882C111.155 70.579 110.658 70.8452 110.116 70.9532C109.574 71.0612 109.013 71.0061 108.503 70.7949C107.993 70.5837 107.556 70.2259 107.25 69.7668C106.943 69.3077 106.779 68.7678 106.779 68.2155C106.779 67.6633 106.943 67.1234 107.25 66.6643C107.556 66.2051 107.993 65.8474 108.503 65.6362C109.013 65.425 109.574 65.37 110.116 65.478C110.658 65.586 111.155 65.8521 111.545 66.2429C112.064 66.7687 112.354 67.4773 112.354 68.2155C112.354 68.9538 112.064 69.6624 111.545 70.1882Z" fill="white"/>
</g>
<g style="mix-blend-mode:overlay" opacity="0.5">
<path d="M135.533 94.2698C135.142 94.6579 134.644 94.9216 134.103 95.0274C133.563 95.1333 133.002 95.0766 132.494 94.8646C131.985 94.6527 131.55 94.2949 131.245 93.8363C130.939 93.3777 130.776 92.8389 130.776 92.2878C130.776 91.7366 130.939 91.1978 131.245 90.7392C131.55 90.2806 131.985 89.9228 132.494 89.7109C133.002 89.4989 133.563 89.4423 134.103 89.5482C134.644 89.6541 135.142 89.9176 135.533 90.3057C136.057 90.8323 136.351 91.5449 136.351 92.2878C136.351 93.0306 136.057 93.7432 135.533 94.2698Z" fill="white"/>
</g>
<g style="mix-blend-mode:overlay" opacity="0.5">
<path d="M159.725 118.333C159.335 118.724 158.838 118.99 158.296 119.098C157.754 119.206 157.193 119.151 156.683 118.94C156.173 118.728 155.736 118.371 155.429 117.911C155.123 117.452 154.959 116.912 154.959 116.36C154.959 115.808 155.123 115.268 155.429 114.809C155.736 114.35 156.173 113.992 156.683 113.781C157.193 113.57 157.754 113.515 158.296 113.623C158.838 113.731 159.335 113.997 159.725 114.388C160.243 114.913 160.534 115.622 160.534 116.36C160.534 117.098 160.243 117.807 159.725 118.333Z" fill="white"/>
</g>
<g style="mix-blend-mode:overlay" opacity="0.5">
<path d="M181.778 143.215C183.319 143.215 184.569 141.965 184.569 140.423C184.569 138.882 183.319 137.632 181.778 137.632C180.236 137.632 178.986 138.882 178.986 140.423C178.986 141.965 180.236 143.215 181.778 143.215Z" fill="white"/>
</g>
<g style="mix-blend-mode:overlay" opacity="0.5">
<path d="M207.831 166.477C207.44 166.868 206.943 167.134 206.402 167.242C205.86 167.35 205.299 167.295 204.788 167.084C204.278 166.873 203.842 166.515 203.535 166.056C203.228 165.597 203.064 165.057 203.064 164.505C203.064 163.952 203.228 163.413 203.535 162.953C203.842 162.494 204.278 162.137 204.788 161.925C205.299 161.714 205.86 161.659 206.402 161.767C206.943 161.875 207.44 162.141 207.831 162.532C208.353 163.055 208.647 163.765 208.647 164.505C208.647 165.245 208.353 165.954 207.831 166.477Z" fill="white"/>
</g>
<g style="mix-blend-mode:overlay" opacity="0.5">
<path d="M66.7894 66.8013C66.2603 67.2944 65.5603 67.5629 64.8371 67.5501C64.1139 67.5373 63.424 67.2444 62.9125 66.7329C62.4011 66.2215 62.1082 65.5315 62.0954 64.8083C62.0826 64.0851 62.3511 63.3851 62.8442 62.8559C63.0997 62.5816 63.4079 62.3617 63.7503 62.2091C64.0928 62.0566 64.4623 61.9745 64.8371 61.9679C65.2119 61.9613 65.5843 62.0302 65.9319 62.1706C66.2794 62.311 66.5952 62.52 66.8603 62.785C67.1254 63.0501 67.3343 63.3659 67.4747 63.7135C67.6151 64.0611 67.684 64.4335 67.6774 64.8083C67.6708 65.1831 67.5887 65.5528 67.4362 65.8952C67.2836 66.2377 67.0637 66.5458 66.7894 66.8013Z" fill="white"/>
</g>
<g style="mix-blend-mode:overlay" opacity="0.5">
<path d="M88.8976 91.6831C90.4392 91.6831 91.689 90.4333 91.689 88.8915C91.689 87.3498 90.4392 86.1 88.8976 86.1C87.3559 86.1 86.1062 87.3498 86.1062 88.8915C86.1062 90.4333 87.3559 91.6831 88.8976 91.6831Z" fill="white"/>
</g>
<g style="mix-blend-mode:overlay" opacity="0.5">
<path d="M114.932 114.946C114.406 115.464 113.698 115.755 112.96 115.755C112.221 115.755 111.513 115.464 110.987 114.946C110.596 114.556 110.33 114.058 110.222 113.517C110.114 112.975 110.169 112.413 110.38 111.903C110.592 111.393 110.949 110.957 111.408 110.65C111.867 110.343 112.407 110.179 112.96 110.179C113.512 110.179 114.052 110.343 114.511 110.65C114.97 110.957 115.328 111.393 115.539 111.903C115.75 112.413 115.805 112.975 115.697 113.517C115.589 114.058 115.323 114.556 114.932 114.946Z" fill="white"/>
</g>
<g style="mix-blend-mode:overlay" opacity="0.5">
<path d="M137.04 139.828C138.582 139.828 139.832 138.578 139.832 137.036C139.832 135.494 138.582 134.245 137.04 134.245C135.499 134.245 134.249 135.494 134.249 137.036C134.249 138.578 135.499 139.828 137.04 139.828Z" fill="white"/>
</g>
<g style="mix-blend-mode:overlay" opacity="0.5">
<path d="M163.075 163.091C162.684 163.479 162.186 163.742 161.645 163.848C161.105 163.954 160.544 163.897 160.036 163.685C159.527 163.473 159.092 163.116 158.787 162.657C158.481 162.199 158.318 161.66 158.318 161.109C158.318 160.557 158.481 160.019 158.787 159.56C159.092 159.102 159.527 158.744 160.036 158.532C160.544 158.32 161.105 158.263 161.645 158.369C162.186 158.475 162.684 158.739 163.075 159.127C163.599 159.653 163.893 160.366 163.893 161.109C163.893 161.851 163.599 162.564 163.075 163.091Z" fill="white"/>
</g>
<g style="mix-blend-mode:overlay" opacity="0.5">
<path d="M187.156 187.153C186.765 187.544 186.268 187.81 185.726 187.918C185.185 188.026 184.623 187.971 184.113 187.76C183.603 187.549 183.167 187.191 182.86 186.732C182.553 186.273 182.389 185.733 182.389 185.181C182.389 184.628 182.553 184.089 182.86 183.629C183.167 183.17 183.603 182.812 184.113 182.601C184.623 182.39 185.185 182.335 185.726 182.443C186.268 182.551 186.765 182.817 187.156 183.208C187.678 183.731 187.972 184.441 187.972 185.181C187.972 185.921 187.678 186.63 187.156 187.153Z" fill="white"/>
</g>
<g style="mix-blend-mode:overlay" opacity="0.5">
<path d="M46.2074 87.4773C45.6782 87.9704 44.9783 88.2388 44.2551 88.2261C43.5319 88.2133 42.842 87.9203 42.3305 87.4088C41.8191 86.8974 41.5261 86.2074 41.5134 85.4842C41.5006 84.761 41.769 84.061 42.2621 83.5318C42.7913 83.0387 43.4911 82.7703 44.2143 82.7831C44.9375 82.7958 45.6276 83.0889 46.139 83.6003C46.6505 84.1118 46.9434 84.8018 46.9562 85.525C46.9689 86.2482 46.7005 86.9481 46.2074 87.4773Z" fill="white"/>
</g>
<g style="mix-blend-mode:overlay" opacity="0.5">
<path d="M70.1951 111.54C69.8048 111.931 69.3074 112.197 68.7658 112.305C68.2243 112.413 67.6627 112.358 67.1525 112.147C66.6422 111.936 66.2061 111.578 65.8992 111.119C65.5923 110.66 65.4285 110.12 65.4285 109.567C65.4285 109.015 65.5923 108.475 65.8992 108.016C66.2061 107.557 66.6422 107.199 67.1525 106.988C67.6627 106.777 68.2243 106.722 68.7658 106.83C69.3074 106.938 69.8048 107.204 70.1951 107.595C70.7133 108.121 71.0038 108.829 71.0038 109.567C71.0038 110.306 70.7133 111.014 70.1951 111.54Z" fill="white"/>
</g>
<g style="mix-blend-mode:overlay" opacity="0.5">
<path d="M92.2845 136.441C93.8262 136.441 95.0759 135.191 95.0759 133.649C95.0759 132.107 93.8262 130.858 92.2845 130.858C90.7429 130.858 89.4932 132.107 89.4932 133.649C89.4932 135.191 90.7429 136.441 92.2845 136.441Z" fill="white"/>
</g>
<g style="mix-blend-mode:overlay" opacity="0.5">
<path d="M116.365 160.504C117.907 160.504 119.157 159.254 119.157 157.712C119.157 156.17 117.907 154.921 116.365 154.921C114.824 154.921 113.574 156.17 113.574 157.712C113.574 159.254 114.824 160.504 116.365 160.504Z" fill="white"/>
</g>
<g style="mix-blend-mode:overlay" opacity="0.5">
<path d="M140.427 184.586C141.969 184.586 143.219 183.336 143.219 181.794C143.219 180.252 141.969 179.002 140.427 179.002C138.886 179.002 137.636 180.252 137.636 181.794C137.636 183.336 138.886 184.586 140.427 184.586Z" fill="white"/>
</g>
<g style="mix-blend-mode:overlay" opacity="0.5">
<path d="M166.48 207.829C166.09 208.22 165.593 208.486 165.051 208.594C164.51 208.702 163.948 208.647 163.438 208.436C162.928 208.225 162.491 207.867 162.185 207.408C161.878 206.949 161.714 206.409 161.714 205.857C161.714 205.305 161.878 204.765 162.185 204.306C162.491 203.846 162.928 203.489 163.438 203.277C163.948 203.066 164.51 203.011 165.051 203.119C165.593 203.227 166.09 203.493 166.48 203.884C167.003 204.408 167.297 205.117 167.297 205.857C167.297 206.597 167.003 207.306 166.48 207.829Z" fill="white"/>
</g>
<g style="mix-blend-mode:overlay" opacity="0.5">
<path d="M23.4667 108.972C25.0083 108.972 26.2581 107.722 26.2581 106.18C26.2581 104.639 25.0083 103.389 23.4667 103.389C21.925 103.389 20.6753 104.639 20.6753 106.18C20.6753 107.722 21.925 108.972 23.4667 108.972Z" fill="white"/>
</g>
<g style="mix-blend-mode:overlay" opacity="0.5">
<path d="M47.5471 133.035C49.0887 133.035 50.3385 131.785 50.3385 130.243C50.3385 128.702 49.0887 127.452 47.5471 127.452C46.0054 127.452 44.7556 128.702 44.7556 130.243C44.7556 131.785 46.0054 133.035 47.5471 133.035Z" fill="white"/>
</g>
<g style="mix-blend-mode:overlay" opacity="0.5">
<path d="M73.582 156.298C73.0562 156.816 72.3476 157.106 71.6094 157.106C70.8711 157.106 70.1625 156.816 69.6368 156.298C69.246 155.907 68.9798 155.41 68.8718 154.868C68.7638 154.327 68.8188 153.765 69.03 153.255C69.2412 152.745 69.599 152.309 70.0582 152.002C70.5173 151.695 71.0571 151.531 71.6094 151.531C72.1616 151.531 72.7014 151.695 73.1605 152.002C73.6196 152.309 73.9775 152.745 74.1886 153.255C74.3998 153.765 74.4548 154.327 74.3469 154.868C74.2389 155.41 73.9727 155.907 73.582 156.298Z" fill="white"/>
</g>
<g style="mix-blend-mode:overlay" opacity="0.5">
<path d="M97.6625 180.361C97.2722 180.752 96.7748 181.018 96.2333 181.126C95.6917 181.234 95.1302 181.179 94.6199 180.968C94.1097 180.756 93.6736 180.399 93.3667 179.939C93.0598 179.48 92.896 178.94 92.896 178.388C92.896 177.836 93.0598 177.296 93.3667 176.837C93.6736 176.378 94.1097 176.02 94.6199 175.809C95.1302 175.598 95.6917 175.542 96.2333 175.65C96.7748 175.758 97.2722 176.025 97.6625 176.415C98.1852 176.939 98.4788 177.648 98.4788 178.388C98.4788 179.128 98.1852 179.837 97.6625 180.361Z" fill="white"/>
</g>
<g style="mix-blend-mode:overlay" opacity="0.5">
<path d="M119.752 205.261C121.294 205.261 122.544 204.011 122.544 202.47C122.544 200.928 121.294 199.678 119.752 199.678C118.21 199.678 116.961 200.928 116.961 202.47C116.961 204.011 118.21 205.261 119.752 205.261Z" fill="white"/>
</g>
<g style="mix-blend-mode:overlay" opacity="0.5">
<path d="M143.814 229.324C145.356 229.324 146.606 228.074 146.606 226.533C146.606 224.991 145.356 223.741 143.814 223.741C142.273 223.741 141.023 224.991 141.023 226.533C141.023 228.074 142.273 229.324 143.814 229.324Z" fill="white"/>
</g>
<g style="mix-blend-mode:overlay" opacity="0.5">
<path d="M2.79138 129.648C4.33302 129.648 5.58277 128.398 5.58277 126.856C5.58277 125.315 4.33302 124.065 2.79138 124.065C1.24974 124.065 0 125.315 0 126.856C0 128.398 1.24974 129.648 2.79138 129.648Z" fill="white"/>
</g>
<g style="mix-blend-mode:overlay" opacity="0.5">
<path d="M28.8447 152.892C28.3215 153.418 27.611 153.714 26.8694 153.716C26.1278 153.717 25.4159 153.424 24.8902 152.901C24.3646 152.378 24.0684 151.668 24.0667 150.926C24.0649 150.184 24.3578 149.472 24.8809 148.947C25.14 148.686 25.4478 148.48 25.7867 148.338C26.1257 148.197 26.489 148.124 26.8562 148.123C27.2234 148.122 27.5873 148.193 27.9268 148.333C28.2664 148.473 28.5751 148.678 28.8354 148.937C29.0957 149.196 29.3024 149.504 29.4437 149.843C29.5851 150.182 29.6582 150.545 29.6591 150.913C29.6599 151.28 29.5885 151.644 29.4487 151.983C29.309 152.323 29.1037 152.632 28.8447 152.892Z" fill="white"/>
</g>
<g style="mix-blend-mode:overlay" opacity="0.5">
<path d="M52.9066 176.974C52.3808 177.492 51.6722 177.782 50.934 177.782C50.1957 177.782 49.4871 177.492 48.9614 176.974C48.5706 176.583 48.3045 176.086 48.1965 175.544C48.0885 175.003 48.1435 174.441 48.3547 173.931C48.5659 173.421 48.9236 172.985 49.3828 172.678C49.8419 172.371 50.3817 172.207 50.934 172.207C51.4862 172.207 52.0261 172.371 52.4852 172.678C52.9443 172.985 53.3022 173.421 53.5133 173.931C53.7245 174.441 53.7796 175.003 53.6716 175.544C53.5636 176.086 53.2973 176.583 52.9066 176.974Z" fill="white"/>
</g>
<g style="mix-blend-mode:overlay" opacity="0.5">
<path d="M76.9874 201.036C76.5972 201.427 76.0998 201.693 75.5583 201.801C75.0167 201.909 74.4553 201.854 73.9451 201.643C73.4348 201.432 72.9987 201.074 72.6919 200.615C72.385 200.156 72.2212 199.616 72.2212 199.064C72.2212 198.512 72.385 197.972 72.6919 197.513C72.9987 197.053 73.4348 196.696 73.9451 196.484C74.4553 196.273 75.0167 196.218 75.5583 196.326C76.0998 196.434 76.5972 196.7 76.9874 197.091C77.5101 197.615 77.8038 198.324 77.8038 199.064C77.8038 199.804 77.5101 200.513 76.9874 201.036Z" fill="white"/>
</g>
<g style="mix-blend-mode:overlay" opacity="0.5">
<path d="M101.049 225.118C100.524 225.636 99.815 225.927 99.0768 225.927C98.3385 225.927 97.63 225.636 97.1042 225.118C96.7134 224.728 96.4473 224.231 96.3393 223.689C96.2313 223.147 96.2864 222.586 96.4975 222.076C96.7087 221.565 97.0666 221.129 97.5257 220.822C97.9848 220.515 98.5245 220.352 99.0768 220.352C99.629 220.352 100.169 220.515 100.628 220.822C101.087 221.129 101.445 221.565 101.656 222.076C101.867 222.586 101.922 223.147 101.814 223.689C101.706 224.231 101.44 224.728 101.049 225.118Z" fill="white"/>
</g>
<g style="mix-blend-mode:overlay" opacity="0.5">
<path d="M123.139 250C124.681 250 125.931 248.75 125.931 247.209C125.931 245.667 124.681 244.417 123.139 244.417C121.597 244.417 120.348 245.667 120.348 247.209C120.348 248.75 121.597 250 123.139 250Z" fill="white"/>
</g>
</g>
</svg>
