<svg width="500" height="500" viewBox="0 0 500 500" fill="none" xmlns="http://www.w3.org/2000/svg">
<g style="mix-blend-mode:overlay" opacity="0.5">
<g style="mix-blend-mode:overlay" opacity="0.5">
<path d="M257.63 9.54717C256.847 10.3234 255.853 10.8505 254.771 11.0622C253.689 11.2739 252.569 11.1608 251.551 10.7369C250.534 10.313 249.665 9.59718 249.053 8.68004C248.442 7.7629 248.115 6.68546 248.115 5.58318C248.115 4.4809 248.442 3.40323 249.053 2.48609C249.665 1.56895 250.534 0.853379 251.551 0.429469C252.569 0.00555871 253.689 -0.107792 254.771 0.103926C255.853 0.315644 256.847 0.842963 257.63 1.61919C258.678 2.67236 259.266 4.09756 259.266 5.58318C259.266 7.0688 258.678 8.494 257.63 9.54717Z" fill="white"/>
</g>
<g style="mix-blend-mode:overlay" opacity="0.5">
<path d="M305.792 57.673C305.011 58.4545 304.016 58.9868 302.933 59.2028C301.85 59.4188 300.727 59.3087 299.706 58.8863C298.686 58.464 297.814 57.7484 297.2 56.8302C296.586 55.9119 296.259 54.8322 296.259 53.7276C296.259 52.6231 296.586 51.5434 297.2 50.6251C297.814 49.7069 298.686 48.9911 299.706 48.5688C300.727 48.1464 301.85 48.0363 302.933 48.2523C304.016 48.4683 305.011 49.0008 305.792 49.7823C306.828 50.8339 307.409 52.2511 307.409 53.7276C307.409 55.2042 306.828 56.6214 305.792 57.673Z" fill="white"/>
</g>
<g style="mix-blend-mode:overlay" opacity="0.5">
<path d="M353.916 105.836C353.133 106.613 352.138 107.14 351.057 107.351C349.975 107.563 348.855 107.45 347.837 107.026C346.82 106.602 345.95 105.886 345.339 104.969C344.727 104.052 344.401 102.975 344.401 101.872C344.401 100.77 344.727 99.6925 345.339 98.7753C345.95 97.8582 346.82 97.1426 347.837 96.7187C348.855 96.2948 349.975 96.1815 351.057 96.3932C352.138 96.6049 353.133 97.1322 353.916 97.9084C354.963 98.9616 355.552 100.387 355.552 101.872C355.552 103.358 354.963 104.783 353.916 105.836Z" fill="white"/>
</g>
<g style="mix-blend-mode:overlay" opacity="0.5">
<path d="M398.131 155.6C401.215 155.6 403.714 153.1 403.714 150.017C403.714 146.933 401.215 144.434 398.131 144.434C395.048 144.434 392.548 146.933 392.548 150.017C392.548 153.1 395.048 155.6 398.131 155.6Z" fill="white"/>
</g>
<g style="mix-blend-mode:overlay" opacity="0.5">
<path d="M450.201 202.088C449.138 202.911 447.813 203.322 446.47 203.247C445.128 203.171 443.858 202.613 442.894 201.676C441.929 200.739 441.336 199.486 441.222 198.146C441.108 196.806 441.481 195.47 442.273 194.384C443.325 193.347 444.742 192.766 446.218 192.766C447.695 192.766 449.112 193.347 450.164 194.384C451.167 195.413 451.732 196.791 451.739 198.228C451.746 199.666 451.194 201.049 450.201 202.088Z" fill="white"/>
</g>
<g style="mix-blend-mode:overlay" opacity="0.5">
<path d="M494.417 251.889C497.501 251.889 500 249.389 500 246.306C500 243.223 497.501 240.723 494.417 240.723C491.334 240.723 488.834 243.223 488.834 246.306C488.834 249.389 491.334 251.889 494.417 251.889Z" fill="white"/>
</g>
<g style="mix-blend-mode:overlay" opacity="0.5">
<path d="M212.334 52.5366C215.417 52.5366 217.917 50.037 217.917 46.9536C217.917 43.8702 215.417 41.3706 212.334 41.3706C209.251 41.3706 206.751 43.8702 206.751 46.9536C206.751 50.037 209.251 52.5366 212.334 52.5366Z" fill="white"/>
</g>
<g style="mix-blend-mode:overlay" opacity="0.5">
<path d="M264.441 99.0248C263.66 99.8063 262.666 100.339 261.583 100.555C260.499 100.771 259.376 100.661 258.356 100.238C257.335 99.8158 256.463 99.1003 255.849 98.182C255.236 97.2637 254.908 96.184 254.908 95.0795C254.908 93.975 255.236 92.8952 255.849 91.9769C256.463 91.0587 257.335 90.3431 258.356 89.9208C259.376 89.4984 260.499 89.3881 261.583 89.6041C262.666 89.8201 263.66 90.3526 264.441 91.1341C265.477 92.1857 266.058 93.6029 266.058 95.0795C266.058 96.556 265.477 97.9732 264.441 99.0248Z" fill="white"/>
</g>
<g style="mix-blend-mode:overlay" opacity="0.5">
<path d="M312.565 147.188C311.783 147.964 310.788 148.491 309.706 148.703C308.624 148.915 307.504 148.802 306.487 148.378C305.469 147.954 304.6 147.238 303.989 146.321C303.377 145.404 303.051 144.326 303.051 143.224C303.051 142.122 303.377 141.044 303.989 140.127C304.6 139.21 305.469 138.494 306.487 138.07C307.504 137.647 308.624 137.533 309.706 137.745C310.788 137.957 311.783 138.484 312.565 139.26C313.613 140.313 314.201 141.738 314.201 143.224C314.201 144.71 313.613 146.135 312.565 147.188Z" fill="white"/>
</g>
<g style="mix-blend-mode:overlay" opacity="0.5">
<path d="M360.726 195.314C359.946 196.096 358.951 196.628 357.868 196.844C356.785 197.06 355.662 196.95 354.641 196.528C353.621 196.105 352.748 195.39 352.135 194.471C351.521 193.553 351.193 192.473 351.193 191.369C351.193 190.264 351.521 189.185 352.135 188.266C352.748 187.348 353.621 186.633 354.641 186.21C355.662 185.788 356.785 185.677 357.868 185.893C358.951 186.109 359.946 186.642 360.726 187.424C361.763 188.475 362.344 189.892 362.344 191.369C362.344 192.845 361.763 194.263 360.726 195.314Z" fill="white"/>
</g>
<g style="mix-blend-mode:overlay" opacity="0.5">
<path d="M408.776 243.477C407.994 244.254 406.999 244.781 405.917 244.992C404.835 245.204 403.715 245.091 402.698 244.667C401.68 244.243 400.811 243.528 400.199 242.61C399.588 241.693 399.262 240.616 399.262 239.513C399.262 238.411 399.588 237.333 400.199 236.416C400.811 235.499 401.68 234.783 402.698 234.36C403.715 233.936 404.835 233.822 405.917 234.034C406.999 234.246 407.994 234.773 408.776 235.549C409.824 236.602 410.412 238.028 410.412 239.513C410.412 240.999 409.824 242.424 408.776 243.477Z" fill="white"/>
</g>
<g style="mix-blend-mode:overlay" opacity="0.5">
<path d="M453.067 293.241C456.15 293.241 458.65 290.741 458.65 287.658C458.65 284.574 456.15 282.075 453.067 282.075C449.983 282.075 447.484 284.574 447.484 287.658C447.484 290.741 449.983 293.241 453.067 293.241Z" fill="white"/>
</g>
<g style="mix-blend-mode:overlay" opacity="0.5">
<path d="M170.984 93.8885C174.067 93.8885 176.567 91.3889 176.567 88.3054C176.567 85.222 174.067 82.7224 170.984 82.7224C167.9 82.7224 165.401 85.222 165.401 88.3054C165.401 91.3889 167.9 93.8885 170.984 93.8885Z" fill="white"/>
</g>
<g style="mix-blend-mode:overlay" opacity="0.5">
<path d="M223.091 140.376C222.31 141.158 221.315 141.691 220.232 141.907C219.149 142.122 218.026 142.012 217.006 141.59C215.985 141.167 215.113 140.452 214.499 139.534C213.885 138.615 213.558 137.536 213.558 136.431C213.558 135.327 213.885 134.247 214.499 133.329C215.113 132.41 215.985 131.695 217.006 131.272C218.026 130.85 219.149 130.74 220.232 130.956C221.315 131.172 222.31 131.704 223.091 132.486C224.127 133.537 224.708 134.955 224.708 136.431C224.708 137.908 224.127 139.325 223.091 140.376Z" fill="white"/>
</g>
<g style="mix-blend-mode:overlay" opacity="0.5">
<path d="M271.067 188.54C270.284 189.316 269.289 189.843 268.207 190.055C267.126 190.267 266.005 190.153 264.988 189.729C263.97 189.305 263.101 188.59 262.49 187.673C261.878 186.756 261.552 185.678 261.552 184.576C261.552 183.473 261.878 182.396 262.49 181.478C263.101 180.561 263.97 179.846 264.988 179.422C266.005 178.998 267.126 178.885 268.207 179.096C269.289 179.308 270.284 179.835 271.067 180.611C272.114 181.665 272.702 183.09 272.702 184.576C272.702 186.061 272.114 187.486 271.067 188.54Z" fill="white"/>
</g>
<g style="mix-blend-mode:overlay" opacity="0.5">
<path d="M319.45 236.666C318.67 237.447 317.675 237.98 316.592 238.196C315.509 238.412 314.386 238.302 313.366 237.879C312.345 237.457 311.473 236.741 310.859 235.823C310.245 234.905 309.917 233.825 309.917 232.721C309.917 231.616 310.245 230.536 310.859 229.618C311.473 228.7 312.345 227.984 313.366 227.562C314.386 227.14 315.509 227.03 316.592 227.246C317.675 227.461 318.67 227.994 319.45 228.775C320.487 229.827 321.068 231.244 321.068 232.721C321.068 234.197 320.487 235.614 319.45 236.666Z" fill="white"/>
</g>
<g style="mix-blend-mode:overlay" opacity="0.5">
<path d="M363.556 286.43C366.639 286.43 369.138 283.93 369.138 280.847C369.138 277.763 366.639 275.264 363.556 275.264C360.472 275.264 357.973 277.763 357.973 280.847C357.973 283.93 360.472 286.43 363.556 286.43Z" fill="white"/>
</g>
<g style="mix-blend-mode:overlay" opacity="0.5">
<path d="M415.662 332.955C414.881 333.736 413.887 334.269 412.804 334.485C411.72 334.701 410.597 334.591 409.577 334.168C408.556 333.746 407.684 333.03 407.07 332.112C406.457 331.194 406.129 330.114 406.129 329.01C406.129 327.905 406.457 326.825 407.07 325.907C407.684 324.989 408.556 324.273 409.577 323.851C410.597 323.429 411.72 323.319 412.804 323.535C413.887 323.75 414.881 324.283 415.662 325.064C416.707 326.111 417.294 327.53 417.294 329.01C417.294 330.489 416.707 331.908 415.662 332.955Z" fill="white"/>
</g>
<g style="mix-blend-mode:overlay" opacity="0.5">
<path d="M133.579 133.603C132.52 134.589 131.12 135.126 129.674 135.101C128.228 135.075 126.848 134.489 125.825 133.466C124.802 132.443 124.216 131.063 124.191 129.617C124.165 128.17 124.702 126.771 125.688 125.712C126.199 125.164 126.816 124.724 127.5 124.419C128.185 124.113 128.924 123.949 129.674 123.936C130.424 123.923 131.168 124.061 131.863 124.342C132.559 124.622 133.19 125.04 133.72 125.57C134.25 126.101 134.668 126.732 134.949 127.427C135.23 128.123 135.368 128.867 135.355 129.617C135.341 130.367 135.177 131.106 134.872 131.791C134.567 132.476 134.127 133.092 133.579 133.603Z" fill="white"/>
</g>
<g style="mix-blend-mode:overlay" opacity="0.5">
<path d="M177.795 183.366C180.879 183.366 183.378 180.867 183.378 177.783C183.378 174.7 180.879 172.2 177.795 172.2C174.712 172.2 172.213 174.7 172.213 177.783C172.213 180.867 174.712 183.366 177.795 183.366Z" fill="white"/>
</g>
<g style="mix-blend-mode:overlay" opacity="0.5">
<path d="M229.864 229.892C228.813 230.928 227.396 231.509 225.919 231.509C224.443 231.509 223.025 230.928 221.974 229.892C221.192 229.111 220.66 228.116 220.444 227.033C220.228 225.95 220.338 224.827 220.761 223.806C221.183 222.786 221.898 221.914 222.817 221.3C223.735 220.686 224.815 220.358 225.919 220.358C227.024 220.358 228.103 220.686 229.021 221.3C229.94 221.914 230.655 222.786 231.078 223.806C231.5 224.827 231.61 225.95 231.394 227.033C231.178 228.116 230.646 229.111 229.864 229.892Z" fill="white"/>
</g>
<g style="mix-blend-mode:overlay" opacity="0.5">
<path d="M274.08 279.655C277.164 279.655 279.663 277.156 279.663 274.072C279.663 270.989 277.164 268.489 274.08 268.489C270.997 268.489 268.498 270.989 268.498 274.072C268.498 277.156 270.997 279.655 274.08 279.655Z" fill="white"/>
</g>
<g style="mix-blend-mode:overlay" opacity="0.5">
<path d="M326.15 326.181C325.368 326.958 324.373 327.485 323.291 327.697C322.209 327.908 321.089 327.795 320.072 327.371C319.054 326.947 318.185 326.232 317.574 325.314C316.962 324.397 316.636 323.32 316.636 322.217C316.636 321.115 316.962 320.038 317.574 319.12C318.185 318.203 319.054 317.488 320.072 317.064C321.089 316.64 322.209 316.527 323.291 316.738C324.373 316.95 325.368 317.477 326.15 318.254C327.198 319.307 327.786 320.732 327.786 322.217C327.786 323.703 327.198 325.128 326.15 326.181Z" fill="white"/>
</g>
<g style="mix-blend-mode:overlay" opacity="0.5">
<path d="M374.311 374.307C373.531 375.089 372.536 375.621 371.453 375.837C370.37 376.053 369.247 375.943 368.226 375.52C367.206 375.098 366.333 374.382 365.72 373.464C365.106 372.546 364.778 371.466 364.778 370.362C364.778 369.257 365.106 368.177 365.72 367.259C366.333 366.341 367.206 365.625 368.226 365.203C369.247 364.78 370.37 364.67 371.453 364.886C372.536 365.102 373.531 365.635 374.311 366.416C375.357 367.463 375.944 368.882 375.944 370.362C375.944 371.841 375.357 373.26 374.311 374.307Z" fill="white"/>
</g>
<g style="mix-blend-mode:overlay" opacity="0.5">
<path d="M92.4148 174.955C91.3565 175.941 89.9566 176.478 88.5102 176.452C87.0638 176.427 85.6839 175.841 84.661 174.818C83.6381 173.795 83.0523 172.415 83.0267 170.968C83.0012 169.522 83.5381 168.122 84.5243 167.064C85.5826 166.078 86.9823 165.541 88.4286 165.566C89.875 165.592 91.2552 166.178 92.2781 167.201C93.3009 168.224 93.8868 169.604 93.9123 171.05C93.9378 172.496 93.401 173.896 92.4148 174.955Z" fill="white"/>
</g>
<g style="mix-blend-mode:overlay" opacity="0.5">
<path d="M140.39 223.081C139.61 223.862 138.615 224.394 137.532 224.61C136.449 224.826 135.325 224.716 134.305 224.294C133.284 223.872 132.412 223.156 131.798 222.237C131.185 221.319 130.857 220.24 130.857 219.135C130.857 218.031 131.185 216.951 131.798 216.032C132.412 215.114 133.284 214.398 134.305 213.976C135.325 213.554 136.449 213.444 137.532 213.66C138.615 213.876 139.61 214.408 140.39 215.19C141.427 216.241 142.008 217.658 142.008 219.135C142.008 220.612 141.427 222.029 140.39 223.081Z" fill="white"/>
</g>
<g style="mix-blend-mode:overlay" opacity="0.5">
<path d="M184.569 272.882C187.652 272.882 190.152 270.382 190.152 267.299C190.152 264.215 187.652 261.716 184.569 261.716C181.486 261.716 178.986 264.215 178.986 267.299C178.986 270.382 181.486 272.882 184.569 272.882Z" fill="white"/>
</g>
<g style="mix-blend-mode:overlay" opacity="0.5">
<path d="M232.731 321.007C235.814 321.007 238.313 318.508 238.313 315.424C238.313 312.341 235.814 309.841 232.731 309.841C229.647 309.841 227.148 312.341 227.148 315.424C227.148 318.508 229.647 321.007 232.731 321.007Z" fill="white"/>
</g>
<g style="mix-blend-mode:overlay" opacity="0.5">
<path d="M280.855 369.171C283.938 369.171 286.437 366.672 286.437 363.588C286.437 360.504 283.938 358.005 280.855 358.005C277.771 358.005 275.272 360.504 275.272 363.588C275.272 366.672 277.771 369.171 280.855 369.171Z" fill="white"/>
</g>
<g style="mix-blend-mode:overlay" opacity="0.5">
<path d="M332.961 415.659C332.18 416.441 331.186 416.973 330.102 417.189C329.019 417.405 327.896 417.295 326.876 416.872C325.855 416.45 324.983 415.734 324.369 414.816C323.755 413.898 323.428 412.818 323.428 411.714C323.428 410.609 323.755 409.529 324.369 408.611C324.983 407.693 325.855 406.977 326.876 406.555C327.896 406.133 329.019 406.022 330.102 406.238C331.186 406.454 332.18 406.987 332.961 407.768C334.006 408.815 334.594 410.234 334.594 411.714C334.594 413.193 334.006 414.612 332.961 415.659Z" fill="white"/>
</g>
<g style="mix-blend-mode:overlay" opacity="0.5">
<path d="M46.9333 217.944C50.0166 217.944 52.5161 215.444 52.5161 212.361C52.5161 209.277 50.0166 206.778 46.9333 206.778C43.8501 206.778 41.3506 209.277 41.3506 212.361C41.3506 215.444 43.8501 217.944 46.9333 217.944Z" fill="white"/>
</g>
<g style="mix-blend-mode:overlay" opacity="0.5">
<path d="M95.0941 266.07C98.1775 266.07 100.677 263.57 100.677 260.487C100.677 257.403 98.1775 254.904 95.0941 254.904C92.0108 254.904 89.5112 257.403 89.5112 260.487C89.5112 263.57 92.0108 266.07 95.0941 266.07Z" fill="white"/>
</g>
<g style="mix-blend-mode:overlay" opacity="0.5">
<path d="M147.164 312.595C146.112 313.632 144.695 314.213 143.219 314.213C141.742 314.213 140.325 313.632 139.273 312.595C138.492 311.815 137.959 310.82 137.743 309.737C137.527 308.654 137.637 307.531 138.06 306.51C138.482 305.49 139.198 304.618 140.116 304.004C141.034 303.39 142.114 303.062 143.219 303.062C144.323 303.062 145.402 303.39 146.321 304.004C147.239 304.618 147.955 305.49 148.377 306.51C148.799 307.531 148.909 308.654 148.693 309.737C148.477 310.82 147.945 311.815 147.164 312.595Z" fill="white"/>
</g>
<g style="mix-blend-mode:overlay" opacity="0.5">
<path d="M195.325 360.722C194.545 361.503 193.55 362.036 192.467 362.252C191.384 362.468 190.261 362.358 189.24 361.935C188.22 361.513 187.347 360.797 186.734 359.879C186.12 358.961 185.792 357.881 185.792 356.776C185.792 355.672 186.12 354.592 186.734 353.674C187.347 352.756 188.22 352.04 189.24 351.618C190.261 351.195 191.384 351.085 192.467 351.301C193.55 351.517 194.545 352.049 195.325 352.831C196.371 353.878 196.958 355.297 196.958 356.776C196.958 358.256 196.371 359.675 195.325 360.722Z" fill="white"/>
</g>
<g style="mix-blend-mode:overlay" opacity="0.5">
<path d="M239.504 410.523C242.588 410.523 245.087 408.023 245.087 404.939C245.087 401.856 242.588 399.356 239.504 399.356C236.421 399.356 233.921 401.856 233.921 404.939C233.921 408.023 236.421 410.523 239.504 410.523Z" fill="white"/>
</g>
<g style="mix-blend-mode:overlay" opacity="0.5">
<path d="M287.629 458.649C290.712 458.649 293.212 456.149 293.212 453.066C293.212 449.982 290.712 447.483 287.629 447.483C284.545 447.483 282.046 449.982 282.046 453.066C282.046 456.149 284.545 458.649 287.629 458.649Z" fill="white"/>
</g>
<g style="mix-blend-mode:overlay" opacity="0.5">
<path d="M5.58276 259.296C8.66604 259.296 11.1655 256.796 11.1655 253.713C11.1655 250.629 8.66604 248.13 5.58276 248.13C2.49949 248.13 0 250.629 0 253.713C0 256.796 2.49949 259.296 5.58276 259.296Z" fill="white"/>
</g>
<g style="mix-blend-mode:overlay" opacity="0.5">
<path d="M57.6896 305.784C56.6433 306.835 55.2223 307.428 53.739 307.432C52.2558 307.435 50.832 306.849 49.7807 305.803C48.7295 304.756 48.1371 303.335 48.1336 301.852C48.1301 300.369 48.7158 298.945 49.7621 297.893C50.2802 297.373 50.8959 296.959 51.5737 296.677C52.2516 296.394 52.9783 296.247 53.7127 296.246C54.4471 296.244 55.1748 296.387 55.8539 296.666C56.5331 296.946 57.1505 297.356 57.671 297.875C58.1915 298.393 58.6051 299.008 58.8877 299.686C59.1704 300.364 59.3167 301.091 59.3184 301.825C59.3201 302.56 59.1772 303.288 58.8977 303.967C58.6183 304.646 58.2077 305.263 57.6896 305.784Z" fill="white"/>
</g>
<g style="mix-blend-mode:overlay" opacity="0.5">
<path d="M105.813 353.948C104.762 354.984 103.345 355.565 101.868 355.565C100.392 355.565 98.9745 354.984 97.923 353.948C97.1415 353.167 96.6092 352.172 96.3932 351.089C96.1772 350.006 96.2873 348.883 96.7097 347.862C97.132 346.842 97.8475 345.969 98.7657 345.356C99.684 344.742 100.764 344.414 101.868 344.414C102.973 344.414 104.052 344.742 104.971 345.356C105.889 345.969 106.605 346.842 107.027 347.862C107.449 348.883 107.559 350.006 107.343 351.089C107.127 352.172 106.595 353.167 105.813 353.948Z" fill="white"/>
</g>
<g style="mix-blend-mode:overlay" opacity="0.5">
<path d="M153.975 402.073C153.194 402.855 152.2 403.387 151.117 403.603C150.033 403.819 148.911 403.709 147.89 403.286C146.87 402.864 145.997 402.149 145.384 401.23C144.77 400.312 144.442 399.232 144.442 398.128C144.442 397.023 144.77 395.943 145.384 395.025C145.997 394.107 146.87 393.391 147.89 392.969C148.911 392.547 150.033 392.436 151.117 392.652C152.2 392.868 153.194 393.401 153.975 394.182C155.02 395.229 155.608 396.648 155.608 398.128C155.608 399.607 155.02 401.026 153.975 402.073Z" fill="white"/>
</g>
<g style="mix-blend-mode:overlay" opacity="0.5">
<path d="M202.099 450.236C201.047 451.273 199.63 451.854 198.154 451.854C196.677 451.854 195.26 451.273 194.208 450.236C193.427 449.456 192.895 448.461 192.679 447.378C192.463 446.295 192.573 445.172 192.995 444.151C193.417 443.131 194.133 442.258 195.051 441.644C195.97 441.031 197.049 440.703 198.154 440.703C199.258 440.703 200.338 441.031 201.256 441.644C202.174 442.258 202.89 443.131 203.312 444.151C203.735 445.172 203.845 446.295 203.629 447.378C203.413 448.461 202.88 449.456 202.099 450.236Z" fill="white"/>
</g>
<g style="mix-blend-mode:overlay" opacity="0.5">
<path d="M246.278 500C249.362 500 251.861 497.5 251.861 494.417C251.861 491.334 249.362 488.834 246.278 488.834C243.195 488.834 240.695 491.334 240.695 494.417C240.695 497.5 243.195 500 246.278 500Z" fill="white"/>
</g>
</g>
</svg>
