<svg width="410" height="392" viewBox="0 0 410 392" fill="none" xmlns="http://www.w3.org/2000/svg">
<g style="mix-blend-mode:overlay" opacity="0.5">
<g style="mix-blend-mode:overlay" opacity="0.5">
<path d="M211.257 7.47008C210.615 8.07743 209.799 8.48985 208.912 8.65551C208.025 8.82116 207.106 8.73265 206.272 8.40097C205.438 8.06928 204.725 7.50921 204.224 6.79161C203.722 6.074 203.455 5.23097 203.455 4.3685C203.455 3.50603 203.722 2.66282 204.224 1.94522C204.725 1.22761 205.438 0.667718 206.272 0.336034C207.106 0.00434935 208.025 -0.0843409 208.912 0.0813159C209.799 0.246973 210.615 0.659567 211.257 1.26692C212.116 2.09096 212.598 3.20609 212.598 4.3685C212.598 5.53091 212.116 6.64604 211.257 7.47008Z" fill="white"/>
</g>
<g style="mix-blend-mode:overlay" opacity="0.5">
<path d="M250.749 45.1256C250.109 45.7371 249.293 46.1536 248.405 46.3226C247.517 46.4916 246.596 46.4055 245.759 46.075C244.923 45.7445 244.207 45.1847 243.704 44.4662C243.201 43.7477 242.932 42.9029 242.932 42.0386C242.932 41.1744 243.201 40.3296 243.704 39.6111C244.207 38.8926 244.923 38.3326 245.759 38.0021C246.596 37.6717 247.517 37.5855 248.405 37.7545C249.293 37.9235 250.109 38.3402 250.749 38.9517C251.599 39.7745 252.075 40.8833 252.075 42.0386C252.075 43.194 251.599 44.3028 250.749 45.1256Z" fill="white"/>
</g>
<g style="mix-blend-mode:overlay" opacity="0.5">
<path d="M290.211 82.8106C289.569 83.4179 288.753 83.8304 287.866 83.996C286.979 84.1617 286.061 84.0732 285.226 83.7415C284.392 83.4098 283.679 82.8497 283.178 82.1321C282.677 81.4145 282.409 80.5715 282.409 79.709C282.409 78.8465 282.677 78.0033 283.178 77.2857C283.679 76.5681 284.392 76.0082 285.226 75.6765C286.061 75.3449 286.979 75.2562 287.866 75.4218C288.753 75.5875 289.569 76.0001 290.211 76.6074C291.07 77.4315 291.552 78.5466 291.552 79.709C291.552 80.8714 291.07 81.9866 290.211 82.8106Z" fill="white"/>
</g>
<g style="mix-blend-mode:overlay" opacity="0.5">
<path d="M326.468 121.747C328.996 121.747 331.046 119.792 331.046 117.379C331.046 114.966 328.996 113.011 326.468 113.011C323.94 113.011 321.89 114.966 321.89 117.379C321.89 119.792 323.94 121.747 326.468 121.747Z" fill="white"/>
</g>
<g style="mix-blend-mode:overlay" opacity="0.5">
<path d="M369.165 158.122C368.293 158.766 367.207 159.088 366.106 159.028C365.005 158.969 363.963 158.533 363.173 157.8C362.382 157.066 361.895 156.085 361.802 155.037C361.708 153.989 362.014 152.944 362.664 152.093C363.526 151.282 364.688 150.828 365.899 150.828C367.11 150.828 368.272 151.282 369.134 152.093C369.957 152.899 370.42 153.977 370.426 155.102C370.432 156.226 369.979 157.309 369.165 158.122Z" fill="white"/>
</g>
<g style="mix-blend-mode:overlay" opacity="0.5">
<path d="M405.422 197.088C407.95 197.088 410 195.132 410 192.72C410 190.307 407.95 188.352 405.422 188.352C402.894 188.352 400.844 190.307 400.844 192.72C400.844 195.132 402.894 197.088 405.422 197.088Z" fill="white"/>
</g>
<g style="mix-blend-mode:overlay" opacity="0.5">
<path d="M174.114 41.1067C176.642 41.1067 178.692 39.1509 178.692 36.7383C178.692 34.3258 176.642 32.37 174.114 32.37C171.586 32.37 169.536 34.3258 169.536 36.7383C169.536 39.1509 171.586 41.1067 174.114 41.1067Z" fill="white"/>
</g>
<g style="mix-blend-mode:overlay" opacity="0.5">
<path d="M216.841 77.481C216.201 78.0924 215.386 78.509 214.498 78.6779C213.609 78.8469 212.689 78.7608 211.852 78.4303C211.015 78.0999 210.3 77.54 209.796 76.8215C209.293 76.103 209.024 75.2582 209.024 74.394C209.024 73.5298 209.293 72.6849 209.796 71.9664C210.3 71.2479 211.015 70.6881 211.852 70.3576C212.689 70.0271 213.609 69.9408 214.498 70.1098C215.386 70.2788 216.201 70.6955 216.841 71.307C217.691 72.1298 218.168 73.2387 218.168 74.394C218.168 75.5493 217.691 76.6582 216.841 77.481Z" fill="white"/>
</g>
<g style="mix-blend-mode:overlay" opacity="0.5">
<path d="M256.304 115.166C255.662 115.773 254.846 116.186 253.959 116.351C253.072 116.517 252.153 116.428 251.319 116.097C250.485 115.765 249.772 115.205 249.271 114.487C248.769 113.77 248.502 112.927 248.502 112.064C248.502 111.202 248.769 110.359 249.271 109.641C249.772 108.923 250.485 108.363 251.319 108.032C252.153 107.7 253.072 107.612 253.959 107.777C254.846 107.943 255.662 108.355 256.304 108.963C257.163 109.787 257.645 110.902 257.645 112.064C257.645 113.227 257.163 114.342 256.304 115.166Z" fill="white"/>
</g>
<g style="mix-blend-mode:overlay" opacity="0.5">
<path d="M295.796 152.822C295.156 153.433 294.34 153.85 293.452 154.019C292.564 154.188 291.643 154.101 290.806 153.771C289.969 153.441 289.254 152.881 288.75 152.162C288.247 151.444 287.979 150.599 287.979 149.735C287.979 148.87 288.247 148.026 288.75 147.307C289.254 146.589 289.969 146.029 290.806 145.698C291.643 145.368 292.564 145.281 293.452 145.45C294.34 145.619 295.156 146.036 295.796 146.648C296.646 147.47 297.122 148.579 297.122 149.735C297.122 150.89 296.646 151.999 295.796 152.822Z" fill="white"/>
</g>
<g style="mix-blend-mode:overlay" opacity="0.5">
<path d="M335.197 190.506C334.555 191.114 333.739 191.526 332.852 191.692C331.965 191.857 331.046 191.769 330.212 191.437C329.378 191.106 328.665 190.546 328.164 189.828C327.662 189.11 327.395 188.267 327.395 187.405C327.395 186.542 327.662 185.699 328.164 184.981C328.665 184.264 329.378 183.704 330.212 183.372C331.046 183.04 331.965 182.952 332.852 183.118C333.739 183.283 334.555 183.696 335.197 184.303C336.056 185.127 336.538 186.242 336.538 187.405C336.538 188.567 336.056 189.682 335.197 190.506Z" fill="white"/>
</g>
<g style="mix-blend-mode:overlay" opacity="0.5">
<path d="M371.515 229.443C374.043 229.443 376.093 227.487 376.093 225.075C376.093 222.662 374.043 220.706 371.515 220.706C368.986 220.706 366.937 222.662 366.937 225.075C366.937 227.487 368.986 229.443 371.515 229.443Z" fill="white"/>
</g>
<g style="mix-blend-mode:overlay" opacity="0.5">
<path d="M140.207 73.4621C142.735 73.4621 144.785 71.5063 144.785 69.0937C144.785 66.6811 142.735 64.7253 140.207 64.7253C137.678 64.7253 135.629 66.6811 135.629 69.0937C135.629 71.5063 137.678 73.4621 140.207 73.4621Z" fill="white"/>
</g>
<g style="mix-blend-mode:overlay" opacity="0.5">
<path d="M182.935 109.836C182.294 110.448 181.479 110.864 180.591 111.033C179.702 111.202 178.782 111.116 177.945 110.786C177.108 110.455 176.393 109.895 175.889 109.177C175.386 108.458 175.117 107.613 175.117 106.749C175.117 105.885 175.386 105.04 175.889 104.322C176.393 103.603 177.108 103.043 177.945 102.713C178.782 102.382 179.702 102.296 180.591 102.465C181.479 102.634 182.294 103.051 182.935 103.662C183.784 104.485 184.261 105.594 184.261 106.749C184.261 107.904 183.784 109.013 182.935 109.836Z" fill="white"/>
</g>
<g style="mix-blend-mode:overlay" opacity="0.5">
<path d="M222.274 147.521C221.633 148.128 220.817 148.541 219.93 148.706C219.043 148.872 218.124 148.783 217.29 148.452C216.456 148.12 215.743 147.56 215.241 146.843C214.74 146.125 214.473 145.282 214.473 144.419C214.473 143.557 214.74 142.714 215.241 141.996C215.743 141.278 216.456 140.718 217.29 140.387C218.124 140.055 219.043 139.966 219.93 140.132C220.817 140.298 221.633 140.71 222.274 141.318C223.134 142.142 223.616 143.257 223.616 144.419C223.616 145.582 223.134 146.697 222.274 147.521Z" fill="white"/>
</g>
<g style="mix-blend-mode:overlay" opacity="0.5">
<path d="M261.949 185.177C261.309 185.788 260.494 186.205 259.605 186.374C258.717 186.543 257.797 186.457 256.96 186.126C256.123 185.796 255.408 185.236 254.904 184.517C254.401 183.799 254.132 182.954 254.132 182.09C254.132 181.226 254.401 180.381 254.904 179.662C255.408 178.944 256.123 178.384 256.96 178.054C257.797 177.723 258.717 177.637 259.605 177.806C260.494 177.975 261.309 178.391 261.949 179.003C262.799 179.826 263.275 180.935 263.275 182.09C263.275 183.245 262.799 184.354 261.949 185.177Z" fill="white"/>
</g>
<g style="mix-blend-mode:overlay" opacity="0.5">
<path d="M298.116 224.114C300.644 224.114 302.694 222.158 302.694 219.746C302.694 217.333 300.644 215.377 298.116 215.377C295.587 215.377 293.538 217.333 293.538 219.746C293.538 222.158 295.587 224.114 298.116 224.114Z" fill="white"/>
</g>
<g style="mix-blend-mode:overlay" opacity="0.5">
<path d="M340.843 260.517C340.203 261.129 339.387 261.545 338.499 261.714C337.611 261.883 336.69 261.797 335.853 261.467C335.016 261.136 334.301 260.576 333.798 259.858C333.295 259.139 333.026 258.294 333.026 257.43C333.026 256.566 333.295 255.721 333.798 255.003C334.301 254.284 335.016 253.724 335.853 253.394C336.69 253.063 337.611 252.977 338.499 253.146C339.387 253.315 340.203 253.732 340.843 254.343C341.7 255.162 342.181 256.273 342.181 257.43C342.181 258.588 341.7 259.698 340.843 260.517Z" fill="white"/>
</g>
<g style="mix-blend-mode:overlay" opacity="0.5">
<path d="M109.535 104.536C108.667 105.308 107.519 105.728 106.333 105.708C105.147 105.688 104.015 105.23 103.177 104.429C102.338 103.629 101.857 102.549 101.836 101.417C101.815 100.286 102.256 99.1903 103.064 98.3622C103.483 97.933 103.989 97.5888 104.55 97.35C105.112 97.1113 105.718 96.9828 106.333 96.9725C106.948 96.9621 107.558 97.0701 108.128 97.2898C108.698 97.5095 109.216 97.8364 109.651 98.2512C110.086 98.6661 110.428 99.1602 110.658 99.7042C110.889 100.248 111.002 100.831 110.991 101.417C110.98 102.004 110.845 102.582 110.595 103.118C110.345 103.654 109.984 104.136 109.535 104.536Z" fill="white"/>
</g>
<g style="mix-blend-mode:overlay" opacity="0.5">
<path d="M145.792 143.473C148.321 143.473 150.37 141.517 150.37 139.105C150.37 136.692 148.321 134.736 145.792 134.736C143.264 134.736 141.214 136.692 141.214 139.105C141.214 141.517 143.264 143.473 145.792 143.473Z" fill="white"/>
</g>
<g style="mix-blend-mode:overlay" opacity="0.5">
<path d="M188.489 179.876C187.626 180.687 186.464 181.142 185.254 181.142C184.043 181.142 182.881 180.687 182.019 179.876C181.378 179.266 180.941 178.487 180.764 177.64C180.587 176.792 180.677 175.914 181.024 175.115C181.37 174.317 181.957 173.634 182.71 173.154C183.463 172.673 184.348 172.417 185.254 172.417C186.159 172.417 187.045 172.673 187.798 173.154C188.55 173.634 189.137 174.317 189.483 175.115C189.83 175.914 189.92 176.792 189.743 177.64C189.566 178.487 189.129 179.266 188.489 179.876Z" fill="white"/>
</g>
<g style="mix-blend-mode:overlay" opacity="0.5">
<path d="M224.746 218.814C227.274 218.814 229.324 216.858 229.324 214.445C229.324 212.032 227.274 210.077 224.746 210.077C222.218 210.077 220.168 212.032 220.168 214.445C220.168 216.858 222.218 218.814 224.746 218.814Z" fill="white"/>
</g>
<g style="mix-blend-mode:overlay" opacity="0.5">
<path d="M267.443 255.217C266.801 255.825 265.985 256.237 265.098 256.403C264.211 256.568 263.293 256.48 262.459 256.148C261.624 255.816 260.912 255.257 260.41 254.539C259.909 253.821 259.641 252.978 259.641 252.116C259.641 251.253 259.909 250.41 260.41 249.692C260.912 248.975 261.624 248.415 262.459 248.083C263.293 247.752 264.211 247.663 265.098 247.829C265.985 247.994 266.801 248.407 267.443 249.014C268.302 249.838 268.785 250.953 268.785 252.116C268.785 253.278 268.302 254.393 267.443 255.217Z" fill="white"/>
</g>
<g style="mix-blend-mode:overlay" opacity="0.5">
<path d="M306.935 292.873C306.295 293.484 305.479 293.901 304.591 294.07C303.703 294.239 302.782 294.152 301.946 293.822C301.109 293.492 300.393 292.932 299.89 292.213C299.387 291.495 299.118 290.65 299.118 289.786C299.118 288.921 299.387 288.077 299.89 287.358C300.393 286.64 301.109 286.08 301.946 285.749C302.782 285.419 303.703 285.332 304.591 285.501C305.479 285.67 306.295 286.087 306.935 286.698C307.792 287.518 308.274 288.628 308.274 289.786C308.274 290.943 307.792 292.054 306.935 292.873Z" fill="white"/>
</g>
<g style="mix-blend-mode:overlay" opacity="0.5">
<path d="M75.7802 136.892C74.9124 137.663 73.7645 138.083 72.5784 138.063C71.3924 138.043 70.2609 137.585 69.4221 136.784C68.5833 135.984 68.1029 134.904 68.082 133.773C68.0611 132.641 68.5013 131.545 69.31 130.717C70.1778 129.946 71.3255 129.526 72.5116 129.546C73.6976 129.566 74.8293 130.024 75.6681 130.824C76.5069 131.625 76.9873 132.705 77.0082 133.836C77.0291 134.968 76.5889 136.063 75.7802 136.892Z" fill="white"/>
</g>
<g style="mix-blend-mode:overlay" opacity="0.5">
<path d="M115.12 174.547C114.48 175.159 113.664 175.575 112.776 175.744C111.888 175.913 110.967 175.827 110.13 175.496C109.293 175.166 108.578 174.606 108.075 173.887C107.571 173.169 107.303 172.324 107.303 171.46C107.303 170.596 107.571 169.751 108.075 169.032C108.578 168.314 109.293 167.754 110.13 167.423C110.967 167.093 111.888 167.007 112.776 167.176C113.664 167.345 114.48 167.761 115.12 168.373C115.97 169.196 116.446 170.305 116.446 171.46C116.446 172.615 115.97 173.724 115.12 174.547Z" fill="white"/>
</g>
<g style="mix-blend-mode:overlay" opacity="0.5">
<path d="M151.347 213.513C153.875 213.513 155.925 211.558 155.925 209.145C155.925 206.733 153.875 204.777 151.347 204.777C148.818 204.777 146.769 206.733 146.769 209.145C146.769 211.558 148.818 213.513 151.347 213.513Z" fill="white"/>
</g>
<g style="mix-blend-mode:overlay" opacity="0.5">
<path d="M190.839 251.169C193.368 251.169 195.417 249.213 195.417 246.801C195.417 244.388 193.368 242.432 190.839 242.432C188.311 242.432 186.261 244.388 186.261 246.801C186.261 249.213 188.311 251.169 190.839 251.169Z" fill="white"/>
</g>
<g style="mix-blend-mode:overlay" opacity="0.5">
<path d="M230.301 288.854C232.829 288.854 234.879 286.898 234.879 284.486C234.879 282.073 232.829 280.117 230.301 280.117C227.773 280.117 225.723 282.073 225.723 284.486C225.723 286.898 227.773 288.854 230.301 288.854Z" fill="white"/>
</g>
<g style="mix-blend-mode:overlay" opacity="0.5">
<path d="M273.028 325.228C272.388 325.84 271.572 326.256 270.684 326.425C269.796 326.594 268.875 326.508 268.038 326.177C267.201 325.847 266.486 325.287 265.983 324.569C265.479 323.85 265.211 323.005 265.211 322.141C265.211 321.277 265.479 320.432 265.983 319.714C266.486 318.995 267.201 318.435 268.038 318.105C268.875 317.774 269.796 317.688 270.684 317.857C271.572 318.026 272.388 318.443 273.028 319.054C273.885 319.873 274.367 320.983 274.367 322.141C274.367 323.299 273.885 324.409 273.028 325.228Z" fill="white"/>
</g>
<g style="mix-blend-mode:overlay" opacity="0.5">
<path d="M38.4853 170.528C41.0136 170.528 43.0632 168.572 43.0632 166.16C43.0632 163.747 41.0136 161.791 38.4853 161.791C35.9571 161.791 33.9075 163.747 33.9075 166.16C33.9075 168.572 35.9571 170.528 38.4853 170.528Z" fill="white"/>
</g>
<g style="mix-blend-mode:overlay" opacity="0.5">
<path d="M77.9771 208.184C80.5055 208.184 82.5551 206.228 82.5551 203.815C82.5551 201.403 80.5055 199.447 77.9771 199.447C75.4488 199.447 73.3992 201.403 73.3992 203.815C73.3992 206.228 75.4488 208.184 77.9771 208.184Z" fill="white"/>
</g>
<g style="mix-blend-mode:overlay" opacity="0.5">
<path d="M120.674 244.587C119.812 245.398 118.65 245.853 117.439 245.853C116.228 245.853 115.066 245.398 114.204 244.587C113.563 243.976 113.127 243.198 112.949 242.35C112.772 241.503 112.863 240.624 113.209 239.826C113.555 239.027 114.142 238.345 114.895 237.865C115.648 237.384 116.533 237.128 117.439 237.128C118.345 237.128 119.23 237.384 119.983 237.865C120.736 238.345 121.323 239.027 121.669 239.826C122.015 240.624 122.106 241.503 121.929 242.35C121.752 243.198 121.315 243.976 120.674 244.587Z" fill="white"/>
</g>
<g style="mix-blend-mode:overlay" opacity="0.5">
<path d="M160.167 282.243C159.527 282.855 158.711 283.271 157.823 283.44C156.935 283.609 156.014 283.523 155.177 283.193C154.34 282.862 153.625 282.302 153.122 281.584C152.618 280.865 152.35 280.02 152.35 279.156C152.35 278.292 152.618 277.447 153.122 276.728C153.625 276.01 154.34 275.45 155.177 275.12C156.014 274.789 156.935 274.703 157.823 274.872C158.711 275.041 159.527 275.457 160.167 276.069C161.024 276.888 161.505 277.998 161.505 279.156C161.505 280.314 161.024 281.424 160.167 282.243Z" fill="white"/>
</g>
<g style="mix-blend-mode:overlay" opacity="0.5">
<path d="M196.394 321.209C198.922 321.209 200.972 319.253 200.972 316.841C200.972 314.428 198.922 312.472 196.394 312.472C193.865 312.472 191.816 314.428 191.816 316.841C191.816 319.253 193.865 321.209 196.394 321.209Z" fill="white"/>
</g>
<g style="mix-blend-mode:overlay" opacity="0.5">
<path d="M235.856 358.865C238.384 358.865 240.434 356.909 240.434 354.497C240.434 352.084 238.384 350.128 235.856 350.128C233.327 350.128 231.278 352.084 231.278 354.497C231.278 356.909 233.327 358.865 235.856 358.865Z" fill="white"/>
</g>
<g style="mix-blend-mode:overlay" opacity="0.5">
<path d="M4.57787 202.883C7.10615 202.883 9.15574 200.928 9.15574 198.515C9.15574 196.102 7.10615 194.147 4.57787 194.147C2.04958 194.147 0 196.102 0 198.515C0 200.928 2.04958 202.883 4.57787 202.883Z" fill="white"/>
</g>
<g style="mix-blend-mode:overlay" opacity="0.5">
<path d="M47.3055 239.258C46.4475 240.08 45.2822 240.544 44.066 240.547C42.8498 240.549 41.6822 240.091 40.8202 239.272C39.9581 238.453 39.4724 237.341 39.4695 236.181C39.4666 235.02 39.9469 233.906 40.8049 233.084C41.2297 232.676 41.7346 232.353 42.2904 232.132C42.8463 231.91 43.4422 231.796 44.0444 231.794C44.6466 231.793 45.2433 231.905 45.8002 232.124C46.3571 232.342 46.8634 232.664 47.2902 233.069C47.717 233.474 48.0561 233.956 48.2879 234.486C48.5197 235.017 48.6397 235.586 48.6411 236.16C48.6425 236.735 48.5252 237.304 48.2961 237.836C48.0669 238.367 47.7303 238.85 47.3055 239.258Z" fill="white"/>
</g>
<g style="mix-blend-mode:overlay" opacity="0.5">
<path d="M86.7671 276.943C85.9048 277.754 84.7427 278.208 83.532 278.208C82.3213 278.208 81.1592 277.754 80.2969 276.943C79.6561 276.332 79.2196 275.554 79.0425 274.706C78.8654 273.858 78.9557 272.98 79.302 272.181C79.6483 271.383 80.235 270.7 80.988 270.22C81.741 269.74 82.6263 269.483 83.532 269.483C84.4377 269.483 85.323 269.74 86.076 270.22C86.8289 270.7 87.4158 271.383 87.7622 272.181C88.1085 272.98 88.1987 273.858 88.0216 274.706C87.8445 275.554 87.4079 276.332 86.7671 276.943Z" fill="white"/>
</g>
<g style="mix-blend-mode:overlay" opacity="0.5">
<path d="M126.259 314.598C125.62 315.209 124.804 315.626 123.916 315.795C123.028 315.964 122.107 315.878 121.27 315.547C120.433 315.217 119.718 314.657 119.215 313.938C118.712 313.22 118.443 312.375 118.443 311.511C118.443 310.647 118.712 309.802 119.215 309.083C119.718 308.365 120.433 307.805 121.27 307.474C122.107 307.144 123.028 307.058 123.916 307.227C124.804 307.396 125.62 307.812 126.259 308.424C127.117 309.243 127.598 310.353 127.598 311.511C127.598 312.669 127.117 313.779 126.259 314.598Z" fill="white"/>
</g>
<g style="mix-blend-mode:overlay" opacity="0.5">
<path d="M165.721 352.283C164.859 353.094 163.697 353.549 162.486 353.549C161.275 353.549 160.113 353.094 159.251 352.283C158.61 351.672 158.173 350.894 157.996 350.046C157.819 349.199 157.91 348.32 158.256 347.522C158.602 346.723 159.189 346.04 159.942 345.56C160.695 345.08 161.58 344.823 162.486 344.823C163.392 344.823 164.277 345.08 165.03 345.56C165.783 346.04 166.37 346.723 166.716 347.522C167.062 348.32 167.153 349.199 166.976 350.046C166.798 350.894 166.362 351.672 165.721 352.283Z" fill="white"/>
</g>
<g style="mix-blend-mode:overlay" opacity="0.5">
<path d="M201.948 391.22C204.476 391.22 206.526 389.264 206.526 386.852C206.526 384.439 204.476 382.483 201.948 382.483C199.42 382.483 197.37 384.439 197.37 386.852C197.37 389.264 199.42 391.22 201.948 391.22Z" fill="white"/>
</g>
</g>
</svg>
