<svg width="107" height="100" viewBox="0 0 107 100" fill="none" xmlns="http://www.w3.org/2000/svg">
<rect x="49.4988" y="1.70467" width="69.0018" height="69.0018" transform="rotate(45 49.4988 1.70467)" fill="#3C006D" stroke="#FF9B00"/>
<rect x="57.5" y="1.70467" width="69.0018" height="69.0018" transform="rotate(45 57.5 1.70467)" fill="#3C006D" stroke="#FF9B00"/>
<g clip-path="url(#clip0)">
<rect width="40" height="40" transform="translate(33 29.9976)" fill="#3C006D"/>
<path d="M72.2188 68.4351H68.7812V67.3975C68.7812 66.9662 68.4312 66.6162 68 66.6162C67.5685 66.6162 67.2188 66.9662 67.2188 67.3975V68.4351H53.7812V67.3975C53.7812 66.9662 53.4315 66.6162 53 66.6162C52.5685 66.6162 52.2188 66.9662 52.2188 67.3975V68.4351H38.7812V67.3975C38.7812 66.9662 38.4315 66.6162 38 66.6162C37.5685 66.6162 37.2188 66.9662 37.2188 67.3975V68.4351H33.7812C33.3497 68.4351 33 68.7851 33 69.2163C33 69.6478 33.3497 69.9976 33.7812 69.9976H72.2188C72.65 69.9976 73 69.6478 73 69.2163C73 68.7851 72.6503 68.4351 72.2188 68.4351Z" fill="#FF9B00"/>
<path d="M36.1252 64.2163C36.1252 64.6478 36.475 64.9976 36.9065 64.9976H44.7288V66.0352C44.7288 66.4667 45.0785 66.8164 45.51 66.8164C45.9412 66.8164 46.2913 66.4667 46.2913 66.0352V64.9976H59.7285V66.0352C59.7285 66.4667 60.0785 66.8164 60.5097 66.8164C60.9412 66.8164 61.291 66.4667 61.291 66.0352V64.9976H72.2187C72.6499 64.9976 72.9999 64.6478 72.9999 64.2163C72.9999 63.7851 72.6499 63.4351 72.2187 63.4351H36.9065C36.475 63.4351 36.1252 63.7848 36.1252 64.2163Z" fill="#FF9B00"/>
<path d="M33.7812 64.9976C33.9866 64.9976 34.1884 64.9139 34.3336 64.7687C34.4789 64.6234 34.5625 64.4217 34.5625 64.2163C34.5625 64.0109 34.4789 63.8092 34.3336 63.6639C34.1884 63.5187 33.9866 63.4351 33.7812 63.4351C33.5759 63.4351 33.3741 63.5187 33.2289 63.6639C33.0836 63.8095 33 64.0109 33 64.2163C33 64.4217 33.0836 64.6234 33.2289 64.7687C33.3741 64.9139 33.5759 64.9976 33.7812 64.9976Z" fill="#FF9B00"/>
<path d="M35.1826 48.3327C36.9853 49.2619 40.2372 50.4781 44.9034 50.4781C47.028 50.4781 49.4459 50.226 52.1531 49.5796C52.31 49.5424 52.4644 49.5039 52.6188 49.4652C52.7546 49.4313 52.8788 49.3614 52.9786 49.2629L55.8723 46.3997L56.4485 47.5472C56.6307 47.9103 57.061 48.073 57.4379 47.9216C60.038 46.877 62.1934 45.6151 63.8444 44.171C64.012 44.0245 64.109 43.8136 64.1111 43.5912L64.1288 41.927L64.4954 42.2936C64.6568 42.4547 64.8808 42.5377 65.1072 42.52C65.3346 42.5026 65.543 42.3869 65.6779 42.2032C67.3426 39.9339 67.6005 37.5444 66.4528 35.5913C66.8235 35.3063 67.1913 35.0166 67.555 34.7218L71.6725 31.386C72.0076 31.1144 72.0594 30.6224 71.7875 30.2873C71.5162 29.9519 71.024 29.9004 70.6889 30.172L66.5715 33.5079C66.2129 33.7984 65.8509 34.0834 65.4866 34.3639C63.9622 32.816 62.3124 31.9908 60.4499 31.8443C58.1028 31.6594 55.4313 32.5356 52.2804 34.5216C51.7469 34.8583 51.4528 35.0368 50.9187 35.3612L50.5259 35.5995C50.3022 35.7356 50.1616 35.9746 50.1512 36.2358C50.1405 36.4974 50.2617 36.7467 50.4738 36.9002L50.825 37.1544L48.871 36.8288C48.6882 36.7986 48.5005 36.834 48.3412 36.9292C43.7626 39.669 38.08 42.9295 35.1002 44.6294C34.4291 45.0121 34.0223 45.7295 34.0388 46.5016C34.055 47.2759 34.4935 47.9775 35.1826 48.3327ZM64.9189 40.5074L63.9195 39.5079C63.697 39.2854 63.3632 39.2183 63.072 39.337C62.7809 39.4557 62.5892 39.7377 62.5859 40.052L62.5526 43.2195C61.2135 44.3343 59.5237 45.3331 57.5184 46.1958L56.786 44.7371C56.6737 44.5134 56.4613 44.3572 56.2144 44.3166C55.9672 44.2757 55.7161 44.3562 55.5384 44.532L52.032 48.001C51.952 48.0208 51.8718 48.0406 51.7906 48.0599C49.2045 48.6769 46.9072 48.9168 44.8964 48.9168C40.5595 48.9168 37.5593 47.8001 35.8986 46.9438C35.8979 46.9435 35.8973 46.9432 35.8967 46.9429C35.9166 46.9444 35.9364 46.9457 35.9565 46.9457C35.9718 46.9457 35.9871 46.9454 36.0026 46.9444C41.7445 46.61 47.375 45.3868 52.7382 43.3092C57.1736 41.591 61.3502 39.3172 65.1905 36.534C65.8155 37.7147 65.7246 39.0794 64.9189 40.5074ZM48.8969 38.4175L53.8499 39.2424C54.2085 39.3019 54.5594 39.1075 54.6992 38.7731C54.839 38.4383 54.7303 38.0516 54.4365 37.8389L52.3423 36.3237C52.5795 36.1784 52.8077 36.0365 53.1138 35.8437C55.9694 34.0434 58.329 33.2439 60.3273 33.402C61.7585 33.5149 63.0049 34.1243 64.2201 35.309C56.2391 41.0884 46.93 44.5204 37.0683 45.3047C40.1551 43.5387 44.9095 40.7991 48.8969 38.4175Z" fill="#FF9B00"/>
<path d="M42.6667 59.2426C43.0979 59.2426 43.4479 58.8925 43.4479 58.4613C43.4479 58.0298 43.0979 57.6801 42.6667 57.6801H42.6572C42.2257 57.6801 41.876 58.0298 41.876 58.4613C41.876 58.8925 42.2257 59.2426 42.6572 59.2426H42.6667Z" fill="#FF9B00"/>
<path d="M39.2268 58.2809C39.3538 58.3582 39.4938 58.3948 39.6324 58.3948C39.8961 58.3948 40.1533 58.2614 40.3004 58.0197C40.5247 57.6511 40.4078 57.1704 40.0392 56.9461C38.5179 56.0202 37.6094 54.404 37.6094 52.6227C37.6094 52.1915 37.2596 51.8414 36.8281 51.8414C36.3966 51.8414 36.0469 52.1915 36.0469 52.6227C36.0469 54.9536 37.2358 57.0688 39.2268 58.2809Z" fill="#FF9B00"/>
<path d="M68.7812 48.9368C68.7812 48.5056 68.4312 48.1555 68 48.1555C67.5685 48.1555 67.2188 48.5056 67.2188 48.9368C67.2188 50.4016 66.027 51.593 64.5625 51.593C64.131 51.593 63.7812 51.9431 63.7812 52.3743C63.7812 52.8058 64.131 53.1555 64.5625 53.1555C66.8889 53.1555 68.7812 51.2631 68.7812 48.9368Z" fill="#FF9B00"/>
</g>
<defs>
<clipPath id="clip0">
<rect width="40" height="40" fill="white" transform="translate(33 29.9976)"/>
</clipPath>
</defs>
</svg>
