<svg width="107" height="100" viewBox="0 0 107 100" fill="none" xmlns="http://www.w3.org/2000/svg">
<rect x="49.4988" y="1.7021" width="69.0018" height="69.0018" transform="rotate(45 49.4988 1.7021)" fill="#3C006D" stroke="#FF9B00"/>
<rect x="57.5" y="1.7021" width="69.0018" height="69.0018" transform="rotate(45 57.5 1.7021)" fill="#3C006D" stroke="#FF9B00"/>
<g clip-path="url(#clip0)">
<rect width="40" height="40" transform="translate(33 29.995)" fill="#3C006D"/>
<path d="M37.7656 39.8778C38.1971 39.8778 38.5469 39.528 38.5469 39.0966C38.5469 38.6651 38.1971 38.3153 37.7656 38.3153C37.3342 38.3153 36.9844 38.6651 36.9844 39.0966C36.9844 39.528 37.3342 39.8778 37.7656 39.8778Z" fill="#FF9B00"/>
<path d="M66.8376 33.6572C65.3616 31.2955 63.3606 29.995 61.2031 29.995C59.4941 29.995 57.8774 30.8116 56.528 32.3564C55.3837 33.6663 54.507 35.4163 53.972 37.4439C53.1109 37.5758 52.403 38.1782 52.1188 38.9794H50.2656V33.6278C50.2656 33.4223 50.182 33.2403 50.0367 33.095C49.8914 32.9497 49.6898 32.8856 49.4844 32.8856H37.7656C37.5602 32.8856 37.3586 32.9496 37.2133 33.095C37.068 33.2403 36.9844 33.4223 36.9844 33.6278V35.5809C36.9844 36.0114 37.3352 36.3622 37.7656 36.3622C38.1961 36.3622 38.5469 36.0114 38.5469 35.5809V34.4481H48.7031V45.7762H38.5469V42.6122C38.5469 42.1817 38.1961 41.8309 37.7656 41.8309C37.3352 41.8309 36.9844 42.1817 36.9844 42.6122V46.5184C36.9844 46.7239 37.068 46.945 37.2133 47.0902C37.3586 47.2356 37.5602 47.3387 37.7656 47.3387H49.4844C49.6898 47.3387 49.8914 47.2356 50.0367 47.0902C50.182 46.945 50.2656 46.7239 50.2656 46.5184V40.5419H52.1187C52.3359 41.1541 52.8005 41.6498 53.3918 41.9086C53.3916 41.9478 53.3925 42.3371 53.3962 42.4917C53.4343 44.0688 53.6659 45.5912 54.0865 47.0241C54.1698 47.307 54.3705 47.8958 54.3705 47.8958C55.5522 51.3691 56.578 54.389 55.7641 59.3978C55.462 59.4447 55.1791 59.5497 54.9266 59.7005L52.318 58.4877C52.2137 58.4385 52.0998 58.4325 51.9844 58.4325H50.2656V55.5809C50.2656 55.1495 49.9159 54.8387 49.4844 54.8387H37.7656C37.3341 54.8387 36.9844 55.1495 36.9844 55.5809V68.4716C36.9844 68.903 37.3341 69.2919 37.7656 69.2919H49.4844C49.9159 69.2919 50.2656 68.903 50.2656 68.4716V59.995H51.8091L53.9102 60.968C53.8271 61.208 53.7812 61.4555 53.7812 61.7235C53.7812 62.5891 54.25 63.3363 54.9531 63.7422V63.745C54.9531 67.1912 57.7569 69.995 61.2031 69.995C64.6494 69.995 67.4531 67.1912 67.4531 63.745C67.4531 63.053 67.1184 61.7342 67.1184 61.7342C65.5009 55.3291 66.618 52.0525 68.0325 47.9041C68.0325 47.9041 68.2389 47.2998 68.3202 47.0233C68.5464 46.2506 68.7198 45.4422 68.8353 44.6211C68.9549 43.7767 69.0156 42.9037 69.0156 42.0262C69.0156 38.8767 68.2421 35.9045 66.8376 33.6572ZM48.7031 67.7294H38.5469V56.4012H48.7031V67.7294ZM67.1358 38.7485C67.2459 39.3016 67.3294 39.8703 67.3822 40.452L64.022 41.9182L61.6449 40.2882C61.3787 40.1055 61.0276 40.1055 60.7612 40.2882L58.3841 41.9182L56.3079 41.0126C56.538 40.6501 56.6719 40.2209 56.6719 39.7606C56.6719 39.6182 56.6584 39.479 56.634 39.3436L58.1562 40.0079C58.4032 40.1157 58.6883 40.0886 58.9105 39.9362L61.2031 38.3641L63.4957 39.9362C63.6278 40.0268 63.7822 40.0731 63.9376 40.0731C64.0434 40.0731 64.1498 40.0516 64.25 40.0079L67.1358 38.7485ZM61.2031 31.5575C62.7464 31.5575 64.2257 32.5263 65.3878 34.2911L64.0221 34.8869L61.6449 33.2569C61.3787 33.0743 61.0276 33.0743 60.7612 33.2569L58.3841 34.8869L57.0155 34.2898C58.1453 32.5745 59.631 31.5575 61.2031 31.5575ZM56.2567 35.6636L58.1563 36.4923C58.4033 36.6 58.6884 36.573 58.9105 36.4205L61.2031 34.8485L63.4957 36.4205C63.6278 36.5112 63.7822 36.5575 63.9376 36.5575C64.0434 36.5575 64.1498 36.536 64.2499 36.4923L66.1487 35.6639C66.3764 36.154 66.5745 36.6734 66.7446 37.2144L64.022 38.4026L61.6449 36.7726C61.3787 36.5899 61.0276 36.5899 60.7612 36.7726L58.3841 38.4026L55.6626 37.2149C55.8345 36.6655 56.0338 36.1471 56.2567 35.6636ZM54.3281 40.5419C53.8973 40.5419 53.5469 40.1914 53.5469 39.7606C53.5469 39.3298 53.8973 38.9794 54.3281 38.9794C54.7589 38.9794 55.1094 39.3298 55.1094 39.7606C55.1094 40.1914 54.7589 40.5419 54.3281 40.5419ZM55.3438 61.7137C55.3438 61.283 55.6942 60.9325 56.125 60.9325C56.5558 60.9325 56.9062 61.283 56.9062 61.7137C56.9062 62.1445 56.5558 62.495 56.125 62.495C55.6942 62.495 55.3438 62.1445 55.3438 61.7137ZM57.573 57.3314L58.1562 57.586C58.4033 57.6938 58.6884 57.6666 58.9106 57.5143L61.2031 55.9423L63.4957 57.5143C63.6278 57.6049 63.7822 57.6512 63.9376 57.6512C64.0435 57.6512 64.1499 57.6298 64.2501 57.586L64.807 57.3429C64.8445 57.8954 64.9052 58.4708 64.992 59.0731L64.022 59.4963L61.6449 57.8663C61.3787 57.6837 61.0276 57.6837 60.7612 57.8663L58.3841 59.4963L57.3941 59.0642C57.4779 58.4621 57.5373 57.8849 57.573 57.3314ZM57.4913 53.7802L58.1562 54.0704C58.2563 54.1141 58.3627 54.1356 58.4687 54.1356C58.6241 54.1356 58.7784 54.0893 58.9105 53.9987L61.2031 52.4266L63.4957 53.9987C63.7178 54.151 64.003 54.178 64.2498 54.0705L64.8874 53.7923C64.8169 54.3888 64.7734 55.0079 64.7626 55.6573L64.022 55.9806L61.6449 54.3507C61.3787 54.168 61.0276 54.168 60.7612 54.3507L58.3842 55.9806L57.6134 55.6442C57.6023 54.9944 57.5598 54.375 57.4913 53.7802ZM58.4688 61.7137C58.4688 61.5239 58.4455 61.3394 58.4027 61.1626C58.5798 61.1777 58.7597 61.1334 58.9105 61.0299L61.2031 59.4579L63.4957 61.0299C63.6278 61.1205 63.7822 61.1669 63.9376 61.1669C64.0434 61.1669 64.1498 61.1454 64.2499 61.1017L65.2694 60.6569C65.3655 61.1273 65.6448 62.2802 65.6501 62.3012L64.022 63.0119L61.6449 61.382C61.3787 61.1994 61.0276 61.1994 60.7612 61.382L58.3841 63.0121L58.1415 62.9063C58.3491 62.5566 58.4688 62.149 58.4688 61.7137ZM65.1965 51.9528L64.0221 52.4651L61.6449 50.8351C61.3787 50.6524 61.0276 50.6524 60.7612 50.8351L58.3842 52.465L57.1914 51.9443C57.0435 51.2427 56.8645 50.5679 56.6675 49.9049L58.1562 50.5548C58.4033 50.6627 58.6884 50.6355 58.9106 50.483L61.2031 48.911L63.4957 50.483C63.6279 50.5737 63.7822 50.62 63.9376 50.62C64.0434 50.62 64.1498 50.5985 64.2499 50.5548L65.7315 49.9084C65.5293 50.5796 65.3472 51.2558 65.1965 51.9528ZM61.2031 68.4325C58.7117 68.4325 56.6688 66.4785 56.5245 64.0227C56.5857 64.0122 56.6462 63.9998 56.7056 63.9846L58.1564 64.6173C58.2565 64.661 58.3628 64.6825 58.4687 64.6825C58.6241 64.6825 58.7784 64.6362 58.9105 64.5455L61.2031 62.9735L63.4957 64.5455C63.718 64.698 64.0031 64.7251 64.2501 64.6173L65.8866 63.9028C65.8029 66.4146 63.7348 68.4325 61.2031 68.4325ZM66.3756 47.9226L64.022 48.9494L61.6449 47.3194C61.3787 47.1368 61.0276 47.1368 60.7612 47.3194L58.3841 48.9494L56.0291 47.9214C55.9695 47.7452 55.4466 46.0845 55.3863 45.8306L58.1562 47.0392C58.4032 47.1469 58.6883 47.1198 58.9105 46.9674L61.2031 45.3954L63.4957 46.9674C63.6278 47.058 63.7822 47.1044 63.9376 47.1044C64.0434 47.1044 64.1498 47.0829 64.2499 47.0392L67.0192 45.8309C66.959 46.0853 66.4345 47.7491 66.3756 47.9226ZM67.341 43.9858L64.0221 45.4339L61.645 43.8039C61.3787 43.6212 61.0277 43.6212 60.7613 43.8039L58.3842 45.4339L55.0643 43.9853C54.9945 43.3772 54.9576 42.7568 54.9541 42.1267L58.1565 43.5236C58.2566 43.5673 58.3629 43.5887 58.4688 43.5887C58.6241 43.5887 58.7785 43.5424 58.9106 43.4518L61.2031 41.8798L63.4957 43.4518C63.7179 43.6041 64.0029 43.6313 64.25 43.5235L67.4523 42.1262C67.4487 42.7531 67.4113 43.3762 67.341 43.9858Z" fill="#FF9B00"/>
<path d="M44.0938 44.1747C44.5252 44.1747 44.875 43.8248 44.875 43.3934V36.7528C44.875 36.3214 44.5252 36.0106 44.0938 36.0106H42.5312C42.0998 36.0106 41.75 36.3605 41.75 36.7919C41.75 37.2233 42.0998 37.5731 42.5312 37.5731H43.3125V43.3934C43.3125 43.8248 43.6623 44.1747 44.0938 44.1747Z" fill="#FF9B00"/>
<path d="M41.7192 60.8166C42.1425 60.8978 42.5526 60.6212 42.6343 60.1975C42.7138 59.7859 43.0669 59.4871 43.4741 59.4871C43.882 59.4871 44.2242 59.7835 44.3098 60.1789C44.349 60.3282 44.3173 60.4469 44.3101 60.4851C44.2501 60.8065 44.0447 61.1757 43.7559 61.5958C42.7427 63.0691 42.1381 63.8747 41.8134 64.3075C41.4036 64.8535 41.2166 65.1028 41.3486 65.5297C41.4264 65.7813 41.6167 65.975 41.8707 66.0612C41.9765 66.0971 42.0717 66.1128 43.3208 66.1128C43.8106 66.1128 44.4781 66.1245 45.3929 66.1128C45.8243 66.1073 46.1696 65.741 46.1641 65.3096C46.1586 64.8815 45.8099 64.5263 45.3831 64.5263C45.3797 64.5263 45.3763 64.5263 45.3729 64.5263C44.7628 64.5263 44.1167 64.5514 43.5687 64.5529C43.9206 64.0728 44.4019 63.408 45.0434 62.4751C45.4552 61.8763 45.7238 61.313 45.8417 60.795C45.8475 60.7699 45.8688 60.648 45.8749 60.5993C45.882 60.5424 45.8929 60.4047 45.8929 60.3722C45.8929 59.0225 44.8078 57.9246 43.4742 57.9246C42.3196 57.9246 41.3213 58.756 41.1002 59.9014C41.0185 60.325 41.2956 60.7348 41.7192 60.8166Z" fill="#FF9B00"/>
</g>
<defs>
<clipPath id="clip0">
<rect width="40" height="40" fill="white" transform="translate(33 29.995)"/>
</clipPath>
</defs>
</svg>
