<svg width="107" height="99" viewBox="0 0 107 99" fill="none" xmlns="http://www.w3.org/2000/svg">
<rect x="49.4988" y="0.707107" width="69.0018" height="69.0018" transform="rotate(45 49.4988 0.707107)" fill="#3C006D" stroke="#FF9B00"/>
<rect x="57.5" y="0.707107" width="69.0018" height="69.0018" transform="rotate(45 57.5 0.707107)" fill="#3C006D" stroke="#FF9B00"/>
<g clip-path="url(#clip0)">
<rect width="40" height="40.002" transform="translate(33.0012 29.0015)" fill="#3C006D"/>
<path d="M69.3346 57.5036C69.3053 57.4808 66.3348 55.1914 66.3348 49.8363C66.3348 44.5315 69.2157 42.2601 69.3346 42.169C69.5446 42.0119 69.6682 41.7645 69.6682 41.5024C69.6682 36.9709 66.1509 34.2811 66.0011 34.1687C65.8115 34.0271 65.5698 33.9717 65.3378 34.0181C62.5977 34.5658 60.4631 34.3242 58.9925 33.2979C57.4348 32.2114 57.1696 30.6129 57.1598 30.5502C57.1207 30.2801 56.9514 30.0448 56.7073 29.9228C56.6317 29.8853 54.8437 29.0015 53.0013 29.0015C51.1588 29.0015 49.3708 29.8854 49.2951 29.9228C49.0542 30.0433 48.8849 30.2784 48.8435 30.5454C48.8329 30.613 48.5676 32.2114 47.0099 33.2979C45.5401 34.3241 43.4039 34.5658 40.6645 34.0181C40.4309 33.971 40.1893 34.0255 40.0013 34.1687C39.8516 34.281 36.3342 36.9708 36.3342 41.5023C36.3342 41.7644 36.4579 42.0118 36.6679 42.1689C36.6972 42.1917 39.6677 44.4811 39.6677 49.8362C39.6677 55.141 36.7867 57.4125 36.6679 57.5036C36.4579 57.6606 36.3342 57.908 36.3342 58.1701C36.3342 58.3573 36.3757 62.7847 40.0013 65.5038C40.1876 65.643 40.4334 65.6796 40.6661 65.6398C40.8964 65.5958 41.1072 65.4404 41.2301 65.2401C41.2374 65.2279 42.0301 64.0039 45.501 64.0039C49.1665 64.0039 52.2769 68.5875 52.3086 68.6339C52.4632 68.865 52.7228 69.0033 53.0012 69.0033C53.2796 69.0033 53.5391 68.865 53.6938 68.6339C53.7255 68.5875 56.836 64.0039 60.5013 64.0039C63.947 64.0039 64.7527 65.21 64.756 65.21C64.8667 65.4314 65.0692 65.5917 65.3102 65.6487C65.5478 65.7049 65.8025 65.6528 66.0011 65.5039C69.6267 62.7848 69.6682 58.3574 69.6682 58.1702C69.6682 57.9081 69.5446 57.6608 69.3346 57.5036ZM65.5739 63.6898C64.8268 63.0786 63.3368 62.3371 60.5014 62.3371C57.0744 62.3371 54.2537 65.2467 53.0013 66.7857C51.7488 65.2467 48.9281 62.3371 45.5011 62.3371C42.6658 62.3371 41.1757 63.0786 40.4286 63.6898C38.5161 61.8968 38.11 59.4438 38.0238 58.5299C38.9499 57.6599 41.3344 54.9245 41.3344 49.8362C41.3344 44.7244 38.9271 41.9874 38.0107 41.1304C38.1654 38.3112 40.0323 36.3652 40.7362 35.728C43.775 36.2684 46.2156 35.9021 47.9979 34.6415C49.5694 33.5289 50.1716 32.02 50.3857 31.2615C50.9155 31.0426 51.9742 30.6682 53.0013 30.6682C54.0283 30.6682 55.0871 31.0426 55.6169 31.2615C55.8309 32.02 56.4331 33.529 58.0046 34.6415C59.7869 35.9022 62.2275 36.2676 65.2663 35.728C65.9702 36.3653 67.8371 38.3113 67.9917 41.1304C67.0754 41.9875 64.6681 44.7244 64.6681 49.8363C64.6681 54.9245 67.0526 57.6599 67.9787 58.53C67.8925 59.4438 67.4864 61.8968 65.5739 63.6898Z" fill="#FF9B00"/>
</g>
<defs>
<clipPath id="clip0">
<rect width="40" height="40.002" fill="white" transform="translate(33.0012 29.0015)"/>
</clipPath>
</defs>
</svg>
