<svg width="153" height="153" viewBox="0 0 153 153" fill="none" xmlns="http://www.w3.org/2000/svg">
<g style="mix-blend-mode:overlay" opacity="0.5">
<g style="mix-blend-mode:overlay" opacity="0.5">
<path d="M2.89695 74.0425C3.14003 74.2793 3.30696 74.5833 3.37646 74.9155C3.44596 75.2477 3.41484 75.5932 3.28707 75.9076C3.1593 76.222 2.94072 76.4912 2.65922 76.6807C2.37772 76.8703 2.04614 76.9715 1.70683 76.9715C1.36752 76.9715 1.03588 76.8703 0.754383 76.6807C0.472884 76.4912 0.254306 76.222 0.126538 75.9076C-0.00122954 75.5932 -0.0323564 75.2477 0.0371437 74.9155C0.106644 74.5833 0.273622 74.2793 0.516707 74.0425C0.835217 73.7322 1.26224 73.5586 1.70683 73.5586C2.15142 73.5586 2.57844 73.7322 2.89695 74.0425Z" fill="white"/>
</g>
<g style="mix-blend-mode:overlay" opacity="0.5">
<path d="M17.5986 59.3277C17.8416 59.5645 18.0086 59.8684 18.0781 60.2006C18.1476 60.5329 18.1165 60.8783 17.9887 61.1927C17.861 61.5072 17.6423 61.7763 17.3608 61.9659C17.0794 62.1554 16.7478 62.2566 16.4085 62.2566C16.0692 62.2566 15.7376 62.1554 15.4561 61.9659C15.1746 61.7763 14.956 61.5072 14.8282 61.1927C14.7004 60.8783 14.6693 60.5329 14.7388 60.2006C14.8083 59.8684 14.9753 59.5645 15.2184 59.3277C15.5369 59.0174 15.9639 58.8438 16.4085 58.8438C16.853 58.8438 17.2801 59.0174 17.5986 59.3277Z" fill="white"/>
</g>
<g style="mix-blend-mode:overlay" opacity="0.5">
<path d="M31.1018 47.5335C32.044 47.5335 32.8076 46.7695 32.8076 45.827C32.8076 44.8846 32.044 44.1206 31.1018 44.1206C30.1597 44.1206 29.396 44.8846 29.396 45.827C29.396 46.7695 30.1597 47.5335 31.1018 47.5335Z" fill="white"/>
</g>
<g style="mix-blend-mode:overlay" opacity="0.5">
<path d="M45.8034 32.8186C46.7454 32.8186 47.5091 32.0546 47.5091 31.1122C47.5091 30.1698 46.7454 29.4058 45.8034 29.4058C44.8613 29.4058 44.0977 30.1698 44.0977 31.1122C44.0977 32.0546 44.8613 32.8186 45.8034 32.8186Z" fill="white"/>
</g>
<g style="mix-blend-mode:overlay" opacity="0.5">
<path d="M60.513 18.1116C61.4551 18.1116 62.2188 17.3476 62.2188 16.4052C62.2188 15.4627 61.4551 14.6987 60.513 14.6987C59.5709 14.6987 58.8071 15.4627 58.8071 16.4052C58.8071 17.3476 59.5709 18.1116 60.513 18.1116Z" fill="white"/>
</g>
<g style="mix-blend-mode:overlay" opacity="0.5">
<path d="M76.4203 0.483919C76.6634 0.720727 76.8304 1.02467 76.8999 1.3569C76.9694 1.68913 76.9383 2.03455 76.8105 2.34899C76.6827 2.66343 76.4641 2.93261 76.1826 3.12212C75.9011 3.31162 75.5695 3.41285 75.2302 3.41285C74.8909 3.41285 74.5594 3.31162 74.2779 3.12212C73.9964 2.93261 73.7777 2.66343 73.65 2.34899C73.5222 2.03455 73.4911 1.68913 73.5606 1.3569C73.6301 1.02467 73.7971 0.720727 74.0401 0.483919C74.3586 0.173634 74.7857 0 75.2302 0C75.6748 0 76.1018 0.173634 76.4203 0.483919Z" fill="white"/>
</g>
<g style="mix-blend-mode:overlay" opacity="0.5">
<path d="M15.5277 86.678C15.7708 86.9148 15.9378 87.2188 16.0073 87.551C16.0768 87.8832 16.0456 88.2287 15.9179 88.5431C15.7901 88.8575 15.5715 89.1267 15.29 89.3162C15.0085 89.5057 14.6769 89.607 14.3376 89.607C13.9983 89.607 13.6668 89.5057 13.3853 89.3162C13.1038 89.1267 12.8852 88.8575 12.7574 88.5431C12.6296 88.2287 12.5985 87.8832 12.668 87.551C12.7375 87.2188 12.9045 86.9148 13.1476 86.678C13.4661 86.3677 13.8931 86.1941 14.3376 86.1941C14.7822 86.1941 15.2092 86.3677 15.5277 86.678Z" fill="white"/>
</g>
<g style="mix-blend-mode:overlay" opacity="0.5">
<path d="M30.2293 71.9632C30.4724 72.2 30.6394 72.5039 30.7089 72.8361C30.7784 73.1684 30.7472 73.5138 30.6195 73.8282C30.4917 74.1427 30.2731 74.4118 29.9917 74.6014C29.7102 74.7909 29.3785 74.8921 29.0392 74.8921C28.6999 74.8921 28.3684 74.7909 28.0869 74.6014C27.8054 74.4118 27.5868 74.1427 27.4591 73.8282C27.3313 73.5138 27.3002 73.1684 27.3697 72.8361C27.4392 72.5039 27.6061 72.2 27.8492 71.9632C28.1677 71.6529 28.5947 71.4792 29.0392 71.4792C29.4838 71.4792 29.9108 71.6529 30.2293 71.9632Z" fill="white"/>
</g>
<g style="mix-blend-mode:overlay" opacity="0.5">
<path d="M44.9389 57.2561C45.1819 57.4929 45.3489 57.7969 45.4184 58.1291C45.4879 58.4613 45.4568 58.8067 45.329 59.1212C45.2012 59.4356 44.9826 59.7048 44.7011 59.8943C44.4196 60.0838 44.0881 60.1851 43.7488 60.1851C43.4095 60.1851 43.0779 60.0838 42.7964 59.8943C42.5149 59.7048 42.2963 59.4356 42.1685 59.1212C42.0408 58.8067 42.0096 58.4613 42.0791 58.1291C42.1486 57.7969 42.3156 57.4929 42.5587 57.2561C42.8772 56.9459 43.3042 56.7722 43.7488 56.7722C44.1933 56.7722 44.6204 56.9459 44.9389 57.2561Z" fill="white"/>
</g>
<g style="mix-blend-mode:overlay" opacity="0.5">
<path d="M58.4343 45.4541C59.3764 45.4541 60.1401 44.6901 60.1401 43.7477C60.1401 42.8053 59.3764 42.0413 58.4343 42.0413C57.4922 42.0413 56.7285 42.8053 56.7285 43.7477C56.7285 44.6901 57.4922 45.4541 58.4343 45.4541Z" fill="white"/>
</g>
<g style="mix-blend-mode:overlay" opacity="0.5">
<path d="M74.3497 27.8343C74.5928 28.0711 74.7597 28.375 74.8292 28.7072C74.8987 29.0395 74.8676 29.3849 74.7398 29.6993C74.612 30.0138 74.3935 30.2829 74.112 30.4725C73.8305 30.662 73.4989 30.7632 73.1596 30.7632C72.8203 30.7632 72.4887 30.662 72.2072 30.4725C71.9257 30.2829 71.7072 30.0138 71.5794 29.6993C71.4517 29.3849 71.4205 29.0395 71.49 28.7072C71.5595 28.375 71.7265 28.0711 71.9696 27.8343C72.2881 27.524 72.7151 27.3503 73.1596 27.3503C73.6042 27.3503 74.0312 27.524 74.3497 27.8343Z" fill="white"/>
</g>
<g style="mix-blend-mode:overlay" opacity="0.5">
<path d="M87.8454 16.0322C88.7875 16.0322 89.5512 15.2682 89.5512 14.3258C89.5512 13.3834 88.7875 12.6194 87.8454 12.6194C86.9033 12.6194 86.1396 13.3834 86.1396 14.3258C86.1396 15.2682 86.9033 16.0322 87.8454 16.0322Z" fill="white"/>
</g>
<g style="mix-blend-mode:overlay" opacity="0.5">
<path d="M26.9526 102.226C27.8947 102.226 28.6584 101.462 28.6584 100.52C28.6584 99.5775 27.8947 98.8135 26.9526 98.8135C26.0105 98.8135 25.2468 99.5775 25.2468 100.52C25.2468 101.462 26.0105 102.226 26.9526 102.226Z" fill="white"/>
</g>
<g style="mix-blend-mode:overlay" opacity="0.5">
<path d="M42.8681 84.5986C43.1112 84.8354 43.2781 85.1393 43.3476 85.4716C43.4171 85.8038 43.386 86.1492 43.2582 86.4637C43.1304 86.7781 42.9119 87.0473 42.6304 87.2368C42.3489 87.4263 42.0173 87.5275 41.678 87.5275C41.3387 87.5275 41.0071 87.4263 40.7256 87.2368C40.4441 87.0473 40.2255 86.7781 40.0977 86.4637C39.97 86.1492 39.9388 85.8038 40.0083 85.4716C40.0778 85.1393 40.2448 84.8354 40.4879 84.5986C40.8083 84.292 41.2346 84.1208 41.678 84.1208C42.1214 84.1208 42.5477 84.292 42.8681 84.5986Z" fill="white"/>
</g>
<g style="mix-blend-mode:overlay" opacity="0.5">
<path d="M56.3635 72.8044C57.3056 72.8044 58.0693 72.0404 58.0693 71.098C58.0693 70.1556 57.3056 69.3916 56.3635 69.3916C55.4214 69.3916 54.6577 70.1556 54.6577 71.098C54.6577 72.0404 55.4214 72.8044 56.3635 72.8044Z" fill="white"/>
</g>
<g style="mix-blend-mode:overlay" opacity="0.5">
<path d="M71.0652 58.0896C72.0072 58.0896 72.7709 57.3256 72.7709 56.3832C72.7709 55.4407 72.0072 54.6768 71.0652 54.6768C70.1231 54.6768 69.3594 55.4407 69.3594 56.3832C69.3594 57.3256 70.1231 58.0896 71.0652 58.0896Z" fill="white"/>
</g>
<g style="mix-blend-mode:overlay" opacity="0.5">
<path d="M85.7746 43.3826C86.7168 43.3826 87.4805 42.6186 87.4805 41.6762C87.4805 40.7337 86.7168 39.9697 85.7746 39.9697C84.8325 39.9697 84.0688 40.7337 84.0688 41.6762C84.0688 42.6186 84.8325 43.3826 85.7746 43.3826Z" fill="white"/>
</g>
<g style="mix-blend-mode:overlay" opacity="0.5">
<path d="M101.682 25.739C101.925 25.9759 102.092 26.2798 102.162 26.612C102.231 26.9443 102.2 27.2897 102.072 27.6041C101.944 27.9186 101.726 28.1877 101.444 28.3772C101.163 28.5668 100.831 28.668 100.492 28.668C100.153 28.668 99.821 28.5668 99.5395 28.3772C99.258 28.1877 99.0395 27.9186 98.9117 27.6041C98.7839 27.2897 98.7528 26.9443 98.8223 26.612C98.8918 26.2798 99.0587 25.9759 99.3018 25.739C99.6203 25.4288 100.047 25.2551 100.492 25.2551C100.936 25.2551 101.364 25.4288 101.682 25.739Z" fill="white"/>
</g>
<g style="mix-blend-mode:overlay" opacity="0.5">
<path d="M40.7893 111.949C41.0324 112.186 41.1994 112.49 41.2689 112.822C41.3384 113.154 41.3073 113.5 41.1795 113.814C41.0517 114.129 40.8332 114.398 40.5517 114.587C40.2702 114.777 39.9386 114.878 39.5993 114.878C39.26 114.878 38.9284 114.777 38.6469 114.587C38.3654 114.398 38.1469 114.129 38.0191 113.814C37.8913 113.5 37.8602 113.154 37.9297 112.822C37.9992 112.49 38.1661 112.186 38.4092 111.949C38.7277 111.639 39.1547 111.465 39.5993 111.465C40.0438 111.465 40.4708 111.639 40.7893 111.949Z" fill="white"/>
</g>
<g style="mix-blend-mode:overlay" opacity="0.5">
<path d="M55.4987 97.242C55.7417 97.4788 55.9087 97.7827 55.9782 98.115C56.0477 98.4472 56.0166 98.7926 55.8888 99.107C55.7611 99.4215 55.5424 99.6907 55.261 99.8802C54.9795 100.07 54.6479 100.171 54.3086 100.171C53.9693 100.171 53.6377 100.07 53.3562 99.8802C53.0747 99.6907 52.8561 99.4215 52.7283 99.107C52.6006 98.7926 52.5695 98.4472 52.6389 98.115C52.7084 97.7827 52.8754 97.4788 53.1185 97.242C53.437 96.9317 53.864 96.7581 54.3086 96.7581C54.7532 96.7581 55.1802 96.9317 55.4987 97.242Z" fill="white"/>
</g>
<g style="mix-blend-mode:overlay" opacity="0.5">
<path d="M70.2003 82.5271C70.4434 82.7639 70.6103 83.0679 70.6798 83.4001C70.7493 83.7323 70.7182 84.0778 70.5904 84.3922C70.4627 84.7066 70.2441 84.9758 69.9626 85.1653C69.6811 85.3548 69.3495 85.4561 69.0102 85.4561C68.6709 85.4561 68.3393 85.3548 68.0578 85.1653C67.7763 84.9758 67.5578 84.7066 67.43 84.3922C67.3022 84.0778 67.2711 83.7323 67.3406 83.4001C67.4101 83.0679 67.577 82.7639 67.8201 82.5271C68.1386 82.2168 68.5656 82.0432 69.0102 82.0432C69.4548 82.0432 69.8818 82.2168 70.2003 82.5271Z" fill="white"/>
</g>
<g style="mix-blend-mode:overlay" opacity="0.5">
<path d="M83.7039 70.7332C84.646 70.7332 85.4097 69.9692 85.4097 69.0267C85.4097 68.0843 84.646 67.3203 83.7039 67.3203C82.7618 67.3203 81.998 68.0843 81.998 69.0267C81.998 69.9692 82.7618 70.7332 83.7039 70.7332Z" fill="white"/>
</g>
<g style="mix-blend-mode:overlay" opacity="0.5">
<path d="M99.6112 53.1053C99.8543 53.3421 100.021 53.646 100.091 53.9782C100.16 54.3105 100.129 54.6559 100.001 54.9703C99.8736 55.2848 99.655 55.554 99.3735 55.7435C99.092 55.933 98.7604 56.0342 98.4211 56.0342C98.0818 56.0342 97.7503 55.933 97.4688 55.7435C97.1873 55.554 96.9687 55.2848 96.8409 54.9703C96.7131 54.6559 96.682 54.3105 96.7515 53.9782C96.821 53.646 96.988 53.3421 97.231 53.1053C97.5495 52.795 97.9766 52.6213 98.4211 52.6213C98.8657 52.6213 99.2927 52.795 99.6112 53.1053Z" fill="white"/>
</g>
<g style="mix-blend-mode:overlay" opacity="0.5">
<path d="M113.107 41.311C114.049 41.311 114.813 40.547 114.813 39.6046C114.813 38.6622 114.049 37.8982 113.107 37.8982C112.165 37.8982 111.401 38.6622 111.401 39.6046C111.401 40.547 112.165 41.311 113.107 41.311Z" fill="white"/>
</g>
<g style="mix-blend-mode:overlay" opacity="0.5">
<path d="M52.2141 127.497C53.1562 127.497 53.92 126.733 53.92 125.791C53.92 124.848 53.1562 124.084 52.2141 124.084C51.272 124.084 50.5083 124.848 50.5083 125.791C50.5083 126.733 51.272 127.497 52.2141 127.497Z" fill="white"/>
</g>
<g style="mix-blend-mode:overlay" opacity="0.5">
<path d="M68.1295 109.869C68.3726 110.106 68.5396 110.41 68.6091 110.742C68.6786 111.075 68.6474 111.42 68.5197 111.734C68.3919 112.049 68.1733 112.318 67.8918 112.508C67.6103 112.697 67.2787 112.798 66.9394 112.798C66.6001 112.798 66.2686 112.697 65.9871 112.508C65.7056 112.318 65.487 112.049 65.3592 111.734C65.2314 111.42 65.2003 111.075 65.2698 110.742C65.3393 110.41 65.5063 110.106 65.7494 109.869C66.0679 109.559 66.4949 109.385 66.9394 109.385C67.384 109.385 67.811 109.559 68.1295 109.869Z" fill="white"/>
</g>
<g style="mix-blend-mode:overlay" opacity="0.5">
<path d="M81.6253 98.0754C82.5674 98.0754 83.3311 97.3115 83.3311 96.369C83.3311 95.4266 82.5674 94.6626 81.6253 94.6626C80.6832 94.6626 79.9194 95.4266 79.9194 96.369C79.9194 97.3115 80.6832 98.0754 81.6253 98.0754Z" fill="white"/>
</g>
<g style="mix-blend-mode:overlay" opacity="0.5">
<path d="M96.3347 83.3684C97.2768 83.3684 98.0405 82.6044 98.0405 81.662C98.0405 80.7196 97.2768 79.9556 96.3347 79.9556C95.3926 79.9556 94.6289 80.7196 94.6289 81.662C94.6289 82.6044 95.3926 83.3684 96.3347 83.3684Z" fill="white"/>
</g>
<g style="mix-blend-mode:overlay" opacity="0.5">
<path d="M111.036 68.6536C111.978 68.6536 112.742 67.8896 112.742 66.9471C112.742 66.0047 111.978 65.2407 111.036 65.2407C110.094 65.2407 109.33 66.0047 109.33 66.9471C109.33 67.8896 110.094 68.6536 111.036 68.6536Z" fill="white"/>
</g>
<g style="mix-blend-mode:overlay" opacity="0.5">
<path d="M126.952 51.0337C127.195 51.2705 127.362 51.5745 127.431 51.9067C127.501 52.2389 127.469 52.5844 127.342 52.8988C127.214 53.2132 126.995 53.4824 126.714 53.6719C126.432 53.8614 126.101 53.9627 125.761 53.9627C125.422 53.9627 125.091 53.8614 124.809 53.6719C124.528 53.4824 124.309 53.2132 124.181 52.8988C124.053 52.5844 124.022 52.2389 124.092 51.9067C124.161 51.5745 124.328 51.2705 124.571 51.0337C124.89 50.7234 125.317 50.5498 125.761 50.5498C126.206 50.5498 126.633 50.7234 126.952 51.0337Z" fill="white"/>
</g>
<g style="mix-blend-mode:overlay" opacity="0.5">
<path d="M66.0507 137.22C66.2938 137.457 66.4608 137.761 66.5303 138.093C66.5998 138.425 66.5686 138.77 66.4409 139.085C66.3131 139.399 66.0945 139.668 65.813 139.858C65.5315 140.047 65.1999 140.149 64.8606 140.149C64.5213 140.149 64.1897 140.047 63.9082 139.858C63.6267 139.668 63.4081 139.399 63.2803 139.085C63.1526 138.77 63.1215 138.425 63.191 138.093C63.2605 137.761 63.4274 137.457 63.6705 137.22C63.989 136.909 64.416 136.736 64.8606 136.736C65.3052 136.736 65.7322 136.909 66.0507 137.22Z" fill="white"/>
</g>
<g style="mix-blend-mode:overlay" opacity="0.5">
<path d="M80.7604 122.513C81.0035 122.75 81.1704 123.054 81.2399 123.386C81.3094 123.718 81.2783 124.064 81.1505 124.378C81.0228 124.692 80.8042 124.962 80.5227 125.151C80.2412 125.341 79.9096 125.442 79.5703 125.442C79.231 125.442 78.8994 125.341 78.6179 125.151C78.3364 124.962 78.1178 124.692 77.9901 124.378C77.8623 124.064 77.8312 123.718 77.9007 123.386C77.9702 123.054 78.1371 122.75 78.3802 122.513C78.6987 122.203 79.1257 122.029 79.5703 122.029C80.0149 122.029 80.4419 122.203 80.7604 122.513Z" fill="white"/>
</g>
<g style="mix-blend-mode:overlay" opacity="0.5">
<path d="M95.4618 107.798C95.7049 108.035 95.8719 108.339 95.9414 108.671C96.0108 109.003 95.9797 109.349 95.852 109.663C95.7242 109.978 95.5056 110.247 95.2241 110.436C94.9426 110.626 94.611 110.727 94.2717 110.727C93.9324 110.727 93.6008 110.626 93.3193 110.436C93.0379 110.247 92.8192 109.978 92.6915 109.663C92.5637 109.349 92.5326 109.003 92.6021 108.671C92.6716 108.339 92.8386 108.035 93.0816 107.798C93.4001 107.488 93.8271 107.314 94.2717 107.314C94.7163 107.314 95.1433 107.488 95.4618 107.798Z" fill="white"/>
</g>
<g style="mix-blend-mode:overlay" opacity="0.5">
<path d="M108.965 96.0039C109.907 96.0039 110.671 95.2399 110.671 94.2975C110.671 93.3551 109.907 92.5911 108.965 92.5911C108.023 92.5911 107.26 93.3551 107.26 94.2975C107.26 95.2399 108.023 96.0039 108.965 96.0039Z" fill="white"/>
</g>
<g style="mix-blend-mode:overlay" opacity="0.5">
<path d="M124.873 78.376C125.116 78.6128 125.283 78.9167 125.352 79.249C125.422 79.5812 125.391 79.9266 125.263 80.2411C125.135 80.5555 124.917 80.8247 124.635 81.0142C124.354 81.2037 124.022 81.3049 123.683 81.3049C123.344 81.3049 123.012 81.2037 122.73 81.0142C122.449 80.8247 122.23 80.5555 122.103 80.2411C121.975 79.9266 121.944 79.5812 122.013 79.249C122.083 78.9167 122.25 78.6128 122.493 78.376C122.811 78.0657 123.238 77.8921 123.683 77.8921C124.127 77.8921 124.554 78.0657 124.873 78.376Z" fill="white"/>
</g>
<g style="mix-blend-mode:overlay" opacity="0.5">
<path d="M138.376 66.582C139.318 66.582 140.082 65.818 140.082 64.8756C140.082 63.9332 139.318 63.1692 138.376 63.1692C137.434 63.1692 136.67 63.9332 136.67 64.8756C136.67 65.818 137.434 66.582 138.376 66.582Z" fill="white"/>
</g>
<g style="mix-blend-mode:overlay" opacity="0.5">
<path d="M78.6815 149.855C78.9246 150.092 79.0915 150.396 79.161 150.728C79.2305 151.061 79.1994 151.406 79.0716 151.721C78.9439 152.035 78.7253 152.304 78.4438 152.494C78.1623 152.683 77.8307 152.784 77.4914 152.784C77.1521 152.784 76.8205 152.683 76.539 152.494C76.2575 152.304 76.0389 152.035 75.9112 151.721C75.7834 151.406 75.7523 151.061 75.8218 150.728C75.8913 150.396 76.0582 150.092 76.3013 149.855C76.6198 149.545 77.0468 149.372 77.4914 149.372C77.936 149.372 78.363 149.545 78.6815 149.855Z" fill="white"/>
</g>
<g style="mix-blend-mode:overlay" opacity="0.5">
<path d="M93.391 135.148C93.6341 135.385 93.801 135.689 93.8705 136.021C93.94 136.354 93.9089 136.699 93.7811 137.014C93.6533 137.328 93.4348 137.597 93.1533 137.787C92.8718 137.976 92.5402 138.077 92.2009 138.077C91.8616 138.077 91.53 137.976 91.2485 137.787C90.967 137.597 90.7484 137.328 90.6207 137.014C90.4929 136.699 90.4618 136.354 90.5313 136.021C90.6008 135.689 90.7678 135.385 91.0108 135.148C91.3293 134.838 91.7563 134.665 92.2009 134.665C92.6455 134.665 93.0725 134.838 93.391 135.148Z" fill="white"/>
</g>
<g style="mix-blend-mode:overlay" opacity="0.5">
<path d="M106.887 123.346C107.829 123.346 108.593 122.582 108.593 121.64C108.593 120.698 107.829 119.934 106.887 119.934C105.945 119.934 105.181 120.698 105.181 121.64C105.181 122.582 105.945 123.346 106.887 123.346Z" fill="white"/>
</g>
<g style="mix-blend-mode:overlay" opacity="0.5">
<path d="M122.802 105.727C123.045 105.963 123.212 106.267 123.282 106.6C123.351 106.932 123.32 107.277 123.192 107.592C123.064 107.906 122.846 108.175 122.564 108.365C122.283 108.554 121.951 108.656 121.612 108.656C121.273 108.656 120.941 108.554 120.66 108.365C120.378 108.175 120.16 107.906 120.032 107.592C119.904 107.277 119.873 106.932 119.942 106.6C120.012 106.267 120.179 105.963 120.422 105.727C120.74 105.416 121.167 105.243 121.612 105.243C122.057 105.243 122.484 105.416 122.802 105.727Z" fill="white"/>
</g>
<g style="mix-blend-mode:overlay" opacity="0.5">
<path d="M137.504 91.0115C137.747 91.2483 137.914 91.5522 137.983 91.8845C138.053 92.2167 138.022 92.5621 137.894 92.8766C137.766 93.191 137.548 93.4602 137.266 93.6497C136.985 93.8392 136.653 93.9404 136.314 93.9404C135.974 93.9404 135.643 93.8392 135.361 93.6497C135.08 93.4602 134.861 93.191 134.733 92.8766C134.606 92.5621 134.575 92.2167 134.644 91.8845C134.714 91.5522 134.881 91.2483 135.124 91.0115C135.442 90.7012 135.869 90.5276 136.314 90.5276C136.758 90.5276 137.185 90.7012 137.504 91.0115Z" fill="white"/>
</g>
<g style="mix-blend-mode:overlay" opacity="0.5">
<path d="M152.213 76.3047C152.456 76.5415 152.623 76.8455 152.693 77.1777C152.762 77.5099 152.731 77.8553 152.603 78.1698C152.476 78.4842 152.257 78.7534 151.976 78.9429C151.694 79.1324 151.362 79.2336 151.023 79.2336C150.684 79.2336 150.352 79.1324 150.071 78.9429C149.789 78.7534 149.571 78.4842 149.443 78.1698C149.315 77.8553 149.284 77.5099 149.354 77.1777C149.423 76.8455 149.59 76.5415 149.833 76.3047C150.152 75.9944 150.579 75.8208 151.023 75.8208C151.468 75.8208 151.895 75.9944 152.213 76.3047Z" fill="white"/>
</g>
</g>
</svg>
