<svg width="130" height="130" viewBox="0 0 130 130" fill="none" xmlns="http://www.w3.org/2000/svg">
<path d="M0 65L64.9978 0L130 65L64.9978 130L0 65Z" fill="#FF9B00"/>
<path d="M84.9992 43.75H46.0008C44.3462 43.75 43 45.0963 43 46.7508V71.5C43 71.9139 43.336 72.2499 43.75 72.2499H87.2499C87.6639 72.2499 87.9999 71.9139 87.9999 71.5V46.7508C88 45.0963 86.6538 43.75 84.9992 43.75ZM86.5 70.75H44.5V46.7508C44.5 45.9227 45.1735 45.25 46.0008 45.25H84.9992C85.8265 45.25 86.5 45.9227 86.5 46.7508V70.75Z" fill="white"/>
<path d="M87.25 70.75H43.75C43.336 70.75 43 71.086 43 71.5V75.2492C43 76.9038 44.3462 78.25 46.0008 78.25H84.9992C86.6538 78.25 88 76.9038 88 75.2492V71.5C88 71.086 87.664 70.75 87.25 70.75ZM86.5 75.2493C86.5 76.0773 85.8265 76.75 84.9992 76.75H46.0008C45.1735 76.75 44.5 76.0773 44.5 75.2493V72.25H86.5001V75.2493H86.5Z" fill="white"/>
<path d="M67.75 73.75H63.25C62.836 73.75 62.5 74.086 62.5 74.5C62.5 74.9139 62.836 75.2499 63.25 75.2499H67.75C68.1639 75.2499 68.4999 74.9139 68.4999 74.5C68.4999 74.086 68.1639 73.75 67.75 73.75Z" fill="white"/>
<path d="M84.2502 46.75H46.7502C46.3363 46.75 46.0002 47.086 46.0002 47.5V71.5C46.0002 71.914 46.3363 72.25 46.7502 72.25H84.2503C84.6642 72.25 85.0002 71.914 85.0002 71.5V47.5C85.0002 47.086 84.6642 46.75 84.2502 46.75ZM83.5002 70.7499H47.5002V48.2499H83.5002V70.7499Z" fill="white"/>
<path d="M75.2499 82.75H55.75C54.5095 82.75 53.5 83.7595 53.5 85C53.5 86.2405 54.5095 87.25 55.75 87.25H75.25C76.4905 87.25 77.5 86.2405 77.5 85C77.5 83.7595 76.4904 82.75 75.2499 82.75ZM75.2499 85.75H55.75C55.336 85.75 55 85.4133 55 85C55 84.5867 55.336 84.25 55.75 84.25H75.25C75.664 84.25 76 84.5867 76 85C76 85.4133 75.664 85.75 75.2499 85.75Z" fill="white"/>
<path d="M73.7502 82.7499C71.2616 82.7499 70.0002 80.9837 70.0002 77.5C70.0002 77.086 69.6641 76.75 69.2502 76.75H61.7502C61.3362 76.75 61.0002 77.086 61.0002 77.5C61.0002 80.9837 59.7387 82.7499 57.2502 82.7499C56.8363 82.7499 56.5002 83.0859 56.5002 83.4999C56.5002 83.9139 56.8363 84.2499 57.2502 84.2499H73.7502C74.1641 84.2499 74.5001 83.9139 74.5001 83.4999C74.5001 83.0859 74.1641 82.7499 73.7502 82.7499ZM60.9034 82.7499C61.8267 81.727 62.3704 80.2037 62.4799 78.2499H68.5211C68.6298 80.2037 69.1736 81.727 70.0976 82.7499H60.9034Z" fill="white"/>
<path d="M78.8379 65.8477L77.0274 64.0372L78.0347 63.03C78.2214 62.8432 78.2964 62.5717 78.2319 62.3159C78.1674 62.0602 77.9732 61.8577 77.7204 61.7812L70.2204 59.5312C69.9557 59.4517 69.67 59.5245 69.4749 59.7195C69.2792 59.9145 69.2072 60.2009 69.2867 60.465L71.5367 67.9649C71.6124 68.2184 71.8156 68.4127 72.0714 68.4772C72.3264 68.5402 72.5986 68.4666 72.7854 68.2799L73.8459 67.2187L75.6564 69.0299C75.7966 69.1709 75.9879 69.2496 76.1866 69.2496C76.3853 69.2496 76.5766 69.1709 76.7168 69.0299L78.8378 66.9081C79.1311 66.6149 79.1311 66.141 78.8379 65.8477ZM76.1866 67.4392L74.5381 65.7899C74.3469 65.5987 74.0964 65.5034 73.8459 65.5034C73.5946 65.5034 73.3441 65.5994 73.1537 65.7891L72.6122 66.3306L71.1234 61.3679L76.0861 62.8567L75.5056 63.4372C75.3458 63.5977 75.2581 63.8107 75.2581 64.0372C75.2581 64.2645 75.3466 64.4789 75.5071 64.6379L77.2471 66.3779L76.1866 67.4392Z" fill="white"/>
<path d="M74.5002 49.75H53.5002C53.0863 49.75 52.7502 50.086 52.7502 50.5V54.25C52.7502 54.664 53.0863 55 53.5002 55H74.5002C74.9142 55 75.2502 54.664 75.2502 54.25V50.5C75.2502 50.086 74.9142 49.75 74.5002 49.75ZM73.7502 53.5H54.2502V51.25H73.7502V53.5Z" fill="white"/>
<path d="M62.5 58H56.5C56.086 58 55.75 58.336 55.75 58.75V61.7499C55.75 62.1639 56.086 62.4999 56.5 62.4999H62.5C62.914 62.4999 63.25 62.1639 63.25 61.7499V58.75C63.25 58.336 62.914 58 62.5 58ZM61.7499 61H57.2499V59.4999H61.7499V61Z" fill="white"/>
<path d="M74.5002 49.75H53.5002C53.0863 49.75 52.7502 50.086 52.7502 50.5V64.7499C52.7502 65.1639 53.0863 65.4999 53.5002 65.4999H71.3548C71.5925 65.4999 71.8152 65.3882 71.9563 65.1977C72.098 65.0072 72.1416 64.7612 72.0733 64.5339L71.1238 61.3682L74.285 62.317C74.5123 62.3852 74.7583 62.3417 74.948 62.2C75.1384 62.059 75.2502 61.8355 75.2502 61.5984V50.5C75.2502 50.086 74.9142 49.75 74.5002 49.75ZM73.7502 60.5905L70.2199 59.5315C69.9552 59.452 69.6695 59.5248 69.4744 59.7198C69.2787 59.9155 69.2067 60.2012 69.2862 60.4661L70.3467 64.0001H54.2502V51.25H73.7502V60.5905Z" fill="white"/>
</svg>
