<svg width="130" height="130" viewBox="0 0 130 130" fill="none" xmlns="http://www.w3.org/2000/svg">
<path d="M0 65L64.9978 0L130 65L64.9978 130L0 65Z" fill="#7E009E"/>
<path d="M78.8279 72.0156H74.3184V73.5188H78.8279V72.0156Z" fill="white"/>
<path d="M72.8152 72.0156H68.3057V73.5188H72.8152V72.0156Z" fill="white"/>
<path d="M66.8025 72.0156H62.293V73.5188H66.8025V72.0156Z" fill="white"/>
<path d="M86.3341 57.5875L71.4624 42.7135C71.0401 42.2872 70.4646 42.0476 69.8645 42.0483H69.8577C69.2615 42.0486 68.6905 42.2883 68.2726 42.7135L52.4967 58.4871H44.2548C43.0095 58.4871 42 59.4966 42 60.7419V81.7865C42 83.0317 43.0095 84.0412 44.2548 84.0412H55.3903L57.6331 86.2862C58.0554 86.7126 58.6308 86.9521 59.231 86.9514H59.237C59.8334 86.9512 60.4048 86.7115 60.8228 86.2862L63.0701 84.0412H80.3311C81.5764 84.0412 82.5859 83.0317 82.5859 81.7865V64.5254L86.3303 60.781C86.7577 60.3626 86.999 59.7901 87 59.1921C87.0022 58.5895 86.7623 58.0114 86.3341 57.5875ZM76.7731 50.152L68.438 58.4871H62.0554L73.5818 46.9607L76.7731 50.152ZM69.3369 43.7732C69.6227 43.4804 70.0919 43.4748 70.3849 43.7607C70.3891 43.7649 70.3933 43.769 70.3973 43.7732L72.5191 45.898L59.9292 58.4871H54.6222L69.3369 43.7732ZM59.7586 85.2265C59.6211 85.37 59.4312 85.4514 59.2325 85.452C59.031 85.4515 58.8383 85.3703 58.6973 85.2265L57.5166 84.0412H60.9446L59.7586 85.2265ZM81.0827 81.7865C81.0827 82.2015 80.7462 82.538 80.3311 82.538H44.2548C43.8397 82.538 43.5032 82.2015 43.5032 81.7865V71.2642H81.0827V81.7865ZM81.0827 69.761H43.5032V65.2515H81.0827V69.761ZM81.0827 63.7483H43.5032V60.7419C43.5032 60.3268 43.8397 59.9903 44.2548 59.9903H80.3311C80.7462 59.9903 81.0827 60.3268 81.0827 60.7419V63.7483ZM85.2713 59.7145L82.5859 62.3999V60.7419C82.5859 59.4966 81.5764 58.4871 80.3311 58.4871H70.5604L77.8328 51.2147L85.2683 58.6502C85.4127 58.7917 85.494 58.9854 85.4938 59.1876C85.4936 59.386 85.4134 59.576 85.2713 59.7145Z" fill="white"/>
<path d="M49.2086 81.0551C49.3183 80.9602 49.4211 80.8574 49.516 80.7477C50.5098 81.9053 52.2176 82.1253 53.4723 81.2573C54.2822 80.691 54.7683 79.7682 54.7771 78.78C54.7771 77.1197 53.4311 75.7737 51.7707 75.7737C51.6215 75.7716 51.4725 75.7842 51.3258 75.8112L51.3062 75.8165C51.2987 75.8165 51.2912 75.8165 51.2845 75.8165C50.5959 75.9309 49.9697 76.2843 49.516 76.8146C48.4299 75.5587 46.5313 75.4211 45.2755 76.5072C44.0196 77.5933 43.8819 79.4919 44.9681 80.7477C46.0541 82.0036 47.9526 82.1412 49.2086 81.0551ZM51.5806 77.2926C51.6432 77.2807 51.7069 77.2754 51.7707 77.2768C52.601 77.2768 53.2739 77.9498 53.2739 78.78C53.2732 79.098 53.1695 79.4073 52.9785 79.6616C52.9515 79.6985 52.9304 79.7368 52.8996 79.7751C52.8944 79.7811 52.8868 79.7849 52.8808 79.7909C52.5969 80.1044 52.1937 80.2833 51.7707 80.2832C50.9407 80.269 50.2792 79.5847 50.2934 78.7546C50.306 78.0176 50.8511 77.3984 51.5806 77.2926ZM47.2612 77.2768C48.0914 77.2768 48.7644 77.9498 48.7644 78.78C48.7644 79.6102 48.0914 80.2832 47.2612 80.2832C46.431 80.2832 45.758 79.6102 45.758 78.78C45.758 77.9498 46.431 77.2768 47.2612 77.2768Z" fill="white"/>
</svg>
