<svg width="130" height="130" viewBox="0 0 130 130" fill="none" xmlns="http://www.w3.org/2000/svg">
<path d="M64.9978 126.464L3.53548 65L64.9978 3.53554L126.464 65L64.9978 126.464Z" fill="#FF9B00" stroke="#FF9B00" stroke-width="5"/>
<path d="M79.4306 59.5696H76.5976L77.4512 49.769C77.4527 49.7512 77.453 49.7337 77.4531 49.7162C77.4531 49.7147 77.4533 49.7133 77.4533 49.7118C77.4533 49.7116 77.4533 49.7114 77.4533 49.7111C77.4533 49.4444 77.2923 49.2093 77.0558 49.1071C77.0538 49.1062 77.0519 49.1051 77.0498 49.1042C77.0352 49.0981 77.02 49.0928 77.0047 49.0877C76.999 49.0859 76.9935 49.0836 76.9878 49.0818C76.9753 49.078 76.9625 49.0751 76.9497 49.072C76.9408 49.0699 76.9322 49.0673 76.9231 49.0656C76.9119 49.0634 76.9003 49.062 76.8889 49.0603C76.8782 49.0587 76.8676 49.0569 76.8568 49.0559C76.855 49.0557 76.8533 49.0554 76.8515 49.0552C76.8399 49.0541 76.8284 49.0543 76.8169 49.0539C76.8092 49.0536 76.8016 49.0527 76.7939 49.0527H76.7856C76.7849 49.0527 76.7842 49.0527 76.7836 49.0527H63.3037C62.9398 49.0527 62.6445 49.348 62.6445 49.7119C62.6445 50.0749 62.9398 50.3711 63.3037 50.3711H76.0754L74.7635 65.4334C74.7634 65.4346 74.7634 65.4357 74.7632 65.4368L74.4322 69.2373H51.527L51.9101 65.2824H56.2714C56.6355 65.2824 56.9305 64.9873 56.9305 64.6232C56.9305 64.2592 56.6355 63.9641 56.2714 63.9641H52.0379L52.8469 55.6149H59.7881C60.1522 55.6149 60.4472 55.3197 60.4472 54.9557C60.4472 54.5916 60.1522 54.2965 59.7881 54.2965H52.9747L53.3551 50.3711H60.667C61.03 50.3711 61.3261 50.0749 61.3261 49.7119C61.3261 49.348 61.03 49.0527 60.667 49.0527H52.7568C52.7564 49.0527 52.7562 49.0528 52.7558 49.0528C52.4462 49.0527 52.1776 49.2707 52.1126 49.5729C52.1122 49.5751 52.1114 49.5772 52.111 49.5794C52.1076 49.5958 52.1054 49.6126 52.1032 49.6295C52.1026 49.6348 52.1015 49.6399 52.1009 49.6453C52.1008 49.6464 52.1006 49.6473 52.1005 49.6484L51.6501 54.2965H43.6592C43.295 54.2965 43 54.5916 43 54.9557C43 55.3197 43.295 55.6149 43.6592 55.6149H51.5223L50.7134 63.9641H48.3615C47.9974 63.9641 47.7023 64.2592 47.7023 64.6232C47.7023 64.9873 47.9974 65.2824 48.3615 65.2824H50.5857L50.1452 69.8282C50.1451 69.8289 50.1451 69.8296 50.145 69.8302L49.4639 76.8597C49.4639 76.8605 49.4638 76.8613 49.4637 76.8621L49.4634 76.8646C49.4625 76.8737 49.4626 76.8827 49.4621 76.8918C49.4615 76.904 49.4602 76.9158 49.4602 76.9281C49.4602 76.9287 49.4603 76.9292 49.4603 76.9298C49.4603 76.9468 49.4616 76.9635 49.4628 76.9802C49.4633 76.9855 49.4632 76.991 49.4638 76.9963C49.4655 77.0133 49.4684 77.0301 49.4715 77.0468C49.4724 77.0517 49.4728 77.0567 49.4738 77.0616C49.4763 77.0742 49.4799 77.0864 49.4833 77.0988C49.4856 77.1075 49.4874 77.1164 49.49 77.1249C49.4908 77.1273 49.4919 77.1296 49.4926 77.1321C49.5245 77.2301 49.5786 77.3182 49.6493 77.3901C49.6506 77.3914 49.6517 77.3929 49.653 77.3941C49.66 77.4012 49.6677 77.4075 49.6751 77.4142C49.7205 77.4558 49.7718 77.4912 49.828 77.5189C49.8397 77.5247 49.8512 77.5307 49.8631 77.5357C49.8667 77.5373 49.8706 77.5384 49.8743 77.5398C49.8908 77.5464 49.9074 77.5527 49.9246 77.5581C49.9262 77.5585 49.9277 77.5588 49.9292 77.5593C49.9487 77.5651 49.9684 77.5702 49.9886 77.5743C49.9912 77.5748 49.9939 77.575 49.9965 77.5756C50.0156 77.5792 50.0349 77.5822 50.0545 77.5842C50.0549 77.5842 50.0553 77.5843 50.0557 77.5843C50.0773 77.5864 50.0988 77.5875 50.12 77.5875C50.1203 77.5875 50.1207 77.5874 50.121 77.5874H53.0555C53.3796 80.0442 55.4859 81.9471 58.0299 81.9471C60.5737 81.9471 62.68 80.0442 63.0041 77.5874H73.5773C73.9014 80.0442 76.0076 81.9471 78.5515 81.9471C81.0954 81.9471 83.2019 80.0442 83.526 77.5874H86.4612C86.4616 77.5874 86.4622 77.5875 86.4626 77.5875C86.4846 77.5875 86.5062 77.5862 86.5276 77.5841C86.5315 77.5837 86.5352 77.5829 86.5391 77.5825C86.5562 77.5805 86.5733 77.5781 86.59 77.5748C86.5972 77.5734 86.6041 77.5714 86.6112 77.5697C86.6242 77.5668 86.6372 77.5636 86.6498 77.5598C86.6584 77.5573 86.6668 77.5543 86.6752 77.5514C86.686 77.5477 86.6968 77.5438 86.7075 77.5395C86.7166 77.5359 86.7253 77.532 86.7342 77.528C86.7439 77.5235 86.7535 77.5189 86.7629 77.5141C86.7719 77.5095 86.7805 77.5048 86.7891 77.4999C86.7982 77.4946 86.8071 77.4892 86.816 77.4835C86.8243 77.4783 86.8325 77.4729 86.8405 77.4673C86.8494 77.461 86.8579 77.4544 86.8666 77.4478C86.8739 77.442 86.8811 77.4364 86.8882 77.4304C86.8972 77.4228 86.9058 77.4148 86.9144 77.4066C86.9203 77.4009 86.9266 77.3953 86.9324 77.3893C86.9415 77.38 86.9502 77.3701 86.9589 77.3602C86.9636 77.3549 86.9684 77.3497 86.9729 77.3442C86.9826 77.3323 86.9914 77.32 87.0002 77.3076C87.0031 77.3033 87.0065 77.2992 87.0094 77.2948C87.0201 77.2787 87.0302 77.2622 87.0395 77.2452C87.0402 77.2441 87.0409 77.2431 87.0414 77.242C87.0513 77.2237 87.0604 77.205 87.0686 77.1857C87.0709 77.1801 87.0727 77.1744 87.0749 77.1689C87.0802 77.1553 87.0855 77.1416 87.09 77.1275C87.0929 77.1183 87.095 77.1089 87.0975 77.0997C87.1004 77.0887 87.1035 77.0778 87.106 77.0667C87.1082 77.0567 87.1096 77.0465 87.1112 77.0364C87.1127 77.0275 87.1147 77.0188 87.1158 77.0098C87.1438 76.7858 87.66 72.6445 87.8905 69.9667C87.8908 69.9641 87.8908 69.9615 87.8911 69.9589C87.9575 69.187 88 68.5369 88 68.139C88 63.4139 84.1558 59.5696 79.4306 59.5696ZM76.4827 60.8881H79.1794L78.835 64.8429H76.1382L76.4827 60.8881ZM58.0301 80.6286C55.9895 80.6286 54.3294 78.9685 54.3294 76.9281C54.3294 74.8876 55.9896 73.2275 58.0301 73.2275C60.0705 73.2275 61.7306 74.8876 61.7306 76.9281C61.7306 78.9685 60.0705 80.6286 58.0301 80.6286ZM78.5515 80.6286C76.5111 80.6286 74.8511 78.9685 74.8511 76.9281C74.8511 74.8876 76.5112 73.2275 78.5515 73.2275C80.5921 73.2275 82.2522 74.8876 82.2522 76.9281C82.2522 78.9685 80.5921 80.6286 78.5515 80.6286ZM85.8788 76.2686H83.5262C83.2022 73.8116 81.0958 71.9087 78.5517 71.9087C76.0078 71.9087 73.9014 73.8117 73.5774 76.2686H63.0043C62.6804 73.8116 60.5741 71.9087 58.0301 71.9087C55.4861 71.9087 53.3796 73.8117 53.0556 76.2686H50.8457L51.3993 70.5553H75.0363V70.5557C75.0366 70.5557 75.0369 70.5557 75.0372 70.5557C75.0593 70.5557 75.0812 70.5545 75.1028 70.5523C75.1068 70.5519 75.1108 70.551 75.1148 70.5505C75.1321 70.5485 75.1492 70.546 75.1661 70.5427C75.1734 70.5412 75.1805 70.5392 75.1877 70.5374C75.2009 70.5343 75.2141 70.5312 75.2269 70.5273C75.2357 70.5247 75.244 70.5215 75.2526 70.5185C75.2636 70.5147 75.2747 70.5109 75.2854 70.5065C75.2947 70.5027 75.3035 70.4985 75.3125 70.4943C75.3223 70.4898 75.332 70.4853 75.3414 70.4804C75.3504 70.4756 75.3592 70.4705 75.368 70.4654C75.3771 70.4602 75.3861 70.4548 75.3949 70.4492C75.4034 70.4436 75.4115 70.4378 75.4196 70.432C75.4283 70.4259 75.4368 70.4196 75.4452 70.413C75.4528 70.4069 75.4602 70.4007 75.4676 70.3942C75.476 70.387 75.4841 70.3797 75.4921 70.372C75.4987 70.3656 75.5054 70.359 75.5119 70.3522C75.5198 70.344 75.5275 70.3354 75.535 70.3267C75.5409 70.3199 75.5467 70.313 75.5524 70.306C75.5597 70.2968 75.5666 70.2873 75.5734 70.2777C75.5786 70.2705 75.5836 70.2633 75.5886 70.2559C75.595 70.246 75.6011 70.2358 75.607 70.2254C75.6115 70.2177 75.6161 70.2099 75.6201 70.202C75.6257 70.1917 75.6304 70.1811 75.6354 70.1705C75.6393 70.1619 75.6432 70.1536 75.6468 70.1448C75.6511 70.1344 75.6547 70.1238 75.6584 70.1132C75.6617 70.1038 75.6651 70.0944 75.668 70.0847C75.6709 70.0745 75.6733 70.064 75.6759 70.0537C75.6785 70.0432 75.6813 70.0328 75.6833 70.0222C75.6853 70.0118 75.6866 70.0013 75.6881 69.9907C75.6897 69.9798 75.6916 69.9691 75.6926 69.958C75.6928 69.9565 75.6932 69.955 75.6932 69.9534L76.0236 66.1609H79.4305C81.4501 66.1609 82.361 67.2073 83.3253 68.3153C84.1209 69.2294 85.0092 70.2494 86.5192 70.4982C86.3274 72.5259 86.0174 75.1288 85.8788 76.2686ZM86.6319 69.1772C85.6523 68.9775 85.0497 68.2889 84.3196 67.4501C83.4065 66.4011 82.2917 65.121 80.1549 64.8824L80.4959 60.9671C83.9908 61.4839 86.6816 64.5028 86.6816 68.1391C86.6816 68.3862 86.6632 68.7451 86.6319 69.1772Z" fill="white"/>
<path d="M58.03 74.5107C56.6973 74.5107 55.613 75.595 55.613 76.9277C55.613 78.2605 56.6973 79.3447 58.03 79.3447C59.3627 79.3447 60.447 78.2605 60.447 76.9277C60.447 75.5951 59.3627 74.5107 58.03 74.5107ZM58.03 78.0264C57.4242 78.0264 56.9314 77.5336 56.9314 76.9277C56.9314 76.3219 57.4242 75.8291 58.03 75.8291C58.6359 75.8291 59.1287 76.3219 59.1287 76.9277C59.1287 77.5336 58.6358 78.0264 58.03 78.0264Z" fill="white"/>
<path d="M78.5515 74.5107C77.2188 74.5107 76.1345 75.595 76.1345 76.9277C76.1345 78.2605 77.2188 79.3447 78.5515 79.3447C79.8842 79.3447 80.9685 78.2605 80.9685 76.9277C80.9685 75.5951 79.8842 74.5107 78.5515 74.5107ZM78.5515 78.0264C77.9457 78.0264 77.4529 77.5336 77.4529 76.9277C77.4529 76.3219 77.9457 75.8291 78.5515 75.8291C79.1574 75.8291 79.6502 76.3219 79.6502 76.9277C79.6502 77.5336 79.1574 78.0264 78.5515 78.0264Z" fill="white"/>
<path d="M49.2402 59.5698H46.0176C45.6534 59.5698 45.3584 59.865 45.3584 60.229C45.3584 60.593 45.6534 60.8882 46.0176 60.8882H49.2402C49.6043 60.8882 49.8994 60.593 49.8994 60.229C49.8994 59.865 49.6043 59.5698 49.2402 59.5698Z" fill="white"/>
</svg>
