<svg width="130" height="130" viewBox="0 0 130 130" fill="none" xmlns="http://www.w3.org/2000/svg">
<path d="M0 65L64.9978 0L130 65L64.9978 130L0 65Z" fill="#7E009E"/>
<path d="M85.75 80.35C81.2737 77.9762 77.8402 76.6452 74.7837 76.1349L75.1 75.7001C75.2501 75.55 75.325 75.325 75.2501 75.1L74.5472 72.2887C74.8019 71.9286 75.0422 71.5563 75.2673 71.1735C78.0622 70.2223 79.4756 68.6143 79.7131 66.2469C80.9407 66.1829 82 65.0872 82 63.85V58.225C82 56.9935 81.0203 55.9022 79.7368 55.8291C79.5716 51.4965 77.6612 43 65.5 43C53.3385 43 51.4283 51.4968 51.2631 55.8294C50.0456 55.9013 49 56.9235 49 58.2249V63.8499C49 65.125 50.125 66.25 51.475 66.25H52.6C53.0135 66.25 53.4108 66.1311 53.7569 65.9278C54.1822 68.1852 55.1208 70.4056 56.4529 72.2886L55.75 75.0999C55.75 75.25 55.75 75.475 55.9001 75.7L56.2164 76.1349C53.1599 76.6452 49.7264 77.9762 45.2501 80.3499C43.825 81.025 43 82.45 43 84.025V87.2499C43 87.7 43.3 88 43.75 88H61.75H62.0499H68.95H69.2499H87.2499C87.6999 88 87.9999 87.7 87.9999 87.25V84.0251C88 82.525 87.1 81.1 85.75 80.35ZM65.5041 78.6345L67.3 82.75H63.6749L65.5041 78.6345ZM63.13 84.25H67.8671L68.3061 86.5H62.6799L63.13 84.25ZM73.375 73.75L73.675 75.1L72.9088 76.152C72.86 76.192 72.8147 76.2404 72.775 76.3L69.6553 80.6196L68.6655 81.9787L66.6435 77.4294C69.1096 77.1286 71.3056 75.8718 73.0663 74.0709C73.1704 73.966 73.2734 73.8594 73.375 73.75ZM76.3036 69.0845C76.7266 68.0552 77.0455 66.9854 77.2471 65.9069C77.5327 66.0799 77.8578 66.1955 78.2083 66.2347C78.0783 67.2948 77.6073 68.2957 76.3036 69.0845ZM80.425 58.15V63.775C80.425 64.225 80.0499 64.675 79.525 64.675H78.4C77.95 64.675 77.5 64.2999 77.5 63.775V63.25V58.15C77.5 57.7 77.875 57.25 78.4 57.25H79.525C79.975 57.25 80.425 57.625 80.425 58.15ZM65.5 44.5C70.1228 44.5 77.9029 46.0091 78.2375 55.8372C77.9232 55.8695 77.6221 55.965 77.3499 56.1118C76.4372 50.4006 71.4578 46 65.5 46C59.5429 46 54.5641 50.3993 53.6505 56.1093C53.3823 55.9645 53.0827 55.8688 52.7625 55.837C53.0971 46.0091 60.8773 44.5 65.5 44.5ZM53.425 63.775C53.425 64.225 53.0499 64.675 52.525 64.675H51.4C50.95 64.675 50.5 64.2999 50.5 63.775V58.15C50.5 57.7 50.875 57.25 51.4 57.25H52.525C52.975 57.25 53.425 57.625 53.425 58.15V63.775ZM55 58C55 52.225 59.725 47.5 65.5 47.5C71.275 47.5 76 52.225 76 58V63.25C76 65.7313 75.354 68.003 74.3067 69.9198C72.5166 70.439 69.9413 70.75 66.2501 70.75C65.8001 70.75 65.5001 71.0499 65.5001 71.4999C65.5001 71.9499 65.8001 72.2499 66.2501 72.2499C68.9523 72.2499 71.2122 72.084 73.0629 71.7371C73.0169 71.783 72.971 71.829 72.925 71.875C72.5477 72.3781 72.1495 72.8368 71.7334 73.2504C69.9674 74.8956 67.8611 75.8922 65.8313 75.9909C65.7292 75.947 65.6147 75.925 65.5 75.925C65.3847 75.925 65.2808 75.9476 65.1876 75.9919C63.9452 75.9349 62.6737 75.5411 61.4685 74.8675C60.2474 74.1659 59.0987 73.1546 58.075 71.875C58 71.8 57.925 71.7249 57.85 71.65L57.8062 71.6354C56.1219 69.4263 55 66.5202 55 63.25V58ZM64.3564 77.4294L62.3344 81.9787L61.3446 80.6196L58.2249 76.3C58.201 76.2761 58.1747 76.2525 58.1472 76.2292L57.3249 75.1L57.6249 73.75C57.7264 73.8594 57.8294 73.9659 57.9333 74.0707C59.6941 75.8716 61.8903 77.1285 64.3564 77.4294ZM44.5 84.025C44.5 83.05 45.025 82.15 45.925 81.7C50.7056 79.1603 54.147 77.8856 57.2126 77.5049L61.6882 83.6588L61.12 86.5H44.5V84.025ZM86.5 86.5H69.88L69.3118 83.6588L73.8359 77.4382C76.8907 77.8992 80.3939 79.1729 85.0751 81.6249C85.9751 82.1499 86.5001 83.0499 86.5001 84.025V86.5H86.5Z" fill="white"/>
</svg>
