<svg width="463" height="447" viewBox="0 0 463 447" fill="none" xmlns="http://www.w3.org/2000/svg">
<g style="mix-blend-mode:overlay" opacity="0.5">
<g style="mix-blend-mode:overlay" opacity="0.5">
<path d="M238.301 8.52368C237.577 9.2167 236.657 9.68728 235.656 9.8763C234.656 10.0653 233.619 9.96433 232.678 9.58586C231.737 9.2074 230.933 8.56833 230.367 7.74951C229.802 6.93069 229.5 5.96876 229.5 4.98465C229.5 4.00054 229.802 3.03839 230.367 2.21957C230.933 1.40076 231.737 0.761894 232.678 0.383429C233.619 0.0049628 234.656 -0.0962366 235.656 0.0927849C236.657 0.281806 237.577 0.752594 238.301 1.44561C239.27 2.38588 239.814 3.65829 239.814 4.98465C239.814 6.311 239.27 7.58342 238.301 8.52368Z" fill="white"/>
</g>
<g style="mix-blend-mode:overlay" opacity="0.5">
<path d="M282.849 51.49C282.127 52.1877 281.207 52.663 280.205 52.8558C279.203 53.0486 278.164 52.9504 277.22 52.5733C276.276 52.1962 275.469 51.5574 274.902 50.7375C274.334 49.9177 274.031 48.9537 274.031 47.9676C274.031 46.9815 274.334 46.0175 274.902 45.1976C275.469 44.3778 276.276 43.7388 277.22 43.3617C278.164 42.9846 279.203 42.8863 280.205 43.0792C281.207 43.272 282.127 43.7474 282.849 44.4452C283.808 45.384 284.345 46.6493 284.345 47.9676C284.345 49.2858 283.808 50.5511 282.849 51.49Z" fill="white"/>
</g>
<g style="mix-blend-mode:overlay" opacity="0.5">
<path d="M327.362 94.4901C326.638 95.1831 325.718 95.6537 324.718 95.8427C323.717 96.0317 322.681 95.9307 321.74 95.5523C320.799 95.1738 319.994 94.5347 319.429 93.7159C318.863 92.8971 318.562 91.9351 318.562 90.951C318.562 89.9669 318.863 89.0047 319.429 88.1859C319.994 87.3671 320.799 86.7282 321.74 86.3497C322.681 85.9713 323.717 85.8701 324.718 86.0591C325.718 86.2481 326.638 86.7189 327.362 87.4119C328.331 88.3522 328.875 89.6246 328.875 90.951C328.875 92.2774 328.331 93.5498 327.362 94.4901Z" fill="white"/>
</g>
<g style="mix-blend-mode:overlay" opacity="0.5">
<path d="M368.261 138.918C371.113 138.918 373.425 136.686 373.425 133.933C373.425 131.18 371.113 128.949 368.261 128.949C365.409 128.949 363.097 131.18 363.097 133.933C363.097 136.686 365.409 138.918 368.261 138.918Z" fill="white"/>
</g>
<g style="mix-blend-mode:overlay" opacity="0.5">
<path d="M416.424 180.423C415.44 181.158 414.215 181.525 412.973 181.458C411.731 181.39 410.556 180.892 409.665 180.056C408.773 179.219 408.224 178.1 408.118 176.904C408.013 175.707 408.358 174.515 409.091 173.545C410.063 172.619 411.374 172.101 412.74 172.101C414.106 172.101 415.417 172.619 416.389 173.545C417.317 174.463 417.84 175.694 417.846 176.977C417.853 178.26 417.343 179.496 416.424 180.423Z" fill="white"/>
</g>
<g style="mix-blend-mode:overlay" opacity="0.5">
<path d="M457.323 224.885C460.175 224.885 462.487 222.654 462.487 219.901C462.487 217.148 460.175 214.917 457.323 214.917C454.471 214.917 452.159 217.148 452.159 219.901C452.159 222.654 454.471 224.885 457.323 224.885Z" fill="white"/>
</g>
<g style="mix-blend-mode:overlay" opacity="0.5">
<path d="M196.403 46.905C199.255 46.905 201.567 44.6734 201.567 41.9205C201.567 39.1677 199.255 36.936 196.403 36.936C193.551 36.936 191.24 39.1677 191.24 41.9205C191.24 44.6734 193.551 46.905 196.403 46.905Z" fill="white"/>
</g>
<g style="mix-blend-mode:overlay" opacity="0.5">
<path d="M244.601 88.4083C243.879 89.1061 242.959 89.5813 241.957 89.7741C240.955 89.967 239.916 89.8687 238.972 89.4916C238.028 89.1145 237.222 88.4757 236.654 87.6559C236.086 86.836 235.783 85.8721 235.783 84.886C235.783 83.8998 236.086 82.9359 236.654 82.116C237.222 81.2962 238.028 80.6574 238.972 80.2803C239.916 79.9032 240.955 79.8047 241.957 79.9976C242.959 80.1904 243.879 80.6658 244.601 81.3636C245.559 82.3024 246.097 83.5677 246.097 84.886C246.097 86.2042 245.559 87.4695 244.601 88.4083Z" fill="white"/>
</g>
<g style="mix-blend-mode:overlay" opacity="0.5">
<path d="M289.114 131.409C288.39 132.102 287.47 132.572 286.47 132.761C285.469 132.95 284.433 132.849 283.492 132.471C282.551 132.092 281.747 131.453 281.181 130.635C280.616 129.816 280.314 128.854 280.314 127.87C280.314 126.886 280.616 125.923 281.181 125.105C281.747 124.286 282.551 123.647 283.492 123.269C284.433 122.89 285.469 122.789 286.47 122.978C287.47 123.167 288.39 123.638 289.114 124.331C290.083 125.271 290.627 126.543 290.627 127.87C290.627 129.196 290.083 130.468 289.114 131.409Z" fill="white"/>
</g>
<g style="mix-blend-mode:overlay" opacity="0.5">
<path d="M333.662 174.376C332.94 175.073 332.02 175.549 331.018 175.742C330.016 175.934 328.977 175.836 328.033 175.459C327.089 175.082 326.282 174.443 325.715 173.623C325.147 172.803 324.844 171.839 324.844 170.853C324.844 169.867 325.147 168.903 325.715 168.083C326.282 167.263 327.089 166.625 328.033 166.248C328.977 165.87 330.016 165.772 331.018 165.965C332.02 166.158 332.94 166.633 333.662 167.331C334.621 168.27 335.158 169.535 335.158 170.853C335.158 172.172 334.621 173.437 333.662 174.376Z" fill="white"/>
</g>
<g style="mix-blend-mode:overlay" opacity="0.5">
<path d="M378.107 217.375C377.383 218.068 376.463 218.539 375.462 218.728C374.462 218.917 373.425 218.816 372.484 218.437C371.543 218.059 370.739 217.42 370.173 216.601C369.608 215.782 369.306 214.82 369.306 213.836C369.306 212.852 369.608 211.89 370.173 211.071C370.739 210.252 371.543 209.613 372.484 209.235C373.425 208.856 374.462 208.755 375.462 208.944C376.463 209.133 377.383 209.604 378.107 210.297C379.076 211.237 379.62 212.51 379.62 213.836C379.62 215.162 379.076 216.435 378.107 217.375Z" fill="white"/>
</g>
<g style="mix-blend-mode:overlay" opacity="0.5">
<path d="M419.075 261.804C421.927 261.804 424.239 259.572 424.239 256.819C424.239 254.066 421.927 251.834 419.075 251.834C416.223 251.834 413.911 254.066 413.911 256.819C413.911 259.572 416.223 261.804 419.075 261.804Z" fill="white"/>
</g>
<g style="mix-blend-mode:overlay" opacity="0.5">
<path d="M158.155 83.8231C161.007 83.8231 163.319 81.5915 163.319 78.8386C163.319 76.0857 161.007 73.854 158.155 73.854C155.303 73.854 152.991 76.0857 152.991 78.8386C152.991 81.5915 155.303 83.8231 158.155 83.8231Z" fill="white"/>
</g>
<g style="mix-blend-mode:overlay" opacity="0.5">
<path d="M206.353 125.328C205.631 126.025 204.711 126.501 203.709 126.694C202.707 126.886 201.668 126.788 200.724 126.411C199.78 126.034 198.973 125.395 198.406 124.575C197.838 123.755 197.535 122.791 197.535 121.805C197.535 120.819 197.838 119.855 198.406 119.035C198.973 118.215 199.78 117.577 200.724 117.2C201.668 116.822 202.707 116.724 203.709 116.917C204.711 117.11 205.631 117.585 206.353 118.283C207.311 119.222 207.849 120.487 207.849 121.805C207.849 123.123 207.311 124.389 206.353 125.328Z" fill="white"/>
</g>
<g style="mix-blend-mode:overlay" opacity="0.5">
<path d="M250.729 168.327C250.005 169.02 249.085 169.491 248.084 169.68C247.084 169.869 246.047 169.768 245.106 169.389C244.165 169.011 243.361 168.372 242.795 167.553C242.23 166.734 241.928 165.772 241.928 164.788C241.928 163.804 242.23 162.841 242.795 162.023C243.361 161.204 244.165 160.565 245.106 160.187C246.047 159.808 247.084 159.707 248.084 159.896C249.085 160.085 250.005 160.556 250.729 161.249C251.698 162.189 252.242 163.461 252.242 164.788C252.242 166.114 251.698 167.387 250.729 168.327Z" fill="white"/>
</g>
<g style="mix-blend-mode:overlay" opacity="0.5">
<path d="M295.483 211.294C294.761 211.992 293.841 212.468 292.839 212.66C291.837 212.853 290.799 212.755 289.855 212.378C288.911 212.001 288.104 211.362 287.536 210.542C286.969 209.722 286.666 208.758 286.666 207.772C286.666 206.786 286.969 205.822 287.536 205.002C288.104 204.182 288.911 203.543 289.855 203.166C290.799 202.789 291.837 202.691 292.839 202.884C293.841 203.077 294.761 203.552 295.483 204.25C296.442 205.188 296.979 206.454 296.979 207.772C296.979 209.09 296.442 210.356 295.483 211.294Z" fill="white"/>
</g>
<g style="mix-blend-mode:overlay" opacity="0.5">
<path d="M336.278 255.722C339.13 255.722 341.442 253.49 341.442 250.737C341.442 247.985 339.13 245.753 336.278 245.753C333.426 245.753 331.114 247.985 331.114 250.737C331.114 253.49 333.426 255.722 336.278 255.722Z" fill="white"/>
</g>
<g style="mix-blend-mode:overlay" opacity="0.5">
<path d="M384.475 297.261C383.754 297.958 382.834 298.434 381.832 298.627C380.83 298.82 379.791 298.721 378.847 298.344C377.903 297.967 377.097 297.328 376.529 296.508C375.961 295.688 375.658 294.724 375.658 293.738C375.658 292.752 375.961 291.788 376.529 290.968C377.097 290.149 377.903 289.51 378.847 289.133C379.791 288.756 380.83 288.657 381.832 288.85C382.834 289.043 383.754 289.518 384.475 290.216C385.442 291.151 385.986 292.417 385.986 293.738C385.986 295.059 385.442 296.326 384.475 297.261Z" fill="white"/>
</g>
<g style="mix-blend-mode:overlay" opacity="0.5">
<path d="M123.557 119.28C122.578 120.161 121.283 120.64 119.945 120.617C118.607 120.595 117.331 120.071 116.385 119.158C115.439 118.245 114.897 117.013 114.873 115.722C114.85 114.43 115.346 113.18 116.258 112.235C116.731 111.746 117.301 111.353 117.935 111.08C118.568 110.808 119.252 110.662 119.945 110.65C120.639 110.638 121.327 110.761 121.97 111.012C122.613 111.262 123.198 111.635 123.688 112.109C124.178 112.582 124.565 113.146 124.824 113.767C125.084 114.387 125.212 115.052 125.2 115.722C125.187 116.391 125.035 117.051 124.753 117.662C124.471 118.274 124.064 118.824 123.557 119.28Z" fill="white"/>
</g>
<g style="mix-blend-mode:overlay" opacity="0.5">
<path d="M164.456 163.709C167.308 163.709 169.62 161.477 169.62 158.724C169.62 155.971 167.308 153.74 164.456 153.74C161.604 153.74 159.292 155.971 159.292 158.724C159.292 161.477 161.604 163.709 164.456 163.709Z" fill="white"/>
</g>
<g style="mix-blend-mode:overlay" opacity="0.5">
<path d="M212.618 205.246C211.646 206.172 210.335 206.69 208.969 206.69C207.603 206.69 206.292 206.172 205.32 205.246C204.597 204.549 204.105 203.661 203.905 202.694C203.705 201.727 203.807 200.724 204.198 199.813C204.588 198.902 205.25 198.123 206.099 197.575C206.949 197.027 207.947 196.735 208.969 196.735C209.991 196.735 210.989 197.027 211.839 197.575C212.688 198.123 213.35 198.902 213.74 199.813C214.131 200.724 214.233 201.727 214.033 202.694C213.834 203.661 213.341 204.549 212.618 205.246Z" fill="white"/>
</g>
<g style="mix-blend-mode:overlay" opacity="0.5">
<path d="M253.517 249.676C256.369 249.676 258.681 247.444 258.681 244.691C258.681 241.938 256.369 239.707 253.517 239.707C250.665 239.707 248.353 241.938 248.353 244.691C248.353 247.444 250.665 249.676 253.517 249.676Z" fill="white"/>
</g>
<g style="mix-blend-mode:overlay" opacity="0.5">
<path d="M301.68 291.213C300.956 291.906 300.036 292.377 299.035 292.566C298.035 292.755 296.998 292.654 296.057 292.275C295.116 291.897 294.312 291.258 293.747 290.439C293.181 289.62 292.879 288.658 292.879 287.674C292.879 286.69 293.181 285.728 293.747 284.909C294.312 284.09 295.116 283.451 296.057 283.073C296.998 282.694 298.035 282.593 299.035 282.782C300.036 282.971 300.956 283.442 301.68 284.135C302.649 285.075 303.193 286.348 303.193 287.674C303.193 289 302.649 290.273 301.68 291.213Z" fill="white"/>
</g>
<g style="mix-blend-mode:overlay" opacity="0.5">
<path d="M346.228 334.179C345.506 334.877 344.586 335.352 343.584 335.545C342.582 335.738 341.544 335.64 340.6 335.263C339.656 334.886 338.849 334.247 338.281 333.427C337.713 332.607 337.41 331.643 337.41 330.657C337.41 329.671 337.713 328.707 338.281 327.887C338.849 327.067 339.656 326.428 340.6 326.051C341.544 325.674 342.582 325.576 343.584 325.769C344.586 325.961 345.506 326.437 346.228 327.134C347.195 328.069 347.738 329.336 347.738 330.657C347.738 331.978 347.195 333.245 346.228 334.179Z" fill="white"/>
</g>
<g style="mix-blend-mode:overlay" opacity="0.5">
<path d="M85.4811 156.198C84.5022 157.079 83.2073 157.558 81.8695 157.535C80.5316 157.512 79.2552 156.989 78.3091 156.076C77.3629 155.163 76.821 153.931 76.7974 152.639C76.7738 151.348 77.2704 150.098 78.1826 149.153C79.1615 148.273 80.4562 147.793 81.794 147.816C83.1319 147.839 84.4085 148.362 85.3546 149.276C86.3008 150.189 86.8427 151.421 86.8663 152.712C86.8899 154.003 86.3933 155.253 85.4811 156.198Z" fill="white"/>
</g>
<g style="mix-blend-mode:overlay" opacity="0.5">
<path d="M129.857 199.164C129.135 199.862 128.215 200.337 127.213 200.53C126.211 200.723 125.172 200.625 124.228 200.248C123.284 199.871 122.477 199.232 121.91 198.412C121.342 197.592 121.039 196.628 121.039 195.642C121.039 194.656 121.342 193.692 121.91 192.872C122.477 192.052 123.284 191.413 124.228 191.036C125.172 190.659 126.211 190.561 127.213 190.753C128.215 190.946 129.135 191.422 129.857 192.12C130.816 193.058 131.353 194.324 131.353 195.642C131.353 196.96 130.816 198.226 129.857 199.164Z" fill="white"/>
</g>
<g style="mix-blend-mode:overlay" opacity="0.5">
<path d="M170.721 243.627C173.573 243.627 175.885 241.395 175.885 238.642C175.885 235.889 173.573 233.658 170.721 233.658C167.869 233.658 165.557 235.889 165.557 238.642C165.557 241.395 167.869 243.627 170.721 243.627Z" fill="white"/>
</g>
<g style="mix-blend-mode:overlay" opacity="0.5">
<path d="M215.269 286.594C218.121 286.594 220.433 284.363 220.433 281.61C220.433 278.857 218.121 276.625 215.269 276.625C212.417 276.625 210.105 278.857 210.105 281.61C210.105 284.363 212.417 286.594 215.269 286.594Z" fill="white"/>
</g>
<g style="mix-blend-mode:overlay" opacity="0.5">
<path d="M259.783 329.594C262.635 329.594 264.946 327.362 264.946 324.609C264.946 321.856 262.635 319.625 259.783 319.625C256.931 319.625 254.619 321.856 254.619 324.609C254.619 327.362 256.931 329.594 259.783 329.594Z" fill="white"/>
</g>
<g style="mix-blend-mode:overlay" opacity="0.5">
<path d="M307.98 371.099C307.258 371.797 306.338 372.272 305.336 372.465C304.334 372.657 303.295 372.559 302.351 372.182C301.407 371.805 300.601 371.166 300.033 370.346C299.465 369.527 299.162 368.563 299.162 367.576C299.162 366.59 299.465 365.626 300.033 364.806C300.601 363.987 301.407 363.348 302.351 362.971C303.295 362.594 304.334 362.495 305.336 362.688C306.338 362.881 307.258 363.356 307.98 364.054C308.947 364.989 309.49 366.255 309.49 367.576C309.49 368.897 308.947 370.164 307.98 371.099Z" fill="white"/>
</g>
<g style="mix-blend-mode:overlay" opacity="0.5">
<path d="M43.412 194.578C46.2639 194.578 48.5759 192.347 48.5759 189.594C48.5759 186.841 46.2639 184.609 43.412 184.609C40.56 184.609 38.248 186.841 38.248 189.594C38.248 192.347 40.56 194.578 43.412 194.578Z" fill="white"/>
</g>
<g style="mix-blend-mode:overlay" opacity="0.5">
<path d="M87.9597 237.546C90.8117 237.546 93.1237 235.315 93.1237 232.562C93.1237 229.809 90.8117 227.577 87.9597 227.577C85.1077 227.577 82.7957 229.809 82.7957 232.562C82.7957 235.315 85.1077 237.546 87.9597 237.546Z" fill="white"/>
</g>
<g style="mix-blend-mode:overlay" opacity="0.5">
<path d="M136.122 279.084C135.15 280.009 133.839 280.528 132.473 280.528C131.107 280.528 129.797 280.009 128.824 279.084C128.101 278.387 127.609 277.499 127.409 276.532C127.209 275.565 127.311 274.562 127.702 273.651C128.092 272.74 128.754 271.961 129.604 271.413C130.453 270.865 131.452 270.573 132.473 270.573C133.495 270.573 134.493 270.865 135.343 271.413C136.192 271.961 136.854 272.74 137.245 273.651C137.635 274.562 137.737 275.565 137.537 276.532C137.338 277.499 136.845 278.387 136.122 279.084Z" fill="white"/>
</g>
<g style="mix-blend-mode:overlay" opacity="0.5">
<path d="M180.671 322.05C179.949 322.748 179.029 323.223 178.027 323.416C177.025 323.609 175.986 323.511 175.042 323.133C174.098 322.756 173.291 322.118 172.724 321.298C172.156 320.478 171.853 319.514 171.853 318.528C171.853 317.542 172.156 316.578 172.724 315.758C173.291 314.938 174.098 314.299 175.042 313.922C175.986 313.545 177.025 313.446 178.027 313.639C179.029 313.832 179.949 314.307 180.671 315.005C181.638 315.94 182.181 317.207 182.181 318.528C182.181 319.849 181.638 321.116 180.671 322.05Z" fill="white"/>
</g>
<g style="mix-blend-mode:overlay" opacity="0.5">
<path d="M221.535 366.513C224.387 366.513 226.699 364.281 226.699 361.528C226.699 358.775 224.387 356.543 221.535 356.543C218.683 356.543 216.371 358.775 216.371 361.528C216.371 364.281 218.683 366.513 221.535 366.513Z" fill="white"/>
</g>
<g style="mix-blend-mode:overlay" opacity="0.5">
<path d="M266.049 409.479C268.901 409.479 271.213 407.247 271.213 404.495C271.213 401.742 268.901 399.51 266.049 399.51C263.197 399.51 260.885 401.742 260.885 404.495C260.885 407.247 263.197 409.479 266.049 409.479Z" fill="white"/>
</g>
<g style="mix-blend-mode:overlay" opacity="0.5">
<path d="M5.16391 231.499C8.01585 231.499 10.3278 229.267 10.3278 226.514C10.3278 223.761 8.01585 221.53 5.16391 221.53C2.31196 221.53 0 223.761 0 226.514C0 229.267 2.31196 231.499 5.16391 231.499Z" fill="white"/>
</g>
<g style="mix-blend-mode:overlay" opacity="0.5">
<path d="M53.3609 273.002C52.393 273.941 51.0786 274.47 49.7067 274.473C48.3347 274.476 47.0177 273.953 46.0453 273.019C45.0729 272.084 44.525 270.816 44.5217 269.491C44.5185 268.167 45.0603 266.896 46.0281 265.957C46.5073 265.492 47.0768 265.123 47.7038 264.871C48.3308 264.619 49.003 264.488 49.6823 264.486C50.3616 264.485 51.0347 264.612 51.6629 264.862C52.2911 265.111 52.8622 265.478 53.3436 265.941C53.8251 266.403 54.2076 266.953 54.469 267.558C54.7305 268.163 54.8658 268.812 54.8674 269.468C54.869 270.124 54.7368 270.773 54.4783 271.38C54.2198 271.986 53.8401 272.537 53.3609 273.002Z" fill="white"/>
</g>
<g style="mix-blend-mode:overlay" opacity="0.5">
<path d="M97.8744 316.003C96.9018 316.928 95.5909 317.447 94.2252 317.447C92.8595 317.447 91.5486 316.928 90.576 316.003C89.8531 315.306 89.3608 314.418 89.161 313.451C88.9612 312.484 89.063 311.481 89.4537 310.57C89.8444 309.659 90.5062 308.88 91.3555 308.332C92.2049 307.784 93.2036 307.492 94.2252 307.492C95.2468 307.492 96.2455 307.784 97.0949 308.332C97.9442 308.88 98.6062 309.659 98.9969 310.57C99.3876 311.481 99.4894 312.484 99.2896 313.451C99.0898 314.418 98.5973 315.306 97.8744 316.003Z" fill="white"/>
</g>
<g style="mix-blend-mode:overlay" opacity="0.5">
<path d="M142.422 358.969C141.7 359.667 140.78 360.142 139.778 360.335C138.777 360.528 137.738 360.429 136.794 360.052C135.85 359.675 135.043 359.036 134.476 358.216C133.908 357.396 133.605 356.432 133.605 355.446C133.605 354.46 133.908 353.496 134.476 352.676C135.043 351.857 135.85 351.218 136.794 350.841C137.738 350.464 138.777 350.365 139.778 350.558C140.78 350.751 141.7 351.226 142.422 351.924C143.389 352.859 143.933 354.125 143.933 355.446C143.933 356.767 143.389 358.034 142.422 358.969Z" fill="white"/>
</g>
<g style="mix-blend-mode:overlay" opacity="0.5">
<path d="M186.936 401.969C185.963 402.894 184.652 403.413 183.287 403.413C181.921 403.413 180.61 402.894 179.637 401.969C178.915 401.272 178.422 400.384 178.223 399.417C178.023 398.45 178.125 397.447 178.515 396.536C178.906 395.625 179.568 394.846 180.417 394.298C181.267 393.75 182.265 393.458 183.287 393.458C184.308 393.458 185.307 393.75 186.156 394.298C187.006 394.846 187.668 395.625 188.058 396.536C188.449 397.447 188.551 398.45 188.351 399.417C188.151 400.384 187.659 401.272 186.936 401.969Z" fill="white"/>
</g>
<g style="mix-blend-mode:overlay" opacity="0.5">
<path d="M227.801 446.398C230.653 446.398 232.965 444.166 232.965 441.413C232.965 438.66 230.653 436.429 227.801 436.429C224.949 436.429 222.637 438.66 222.637 441.413C222.637 444.166 224.949 446.398 227.801 446.398Z" fill="white"/>
</g>
</g>
</svg>
