<svg width="25" height="25" viewBox="0 0 25 25" fill="none" xmlns="http://www.w3.org/2000/svg">
<g clip-path="url(#clip0)">
<path d="M20.9503 0H4.04968C1.81313 0 0 1.81313 0 4.04968V20.9503C0 23.1869 1.81313 25 4.04968 25H20.9503C23.1869 25 25 23.1869 25 20.9503V4.04968C25 1.81313 23.1869 0 20.9503 0Z" fill="#B2E59C"/>
<path d="M13.9896 0H4.04968C1.81313 0 0 1.81313 0 4.04968V20.9503C0 23.1869 1.81313 25 4.04968 25H9.26437C5.15995 20.0779 6.70528 10.9819 9.8053 7.43351C12.7989 4.00715 13.7127 1.26457 13.9896 0V0Z" fill="#9AD880"/>
<path d="M11.4001 18.6659C10.8866 18.6659 10.3913 18.4695 10.0169 18.1149L4.7486 13.1277C3.9416 12.3638 3.9067 11.0903 4.67059 10.2833C5.43448 9.47631 6.70783 9.44122 7.51502 10.2053L11.2841 13.7732L17.372 7.00115C18.1149 6.1747 19.3871 6.10718 20.2136 6.8499C21.0398 7.59281 21.1076 8.86501 20.3646 9.69146L12.8964 17.9989C12.5336 18.4023 12.0234 18.6423 11.4812 18.6642C11.4541 18.6653 11.427 18.6659 11.4001 18.6659Z" fill="white"/>
<path d="M7.51502 10.2052C6.70783 9.44113 5.43448 9.47622 4.67059 10.2832C3.9067 11.0902 3.9416 12.3638 4.7486 13.1277L6.88464 15.1498C7.05916 13.5412 7.43949 11.9895 7.96706 10.6332L7.51502 10.2052Z" fill="#CCF8FF"/>
</g>
<defs>
<clipPath id="clip0">
<rect width="25" height="25" fill="white"/>
</clipPath>
</defs>
</svg>
