<svg width="60" height="64" viewBox="0 0 60 64" fill="none" xmlns="http://www.w3.org/2000/svg">
<path d="M59.6599 26.4814C59.6599 23.63 58.8212 21.6563 57.5621 19.5702L46.2982 0.909044C45.953 0.337221 45.3285 -0.0111394 44.6626 0.000272009C43.9947 0.00917539 43.3817 0.371706 43.052 0.952557L33.6879 17.4513L23.7108 0.909671C23.3659 0.337472 22.7386 -0.00913297 22.0752 0.000397408C21.4072 0.00917539 20.794 0.371706 20.4642 0.952683L3.25789 31.2684C1.34906 34.6317 0.339966 38.4535 0.339966 42.3208C0.339966 54.4773 10.1753 63.9999 22.7311 63.9999C28.7537 63.9999 34.3597 61.866 38.5165 57.9912C42.7762 54.0206 45.1222 48.5602 45.1222 42.6162C45.1222 42.1161 45.102 41.5925 45.0646 41.0624C45.0693 41.0624 45.0739 41.0625 45.0786 41.0625C53.1188 41.0627 59.6599 34.5216 59.6599 26.4814ZM44.7379 5.60388L54.3413 21.5142C55.4906 23.4183 55.8979 24.7181 55.8979 26.4814C55.8979 32.4472 51.0443 37.3007 45.0786 37.3007C39.1128 37.3007 34.2592 32.4472 34.2592 26.4814C34.2592 24.9631 34.58 23.6762 35.3478 22.1775C35.3934 22.1032 35.4336 22.0262 35.4683 21.947C35.5326 21.8267 35.5991 21.7052 35.6692 21.5818L44.7379 5.60388ZM41.3603 42.6162C41.3603 47.5052 39.4395 51.9882 35.9515 55.2395C32.4935 58.4627 27.7984 60.2379 22.7311 60.2379C17.6916 60.2379 13.0018 58.4151 9.52524 55.1053C6.02797 51.7758 4.10196 47.2355 4.10196 42.3208C4.10196 39.1033 4.94138 35.9235 6.52957 33.1254L22.1494 5.60476L31.6063 21.2841C30.8382 23.0097 30.4972 24.6358 30.4972 26.4813C30.4972 33.1943 35.0576 38.8614 41.2428 40.5496C41.3188 41.2554 41.3603 41.9697 41.3603 42.6162Z" fill="white"/>
</svg>
