<svg width="64" height="64" viewBox="0 0 64 64" fill="none" xmlns="http://www.w3.org/2000/svg">
<g clip-path="url(#clip0)">
<path d="M2.22893 19.3436C3.46019 19.3436 4.45786 18.3456 4.45786 17.1146V7.61107L18.8137 21.9639C19.249 22.399 19.8193 22.6165 20.3897 22.6165C20.9603 22.6165 21.5309 22.399 21.966 21.9636C22.8364 21.0931 22.8364 19.6818 21.9657 18.8116L7.60927 4.45847H17.1149C18.3459 4.45847 19.3438 3.4605 19.3438 2.22954C19.3438 0.998576 18.3462 0.000610352 17.1149 0.000610352H2.22893C0.997669 0.000610352 0 0.998576 0 2.22954V17.1149C0 18.3456 0.997669 19.3436 2.22893 19.3436Z" fill="white"/>
<path d="M61.7711 44.6565C60.5398 44.6565 59.5421 45.6545 59.5421 46.8854V56.3893L44.7444 41.5916C43.8737 40.7211 42.4626 40.7211 41.5921 41.5916C40.7217 42.462 40.7217 43.8734 41.5921 44.7436L56.3895 59.541H46.8863C45.655 59.541 44.6573 60.539 44.6573 61.7699C44.6573 63.0009 45.655 63.9989 46.8863 63.9989H61.7714C63.0026 63.9989 64.0003 63.0009 64.0003 61.7699V46.8854C64 45.6545 63.002 44.6565 61.7711 44.6565Z" fill="white"/>
<path d="M19.2556 41.5915L4.45932 56.3889V46.8853C4.45932 45.6544 3.46166 44.6564 2.23039 44.6564C0.999134 44.6564 0.00146484 45.6544 0.00146484 46.8853V61.7704C0.00146484 63.0014 0.999134 63.9994 2.23039 63.9994H17.1149C18.3459 63.9994 19.3438 63.0014 19.3438 61.7704C19.3438 60.5395 18.3461 59.5415 17.1149 59.5415H7.61133L22.4079 44.7435C23.2783 43.873 23.2783 42.4617 22.4076 41.5912C21.5377 40.721 20.1263 40.721 19.2556 41.5915Z" fill="white"/>
<path d="M61.7711 0.000610352H46.886C45.6547 0.000610352 44.657 0.998576 44.657 2.22954C44.657 3.4605 45.6547 4.45847 46.886 4.45847H56.3898L42.0361 18.8131C41.1656 19.6835 41.1656 21.0949 42.0364 21.9654C42.4715 22.4005 43.0421 22.618 43.6124 22.618C44.1827 22.618 44.7533 22.4002 45.1887 21.9651L59.5424 7.61047V17.1146C59.5424 18.3456 60.5401 19.3436 61.7714 19.3436C63.0026 19.3436 64.0003 18.3456 64.0003 17.1146V2.22954C64 0.998279 63.002 0.000610352 61.7711 0.000610352Z" fill="white"/>
</g>
<defs>
<clipPath id="clip0">
<rect width="64" height="64" fill="white"/>
</clipPath>
</defs>
</svg>
