<svg width="64" height="64" viewBox="0 0 64 64" fill="none" xmlns="http://www.w3.org/2000/svg">
<path d="M3 47.5C3 47.863 3.197 48.199 3.516 48.375L31.516 63.875C31.666 63.958 31.833 64 32 64C32.167 64 32.334 63.958 32.484 63.875L60.484 48.375C60.803 48.199 61 47.863 61 47.5C61 47.137 60.803 46.801 60.484 46.625L48.064 39.75L60.484 32.875C60.803 32.699 61 32.363 61 32C61 31.637 60.803 31.302 60.484 31.125L48.065 24.25L60.484 17.375C60.803 17.199 61 16.863 61 16.5C61 16.137 60.803 15.801 60.484 15.625L32.484 0.124988C32.183 -0.0410117 31.816 -0.0410117 31.515 0.124988L3.515 15.625C3.197 15.801 3 16.137 3 16.5C3 16.863 3.197 17.199 3.516 17.375L15.935 24.25L3.516 31.125C3.197 31.302 3 31.637 3 32C3 32.363 3.197 32.699 3.516 32.875L15.936 39.75L3.516 46.625C3.197 46.801 3 47.137 3 47.5ZM29.935 47.5L17.995 54.104L13.064 51.375L25 44.769L29.935 47.5ZM32 61.857L27.058 59.121L52.996 44.766L57.936 47.5L32 61.857ZM50.93 43.622L24.992 57.979L20.059 55.249L32.484 48.376L46 40.894L50.93 43.622ZM17.995 9.89599L22.931 12.627L17.998 15.356L13.063 12.625L17.995 9.89599ZM24.992 6.02099L29.929 8.75299L24.996 11.482L20.06 8.75099L24.992 6.02099ZM43.934 8.74899L38.993 11.484L34.059 8.75399L39.001 6.01899L43.934 8.74899ZM50.93 12.622L45.99 15.356L41.057 12.627L45.999 9.89299L50.93 12.622ZM38.992 19.229L34.059 16.5L38.993 13.77L43.925 16.5L38.992 19.229ZM45.989 17.644L50.929 20.378L45.998 23.107L41.057 20.373L45.989 17.644ZM36.927 20.373L31.994 23.103L27.06 20.373L31.994 17.643L36.927 20.373ZM36.926 12.627L31.994 15.356L27.06 12.627L31.994 9.89699L36.926 12.627ZM24.996 13.77L29.928 16.5L24.995 19.229L20.063 16.5L24.996 13.77ZM22.93 20.373L17.994 23.104L13.063 20.375L17.998 17.644L22.93 20.373ZM24.995 21.516L29.929 24.246L24.992 26.978L20.059 24.247L24.995 21.516ZM31.994 25.39L36.935 28.125L32 30.857L27.058 28.121L31.994 25.39ZM39.001 26.981L34.059 24.246L38.993 21.516L43.934 24.251L39.001 26.981ZM52.995 19.234L48.055 16.5L52.995 13.766L57.935 16.5L52.995 19.234ZM32 2.14299L36.936 4.87499L31.994 7.60999L27.057 4.87899L32 2.14299ZM10.998 13.769L15.933 16.5L10.998 19.231L6.064 16.5L10.998 13.769ZM18 25.393L31.516 32.875C31.666 32.958 31.833 33 32 33C32.167 33 32.334 32.958 32.484 32.875L46 25.393L57.936 32L32 46.357L6.064 32L18 25.393ZM18 40.894L22.935 43.625L10.998 50.231L6.064 47.5L18 40.894Z" fill="white"/>
</svg>
