<svg width="64" height="64" viewBox="0 0 64 64" fill="none" xmlns="http://www.w3.org/2000/svg">
<g clip-path="url(#clip0)">
<path d="M54.3931 54.3809L54.3765 54.3975C53.8882 54.8857 53.8882 55.6768 54.3765 56.165C54.6206 56.4092 54.9404 56.5312 55.2603 56.5312C55.5801 56.5312 55.9004 56.4092 56.144 56.165L56.1606 56.1489C56.6489 55.6606 56.6489 54.8691 56.1606 54.3809C55.6729 53.8931 54.8813 53.8931 54.3931 54.3809Z" fill="white"/>
<path d="M56.1445 18.335C52.6309 14.8213 48.312 12.4072 43.6045 11.2617V8.50732C45.8901 8.43799 47.7295 6.55811 47.7295 4.25537C47.7295 1.90869 45.8203 0 43.4741 0H30.9844C28.6382 0 26.729 1.90869 26.729 4.25537C26.729 6.55811 28.5679 8.43799 30.854 8.50732V11.2646C28.0537 11.9487 25.3784 13.0854 22.9175 14.6475L16.1245 6.0083C15.6206 5.36719 14.8643 5 14.0493 5C14.0474 5 14.0449 5 14.043 5C13.2251 5.00195 12.4683 5.37305 11.9658 6.01807L3.14502 17.3447C3.14209 17.3486 3.13916 17.3525 3.13623 17.3564C1.11328 19.8477 0 22.9854 0 26.1958C0 32.7451 4.51416 38.2622 10.6021 39.814C11.897 53.4673 23.3755 64 37.2295 64C42.5381 64 47.6685 62.4478 52.0659 59.5117C52.6401 59.1284 52.7949 58.3521 52.4111 57.7778C52.0278 57.2036 51.252 57.0488 50.6777 57.4326C46.6924 60.0933 42.042 61.5 37.2295 61.5C24.8882 61.5 14.6265 52.2812 13.1597 40.2188C13.4673 40.2388 13.7769 40.25 14.0894 40.25C14.9141 40.25 15.7222 40.1782 16.5083 40.042C17.1143 44.5776 19.1909 48.7739 22.437 52.0225C22.4404 52.0259 22.4429 52.0298 22.4463 52.0327C22.4507 52.0371 22.4556 52.0405 22.46 52.0449C22.6606 52.2456 22.8652 52.4434 23.0752 52.6362C26.9429 56.1958 31.9697 58.1562 37.2295 58.1562C42.9351 58.1562 48.1133 55.8579 51.8892 52.1392C51.9316 52.1064 51.9731 52.0718 52.0122 52.0327C52.0513 51.9937 52.0859 51.9521 52.1187 51.9097C55.8369 48.1338 58.1357 42.9556 58.1357 37.25C58.1357 31.5444 55.8369 26.3662 52.1187 22.5903C52.0859 22.5479 51.9316 22.3936 51.8892 22.3608C48.1133 18.6421 42.9351 16.3438 37.2295 16.3438C33.374 16.3438 29.6602 17.3843 26.4009 19.3638C26.0073 18.6572 25.5522 17.9824 25.0381 17.3496C25.0205 17.3237 25.002 17.2983 24.9824 17.2734L24.4717 16.6235C28.2988 14.2505 32.687 13 37.2295 13C50.6006 13 61.4795 23.8784 61.4795 37.25C61.4795 42.0527 60.0781 46.6948 57.4277 50.6743C57.0449 51.249 57.2007 52.0249 57.7749 52.4077C57.9878 52.5498 58.2285 52.6177 58.4668 52.6177C58.8711 52.6177 59.2676 52.4219 59.5083 52.0601C62.4331 47.6689 63.979 42.5474 63.979 37.25C63.9795 30.105 61.1968 23.3872 56.1445 18.335ZM2.5 26.1958C2.5 23.5449 3.42334 20.9551 5.1001 18.9038C5.11572 18.8848 5.12988 18.8657 5.14404 18.8467L13.9385 7.5542C13.9487 7.54053 13.9829 7.49658 14.0493 7.5C14.1172 7.5 14.1489 7.54004 14.1597 7.55371L22.9395 18.7197C22.9668 18.7622 22.9971 18.8037 23.0298 18.8433C24.7383 20.9053 25.6787 23.5166 25.6787 26.1958C25.6787 32.5669 20.48 37.75 14.0894 37.75C7.69922 37.75 2.5 32.5669 2.5 26.1958ZM41.5513 36C41.123 34.5225 39.957 33.356 38.4795 32.9282V18.8872C42.6152 19.166 46.3813 20.8164 49.3242 23.3872L47.4585 25.2529C46.9702 25.7412 46.9702 26.5327 47.4585 27.021C47.7026 27.2651 48.0225 27.3872 48.3423 27.3872C48.6621 27.3872 48.9819 27.2651 49.2261 27.021L51.0918 25.1553C53.6631 28.0981 55.3135 31.8638 55.5923 36H41.5513ZM37.2295 35.25C38.332 35.25 39.2295 36.1475 39.2295 37.25C39.2295 38.3525 38.332 39.25 37.2295 39.25C36.1265 39.25 35.2295 38.3525 35.2295 37.25C35.2295 36.1475 36.1265 35.25 37.2295 35.25ZM35.9795 18.8877V32.9282C34.1045 33.4712 32.7295 35.2026 32.7295 37.25C32.7295 39.7314 34.748 41.75 37.2295 41.75C39.2769 41.75 41.0083 40.375 41.5513 38.5H55.5923C55.3135 42.6362 53.6631 46.4019 51.0918 49.3447L49.2261 47.479C48.7378 46.9912 47.9463 46.9912 47.458 47.479C46.9702 47.9673 46.9702 48.7588 47.458 49.2471L49.3242 51.1128C46.3809 53.6836 42.6152 55.3345 38.479 55.6128V52.9663C38.479 52.2759 37.9194 51.7163 37.229 51.7163C36.5386 51.7163 35.979 52.2759 35.979 52.9663V55.6123C31.8872 55.3301 28.1152 53.6724 25.1558 51.0908L27 49.2471C27.4883 48.7588 27.4883 47.9673 27 47.479C26.5117 46.9912 25.7202 46.9912 25.2324 47.479L23.3857 49.3257C20.9946 46.6001 19.3862 43.1694 18.9463 39.3892C24.3296 37.4111 28.1787 32.2437 28.1787 26.1958C28.1787 24.6484 27.9185 23.1206 27.4248 21.6729C30.0073 20.042 32.9272 19.0918 35.9795 18.8877ZM29.2295 4.25537C29.2295 3.2876 30.0166 2.5 30.9844 2.5H43.4741C44.4419 2.5 45.2295 3.2876 45.2295 4.25537C45.2295 5.22314 44.4419 6.01025 43.4741 6.01025H30.9849C30.0166 6.01025 29.2295 5.22314 29.2295 4.25537ZM33.3545 10.7793V8.51025H41.1045V10.7778C39.832 10.5942 38.5381 10.5 37.2295 10.5C35.9233 10.5 34.6289 10.5947 33.3545 10.7793Z" fill="white"/>
<path d="M20.4375 24.9458C19.7471 24.9458 19.1875 25.5059 19.1875 26.1958C19.1875 28.9976 16.9004 31.2769 14.0894 31.2769C13.3989 31.2769 12.8394 31.8364 12.8394 32.5269C12.8394 33.2168 13.3989 33.7769 14.0894 33.7769C18.2788 33.7769 21.6875 30.376 21.6875 26.1958C21.6875 25.5059 21.1279 24.9458 20.4375 24.9458Z" fill="white"/>
</g>
<defs>
<clipPath id="clip0">
<rect width="64" height="64" fill="white"/>
</clipPath>
</defs>
</svg>
