<svg width="94" height="55" viewBox="0 0 94 55" fill="none" xmlns="http://www.w3.org/2000/svg">
<path d="M89.9555 27.1498C89.9555 27.1498 89.9555 27.1497 89.841 26.9841C89.8075 26.9311 89.7685 26.8819 89.7244 26.8373L89.6121 26.6529C89.6121 26.6529 89.6228 26.5588 89.4976 26.4873L89.3852 26.3028C89.3852 26.3028 89.3853 26.3028 89.2708 26.1372C89.2373 26.0842 89.1982 26.035 89.1541 25.9904L89.0418 25.806C89.0418 25.806 89.0525 25.7119 88.9273 25.6404L88.815 25.4559C88.815 25.4559 88.815 25.4559 88.7005 25.2903C88.667 25.2373 88.6279 25.1881 88.5838 25.1435L88.4715 24.9591C88.4715 24.9591 88.4823 24.865 88.357 24.7935L65.5987 3.77252C65.3288 3.51923 64.9906 3.35061 64.6259 3.28743C64.2612 3.22424 63.8859 3.26928 63.5465 3.41702C63.2072 3.56475 62.9185 3.80868 62.7162 4.11868C62.514 4.42867 62.407 4.79114 62.4085 5.16127L62.3932 15.4541L6.48036 13.4386C6.22898 13.4281 5.97802 13.4679 5.74214 13.5554C5.50627 13.643 5.2902 13.7767 5.10656 13.9486C4.92608 14.1198 4.78105 14.3248 4.67981 14.552C4.57857 14.7792 4.52308 15.0242 4.51649 15.2728L3.79174 39.5918C3.78493 39.8512 3.83147 40.1092 3.92854 40.3499C4.02561 40.5906 4.17108 40.8088 4.35597 40.9909L4.46832 41.1753L4.58067 41.3597L4.69302 41.5442L4.80532 41.7286L4.91767 41.913L5.03001 42.0975L5.14237 42.2819L5.25472 42.4664L5.36701 42.6508L5.47936 42.8352L5.59171 43.0196L5.70406 43.2041L5.81636 43.3885L5.9287 43.573C6.11548 43.7575 6.33859 43.9012 6.58385 43.9949C6.82911 44.0886 7.09116 44.1303 7.35339 44.1173L61.7272 41.5909L61.7665 47.4099C61.7746 47.8491 61.9352 48.2719 62.2207 48.6058L62.3873 48.8155C62.4375 48.8895 62.4932 48.9596 62.5539 49.0252L62.7206 49.2349L62.8872 49.4446C62.9374 49.5186 62.9931 49.5887 63.0539 49.6543L63.2204 49.864C63.2706 49.938 63.3264 50.0082 63.3871 50.0738L63.5537 50.2835L63.7204 50.4932C63.7706 50.5672 63.8263 50.6373 63.887 50.7029L64.0536 50.9126C64.1038 50.9866 64.1595 51.0567 64.2203 51.1223L64.3869 51.3321C64.5921 51.6648 64.8951 51.9259 65.2545 52.0796C65.426 52.127 65.6037 52.1474 65.7814 52.1399C66.0578 52.172 66.3379 52.1428 66.6017 52.0543C66.8655 51.9659 67.1067 51.8204 67.3079 51.6283L89.9819 29.917C90.1672 29.738 90.314 29.523 90.4134 29.2853C90.5127 29.0475 90.5624 28.792 90.5596 28.5343C90.5593 28.2744 90.5055 28.0174 90.4016 27.7792C90.2976 27.541 90.1458 27.3268 89.9555 27.1498Z" fill="black"/>
<path d="M5.51656 14.5293L4.79173 38.8484L63.4201 36.2942L63.4972 47.1123L86.1712 25.4011L63.4128 4.38018L63.3848 16.6161L5.51656 14.5293Z" fill="#FFB72B"/>
<path d="M63.2818 48.9942C63.1041 49.0017 62.9264 48.9814 62.755 48.9339C62.4141 48.7895 62.1229 48.5483 61.9176 48.2401C61.7124 47.932 61.6019 47.5705 61.5999 47.2003L61.5267 38.3462L4.87319 40.8023C4.61237 40.8155 4.35165 40.7746 4.1074 40.6822C3.86315 40.5898 3.64066 40.4479 3.45388 40.2654C3.26709 40.0829 3.12008 39.8637 3.02205 39.6217C2.92402 39.3796 2.87706 39.1199 2.88421 38.8589L3.60903 14.5398C3.61562 14.2912 3.6711 14.0463 3.77234 13.8191C3.87358 13.5919 4.01855 13.3869 4.19903 13.2157C4.38267 13.0437 4.59875 12.91 4.83462 12.8225C5.0705 12.7349 5.32145 12.6952 5.57283 12.7057L61.4857 14.7212L61.5198 4.43046C61.512 4.05499 61.6159 3.6857 61.8184 3.36943C62.021 3.05316 62.3129 2.8042 62.6573 2.65426C62.9927 2.50558 63.364 2.45754 63.7263 2.51592C64.0885 2.57431 64.4259 2.73663 64.6976 2.98317L87.456 24.0041C87.6462 24.1811 87.7981 24.3953 87.902 24.6335C88.0059 24.8717 88.0597 25.1288 88.06 25.3887C88.0628 25.6463 88.0131 25.9018 87.9138 26.1396C87.8145 26.3774 87.6676 26.5923 87.4823 26.7714L64.8083 48.4826C64.6071 48.6748 64.366 48.8203 64.1021 48.9087C63.8383 48.9971 63.5582 49.0263 63.2818 48.9942ZM7.35072 16.4933L6.75191 36.8804L63.3323 34.3969C63.587 34.3858 63.8413 34.4263 64.0801 34.5159C64.3188 34.6054 64.537 34.7422 64.7215 34.9182C64.9062 35.0942 65.0535 35.3056 65.1544 35.54C65.2553 35.7743 65.3079 36.0266 65.3089 36.2817L65.3545 42.7115L83.4039 25.4276L65.302 8.69528L65.2716 16.6224C65.2721 16.8768 65.2215 17.1286 65.1226 17.3629C65.0237 17.5973 64.8786 17.8093 64.696 17.9864C64.5137 18.162 64.298 18.2993 64.0616 18.3901C63.8253 18.4809 63.5731 18.5234 63.3201 18.5151L7.35072 16.4933Z" fill="black"/>
</svg>
