<svg width="425" height="365" viewBox="0 0 425 365" fill="none" xmlns="http://www.w3.org/2000/svg">
<path d="M417.42 138.287C415.636 117.629 409.219 101.34 397.888 88.76C395.768 86.3631 393.491 84.1117 391.075 82.0238C377.885 70.7726 359.895 63.1937 334.522 58.1782C268.762 45.1459 189.319 44.6187 121.738 56.6502C94.5796 61.5083 56.0056 71.3386 34.4697 100.743C23.196 116.733 17.5886 136.417 18.462 156.936C18.6971 177.477 25.9984 197.932 39.1144 214.796C39.6474 215.444 40.1529 216.088 40.7178 216.686C56.1755 234.43 78.7276 242.032 101.389 247.199C103.341 252.325 105.651 257.331 108.3 262.178L109.051 263.588C113.713 272.649 119.508 281.139 126.279 288.827C139.505 306.04 157.18 319.293 177.029 326.882C177.237 326.944 177.449 326.98 177.661 326.989C178.148 327.033 178.624 326.929 179.028 326.692C179.432 326.454 179.746 326.093 179.93 325.655C180.114 325.216 180.16 324.721 180.061 324.231C179.963 323.741 179.724 323.279 179.377 322.903L179.13 322.861L178.525 322.759L178.278 322.717L177.921 322.656L177.674 322.614L177.372 322.562L177.125 322.52L176.768 322.459L176.521 322.417L175.862 322.305L175.313 322.212C160.595 304.289 152.73 281.93 153.33 259.72C184.262 262.866 215.163 263.179 245.654 260.655C294.231 252.778 331.701 244.238 360.004 230.568C401.55 210.286 420.898 179.338 417.42 138.287Z" fill="black"/>
<path d="M409.723 132.549C405.342 82.412 373.383 63.7887 328.859 54.9845C261.402 41.6361 182.235 41.7365 116.719 53.4422C84.7802 59.1557 50.2607 70.0046 30.7074 96.6127C8.84472 126.34 9.45106 175.946 35.1921 207.615C51.4178 227.519 76.9929 234.938 100.225 239.923L101.518 240.143C102.943 248.162 108.083 257.483 110.867 262.779C123.983 288.249 146.079 308.337 172.357 318.678C163.241 308.949 156.126 297.536 151.49 285.208C146.854 272.879 144.806 259.922 145.483 247.208C177.092 250.585 208.681 250.998 239.842 248.438C308.347 242.956 417.641 223.454 409.723 132.549Z" fill="white"/>
<path d="M172.357 321.629C172.136 321.618 171.915 321.581 171.698 321.517C144.805 310.962 122.201 290.34 108.842 264.171L108.091 262.757C104.464 256.347 101.626 249.56 99.646 242.565C75.0219 237.229 49.9226 229.463 33.6245 209.332C20.5114 192.434 13.2138 171.934 12.9825 151.345C12.0971 130.748 17.7114 110.983 29.0077 94.9302C50.5496 65.448 89.1264 55.579 116.287 50.6986C183.881 38.5013 263.426 39.1268 329.084 52.0344C354.512 57.0609 372.611 64.6691 385.634 75.9134C401.274 89.2521 409.834 107.647 411.953 132.156C415.485 173.229 396.151 204.344 354.518 224.677C326.349 238.414 288.955 247.059 240.248 250.955C209.744 253.461 178.836 253.149 147.897 250.023C147.561 262.069 149.713 274.278 154.217 285.871C158.721 297.464 165.478 308.189 174.059 317.363C174.42 317.732 174.671 318.195 174.779 318.69C174.887 319.184 174.846 319.687 174.663 320.132C174.48 320.576 174.163 320.942 173.753 321.18C173.344 321.417 172.861 321.516 172.37 321.463L172.357 321.629ZM280.908 49.956C225.801 44.5305 170.871 46.4584 117.533 55.6901C91.1357 60.421 53.6143 69.9664 33.0055 98.21C11.1583 128.032 13.0939 176.602 37.2778 206.432C52.4781 225.314 76.7987 232.724 100.688 237.852L101.979 238.071C102.499 238.175 102.987 238.446 103.368 238.844C103.748 239.242 104 239.744 104.086 240.275C105.837 247.388 108.631 254.283 112.372 260.719L113.12 262.16C124.347 283.929 142.272 301.777 163.907 312.728C149.32 293.515 141.905 270.062 143.127 247.003C143.155 246.365 143.43 245.785 143.893 245.388C144.357 244.992 144.971 244.81 145.605 244.881C177.03 248.232 208.435 248.618 239.414 246.034C356.413 236.571 412.968 198.29 407.08 132.193C403.414 89.6442 379.906 67.0845 328.505 56.8829C313.318 53.9629 297.334 51.6336 280.908 49.956Z" fill="black"/>
<path d="M59.0792 250.288C44.9658 244.469 32.387 234.909 22.7533 222.68C17.88 216.491 13.7318 209.78 10.4034 202.7C12.4009 210.363 15.7914 217.7 20.3938 224.317C29.6481 237.854 43.0545 248.052 58.2425 253.107C65.6911 255.648 73.4248 256.765 81.0297 256.398C73.5721 255.267 66.1994 253.214 59.0792 250.288Z" fill="black"/>
</svg>
