<svg width="393" height="267" viewBox="0 0 393 267" fill="none" xmlns="http://www.w3.org/2000/svg">
<path d="M19.7356 150.219L34.9187 2.81702L351.849 20.2095L377.061 197.589L19.7356 150.219Z" fill="white" stroke="black" stroke-width="5"/>
<path d="M26.3251 178.175C23.7133 177.232 21.1065 176.254 18.4569 175.342L10.6066 172.62L4.02444 170.4C5.23357 163.543 6.36621 156.675 7.42219 149.797C8.45842 142.424 9.65378 135.109 10.5259 127.713C11.398 120.318 12.5983 112.968 13.3342 105.589L14.1126 100.05L14.6941 94.484C15.1899 90.9563 15.4349 87.0696 15.7208 83.3685C14.8968 86.85 14.0988 90.623 13.3485 94.2948L12.247 99.7519L11.2159 105.183C9.8564 112.474 8.52484 119.806 7.32452 127.156C6.12421 134.505 4.92887 141.82 3.82701 149.184C2.72514 156.547 1.75951 163.894 0.723289 171.267C0.680133 171.657 0.765496 172.047 0.964606 172.371C1.16372 172.695 1.46393 172.931 1.8129 173.039L9.87873 175.18C12.5531 175.915 15.2423 176.545 17.9216 177.246L26.0122 179.21C28.7015 179.84 31.4285 180.439 34.1276 180.998C31.5586 179.99 28.932 179.153 26.3251 178.175Z" fill="black"/>
<path d="M386.006 231.607L379.69 230.303L367.013 227.717C358.581 225.975 350.124 224.3 341.713 222.604L316.352 217.657L290.951 212.924L265.521 208.369C257.023 206.907 248.572 205.424 240.05 204.028L214.576 199.799L201.839 197.685C197.594 196.876 193.308 196.297 189 195.95C193.146 197.17 197.355 198.165 201.608 198.929L214.227 201.569L239.557 206.808C247.989 208.55 256.424 210.179 264.869 211.888L290.242 216.801L315.611 221.522L341.053 226.043L366.573 230.251L379.31 232.365L385.62 233.477C387.772 233.933 389.99 233.991 392.163 233.649C390.257 232.588 388.168 231.895 386.006 231.607Z" fill="black"/>
<path d="M343.296 7.54361C346.072 7.60213 348.854 7.69565 351.657 7.71304L359.965 7.78357L366.912 7.78369C367.957 14.6675 369.079 21.537 370.277 28.3922C371.651 35.7096 372.856 43.0225 374.393 50.3093C375.93 57.5961 377.142 64.9441 378.803 72.1714L379.835 77.6682L381.063 83.1283C381.721 86.6294 382.731 90.3906 383.643 93.989C383.311 90.4267 382.861 86.5965 382.399 82.8775L381.699 77.3545L380.94 71.8788C379.898 64.5352 378.817 57.1628 377.605 49.8148C376.393 42.4668 375.188 35.1539 373.879 27.8243C372.57 20.4946 371.137 13.2245 369.763 5.9071C369.679 5.52422 369.473 5.1813 369.181 4.93812C368.889 4.69494 368.529 4.5669 368.164 4.57628L359.837 5.12542C357.068 5.28309 354.318 5.5458 351.555 5.73847L343.261 6.46266C340.512 6.72536 337.736 7.02918 335 7.36191C337.757 7.49657 340.513 7.45008 343.296 7.54361Z" fill="black"/>
</svg>
