<svg width="90" height="90" viewBox="0 0 90 90" fill="none" xmlns="http://www.w3.org/2000/svg">
<path d="M90 0H0V90H90V0Z" fill="#FFC000"/>
<path d="M30.285 31.5H30.195C28.08 31.5 26.37 33.21 26.37 35.325V38.34C26.37 40.455 28.08 42.165 30.195 42.165H30.285C32.4 42.165 34.11 40.455 34.11 38.34V35.325C34.11 33.21 32.4 31.5 30.285 31.5Z" fill="#231804"/>
<path d="M64.845 41.625C63.855 41.625 63.09 40.815 63.09 39.87V38.835C63.09 37.035 61.65 35.595 59.85 35.595C57.96 35.595 56.52 37.035 56.52 38.835V39.87C56.52 40.86 55.71 41.625 54.765 41.625C53.775 41.625 53.01 40.815 53.01 39.87V38.835C53.01 35.1 56.025 32.085 59.76 32.085C63.585 32.085 66.645 35.1 66.645 38.835V39.87C66.6 40.815 65.79 41.625 64.845 41.625Z" fill="#231804"/>
<path d="M45 65.0703C36.675 65.0703 32.31 59.0853 31.185 55.8903C30.87 54.9903 31.32 53.9553 32.265 53.6403C33.165 53.3253 34.2 53.7753 34.515 54.7203C34.605 55.0353 37.125 61.5603 45 61.5603C52.965 61.5603 55.44 54.8103 55.485 54.7203C55.8 53.8203 56.835 53.3253 57.735 53.6403C58.635 53.9553 59.13 54.9903 58.815 55.8903C57.69 59.0403 53.325 65.0703 45 65.0703Z" fill="#231804"/>
</svg>
