<svg width="136" height="372" viewBox="0 0 136 372" fill="none" xmlns="http://www.w3.org/2000/svg">
<g opacity="0.5">
<path d="M2.75485 372C4.28533 372 5.50971 370.776 5.50971 369.245C5.50971 367.715 4.28533 366.49 2.75485 366.49C1.22438 366.49 0 367.715 0 369.245C0 370.776 1.22438 372 2.75485 372Z" fill="#929493"/>
<path d="M2.75485 341.391C4.28533 341.391 5.50971 340.166 5.50971 338.636C5.50971 337.105 4.28533 335.881 2.75485 335.881C1.22438 335.881 0 337.105 0 338.636C0 340.166 1.22438 341.391 2.75485 341.391Z" fill="#929493"/>
<path d="M2.75485 310.934C4.28533 310.934 5.50971 309.71 5.50971 308.179C5.50971 306.649 4.28533 305.424 2.75485 305.424C1.22438 305.424 0 306.649 0 308.179C0 309.71 1.22438 310.934 2.75485 310.934Z" fill="#929493"/>
<path d="M2.75485 280.325C4.28533 280.325 5.50971 279.1 5.50971 277.57C5.50971 276.039 4.28533 274.815 2.75485 274.815C1.22438 274.815 0 276.039 0 277.57C0 279.1 1.22438 280.325 2.75485 280.325Z" fill="#929493"/>
<path d="M2.75485 249.868C4.28533 249.868 5.50971 248.644 5.50971 247.113C5.50971 245.583 4.28533 244.358 2.75485 244.358C1.22438 244.358 0 245.583 0 247.113C0 248.644 1.22438 249.868 2.75485 249.868Z" fill="#929493"/>
<path d="M2.75485 219.259C4.28533 219.259 5.50971 218.034 5.50971 216.504C5.50971 214.973 4.28533 213.749 2.75485 213.749C1.22438 213.749 0 214.973 0 216.504C0 218.034 1.22438 219.259 2.75485 219.259Z" fill="#929493"/>
<path d="M2.75485 188.649C4.28533 188.649 5.50971 187.425 5.50971 185.894C5.50971 184.364 4.28533 183.14 2.75485 183.14C1.22438 183.14 0 184.364 0 185.894C0 187.425 1.22438 188.649 2.75485 188.649Z" fill="#929493"/>
<path d="M2.75485 158.193C4.28533 158.193 5.50971 156.968 5.50971 155.438C5.50971 153.907 4.28533 152.683 2.75485 152.683C1.22438 152.683 0 153.907 0 155.438C0 156.968 1.22438 158.193 2.75485 158.193Z" fill="#929493"/>
<path d="M2.75485 127.583C4.28533 127.583 5.50971 126.359 5.50971 124.828C5.50971 123.298 4.28533 122.074 2.75485 122.074C1.22438 122.074 0 123.298 0 124.828C0 126.359 1.22438 127.583 2.75485 127.583Z" fill="#929493"/>
<path d="M2.75485 97.1269C4.28533 97.1269 5.50971 95.9025 5.50971 94.3721C5.50971 92.8416 4.28533 91.6172 2.75485 91.6172C1.22438 91.6172 0 92.8416 0 94.3721C0 95.9025 1.22438 97.1269 2.75485 97.1269Z" fill="#929493"/>
<path d="M2.75485 66.5174C4.28533 66.5174 5.50971 65.2931 5.50971 63.7626C5.50971 62.2321 4.28533 61.0077 2.75485 61.0077C1.22438 61.0077 0 62.2321 0 63.7626C0 65.2931 1.22438 66.5174 2.75485 66.5174Z" fill="#929493"/>
<path d="M2.75485 35.9079C4.28533 35.9079 5.50971 34.6836 5.50971 33.1531C5.50971 31.6226 4.28533 30.3982 2.75485 30.3982C1.22438 30.3982 0 31.6226 0 33.1531C0 34.6836 1.22438 35.9079 2.75485 35.9079Z" fill="#929493"/>
<path d="M2.75485 5.45148C4.28533 5.45148 5.50971 4.22709 5.50971 2.69662C5.50971 1.16614 4.28533 -0.058239 2.75485 -0.058239C1.22438 -0.058239 0 1.16614 0 2.69662C0 4.22709 1.22438 5.45148 2.75485 5.45148Z" fill="#929493"/>
<path d="M28.7729 372C30.3034 372 31.5278 370.776 31.5278 369.245C31.5278 367.715 30.3034 366.49 28.7729 366.49C27.2424 366.49 26.0181 367.715 26.0181 369.245C26.0181 370.776 27.2424 372 28.7729 372Z" fill="#929493"/>
<path d="M28.7729 341.391C30.3034 341.391 31.5278 340.166 31.5278 338.636C31.5278 337.105 30.3034 335.881 28.7729 335.881C27.2424 335.881 26.0181 337.105 26.0181 338.636C26.0181 340.166 27.2424 341.391 28.7729 341.391Z" fill="#929493"/>
<path d="M28.7729 310.934C30.3034 310.934 31.5278 309.71 31.5278 308.179C31.5278 306.649 30.3034 305.424 28.7729 305.424C27.2424 305.424 26.0181 306.649 26.0181 308.179C26.0181 309.71 27.2424 310.934 28.7729 310.934Z" fill="#929493"/>
<path d="M28.7729 280.325C30.3034 280.325 31.5278 279.1 31.5278 277.57C31.5278 276.039 30.3034 274.815 28.7729 274.815C27.2424 274.815 26.0181 276.039 26.0181 277.57C26.0181 279.1 27.2424 280.325 28.7729 280.325Z" fill="#929493"/>
<path d="M28.7729 249.868C30.3034 249.868 31.5278 248.644 31.5278 247.113C31.5278 245.583 30.3034 244.358 28.7729 244.358C27.2424 244.358 26.0181 245.583 26.0181 247.113C26.0181 248.644 27.2424 249.868 28.7729 249.868Z" fill="#929493"/>
<path d="M28.7729 219.259C30.3034 219.259 31.5278 218.034 31.5278 216.504C31.5278 214.973 30.3034 213.749 28.7729 213.749C27.2424 213.749 26.0181 214.973 26.0181 216.504C26.0181 218.034 27.2424 219.259 28.7729 219.259Z" fill="#929493"/>
<path d="M28.7729 188.649C30.3034 188.649 31.5278 187.425 31.5278 185.894C31.5278 184.364 30.3034 183.14 28.7729 183.14C27.2424 183.14 26.0181 184.364 26.0181 185.894C26.0181 187.425 27.2424 188.649 28.7729 188.649Z" fill="#929493"/>
<path d="M28.7729 158.193C30.3034 158.193 31.5278 156.968 31.5278 155.438C31.5278 153.907 30.3034 152.683 28.7729 152.683C27.2424 152.683 26.0181 153.907 26.0181 155.438C26.0181 156.968 27.2424 158.193 28.7729 158.193Z" fill="#929493"/>
<path d="M28.7729 127.583C30.3034 127.583 31.5278 126.359 31.5278 124.828C31.5278 123.298 30.3034 122.074 28.7729 122.074C27.2424 122.074 26.0181 123.298 26.0181 124.828C26.0181 126.359 27.2424 127.583 28.7729 127.583Z" fill="#929493"/>
<path d="M28.7729 97.1269C30.3034 97.1269 31.5278 95.9025 31.5278 94.3721C31.5278 92.8416 30.3034 91.6172 28.7729 91.6172C27.2424 91.6172 26.0181 92.8416 26.0181 94.3721C26.0181 95.9025 27.2424 97.1269 28.7729 97.1269Z" fill="#929493"/>
<path d="M28.7729 66.5174C30.3034 66.5174 31.5278 65.2931 31.5278 63.7626C31.5278 62.2321 30.3034 61.0077 28.7729 61.0077C27.2424 61.0077 26.0181 62.2321 26.0181 63.7626C26.0181 65.2931 27.2424 66.5174 28.7729 66.5174Z" fill="#929493"/>
<path d="M28.7729 35.9079C30.3034 35.9079 31.5278 34.6836 31.5278 33.1531C31.5278 31.6226 30.3034 30.3982 28.7729 30.3982C27.2424 30.3982 26.0181 31.6226 26.0181 33.1531C26.0181 34.6836 27.2424 35.9079 28.7729 35.9079Z" fill="#929493"/>
<path d="M28.7729 5.45148C30.3034 5.45148 31.5278 4.22709 31.5278 2.69662C31.5278 1.16614 30.3034 -0.058239 28.7729 -0.058239C27.2424 -0.058239 26.0181 1.16614 26.0181 2.69662C26.0181 4.22709 27.2424 5.45148 28.7729 5.45148Z" fill="#929493"/>
<path d="M54.791 372C56.3214 372 57.5458 370.776 57.5458 369.245C57.5458 367.715 56.3214 366.49 54.791 366.49C53.2605 366.49 52.0361 367.715 52.0361 369.245C52.0361 370.776 53.2605 372 54.791 372Z" fill="#929493"/>
<path d="M54.791 341.391C56.3214 341.391 57.5458 340.166 57.5458 338.636C57.5458 337.105 56.3214 335.881 54.791 335.881C53.2605 335.881 52.0361 337.105 52.0361 338.636C52.0361 340.166 53.2605 341.391 54.791 341.391Z" fill="#929493"/>
<path d="M54.791 310.934C56.3214 310.934 57.5458 309.71 57.5458 308.179C57.5458 306.649 56.3214 305.424 54.791 305.424C53.2605 305.424 52.0361 306.649 52.0361 308.179C52.0361 309.71 53.2605 310.934 54.791 310.934Z" fill="#929493"/>
<path d="M54.791 280.325C56.3214 280.325 57.5458 279.1 57.5458 277.57C57.5458 276.039 56.3214 274.815 54.791 274.815C53.2605 274.815 52.0361 276.039 52.0361 277.57C52.0361 279.1 53.2605 280.325 54.791 280.325Z" fill="#929493"/>
<path d="M54.791 249.868C56.3214 249.868 57.5458 248.644 57.5458 247.113C57.5458 245.583 56.3214 244.358 54.791 244.358C53.2605 244.358 52.0361 245.583 52.0361 247.113C52.0361 248.644 53.2605 249.868 54.791 249.868Z" fill="#929493"/>
<path d="M54.791 219.259C56.3214 219.259 57.5458 218.034 57.5458 216.504C57.5458 214.973 56.3214 213.749 54.791 213.749C53.2605 213.749 52.0361 214.973 52.0361 216.504C52.0361 218.034 53.2605 219.259 54.791 219.259Z" fill="#929493"/>
<path d="M54.791 188.649C56.3214 188.649 57.5458 187.425 57.5458 185.894C57.5458 184.364 56.3214 183.14 54.791 183.14C53.2605 183.14 52.0361 184.364 52.0361 185.894C52.0361 187.425 53.2605 188.649 54.791 188.649Z" fill="#929493"/>
<path d="M54.791 158.193C56.3214 158.193 57.5458 156.968 57.5458 155.438C57.5458 153.907 56.3214 152.683 54.791 152.683C53.2605 152.683 52.0361 153.907 52.0361 155.438C52.0361 156.968 53.2605 158.193 54.791 158.193Z" fill="#929493"/>
<path d="M54.791 127.583C56.3214 127.583 57.5458 126.359 57.5458 124.828C57.5458 123.298 56.3214 122.074 54.791 122.074C53.2605 122.074 52.0361 123.298 52.0361 124.828C52.0361 126.359 53.2605 127.583 54.791 127.583Z" fill="#929493"/>
<path d="M54.791 97.1269C56.3214 97.1269 57.5458 95.9025 57.5458 94.3721C57.5458 92.8416 56.3214 91.6172 54.791 91.6172C53.2605 91.6172 52.0361 92.8416 52.0361 94.3721C52.0361 95.9025 53.2605 97.1269 54.791 97.1269Z" fill="#929493"/>
<path d="M54.791 66.5174C56.3214 66.5174 57.5458 65.2931 57.5458 63.7626C57.5458 62.2321 56.3214 61.0077 54.791 61.0077C53.2605 61.0077 52.0361 62.2321 52.0361 63.7626C52.0361 65.2931 53.2605 66.5174 54.791 66.5174Z" fill="#929493"/>
<path d="M54.791 35.9079C56.3214 35.9079 57.5458 34.6836 57.5458 33.1531C57.5458 31.6226 56.3214 30.3982 54.791 30.3982C53.2605 30.3982 52.0361 31.6226 52.0361 33.1531C52.0361 34.6836 53.2605 35.9079 54.791 35.9079Z" fill="#929493"/>
<path d="M54.791 5.45148C56.3214 5.45148 57.5458 4.22709 57.5458 2.69662C57.5458 1.16614 56.3214 -0.058239 54.791 -0.058239C53.2605 -0.058239 52.0361 1.16614 52.0361 2.69662C52.0361 4.22709 53.2605 5.45148 54.791 5.45148Z" fill="#929493"/>
<path d="M80.809 372C82.3395 372 83.5639 370.776 83.5639 369.245C83.5639 367.715 82.3395 366.49 80.809 366.49C79.2785 366.49 78.0542 367.715 78.0542 369.245C78.0542 370.776 79.2785 372 80.809 372Z" fill="#929493"/>
<path d="M80.809 341.391C82.3395 341.391 83.5639 340.166 83.5639 338.636C83.5639 337.105 82.3395 335.881 80.809 335.881C79.2785 335.881 78.0542 337.105 78.0542 338.636C78.0542 340.166 79.2785 341.391 80.809 341.391Z" fill="#929493"/>
<path d="M80.809 310.934C82.3395 310.934 83.5639 309.71 83.5639 308.179C83.5639 306.649 82.3395 305.424 80.809 305.424C79.2785 305.424 78.0542 306.649 78.0542 308.179C78.0542 309.71 79.2785 310.934 80.809 310.934Z" fill="#929493"/>
<path d="M80.809 280.325C82.3395 280.325 83.5639 279.1 83.5639 277.57C83.5639 276.039 82.3395 274.815 80.809 274.815C79.2785 274.815 78.0542 276.039 78.0542 277.57C78.0542 279.1 79.2785 280.325 80.809 280.325Z" fill="#929493"/>
<path d="M80.809 249.868C82.3395 249.868 83.5639 248.644 83.5639 247.113C83.5639 245.583 82.3395 244.358 80.809 244.358C79.2785 244.358 78.0542 245.583 78.0542 247.113C78.0542 248.644 79.2785 249.868 80.809 249.868Z" fill="#929493"/>
<path d="M80.809 219.259C82.3395 219.259 83.5639 218.034 83.5639 216.504C83.5639 214.973 82.3395 213.749 80.809 213.749C79.2785 213.749 78.0542 214.973 78.0542 216.504C78.0542 218.034 79.2785 219.259 80.809 219.259Z" fill="#929493"/>
<path d="M80.809 188.649C82.3395 188.649 83.5639 187.425 83.5639 185.894C83.5639 184.364 82.3395 183.14 80.809 183.14C79.2785 183.14 78.0542 184.364 78.0542 185.894C78.0542 187.425 79.2785 188.649 80.809 188.649Z" fill="#929493"/>
<path d="M80.809 158.193C82.3395 158.193 83.5639 156.968 83.5639 155.438C83.5639 153.907 82.3395 152.683 80.809 152.683C79.2785 152.683 78.0542 153.907 78.0542 155.438C78.0542 156.968 79.2785 158.193 80.809 158.193Z" fill="#929493"/>
<path d="M80.809 127.583C82.3395 127.583 83.5639 126.359 83.5639 124.828C83.5639 123.298 82.3395 122.074 80.809 122.074C79.2785 122.074 78.0542 123.298 78.0542 124.828C78.0542 126.359 79.2785 127.583 80.809 127.583Z" fill="#929493"/>
<path d="M80.809 97.1269C82.3395 97.1269 83.5639 95.9025 83.5639 94.3721C83.5639 92.8416 82.3395 91.6172 80.809 91.6172C79.2785 91.6172 78.0542 92.8416 78.0542 94.3721C78.0542 95.9025 79.2785 97.1269 80.809 97.1269Z" fill="#929493"/>
<path d="M80.809 66.5174C82.3395 66.5174 83.5639 65.2931 83.5639 63.7626C83.5639 62.2321 82.3395 61.0077 80.809 61.0077C79.2785 61.0077 78.0542 62.2321 78.0542 63.7626C78.0542 65.2931 79.2785 66.5174 80.809 66.5174Z" fill="#929493"/>
<path d="M80.809 35.9079C82.3395 35.9079 83.5639 34.6836 83.5639 33.1531C83.5639 31.6226 82.3395 30.3982 80.809 30.3982C79.2785 30.3982 78.0542 31.6226 78.0542 33.1531C78.0542 34.6836 79.2785 35.9079 80.809 35.9079Z" fill="#929493"/>
<path d="M80.809 5.45148C82.3395 5.45148 83.5639 4.22709 83.5639 2.69662C83.5639 1.16614 82.3395 -0.058239 80.809 -0.058239C79.2786 -0.058239 78.0542 1.16614 78.0542 2.69662C78.0542 4.22709 79.2786 5.45148 80.809 5.45148Z" fill="#929493"/>
<path d="M106.827 372C108.358 372 109.582 370.776 109.582 369.245C109.582 367.715 108.358 366.49 106.827 366.49C105.297 366.49 104.072 367.715 104.072 369.245C104.072 370.776 105.297 372 106.827 372Z" fill="#929493"/>
<path d="M106.827 341.391C108.358 341.391 109.582 340.166 109.582 338.636C109.582 337.105 108.358 335.881 106.827 335.881C105.297 335.881 104.072 337.105 104.072 338.636C104.072 340.166 105.297 341.391 106.827 341.391Z" fill="#929493"/>
<path d="M106.827 310.934C108.358 310.934 109.582 309.71 109.582 308.179C109.582 306.649 108.358 305.424 106.827 305.424C105.297 305.424 104.072 306.649 104.072 308.179C104.072 309.71 105.297 310.934 106.827 310.934Z" fill="#929493"/>
<path d="M109.582 277.57C109.582 276.048 108.349 274.815 106.827 274.815C105.306 274.815 104.072 276.048 104.072 277.57C104.072 279.091 105.306 280.325 106.827 280.325C108.349 280.325 109.582 279.091 109.582 277.57Z" fill="#929493"/>
<path d="M109.582 247.113C109.582 245.592 108.349 244.358 106.827 244.358C105.306 244.358 104.072 245.592 104.072 247.113C104.072 248.635 105.306 249.868 106.827 249.868C108.349 249.868 109.582 248.635 109.582 247.113Z" fill="#929493"/>
<path d="M109.582 216.504C109.582 214.982 108.349 213.749 106.827 213.749C105.306 213.749 104.072 214.982 104.072 216.504C104.072 218.025 105.306 219.259 106.827 219.259C108.349 219.259 109.582 218.025 109.582 216.504Z" fill="#929493"/>
<path d="M106.827 188.649C108.358 188.649 109.582 187.425 109.582 185.894C109.582 184.364 108.358 183.14 106.827 183.14C105.297 183.14 104.072 184.364 104.072 185.894C104.072 187.425 105.297 188.649 106.827 188.649Z" fill="#929493"/>
<path d="M106.827 158.193C108.358 158.193 109.582 156.968 109.582 155.438C109.582 153.907 108.358 152.683 106.827 152.683C105.297 152.683 104.072 153.907 104.072 155.438C104.072 156.968 105.297 158.193 106.827 158.193Z" fill="#929493"/>
<path d="M106.827 127.583C108.358 127.583 109.582 126.359 109.582 124.828C109.582 123.298 108.358 122.074 106.827 122.074C105.297 122.074 104.072 123.298 104.072 124.828C104.072 126.359 105.297 127.583 106.827 127.583Z" fill="#929493"/>
<path d="M106.827 97.1269C108.358 97.1269 109.582 95.9025 109.582 94.3721C109.582 92.8416 108.358 91.6172 106.827 91.6172C105.297 91.6172 104.072 92.8416 104.072 94.3721C104.072 95.9025 105.297 97.1269 106.827 97.1269Z" fill="#929493"/>
<path d="M106.827 66.5174C108.358 66.5174 109.582 65.2931 109.582 63.7626C109.582 62.2321 108.358 61.0077 106.827 61.0077C105.297 61.0077 104.072 62.2321 104.072 63.7626C104.072 65.2931 105.297 66.5174 106.827 66.5174Z" fill="#929493"/>
<path d="M106.827 35.9079C108.358 35.9079 109.582 34.6836 109.582 33.1531C109.582 31.6226 108.358 30.3982 106.827 30.3982C105.297 30.3982 104.072 31.6226 104.072 33.1531C104.072 34.6836 105.297 35.9079 106.827 35.9079Z" fill="#929493"/>
<path d="M106.827 5.45148C108.358 5.45148 109.582 4.22709 109.582 2.69662C109.582 1.16614 108.358 -0.058239 106.827 -0.058239C105.297 -0.058239 104.072 1.16614 104.072 2.69662C104.072 4.22709 105.297 5.45148 106.827 5.45148Z" fill="#929493"/>
<path d="M132.845 372C134.376 372 135.6 370.776 135.6 369.245C135.6 367.715 134.376 366.49 132.845 366.49C131.315 366.49 130.09 367.715 130.09 369.245C130.09 370.776 131.315 372 132.845 372Z" fill="#929493"/>
<path d="M132.845 341.391C134.376 341.391 135.6 340.166 135.6 338.636C135.6 337.105 134.376 335.881 132.845 335.881C131.315 335.881 130.09 337.105 130.09 338.636C130.09 340.166 131.315 341.391 132.845 341.391Z" fill="#929493"/>
<path d="M132.845 310.934C134.376 310.934 135.6 309.71 135.6 308.179C135.6 306.649 134.376 305.424 132.845 305.424C131.315 305.424 130.09 306.649 130.09 308.179C130.09 309.71 131.315 310.934 132.845 310.934Z" fill="#929493"/>
<path d="M132.845 280.325C134.376 280.325 135.6 279.1 135.6 277.57C135.6 276.039 134.376 274.815 132.845 274.815C131.315 274.815 130.09 276.039 130.09 277.57C130.09 279.1 131.315 280.325 132.845 280.325Z" fill="#929493"/>
<path d="M132.845 249.868C134.376 249.868 135.6 248.644 135.6 247.113C135.6 245.583 134.376 244.358 132.845 244.358C131.315 244.358 130.09 245.583 130.09 247.113C130.09 248.644 131.315 249.868 132.845 249.868Z" fill="#929493"/>
<path d="M132.845 219.259C134.376 219.259 135.6 218.034 135.6 216.504C135.6 214.973 134.376 213.749 132.845 213.749C131.315 213.749 130.09 214.973 130.09 216.504C130.09 218.034 131.315 219.259 132.845 219.259Z" fill="#929493"/>
<path d="M132.845 188.649C134.376 188.649 135.6 187.425 135.6 185.894C135.6 184.364 134.376 183.14 132.845 183.14C131.315 183.14 130.09 184.364 130.09 185.894C130.09 187.425 131.315 188.649 132.845 188.649Z" fill="#929493"/>
<path d="M132.845 158.193C134.376 158.193 135.6 156.968 135.6 155.438C135.6 153.907 134.376 152.683 132.845 152.683C131.315 152.683 130.09 153.907 130.09 155.438C130.09 156.968 131.315 158.193 132.845 158.193Z" fill="#929493"/>
<path d="M132.845 127.583C134.376 127.583 135.6 126.359 135.6 124.828C135.6 123.298 134.376 122.074 132.845 122.074C131.315 122.074 130.09 123.298 130.09 124.828C130.09 126.359 131.315 127.583 132.845 127.583Z" fill="#929493"/>
<path d="M132.845 97.1269C134.376 97.1269 135.6 95.9025 135.6 94.3721C135.6 92.8416 134.376 91.6172 132.845 91.6172C131.315 91.6172 130.09 92.8416 130.09 94.3721C130.09 95.9025 131.315 97.1269 132.845 97.1269Z" fill="#929493"/>
<path d="M132.845 66.5174C134.376 66.5174 135.6 65.2931 135.6 63.7626C135.6 62.2321 134.376 61.0077 132.845 61.0077C131.315 61.0077 130.09 62.2321 130.09 63.7626C130.09 65.2931 131.315 66.5174 132.845 66.5174Z" fill="#929493"/>
<path d="M132.845 35.9079C134.376 35.9079 135.6 34.6836 135.6 33.1531C135.6 31.6226 134.376 30.3982 132.845 30.3982C131.315 30.3982 130.09 31.6226 130.09 33.1531C130.09 34.6836 131.315 35.9079 132.845 35.9079Z" fill="#929493"/>
<path d="M132.845 5.45148C134.376 5.45148 135.6 4.22709 135.6 2.69662C135.6 1.16614 134.376 -0.058239 132.845 -0.058239C131.315 -0.058239 130.09 1.16614 130.09 2.69662C130.09 4.22709 131.315 5.45148 132.845 5.45148Z" fill="#929493"/>
</g>
</svg>
