<svg width="500" height="500" viewBox="0 0 500 500" fill="none" xmlns="http://www.w3.org/2000/svg">
<path fill-rule="evenodd" clip-rule="evenodd" d="M500 0H0V500H500V0ZM250 425C346.65 425 425 346.65 425 250C425 153.35 346.65 75 250 75C153.35 75 75 153.35 75 250C75 346.65 153.35 425 250 425Z" fill="white"/>
<mask id="path-2-inside-1" fill="white">
<path fill-rule="evenodd" clip-rule="evenodd" d="M250 500C388.071 500 500 388.071 500 250C500 111.929 388.071 0 250 0C111.929 0 0 111.929 0 250C0 388.071 111.929 500 250 500ZM249 425C345.65 425 424 346.65 424 250C424 153.35 345.65 75 249 75C152.35 75 74 153.35 74 250C74 346.65 152.35 425 249 425Z"/>
</mask>
<path fill-rule="evenodd" clip-rule="evenodd" d="M250 500C388.071 500 500 388.071 500 250C500 111.929 388.071 0 250 0C111.929 0 0 111.929 0 250C0 388.071 111.929 500 250 500ZM249 425C345.65 425 424 346.65 424 250C424 153.35 345.65 75 249 75C152.35 75 74 153.35 74 250C74 346.65 152.35 425 249 425Z" fill="white"/>
<path d="M499 250C499 387.519 387.519 499 250 499V501C388.623 501 501 388.623 501 250H499ZM250 1C387.519 1 499 112.481 499 250H501C501 111.377 388.623 -1 250 -1V1ZM1 250C1 112.481 112.481 1 250 1V-1C111.377 -1 -1 111.377 -1 250H1ZM250 499C112.481 499 1 387.519 1 250H-1C-1 388.623 111.377 501 250 501V499ZM423 250C423 346.098 345.098 424 249 424V426C346.202 426 425 347.202 425 250H423ZM249 76C345.098 76 423 153.902 423 250H425C425 152.798 346.202 74 249 74V76ZM75 250C75 153.902 152.902 76 249 76V74C151.798 74 73 152.798 73 250H75ZM249 424C152.902 424 75 346.098 75 250H73C73 347.202 151.798 426 249 426V424Z" fill="#73919B" fill-opacity="0.25" mask="url(#path-2-inside-1)"/>
<mask id="path-4-inside-2" fill="white">
<path fill-rule="evenodd" clip-rule="evenodd" d="M249 475C373.264 475 474 374.264 474 250C474 125.736 373.264 25 249 25C124.736 25 24 125.736 24 250C24 374.264 124.736 475 249 475ZM249 425C345.65 425 424 346.65 424 250C424 153.35 345.65 75 249 75C152.35 75 74 153.35 74 250C74 346.65 152.35 425 249 425Z"/>
</mask>
<path fill-rule="evenodd" clip-rule="evenodd" d="M249 475C373.264 475 474 374.264 474 250C474 125.736 373.264 25 249 25C124.736 25 24 125.736 24 250C24 374.264 124.736 475 249 475ZM249 425C345.65 425 424 346.65 424 250C424 153.35 345.65 75 249 75C152.35 75 74 153.35 74 250C74 346.65 152.35 425 249 425Z" fill="white"/>
<path d="M473 250C473 373.712 372.712 474 249 474V476C373.816 476 475 374.816 475 250H473ZM249 26C372.712 26 473 126.288 473 250H475C475 125.184 373.816 24 249 24V26ZM25 250C25 126.288 125.288 26 249 26V24C124.184 24 23 125.184 23 250H25ZM249 474C125.288 474 25 373.712 25 250H23C23 374.816 124.184 476 249 476V474ZM423 250C423 346.098 345.098 424 249 424V426C346.202 426 425 347.202 425 250H423ZM249 76C345.098 76 423 153.902 423 250H425C425 152.798 346.202 74 249 74V76ZM75 250C75 153.902 152.902 76 249 76V74C151.798 74 73 152.798 73 250H75ZM249 424C152.902 424 75 346.098 75 250H73C73 347.202 151.798 426 249 426V424Z" fill="#73919B" fill-opacity="0.5" mask="url(#path-4-inside-2)"/>
<mask id="path-6-inside-3" fill="white">
<path fill-rule="evenodd" clip-rule="evenodd" d="M249 450C359.457 450 449 360.457 449 250C449 139.543 359.457 50 249 50C138.543 50 49 139.543 49 250C49 360.457 138.543 450 249 450ZM249 425C345.65 425 424 346.65 424 250C424 153.35 345.65 75 249 75C152.35 75 74 153.35 74 250C74 346.65 152.35 425 249 425Z"/>
</mask>
<path fill-rule="evenodd" clip-rule="evenodd" d="M249 450C359.457 450 449 360.457 449 250C449 139.543 359.457 50 249 50C138.543 50 49 139.543 49 250C49 360.457 138.543 450 249 450ZM249 425C345.65 425 424 346.65 424 250C424 153.35 345.65 75 249 75C152.35 75 74 153.35 74 250C74 346.65 152.35 425 249 425Z" fill="white"/>
<path d="M448 250C448 359.905 358.905 449 249 449V451C360.009 451 450 361.009 450 250H448ZM249 51C358.905 51 448 140.095 448 250H450C450 138.991 360.009 49 249 49V51ZM50 250C50 140.095 139.095 51 249 51V49C137.991 49 48 138.991 48 250H50ZM249 449C139.095 449 50 359.905 50 250H48C48 361.009 137.991 451 249 451V449ZM423 250C423 346.098 345.098 424 249 424V426C346.202 426 425 347.202 425 250H423ZM249 76C345.098 76 423 153.902 423 250H425C425 152.798 346.202 74 249 74V76ZM75 250C75 153.902 152.902 76 249 76V74C151.798 74 73 152.798 73 250H75ZM249 424C152.902 424 75 346.098 75 250H73C73 347.202 151.798 426 249 426V424Z" fill="#73919B" fill-opacity="0.75" mask="url(#path-6-inside-3)"/>
</svg>
