<svg width="80" height="80" viewBox="0 0 80 80" fill="none" xmlns="http://www.w3.org/2000/svg">
<circle cx="40" cy="40" r="38.5" stroke="#73919B" stroke-width="3"/>
<path d="M58.3138 52.9001C55.7261 51.3251 53.313 48.3001 53.313 41.4668C53.313 35.4002 57.1232 30.8335 58.4647 29.4169C58.7187 29.1502 58.7345 28.7169 58.5043 28.4335L55.6626 24.8586C55.5039 24.6669 55.2657 24.5669 55.0276 24.6086C47.6772 25.6169 45.534 20.7586 45.0339 19.1586C44.9387 18.8586 44.6688 18.6586 44.3751 18.6669H35.6197C35.3181 18.6669 35.0562 18.8669 34.9609 19.1586C34.4608 20.7586 32.3097 25.6169 24.9673 24.6086C24.7291 24.5752 24.491 24.6669 24.3402 24.8586L21.4984 28.4419C21.2683 28.7335 21.2841 29.1585 21.5381 29.4252C22.8717 30.8419 26.6818 35.4085 26.6818 41.4751C26.6818 48.3001 24.2687 51.3334 21.681 52.9084C21.3556 53.1084 21.2365 53.5501 21.4191 53.9001L24.2687 59.2834C24.4434 59.6084 24.8164 59.75 25.1419 59.6084C27.3883 58.6584 35.7706 55.6334 39.9935 61.3334C44.2164 55.6334 52.5986 58.6584 54.845 59.6084C55.1705 59.7417 55.5436 59.6084 55.7182 59.2834L58.5678 53.8917C58.7504 53.5417 58.6393 53.1001 58.3138 52.9001Z" fill="#73919B"/>
<circle cx="40" cy="26.6667" r="2.66667" fill="#FEFFFF"/>
</svg>
