<svg width="80" height="80" viewBox="0 0 80 80" fill="none" xmlns="http://www.w3.org/2000/svg">
<circle cx="40" cy="40" r="38.5" stroke="#73919B" stroke-width="3"/>
<path fill-rule="evenodd" clip-rule="evenodd" d="M43.0687 20.0493C41.5401 18.6502 39.196 18.6502 37.6674 20.0493L36.0447 21.5345C35.1908 22.3161 34.0401 22.6894 32.8899 22.5579L30.7023 22.3079C28.641 22.0724 26.7417 23.452 26.3283 25.4852L25.8941 27.6209C25.6629 28.7581 24.9493 29.7389 23.9383 30.3087L22.0367 31.3804C20.2256 32.4011 19.4984 34.639 20.3633 36.5294L21.2658 38.5017C21.7494 39.5586 21.7494 40.7735 21.2658 41.8303L20.3633 43.8027C19.4984 45.6931 20.2256 47.9309 22.0367 48.9516L23.9383 50.0234C24.9493 50.5932 25.6629 51.5739 25.8941 52.7112L26.3283 54.8469C26.7417 56.8801 28.641 58.2597 30.7023 58.0241L32.8899 57.7741C34.0401 57.6427 35.1908 58.016 36.0447 58.7976L37.6674 60.2828C39.196 61.6818 41.5401 61.6818 43.0687 60.2828L44.6914 58.7976C45.5453 58.016 46.696 57.6427 47.8462 57.7741L50.0338 58.0241C52.0951 58.2597 53.9944 56.8801 54.4078 54.8469L54.842 52.7112C55.0732 51.5739 55.7869 50.5932 56.7978 50.0234L58.6994 48.9516C60.5105 47.9309 61.2378 45.6931 60.3728 43.8027L59.4703 41.8304C58.9867 40.7735 58.9867 39.5586 59.4703 38.5017L60.3728 36.5294C61.2378 34.639 60.5105 32.4011 58.6994 31.3804L56.7978 30.3087C55.7869 29.7389 55.0732 28.7581 54.842 27.6209L54.4078 25.4852C53.9944 23.452 52.0951 22.0724 50.0338 22.3079L47.8462 22.5579C46.696 22.6894 45.5453 22.3161 44.6914 21.5345L43.0687 20.0493ZM33.4943 39.7684C34.1398 40.4518 34.9698 40.7935 35.9842 40.7935C36.9986 40.7935 37.822 40.4518 38.4543 39.7684C39.0867 39.0719 39.4029 38.1453 39.4029 36.9888C39.4029 35.8323 39.0867 34.9123 38.4543 34.2289C37.822 33.5323 36.9986 33.1841 35.9842 33.1841C34.9698 33.1841 34.1398 33.5323 33.4943 34.2289C32.862 34.9123 32.5458 35.8323 32.5458 36.9888C32.5458 38.1453 32.862 39.0719 33.4943 39.7684ZM46.5761 33.3418H44.2246L34.7788 47.1413H37.1304L46.5761 33.3418ZM37.0315 38.625C36.7812 38.993 36.4321 39.177 35.9842 39.177C35.5495 39.177 35.2004 38.993 34.9369 38.625C34.6734 38.2439 34.5417 37.6985 34.5417 36.9888C34.5417 36.2791 34.6734 35.7403 34.9369 35.3723C35.2004 34.9911 35.5495 34.8006 35.9842 34.8006C36.4321 34.8006 36.7812 34.9846 37.0315 35.3526C37.295 35.7206 37.4268 36.266 37.4268 36.9888C37.4268 37.7116 37.295 38.257 37.0315 38.625ZM43.5922 46.8456C44.1192 47.1479 44.712 47.299 45.3707 47.299C46.3851 47.299 47.2085 46.9573 47.8408 46.2739C48.4864 45.5774 48.8091 44.6508 48.8091 43.4943C48.8091 42.3378 48.4864 41.4178 47.8408 40.7344C47.2085 40.0378 46.3851 39.6896 45.3707 39.6896C44.712 39.6896 44.1192 39.8473 43.5922 40.1627C43.0784 40.465 42.6766 40.9052 42.3868 41.4835C42.097 42.0618 41.952 42.732 41.952 43.4943C41.952 44.2565 42.097 44.9268 42.3868 45.5051C42.6766 46.0833 43.0784 46.5302 43.5922 46.8456ZM46.418 45.1305C46.1677 45.4985 45.8186 45.6825 45.3707 45.6825C44.936 45.6825 44.5869 45.4985 44.3234 45.1305C44.0599 44.7625 43.9282 44.2171 43.9282 43.4943C43.9282 42.7715 44.0599 42.226 44.3234 41.8581C44.5869 41.4901 44.936 41.3061 45.3707 41.3061C45.8186 41.3061 46.1677 41.4966 46.418 41.8778C46.6815 42.2458 46.8133 42.7846 46.8133 43.4943C46.8133 44.204 46.6815 44.7494 46.418 45.1305Z" fill="#73919B"/>
</svg>
