<svg width="80" height="80" viewBox="0 0 80 80" fill="none" xmlns="http://www.w3.org/2000/svg">
<circle cx="40" cy="40" r="38.5" stroke="#73919B" stroke-width="3"/>
<path d="M58.4785 23.9264C58.4785 23.9264 56.239 23.2613 49.8587 21.5985C43.1102 19.8349 39.9947 19.2 39.9947 19.2C39.9947 19.2 36.8792 19.8349 30.1307 21.5985C23.7504 23.2613 21.5208 23.9264 21.5208 23.9264C21.5208 23.9264 20.4657 30.4465 23.3622 42.4992C25.7013 52.224 33.3556 58.4822 40.0046 60.8C46.6437 58.4822 54.308 52.2341 56.6471 42.4992C59.5336 30.4566 58.4785 23.9264 58.4785 23.9264Z" fill="#73919B"/>
<path d="M33.6 39.7525L36.1098 37.295L39.7525 40.9377L47.1599 33.6L49.6 35.9878L39.6828 45.905L33.6 39.7525Z" fill="#FEFEFE"/>
</svg>
