<svg width="320" height="126" viewBox="0 0 320 126" fill="none" xmlns="http://www.w3.org/2000/svg">
<rect width="320" height="126" fill="#73919B"/>
<path d="M35.9786 88.3473L37.6322 91.7143L31.3004 98.6563L22.2972 99.2569L20.5763 95.7421L26.4235 88.1984L35.9786 88.3473ZM31.6361 99.395L22.6305 100.068L30.9685 116.978L39.9741 116.306L46.3408 109.402L38.0028 92.4907L31.6361 99.395ZM27.8971 85.1669C27.8549 85.3454 27.8128 85.5238 27.7707 85.7022C28.3244 85.3325 28.8805 84.8908 29.4787 84.2707C30.2234 83.5856 30.8613 82.8592 31.3899 82.1634C31.6554 81.7794 31.921 81.3955 32.1145 81.008C32.308 80.6205 32.4642 80.2673 32.5112 79.9447C32.593 79.66 32.5283 79.4402 32.4984 79.2582C32.3965 79.0726 32.2225 78.8835 32.0113 78.7286C31.8697 78.6494 31.7628 78.608 31.7628 78.608C31.6908 78.6045 31.656 78.5666 31.6188 78.6009C31.6188 78.6009 31.5467 78.5973 31.4723 78.6658C31.3258 78.7308 31.1768 78.8678 31.0279 79.0048C30.7672 79.2446 30.5041 79.5564 30.2386 79.9403C30.0103 80.29 29.7448 80.6739 29.514 81.0957C29.0898 81.9049 28.6631 82.7863 28.3433 83.709C28.1473 84.1686 27.9862 84.666 27.8971 85.1669ZM21.576 81.1353C21.7427 81.5407 21.9814 81.9496 22.1828 82.3928C22.6602 83.2106 23.2096 84.0321 23.7962 84.8192C24.1094 85.1597 24.4201 85.5722 24.8053 85.9161C24.9444 86.0674 25.0836 86.2187 25.2252 86.298C25.1752 85.6457 25.0928 84.8835 24.9035 84.08C24.6868 83.0223 24.3932 82.1053 24.0599 81.2946C23.8584 80.8514 23.6918 80.446 23.4879 80.0749C23.2492 79.666 22.9708 79.3634 22.7621 79.1365C22.5533 78.9095 22.3397 78.8267 22.1608 78.7818C21.9819 78.7368 21.6914 78.7946 21.4704 78.928L21.4332 78.9623C21.3239 78.993 21.2867 79.0272 21.2494 79.0615C21.2122 79.0957 21.175 79.13 21.1725 79.2021C21.1328 79.3084 21.0883 79.5589 21.1829 79.9607C21.2427 80.3246 21.3746 80.6922 21.576 81.1353ZM15.0299 86.9477C15.0201 87.236 15.0476 87.4901 15.1495 87.6756C15.2167 87.8233 15.4279 87.9782 15.6763 88.0988C15.9596 88.2573 16.3173 88.3472 16.7843 88.4064C17.214 88.4999 17.6462 88.5214 18.1504 88.5464C19.0148 88.5892 19.9908 88.5293 21.0414 88.4009C21.8758 88.2618 22.601 88.1533 23.2218 87.9314C23.0802 87.8522 22.9386 87.773 22.7249 87.6902C22.2628 87.4868 21.7287 87.2798 21.3362 87.152C20.3723 86.8516 19.4433 86.5889 18.4745 86.4326C17.9727 86.3355 17.5058 86.2762 17.0736 86.2548C16.5694 86.2298 16.172 86.2462 15.8466 86.2662C15.6281 86.3276 15.4468 86.3547 15.3003 86.4196C15.191 86.4503 15.1538 86.4845 15.1886 86.5224C15.1513 86.5566 15.1513 86.5566 15.1117 86.6629C15.0744 86.6972 15.0372 86.7315 15.0299 86.9477ZM20.497 100.214L13.4087 100.729L21.7468 117.64L28.8351 117.125L20.497 100.214ZM43.9947 86.0011L39.4995 90.9044L47.8003 107.849L52.2955 102.946L43.9947 86.0011ZM13.6784 90.635C13.5368 90.5558 13.4672 90.4801 13.3256 90.4009C12.9032 90.0912 12.5552 89.7129 12.3165 89.304C12.0779 88.8951 11.8764 88.4519 11.7494 87.9402C11.6847 87.7204 11.6921 87.5042 11.6621 87.3222C11.6298 87.2123 11.6695 87.106 11.6371 86.9961L11.6792 86.8177L11.6841 86.6735C11.7012 86.169 11.8251 85.7058 12.0211 85.2462C12.2542 84.7524 12.6315 84.2657 13.0759 83.9268C13.262 83.7555 13.483 83.6221 13.7388 83.5264C13.9598 83.393 14.1783 83.3316 14.4341 83.236C14.9084 83.079 15.3405 83.1005 15.6311 83.0427C17.0394 83.0042 18.2517 83.4253 19.2503 83.7636C19.464 83.8464 19.6776 83.9292 19.8913 84.012L20.0402 83.8749C19.3468 83.0464 18.5862 82.0701 18.1283 80.6756C18.0288 80.418 17.8994 79.9784 17.8793 79.5081C17.8616 78.9657 17.8786 78.4612 18.0373 78.0359C18.2009 77.4664 18.5061 76.9761 18.9157 76.5993C19.2136 76.3253 19.5835 76.0548 19.951 75.8565C19.9882 75.8222 20.0603 75.8258 20.0975 75.7915L20.2068 75.7608L20.3508 75.768C20.4601 75.7373 20.5694 75.7066 20.6786 75.6759C20.8972 75.6146 21.1157 75.5532 21.297 75.5261C21.7689 75.4412 22.2731 75.4662 22.7748 75.5633C23.2766 75.6603 23.7387 75.8638 24.1611 76.1735C24.514 76.4076 24.8296 76.6759 25.1775 77.0542C25.5926 77.5801 25.9332 78.1746 26.269 78.9132C26.468 79.4285 26.6298 79.978 26.7494 80.7059C26.747 80.778 26.7818 80.8158 26.7793 80.8879L26.8513 80.8915C26.8959 80.641 26.9753 80.4283 27.0546 80.2157C27.3769 79.2209 27.8133 78.0512 28.7168 76.9408C28.8682 76.7317 29.2033 76.4235 29.5732 76.153C29.7942 76.0196 30.0151 75.8861 30.1989 75.7869C30.4198 75.6535 30.6384 75.5921 30.8917 75.5686C31.438 75.4152 32.0515 75.4095 32.6229 75.5822C33.0874 75.7135 33.5495 75.917 33.9719 76.2267L34.0415 76.3023L34.1831 76.3816C34.2527 76.4572 34.3596 76.4986 34.4292 76.5743C34.5683 76.7256 34.7795 76.8804 34.9187 77.0317C35.2667 77.41 35.5053 77.8189 35.6696 78.2963C35.871 78.7395 35.926 79.2476 35.9437 79.79C35.9388 79.9341 35.9339 80.0783 35.8942 80.1846L43.3848 79.5091L45.3419 83.5049L39.057 90.1243L37.167 86.2763L30.3144 86.2254C30.0189 86.4273 29.6887 86.5914 29.3584 86.7556C29.1375 86.889 28.8445 87.0189 28.6235 87.1523C28.3305 87.2822 28.1095 87.4156 27.8537 87.5113L27.7445 87.5419C27.6725 87.5384 27.5632 87.5691 27.4539 87.5997C27.2378 87.589 26.9869 87.5405 26.7757 87.3856C26.7733 87.4577 26.7336 87.564 26.6591 87.6325C26.545 87.8074 26.3588 87.9786 26.1751 88.0778L26.0658 88.1085C25.7728 88.2384 25.5219 88.1898 25.4151 88.1484C25.3431 88.1449 25.271 88.1413 25.2362 88.1035C25.2289 88.3197 25.1123 88.5666 24.9982 88.7415C24.9213 88.882 24.812 88.9127 24.7375 88.9812L24.7003 89.0155L24.6258 89.084C24.4049 89.2174 24.1839 89.3509 23.8909 89.4808C23.6351 89.5764 23.4141 89.7098 23.1211 89.8397C22.8654 89.9353 22.6096 90.0309 22.3886 90.1644L18.2042 95.4801L20.0917 99.4002L10.4378 100.041L8.4807 96.0449L13.6784 90.635ZM27.0834 86.8233C27.225 86.9025 27.297 86.9061 27.4039 86.9475C27.4759 86.951 27.5131 86.9168 27.5479 86.9546L27.5852 86.9204C27.8409 86.8247 28.0619 86.6913 28.3177 86.5957C28.5734 86.5001 28.7944 86.3666 29.0154 86.2332C29.5294 85.9699 29.9713 85.703 30.376 85.4703C31.3716 84.8338 32.2207 84.2622 32.9282 83.6114C33.4123 83.1661 33.7498 82.7858 34.0874 82.4054C34.5391 81.8502 34.8095 81.3221 34.9731 80.7526C35.0946 80.3616 35.1788 80.0048 35.1538 79.6786C35.1684 79.2462 35.0738 78.8444 34.9419 78.4768C34.8101 78.1093 34.6062 77.7382 34.3278 77.4356C34.1886 77.2843 34.0843 77.1708 33.9451 77.0195C33.8755 76.9439 33.8407 76.9061 33.7339 76.8647L33.5923 76.7855L33.5227 76.7098C33.1698 76.4757 32.7798 76.2759 32.4221 76.186C31.9575 76.0546 31.4881 76.0675 31.051 76.1902C30.8697 76.2173 30.686 76.3165 30.4675 76.3778C30.2837 76.477 30.1 76.5762 29.9511 76.7132C29.6184 76.9494 29.3553 77.2613 29.2063 77.3983C28.3774 78.4402 27.9806 79.5035 27.6956 80.464C27.4105 81.4246 27.195 82.4608 27.0492 83.5726C26.96 84.0736 26.943 84.5782 26.8886 85.117C26.8813 85.3332 26.8715 85.6215 26.8618 85.9098C26.8569 86.054 26.852 86.1981 26.9192 86.3458C26.9167 86.4179 26.9491 86.5278 26.9814 86.6377C26.9094 86.6342 26.979 86.7098 27.0834 86.8233ZM24.0905 86.7832C24.3365 86.9759 24.5477 87.1308 24.7613 87.2135C24.8681 87.2549 25.0098 87.3342 25.1514 87.4134C25.2582 87.4548 25.3302 87.4583 25.4371 87.4997C25.5091 87.5033 25.6159 87.5447 25.7624 87.4798L25.7997 87.4455C25.9089 87.4148 25.9834 87.3463 26.0231 87.24C26.0603 87.2057 26.0627 87.1337 26.1 87.0994L26.1024 87.0273C26.194 86.4543 26.2483 85.9155 26.2654 85.4109C26.2849 84.8343 26.302 84.3298 26.2819 83.8595C26.2861 82.6684 26.1762 81.6522 26.0291 80.6702C25.907 80.0144 25.78 79.5027 25.5786 79.0595C25.3124 78.3965 25.0066 77.8399 24.6611 77.3896C24.3827 77.087 24.1392 76.8222 23.8211 76.6259C23.4683 76.3918 23.041 76.2263 22.6833 76.1363C22.2883 76.0806 21.8562 76.0592 21.4936 76.1134C21.3123 76.1405 21.131 76.1677 20.9845 76.2326C20.8752 76.2633 20.838 76.2975 20.7287 76.3282L20.5822 76.3931L20.4729 76.4238C20.4357 76.4581 20.3637 76.4545 20.3264 76.4888C19.9962 76.6529 19.7007 76.8548 19.4401 77.0946C19.105 77.4029 18.8742 77.8246 18.7155 78.25C18.5941 78.641 18.5446 79.0357 18.602 79.4717C18.6246 79.8699 18.7565 80.2375 18.7839 80.4915C19.2119 81.704 19.9377 82.6425 20.5963 83.4332C21.255 84.224 22.0254 84.9119 22.8653 85.6756C23.2108 86.1259 23.6332 86.4356 24.0905 86.7832ZM12.8702 88.9344C13.0741 89.3055 13.3524 89.6081 13.7053 89.8422C13.9861 90.0727 14.3413 90.2347 14.6966 90.3967C15.2307 90.6037 15.8766 90.7079 16.5621 90.7058C17.0663 90.7308 17.6102 90.6494 18.2261 90.5717C19.1698 90.4019 20.1532 90.1257 21.3204 89.7504C21.7574 89.6277 22.2342 89.3986 22.7829 89.1731C23.0387 89.0775 23.2597 88.9441 23.5155 88.8485C23.7712 88.7528 23.9922 88.6194 24.2132 88.4859L24.2504 88.4517C24.2876 88.4174 24.3249 88.3832 24.3621 88.3489C24.4366 88.2804 24.4763 88.1741 24.4439 88.0642C24.414 87.8822 24.3816 87.7723 24.3468 87.7345C24.2797 87.5868 24.2101 87.5111 24.1753 87.4733C24.0709 87.3598 23.9665 87.2463 23.8249 87.1671C23.5789 86.9744 23.3677 86.8196 23.1565 86.6647C22.662 86.3514 22.2744 86.0795 21.8148 85.804C20.8234 85.2494 19.9017 84.7706 18.9402 84.398C17.9788 84.0254 16.8361 83.68 15.5719 83.7256C15.3186 83.7492 14.9212 83.7656 14.5214 83.854C14.3028 83.9154 14.1191 84.0146 13.9378 84.0417C13.8236 84.2165 13.6399 84.3157 13.491 84.4527C13.121 84.7232 12.8555 85.1071 12.6248 85.5289C12.4685 85.8821 12.3818 86.311 12.3324 86.7057L12.3623 86.8876L12.3574 87.0318C12.355 87.1039 12.3873 87.2138 12.3477 87.3201C12.3776 87.5021 12.4075 87.6841 12.4374 87.866C12.5345 88.1957 12.7011 88.6011 12.8702 88.9344Z" fill="#5A767F"/>
<path d="M75.0624 92.6903L74.7437 93.8742L71.6919 94.217L69.3492 92.4255L69.6832 91.1908L72.7455 90.5957L75.0624 92.6903ZM71.6153 94.4709L69.2565 92.6966L67.6639 98.6498L70.0227 100.424L73.075 100.098L74.6676 94.1449L71.6153 94.4709ZM73.7607 90.1678C73.7119 90.2026 73.6631 90.2374 73.6144 90.2722C73.8301 90.3006 74.0619 90.3117 74.3426 90.2881C74.6732 90.2801 74.9865 90.2389 75.2663 90.1817C75.4143 90.1445 75.5623 90.1074 75.6933 90.0538C75.8243 90.0002 75.9388 89.947 76.0199 89.8778C76.1013 89.8254 76.1327 89.7575 76.1646 89.7063C76.1795 89.6387 76.1774 89.5548 76.1589 89.4712C76.1411 89.4212 76.1238 89.388 76.1238 89.388C76.1068 89.3716 76.1064 89.3548 76.0899 89.3552C76.0899 89.3552 76.073 89.3388 76.0399 89.3396C75.9899 89.3241 75.9238 89.3257 75.8576 89.3273C75.7419 89.3301 75.6101 89.3501 75.4621 89.3873C75.3307 89.424 75.1827 89.4612 75.0351 89.5152C74.7565 89.6228 74.4618 89.7476 74.1844 89.9055C74.0373 89.9763 73.8905 90.0638 73.7607 90.1678ZM73.0751 87.8152C73.0288 87.9507 72.9994 88.1027 72.9534 88.255C72.8946 88.5589 72.8528 88.8792 72.8274 89.199C72.8311 89.3502 72.8186 89.5185 72.8392 89.686C72.8409 89.7532 72.8425 89.8204 72.8603 89.8704C72.9884 89.6992 73.1323 89.4941 73.2589 89.2558C73.4334 88.9491 73.5588 88.6604 73.6514 88.3893C73.6974 88.237 73.7437 88.1015 73.7735 87.9663C73.8029 87.8144 73.7997 87.68 73.7972 87.5793C73.7948 87.4785 73.7601 87.4121 73.7258 87.3626C73.6915 87.313 73.6076 87.2646 73.5246 87.2498L73.508 87.2502C73.4746 87.2342 73.458 87.2346 73.4415 87.235C73.425 87.2354 73.4085 87.2358 73.3923 87.253C73.3597 87.2706 73.2948 87.3226 73.2315 87.4417C73.1678 87.5441 73.1211 87.6629 73.0751 87.8152ZM70.2139 87.8341C70.1494 87.9029 70.1014 87.9713 70.0865 88.0388C70.0712 88.0896 70.0898 88.1732 70.1249 88.2564C70.1604 88.3563 70.229 88.4555 70.331 88.5706C70.4165 88.6862 70.5181 88.7845 70.6367 88.8993C70.84 89.096 71.0928 89.2915 71.3788 89.4862C71.6139 89.6317 71.8155 89.7613 72.0159 89.8404C71.9982 89.7904 71.9804 89.7405 71.9457 89.6741C71.8759 89.5246 71.7892 89.3586 71.7202 89.2427C71.548 88.9612 71.3762 88.6965 71.1717 88.4494C71.0692 88.3175 70.9672 88.2023 70.8656 88.104C70.747 87.9892 70.6458 87.9077 70.5615 87.8425C70.4945 87.8105 70.4441 87.7781 70.3941 87.7625C70.3607 87.7466 70.3441 87.747 70.3445 87.7637C70.328 87.7641 70.328 87.7641 70.2953 87.7817C70.2788 87.7821 70.2623 87.7825 70.2139 87.8341ZM68.7004 92.2732L66.8469 90.873L65.2543 96.8263L67.1078 98.2264L68.7004 92.2732ZM77.5384 93.8401L75.3772 94.0773L73.7681 100.031L75.9293 99.7938L77.5384 93.8401ZM69.0875 88.4495C69.0697 88.3995 69.0689 88.366 69.0511 88.316C69.014 88.1488 69.0099 87.9809 69.0393 87.829C69.0687 87.677 69.1147 87.5247 69.1937 87.3716C69.2251 87.3036 69.2735 87.252 69.3053 87.2008C69.321 87.1668 69.3537 87.1492 69.3694 87.1153L69.4182 87.0805L69.4504 87.0461C69.5633 86.9257 69.6935 86.8386 69.8407 86.7678C70.0044 86.6966 70.202 86.6582 70.3842 86.6706C70.4669 86.6686 70.5499 86.6834 70.6334 86.715C70.7165 86.7298 70.7834 86.7617 70.8669 86.7933C71.0173 86.8569 71.1189 86.9552 71.2028 87.0036C71.5573 87.2975 71.7646 87.6621 71.9373 87.9604C71.972 88.0268 72.0067 88.0931 72.0414 88.1595L72.1075 88.1579C72.1155 87.8048 72.1388 87.401 72.3266 86.9596C72.3576 86.8748 72.4205 86.7389 72.5168 86.6189C72.6293 86.4818 72.7421 86.3614 72.8728 86.291C73.0356 86.1863 73.2163 86.1315 73.3981 86.1271C73.5304 86.1239 73.6796 86.1371 73.8126 86.1674C73.8292 86.167 73.8461 86.1834 73.8626 86.183L73.8961 86.199L73.93 86.2318C73.9635 86.2478 73.9969 86.2638 74.0304 86.2798C74.0973 86.3118 74.1643 86.3438 74.2147 86.3761C74.349 86.4569 74.4676 86.5717 74.57 86.7036C74.6724 86.8355 74.7422 86.9851 74.7794 87.1522C74.8157 87.2857 74.8355 87.4197 74.8395 87.5876C74.8283 87.8063 74.784 88.0258 74.7074 88.2797C74.6454 88.4493 74.5668 88.6192 74.4394 88.8239C74.4233 88.8411 74.4237 88.8579 74.4076 88.8751L74.4245 88.8915C74.4894 88.8395 74.5547 88.8043 74.62 88.7691C74.9135 88.594 75.2728 88.4005 75.734 88.3221C75.8163 88.3033 75.9651 88.2997 76.1143 88.3129C76.1973 88.3277 76.2804 88.3424 76.3469 88.3576C76.43 88.3724 76.4969 88.4044 76.5643 88.4532C76.7316 88.5331 76.8837 88.6639 76.9869 88.8294C77.0728 88.9618 77.1426 89.1113 77.1798 89.2784L77.1806 89.312L77.1983 89.362C77.1992 89.3956 77.2165 89.4288 77.2173 89.4623C77.2189 89.5295 77.2375 89.6131 77.2391 89.6803C77.2432 89.8482 77.2138 90.0001 77.1513 90.1529C77.1054 90.3052 77.0095 90.442 76.897 90.5791C76.8647 90.6135 76.8325 90.6479 76.7998 90.6655L78.7868 92.1128L78.4073 93.5166L75.4364 93.7903L75.8007 92.4372L74.127 90.9487C74.0109 90.9347 73.8943 90.9039 73.7778 90.8731C73.6947 90.8583 73.5947 90.8271 73.5117 90.8124C73.4116 90.7812 73.3286 90.7664 73.2451 90.7348L73.2116 90.7188C73.1947 90.7024 73.1612 90.6864 73.1278 90.6704C73.0769 90.6213 73.0257 90.5553 73.0072 90.4717C72.991 90.4889 72.9584 90.5065 72.9253 90.5073C72.8596 90.5257 72.7769 90.5277 72.7104 90.5125L72.6769 90.4965C72.5769 90.4653 72.5257 90.3994 72.5084 90.3662C72.4914 90.3498 72.4745 90.3334 72.4741 90.3166C72.4257 90.3682 72.3439 90.4038 72.2781 90.4222C72.2289 90.4402 72.1955 90.4242 72.1624 90.425L72.1459 90.4254L72.1128 90.4262C72.0297 90.4114 71.9467 90.3966 71.8467 90.3654C71.7632 90.3338 71.6801 90.319 71.5801 90.2879C71.4967 90.2563 71.4132 90.2247 71.3301 90.2099L69.1565 90.6154L68.7761 91.9857L66.2649 90.0638L66.6444 88.6599L69.0875 88.4495ZM73.2039 90.3997C73.2217 90.4497 73.2386 90.4661 73.2559 90.4993C73.2729 90.5157 73.2894 90.5153 73.2898 90.5321L73.3064 90.5317C73.3898 90.5633 73.4729 90.5781 73.5564 90.6096C73.6398 90.6412 73.7229 90.656 73.806 90.6708C73.989 90.7168 74.1552 90.7464 74.3048 90.7763C74.6866 90.8343 75.0185 90.8767 75.3326 90.8691C75.5475 90.8638 75.7124 90.843 75.8773 90.8222C76.108 90.7831 76.2882 90.7115 76.451 90.6067C76.5651 90.5367 76.6627 90.4672 76.7268 90.3816C76.8235 90.2784 76.8868 90.1593 76.9336 90.0405C76.9803 89.9218 77.0101 89.7866 77.0069 89.6523C77.0052 89.5851 77.004 89.5347 77.0024 89.4676C77.0016 89.434 77.0012 89.4172 76.9838 89.384L76.9661 89.334L76.9653 89.3004C76.9289 89.1669 76.8761 89.0337 76.8075 88.9346C76.7216 88.8022 76.6034 88.7043 76.4696 88.6403C76.4192 88.6079 76.3526 88.5927 76.2857 88.5608C76.2192 88.5456 76.1526 88.5304 76.0865 88.532C75.9538 88.5184 75.822 88.5384 75.7559 88.54C75.3277 88.6176 75.0011 88.7935 74.7241 88.9683C74.4472 89.143 74.171 89.3513 73.8956 89.5932C73.7658 89.6972 73.653 89.8176 73.5236 89.9383C73.4752 89.9899 73.4107 90.0587 73.3462 90.1274C73.3139 90.1618 73.2817 90.1962 73.2664 90.247C73.2502 90.2642 73.2345 90.2982 73.2188 90.3322C73.2019 90.3158 73.2027 90.3494 73.2039 90.3997ZM72.4768 89.7452C72.4957 89.8456 72.5143 89.9292 72.549 89.9955C72.5663 90.0287 72.5841 90.0787 72.6018 90.1287C72.6192 90.1619 72.6361 90.1783 72.6535 90.2114C72.6704 90.2278 72.6878 90.261 72.7378 90.2766L72.7543 90.2762C72.7878 90.2922 72.8208 90.2914 72.8535 90.2738C72.87 90.2734 72.8861 90.2562 72.9027 90.2558L72.9188 90.2386C73.0647 90.1175 73.1941 89.9967 73.307 89.8763C73.436 89.7388 73.5489 89.6184 73.6452 89.4985C73.9028 89.2066 74.0947 88.9331 74.27 88.66C74.3813 88.4725 74.4603 88.3193 74.5062 88.167C74.5836 87.9467 74.6283 87.744 74.6403 87.5588C74.6371 87.4245 74.6342 87.3069 74.5983 87.1902C74.562 87.0566 74.4926 86.9239 74.4241 86.8247C74.339 86.726 74.2373 86.6276 74.1365 86.5629C74.0861 86.5305 74.0357 86.4981 73.9857 86.4825C73.9522 86.4665 73.9357 86.4669 73.9022 86.4509L73.8522 86.4353L73.8187 86.4193C73.8022 86.4197 73.7853 86.4033 73.7687 86.4037C73.6522 86.373 73.5361 86.359 73.4204 86.3618C73.2716 86.3654 73.124 86.4194 72.9934 86.4897C72.8793 86.5597 72.7821 86.6461 72.7023 86.7656C72.6221 86.8684 72.5754 86.9872 72.5274 87.0555C72.3714 87.4458 72.3477 87.8328 72.3393 88.1691C72.3309 88.5054 72.3721 88.8404 72.4142 89.2091C72.4021 89.3942 72.4392 89.5613 72.4768 89.7452ZM69.2551 87.8574C69.2253 87.9925 69.2285 88.1268 69.2648 88.2604C69.2842 88.3775 69.3367 88.4939 69.3891 88.6102C69.4758 88.7762 69.6121 88.9409 69.7811 89.088C69.8997 89.2028 70.0509 89.2999 70.2191 89.4135C70.4877 89.575 70.7889 89.7189 71.1567 89.878C71.2906 89.942 71.4571 89.9884 71.6406 90.0512C71.724 90.0827 71.8071 90.0975 71.8906 90.1291C71.974 90.1607 72.0571 90.1755 72.1402 90.1903L72.1567 90.1899C72.1732 90.1895 72.1898 90.1891 72.2063 90.1887C72.2394 90.1879 72.272 90.1703 72.2877 90.1363C72.3196 90.0851 72.3353 90.0511 72.3349 90.0343C72.3502 89.9835 72.3494 89.95 72.349 89.9332C72.3478 89.8828 72.3465 89.8324 72.3288 89.7824C72.3098 89.6821 72.2913 89.5985 72.2727 89.5149C72.2186 89.3314 72.1819 89.1811 72.1282 89.0144C72.004 88.6645 71.8805 88.3482 71.7244 88.0496C71.5683 87.7509 71.3618 87.4198 71.0412 87.1588C70.9738 87.11 70.8726 87.0284 70.7552 86.9641C70.6883 86.9321 70.6218 86.9169 70.5714 86.8845C70.5056 86.9029 70.4391 86.8877 70.373 86.8893C70.2238 86.8761 70.0758 86.9133 69.9282 86.9673C69.8137 87.0205 69.7001 87.1072 69.6029 87.1936L69.5711 87.2448L69.5388 87.2792C69.5227 87.2964 69.507 87.3304 69.4743 87.348C69.4425 87.3991 69.4106 87.4503 69.3788 87.5015C69.3316 87.6035 69.2853 87.739 69.2551 87.8574Z" fill="#5A767F"/>
<path d="M101.062 12.6903L100.744 13.8742L97.6919 14.217L95.3492 12.4255L95.6832 11.1908L98.7455 10.5957L101.062 12.6903ZM97.6153 14.4709L95.2565 12.6966L93.6639 18.6498L96.0227 20.4242L99.075 20.0982L100.668 14.1449L97.6153 14.4709ZM99.7607 10.1678C99.7119 10.2026 99.6631 10.2374 99.6144 10.2722C99.8301 10.3006 100.062 10.3117 100.343 10.2881C100.673 10.2801 100.986 10.2389 101.266 10.1817C101.414 10.1445 101.562 10.1074 101.693 10.0538C101.824 10.0002 101.939 9.947 102.02 9.87783C102.101 9.82545 102.133 9.75747 102.165 9.70629C102.179 9.63872 102.177 9.55475 102.159 9.47119C102.141 9.42121 102.124 9.38802 102.124 9.38802C102.107 9.37163 102.106 9.35484 102.09 9.35524C102.09 9.35524 102.073 9.33885 102.04 9.33965C101.99 9.32406 101.924 9.32566 101.858 9.32726C101.742 9.33006 101.61 9.35006 101.462 9.38725C101.331 9.42404 101.183 9.46124 101.035 9.51522C100.757 9.62279 100.462 9.74755 100.184 9.9055C100.037 9.97628 99.8905 10.0638 99.7607 10.1678ZM99.0751 7.8152C99.0288 7.95075 98.9994 8.10269 98.9534 8.25503C98.8946 8.55891 98.8528 8.87918 98.8274 9.19905C98.8311 9.35019 98.8186 9.51852 98.8392 9.68605C98.8409 9.75322 98.8425 9.82039 98.8603 9.87037C98.9884 9.69924 99.1323 9.49411 99.2589 9.2558C99.4334 8.94912 99.5588 8.66044 99.6514 8.38934C99.6974 8.237 99.7437 8.10146 99.7735 7.96631C99.8029 7.81437 99.7997 7.68003 99.7972 7.57927C99.7948 7.47851 99.7601 7.41214 99.7258 7.36256C99.6915 7.31298 99.6076 7.2646 99.5246 7.24981L99.508 7.25021C99.4746 7.23422 99.458 7.23462 99.4415 7.23502C99.425 7.23542 99.4085 7.23582 99.3923 7.25302C99.3597 7.27061 99.2948 7.32259 99.2315 7.44175C99.1678 7.54411 99.1211 7.66286 99.0751 7.8152ZM96.2139 7.83412C96.1494 7.9029 96.1014 7.97127 96.0865 8.03884C96.0712 8.08962 96.0898 8.17319 96.1249 8.25635C96.1604 8.35631 96.229 8.45547 96.331 8.57061C96.4165 8.68616 96.5181 8.78452 96.6367 8.89927C96.84 9.09598 97.0928 9.29149 97.3788 9.48619C97.6139 9.63172 97.8155 9.76126 98.0159 9.84042C97.9982 9.79044 97.9804 9.74046 97.9457 9.67409C97.8759 9.52456 97.7892 9.35863 97.7202 9.24268C97.548 8.9612 97.3762 8.69652 97.1717 8.44943C97.0692 8.31749 96.9672 8.20234 96.8656 8.10398C96.747 7.98923 96.6458 7.90767 96.5615 7.8425C96.4945 7.81052 96.4441 7.77813 96.3941 7.76254C96.3607 7.74655 96.3441 7.74695 96.3445 7.76374C96.328 7.76414 96.328 7.76414 96.2953 7.78174C96.2788 7.78214 96.2623 7.78254 96.2139 7.83412ZM94.7004 12.2732L92.8469 10.873L91.2543 16.8263L93.1078 18.2264L94.7004 12.2732ZM103.538 13.8401L101.377 14.0773L99.7681 20.031L101.929 19.7938L103.538 13.8401ZM95.0875 8.44952C95.0697 8.39954 95.0689 8.36595 95.0511 8.31598C95.014 8.14885 95.0099 7.98091 95.0393 7.82897C95.0687 7.67704 95.1147 7.5247 95.1937 7.37156C95.2251 7.30358 95.2735 7.252 95.3053 7.20082C95.321 7.16683 95.3537 7.14924 95.3694 7.11525L95.4182 7.08046L95.4504 7.04608C95.5633 6.92572 95.6935 6.83855 95.8407 6.76777C96.0044 6.6966 96.202 6.6582 96.3842 6.67059C96.4669 6.66859 96.5499 6.68338 96.6334 6.71496C96.7165 6.72975 96.7834 6.76173 96.8669 6.79332C97.0173 6.85689 97.1189 6.95524 97.2028 7.00362C97.5573 7.29748 97.7646 7.66212 97.9373 7.96039C97.972 8.02676 98.0067 8.09314 98.0414 8.15951L98.1075 8.15791C98.1155 7.80485 98.1388 7.40101 98.3266 6.95959C98.3576 6.87482 98.4205 6.73887 98.5168 6.61892C98.6293 6.48177 98.7421 6.36141 98.8728 6.29104C99.0356 6.18627 99.2163 6.13149 99.3981 6.12708C99.5304 6.12387 99.6796 6.13706 99.8126 6.16744C99.8292 6.16704 99.8461 6.18344 99.8626 6.18304L99.8961 6.19903L99.93 6.23181C99.9635 6.2478 99.9969 6.2638 100.03 6.27979C100.097 6.31177 100.164 6.34376 100.215 6.37614C100.349 6.4569 100.468 6.57165 100.57 6.70359C100.672 6.83553 100.742 6.98507 100.779 7.1522C100.816 7.28574 100.835 7.41969 100.84 7.58762C100.828 7.80633 100.784 8.02584 100.707 8.27974C100.645 8.44927 100.567 8.61921 100.439 8.82393C100.423 8.84112 100.424 8.85792 100.408 8.87511L100.425 8.8915C100.489 8.83952 100.555 8.80433 100.62 8.76914C100.914 8.594 101.273 8.40047 101.734 8.32208C101.816 8.30328 101.965 8.29968 102.114 8.31286C102.197 8.32766 102.28 8.34245 102.347 8.35764C102.43 8.37243 102.497 8.40441 102.564 8.45319C102.732 8.53315 102.884 8.66389 102.987 8.82941C103.073 8.96176 103.143 9.11129 103.18 9.27842L103.181 9.31201L103.198 9.36199C103.199 9.39557 103.216 9.42876 103.217 9.46235C103.219 9.52952 103.238 9.61308 103.239 9.68026C103.243 9.84819 103.214 10.0001 103.151 10.1529C103.105 10.3052 103.009 10.442 102.897 10.5791C102.865 10.6135 102.832 10.6479 102.8 10.6655L104.787 12.1128L104.407 13.5166L101.436 13.7903L101.801 12.4372L100.127 10.9487C100.011 10.9347 99.8943 10.9039 99.7778 10.8731C99.6947 10.8583 99.5947 10.8271 99.5117 10.8124C99.4116 10.7812 99.3286 10.7664 99.2451 10.7348L99.2116 10.7188C99.1947 10.7024 99.1612 10.6864 99.1278 10.6704C99.0769 10.6213 99.0257 10.5553 99.0072 10.4717C98.991 10.4889 98.9584 10.5065 98.9253 10.5073C98.8596 10.5257 98.7769 10.5277 98.7104 10.5125L98.6769 10.4965C98.5769 10.4653 98.5257 10.3994 98.5084 10.3662C98.4914 10.3498 98.4745 10.3334 98.4741 10.3166C98.4257 10.3682 98.3439 10.4038 98.2781 10.4222C98.2289 10.4402 98.1955 10.4242 98.1624 10.425L98.1459 10.4254L98.1128 10.4262C98.0297 10.4114 97.9467 10.3966 97.8467 10.3654C97.7632 10.3338 97.6801 10.319 97.5801 10.2879C97.4967 10.2563 97.4132 10.2247 97.3301 10.2099L95.1565 10.6154L94.7761 11.9857L92.2649 10.0638L92.6444 8.65994L95.0875 8.44952ZM99.2039 10.3997C99.2217 10.4497 99.2386 10.4661 99.2559 10.4993C99.2729 10.5157 99.2894 10.5153 99.2898 10.5321L99.3064 10.5317C99.3898 10.5633 99.4729 10.5781 99.5564 10.6096C99.6398 10.6412 99.7229 10.656 99.806 10.6708C99.989 10.7168 100.155 10.7464 100.305 10.7763C100.687 10.8343 101.018 10.8767 101.333 10.8691C101.547 10.8638 101.712 10.843 101.877 10.8222C102.108 10.7831 102.288 10.7115 102.451 10.6067C102.565 10.5367 102.663 10.4672 102.727 10.3816C102.824 10.2784 102.887 10.1593 102.934 10.0405C102.98 9.92177 103.01 9.78662 103.007 9.65228C103.005 9.5851 103.004 9.53473 103.002 9.46755C103.002 9.43397 103.001 9.41717 102.984 9.38399L102.966 9.33401L102.965 9.30042C102.929 9.16688 102.876 9.03374 102.808 8.93458C102.722 8.80224 102.603 8.70428 102.47 8.64032C102.419 8.60793 102.353 8.59274 102.286 8.56076C102.219 8.54557 102.153 8.53037 102.086 8.53198C101.954 8.51839 101.822 8.53839 101.756 8.53999C101.328 8.61757 101.001 8.79352 100.724 8.96826C100.447 9.143 100.171 9.35133 99.8956 9.59324C99.7658 9.6972 99.653 9.81756 99.5236 9.93831C99.4752 9.9899 99.4107 10.0587 99.3462 10.1274C99.3139 10.1618 99.2817 10.1962 99.2664 10.247C99.2502 10.2642 99.2345 10.2982 99.2188 10.3322C99.2019 10.3158 99.2027 10.3494 99.2039 10.3997ZM98.4768 9.74524C98.4957 9.8456 98.5143 9.92916 98.549 9.99553C98.5663 10.0287 98.5841 10.0787 98.6018 10.1287C98.6192 10.1619 98.6361 10.1783 98.6535 10.2114C98.6704 10.2278 98.6878 10.261 98.7378 10.2766L98.7543 10.2762C98.7878 10.2922 98.8208 10.2914 98.8535 10.2738C98.87 10.2734 98.8861 10.2562 98.9027 10.2558L98.9188 10.2386C99.0647 10.1175 99.1941 9.9967 99.307 9.87635C99.436 9.7388 99.5489 9.61844 99.6452 9.49849C99.9028 9.2066 100.095 8.9331 100.27 8.66C100.381 8.47248 100.46 8.31934 100.506 8.167C100.584 7.94668 100.628 7.74396 100.64 7.55884C100.637 7.42449 100.634 7.30694 100.598 7.19019C100.562 7.05665 100.493 6.9239 100.424 6.82475C100.339 6.72599 100.237 6.62764 100.137 6.56287C100.086 6.53048 100.036 6.4981 99.9857 6.48251C99.9522 6.46652 99.9357 6.46692 99.9022 6.45092L99.8522 6.43533L99.8187 6.41934C99.8022 6.41974 99.7853 6.40335 99.7687 6.40375C99.6522 6.37297 99.5361 6.35898 99.4204 6.36178C99.2716 6.36539 99.124 6.41937 98.9934 6.48975C98.8793 6.55972 98.7821 6.64609 98.7023 6.76565C98.6221 6.86841 98.5754 6.98716 98.5274 7.05554C98.3714 7.44578 98.3477 7.83283 98.3393 8.16909C98.3309 8.50535 98.3721 8.84041 98.4142 9.20906C98.4021 9.39419 98.4392 9.56132 98.4768 9.74524ZM95.2551 7.85735C95.2253 7.9925 95.2285 8.12684 95.2648 8.26039C95.2842 8.37754 95.3367 8.49389 95.3891 8.61024C95.4758 8.77617 95.6121 8.94089 95.7811 9.08803C95.8997 9.20277 96.0509 9.29993 96.2191 9.41347C96.4877 9.575 96.7889 9.71892 97.1567 9.87804C97.2906 9.94201 97.4571 9.98838 97.6406 10.0512C97.724 10.0827 97.8071 10.0975 97.8906 10.1291C97.974 10.1607 98.0571 10.1755 98.1402 10.1903L98.1567 10.1899C98.1732 10.1895 98.1898 10.1891 98.2063 10.1887C98.2394 10.1879 98.272 10.1703 98.2877 10.1363C98.3196 10.0851 98.3353 10.0511 98.3349 10.0343C98.3502 9.98355 98.3494 9.94996 98.349 9.93317C98.3478 9.88279 98.3465 9.83241 98.3288 9.78243C98.3098 9.68207 98.2913 9.59851 98.2727 9.51494C98.2186 9.33142 98.1819 9.18108 98.1282 9.01435C98.004 8.6645 97.8805 8.34824 97.7244 8.04957C97.5683 7.7509 97.3618 7.41984 97.0412 7.15876C96.9738 7.10998 96.8726 7.02842 96.7552 6.96405C96.6883 6.93207 96.6218 6.91688 96.5714 6.88449C96.5056 6.90289 96.4391 6.8877 96.373 6.8893C96.2238 6.87611 96.0758 6.9133 95.9282 6.96729C95.8137 7.02047 95.7001 7.10724 95.6029 7.19361L95.5711 7.24479L95.5388 7.27918C95.5227 7.29637 95.507 7.33036 95.4743 7.34795C95.4425 7.39913 95.4106 7.45031 95.3788 7.50149C95.3316 7.60345 95.2853 7.739 95.2551 7.85735Z" fill="#5A767F"/>
<path d="M26.8268 17.1942L26.2422 20.4928C26.1791 20.7588 25.9446 20.9187 25.6879 20.8954L18.3416 19.5674L19.2367 14.5629C21.7161 15.0472 24.1385 15.7333 26.4849 16.5419C26.7206 16.654 26.8898 16.9282 26.8268 17.1942Z" fill="#5A767F"/>
<path d="M24.625 21.6268L23.4825 28.0712C23.4195 28.3372 23.185 28.497 22.9283 28.4737L16.9425 27.4118L18.2518 19.9862L24.2376 21.0481C24.5036 21.1111 24.688 21.3608 24.625 21.6268Z" fill="#5A767F"/>
<path d="M10.8506 18.6921L16.8364 19.754L15.5329 27.1155L9.54716 26.0536C9.28112 25.9906 9.12127 25.756 9.14461 25.4993L10.287 19.055C10.3349 18.8135 10.5846 18.6291 10.8506 18.6921Z" fill="#5A767F"/>
<path d="M10.3222 13.6878C12.8916 13.7532 15.3699 13.9656 17.8062 14.3553L16.9264 19.3353L9.5649 18.0319C9.29886 17.9688 9.13901 17.7343 9.16235 17.4776L9.74699 14.179C9.80067 13.8733 10.0655 13.6645 10.3222 13.6878Z" fill="#5A767F"/>
<path d="M19.4665 6.19828C19.4819 6.17349 19.4819 6.17349 19.4665 6.19828C19.5067 6.18884 19.5067 6.18884 19.4665 6.19828C19.5067 6.18884 19.4819 6.17349 19.4665 6.19828Z" fill="#5A767F"/>
<path d="M10.0306 4.79647C10.0306 4.79647 13.0444 13.7799 18.1504 13.4159C18.2391 13.4369 18.3371 13.4976 18.441 13.4941C18.8353 13.5688 19.2379 13.4113 19.5669 13.2082C19.5518 13.2328 19.5518 13.2328 19.5366 13.2573C19.4911 13.3308 19.5098 13.4101 19.5284 13.4895C19.5809 13.6236 19.679 13.6843 19.777 13.745C19.875 13.8057 19.9485 13.8512 20.0372 13.8722C20.4012 13.9959 20.7559 14.0799 21.1013 14.1242C21.8166 14.2281 22.5622 14.2829 23.3008 14.1301C23.9845 14.0111 24.6776 13.9318 25.401 13.8034C25.7581 13.7194 26.1397 13.6506 26.5329 13.4534C26.7371 13.3426 26.9564 13.2072 27.163 12.9283C27.254 12.7813 27.3357 12.5946 27.3532 12.4021C27.3707 12.2096 27.3485 12.0264 27.3112 11.8677L27.2773 11.8129L27.2493 11.6938C27.2307 11.6145 27.1817 11.5842 27.163 11.5048C27.0801 11.4196 27.0125 11.31 26.9296 11.2248C26.7791 11.0299 26.6228 10.8992 26.4664 10.7685C26.114 10.5165 25.7558 10.3286 25.3918 10.2049C24.6392 9.9424 23.8142 9.90621 23.0605 10.0836C22.9811 10.1022 22.8621 10.1302 22.7828 10.1489L22.7034 10.1676L22.6637 10.1769L22.6241 10.1862L22.4899 10.2387C22.3009 10.3251 22.127 10.3869 21.9625 10.4884C21.6486 10.6669 21.3534 10.9248 21.0979 11.1733C21.3371 10.6774 21.5121 10.1757 21.6381 9.64364C21.833 8.78136 21.9299 7.85841 21.77 6.91211C21.6977 6.42671 21.546 5.95998 21.2415 5.46641C21.0816 5.23188 20.8973 4.98217 20.6336 4.75114C20.5017 4.63562 20.3547 4.5446 20.168 4.46292C20.0945 4.41742 20.0058 4.39641 19.8681 4.34507C19.804 4.33924 19.755 4.3089 19.7305 4.29373L19.7059 4.27856L19.6814 4.26339L19.6173 4.25755C19.3057 4.26805 18.9242 4.33689 18.601 4.47573C18.2778 4.61458 18.0526 4.8141 17.8274 5.01363C17.4411 5.41851 17.1926 5.87473 17.0234 6.31229C16.7095 7.20257 16.6126 8.12552 16.5613 8.97497C16.5344 9.83958 16.5963 10.7252 16.8471 11.5245C16.965 11.9364 17.1225 12.3389 17.3745 12.6983C17.4083 12.7532 17.3792 13.074 17.413 13.1289C15.4422 13.0273 13.6209 9.28996 14.9406 6.44643C11.8194 6.61557 10.0306 4.79647 10.0306 4.79647ZM19.8423 13.3109C19.8727 13.2619 19.9672 13.2188 20.0372 13.1604C20.3324 12.9026 20.5144 12.6085 20.7455 12.3448C20.952 12.066 21.183 11.8023 21.4082 11.6027C21.6731 11.3939 21.9473 11.2247 22.2157 11.1197C22.3499 11.0672 22.5085 11.0298 22.6672 10.9925L22.7862 10.9645L22.8259 10.9552C22.8259 10.9552 22.8259 10.9552 22.8504 10.9703L22.9146 10.9762C22.9939 10.9575 23.0581 10.9633 23.1375 10.9447C23.7757 10.8992 24.372 11.031 24.932 11.2761C25.1922 11.4033 25.4618 11.5701 25.6671 11.7312C25.8725 11.8922 26.0078 12.1115 26.0452 12.2702C26.03 12.2947 25.96 12.3531 25.8655 12.3962C25.6461 12.5316 25.3381 12.6459 25.03 12.7603C24.4139 12.989 23.7337 13.2118 23.0289 13.4195C22.4035 13.6085 21.7442 13.7427 21.057 13.7578C20.7209 13.7532 20.3604 13.7333 20.0605 13.6155C19.9718 13.5945 19.9228 13.5641 19.8493 13.5186C19.7758 13.4731 19.7268 13.4428 19.7175 13.4031C19.812 13.3599 19.7875 13.3448 19.8423 13.3109ZM18.4795 13.2129C18.1189 13.1931 17.7817 12.9165 17.5787 12.5875C17.3757 12.2584 17.2427 11.871 17.189 11.465C17.0665 10.6774 17.1272 9.8676 17.3162 9.06949C17.4901 8.29589 17.8413 7.5643 18.3186 7.0124C18.5496 6.7487 18.8051 6.50017 19.0245 6.36483C19.1342 6.29715 19.2439 6.22948 19.308 6.23531C19.3874 6.21665 19.4119 6.23181 19.427 6.20731L19.4515 6.22248C19.4761 6.23765 19.5006 6.25282 19.5251 6.26799C19.5986 6.3135 19.6569 6.38351 19.7643 6.48385C19.9393 6.69389 20.0536 7.00193 20.1925 7.32514C20.4153 8.0054 20.5285 8.75334 20.5226 9.52927C20.5168 10.3052 20.3919 11.1091 20.0804 11.8314C19.9322 12.1803 19.7198 12.5233 19.4736 12.8115C19.1936 13.0449 18.84 13.2327 18.4795 13.2129Z" fill="#5A767F"/>
<path d="M256.675 88.648L257.966 91.8903C258.056 92.1604 257.936 92.4306 257.696 92.5507L250.461 95.4027L248.51 90.4793C250.971 89.5486 253.493 88.8281 256.015 88.2577C256.285 88.2277 256.585 88.3778 256.675 88.648Z" fill="#5A767F"/>
<path d="M257.155 93.7814L259.677 100.116C259.767 100.386 259.647 100.656 259.407 100.776L253.523 103.118L250.611 95.8229L256.495 93.4812C256.765 93.3912 257.065 93.5112 257.155 93.7814Z" fill="#5A767F"/>
<path d="M243.346 98.7347L249.23 96.3931L252.112 103.628L246.228 105.97C245.957 106.06 245.687 105.94 245.567 105.7L243.045 99.3652C242.955 99.125 243.075 98.8248 243.346 98.7347Z" fill="#5A767F"/>
<path d="M240.133 94.5921C242.445 93.2411 244.757 92.0703 247.128 91.0796L249.08 95.973L241.845 98.8551C241.574 98.9451 241.304 98.825 241.184 98.5849L239.893 95.3426C239.773 95.0424 239.893 94.7121 240.133 94.5921Z" fill="#5A767F"/>
<path d="M244.126 82.9442C244.126 82.9138 244.126 82.9138 244.126 82.9442C244.157 82.9138 244.157 82.9138 244.126 82.9442C244.157 82.9138 244.126 82.9138 244.126 82.9442Z" fill="#5A767F"/>
<path d="M235 86.8766C235 86.8766 242.595 93.1811 246.918 90.0589C247.008 90.0289 247.129 90.0289 247.219 89.9688C247.609 89.8187 247.879 89.4585 248.059 89.0982C248.059 89.1282 248.059 89.1282 248.059 89.1582C248.059 89.2483 248.119 89.3084 248.179 89.3684C248.299 89.4585 248.419 89.4585 248.54 89.4585C248.66 89.4585 248.75 89.4585 248.84 89.4284C249.23 89.3384 249.59 89.2183 249.921 89.0682C250.611 88.768 251.301 88.4077 251.872 87.8673C252.412 87.387 252.983 86.9367 253.553 86.4263C253.823 86.1561 254.123 85.8859 254.364 85.4957C254.484 85.2855 254.604 85.0453 254.634 84.6851C254.634 84.505 254.604 84.2948 254.514 84.1147C254.424 83.9346 254.304 83.7845 254.184 83.6644L254.123 83.6344L254.033 83.5443C253.973 83.4842 253.913 83.4842 253.853 83.4242C253.733 83.3942 253.613 83.3341 253.493 83.3041C253.253 83.2141 253.043 83.184 252.833 83.154C252.382 83.124 251.962 83.154 251.572 83.2441C250.761 83.4242 250.011 83.8445 249.44 84.4149C249.38 84.4749 249.29 84.565 249.23 84.6251L249.17 84.6851L249.14 84.7151L249.11 84.7451L249.02 84.8652C248.9 85.0453 248.78 85.1955 248.69 85.3756C248.51 85.7058 248.389 86.0961 248.299 86.4563C248.239 85.8859 248.119 85.3456 247.939 84.8052C247.639 83.9346 247.219 83.064 246.558 82.3134C246.228 81.9232 245.838 81.5929 245.297 81.3227C245.027 81.2026 244.727 81.0826 244.367 81.0225C244.186 80.9925 244.006 80.9925 243.796 81.0225C243.706 81.0225 243.616 81.0525 243.466 81.0826C243.406 81.1126 243.346 81.1126 243.316 81.1126H243.286H243.256L243.196 81.1426C242.926 81.3227 242.625 81.5929 242.415 81.8931C242.205 82.1933 242.115 82.4936 242.025 82.7938C241.905 83.3642 241.935 83.9045 242.025 84.3849C242.235 85.3456 242.655 86.2162 243.076 86.9967C243.526 87.7773 244.066 88.5278 244.727 89.0982C245.057 89.3984 245.417 89.6686 245.838 89.8487C245.898 89.8788 246.048 90.179 246.108 90.209C244.307 91.1997 240.644 88.8881 240.254 85.6458C237.582 87.5071 235 86.8766 235 86.8766ZM248.359 89.0382C248.359 88.9781 248.419 88.8881 248.449 88.798C248.57 88.4077 248.57 88.0475 248.63 87.6872C248.66 87.327 248.72 86.9667 248.81 86.6665C248.93 86.3363 249.08 86.036 249.26 85.7959C249.35 85.6758 249.47 85.5557 249.59 85.4356L249.68 85.3456L249.71 85.3155C249.71 85.3155 249.71 85.3155 249.74 85.3155L249.8 85.2855C249.86 85.2255 249.921 85.1955 249.981 85.1354C250.521 84.7451 251.121 84.535 251.752 84.4449C252.052 84.4149 252.382 84.4149 252.652 84.4449C252.923 84.4749 253.163 84.595 253.283 84.7151C253.283 84.7451 253.253 84.8352 253.193 84.9253C253.073 85.1654 252.863 85.4356 252.652 85.7058C252.232 86.2462 251.752 86.8166 251.241 87.387C250.791 87.8974 250.281 88.3777 249.68 88.768C249.38 88.9481 249.05 89.1282 248.72 89.1883C248.63 89.2183 248.57 89.2183 248.479 89.2183C248.389 89.2183 248.329 89.2183 248.299 89.1883C248.359 89.0982 248.329 89.0982 248.359 89.0382ZM247.099 89.6986C246.768 89.8788 246.318 89.8187 245.958 89.6386C245.597 89.4585 245.267 89.1883 244.997 88.858C244.457 88.2276 244.066 87.4771 243.796 86.6665C243.526 85.8859 243.436 85.0453 243.556 84.2948C243.616 83.9346 243.706 83.5743 243.826 83.3341C243.886 83.2141 243.946 83.094 244.006 83.064C244.066 83.0039 244.096 83.0039 244.096 82.9739H244.126C244.156 82.9739 244.186 82.9739 244.216 82.9739C244.307 82.9739 244.397 83.0039 244.547 83.0339C244.817 83.124 245.087 83.3341 245.387 83.5443C245.958 84.0246 246.468 84.6251 246.888 85.3155C247.309 86.006 247.639 86.7866 247.759 87.5971C247.819 87.9874 247.819 88.4077 247.759 88.798C247.639 89.1582 247.429 89.5185 247.099 89.6986Z" fill="#5A767F"/>
<path d="M240.914 9.26235L241.802 11.4932C241.864 11.6791 241.781 11.865 241.616 11.9477L236.638 13.91L235.295 10.5224C236.989 9.88204 238.724 9.38629 240.459 8.99382C240.645 8.97316 240.852 9.07644 240.914 9.26235Z" fill="#5A767F"/>
<path d="M241.244 12.7948L242.979 17.1533C243.041 17.3392 242.959 17.5251 242.794 17.6077L238.745 19.2189L236.741 14.1994L240.79 12.5882C240.976 12.5262 241.182 12.6089 241.244 12.7948Z" fill="#5A767F"/>
<path d="M231.742 16.203L235.791 14.5918L237.774 19.57L233.725 21.1811C233.539 21.2431 233.353 21.1605 233.271 20.9952L231.536 16.6368C231.474 16.4715 231.556 16.265 231.742 16.203Z" fill="#5A767F"/>
<path d="M229.532 13.3523C231.123 12.4228 232.713 11.6172 234.345 10.9355L235.688 14.3025L230.71 16.2855C230.524 16.3475 230.338 16.2649 230.255 16.0996L229.367 13.8687C229.284 13.6622 229.367 13.435 229.532 13.3523Z" fill="#5A767F"/>
<path d="M232.28 5.33794C232.28 5.31704 232.28 5.31704 232.28 5.33794C232.3 5.31704 232.3 5.31704 232.28 5.33794C232.3 5.31704 232.28 5.31704 232.28 5.33794Z" fill="#5A767F"/>
<path d="M226 8.04347C226 8.04347 231.226 12.3813 234.201 10.233C234.263 10.2124 234.345 10.2124 234.407 10.1711C234.676 10.0678 234.862 9.81991 234.985 9.57203C234.985 9.59269 234.985 9.59269 234.985 9.61334C234.985 9.67531 235.027 9.71662 235.068 9.75794C235.151 9.81991 235.233 9.81991 235.316 9.81991C235.399 9.81991 235.461 9.81991 235.523 9.79925C235.791 9.73728 236.039 9.65466 236.266 9.55137C236.741 9.34481 237.216 9.09694 237.609 8.72512C237.981 8.39462 238.373 8.08478 238.766 7.73362C238.951 7.54772 239.158 7.36181 239.323 7.09328C239.406 6.94868 239.489 6.78343 239.509 6.53556C239.509 6.41162 239.489 6.26703 239.427 6.14309C239.365 6.01915 239.282 5.91587 239.199 5.83324L239.158 5.81259L239.096 5.75062C239.055 5.70931 239.013 5.70931 238.972 5.66799C238.89 5.64734 238.807 5.60603 238.724 5.58537C238.559 5.5234 238.414 5.50274 238.27 5.48209C237.96 5.46143 237.671 5.48209 237.402 5.54406C236.845 5.66799 236.328 5.95718 235.936 6.34965C235.894 6.39096 235.832 6.45293 235.791 6.49425L235.75 6.53556L235.729 6.55621L235.708 6.57687L235.646 6.6595C235.564 6.78343 235.481 6.88671 235.419 7.01065C235.295 7.23787 235.213 7.5064 235.151 7.75428C235.109 7.36181 235.027 6.99 234.903 6.61818C234.696 6.01915 234.407 5.42012 233.953 4.90371C233.725 4.63518 233.457 4.40796 233.085 4.22205C232.899 4.13943 232.693 4.0568 232.445 4.01549C232.321 3.99484 232.197 3.99484 232.052 4.01549C231.99 4.01549 231.928 4.03615 231.825 4.0568C231.784 4.07746 231.742 4.07746 231.722 4.07746H231.701H231.68L231.639 4.09812C231.453 4.22205 231.247 4.40796 231.102 4.61452C230.958 4.82109 230.896 5.02765 230.834 5.23421C230.751 5.62668 230.772 5.99849 230.834 6.329C230.978 6.99 231.267 7.58903 231.557 8.12609C231.866 8.66315 232.238 9.17956 232.693 9.57203C232.92 9.77859 233.168 9.9645 233.457 10.0884C233.498 10.1091 233.602 10.3157 233.643 10.3363C232.403 11.018 229.883 9.42744 229.615 7.19656C227.776 8.47725 226 8.04347 226 8.04347ZM235.192 9.53072C235.192 9.48941 235.233 9.42744 235.254 9.36547C235.337 9.09694 235.337 8.84906 235.378 8.60119C235.399 8.35331 235.44 8.10543 235.502 7.89887C235.585 7.67165 235.688 7.46509 235.812 7.29984C235.874 7.21722 235.956 7.13459 236.039 7.05196L236.101 6.99L236.122 6.96934C236.122 6.96934 236.122 6.96934 236.142 6.96934L236.184 6.94868C236.225 6.90737 236.266 6.88671 236.307 6.8454C236.679 6.57687 237.092 6.43228 237.526 6.37031C237.733 6.34965 237.96 6.34965 238.146 6.37031C238.332 6.39096 238.497 6.47359 238.58 6.55621C238.58 6.57687 238.559 6.63884 238.518 6.70081C238.435 6.86606 238.29 7.05196 238.146 7.23787C237.857 7.60968 237.526 8.00215 237.175 8.39462C236.865 8.74578 236.514 9.07628 236.101 9.34481C235.894 9.46875 235.667 9.59269 235.44 9.634C235.378 9.65466 235.337 9.65466 235.275 9.65466C235.213 9.65466 235.171 9.65466 235.151 9.634C235.192 9.57203 235.171 9.57203 235.192 9.53072ZM234.324 9.98516C234.097 10.1091 233.787 10.0678 233.54 9.94384C233.292 9.81991 233.064 9.634 232.879 9.40678C232.507 8.973 232.238 8.45659 232.052 7.89887C231.866 7.36181 231.804 6.78343 231.887 6.26703C231.928 6.01915 231.99 5.77128 232.073 5.60603C232.114 5.5234 232.156 5.44078 232.197 5.42012C232.238 5.37881 232.259 5.37881 232.259 5.35815H232.28C232.3 5.35815 232.321 5.35815 232.341 5.35815C232.403 5.35815 232.465 5.37881 232.569 5.39946C232.755 5.46143 232.941 5.60603 233.147 5.75062C233.54 6.08112 233.891 6.49425 234.18 6.96934C234.469 7.44443 234.696 7.9815 234.779 8.53922C234.82 8.80775 234.82 9.09694 234.779 9.36547C234.696 9.61334 234.552 9.86122 234.324 9.98516Z" fill="#5A767F"/>
<path d="M305.062 16.6903L304.744 17.8742L301.692 18.217L299.349 16.4255L299.683 15.1908L302.745 14.5957L305.062 16.6903ZM301.615 18.4709L299.257 16.6966L297.664 22.6498L300.023 24.4242L303.075 24.0982L304.668 18.1449L301.615 18.4709ZM303.761 14.1678C303.712 14.2026 303.663 14.2374 303.614 14.2722C303.83 14.3006 304.062 14.3117 304.343 14.2881C304.673 14.2801 304.986 14.2389 305.266 14.1817C305.414 14.1445 305.562 14.1074 305.693 14.0538C305.824 14.0002 305.939 13.947 306.02 13.8778C306.101 13.8254 306.133 13.7575 306.165 13.7063C306.179 13.6387 306.177 13.5548 306.159 13.4712C306.141 13.4212 306.124 13.388 306.124 13.388C306.107 13.3716 306.106 13.3548 306.09 13.3552C306.09 13.3552 306.073 13.3388 306.04 13.3396C305.99 13.3241 305.924 13.3257 305.858 13.3273C305.742 13.3301 305.61 13.3501 305.462 13.3873C305.331 13.424 305.183 13.4612 305.035 13.5152C304.757 13.6228 304.462 13.7476 304.184 13.9055C304.037 13.9763 303.891 14.0638 303.761 14.1678ZM303.075 11.8152C303.029 11.9507 302.999 12.1027 302.953 12.255C302.895 12.5589 302.853 12.8792 302.827 13.199C302.831 13.3502 302.819 13.5185 302.839 13.686C302.841 13.7532 302.843 13.8204 302.86 13.8704C302.988 13.6992 303.132 13.4941 303.259 13.2558C303.433 12.9491 303.559 12.6604 303.651 12.3893C303.697 12.237 303.744 12.1015 303.774 11.9663C303.803 11.8144 303.8 11.68 303.797 11.5793C303.795 11.4785 303.76 11.4121 303.726 11.3626C303.692 11.313 303.608 11.2646 303.525 11.2498L303.508 11.2502C303.475 11.2342 303.458 11.2346 303.442 11.235C303.425 11.2354 303.408 11.2358 303.392 11.253C303.36 11.2706 303.295 11.3226 303.231 11.4417C303.168 11.5441 303.121 11.6629 303.075 11.8152ZM300.214 11.8341C300.149 11.9029 300.101 11.9713 300.087 12.0388C300.071 12.0896 300.09 12.1732 300.125 12.2564C300.16 12.3563 300.229 12.4555 300.331 12.5706C300.417 12.6862 300.518 12.7845 300.637 12.8993C300.84 13.096 301.093 13.2915 301.379 13.4862C301.614 13.6317 301.815 13.7613 302.016 13.8404C301.998 13.7904 301.98 13.7405 301.946 13.6741C301.876 13.5246 301.789 13.3586 301.72 13.2427C301.548 12.9612 301.376 12.6965 301.172 12.4494C301.069 12.3175 300.967 12.2023 300.866 12.104C300.747 11.9892 300.646 11.9077 300.561 11.8425C300.495 11.8105 300.444 11.7781 300.394 11.7625C300.361 11.7466 300.344 11.747 300.345 11.7637C300.328 11.7641 300.328 11.7641 300.295 11.7817C300.279 11.7821 300.262 11.7825 300.214 11.8341ZM298.7 16.2732L296.847 14.873L295.254 20.8263L297.108 22.2264L298.7 16.2732ZM307.538 17.8401L305.377 18.0773L303.768 24.031L305.929 23.7938L307.538 17.8401ZM299.087 12.4495C299.07 12.3995 299.069 12.366 299.051 12.316C299.014 12.1488 299.01 11.9809 299.039 11.829C299.069 11.677 299.115 11.5247 299.194 11.3716C299.225 11.3036 299.273 11.252 299.305 11.2008C299.321 11.1668 299.354 11.1492 299.369 11.1153L299.418 11.0805L299.45 11.0461C299.563 10.9257 299.694 10.8386 299.841 10.7678C300.004 10.6966 300.202 10.6582 300.384 10.6706C300.467 10.6686 300.55 10.6834 300.633 10.715C300.716 10.7298 300.783 10.7617 300.867 10.7933C301.017 10.8569 301.119 10.9552 301.203 11.0036C301.557 11.2975 301.765 11.6621 301.937 11.9604C301.972 12.0268 302.007 12.0931 302.041 12.1595L302.107 12.1579C302.115 11.8048 302.139 11.401 302.327 10.9596C302.358 10.8748 302.42 10.7389 302.517 10.6189C302.629 10.4818 302.742 10.3614 302.873 10.291C303.036 10.1863 303.216 10.1315 303.398 10.1271C303.53 10.1239 303.68 10.1371 303.813 10.1674C303.829 10.167 303.846 10.1834 303.863 10.183L303.896 10.199L303.93 10.2318C303.963 10.2478 303.997 10.2638 304.03 10.2798C304.097 10.3118 304.164 10.3438 304.215 10.3761C304.349 10.4569 304.468 10.5717 304.57 10.7036C304.672 10.8355 304.742 10.9851 304.779 11.1522C304.816 11.2857 304.835 11.4197 304.84 11.5876C304.828 11.8063 304.784 12.0258 304.707 12.2797C304.645 12.4493 304.567 12.6192 304.439 12.8239C304.423 12.8411 304.424 12.8579 304.408 12.8751L304.425 12.8915C304.489 12.8395 304.555 12.8043 304.62 12.7691C304.914 12.594 305.273 12.4005 305.734 12.3221C305.816 12.3033 305.965 12.2997 306.114 12.3129C306.197 12.3277 306.28 12.3424 306.347 12.3576C306.43 12.3724 306.497 12.4044 306.564 12.4532C306.732 12.5331 306.884 12.6639 306.987 12.8294C307.073 12.9618 307.143 13.1113 307.18 13.2784L307.181 13.312L307.198 13.362C307.199 13.3956 307.216 13.4288 307.217 13.4623C307.219 13.5295 307.238 13.6131 307.239 13.6803C307.243 13.8482 307.214 14.0001 307.151 14.1529C307.105 14.3052 307.009 14.442 306.897 14.5791C306.865 14.6135 306.832 14.6479 306.8 14.6655L308.787 16.1128L308.407 17.5166L305.436 17.7903L305.801 16.4372L304.127 14.9487C304.011 14.9347 303.894 14.9039 303.778 14.8731C303.695 14.8583 303.595 14.8271 303.512 14.8124C303.412 14.7812 303.329 14.7664 303.245 14.7348L303.212 14.7188C303.195 14.7024 303.161 14.6864 303.128 14.6704C303.077 14.6213 303.026 14.5553 303.007 14.4717C302.991 14.4889 302.958 14.5065 302.925 14.5073C302.86 14.5257 302.777 14.5277 302.71 14.5125L302.677 14.4965C302.577 14.4653 302.526 14.3994 302.508 14.3662C302.491 14.3498 302.474 14.3334 302.474 14.3166C302.426 14.3682 302.344 14.4038 302.278 14.4222C302.229 14.4402 302.195 14.4242 302.162 14.425L302.146 14.4254L302.113 14.4262C302.03 14.4114 301.947 14.3966 301.847 14.3654C301.763 14.3338 301.68 14.319 301.58 14.2879C301.497 14.2563 301.413 14.2247 301.33 14.2099L299.156 14.6154L298.776 15.9857L296.265 14.0638L296.644 12.6599L299.087 12.4495ZM303.204 14.3997C303.222 14.4497 303.239 14.4661 303.256 14.4993C303.273 14.5157 303.289 14.5153 303.29 14.5321L303.306 14.5317C303.39 14.5633 303.473 14.5781 303.556 14.6096C303.64 14.6412 303.723 14.656 303.806 14.6708C303.989 14.7168 304.155 14.7464 304.305 14.7763C304.687 14.8343 305.018 14.8767 305.333 14.8691C305.547 14.8638 305.712 14.843 305.877 14.8222C306.108 14.7831 306.288 14.7115 306.451 14.6067C306.565 14.5367 306.663 14.4672 306.727 14.3816C306.824 14.2784 306.887 14.1593 306.934 14.0405C306.98 13.9218 307.01 13.7866 307.007 13.6523C307.005 13.5851 307.004 13.5347 307.002 13.4676C307.002 13.434 307.001 13.4172 306.984 13.384L306.966 13.334L306.965 13.3004C306.929 13.1669 306.876 13.0337 306.808 12.9346C306.722 12.8022 306.603 12.7043 306.47 12.6403C306.419 12.6079 306.353 12.5927 306.286 12.5608C306.219 12.5456 306.153 12.5304 306.086 12.532C305.954 12.5184 305.822 12.5384 305.756 12.54C305.328 12.6176 305.001 12.7935 304.724 12.9683C304.447 13.143 304.171 13.3513 303.896 13.5932C303.766 13.6972 303.653 13.8176 303.524 13.9383C303.475 13.9899 303.411 14.0587 303.346 14.1274C303.314 14.1618 303.282 14.1962 303.266 14.247C303.25 14.2642 303.235 14.2982 303.219 14.3322C303.202 14.3158 303.203 14.3494 303.204 14.3997ZM302.477 13.7452C302.496 13.8456 302.514 13.9292 302.549 13.9955C302.566 14.0287 302.584 14.0787 302.602 14.1287C302.619 14.1619 302.636 14.1783 302.653 14.2114C302.67 14.2278 302.688 14.261 302.738 14.2766L302.754 14.2762C302.788 14.2922 302.821 14.2914 302.853 14.2738C302.87 14.2734 302.886 14.2562 302.903 14.2558L302.919 14.2386C303.065 14.1175 303.194 13.9967 303.307 13.8763C303.436 13.7388 303.549 13.6184 303.645 13.4985C303.903 13.2066 304.095 12.9331 304.27 12.66C304.381 12.4725 304.46 12.3193 304.506 12.167C304.584 11.9467 304.628 11.744 304.64 11.5588C304.637 11.4245 304.634 11.3069 304.598 11.1902C304.562 11.0566 304.493 10.9239 304.424 10.8247C304.339 10.726 304.237 10.6276 304.137 10.5629C304.086 10.5305 304.036 10.4981 303.986 10.4825C303.952 10.4665 303.936 10.4669 303.902 10.4509L303.852 10.4353L303.819 10.4193C303.802 10.4197 303.785 10.4033 303.769 10.4037C303.652 10.373 303.536 10.359 303.42 10.3618C303.272 10.3654 303.124 10.4194 302.993 10.4897C302.879 10.5597 302.782 10.6461 302.702 10.7656C302.622 10.8684 302.575 10.9872 302.527 11.0555C302.371 11.4458 302.348 11.8328 302.339 12.1691C302.331 12.5054 302.372 12.8404 302.414 13.2091C302.402 13.3942 302.439 13.5613 302.477 13.7452ZM299.255 11.8574C299.225 11.9925 299.229 12.1268 299.265 12.2604C299.284 12.3775 299.337 12.4939 299.389 12.6102C299.476 12.7762 299.612 12.9409 299.781 13.088C299.9 13.2028 300.051 13.2999 300.219 13.4135C300.488 13.575 300.789 13.7189 301.157 13.878C301.291 13.942 301.457 13.9884 301.641 14.0512C301.724 14.0827 301.807 14.0975 301.891 14.1291C301.974 14.1607 302.057 14.1755 302.14 14.1903L302.157 14.1899C302.173 14.1895 302.19 14.1891 302.206 14.1887C302.239 14.1879 302.272 14.1703 302.288 14.1363C302.32 14.0851 302.335 14.0511 302.335 14.0343C302.35 13.9835 302.349 13.95 302.349 13.9332C302.348 13.8828 302.347 13.8324 302.329 13.7824C302.31 13.6821 302.291 13.5985 302.273 13.5149C302.219 13.3314 302.182 13.1811 302.128 13.0144C302.004 12.6645 301.881 12.3482 301.724 12.0496C301.568 11.7509 301.362 11.4198 301.041 11.1588C300.974 11.11 300.873 11.0284 300.755 10.9641C300.688 10.9321 300.622 10.9169 300.571 10.8845C300.506 10.9029 300.439 10.8877 300.373 10.8893C300.224 10.8761 300.076 10.9133 299.928 10.9673C299.814 11.0205 299.7 11.1072 299.603 11.1936L299.571 11.2448L299.539 11.2792C299.523 11.2964 299.507 11.3304 299.474 11.348C299.442 11.3991 299.411 11.4503 299.379 11.5015C299.332 11.6035 299.285 11.739 299.255 11.8574Z" fill="#5A767F"/>
<path d="M299.138 96.6525L298.222 99.7967L290.149 100.515L284.084 95.5745L285.044 92.2955L293.16 90.9031L299.138 96.6525ZM289.931 101.189L283.822 96.2931L279.24 112.104L285.349 117L293.422 116.326L298.004 100.515L289.931 101.189ZM295.865 89.8251C295.735 89.9149 295.604 90.0047 295.473 90.0946C296.04 90.1844 296.651 90.2293 297.393 90.1844C298.265 90.1844 299.095 90.0946 299.836 89.9598C300.229 89.87 300.622 89.7801 300.971 89.6454C301.32 89.5106 301.625 89.3759 301.844 89.1962C302.062 89.0615 302.149 88.8818 302.236 88.747C302.28 88.5674 302.28 88.3428 302.236 88.1182C302.193 87.9835 302.149 87.8936 302.149 87.8936C302.105 87.8487 302.105 87.8038 302.062 87.8038C302.062 87.8038 302.018 87.7589 301.931 87.7589C301.8 87.7139 301.625 87.7139 301.451 87.7139C301.145 87.7139 300.796 87.7589 300.404 87.8487C300.055 87.9385 299.662 88.0284 299.269 88.1631C298.527 88.4326 297.742 88.747 297 89.1513C296.607 89.331 296.215 89.5556 295.865 89.8251ZM294.207 83.4917C294.076 83.8511 293.989 84.2553 293.858 84.6596C293.684 85.4681 293.553 86.3215 293.465 87.1749C293.465 87.5792 293.422 88.0284 293.465 88.4775C293.465 88.6572 293.465 88.8369 293.509 88.9716C293.858 88.5225 294.251 87.9835 294.6 87.3546C295.08 86.5461 295.429 85.7825 295.691 85.0638C295.822 84.6596 295.953 84.3002 296.04 83.9409C296.127 83.5366 296.127 83.1773 296.127 82.9078C296.127 82.6383 296.04 82.4586 295.953 82.3239C295.865 82.1891 295.647 82.0544 295.429 82.0095H295.385C295.298 81.9645 295.255 81.9645 295.211 81.9645C295.167 81.9645 295.124 81.9645 295.08 82.0095C294.993 82.0544 294.818 82.1891 294.644 82.5035C294.469 82.773 294.338 83.0875 294.207 83.4917ZM286.658 83.357C286.484 83.5366 286.353 83.7163 286.309 83.896C286.265 84.0307 286.309 84.2553 286.396 84.4799C286.484 84.7494 286.658 85.0189 286.92 85.3333C287.138 85.6478 287.4 85.9173 287.705 86.2317C288.229 86.7707 288.884 87.3097 289.625 87.8487C290.236 88.253 290.76 88.6123 291.284 88.8369C291.24 88.7021 291.196 88.5674 291.109 88.3877C290.935 87.9835 290.716 87.5343 290.542 87.2199C290.105 86.4563 289.669 85.7376 289.145 85.0638C288.884 84.7045 288.622 84.3901 288.36 84.1206C288.055 83.8061 287.793 83.5816 287.575 83.4019C287.4 83.3121 287.269 83.2222 287.138 83.1773C287.051 83.1324 287.007 83.1324 287.007 83.1773C286.964 83.1773 286.964 83.1773 286.876 83.2222C286.833 83.2222 286.789 83.2222 286.658 83.357ZM282.382 95.1253L277.582 91.2624L273 107.073L277.8 110.936L282.382 95.1253ZM305.596 99.8865L299.88 100.381L295.255 116.191L300.971 115.697L305.596 99.8865ZM283.647 84.9291C283.604 84.7943 283.604 84.7045 283.56 84.5697C283.473 84.1206 283.473 83.6714 283.56 83.2671C283.647 82.8629 283.778 82.4586 283.996 82.0544C284.084 81.8747 284.215 81.74 284.302 81.6052C284.345 81.5154 284.433 81.4704 284.476 81.3806L284.607 81.2908L284.695 81.2009C285 80.8865 285.349 80.6619 285.742 80.4823C286.178 80.3026 286.702 80.2128 287.182 80.2577C287.4 80.2577 287.618 80.3026 287.836 80.3924C288.055 80.4374 288.229 80.5272 288.447 80.617C288.84 80.7967 289.102 81.0662 289.32 81.2009C290.236 82.0095 290.76 82.9976 291.196 83.8061C291.284 83.9858 291.371 84.1655 291.458 84.3452H291.633C291.676 83.4019 291.764 82.3239 292.287 81.156C292.375 80.9314 292.549 80.5721 292.811 80.2577C293.116 79.8983 293.422 79.5839 293.771 79.4043C294.207 79.1348 294.687 79 295.167 79C295.516 79 295.909 79.0449 296.258 79.1348C296.302 79.1348 296.345 79.1797 296.389 79.1797L296.476 79.2246L296.564 79.3144C296.651 79.3593 296.738 79.4043 296.825 79.4492C297 79.539 297.175 79.6288 297.305 79.7187C297.655 79.9433 297.96 80.2577 298.222 80.617C298.484 80.9764 298.658 81.3806 298.745 81.8298C298.833 82.1891 298.876 82.5485 298.876 82.9976C298.833 83.5816 298.702 84.1655 298.484 84.8392C298.309 85.2884 298.091 85.7376 297.742 86.2766C297.698 86.3215 297.698 86.3664 297.655 86.4113L297.698 86.4563C297.873 86.3215 298.047 86.2317 298.222 86.1418C299.007 85.6927 299.967 85.1986 301.189 85.0189C301.407 84.974 301.8 84.974 302.193 85.0189C302.411 85.0638 302.629 85.1087 302.804 85.1537C303.022 85.1986 303.196 85.2884 303.371 85.4232C303.807 85.6478 304.2 86.0071 304.462 86.4563C304.68 86.8156 304.855 87.2199 304.942 87.669V87.7589L304.985 87.8936C304.985 87.9835 305.029 88.0733 305.029 88.1631C305.029 88.3428 305.073 88.5674 305.073 88.747C305.073 89.1962 304.985 89.6005 304.811 90.0047C304.68 90.409 304.418 90.7683 304.113 91.1277C304.025 91.2175 303.938 91.3073 303.851 91.3522L309 95.3499L307.909 99.078L300.055 99.617L301.102 96.0236L296.782 91.9362C296.476 91.8913 296.171 91.8014 295.865 91.7116C295.647 91.6667 295.385 91.5768 295.167 91.5319C294.905 91.4421 294.687 91.3972 294.469 91.3073L294.382 91.2624C294.338 91.2175 294.251 91.1726 294.164 91.1277C294.033 90.9929 293.902 90.8132 293.858 90.5887C293.815 90.6336 293.727 90.6785 293.64 90.6785C293.465 90.7234 293.247 90.7234 293.073 90.6785L292.985 90.6336C292.724 90.5437 292.593 90.3641 292.549 90.2742C292.505 90.2293 292.462 90.1844 292.462 90.1395C292.331 90.2742 292.113 90.3641 291.938 90.409C291.807 90.4539 291.72 90.409 291.633 90.409H291.589H291.502C291.284 90.3641 291.065 90.3191 290.804 90.2293C290.585 90.1395 290.367 90.0946 290.105 90.0047C289.887 89.9149 289.669 89.8251 289.451 89.7801L283.691 90.7234L282.6 94.3617L276.098 89.0615L277.189 85.3333L283.647 84.9291ZM294.382 90.409C294.425 90.5437 294.469 90.5887 294.513 90.6785C294.556 90.7234 294.6 90.7234 294.6 90.7683H294.644C294.862 90.8582 295.08 90.9031 295.298 90.9929C295.516 91.0827 295.735 91.1277 295.953 91.1726C296.433 91.3073 296.869 91.3972 297.262 91.487C298.265 91.6667 299.138 91.8014 299.967 91.8014C300.535 91.8014 300.971 91.7565 301.407 91.7116C302.018 91.6217 302.498 91.4421 302.935 91.1726C303.24 90.9929 303.502 90.8132 303.676 90.5887C303.938 90.3191 304.113 90.0047 304.244 89.6903C304.375 89.3759 304.462 89.0165 304.462 88.6572C304.462 88.4775 304.462 88.3428 304.462 88.1631C304.462 88.0733 304.462 88.0284 304.418 87.9385L304.375 87.8038V87.7139C304.287 87.3546 304.156 86.9953 303.982 86.7258C303.764 86.3664 303.458 86.0969 303.109 85.9173C302.978 85.8274 302.804 85.7825 302.629 85.6927C302.455 85.6478 302.28 85.6028 302.105 85.6028C301.756 85.5579 301.407 85.6028 301.233 85.6028C300.098 85.7825 299.225 86.2317 298.484 86.6809C297.742 87.13 297 87.669 296.258 88.2979C295.909 88.5674 295.604 88.8818 295.255 89.1962C295.124 89.331 294.949 89.5106 294.775 89.6903C294.687 89.7801 294.6 89.87 294.556 90.0047C294.513 90.0496 294.469 90.1395 294.425 90.2293C294.382 90.1844 294.382 90.2742 294.382 90.409ZM292.505 88.6123C292.549 88.8818 292.593 89.1064 292.68 89.2861C292.724 89.3759 292.767 89.5106 292.811 89.6454C292.855 89.7352 292.898 89.7801 292.942 89.87C292.985 89.9149 293.029 90.0047 293.16 90.0496H293.204C293.291 90.0946 293.378 90.0946 293.465 90.0496C293.509 90.0496 293.553 90.0047 293.596 90.0047L293.64 89.9598C294.033 89.6454 294.382 89.331 294.687 89.0165C295.036 88.6572 295.342 88.3428 295.604 88.0284C296.302 87.2648 296.825 86.5461 297.305 85.8274C297.611 85.3333 297.829 84.9291 297.96 84.5248C298.178 83.9409 298.309 83.4019 298.353 82.9078C298.353 82.5485 298.353 82.234 298.265 81.9196C298.178 81.5603 298.004 81.2009 297.829 80.9314C297.611 80.6619 297.349 80.3924 297.087 80.2128C296.956 80.1229 296.825 80.0331 296.695 79.9882C296.607 79.9433 296.564 79.9433 296.476 79.8983L296.345 79.8534L296.258 79.8085C296.215 79.8085 296.171 79.7636 296.127 79.7636C295.822 79.6738 295.516 79.6288 295.211 79.6288C294.818 79.6288 294.425 79.7636 294.076 79.9433C293.771 80.1229 293.509 80.3475 293.291 80.6619C293.073 80.9314 292.942 81.2459 292.811 81.4255C292.375 82.4586 292.287 83.4917 292.244 84.3901C292.2 85.2884 292.287 86.1868 292.375 87.1749C292.331 87.669 292.418 88.1182 292.505 88.6123ZM284.127 83.357C284.04 83.7163 284.04 84.0757 284.127 84.435C284.171 84.7494 284.302 85.0638 284.433 85.3783C284.651 85.8274 285 86.2766 285.436 86.6809C285.742 86.9953 286.135 87.2648 286.571 87.5792C287.269 88.0284 288.055 88.4326 289.015 88.8818C289.364 89.0615 289.8 89.1962 290.28 89.3759C290.498 89.4657 290.716 89.5106 290.935 89.6005C291.153 89.6903 291.371 89.7352 291.589 89.7801H291.633C291.676 89.7801 291.72 89.7801 291.764 89.7801C291.851 89.7801 291.938 89.7352 291.982 89.6454C292.069 89.5106 292.113 89.4208 292.113 89.3759C292.156 89.2411 292.156 89.1513 292.156 89.1064C292.156 88.9716 292.156 88.8369 292.113 88.7021C292.069 88.4326 292.025 88.208 291.982 87.9835C291.851 87.4894 291.764 87.0851 291.633 86.6359C291.327 85.6927 291.022 84.8392 290.629 84.0307C290.236 83.2222 289.713 82.3239 288.884 81.6052C288.709 81.4704 288.447 81.2459 288.142 81.0662C287.967 80.9764 287.793 80.9314 287.662 80.8416C287.487 80.8865 287.313 80.8416 287.138 80.8416C286.745 80.7967 286.353 80.8865 285.96 81.0213C285.655 81.156 285.349 81.3806 285.087 81.6052L285 81.74L284.913 81.8298C284.869 81.8747 284.825 81.9645 284.738 82.0095C284.651 82.1442 284.564 82.279 284.476 82.4137C284.345 82.6832 284.215 83.0426 284.127 83.357Z" fill="#5A767F"/>
</svg>
