<svg width="101" height="50" viewBox="0 0 101 50" fill="none" xmlns="http://www.w3.org/2000/svg">
<path fill-rule="evenodd" clip-rule="evenodd" d="M54.0794 0.136126C53.7783 0.196348 53.417 1.40079 52.8148 2.00301C52.333 2.48479 51.791 2.42457 51.4899 2.96656C51.3694 3.14723 51.4297 3.50856 51.249 3.8699C51.0081 4.53234 50.1048 4.59256 50.1048 5.37545C50.1048 6.15833 50.8877 6.339 51.5501 6.94122C52.0921 7.423 52.0921 7.72411 52.7545 7.965C53.2965 8.14566 54.0794 7.54344 54.8021 7.78433C55.4043 7.965 55.9463 8.08544 56.0668 8.68766C56.1872 9.22966 56.0668 10.133 55.3441 10.0125C55.1032 10.0125 54.0794 9.65122 52.8148 9.77166C51.249 9.95233 49.5026 10.4341 49.3219 12.1805C49.2014 13.1441 50.4059 14.2883 51.5501 14.0474C52.333 13.8668 51.9717 12.9634 52.3932 12.4817C52.9352 11.8794 56.1872 14.5292 59.1381 14.5292C60.4027 14.5292 61.3061 14.2281 62.2696 13.2645C62.3299 13.2043 62.4503 13.0237 62.5707 13.0237C62.6912 13.0237 62.9321 13.1441 62.9923 13.2043C65.4012 15.1314 67.2078 18.9856 76.0605 19.0459C77.3252 19.0459 78.7103 19.6481 79.8545 20.6719C80.8783 21.6354 81.4805 23.0807 82.0827 24.5863C82.986 26.8145 84.5518 29.0427 86.9607 31.4516C87.0811 31.5721 89.0685 33.1378 89.2491 33.2583C89.2491 33.2583 89.4298 33.6196 89.3696 33.8003C89.3093 35.2456 89.0685 39.5214 92.2602 39.702C93.0431 39.7623 92.8624 39.2203 92.8624 38.7987C92.8624 38.076 92.742 37.2932 93.1033 36.5705C93.6453 35.5467 91.9591 35.0649 92.0193 32.7765C92.0796 31.0903 90.6342 31.3914 89.9116 30.1267C89.49 29.4041 89.1287 28.9825 89.1287 28.0792C89.3093 22.9603 88.0447 19.5879 87.4425 18.805C86.9607 18.2028 86.5391 17.9619 87.0209 17.6608C89.6707 15.9143 90.2729 14.2883 90.2729 14.2883C91.658 10.9761 92.9227 7.965 94.6691 6.64011C95.0304 6.339 95.9338 5.67656 96.4758 5.43567C98.1018 4.65278 98.9449 4.17101 99.4267 3.74945C100.149 3.02679 100.752 1.52123 100.029 0.557681C99.1256 -0.586539 97.62 0.316793 96.8973 0.738347C92.0193 3.62901 91.2967 8.74788 89.6105 11.6385C88.2856 13.9872 86.0574 15.6734 84.1302 15.8541C82.6849 15.9745 81.0589 15.6734 79.4931 14.9508C75.6389 13.2645 73.5914 11.0965 73.0494 10.7352C72.0256 9.95233 64.0161 2.12346 57.5723 1.76212C57.5723 1.76212 56.7894 0.136126 56.5485 0.136126C56.0668 0.0759043 55.585 1.09968 55.2236 1.22012C54.9828 1.28035 54.4408 0.0759043 54.0794 0.136126Z" fill="#73919B"/>
<path fill-rule="evenodd" clip-rule="evenodd" d="M25.5944 46.9287C24.9922 46.9287 24.4502 46.3867 24.4502 45.7845V25.6101H17.8257V47.8923C17.8257 48.9763 18.7291 49.8796 19.8131 49.8796H31.4359C32.5199 49.8796 33.4233 48.9763 33.4233 47.8923V25.6101H26.7988V45.7845C26.7386 46.3867 26.1966 46.9287 25.5944 46.9287Z" fill="#73919B"/>
<path fill-rule="evenodd" clip-rule="evenodd" d="M47.8766 25.6101H37.8195C36.615 25.6101 35.6515 26.5737 35.6515 27.7781V49.8194H42.3361V29.5848C42.3361 28.9825 42.8179 28.5008 43.4804 28.5008C44.0826 28.5008 44.6246 28.9825 44.6246 29.5848V49.8194H51.249V29.5848C51.249 28.9825 51.7308 28.5008 52.3932 28.5008C52.9954 28.5008 53.5374 28.9825 53.5374 29.5848V49.8194H60.2221V27.7781C60.2221 26.5737 59.2585 25.6101 58.0541 25.6101H47.8766Z" fill="#73919B"/>
<path fill-rule="evenodd" clip-rule="evenodd" d="M13.3693 43.737H6.62443V49.8194H0V25.6101H13.4295C14.634 25.6101 15.5975 26.5737 15.5975 27.7781V41.569C15.5373 42.7734 14.5737 43.737 13.3693 43.737ZM8.91287 29.645C8.91287 28.9825 8.37087 28.5008 7.76865 28.5008H6.62443V40.7861H7.76865C8.37087 40.7861 8.91287 40.3043 8.91287 39.6419V29.645Z" fill="#73919B"/>
<path fill-rule="evenodd" clip-rule="evenodd" d="M85.9369 46.9887C85.9369 48.6147 84.612 49.9999 82.986 49.9999C81.36 49.9999 80.0352 48.675 80.0352 46.9887C80.0352 45.3628 81.36 44.0379 82.986 44.0379C84.612 43.9776 85.9369 45.3025 85.9369 46.9887ZM82.9258 44.3992C81.6009 44.3992 80.4567 45.5434 80.4567 46.9285C80.4567 48.3136 81.6009 49.4579 82.986 49.4579C84.3712 49.4579 85.4551 48.3136 85.4551 46.9285C85.4551 45.6036 84.3109 44.3992 82.9258 44.3992Z" fill="#73919B"/>
<path fill-rule="evenodd" clip-rule="evenodd" d="M84.3711 48.6751H83.5883L82.5645 47.29V48.6751H81.902V45.2424H82.5645C83.4678 45.2424 84.0098 45.6038 84.0098 46.2662C84.0098 46.6878 83.7087 47.1093 83.2871 47.2298H83.2269L84.3711 48.6751ZM82.6849 46.8082C83.1667 46.8082 83.4076 46.6275 83.4076 46.3264C83.4076 46.0253 83.1667 45.9049 82.7451 45.9049H82.6247V46.8082H82.6849Z" fill="#73919B"/>
<path fill-rule="evenodd" clip-rule="evenodd" d="M71.2427 49.8194V43.737H68.9543V49.8194H62.3298V27.7781C62.3298 26.5737 63.2934 25.6101 64.4978 25.6101H75.6991C76.9036 25.6101 77.8671 26.5737 77.8671 27.7781V49.8194H71.2427ZM71.2427 40.7861V29.5848C71.2427 28.9825 70.7007 28.5008 70.0985 28.5008C69.4963 28.5008 68.9543 28.9825 68.9543 29.5848V40.7259H71.2427V40.7861Z" fill="#73919B"/>
</svg>
