<svg width="136" height="373" viewBox="0 0 136 373" fill="none" xmlns="http://www.w3.org/2000/svg">
<g opacity="0.5">
<path d="M2.75485 373C4.28533 373 5.50971 371.776 5.50971 370.245C5.50971 368.715 4.28533 367.49 2.75485 367.49C1.22438 367.49 0 368.715 0 370.245C0 371.776 1.22438 373 2.75485 373Z" fill="white"/>
<path d="M2.75485 342.391C4.28533 342.391 5.50971 341.166 5.50971 339.636C5.50971 338.105 4.28533 336.881 2.75485 336.881C1.22438 336.881 0 338.105 0 339.636C0 341.166 1.22438 342.391 2.75485 342.391Z" fill="white"/>
<path d="M2.75485 311.934C4.28533 311.934 5.50971 310.71 5.50971 309.179C5.50971 307.649 4.28533 306.424 2.75485 306.424C1.22438 306.424 0 307.649 0 309.179C0 310.71 1.22438 311.934 2.75485 311.934Z" fill="white"/>
<path d="M2.75485 281.325C4.28533 281.325 5.50971 280.1 5.50971 278.57C5.50971 277.039 4.28533 275.815 2.75485 275.815C1.22438 275.815 0 277.039 0 278.57C0 280.1 1.22438 281.325 2.75485 281.325Z" fill="white"/>
<path d="M2.75485 250.868C4.28533 250.868 5.50971 249.644 5.50971 248.113C5.50971 246.583 4.28533 245.358 2.75485 245.358C1.22438 245.358 0 246.583 0 248.113C0 249.644 1.22438 250.868 2.75485 250.868Z" fill="white"/>
<path d="M2.75485 220.259C4.28533 220.259 5.50971 219.034 5.50971 217.504C5.50971 215.973 4.28533 214.749 2.75485 214.749C1.22438 214.749 0 215.973 0 217.504C0 219.034 1.22438 220.259 2.75485 220.259Z" fill="white"/>
<path d="M2.75485 189.649C4.28533 189.649 5.50971 188.425 5.50971 186.895C5.50971 185.364 4.28533 184.14 2.75485 184.14C1.22438 184.14 0 185.364 0 186.895C0 188.425 1.22438 189.649 2.75485 189.649Z" fill="white"/>
<path d="M2.75485 159.193C4.28533 159.193 5.50971 157.968 5.50971 156.438C5.50971 154.908 4.28533 153.683 2.75485 153.683C1.22438 153.683 0 154.908 0 156.438C0 157.968 1.22438 159.193 2.75485 159.193Z" fill="white"/>
<path d="M2.75485 128.583C4.28533 128.583 5.50971 127.359 5.50971 125.829C5.50971 124.298 4.28533 123.074 2.75485 123.074C1.22438 123.074 0 124.298 0 125.829C0 127.359 1.22438 128.583 2.75485 128.583Z" fill="white"/>
<path d="M2.75485 98.127C4.28533 98.127 5.50971 96.9026 5.50971 95.3721C5.50971 93.8416 4.28533 92.6173 2.75485 92.6173C1.22438 92.6173 0 93.8416 0 95.3721C0 96.9026 1.22438 98.127 2.75485 98.127Z" fill="white"/>
<path d="M2.75485 67.5176C4.28533 67.5176 5.50971 66.2932 5.50971 64.7627C5.50971 63.2323 4.28533 62.0079 2.75485 62.0079C1.22438 62.0079 0 63.2323 0 64.7627C0 66.2932 1.22438 67.5176 2.75485 67.5176Z" fill="white"/>
<path d="M2.75485 36.9077C4.28533 36.9077 5.50971 35.6834 5.50971 34.1529C5.50971 32.6224 4.28533 31.398 2.75485 31.398C1.22438 31.398 0 32.6224 0 34.1529C0 35.6834 1.22438 36.9077 2.75485 36.9077Z" fill="white"/>
<path d="M2.75485 6.45166C4.28533 6.45166 5.50971 5.22728 5.50971 3.6968C5.50971 2.16633 4.28533 0.941944 2.75485 0.941944C1.22438 0.941944 0 2.16633 0 3.6968C0 5.22728 1.22438 6.45166 2.75485 6.45166Z" fill="white"/>
<path d="M28.7729 373C30.3034 373 31.5278 371.776 31.5278 370.245C31.5278 368.715 30.3034 367.49 28.7729 367.49C27.2424 367.49 26.0181 368.715 26.0181 370.245C26.0181 371.776 27.2424 373 28.7729 373Z" fill="white"/>
<path d="M28.7729 342.391C30.3034 342.391 31.5278 341.166 31.5278 339.636C31.5278 338.105 30.3034 336.881 28.7729 336.881C27.2424 336.881 26.0181 338.105 26.0181 339.636C26.0181 341.166 27.2424 342.391 28.7729 342.391Z" fill="white"/>
<path d="M28.7729 311.934C30.3034 311.934 31.5278 310.71 31.5278 309.179C31.5278 307.649 30.3034 306.424 28.7729 306.424C27.2424 306.424 26.0181 307.649 26.0181 309.179C26.0181 310.71 27.2424 311.934 28.7729 311.934Z" fill="white"/>
<path d="M28.7729 281.325C30.3034 281.325 31.5278 280.1 31.5278 278.57C31.5278 277.039 30.3034 275.815 28.7729 275.815C27.2424 275.815 26.0181 277.039 26.0181 278.57C26.0181 280.1 27.2424 281.325 28.7729 281.325Z" fill="white"/>
<path d="M28.7729 250.868C30.3034 250.868 31.5278 249.644 31.5278 248.113C31.5278 246.583 30.3034 245.358 28.7729 245.358C27.2424 245.358 26.0181 246.583 26.0181 248.113C26.0181 249.644 27.2424 250.868 28.7729 250.868Z" fill="white"/>
<path d="M28.7729 220.259C30.3034 220.259 31.5278 219.034 31.5278 217.504C31.5278 215.973 30.3034 214.749 28.7729 214.749C27.2424 214.749 26.0181 215.973 26.0181 217.504C26.0181 219.034 27.2424 220.259 28.7729 220.259Z" fill="white"/>
<path d="M28.7729 189.649C30.3034 189.649 31.5278 188.425 31.5278 186.895C31.5278 185.364 30.3034 184.14 28.7729 184.14C27.2424 184.14 26.0181 185.364 26.0181 186.895C26.0181 188.425 27.2424 189.649 28.7729 189.649Z" fill="white"/>
<path d="M28.7729 159.193C30.3034 159.193 31.5278 157.968 31.5278 156.438C31.5278 154.908 30.3034 153.683 28.7729 153.683C27.2424 153.683 26.0181 154.908 26.0181 156.438C26.0181 157.968 27.2424 159.193 28.7729 159.193Z" fill="white"/>
<path d="M28.7729 128.583C30.3034 128.583 31.5278 127.359 31.5278 125.829C31.5278 124.298 30.3034 123.074 28.7729 123.074C27.2424 123.074 26.0181 124.298 26.0181 125.829C26.0181 127.359 27.2424 128.583 28.7729 128.583Z" fill="white"/>
<path d="M28.7729 98.127C30.3034 98.127 31.5278 96.9026 31.5278 95.3721C31.5278 93.8416 30.3034 92.6173 28.7729 92.6173C27.2424 92.6173 26.0181 93.8416 26.0181 95.3721C26.0181 96.9026 27.2424 98.127 28.7729 98.127Z" fill="white"/>
<path d="M28.7729 67.5176C30.3034 67.5176 31.5278 66.2932 31.5278 64.7627C31.5278 63.2323 30.3034 62.0079 28.7729 62.0079C27.2424 62.0079 26.0181 63.2323 26.0181 64.7627C26.0181 66.2932 27.2424 67.5176 28.7729 67.5176Z" fill="white"/>
<path d="M28.7729 36.9077C30.3034 36.9077 31.5278 35.6834 31.5278 34.1529C31.5278 32.6224 30.3034 31.398 28.7729 31.398C27.2424 31.398 26.0181 32.6224 26.0181 34.1529C26.0181 35.6834 27.2424 36.9077 28.7729 36.9077Z" fill="white"/>
<path d="M28.7729 6.45166C30.3034 6.45166 31.5278 5.22728 31.5278 3.6968C31.5278 2.16633 30.3034 0.941944 28.7729 0.941944C27.2424 0.941944 26.0181 2.16633 26.0181 3.6968C26.0181 5.22728 27.2424 6.45166 28.7729 6.45166Z" fill="white"/>
<path d="M54.791 373C56.3215 373 57.5458 371.776 57.5458 370.245C57.5458 368.715 56.3215 367.49 54.791 367.49C53.2605 367.49 52.0361 368.715 52.0361 370.245C52.0361 371.776 53.2605 373 54.791 373Z" fill="white"/>
<path d="M54.791 342.391C56.3215 342.391 57.5458 341.166 57.5458 339.636C57.5458 338.105 56.3215 336.881 54.791 336.881C53.2605 336.881 52.0361 338.105 52.0361 339.636C52.0361 341.166 53.2605 342.391 54.791 342.391Z" fill="white"/>
<path d="M54.791 311.934C56.3215 311.934 57.5458 310.71 57.5458 309.179C57.5458 307.649 56.3215 306.424 54.791 306.424C53.2605 306.424 52.0361 307.649 52.0361 309.179C52.0361 310.71 53.2605 311.934 54.791 311.934Z" fill="white"/>
<path d="M54.791 281.325C56.3215 281.325 57.5458 280.1 57.5458 278.57C57.5458 277.039 56.3215 275.815 54.791 275.815C53.2605 275.815 52.0361 277.039 52.0361 278.57C52.0361 280.1 53.2605 281.325 54.791 281.325Z" fill="white"/>
<path d="M54.791 250.868C56.3215 250.868 57.5458 249.644 57.5458 248.113C57.5458 246.583 56.3215 245.358 54.791 245.358C53.2605 245.358 52.0361 246.583 52.0361 248.113C52.0361 249.644 53.2605 250.868 54.791 250.868Z" fill="white"/>
<path d="M54.791 220.259C56.3215 220.259 57.5458 219.034 57.5458 217.504C57.5458 215.973 56.3215 214.749 54.791 214.749C53.2605 214.749 52.0361 215.973 52.0361 217.504C52.0361 219.034 53.2605 220.259 54.791 220.259Z" fill="white"/>
<path d="M54.791 189.649C56.3215 189.649 57.5458 188.425 57.5458 186.895C57.5458 185.364 56.3215 184.14 54.791 184.14C53.2605 184.14 52.0361 185.364 52.0361 186.895C52.0361 188.425 53.2605 189.649 54.791 189.649Z" fill="white"/>
<path d="M54.791 159.193C56.3215 159.193 57.5458 157.968 57.5458 156.438C57.5458 154.908 56.3215 153.683 54.791 153.683C53.2605 153.683 52.0361 154.908 52.0361 156.438C52.0361 157.968 53.2605 159.193 54.791 159.193Z" fill="white"/>
<path d="M54.791 128.583C56.3215 128.583 57.5458 127.359 57.5458 125.829C57.5458 124.298 56.3215 123.074 54.791 123.074C53.2605 123.074 52.0361 124.298 52.0361 125.829C52.0361 127.359 53.2605 128.583 54.791 128.583Z" fill="white"/>
<path d="M54.791 98.127C56.3215 98.127 57.5458 96.9026 57.5458 95.3721C57.5458 93.8416 56.3215 92.6173 54.791 92.6173C53.2605 92.6173 52.0361 93.8416 52.0361 95.3721C52.0361 96.9026 53.2605 98.127 54.791 98.127Z" fill="white"/>
<path d="M54.791 67.5176C56.3215 67.5176 57.5458 66.2932 57.5458 64.7627C57.5458 63.2323 56.3215 62.0079 54.791 62.0079C53.2605 62.0079 52.0361 63.2323 52.0361 64.7627C52.0361 66.2932 53.2605 67.5176 54.791 67.5176Z" fill="white"/>
<path d="M54.791 36.9077C56.3215 36.9077 57.5458 35.6834 57.5458 34.1529C57.5458 32.6224 56.3215 31.398 54.791 31.398C53.2605 31.398 52.0361 32.6224 52.0361 34.1529C52.0361 35.6834 53.2605 36.9077 54.791 36.9077Z" fill="white"/>
<path d="M54.791 6.45166C56.3215 6.45166 57.5458 5.22728 57.5458 3.6968C57.5458 2.16633 56.3215 0.941944 54.791 0.941944C53.2605 0.941944 52.0361 2.16633 52.0361 3.6968C52.0361 5.22728 53.2605 6.45166 54.791 6.45166Z" fill="white"/>
<path d="M80.8091 373C82.3395 373 83.5639 371.776 83.5639 370.245C83.5639 368.715 82.3395 367.49 80.8091 367.49C79.2786 367.49 78.0542 368.715 78.0542 370.245C78.0542 371.776 79.2786 373 80.8091 373Z" fill="white"/>
<path d="M80.8091 342.391C82.3395 342.391 83.5639 341.166 83.5639 339.636C83.5639 338.105 82.3395 336.881 80.8091 336.881C79.2786 336.881 78.0542 338.105 78.0542 339.636C78.0542 341.166 79.2786 342.391 80.8091 342.391Z" fill="white"/>
<path d="M80.8091 311.934C82.3395 311.934 83.5639 310.71 83.5639 309.179C83.5639 307.649 82.3395 306.424 80.8091 306.424C79.2786 306.424 78.0542 307.649 78.0542 309.179C78.0542 310.71 79.2786 311.934 80.8091 311.934Z" fill="white"/>
<path d="M80.8091 281.325C82.3395 281.325 83.5639 280.1 83.5639 278.57C83.5639 277.039 82.3395 275.815 80.8091 275.815C79.2786 275.815 78.0542 277.039 78.0542 278.57C78.0542 280.1 79.2786 281.325 80.8091 281.325Z" fill="white"/>
<path d="M80.8091 250.868C82.3395 250.868 83.5639 249.644 83.5639 248.113C83.5639 246.583 82.3395 245.358 80.8091 245.358C79.2786 245.358 78.0542 246.583 78.0542 248.113C78.0542 249.644 79.2786 250.868 80.8091 250.868Z" fill="white"/>
<path d="M80.8091 220.259C82.3395 220.259 83.5639 219.034 83.5639 217.504C83.5639 215.973 82.3395 214.749 80.8091 214.749C79.2786 214.749 78.0542 215.973 78.0542 217.504C78.0542 219.034 79.2786 220.259 80.8091 220.259Z" fill="white"/>
<path d="M80.8091 189.649C82.3395 189.649 83.5639 188.425 83.5639 186.895C83.5639 185.364 82.3395 184.14 80.8091 184.14C79.2786 184.14 78.0542 185.364 78.0542 186.895C78.0542 188.425 79.2786 189.649 80.8091 189.649Z" fill="white"/>
<path d="M80.8091 159.193C82.3395 159.193 83.5639 157.968 83.5639 156.438C83.5639 154.908 82.3395 153.683 80.8091 153.683C79.2786 153.683 78.0542 154.908 78.0542 156.438C78.0542 157.968 79.2786 159.193 80.8091 159.193Z" fill="white"/>
<path d="M80.8091 128.583C82.3395 128.583 83.5639 127.359 83.5639 125.829C83.5639 124.298 82.3395 123.074 80.8091 123.074C79.2786 123.074 78.0542 124.298 78.0542 125.829C78.0542 127.359 79.2786 128.583 80.8091 128.583Z" fill="white"/>
<path d="M80.8091 98.127C82.3395 98.127 83.5639 96.9026 83.5639 95.3721C83.5639 93.8416 82.3395 92.6173 80.8091 92.6173C79.2786 92.6173 78.0542 93.8416 78.0542 95.3721C78.0542 96.9026 79.2786 98.127 80.8091 98.127Z" fill="white"/>
<path d="M80.8091 67.5176C82.3395 67.5176 83.5639 66.2932 83.5639 64.7627C83.5639 63.2323 82.3395 62.0079 80.8091 62.0079C79.2786 62.0079 78.0542 63.2323 78.0542 64.7627C78.0542 66.2932 79.2786 67.5176 80.8091 67.5176Z" fill="white"/>
<path d="M80.8091 36.9077C82.3395 36.9077 83.5639 35.6834 83.5639 34.1529C83.5639 32.6224 82.3395 31.398 80.8091 31.398C79.2786 31.398 78.0542 32.6224 78.0542 34.1529C78.0542 35.6834 79.2786 36.9077 80.8091 36.9077Z" fill="white"/>
<path d="M80.8091 6.45166C82.3395 6.45166 83.5639 5.22728 83.5639 3.6968C83.5639 2.16633 82.3395 0.941944 80.8091 0.941944C79.2786 0.941944 78.0542 2.16633 78.0542 3.6968C78.0542 5.22728 79.2786 6.45166 80.8091 6.45166Z" fill="white"/>
<path d="M106.827 373C108.358 373 109.582 371.776 109.582 370.245C109.582 368.715 108.358 367.49 106.827 367.49C105.297 367.49 104.072 368.715 104.072 370.245C104.072 371.776 105.297 373 106.827 373Z" fill="white"/>
<path d="M106.827 342.391C108.358 342.391 109.582 341.166 109.582 339.636C109.582 338.105 108.358 336.881 106.827 336.881C105.297 336.881 104.072 338.105 104.072 339.636C104.072 341.166 105.297 342.391 106.827 342.391Z" fill="white"/>
<path d="M106.827 311.934C108.358 311.934 109.582 310.71 109.582 309.179C109.582 307.649 108.358 306.424 106.827 306.424C105.297 306.424 104.072 307.649 104.072 309.179C104.072 310.71 105.297 311.934 106.827 311.934Z" fill="white"/>
<path d="M109.582 278.57C109.582 277.048 108.349 275.815 106.827 275.815C105.306 275.815 104.072 277.048 104.072 278.57C104.072 280.091 105.306 281.325 106.827 281.325C108.349 281.325 109.582 280.091 109.582 278.57Z" fill="white"/>
<path d="M109.582 248.113C109.582 246.592 108.349 245.358 106.827 245.358C105.306 245.358 104.072 246.592 104.072 248.113C104.072 249.635 105.306 250.868 106.827 250.868C108.349 250.868 109.582 249.635 109.582 248.113Z" fill="white"/>
<path d="M109.582 217.504C109.582 215.982 108.349 214.749 106.827 214.749C105.306 214.749 104.072 215.982 104.072 217.504C104.072 219.025 105.306 220.259 106.827 220.259C108.349 220.259 109.582 219.025 109.582 217.504Z" fill="white"/>
<path d="M106.827 189.649C108.358 189.649 109.582 188.425 109.582 186.895C109.582 185.364 108.358 184.14 106.827 184.14C105.297 184.14 104.072 185.364 104.072 186.895C104.072 188.425 105.297 189.649 106.827 189.649Z" fill="white"/>
<path d="M106.827 159.193C108.358 159.193 109.582 157.968 109.582 156.438C109.582 154.908 108.358 153.683 106.827 153.683C105.297 153.683 104.072 154.908 104.072 156.438C104.072 157.968 105.297 159.193 106.827 159.193Z" fill="white"/>
<path d="M106.827 128.583C108.358 128.583 109.582 127.359 109.582 125.829C109.582 124.298 108.358 123.074 106.827 123.074C105.297 123.074 104.072 124.298 104.072 125.829C104.072 127.359 105.297 128.583 106.827 128.583Z" fill="white"/>
<path d="M106.827 98.127C108.358 98.127 109.582 96.9026 109.582 95.3721C109.582 93.8416 108.358 92.6173 106.827 92.6173C105.297 92.6173 104.072 93.8416 104.072 95.3721C104.072 96.9026 105.297 98.127 106.827 98.127Z" fill="white"/>
<path d="M106.827 67.5176C108.358 67.5176 109.582 66.2932 109.582 64.7627C109.582 63.2323 108.358 62.0079 106.827 62.0079C105.297 62.0079 104.072 63.2323 104.072 64.7627C104.072 66.2932 105.297 67.5176 106.827 67.5176Z" fill="white"/>
<path d="M106.827 36.9077C108.358 36.9077 109.582 35.6834 109.582 34.1529C109.582 32.6224 108.358 31.398 106.827 31.398C105.297 31.398 104.072 32.6224 104.072 34.1529C104.072 35.6834 105.297 36.9077 106.827 36.9077Z" fill="white"/>
<path d="M106.827 6.45166C108.358 6.45166 109.582 5.22728 109.582 3.6968C109.582 2.16633 108.358 0.941944 106.827 0.941944C105.297 0.941944 104.072 2.16633 104.072 3.6968C104.072 5.22728 105.297 6.45166 106.827 6.45166Z" fill="white"/>
<path d="M132.845 373C134.376 373 135.6 371.776 135.6 370.245C135.6 368.715 134.376 367.49 132.845 367.49C131.315 367.49 130.09 368.715 130.09 370.245C130.09 371.776 131.315 373 132.845 373Z" fill="white"/>
<path d="M132.845 342.391C134.376 342.391 135.6 341.166 135.6 339.636C135.6 338.105 134.376 336.881 132.845 336.881C131.315 336.881 130.09 338.105 130.09 339.636C130.09 341.166 131.315 342.391 132.845 342.391Z" fill="white"/>
<path d="M132.845 311.934C134.376 311.934 135.6 310.71 135.6 309.179C135.6 307.649 134.376 306.424 132.845 306.424C131.315 306.424 130.09 307.649 130.09 309.179C130.09 310.71 131.315 311.934 132.845 311.934Z" fill="white"/>
<path d="M132.845 281.325C134.376 281.325 135.6 280.1 135.6 278.57C135.6 277.039 134.376 275.815 132.845 275.815C131.315 275.815 130.09 277.039 130.09 278.57C130.09 280.1 131.315 281.325 132.845 281.325Z" fill="white"/>
<path d="M132.845 250.868C134.376 250.868 135.6 249.644 135.6 248.113C135.6 246.583 134.376 245.358 132.845 245.358C131.315 245.358 130.09 246.583 130.09 248.113C130.09 249.644 131.315 250.868 132.845 250.868Z" fill="white"/>
<path d="M132.845 220.259C134.376 220.259 135.6 219.034 135.6 217.504C135.6 215.973 134.376 214.749 132.845 214.749C131.315 214.749 130.09 215.973 130.09 217.504C130.09 219.034 131.315 220.259 132.845 220.259Z" fill="white"/>
<path d="M132.845 189.649C134.376 189.649 135.6 188.425 135.6 186.895C135.6 185.364 134.376 184.14 132.845 184.14C131.315 184.14 130.09 185.364 130.09 186.895C130.09 188.425 131.315 189.649 132.845 189.649Z" fill="white"/>
<path d="M132.845 159.193C134.376 159.193 135.6 157.968 135.6 156.438C135.6 154.908 134.376 153.683 132.845 153.683C131.315 153.683 130.09 154.908 130.09 156.438C130.09 157.968 131.315 159.193 132.845 159.193Z" fill="white"/>
<path d="M132.845 128.583C134.376 128.583 135.6 127.359 135.6 125.829C135.6 124.298 134.376 123.074 132.845 123.074C131.315 123.074 130.09 124.298 130.09 125.829C130.09 127.359 131.315 128.583 132.845 128.583Z" fill="white"/>
<path d="M132.845 98.127C134.376 98.127 135.6 96.9026 135.6 95.3721C135.6 93.8416 134.376 92.6173 132.845 92.6173C131.315 92.6173 130.09 93.8416 130.09 95.3721C130.09 96.9026 131.315 98.127 132.845 98.127Z" fill="white"/>
<path d="M132.845 67.5176C134.376 67.5176 135.6 66.2932 135.6 64.7627C135.6 63.2323 134.376 62.0079 132.845 62.0079C131.315 62.0079 130.09 63.2323 130.09 64.7627C130.09 66.2932 131.315 67.5176 132.845 67.5176Z" fill="white"/>
<path d="M132.845 36.9077C134.376 36.9077 135.6 35.6834 135.6 34.1529C135.6 32.6224 134.376 31.398 132.845 31.398C131.315 31.398 130.09 32.6224 130.09 34.1529C130.09 35.6834 131.315 36.9077 132.845 36.9077Z" fill="white"/>
<path d="M132.845 6.45166C134.376 6.45166 135.6 5.22728 135.6 3.6968C135.6 2.16633 134.376 0.941944 132.845 0.941944C131.315 0.941944 130.09 2.16633 130.09 3.6968C130.09 5.22728 131.315 6.45166 132.845 6.45166Z" fill="white"/>
</g>
</svg>
