<svg width="373" height="136" viewBox="0 0 373 136" fill="none" xmlns="http://www.w3.org/2000/svg">
<g opacity="0.5">
<path d="M0 2.75485C0 4.28533 1.22438 5.50971 2.75485 5.50971C4.28533 5.50971 5.50971 4.28533 5.50971 2.75485C5.50971 1.22438 4.28533 0 2.75485 0C1.22438 0 0 1.22438 0 2.75485Z" fill="white"/>
<path d="M30.6095 2.75485C30.6095 4.28533 31.8339 5.50971 33.3643 5.50971C34.8948 5.50971 36.1192 4.28533 36.1192 2.75485C36.1192 1.22438 34.8948 0 33.3643 0C31.8339 0 30.6095 1.22438 30.6095 2.75485Z" fill="white"/>
<path d="M61.0659 2.75485C61.0659 4.28533 62.2903 5.50971 63.8208 5.50971C65.3512 5.50971 66.5756 4.28533 66.5756 2.75485C66.5756 1.22438 65.3512 0 63.8208 0C62.2903 0 61.0659 1.22438 61.0659 2.75485Z" fill="white"/>
<path d="M91.6754 2.75485C91.6754 4.28533 92.8998 5.50971 94.4302 5.50971C95.9607 5.50971 97.1851 4.28533 97.1851 2.75485C97.1851 1.22438 95.9607 0 94.4302 0C92.8998 0 91.6754 1.22438 91.6754 2.75485Z" fill="white"/>
<path d="M122.132 2.75485C122.132 4.28533 123.356 5.50971 124.887 5.50971C126.417 5.50971 127.642 4.28533 127.642 2.75485C127.642 1.22438 126.417 0 124.887 0C123.356 0 122.132 1.22438 122.132 2.75485Z" fill="white"/>
<path d="M152.741 2.75485C152.741 4.28533 153.966 5.50971 155.496 5.50971C157.027 5.50971 158.251 4.28533 158.251 2.75485C158.251 1.22438 157.027 0 155.496 0C153.966 0 152.741 1.22438 152.741 2.75485Z" fill="white"/>
<path d="M183.351 2.75485C183.351 4.28533 184.575 5.50971 186.106 5.50971C187.636 5.50971 188.86 4.28533 188.86 2.75485C188.86 1.22438 187.636 0 186.106 0C184.575 0 183.351 1.22438 183.351 2.75485Z" fill="white"/>
<path d="M213.807 2.75485C213.807 4.28533 215.032 5.50971 216.562 5.50971C218.093 5.50971 219.317 4.28533 219.317 2.75485C219.317 1.22438 218.093 0 216.562 0C215.032 0 213.807 1.22438 213.807 2.75485Z" fill="white"/>
<path d="M244.417 2.75485C244.417 4.28533 245.641 5.50971 247.172 5.50971C248.702 5.50971 249.926 4.28533 249.926 2.75485C249.926 1.22438 248.702 0 247.172 0C245.641 0 244.417 1.22438 244.417 2.75485Z" fill="white"/>
<path d="M274.873 2.75485C274.873 4.28533 276.097 5.50971 277.628 5.50971C279.158 5.50971 280.383 4.28533 280.383 2.75485C280.383 1.22438 279.158 0 277.628 0C276.097 0 274.873 1.22438 274.873 2.75485Z" fill="white"/>
<path d="M305.483 2.75485C305.483 4.28533 306.707 5.50971 308.237 5.50971C309.768 5.50971 310.992 4.28533 310.992 2.75485C310.992 1.22438 309.768 0 308.237 0C306.707 0 305.483 1.22438 305.483 2.75485Z" fill="white"/>
<path d="M336.092 2.75485C336.092 4.28533 337.316 5.50971 338.847 5.50971C340.377 5.50971 341.602 4.28533 341.602 2.75485C341.602 1.22438 340.377 0 338.847 0C337.316 0 336.092 1.22438 336.092 2.75485Z" fill="white"/>
<path d="M366.549 2.75485C366.549 4.28533 367.773 5.50971 369.303 5.50971C370.834 5.50971 372.058 4.28533 372.058 2.75485C372.058 1.22438 370.834 0 369.303 0C367.773 0 366.549 1.22438 366.549 2.75485Z" fill="white"/>
<path d="M0 28.7729C0 30.3034 1.22438 31.5278 2.75485 31.5278C4.28533 31.5278 5.50971 30.3034 5.50971 28.7729C5.50971 27.2424 4.28533 26.0181 2.75485 26.0181C1.22438 26.0181 0 27.2424 0 28.7729Z" fill="white"/>
<path d="M30.6095 28.7729C30.6095 30.3034 31.8339 31.5278 33.3643 31.5278C34.8948 31.5278 36.1192 30.3034 36.1192 28.7729C36.1192 27.2424 34.8948 26.0181 33.3643 26.0181C31.8339 26.0181 30.6095 27.2424 30.6095 28.7729Z" fill="white"/>
<path d="M61.0659 28.7729C61.0659 30.3034 62.2903 31.5278 63.8208 31.5278C65.3512 31.5278 66.5756 30.3034 66.5756 28.7729C66.5756 27.2424 65.3512 26.0181 63.8208 26.0181C62.2903 26.0181 61.0659 27.2424 61.0659 28.7729Z" fill="white"/>
<path d="M91.6754 28.7729C91.6754 30.3034 92.8998 31.5278 94.4302 31.5278C95.9607 31.5278 97.1851 30.3034 97.1851 28.7729C97.1851 27.2424 95.9607 26.0181 94.4302 26.0181C92.8998 26.0181 91.6754 27.2424 91.6754 28.7729Z" fill="white"/>
<path d="M122.132 28.7729C122.132 30.3034 123.356 31.5278 124.887 31.5278C126.417 31.5278 127.642 30.3034 127.642 28.7729C127.642 27.2424 126.417 26.0181 124.887 26.0181C123.356 26.0181 122.132 27.2424 122.132 28.7729Z" fill="white"/>
<path d="M152.741 28.7729C152.741 30.3034 153.966 31.5278 155.496 31.5278C157.027 31.5278 158.251 30.3034 158.251 28.7729C158.251 27.2424 157.027 26.0181 155.496 26.0181C153.966 26.0181 152.741 27.2424 152.741 28.7729Z" fill="white"/>
<path d="M183.351 28.7729C183.351 30.3034 184.575 31.5278 186.106 31.5278C187.636 31.5278 188.86 30.3034 188.86 28.7729C188.86 27.2424 187.636 26.0181 186.106 26.0181C184.575 26.0181 183.351 27.2424 183.351 28.7729Z" fill="white"/>
<path d="M213.807 28.7729C213.807 30.3034 215.032 31.5278 216.562 31.5278C218.093 31.5278 219.317 30.3034 219.317 28.7729C219.317 27.2424 218.093 26.0181 216.562 26.0181C215.032 26.0181 213.807 27.2424 213.807 28.7729Z" fill="white"/>
<path d="M244.417 28.7729C244.417 30.3034 245.641 31.5278 247.172 31.5278C248.702 31.5278 249.926 30.3034 249.926 28.7729C249.926 27.2424 248.702 26.0181 247.172 26.0181C245.641 26.0181 244.417 27.2424 244.417 28.7729Z" fill="white"/>
<path d="M274.873 28.7729C274.873 30.3034 276.097 31.5278 277.628 31.5278C279.158 31.5278 280.383 30.3034 280.383 28.7729C280.383 27.2424 279.158 26.0181 277.628 26.0181C276.097 26.0181 274.873 27.2424 274.873 28.7729Z" fill="white"/>
<path d="M305.483 28.7729C305.483 30.3034 306.707 31.5278 308.237 31.5278C309.768 31.5278 310.992 30.3034 310.992 28.7729C310.992 27.2424 309.768 26.0181 308.237 26.0181C306.707 26.0181 305.483 27.2424 305.483 28.7729Z" fill="white"/>
<path d="M336.092 28.7729C336.092 30.3034 337.316 31.5278 338.847 31.5278C340.377 31.5278 341.602 30.3034 341.602 28.7729C341.602 27.2424 340.377 26.0181 338.847 26.0181C337.316 26.0181 336.092 27.2424 336.092 28.7729Z" fill="white"/>
<path d="M366.549 28.7729C366.549 30.3034 367.773 31.5278 369.303 31.5278C370.834 31.5278 372.058 30.3034 372.058 28.7729C372.058 27.2424 370.834 26.0181 369.303 26.0181C367.773 26.0181 366.549 27.2424 366.549 28.7729Z" fill="white"/>
<path d="M0 54.791C0 56.3215 1.22438 57.5458 2.75485 57.5458C4.28533 57.5458 5.50971 56.3215 5.50971 54.791C5.50971 53.2605 4.28533 52.0361 2.75485 52.0361C1.22438 52.0361 0 53.2605 0 54.791Z" fill="white"/>
<path d="M30.6095 54.791C30.6095 56.3215 31.8339 57.5458 33.3643 57.5458C34.8948 57.5458 36.1192 56.3215 36.1192 54.791C36.1192 53.2605 34.8948 52.0361 33.3643 52.0361C31.8339 52.0361 30.6095 53.2605 30.6095 54.791Z" fill="white"/>
<path d="M61.0659 54.791C61.0659 56.3215 62.2903 57.5458 63.8208 57.5458C65.3512 57.5458 66.5756 56.3215 66.5756 54.791C66.5756 53.2605 65.3512 52.0361 63.8208 52.0361C62.2903 52.0361 61.0659 53.2605 61.0659 54.791Z" fill="white"/>
<path d="M91.6754 54.791C91.6754 56.3215 92.8998 57.5458 94.4302 57.5458C95.9607 57.5458 97.1851 56.3215 97.1851 54.791C97.1851 53.2605 95.9607 52.0361 94.4302 52.0361C92.8998 52.0361 91.6754 53.2605 91.6754 54.791Z" fill="white"/>
<path d="M122.132 54.791C122.132 56.3215 123.356 57.5458 124.887 57.5458C126.417 57.5458 127.642 56.3215 127.642 54.791C127.642 53.2605 126.417 52.0361 124.887 52.0361C123.356 52.0361 122.132 53.2605 122.132 54.791Z" fill="white"/>
<path d="M152.741 54.791C152.741 56.3215 153.966 57.5458 155.496 57.5458C157.027 57.5458 158.251 56.3215 158.251 54.791C158.251 53.2605 157.027 52.0361 155.496 52.0361C153.966 52.0361 152.741 53.2605 152.741 54.791Z" fill="white"/>
<path d="M183.351 54.791C183.351 56.3215 184.575 57.5458 186.106 57.5458C187.636 57.5458 188.86 56.3215 188.86 54.791C188.86 53.2605 187.636 52.0361 186.106 52.0361C184.575 52.0361 183.351 53.2605 183.351 54.791Z" fill="white"/>
<path d="M213.807 54.791C213.807 56.3215 215.032 57.5458 216.562 57.5458C218.093 57.5458 219.317 56.3215 219.317 54.791C219.317 53.2605 218.093 52.0361 216.562 52.0361C215.032 52.0361 213.807 53.2605 213.807 54.791Z" fill="white"/>
<path d="M244.417 54.791C244.417 56.3215 245.641 57.5458 247.172 57.5458C248.702 57.5458 249.926 56.3215 249.926 54.791C249.926 53.2605 248.702 52.0361 247.172 52.0361C245.641 52.0361 244.417 53.2605 244.417 54.791Z" fill="white"/>
<path d="M274.873 54.791C274.873 56.3215 276.097 57.5458 277.628 57.5458C279.158 57.5458 280.383 56.3215 280.383 54.791C280.383 53.2605 279.158 52.0361 277.628 52.0361C276.097 52.0361 274.873 53.2605 274.873 54.791Z" fill="white"/>
<path d="M305.483 54.791C305.483 56.3215 306.707 57.5458 308.237 57.5458C309.768 57.5458 310.992 56.3215 310.992 54.791C310.992 53.2605 309.768 52.0361 308.237 52.0361C306.707 52.0361 305.483 53.2605 305.483 54.791Z" fill="white"/>
<path d="M336.092 54.791C336.092 56.3215 337.316 57.5458 338.847 57.5458C340.377 57.5458 341.602 56.3215 341.602 54.791C341.602 53.2605 340.377 52.0361 338.847 52.0361C337.316 52.0361 336.092 53.2605 336.092 54.791Z" fill="white"/>
<path d="M366.549 54.791C366.549 56.3215 367.773 57.5458 369.303 57.5458C370.834 57.5458 372.058 56.3215 372.058 54.791C372.058 53.2605 370.834 52.0361 369.303 52.0361C367.773 52.0361 366.549 53.2605 366.549 54.791Z" fill="white"/>
<path d="M0 80.8091C0 82.3395 1.22438 83.5639 2.75485 83.5639C4.28533 83.5639 5.50971 82.3395 5.50971 80.8091C5.50971 79.2786 4.28533 78.0542 2.75485 78.0542C1.22438 78.0542 0 79.2786 0 80.8091Z" fill="white"/>
<path d="M30.6095 80.8091C30.6095 82.3395 31.8339 83.5639 33.3643 83.5639C34.8948 83.5639 36.1192 82.3395 36.1192 80.8091C36.1192 79.2786 34.8948 78.0542 33.3643 78.0542C31.8339 78.0542 30.6095 79.2786 30.6095 80.8091Z" fill="white"/>
<path d="M61.0659 80.8091C61.0659 82.3395 62.2903 83.5639 63.8208 83.5639C65.3512 83.5639 66.5756 82.3395 66.5756 80.8091C66.5756 79.2786 65.3512 78.0542 63.8208 78.0542C62.2903 78.0542 61.0659 79.2786 61.0659 80.8091Z" fill="white"/>
<path d="M91.6754 80.8091C91.6754 82.3395 92.8998 83.5639 94.4302 83.5639C95.9607 83.5639 97.1851 82.3395 97.1851 80.8091C97.1851 79.2786 95.9607 78.0542 94.4302 78.0542C92.8998 78.0542 91.6754 79.2786 91.6754 80.8091Z" fill="white"/>
<path d="M122.132 80.8091C122.132 82.3395 123.356 83.5639 124.887 83.5639C126.417 83.5639 127.642 82.3395 127.642 80.8091C127.642 79.2786 126.417 78.0542 124.887 78.0542C123.356 78.0542 122.132 79.2786 122.132 80.8091Z" fill="white"/>
<path d="M152.741 80.8091C152.741 82.3395 153.966 83.5639 155.496 83.5639C157.027 83.5639 158.251 82.3395 158.251 80.8091C158.251 79.2786 157.027 78.0542 155.496 78.0542C153.966 78.0542 152.741 79.2786 152.741 80.8091Z" fill="white"/>
<path d="M183.351 80.8091C183.351 82.3395 184.575 83.5639 186.106 83.5639C187.636 83.5639 188.86 82.3395 188.86 80.8091C188.86 79.2786 187.636 78.0542 186.106 78.0542C184.575 78.0542 183.351 79.2786 183.351 80.8091Z" fill="white"/>
<path d="M213.807 80.8091C213.807 82.3395 215.032 83.5639 216.562 83.5639C218.093 83.5639 219.317 82.3395 219.317 80.8091C219.317 79.2786 218.093 78.0542 216.562 78.0542C215.032 78.0542 213.807 79.2786 213.807 80.8091Z" fill="white"/>
<path d="M244.417 80.8091C244.417 82.3395 245.641 83.5639 247.172 83.5639C248.702 83.5639 249.926 82.3395 249.926 80.8091C249.926 79.2786 248.702 78.0542 247.172 78.0542C245.641 78.0542 244.417 79.2786 244.417 80.8091Z" fill="white"/>
<path d="M274.873 80.8091C274.873 82.3395 276.097 83.5639 277.628 83.5639C279.158 83.5639 280.383 82.3395 280.383 80.8091C280.383 79.2786 279.158 78.0542 277.628 78.0542C276.097 78.0542 274.873 79.2786 274.873 80.8091Z" fill="white"/>
<path d="M305.483 80.8091C305.483 82.3395 306.707 83.5639 308.237 83.5639C309.768 83.5639 310.992 82.3395 310.992 80.8091C310.992 79.2786 309.768 78.0542 308.237 78.0542C306.707 78.0542 305.483 79.2786 305.483 80.8091Z" fill="white"/>
<path d="M336.092 80.8091C336.092 82.3395 337.316 83.5639 338.847 83.5639C340.377 83.5639 341.602 82.3395 341.602 80.8091C341.602 79.2786 340.377 78.0542 338.847 78.0542C337.316 78.0542 336.092 79.2786 336.092 80.8091Z" fill="white"/>
<path d="M366.549 80.8091C366.549 82.3395 367.773 83.5639 369.303 83.5639C370.834 83.5639 372.058 82.3395 372.058 80.8091C372.058 79.2786 370.834 78.0542 369.303 78.0542C367.773 78.0542 366.549 79.2786 366.549 80.8091Z" fill="white"/>
<path d="M0 106.827C0 108.358 1.22438 109.582 2.75485 109.582C4.28533 109.582 5.50971 108.358 5.50971 106.827C5.50971 105.297 4.28533 104.072 2.75485 104.072C1.22438 104.072 0 105.297 0 106.827Z" fill="white"/>
<path d="M30.6095 106.827C30.6095 108.358 31.8339 109.582 33.3643 109.582C34.8948 109.582 36.1192 108.358 36.1192 106.827C36.1192 105.297 34.8948 104.072 33.3643 104.072C31.8339 104.072 30.6095 105.297 30.6095 106.827Z" fill="white"/>
<path d="M61.0659 106.827C61.0659 108.358 62.2903 109.582 63.8208 109.582C65.3512 109.582 66.5756 108.358 66.5756 106.827C66.5756 105.297 65.3512 104.072 63.8208 104.072C62.2903 104.072 61.0659 105.297 61.0659 106.827Z" fill="white"/>
<path d="M94.4302 109.582C95.9517 109.582 97.1851 108.349 97.1851 106.827C97.1851 105.306 95.9517 104.072 94.4302 104.072C92.9088 104.072 91.6754 105.306 91.6754 106.827C91.6754 108.349 92.9088 109.582 94.4302 109.582Z" fill="white"/>
<path d="M124.887 109.582C126.408 109.582 127.642 108.349 127.642 106.827C127.642 105.306 126.408 104.072 124.887 104.072C123.365 104.072 122.132 105.306 122.132 106.827C122.132 108.349 123.365 109.582 124.887 109.582Z" fill="white"/>
<path d="M155.496 109.582C157.018 109.582 158.251 108.349 158.251 106.827C158.251 105.306 157.018 104.072 155.496 104.072C153.975 104.072 152.741 105.306 152.741 106.827C152.741 108.349 153.975 109.582 155.496 109.582Z" fill="white"/>
<path d="M183.351 106.827C183.351 108.358 184.575 109.582 186.106 109.582C187.636 109.582 188.86 108.358 188.86 106.827C188.86 105.297 187.636 104.072 186.106 104.072C184.575 104.072 183.351 105.297 183.351 106.827Z" fill="white"/>
<path d="M213.807 106.827C213.807 108.358 215.032 109.582 216.562 109.582C218.093 109.582 219.317 108.358 219.317 106.827C219.317 105.297 218.093 104.072 216.562 104.072C215.032 104.072 213.807 105.297 213.807 106.827Z" fill="white"/>
<path d="M244.417 106.827C244.417 108.358 245.641 109.582 247.172 109.582C248.702 109.582 249.926 108.358 249.926 106.827C249.926 105.297 248.702 104.072 247.172 104.072C245.641 104.072 244.417 105.297 244.417 106.827Z" fill="white"/>
<path d="M274.873 106.827C274.873 108.358 276.097 109.582 277.628 109.582C279.158 109.582 280.383 108.358 280.383 106.827C280.383 105.297 279.158 104.072 277.628 104.072C276.097 104.072 274.873 105.297 274.873 106.827Z" fill="white"/>
<path d="M305.483 106.827C305.483 108.358 306.707 109.582 308.237 109.582C309.768 109.582 310.992 108.358 310.992 106.827C310.992 105.297 309.768 104.072 308.237 104.072C306.707 104.072 305.483 105.297 305.483 106.827Z" fill="white"/>
<path d="M336.092 106.827C336.092 108.358 337.316 109.582 338.847 109.582C340.377 109.582 341.602 108.358 341.602 106.827C341.602 105.297 340.377 104.072 338.847 104.072C337.316 104.072 336.092 105.297 336.092 106.827Z" fill="white"/>
<path d="M366.549 106.827C366.549 108.358 367.773 109.582 369.303 109.582C370.834 109.582 372.058 108.358 372.058 106.827C372.058 105.297 370.834 104.072 369.303 104.072C367.773 104.072 366.549 105.297 366.549 106.827Z" fill="white"/>
<path d="M0 132.845C0 134.376 1.22438 135.6 2.75485 135.6C4.28533 135.6 5.50971 134.376 5.50971 132.845C5.50971 131.315 4.28533 130.09 2.75485 130.09C1.22438 130.09 0 131.315 0 132.845Z" fill="white"/>
<path d="M30.6095 132.845C30.6095 134.376 31.8339 135.6 33.3643 135.6C34.8948 135.6 36.1192 134.376 36.1192 132.845C36.1192 131.315 34.8948 130.09 33.3643 130.09C31.8339 130.09 30.6095 131.315 30.6095 132.845Z" fill="white"/>
<path d="M61.0659 132.845C61.0659 134.376 62.2903 135.6 63.8208 135.6C65.3512 135.6 66.5756 134.376 66.5756 132.845C66.5756 131.315 65.3512 130.09 63.8208 130.09C62.2903 130.09 61.0659 131.315 61.0659 132.845Z" fill="white"/>
<path d="M91.6754 132.845C91.6754 134.376 92.8998 135.6 94.4302 135.6C95.9607 135.6 97.1851 134.376 97.1851 132.845C97.1851 131.315 95.9607 130.09 94.4302 130.09C92.8998 130.09 91.6754 131.315 91.6754 132.845Z" fill="white"/>
<path d="M122.132 132.845C122.132 134.376 123.356 135.6 124.887 135.6C126.417 135.6 127.642 134.376 127.642 132.845C127.642 131.315 126.417 130.09 124.887 130.09C123.356 130.09 122.132 131.315 122.132 132.845Z" fill="white"/>
<path d="M152.741 132.845C152.741 134.376 153.966 135.6 155.496 135.6C157.027 135.6 158.251 134.376 158.251 132.845C158.251 131.315 157.027 130.09 155.496 130.09C153.966 130.09 152.741 131.315 152.741 132.845Z" fill="white"/>
<path d="M183.351 132.845C183.351 134.376 184.575 135.6 186.106 135.6C187.636 135.6 188.86 134.376 188.86 132.845C188.86 131.315 187.636 130.09 186.106 130.09C184.575 130.09 183.351 131.315 183.351 132.845Z" fill="white"/>
<path d="M213.807 132.845C213.807 134.376 215.032 135.6 216.562 135.6C218.093 135.6 219.317 134.376 219.317 132.845C219.317 131.315 218.093 130.09 216.562 130.09C215.032 130.09 213.807 131.315 213.807 132.845Z" fill="white"/>
<path d="M244.417 132.845C244.417 134.376 245.641 135.6 247.172 135.6C248.702 135.6 249.926 134.376 249.926 132.845C249.926 131.315 248.702 130.09 247.172 130.09C245.641 130.09 244.417 131.315 244.417 132.845Z" fill="white"/>
<path d="M274.873 132.845C274.873 134.376 276.097 135.6 277.628 135.6C279.158 135.6 280.383 134.376 280.383 132.845C280.383 131.315 279.158 130.09 277.628 130.09C276.097 130.09 274.873 131.315 274.873 132.845Z" fill="white"/>
<path d="M305.483 132.845C305.483 134.376 306.707 135.6 308.237 135.6C309.768 135.6 310.992 134.376 310.992 132.845C310.992 131.315 309.768 130.09 308.237 130.09C306.707 130.09 305.483 131.315 305.483 132.845Z" fill="white"/>
<path d="M336.092 132.845C336.092 134.376 337.316 135.6 338.847 135.6C340.377 135.6 341.602 134.376 341.602 132.845C341.602 131.315 340.377 130.09 338.847 130.09C337.316 130.09 336.092 131.315 336.092 132.845Z" fill="white"/>
<path d="M366.549 132.845C366.549 134.376 367.773 135.6 369.303 135.6C370.834 135.6 372.058 134.376 372.058 132.845C372.058 131.315 370.834 130.09 369.303 130.09C367.773 130.09 366.549 131.315 366.549 132.845Z" fill="white"/>
</g>
</svg>
