<svg width="80" height="80" viewBox="0 0 80 80" fill="none" xmlns="http://www.w3.org/2000/svg">
<circle cx="40" cy="40" r="38.5" stroke="white" stroke-width="3"/>
<path d="M43.2 31H59.52L52.56 23.24C52.48 23.08 52.24 23 52 23H43.2V31Z" fill="white"/>
<path d="M36.8001 23H28.0001C27.7601 23 27.5201 23.08 27.4401 23.24L20.4801 31H36.8001V23Z" fill="white"/>
<path d="M43.2 32.6001V36.6001H36.8V32.6001H20V55.8001C20 56.2801 20.32 56.6001 20.8 56.6001H59.2C59.68 56.6001 60 56.2801 60 55.8001V32.6001H43.2ZM32.8 51.8001H24.8V45.4001H32.8V51.8001ZM40.8 50.2001H36V48.6001H40.8V50.2001ZM44 47.0001H36V45.4001H44V47.0001Z" fill="white"/>
</svg>
