<svg width="80" height="80" viewBox="0 0 80 80" fill="none" xmlns="http://www.w3.org/2000/svg">
<circle cx="40" cy="40" r="38.5" stroke="white" stroke-width="3"/>
<path d="M61.2896 24H30.0264C28.5501 24 27.4211 25.1289 27.4211 26.6053V29.2105H29.158V26.6053C29.158 26.0842 29.5054 25.7368 30.0264 25.7368H61.2896C61.8106 25.7368 62.158 26.0842 62.158 26.6053V32.6842H55.1238C55.2106 32.9447 55.2106 33.2921 55.2106 33.5526V37.8947H62.158V47.4474C62.158 47.9684 61.8106 48.3158 61.2896 48.3158H55.2106V50.0526H61.2896C62.7659 50.0526 63.8948 48.9237 63.8948 47.4474V26.6053C63.8948 25.1289 62.7659 24 61.2896 24Z" fill="white"/>
<path d="M50.8684 30.9473H19.6053C18.1289 30.9473 17 32.0762 17 33.5525V54.3946C17 55.8709 18.1289 56.9999 19.6053 56.9999H50.8684C52.3447 56.9999 53.4737 55.8709 53.4737 54.3946V33.5525C53.4737 32.0762 52.3447 30.9473 50.8684 30.9473ZM27.4211 50.0525H22.2105V48.3157H27.4211V50.0525ZM30.8947 43.1052H22.2105V36.1578H30.8947V43.1052ZM37.8421 50.0525H32.6316V48.3157H37.8421V50.0525ZM48.2632 50.0525H43.0526V48.3157H48.2632V50.0525ZM48.2632 37.8946H39.5789V36.1578H48.2632V37.8946Z" fill="white"/>
</svg>
