<svg width="80" height="80" viewBox="0 0 80 80" fill="none" xmlns="http://www.w3.org/2000/svg">
<circle cx="40" cy="40" r="38.5" stroke="white" stroke-width="3"/>
<path d="M31.9601 61C33.3518 61 34.4801 59.8717 34.4801 58.48C34.4801 57.0882 33.3518 55.96 31.9601 55.96C30.5683 55.96 29.4401 57.0882 29.4401 58.48C29.4401 59.8717 30.5683 61 31.9601 61Z" fill="white"/>
<path d="M55.48 61C56.8717 61 58 59.8717 58 58.48C58 57.0882 56.8717 55.96 55.48 55.96C54.0882 55.96 52.96 57.0882 52.96 58.48C52.96 59.8717 54.0882 61 55.48 61Z" fill="white"/>
<path d="M34.48 45.88H58C58.84 45.88 59.512 45.292 59.68 44.536L63.04 26.896C63.124 26.392 63.04 25.888 62.704 25.552C62.368 25.132 61.864 24.88 61.36 24.88H27.844L26.332 21.1C25.912 19.84 24.652 19 23.224 19H17.68C16.756 19 16 19.756 16 20.68C16 21.604 16.756 22.36 17.68 22.36H23.224L31.708 43.948L29.104 47.644C28.18 48.904 28.096 50.584 28.852 52.012C29.608 53.44 31.036 54.28 32.548 54.28H58C58.924 54.28 59.68 53.524 59.68 52.6C59.68 51.676 58.924 50.92 58 50.92H32.632C32.212 50.92 31.96 50.584 31.876 50.5C31.792 50.332 31.708 49.996 31.96 49.66L34.48 45.88ZM51.28 37.48H45.4V33.28H51.28V37.48ZM52.96 33.28H58.336L57.496 37.48H52.96V33.28ZM51.28 39.16V42.52H45.4V39.16H51.28ZM45.4 31.6V28.24H51.28V31.6H45.4ZM43.72 31.6H37.84V28.24H43.72V31.6ZM43.72 33.28V37.48H37.84V33.28H43.72ZM43.72 39.16V42.52H37.84V39.16H43.72ZM36.16 42.52H34.816L33.472 39.16H36.16V42.52ZM52.96 42.52V39.16H57.244L56.572 42.52H52.96ZM58.672 31.6H52.96V28.24H59.344L58.672 31.6ZM36.16 28.24V31.6H30.532L29.188 28.24H36.16ZM31.12 33.28H36.16V37.48H32.8L31.12 33.28Z" fill="white"/>
</svg>
