<svg width="21" height="16" viewBox="0 0 21 16" fill="none" xmlns="http://www.w3.org/2000/svg">
<path d="M14.4248 7.94839C13.8471 7.6043 13.4053 7.13979 13.0995 6.55484C12.7937 5.96989 12.6408 5.31613 12.6408 4.59355C12.6408 3.25161 13.0825 2.15054 13.966 1.29032C14.8155 0.430108 15.8519 9.53674e-07 17.0752 9.53674e-07C18.1966 9.53674e-07 19.1311 0.378494 19.8786 1.13548C20.6262 1.89247 21 2.85591 21 4.02581C21 4.61075 20.8981 5.17849 20.6942 5.72903C20.4563 6.31398 20.0825 7.05376 19.5728 7.94839L14.8835 16H10.8058L14.4248 7.94839ZM3.61893 7.94839C3.04126 7.6043 2.59952 7.13979 2.29369 6.55484C1.98786 5.96989 1.83495 5.31613 1.83495 4.59355C1.83495 3.25161 2.2767 2.15054 3.1602 1.29032C4.00971 0.430108 5.04612 9.53674e-07 6.26942 9.53674e-07C7.39078 9.53674e-07 8.32524 0.378494 9.07282 1.13548C9.82039 1.89247 10.1942 2.85591 10.1942 4.02581C10.1942 4.61075 10.0922 5.17849 9.88835 5.72903C9.65049 6.31398 9.2767 7.05376 8.76699 7.94839L4.07767 16H0L3.61893 7.94839Z" fill="#73919B"/>
</svg>
