<svg width="80" height="80" viewBox="0 0 80 80" fill="none" xmlns="http://www.w3.org/2000/svg">
<circle cx="40" cy="40" r="38.5" stroke="white" stroke-width="3"/>
<path d="M24.88 49.492C24.628 49.492 24.46 49.408 24.292 49.24C20.848 45.88 19 41.428 19 36.64C19 26.896 26.896 19 36.64 19C41.428 19 45.88 20.848 49.24 24.292C49.576 24.628 49.576 25.132 49.24 25.468C48.904 25.804 48.4 25.804 48.064 25.468C45.04 22.36 40.924 20.68 36.64 20.68C27.82 20.68 20.68 27.82 20.68 36.64C20.68 40.924 22.36 45.04 25.468 48.064C25.804 48.4 25.804 48.904 25.468 49.24C25.3 49.408 25.132 49.492 24.88 49.492Z" fill="white"/>
<path d="M51.508 51.5078C42.772 60.3278 35.632 60.9998 33.616 60.9998C30.424 60.9998 25.72 56.7998 25.72 55.7078V53.6078C25.72 53.1038 26.056 52.6838 26.56 52.5158L34.96 49.8278C35.38 49.6598 35.8 49.8278 36.136 50.0798L39.244 53.1878C39.58 53.5238 40.168 53.6078 40.588 53.3558C41.848 52.5998 44.62 50.9198 47.812 47.6438C51.004 44.4518 52.768 41.6798 53.524 40.4198C53.776 39.9998 53.692 39.4118 53.356 39.0758L50.248 35.9678C49.912 35.6318 49.828 35.2118 49.996 34.7918L52.684 26.3918C52.852 25.8878 53.272 25.5518 53.776 25.5518H55.876C56.8 25.7198 61 30.4238 61 33.6158C61 35.6318 60.328 42.7718 51.508 51.5078Z" fill="white"/>
<path d="M34.12 40.8401H28.24C27.736 40.8401 27.4 40.5041 27.4 40.0001C27.4 38.0681 29.164 36.6401 30.76 35.3801C32.02 34.4561 33.28 33.4481 33.28 32.5241C33.28 31.0121 32.104 30.7601 31.348 30.7601C30.256 30.7601 29.332 31.2641 28.996 31.9361C28.828 32.3561 28.324 32.5241 27.904 32.3561C27.484 32.1881 27.316 31.6841 27.484 31.2641C28.156 29.9201 29.584 29.0801 31.348 29.0801C33.112 29.0801 34.96 30.1721 34.96 32.5241C34.96 34.2041 33.364 35.4641 31.852 36.7241C30.844 37.4801 29.836 38.3201 29.332 39.1601H34.12C34.624 39.1601 34.96 39.4961 34.96 40.0001C34.96 40.5041 34.624 40.8401 34.12 40.8401Z" fill="white"/>
<path d="M41.6799 40.8401C41.1759 40.8401 40.8399 40.5041 40.8399 40.0001V38.3201H36.6399C36.3039 38.3201 36.0519 38.1521 35.8839 37.9001C35.7159 37.6481 35.7159 37.3121 35.8839 37.0601L40.9239 29.5001C41.0919 29.1641 41.5119 29.0801 41.8479 29.1641C42.1839 29.2481 42.4359 29.5841 42.4359 30.0041V36.7241H43.2759C43.7799 36.7241 44.1159 37.0601 44.1159 37.5641C44.1159 38.0681 43.7799 38.4041 43.2759 38.4041H42.4359V40.0841C42.5199 40.5041 42.1839 40.8401 41.6799 40.8401ZM38.2359 36.6401H40.8399V32.6921L38.2359 36.6401Z" fill="white"/>
</svg>
