<svg width="250" height="45" viewBox="0 0 250 45" fill="none" xmlns="http://www.w3.org/2000/svg">
<path d="M13.371 26.5981C14.5738 27.7918 14.5738 29.7812 13.371 30.9748L12.3687 31.9695C11.1659 33.1631 9.20135 33.1631 7.95846 31.9695L0.902093 25.0066C-0.300698 23.813 -0.300698 21.8236 0.902093 20.63L1.90442 19.6353C3.10721 18.4416 5.11186 18.4416 6.31465 19.6353L13.371 26.5981ZM12.6493 13.309C11.4466 12.1154 9.482 12.1154 8.23912 13.309L7.1967 14.3037C5.99391 15.4973 5.99391 17.4867 7.1967 18.6804L14.2531 25.683C15.4559 26.8767 17.4204 26.8767 18.6633 25.683L19.6656 24.6485C20.8684 23.4549 20.8684 21.4655 19.6656 20.2719L12.6493 13.309ZM31.4129 19.4761C30.2101 18.2825 28.2054 18.2825 27.0026 19.4761L26.0003 20.5106C24.7975 21.7042 24.7975 23.6538 26.0003 24.8873L33.0567 31.8501C34.2595 33.0438 36.224 33.0438 37.4669 31.8501L38.4692 30.8554C39.672 29.6618 39.672 27.6724 38.4692 26.4788L31.4129 19.4761ZM37.7476 13.1897C36.5448 11.996 34.5802 11.996 33.3373 13.1897L32.335 14.2241C31.1322 15.4178 31.1322 17.3674 32.335 18.6008L39.3914 25.6034C40.5942 26.7971 42.5587 26.7971 43.8016 25.6034L44.844 24.569C46.0468 23.3753 46.0468 21.4257 44.844 20.1923L37.7476 13.1897ZM26.0404 6.26658C27.2432 5.07294 27.2432 3.12334 26.0404 1.88992L25.0381 0.895225C23.8353 -0.298409 21.8306 -0.298409 20.6279 0.895225L13.6116 7.85809C12.4088 9.05172 12.4088 11.0013 13.6116 12.2347L14.6139 13.2692C15.8167 14.4629 17.8213 14.4629 19.0241 13.2692L26.0404 6.26658ZM32.3751 12.5531C33.5779 11.3594 33.5779 9.40981 32.3751 8.17639L31.3327 7.14191C30.1299 5.94828 28.1653 5.94828 26.9225 7.14191L19.9463 14.1446C18.7435 15.3382 18.7435 17.3276 19.9463 18.5212L20.9887 19.5557C22.1915 20.7493 24.156 20.7493 25.3989 19.5557L32.3751 12.5531ZM26.0805 30.8156C27.2833 29.622 27.2833 27.6724 26.0805 26.439L25.0381 25.4443C23.8353 24.2507 21.8707 24.2507 20.6279 25.4443L13.6116 32.4072C12.4088 33.6008 12.4088 35.5902 13.6116 36.7838L14.654 37.8183C15.8568 39.0119 17.8614 39.0119 19.0642 37.8183L26.0805 30.8156ZM32.4152 37.1021C33.618 35.9085 33.618 33.9589 32.4152 32.7255L31.3728 31.7308C30.17 30.5371 28.2054 30.5371 26.9626 31.7308L19.9463 38.6936C18.7435 39.8873 18.7435 41.8369 19.9463 43.0703L20.9887 44.1048C22.1915 45.2984 24.156 45.2984 25.3989 44.1048L32.4152 37.1021ZM83.614 30.935C83.8145 31.2135 84.7767 32.6459 84.7767 32.6459C84.2555 34.874 82.8923 37.6989 82.8923 37.6989L82.6918 37.7785C77.4798 39.8077 69.4612 41.5186 60.8011 38.057C55.6291 35.9881 51.9405 31.9695 50.4571 26.7175C48.8934 21.3064 49.9759 15.3382 53.3438 10.8024C57.0724 5.78913 63.0864 3.04377 71.2252 2.6061C74.3124 2.44695 80.6471 3.28249 84.055 5.19231L84.3357 5.35146C84.3357 5.35146 84.4559 13.8263 84.3758 14.2241L84.2956 14.622L81.7697 14.7016L81.6494 13.9456C81.2084 11.4788 80.0858 4.87401 70.8243 5.35146C66.8551 5.5504 63.6477 7.53979 61.2421 10.6432C58.3153 14.4231 57.4332 19.7149 58.7563 25.4841C59.9992 31.0942 64.3292 34.7149 67.6169 35.9483C69.0201 36.4655 73.3903 37.4602 76.718 35.9483C79.5245 34.7149 82.2909 32.6061 83.614 30.935ZM115.127 39.9668V10.6432C115.127 9.68833 115.127 8.13661 114.125 7.06233C113.964 6.90318 112.641 5.8687 112.641 5.8687V4.5557L120.58 2.96419L121.301 3.40186C121.301 3.40186 121.261 34.4363 121.301 34.8342C121.422 37.8581 123.466 38.057 123.466 38.057V39.9271H115.127V39.9668ZM150.369 38.0172C148.926 37.6989 148.204 36.5053 148.204 34.5159V15.935L147.482 15.4973L139.504 17.0889V18.4019C139.504 18.4019 140.867 19.4761 141.027 19.5955C142.03 20.6698 142.03 22.2215 142.03 23.1764V34.2772C139.423 36.2268 137.018 36.943 135.374 36.187C134.051 35.5504 133.289 33.9987 133.249 31.8103V15.9748L132.527 15.5371L124.549 17.1286V18.4416C124.549 18.4416 125.912 19.5159 126.072 19.6353C127.115 20.7096 127.075 22.3011 127.075 23.256V32.6061C127.155 34.4363 127.235 35.0332 127.436 35.8289C127.917 37.8581 129.12 39.2905 130.884 39.9271C133.69 40.9615 137.699 39.9668 141.989 37.1419V39.7281H150.73V38.0968L150.369 38.0172ZM189.941 38.0172C188.577 37.6989 187.856 36.5053 187.816 34.5159V23.1366C187.816 20.5106 186.453 15.5769 181.24 15.5769C177.392 15.5769 174.745 17.8448 173.503 19.0783C172.661 17.3276 171.057 15.5769 167.89 15.5769C165.444 15.5769 163.159 16.492 160.994 18.3223V15.935L160.272 15.4973L152.293 17.0889V18.4019C152.293 18.4019 153.656 19.4761 153.817 19.5955C154.819 20.6698 154.819 22.2215 154.819 23.1764V39.8077H163.479V38.1764L163.038 38.057C161.675 37.7387 160.994 36.5849 160.953 34.5557C160.953 34.5557 160.953 23.0968 160.953 21.2666C162.477 19.9934 164 19.7149 165.644 19.874C166.967 19.9934 168.331 20.9085 168.331 25.6034V39.8077H176.991V38.1764L176.55 38.057C175.146 37.7387 174.465 36.5849 174.425 34.5557V23.1764C174.425 22.8581 174.385 21.943 174.264 21.3064C175.828 19.9934 177.351 19.7149 178.995 19.8342C180.318 19.9536 181.682 20.8687 181.722 25.5637V39.7679H190.382V38.1366L189.941 38.0172ZM112.281 27.7122C112.281 24.0517 111.078 20.9483 108.832 18.7202C106.507 16.4125 103.139 15.179 99.1701 15.179C91.6727 15.179 86.0597 20.5902 86.0597 27.752C86.0597 35.3515 91.2317 40.2851 99.1701 40.2851C102.979 40.2851 106.307 39.0517 108.712 36.6247C110.998 34.317 112.281 31.1737 112.281 27.7122ZM99.1701 37.5796C94.3188 37.5796 92.9557 33.7997 92.9557 27.6724C92.9557 23.1764 94.3188 17.7653 99.1701 17.7653C104.021 17.7653 105.384 23.1764 105.384 27.6724C105.384 33.7997 104.021 37.5796 99.1701 37.5796ZM219.329 7.89788C219.329 6.14721 220.772 4.71485 222.576 4.71485C224.34 4.71485 225.824 6.14721 225.824 7.89788C225.824 9.64854 224.381 11.0809 222.576 11.0809C220.772 11.0809 219.329 9.64854 219.329 7.89788ZM219.77 39.7281V22.9377C219.77 21.943 219.77 20.4708 218.808 19.4363C218.647 19.2772 217.284 18.2427 217.284 18.2427V16.9297L225.263 15.3382L225.984 15.7759C225.984 15.7759 225.984 34.4761 225.984 34.4363C226.024 36.4655 226.706 37.6194 228.069 37.9377L228.51 38.057V39.6883L219.77 39.7281ZM215.199 21.2666C213.515 18.2825 211.31 16.4125 208.584 15.7759C204.855 14.8607 201.087 16.492 198.761 17.8846V3.48143L198.039 3.04377L190.101 4.63528V5.94828C190.101 5.94828 191.464 7.02255 191.625 7.14191C192.627 8.17639 192.587 9.64854 192.587 10.6432V37.7785V38.0968L192.867 38.256C197.398 40.5637 203.412 40.9217 207.782 39.1313C212.673 37.1021 214.758 33.6804 215.64 31.134C217.044 27.2745 216.402 23.4151 215.199 21.2666ZM208.584 34.2374C207.221 36.5451 204.374 37.8979 202.169 37.3011C199.964 36.7042 198.761 34.3568 198.801 30.7361C198.801 30.7361 198.801 22.4602 198.801 20.6698C198.881 20.63 198.962 20.5902 199.042 20.5504C200.365 19.874 202.891 18.6008 206.218 20.2719C208.023 21.187 209.346 22.8581 209.987 25.0464C210.829 27.9907 210.308 31.3329 208.584 34.2374ZM250 37.1419L249.559 37.0623C249.198 36.9828 248.557 36.1472 248.557 34.6751V23.6141C248.557 20.431 247.514 17.9244 245.63 16.5716C243.906 15.3382 241.54 15.1393 238.814 16.0146C235.567 17.0491 230.635 21.3462 229.833 22.3011L229.673 22.5L229.753 22.7785C229.833 23.057 230.194 23.6141 230.435 23.8528L230.595 23.9721H236.008C236.008 23.9721 236.008 22.6989 236.008 22.4602C236.008 20.2719 237.451 19.1976 238.694 18.9987C239.937 18.7599 240.779 18.8793 241.34 19.3568C242.182 20.0332 242.583 21.5849 242.583 23.9324V25.3249L231.156 30.3382L230.916 30.4576L230.836 30.6963C229.793 33.8793 229.994 36.3064 231.517 37.9377C233.883 40.5239 239.656 40.882 248.035 39.0119C248.677 38.8528 250 38.6936 250 38.6936V37.1419ZM242.583 28.0703V36.5849C240.698 37.8979 238.814 38.0172 237.491 36.943C236.048 35.7493 235.727 33.4814 236.689 31.3727L242.583 28.0703Z" fill="#47436A"/>
</svg>
