<svg width="92" height="92" viewBox="0 0 92 92" fill="none" xmlns="http://www.w3.org/2000/svg">
<rect width="92" height="92" rx="20" fill="#FFDBCA"/>
<g clip-path="url(#clip0)">
<path d="M68.9483 57.5317C68.9075 57.5059 64.8731 54.9066 62.9141 49.39C62.4741 48.1511 60.5437 48.8346 60.9844 50.0756C62.6396 54.7372 65.5714 57.5087 67.0151 58.6541L64.3015 62.8213C63.1648 62.5956 60.842 62.2702 58.0399 62.6221C54.6697 63.0454 49.9895 64.5609 46.2122 69.2761C42.435 64.5609 37.7548 63.0454 34.3842 62.6221C31.5821 62.2706 29.2592 62.5956 28.1226 62.8213L25.4102 58.6548C27.2435 57.2044 31.4658 53.1471 32.4331 45.9468C32.9468 42.1212 31.7523 38.1321 28.9787 34.4112C27.6783 32.6667 26.3254 31.369 25.4804 30.6315L28.39 27.2526C33.609 28.6709 37.3088 27.136 39.5234 25.5562C41.2904 24.2958 42.3901 22.8275 42.8968 22.0479H49.5273C50.0339 22.8275 51.1336 24.2958 52.9007 25.5562C54.4991 26.6964 56.8711 27.8136 60.0303 27.8132C61.2478 27.8132 62.5824 27.6473 64.0341 27.2526L66.9425 30.6299C65.1596 32.1812 61.1376 36.1996 60.112 41.6427C59.8684 42.9349 61.8806 43.3165 62.1246 42.0224C63.2747 35.9195 68.9571 31.6214 69.0134 31.5793C69.4847 31.2294 69.5621 30.5331 69.1792 30.0888L65.1564 25.4169C64.8898 25.1075 64.4653 24.9861 64.0757 25.1075C60.2858 26.2889 56.9489 25.895 54.1579 23.9367C52.0378 22.4494 51.021 20.5649 51.0122 20.5491C50.8357 20.2115 50.4862 20 50.1053 20H42.3187C41.9403 20 41.5907 20.2119 41.413 20.5463C41.4031 20.5649 40.3863 22.4494 38.2662 23.9367C35.4752 25.8946 32.1383 26.2885 28.3483 25.1075C27.9588 24.9861 27.5343 25.1075 27.2677 25.4169L23.2448 30.0888C22.8624 30.5331 22.9401 31.2286 23.4095 31.5785C23.4301 31.594 25.4879 33.1416 27.3696 35.6803C29.8277 38.9966 30.8481 42.3588 30.403 45.6747C29.9483 49.058 28.6503 52.0771 26.5448 54.6487C24.9623 56.5815 23.4908 57.5226 23.4781 57.5305C22.9985 57.83 22.854 58.4839 23.1627 58.9576L26.7963 64.5379C27.0407 64.9128 27.5017 65.085 27.9326 64.9644C27.9599 64.9569 30.695 64.2075 34.2068 64.6641C38.8442 65.2675 42.6008 67.5916 45.3716 71.5719C45.7683 72.1412 46.6538 72.144 47.0525 71.5719C49.8237 67.5916 53.5799 65.2675 58.2176 64.6641C61.7295 64.2075 64.4645 64.9569 64.4899 64.964C64.9216 65.0866 65.3829 64.914 65.6277 64.5379L69.2614 58.9576C69.5692 58.4846 69.4244 57.8324 68.9483 57.5317C69.1523 57.6606 68.992 57.5591 68.9483 57.5317C68.9797 57.5515 69.0106 57.5714 69.042 57.5908C68.7309 57.3944 69.2614 57.7297 68.9483 57.5317C69.1796 57.6781 68.9075 57.5059 68.9483 57.5317Z" fill="#F05A0D"/>
<path d="M61.0527 44.7444C60.4956 44.7444 60.0283 45.2113 60.0287 45.7683C60.0287 46.3257 60.496 46.7915 61.0527 46.7915C61.5934 46.7915 62.0508 46.3527 62.0746 45.8132C62.1 45.2391 61.6283 44.7444 61.0527 44.7444Z" fill="#F05A0D"/>
<path d="M39.06 47.7718C39.212 46.7915 39.2893 45.7921 39.2893 44.8015C39.2893 44.0001 39.2385 43.1876 39.1394 42.3858C38.9771 41.081 36.9447 41.3309 37.1065 42.6378C37.1958 43.3562 37.241 44.0842 37.241 44.8015C37.241 45.687 37.172 46.5808 37.0363 47.458C36.8344 48.7569 38.8565 49.0842 39.06 47.7718C38.9815 48.2776 39.212 46.7915 39.06 47.7718Z" fill="#F05A0D"/>
<path d="M34.3421 56.5081C35.6438 57.3476 36.5618 54.899 36.9772 54.0873C37.3894 53.2815 38.7895 51.1745 37.3561 50.6076C36.0623 50.0958 35.6482 52.1679 35.2621 52.9431C34.8353 53.8012 33.0881 55.6996 34.3421 56.5081C34.5139 56.6188 33.8668 56.2015 34.3421 56.5081Z" fill="#F05A0D"/>
<path d="M36.2246 38.8641C36.6542 40.1058 38.5911 39.4393 38.1602 38.1948C37.1323 35.2237 35.7688 33.4186 35.7108 33.3432C34.9146 32.2998 33.2884 33.5368 34.0819 34.5845C34.0942 34.6004 35.3113 36.225 36.2246 38.8641C36.3714 39.2882 35.3113 36.225 36.2246 38.8641Z" fill="#F05A0D"/>
<path d="M56.1955 56.2023C56.912 57.314 58.6282 56.1964 57.9169 55.0927C57.0973 53.8212 56.4256 52.5104 55.9202 51.196C55.4485 49.9685 53.5362 50.7017 54.0087 51.9308C54.5642 53.376 55.2997 54.8134 56.1955 56.2023C56.3911 56.5058 55.2997 54.8134 56.1955 56.2023C56.912 57.314 55.2997 54.8134 56.1955 56.2023Z" fill="#F05A0D"/>
<path d="M54.4257 39.4972C54.9466 39.6774 55.5484 39.3846 55.7285 38.8641C56.6418 36.225 57.859 34.6004 57.8713 34.5845C58.6663 33.5388 57.0405 32.2978 56.2419 33.3432C56.1844 33.4186 54.8208 35.2237 53.7929 38.1948C53.608 38.7292 53.8913 39.3124 54.4257 39.4972C53.8913 39.3124 54.5368 39.5357 54.4257 39.4972C53.8913 39.3124 54.9466 39.6774 54.4257 39.4972Z" fill="#F05A0D"/>
<path d="M52.8142 42.3858C52.7146 43.1876 52.6642 44.0005 52.6642 44.8015C52.6642 45.7921 52.7412 46.7915 52.8931 47.7718C53.0966 49.0838 55.1184 48.7553 54.9172 47.458C54.7812 46.5812 54.7121 45.6874 54.7121 44.8015C54.7121 44.0846 54.7574 43.3566 54.8466 42.6381C54.9164 42.0767 54.5177 41.5654 53.9568 41.4955C53.395 41.4261 52.8836 41.8244 52.8142 42.3858C52.8836 41.8244 52.7146 43.1876 52.8142 42.3858Z" fill="#F05A0D"/>
</g>
<defs>
<clipPath id="clip0">
<rect width="46.5157" height="52" fill="white" transform="translate(23 20)"/>
</clipPath>
</defs>
</svg>
