<svg width="92" height="92" viewBox="0 0 92 92" fill="none" xmlns="http://www.w3.org/2000/svg">
<rect width="92" height="92" rx="20" fill="#D5F4BD"/>
<g clip-path="url(#clip0)">
<path d="M52.4424 26.4792C46.7226 23.5889 39.8325 24.694 35.2977 29.229C30.0271 34.4995 29.4996 42.9034 34.0707 48.7771C34.2323 48.9847 34.4738 49.0934 34.7179 49.0934C34.8938 49.0934 35.0711 49.037 35.2207 48.9205C35.5779 48.6426 35.642 48.1278 35.3642 47.7706C31.2997 42.548 31.7695 35.075 36.4567 30.3878C40.4897 26.3546 46.6168 25.3717 51.7034 27.9419C52.1072 28.1463 52.6002 27.984 52.8044 27.58C53.0084 27.1761 52.8465 26.6832 52.4424 26.4792Z" fill="#329C5A"/>
<path d="M58.9862 33.0242C58.782 32.6202 58.2893 32.4582 57.8851 32.6621C57.4812 32.8661 57.319 33.3589 57.5231 33.763C60.0915 38.8489 59.108 44.9751 55.0759 49.0071C50.3886 53.6942 42.9157 54.1639 37.6932 50.0996C37.3359 49.8218 36.8212 49.886 36.5432 50.243C36.2652 50.6002 36.3295 51.1151 36.6867 51.393C39.3623 53.4753 42.5626 54.4994 45.7528 54.4994C49.5661 54.4994 53.3651 53.0358 56.2349 50.166C60.7688 45.6322 61.8744 38.7434 58.9862 33.0242Z" fill="#329C5A"/>
<path d="M56.8688 29.9031C56.6658 29.6733 56.4525 29.4464 56.2349 29.2289C56.0172 29.0112 55.7905 28.798 55.5607 28.5949C55.2216 28.2951 54.7036 28.3272 54.4041 28.6663C54.1042 29.0053 54.1361 29.5232 54.4752 29.8229C54.6799 30.0037 54.882 30.1938 55.076 30.3877C55.2697 30.5817 55.4599 30.7837 55.6408 30.9884C55.8026 31.1716 56.0283 31.2651 56.2551 31.2651C56.448 31.2651 56.6415 31.1974 56.7974 31.0597C57.1367 30.76 57.1686 30.2422 56.8688 29.9031Z" fill="#329C5A"/>
<path d="M65.1082 41.1665C65.6546 40.27 65.6546 39.1565 65.108 38.2602L64.0299 36.4923C63.888 36.2593 63.833 35.9827 63.8755 35.7133L64.1968 33.6716C64.3606 32.6311 63.9331 31.5999 63.0814 30.9803L61.4106 29.765C61.1897 29.6042 61.0327 29.3697 60.9684 29.1043L60.4819 27.0934C60.2349 26.072 59.4468 25.2841 58.4255 25.0369L56.4146 24.5502C56.1491 24.4859 55.9144 24.3289 55.7538 24.108L54.5383 22.4368C53.9188 21.5851 52.8875 21.1574 51.8473 21.3213L49.8049 21.6427C49.5356 21.685 49.2588 21.6302 49.026 21.4882L47.2578 20.4098C46.3614 19.8632 45.2479 19.8633 44.3515 20.4098L42.5835 21.4879C42.3507 21.63 42.0742 21.6846 41.8045 21.6424L39.7627 21.321C38.7225 21.1573 37.6911 21.5848 37.0716 22.4365L35.8563 24.1073C35.6955 24.3282 35.4609 24.4852 35.1953 24.5495L33.1845 25.0361C32.1633 25.2831 31.3752 26.0711 31.128 27.0924L30.6413 29.1033C30.577 29.3688 30.4201 29.6035 30.1991 29.7641L28.5279 30.9796C27.6762 31.599 27.2488 32.6301 27.4124 33.6706L27.7337 35.7131C27.7761 35.9826 27.7213 36.2592 27.5793 36.492L26.501 38.2603C25.9546 39.1567 25.9546 40.2702 26.5011 41.1665L27.5792 42.9345C27.7212 43.1675 27.7761 43.4442 27.7336 43.7135L27.4123 45.7553C27.2485 46.7957 27.676 47.827 28.5277 48.4465L30.1985 49.6618C30.4194 49.8224 30.5764 50.0571 30.6407 50.3226L31.1273 52.3334C31.3743 53.3548 32.1623 54.1428 33.1836 54.39L34.0233 54.5932L28.3405 67.2696C28.2197 67.5391 28.2531 67.8525 28.4281 68.0903C28.603 68.3282 28.8922 68.4536 29.1855 68.4185L33.758 67.8718L36.3921 71.649C36.5463 71.8699 36.7979 71.9997 37.0641 71.9997C37.0896 71.9997 37.1154 71.9985 37.141 71.9961C37.4349 71.9685 37.6913 71.7848 37.8121 71.5155L43.6159 58.5684L44.3513 59.0168C44.7995 59.2901 45.3019 59.4268 45.8045 59.4268C46.307 59.4268 46.8094 59.29 47.2576 59.0168L48.0195 58.5523L53.8306 71.5155C53.9514 71.785 54.2077 71.9685 54.5018 71.9961C54.5274 71.9986 54.5531 71.9998 54.5786 71.9998C54.8448 71.9998 55.0965 71.87 55.2506 71.6491L57.8847 67.8719L62.4572 68.4186C62.7504 68.4534 63.0397 68.3283 63.2146 68.0904C63.3895 67.8526 63.4231 67.5392 63.3022 67.2697L57.6165 54.5863L58.4246 54.3908C59.4458 54.1438 60.2339 53.3558 60.4811 52.3344L60.9678 50.3235C61.0321 50.058 61.1891 49.8233 61.41 49.6627L63.0812 48.4472C63.9329 47.8278 64.3603 46.7967 64.1967 45.7562L63.8754 43.7137C63.833 43.4443 63.8879 43.1676 64.0298 42.9348L65.1082 41.1665ZM36.9086 69.5245L34.8211 66.531C34.648 66.2828 34.3521 66.15 34.0516 66.1861L30.428 66.6194L35.6055 55.0694C35.7002 55.139 35.7851 55.2224 35.8551 55.3187L37.0706 56.99C37.1861 57.1487 37.3159 57.2926 37.4573 57.4208L34.7321 63.5C34.5471 63.9131 34.7317 64.3978 35.1447 64.583C35.2535 64.6318 35.3674 64.6549 35.4793 64.6549C35.7923 64.6549 36.0913 64.4745 36.2275 64.1704L38.9431 58.1128C39.2103 58.1495 39.4854 58.1489 39.7616 58.1054L41.804 57.7841C41.9263 57.7649 42.0499 57.7666 42.1702 57.7865L36.9086 69.5245ZM61.2149 66.6192L57.5912 66.1861C57.2905 66.1501 56.9948 66.2828 56.8217 66.531L54.7342 69.5245L49.4703 57.7819C49.5807 57.7669 49.6934 57.7669 49.8048 57.7844L51.8465 58.1057C52.1338 58.1509 52.4201 58.1495 52.6975 58.1082L55.4151 64.1706C55.5515 64.4748 55.8503 64.6551 56.1633 64.6551C56.2753 64.6551 56.3892 64.632 56.498 64.5832C56.9109 64.3981 57.0957 63.9132 56.9105 63.5002L54.1749 57.3978C54.3069 57.2754 54.4288 57.1398 54.5376 56.9903L55.7529 55.3195C55.8295 55.2141 55.9233 55.1239 56.0287 55.0508L61.2149 66.6192ZM63.7088 40.3132L62.6305 42.0815C62.2867 42.6456 62.1537 43.3157 62.2564 43.9683L62.5777 46.0108C62.6452 46.4403 62.4687 46.8659 62.1172 47.1216L60.4459 48.3372C59.911 48.7264 59.5305 49.2949 59.3749 49.9379L58.8882 51.9488C58.7862 52.3704 58.461 52.6957 58.0393 52.7978L56.0283 53.2844C55.3852 53.4399 54.8167 53.8204 54.4275 54.3554L53.2122 56.0262C52.9565 56.3779 52.5309 56.5543 52.1012 56.4866L50.0594 56.1653C49.4067 56.0626 48.7365 56.1954 48.1723 56.5394L46.4044 57.6175C46.0344 57.843 45.5745 57.843 45.2047 57.6175L43.4364 56.5393C42.9967 56.2711 42.4925 56.1314 41.9824 56.1314C41.8381 56.1314 41.6932 56.1425 41.5495 56.1652L39.507 56.4865C39.0774 56.5542 38.6518 56.3775 38.3961 56.026L37.1805 54.3548C36.7913 53.8199 36.2228 53.4394 35.5799 53.2838L33.5689 52.7972C33.1473 52.6951 32.822 52.3699 32.72 51.9482L32.2334 49.9374C32.0778 49.2943 31.6974 48.7256 31.1623 48.3364L29.4916 47.121C29.14 46.8653 28.9636 46.4395 29.0312 46.01L29.3525 43.9682C29.4552 43.3155 29.3224 42.6454 28.9784 42.0812L27.9003 40.3131C27.6747 39.9431 27.6747 39.4833 27.9003 39.1134L28.9786 37.3451C29.3225 36.7811 29.4554 36.1109 29.3528 35.4583L29.0314 33.4159C28.9639 32.9864 29.1404 32.5607 29.4919 32.305L31.1632 31.0894C31.6981 30.7002 32.0786 30.1318 32.2342 29.4888L32.7209 27.4778C32.8229 27.0562 33.1481 26.7309 33.5698 26.6289L35.5808 26.1423C36.2239 25.9867 36.7924 25.6062 37.1815 25.0712L38.3968 23.4004C38.6525 23.0488 39.0781 22.8722 39.5078 22.9399L41.5496 23.2613C42.2024 23.3641 42.8726 23.2311 43.4367 22.8871L45.2046 21.809C45.5746 21.5836 46.0345 21.5836 46.4043 21.809L48.1726 22.8872C48.7367 23.2313 49.407 23.3642 50.0595 23.2615L52.102 22.9401C52.5314 22.8728 52.9572 23.0491 53.2129 23.4006L54.4285 25.0718C54.8177 25.6067 55.3862 25.9872 56.0292 26.1428L58.0401 26.6295C58.4617 26.7316 58.787 27.0568 58.889 27.4784L59.3756 29.4893C59.5312 30.1324 59.9116 30.701 60.4467 31.0902L62.1175 32.3055C62.4691 32.5612 62.6455 32.987 62.5779 33.4165L62.2566 35.4583C62.1539 36.111 62.2867 36.7812 62.6307 37.3453L63.7088 39.1134C63.9345 39.4834 63.9345 39.9432 63.7088 40.3132Z" fill="#329C5A"/>
<path d="M55.3938 37.1636C55.2133 36.6077 54.7405 36.2195 54.16 36.1506L49.229 35.5659L47.1492 31.0571C46.9043 30.5263 46.3891 30.1965 45.8045 30.1965C45.22 30.1965 44.7047 30.5263 44.4598 31.0571L42.38 35.566L37.4491 36.1507C36.8685 36.2196 36.3956 36.6078 36.2152 37.1637C36.0346 37.7194 36.189 38.3114 36.618 38.7082L40.2636 42.0795L39.2959 46.9499C39.182 47.5233 39.405 48.0929 39.878 48.4363C40.1389 48.6259 40.4417 48.7218 40.7464 48.7218C40.9941 48.7218 41.2429 48.6585 41.4715 48.5305L45.8044 46.1053L50.1373 48.5305C50.6474 48.8161 51.2579 48.78 51.7309 48.4364C52.2039 48.0929 52.4269 47.5232 52.3129 46.9499L51.3453 42.0796L54.9908 38.7083C55.42 38.3115 55.5744 37.7196 55.3938 37.1636ZM49.8959 41.1878C49.6866 41.3813 49.593 41.6696 49.6484 41.9491L50.6387 46.9329L46.2047 44.451C46.0803 44.3815 45.9424 44.3466 45.8044 44.3466C45.6664 44.3466 45.5286 44.3814 45.4041 44.451L40.9701 46.9329L41.9604 41.9491C42.016 41.6695 41.9223 41.3813 41.713 41.1878L37.9824 37.7377L43.0286 37.1394C43.3116 37.1059 43.5568 36.9277 43.6763 36.669L45.8045 32.0549L47.9327 36.669C48.0522 36.9277 48.2974 37.1059 48.5804 37.1394L53.6264 37.7377L49.8959 41.1878Z" fill="#329C5A"/>
</g>
<defs>
<clipPath id="clip0">
<rect width="39.6094" height="52" fill="white" transform="translate(26 19.9999)"/>
</clipPath>
</defs>
</svg>
