<svg width="92" height="92" viewBox="0 0 92 92" fill="none" xmlns="http://www.w3.org/2000/svg">
<rect opacity="0.6" width="92" height="92" rx="20" fill="#FFE673"/>
<g clip-path="url(#clip0)">
<path d="M69.4666 29.0417C69.349 27.7228 68.2618 26.7282 66.9377 26.7282H60.3689V25.7602H60.4967C61.4347 25.7602 62.1978 24.9971 62.1978 24.0592V21.7009C62.1978 20.763 61.4347 19.9999 60.4967 19.9999H41.163C40.7423 19.9999 40.4013 20.3408 40.4013 20.7616C40.4013 21.1823 40.7423 21.5233 41.163 21.5233H60.4967C60.5947 21.5233 60.6745 21.6029 60.6745 21.7009V24.0592C60.6745 24.1572 60.5947 24.2368 60.4967 24.2368H32.019C31.921 24.2368 31.8413 24.1572 31.8413 24.0592V21.7009C31.8413 21.6029 31.921 21.5233 32.019 21.5233H37.5917C38.0123 21.5233 38.3534 21.1823 38.3534 20.7616C38.3534 20.3408 38.0123 19.9999 37.5917 19.9999H32.019C31.0811 19.9999 30.3179 20.763 30.3179 21.7009V24.0592C30.3179 24.9971 31.0811 25.7602 32.019 25.7602H32.1469V26.7282H25.5781C24.254 26.7282 23.1668 27.7228 23.0492 29.0417C23.0337 29.2141 22.6915 33.3194 24.3726 37.8662C25.9107 42.0262 29.4395 47.338 37.5245 49.4226C38.8261 50.4509 40.3123 51.2557 41.9248 51.7772L42.3082 52.41C43.0328 53.6063 43.4158 55.0205 43.4158 56.4997C43.4158 57.4032 43.2718 58.286 42.9878 59.1231L42.4554 60.692H40.6841C38.8664 60.692 37.3875 62.1709 37.3875 63.9887V65.5843H34.6154C33.8331 65.5843 33.1966 66.2209 33.1966 67.0032V70.5811C33.1966 71.3634 33.8331 71.9999 34.6154 71.9999H57.9005C58.6828 71.9999 59.3193 71.3634 59.3193 70.5811V67.0032C59.3193 66.2209 58.6828 65.5843 57.9005 65.5843H55.1283V63.9887C55.1283 62.1709 53.6494 60.692 51.8317 60.692H50.0604L49.5281 59.1231C49.244 58.2861 49.1 57.4033 49.1 56.4997C49.1 55.0206 49.483 53.6064 50.2076 52.41L50.591 51.7772C52.2034 51.2557 53.6895 50.451 54.9912 49.4226C63.0763 47.338 66.6051 42.0262 68.1432 37.8662C69.8243 33.3194 69.482 29.2142 69.4666 29.0417ZM32.4289 41.16C31.0087 39.8304 29.9207 38.181 29.1766 36.2152C28.6596 34.8492 28.3212 33.3661 28.1706 31.8062H32.1469V38.3478C32.1469 39.3106 32.2443 40.251 32.4289 41.16ZM25.8015 37.338C24.238 33.1093 24.5524 29.3356 24.5666 29.177C24.6136 28.6495 25.0485 28.2517 25.5781 28.2517H32.1469V30.2829H28.1075C27.696 30.2829 27.3011 30.4573 27.0241 30.7613C26.7467 31.0658 26.6096 31.4757 26.6479 31.886C26.8083 33.6047 27.1797 35.2427 27.7519 36.7545C28.8819 39.7402 30.7111 42.0714 33.2149 43.7311C33.7076 44.9202 34.3582 46.0278 35.1409 47.0276C29.6224 44.7402 27.0234 40.6425 25.8015 37.338ZM57.7959 67.1077V70.4765H34.7199V67.1077H57.7959ZM51.8317 62.2154C52.8094 62.2154 53.6049 63.0109 53.6049 63.9887V65.5843H38.9109V63.9887C38.9109 63.0109 39.7064 62.2154 40.6841 62.2154H51.8317ZM48.0855 59.6127L48.4518 60.692H44.0639L44.4302 59.6126C44.7678 58.6174 44.939 57.5701 44.939 56.4997C44.939 55.0014 44.6042 53.5549 43.9674 52.2719C44.7132 52.3942 45.478 52.4588 46.2579 52.4588C47.0377 52.4588 47.8026 52.3942 48.5482 52.2719C47.9115 53.5549 47.5766 55.0014 47.5766 56.4997C47.5767 57.5702 47.7479 58.6175 48.0855 59.6127ZM46.2579 50.9353C39.3171 50.9353 33.6703 45.2885 33.6703 38.3478V25.7602H58.8455V38.3478C58.8455 45.2886 53.1987 50.9353 46.2579 50.9353ZM66.7144 37.338C65.4925 40.6426 62.8934 44.7407 57.3746 47.0281C58.1586 46.0264 58.8103 44.9167 59.3034 43.7252C61.4533 42.2976 63.109 40.3749 64.2491 37.9673C64.4292 37.5872 64.2669 37.1329 63.8868 36.953C63.5067 36.773 63.0526 36.9351 62.8724 37.3153C62.1666 38.8059 61.2357 40.0901 60.0862 41.1647C60.2715 40.2542 60.3691 39.3123 60.3691 38.3479V31.8063H64.3454C64.2696 32.59 64.1437 33.3672 63.9709 34.1176C63.8766 34.5275 64.1324 34.9364 64.5424 35.0307C64.952 35.1255 65.3612 34.8693 65.4555 34.4593C65.6479 33.6236 65.7866 32.7578 65.8681 31.886C65.9064 31.4757 65.7692 31.0658 65.4919 30.7613C65.2148 30.4573 64.82 30.2829 64.4085 30.2829H60.3691V28.2517H66.9379C67.4675 28.2517 67.9024 28.6495 67.9494 29.1771C67.9633 29.3356 68.2777 33.1093 66.7144 37.338Z" fill="#FF5C00"/>
<path d="M51.2665 34.7932L49.0824 34.4759C48.9872 34.462 48.9051 34.4022 48.8625 34.3161L47.8857 32.3369C47.5777 31.7128 46.9539 31.325 46.2579 31.325C45.5618 31.325 44.938 31.7128 44.63 32.3369L43.6532 34.3161C43.6106 34.4023 43.5285 34.4621 43.4333 34.4759L41.2492 34.7932C40.5603 34.8933 39.9988 35.3666 39.7837 36.0287C39.5686 36.6908 39.7446 37.4038 40.243 37.8898L41.8235 39.4302C41.8924 39.4973 41.9237 39.5939 41.9075 39.6888L41.5344 41.8642C41.4167 42.5502 41.6934 43.2304 42.2565 43.6396C42.8196 44.0486 43.5522 44.1017 44.1685 43.7778L46.122 42.7508C46.2071 42.706 46.3086 42.706 46.3937 42.7508L48.3473 43.7778C48.6153 43.9187 48.9053 43.9883 49.1937 43.9883C49.5686 43.9883 49.941 43.8708 50.2592 43.6395C50.8223 43.2303 51.099 42.55 50.9813 41.8641L50.6082 39.6887C50.592 39.5938 50.6233 39.4972 50.6922 39.4302L52.2728 37.8896C52.7712 37.4037 52.9472 36.6906 52.7321 36.0286C52.517 35.3666 51.9553 34.8933 51.2665 34.7932ZM51.2093 36.7988L49.6288 38.3395C49.2009 38.7566 49.0057 39.3572 49.1067 39.9462L49.4798 42.1216C49.5065 42.2773 49.4185 42.3674 49.3636 42.4073C49.3089 42.4472 49.1959 42.5033 49.0561 42.4296L47.1025 41.4025C46.8381 41.2635 46.5479 41.1939 46.2577 41.1939C45.9676 41.1939 45.6774 41.2635 45.413 41.4025L43.4595 42.4296C43.3198 42.5032 43.2068 42.4471 43.1519 42.4073C43.097 42.3674 43.0091 42.2774 43.0357 42.1216L43.4088 39.9462C43.5099 39.3572 43.3147 38.7566 42.8867 38.3394L41.3063 36.7989C41.1931 36.6886 41.2113 36.564 41.2323 36.4995C41.2532 36.435 41.3117 36.3235 41.468 36.3008L43.6522 35.9834C44.2436 35.8974 44.7546 35.5262 45.019 34.9904L45.9958 33.0112C46.0657 32.8695 46.1899 32.8484 46.2576 32.8484C46.3254 32.8484 46.4496 32.8695 46.5195 33.0112L47.4963 34.9904C47.7607 35.5262 48.2717 35.8975 48.8631 35.9834L51.0474 36.3008C51.2037 36.3235 51.2622 36.435 51.2831 36.4995C51.3042 36.564 51.3224 36.6886 51.2093 36.7988Z" fill="#FF5C00"/>
</g>
<defs>
<clipPath id="clip0">
<rect width="46.5156" height="52" fill="white" transform="translate(23 19.9999)"/>
</clipPath>
</defs>
</svg>
