<svg width="500" height="500" viewBox="0 0 500 500" fill="none" xmlns="http://www.w3.org/2000/svg">
<mask id="path-1-inside-1" fill="white">
<path fill-rule="evenodd" clip-rule="evenodd" d="M250 500C388.071 500 500 388.071 500 250C500 111.929 388.071 0 250 0C111.929 0 0 111.929 0 250C0 388.071 111.929 500 250 500ZM249 425C345.65 425 424 346.65 424 250C424 153.35 345.65 75 249 75C152.35 75 74 153.35 74 250C74 346.65 152.35 425 249 425Z"/>
</mask>
<path fill-rule="evenodd" clip-rule="evenodd" d="M250 500C388.071 500 500 388.071 500 250C500 111.929 388.071 0 250 0C111.929 0 0 111.929 0 250C0 388.071 111.929 500 250 500ZM249 425C345.65 425 424 346.65 424 250C424 153.35 345.65 75 249 75C152.35 75 74 153.35 74 250C74 346.65 152.35 425 249 425Z" fill="white"/>
<path d="M499 250C499 387.519 387.519 499 250 499V501C388.623 501 501 388.623 501 250H499ZM250 1C387.519 1 499 112.481 499 250H501C501 111.377 388.623 -1 250 -1V1ZM1 250C1 112.481 112.481 1 250 1V-1C111.377 -1 -1 111.377 -1 250H1ZM250 499C112.481 499 1 387.519 1 250H-1C-1 388.623 111.377 501 250 501V499ZM423 250C423 346.098 345.098 424 249 424V426C346.202 426 425 347.202 425 250H423ZM249 76C345.098 76 423 153.902 423 250H425C425 152.798 346.202 74 249 74V76ZM75 250C75 153.902 152.902 76 249 76V74C151.798 74 73 152.798 73 250H75ZM249 424C152.902 424 75 346.098 75 250H73C73 347.202 151.798 426 249 426V424Z" fill="#73919B" fill-opacity="0.25" mask="url(#path-1-inside-1)"/>
</svg>
