<svg width="97" height="61" viewBox="0 0 97 61" fill="none" xmlns="http://www.w3.org/2000/svg">
<path d="M3.50226 27.9578C21.7859 40.3781 63.8364 57.5308 85.7693 26.7791" stroke="black" stroke-width="3" stroke-linecap="round"/>
<path d="M3.50226 27.9578C21.7859 40.3781 63.8364 57.5308 85.7693 26.7791" stroke="url(#paint0_linear)" stroke-width="3" stroke-linecap="round"/>
<path d="M89.2994 19.4879C84.4517 21.7289 79.4515 23.646 74.3323 25.2263C71.7684 26.0394 73.5516 29.7304 76.0674 28.9783C78.9446 28.1135 81.5747 26.7154 84.3008 25.5248L87.4402 27.7181C87.3914 28.1753 87.3242 28.6317 87.2809 29.091C87.0509 31.5047 86.486 34.2242 86.9484 36.6569C87.0028 36.9281 87.1449 37.176 87.3533 37.3635C87.5618 37.5511 87.8254 37.6683 88.1047 37.6975C88.3841 37.7268 88.6641 37.6665 88.9029 37.5257C89.1418 37.3849 89.3265 37.1711 89.4296 36.9165C90.424 34.6774 90.5164 31.8698 90.8602 29.4689C91.2629 26.7488 91.5293 24.0257 91.889 21.3197C91.9111 21.008 91.8508 20.6947 91.714 20.4101C91.5772 20.1254 91.3686 19.8791 91.1082 19.695C90.8479 19.5108 90.5446 19.395 90.2277 19.3587C89.9109 19.3224 89.5911 19.3669 89.2994 19.4879Z" fill="#418A04"/>
<defs>
<linearGradient id="paint0_linear" x1="3.50226" y1="44.0762" x2="86.604" y2="33.0973" gradientUnits="userSpaceOnUse">
<stop stop-color="#D8EA58"/>
<stop offset="1" stop-color="#418A04"/>
</linearGradient>
</defs>
</svg>
