<svg width="533" height="462" viewBox="0 0 533 462" fill="none" xmlns="http://www.w3.org/2000/svg">
<g clip-path="url(#clip0)">
<path d="M490.235 108.453C492.954 109.63 492.885 120.772 496.899 127.664C499.846 132.643 504.908 133.746 506.257 139.295C506.784 141.365 505.63 144.369 505.974 147.629C506.624 154.16 514.335 156.791 512.605 163.246C510.765 170.231 503.837 169.795 496.805 173.224C491.289 176.006 490.127 178.637 484.224 179.13C479.201 179.451 473.724 172.519 467.069 172.703C461.618 172.848 456.488 172.634 453.949 177.52C451.656 182.043 450.751 189.744 457.114 190.532C459.244 190.85 469.024 190.244 479.709 194.364C492.599 199.435 506.601 207.828 504.116 223.04C502.719 231.527 489.858 238.537 480.497 233.902C474.023 230.735 479.413 223.534 476.748 218.63C473.207 212.301 439.499 227.412 413.79 220.523C402.964 217.622 395.643 212.728 389.887 202.216C389.31 201.37 388.768 199.762 387.637 199.36C386.52 199.159 384.332 199.725 383.582 200.011C358.423 211.097 333.82 240.274 257.597 220.258C246.869 217.451 233.315 219.3 220.919 225.703C209.84 231.528 201.231 242.913 192.708 254.51C179.877 271.9 161.17 287.153 134.83 302.636C133.404 303.464 112.809 312.135 111.182 312.755C110.93 312.851 108.875 315.496 108.867 317.278C105.986 330.035 97.9951 367.202 70.1855 361.535C63.4086 360.078 66.4151 355.845 67.2796 352.618C69.0104 346.228 71.8752 340.194 70.2657 332.745C68.0692 322.518 83.5562 322.231 88.3505 302.667C91.9369 288.083 103.467 293.825 112.608 284.431C117.888 278.985 121.965 276.441 123.836 268.551C134.249 224.12 152.782 198.051 160.055 192.377C165.686 188.138 169.724 186.938 166.561 183.429C147.76 162.223 146.338 146.822 146.338 146.822C141.832 115.04 137.894 86.0598 125.908 70.5481C123.518 67.3635 117.289 59.4767 113.131 55.9265C100.844 45.5365 94.5333 39.5386 91.508 34.4797C86.7412 26.4658 85.1433 11.9747 93.471 5.68498C103.796 -2.06398 115.028 9.28759 119.96 14.3448C155.275 50.4916 149.695 96.0726 157.477 125.197C163.68 148.455 178.579 168.316 195.123 174.046C207.503 178.367 221.828 179.467 236.992 177.145C273.871 171.528 296.928 157.7 302.091 155.542C312.787 151.079 399.715 101.985 456.235 114.175C456.235 114.175 466.872 102.172 468.669 102.418C472.886 102.983 474.707 112.897 477.426 114.728C479.991 116.409 487.521 107.226 490.236 108.45L490.235 108.453Z" fill="#D5F4BD"/>
</g>
<defs>
<clipPath id="clip0">
<rect width="456.084" height="355.137" fill="white" transform="matrix(-0.965926 -0.258819 -0.258819 0.965926 532.46 118.043)"/>
</clipPath>
</defs>
</svg>
