<svg width="457" height="355" viewBox="0 0 457 355" fill="none" xmlns="http://www.w3.org/2000/svg">
<path opacity="0.5" d="M413.732 1.63675C416.663 2.06917 419.48 12.8497 425.141 18.4681C429.277 22.5149 434.452 22.2704 437.191 27.2804C438.235 29.1443 437.898 32.3441 439.074 35.4038C441.393 41.5441 449.522 42.0899 449.522 48.7729C449.551 55.9957 442.748 57.3675 436.842 62.4998C432.234 66.6152 431.793 69.4572 426.218 71.4613C421.45 73.0716 414.365 67.7932 407.985 69.6928C402.757 71.2436 397.746 72.3649 396.559 77.7417C395.514 82.704 396.633 90.3772 402.983 89.4915C405.123 89.2469 414.413 86.1306 425.8 87.3443C439.563 88.9069 455.26 93.3891 456.797 108.726C457.645 117.285 447.036 127.386 436.794 125.331C429.722 123.947 433.064 115.597 429.22 111.551C424.162 106.353 395.514 129.673 368.898 129.673C357.69 129.673 349.352 126.84 341.071 118.177C340.295 117.509 339.355 116.095 338.158 116C337.027 116.095 335.061 117.208 334.41 117.679C312.978 134.898 296.765 169.449 217.959 169.843C206.87 169.909 194.256 175.202 183.939 184.596C174.745 193.089 169.376 206.315 164.145 219.723C156.252 239.84 142.131 259.415 120.696 281.188C119.532 282.357 101.883 296.063 100.472 297.083C100.254 297.241 98.953 300.328 99.4066 302.052C99.9259 315.119 101.827 353.088 73.498 354.812C66.5747 355.158 68.3832 350.291 68.3832 346.951C68.4011 340.331 69.6067 333.761 66.1241 326.982C61.3554 317.672 76.2404 313.387 75.8077 293.248C75.4974 278.233 88.1204 280.795 94.5185 269.355C98.21 262.729 101.489 259.216 101.254 251.11C99.8124 205.498 110.967 175.521 116.524 168.158C120.866 162.605 124.456 160.401 120.493 157.831C96.8432 142.213 91.4836 127.705 91.4836 127.705C78.9053 98.1726 67.6012 71.1989 52.0089 59.3179C48.8755 56.8606 40.8183 50.8545 35.8825 48.5016C21.3257 41.6456 13.6773 37.4854 9.44571 33.382C2.76712 26.8749 -2.52682 13.2911 3.88916 5.06032C11.8569 -5.09695 25.6438 2.96087 31.7166 6.56929C75.184 32.3442 81.591 77.8163 96.6462 103.934C108.657 124.794 128.189 140.123 145.652 141.375C158.729 142.344 172.85 139.699 186.897 133.532C221.065 118.562 239.758 99.2372 244.187 95.8166C253.363 88.737 324.622 18.817 382.372 15.9631C382.372 15.9631 389.54 1.61588 391.339 1.38923C395.559 0.843496 399.883 9.94806 402.983 11.0127C405.896 11.9729 410.793 1.15364 413.732 1.63377L413.732 1.63675Z" fill="white"/>
</svg>
