<svg width="70" height="70" viewBox="0 0 70 70" fill="none" xmlns="http://www.w3.org/2000/svg">
<circle cx="35" cy="35" r="35" fill="url(#paint0_radial)"/>
<g clip-path="url(#clip0)">
<path d="M31.8516 26.6859C32.6516 26.3505 32.9871 25.3956 32.6258 24.6214L31.3613 21.9634C31 21.2152 30.1226 20.8795 29.3484 21.2152C27.1548 22.1443 25.271 23.3572 23.7742 24.8281C21.9419 26.5569 20.7032 28.544 20.0323 30.7376C19.3613 32.9572 19 35.9763 19 39.8214V47.744C19 48.5956 19.6968 49.2924 20.5484 49.2924H30.6903C31.5419 49.2924 32.2387 48.5956 32.2387 47.744V37.6021C32.2387 36.7502 31.5419 36.0537 30.6903 36.0537H25.8387C25.8903 33.447 26.5097 31.3569 27.6452 29.7825C28.5742 28.5185 29.9677 27.4862 31.8516 26.6859Z" fill="white"/>
<path d="M50.071 26.6859C50.871 26.3504 51.2062 25.3956 50.8451 24.6214L49.5806 21.9894C49.2193 21.241 48.3419 20.9055 47.5677 21.241C45.4 22.17 43.5417 23.3829 42.0193 24.8281C40.1868 26.5829 38.9226 28.57 38.2513 30.7636C37.5804 32.9311 37.2451 35.9507 37.2451 39.8216V47.7442C37.2451 48.5958 37.9419 49.2926 38.7935 49.2926H48.9355C49.7871 49.2926 50.4839 48.5958 50.4839 47.7442V37.6023C50.4839 36.7504 49.7871 36.0539 48.9355 36.0539H44.058C44.1097 33.4472 44.7293 31.3571 45.8645 29.7827C46.7935 28.5184 48.1871 27.4862 50.071 26.6859Z" fill="white"/>
</g>
<defs>
<radialGradient id="paint0_radial" cx="0" cy="0" r="1" gradientUnits="userSpaceOnUse" gradientTransform="translate(45.0901 21.3784) rotate(129.873) scale(52.8639 40.327)">
<stop stop-color="#FF763F"/>
<stop offset="0.286458" stop-color="#FF6122"/>
<stop offset="0.65625" stop-color="#FF4C04"/>
<stop offset="1" stop-color="#FF4004"/>
</radialGradient>
<clipPath id="clip0">
<rect width="32" height="28.3871" fill="white" transform="translate(19 21)"/>
</clipPath>
</defs>
</svg>
