<svg width="524" height="106" viewBox="0 0 524 106" fill="none" xmlns="http://www.w3.org/2000/svg">
<path opacity="0.8" d="M83.6484 69.8984C82.8516 80.9141 78.7734 89.5859 71.4141 95.9141C64.1016 102.242 54.4453 105.406 42.4453 105.406C29.3203 105.406 18.9844 101 11.4375 92.1875C3.9375 83.3281 0.1875 71.1875 0.1875 55.7656V49.5078C0.1875 39.6641 1.92188 30.9922 5.39062 23.4922C8.85938 15.9922 13.8047 10.25 20.2266 6.26562C26.6953 2.23438 34.1953 0.21875 42.7266 0.21875C54.5391 0.21875 64.0547 3.38281 71.2734 9.71094C78.4922 16.0391 82.6641 24.9219 83.7891 36.3594H62.6953C62.1797 29.75 60.3281 24.9688 57.1406 22.0156C54 19.0156 49.1953 17.5156 42.7266 17.5156C35.6953 17.5156 30.4219 20.0469 26.9062 25.1094C23.4375 30.125 21.6562 37.9297 21.5625 48.5234V56.2578C21.5625 67.3203 23.2266 75.4062 26.5547 80.5156C29.9297 85.625 35.2266 88.1797 42.4453 88.1797C48.9609 88.1797 53.8125 86.7031 57 83.75C60.2344 80.75 62.0859 76.1328 62.5547 69.8984H83.6484ZM181.594 55.1328C181.594 65.2109 179.812 74.0469 176.25 81.6406C172.688 89.2344 167.578 95.0938 160.922 99.2188C154.312 103.344 146.719 105.406 138.141 105.406C129.656 105.406 122.086 103.367 115.43 99.2891C108.773 95.2109 103.617 89.3984 99.9609 81.8516C96.3047 74.2578 94.4531 65.5391 94.4062 55.6953V50.6328C94.4062 40.5547 96.2109 31.6953 99.8203 24.0547C103.477 16.3672 108.609 10.4844 115.219 6.40625C121.875 2.28125 129.469 0.21875 138 0.21875C146.531 0.21875 154.102 2.28125 160.711 6.40625C167.367 10.4844 172.5 16.3672 176.109 24.0547C179.766 31.6953 181.594 40.5312 181.594 50.5625V55.1328ZM160.219 50.4922C160.219 39.7578 158.297 31.6016 154.453 26.0234C150.609 20.4453 145.125 17.6562 138 17.6562C130.922 17.6562 125.461 20.4219 121.617 25.9531C117.773 31.4375 115.828 39.5 115.781 50.1406V55.1328C115.781 65.5859 117.703 73.6953 121.547 79.4609C125.391 85.2266 130.922 88.1094 138.141 88.1094C145.219 88.1094 150.656 85.3438 154.453 79.8125C158.25 74.2344 160.172 66.125 160.219 55.4844V50.4922ZM218.016 87.0547H262.805V104H196.922V1.625H218.016V87.0547ZM297.398 104H276.305V1.625H297.398V104ZM317.016 104V1.625H352.875C365.297 1.625 374.719 4.01562 381.141 8.79688C387.562 13.5312 390.773 20.4922 390.773 29.6797C390.773 34.6953 389.484 39.125 386.906 42.9688C384.328 46.7656 380.742 49.5547 376.148 51.3359C381.398 52.6484 385.523 55.2969 388.523 59.2812C391.57 63.2656 393.094 68.1406 393.094 73.9062C393.094 83.75 389.953 91.2031 383.672 96.2656C377.391 101.328 368.438 103.906 356.812 104H317.016ZM338.109 59.4219V87.0547H356.18C361.148 87.0547 365.016 85.8828 367.781 83.5391C370.594 81.1484 372 77.8672 372 73.6953C372 64.3203 367.148 59.5625 357.445 59.4219H338.109ZM338.109 44.5156H353.719C364.359 44.3281 369.68 40.0859 369.68 31.7891C369.68 27.1484 368.32 23.8203 365.602 21.8047C362.93 19.7422 358.688 18.7109 352.875 18.7109H338.109V44.5156ZM446.883 66.5234H430.078V104H408.984V1.625H447.023C459.117 1.625 468.445 4.32031 475.008 9.71094C481.57 15.1016 484.852 22.7188 484.852 32.5625C484.852 39.5469 483.328 45.3828 480.281 50.0703C477.281 54.7109 472.711 58.4141 466.57 61.1797L488.719 103.016V104H466.078L446.883 66.5234ZM430.078 49.4375H447.094C452.391 49.4375 456.492 48.1016 459.398 45.4297C462.305 42.7109 463.758 38.9844 463.758 34.25C463.758 29.4219 462.375 25.625 459.609 22.8594C456.891 20.0938 452.695 18.7109 447.023 18.7109H430.078V49.4375ZM523.383 104H502.289V1.625H523.383V104Z" fill="white"/>
</svg>
