<svg width="58" height="64" viewBox="0 0 58 64" fill="none" xmlns="http://www.w3.org/2000/svg">
<g clip-path="url(#clip0)">
<path d="M50.2357 11.5577C41.4565 10.4471 35.6275 6.0553 32.2508 2.50755C30.2567 0.412035 26.9039 0.412035 24.9097 2.50755C21.533 6.0553 15.7041 10.4471 6.92535 11.5577C3.25041 12.0226 0.655868 15.4013 1.10372 19.0782C2.22896 28.3053 4.95898 43.6371 10.1895 49.352C14.8493 54.4441 20.7109 58.9417 24.5471 61.6585C26.9638 63.3695 30.1972 63.3695 32.6139 61.6585C36.4501 58.9417 42.3117 54.4441 46.9716 49.352C52.2021 43.6366 54.9321 28.3053 56.0573 19.0782C56.5052 15.4013 53.9102 12.0226 50.2357 11.5577Z" fill="#CCF8FF"/>
<path d="M35.4063 5.38571C34.1817 4.41788 33.1325 3.43347 32.2509 2.50755C30.2567 0.412035 26.9039 0.412035 24.9098 2.50755C21.5331 6.0553 15.7041 10.4476 6.92538 11.5577C3.25044 12.0226 0.655414 15.4013 1.10376 19.0782C2.22851 28.3053 4.95901 43.6371 10.1895 49.352C13.1481 52.5849 16.5906 55.5781 19.6919 58.0279C16.7363 48.8447 16.1437 39.5655 16.2689 32.7224C16.3708 27.1639 19.3065 22.0523 24.0238 19.1108C30.4902 15.0782 33.9848 8.60549 35.4063 5.38571Z" fill="#ABEBF4"/>
<path d="M30.1553 55.1956C29.224 55.9037 27.9365 55.9037 27.0052 55.1956C24.1597 53.0328 18.167 48.3457 15.032 44.9203C14.3147 44.1357 12.4321 41.4904 10.4619 33.8857C9.41508 29.8438 8.54032 24.0105 8.08564 20.6742C7.89412 19.2668 8.82882 17.9457 10.2231 17.6762C17.6948 16.2327 23.2382 12.8229 27.0812 9.49732C27.9399 8.75464 29.2211 8.75464 30.0793 9.49732C33.9228 12.8229 39.4662 16.2327 46.9374 17.6762C48.3322 17.9457 49.2669 19.2668 49.0748 20.6742C48.6207 24.0105 47.7459 29.8443 46.6986 33.8857C44.7284 41.4904 42.8463 44.1357 42.1285 44.9203C38.9935 48.3457 33.0008 53.0328 30.1553 55.1956Z" fill="#B2E59C"/>
<path d="M28.5798 40.2658C28.0311 40.2658 27.4809 40.083 27.0267 39.7136L19.6929 33.7463C18.6383 32.8881 18.4795 31.3374 19.3371 30.2828C20.1958 29.2282 21.746 29.0689 22.8006 29.9271L28.4185 34.4987L36.6402 26.3535C37.6061 25.3969 39.1651 25.4042 40.1217 26.3701C41.0788 27.3359 41.0715 28.8944 40.1056 29.8515L30.3128 39.5528C29.8357 40.0255 29.209 40.2658 28.5798 40.2658Z" fill="#FFEB99"/>
<path d="M32.1597 11.1698C31.418 10.6167 30.724 10.0553 30.0793 9.49732C29.2211 8.75464 27.9399 8.75464 27.0812 9.49732C23.2382 12.8229 17.6948 16.2327 10.2231 17.6762C8.82882 17.9457 7.89412 19.2668 8.08564 20.6742C8.54032 24.0105 9.41459 29.8443 10.4619 33.8857C12.4321 41.4904 14.3142 44.1357 15.032 44.9203C15.647 45.5923 16.3741 46.3145 17.1641 47.0552C16.3761 41.7687 16.1943 36.8101 16.2689 32.7224C16.3707 27.164 19.3064 22.0519 24.0237 19.1109C27.589 16.8877 30.2503 13.9232 32.1597 11.1698Z" fill="#9AD880"/>
<path d="M50.3527 10.6294C48.3756 10.3794 46.4433 9.94077 44.6105 9.32625C44.1202 9.16202 43.59 9.42615 43.4258 9.91592C43.2616 10.4062 43.5257 10.9364 44.0154 11.1006C45.9653 11.7546 48.0184 12.2205 50.1183 12.4861C53.2674 12.8847 55.5149 15.7912 55.128 18.9646C54.6207 23.1264 53.6918 29.3384 52.148 35.2975C50.4662 41.7882 48.4925 46.3043 46.2815 48.7204C41.7411 53.6819 36.0486 58.0796 32.073 60.8949C29.9838 62.3744 27.1768 62.3744 25.0881 60.8949C21.1125 58.0796 15.42 53.6819 10.8795 48.7204C8.66854 46.3043 6.69437 41.7882 5.01308 35.2975C3.46923 29.3384 2.54038 23.1264 2.03258 18.9646C1.64613 15.7912 3.8932 12.8847 7.04281 12.4861C16.1213 11.3379 22.1383 6.77655 25.5876 3.15229C26.3737 2.32675 27.4365 1.87159 28.5803 1.87159C29.7241 1.87159 30.7869 2.32675 31.5735 3.15229C34.0583 5.76339 36.9307 7.89253 40.1105 9.48073C40.5725 9.71173 41.1348 9.52411 41.3658 9.06163C41.5964 8.59916 41.4087 8.03727 40.9467 7.80676C37.9614 6.31553 35.264 4.31554 32.9287 1.86233C31.7859 0.661549 30.2416 0.000244141 28.5803 0.000244141C26.919 0.000244141 25.3746 0.661549 24.2319 1.86233C20.9921 5.26632 15.3396 9.55042 6.80791 10.6294C2.63931 11.1567 -0.336321 14.9978 0.174886 19.1912C1.04623 26.3384 3.69925 43.6464 9.49894 49.9841C14.151 55.0674 19.956 59.5537 24.0062 62.4222C25.3742 63.391 26.977 63.8754 28.5803 63.8754C30.1831 63.8749 31.7864 63.391 33.1544 62.4222C37.2045 59.5537 43.0096 55.0674 47.6616 49.9841C53.4618 43.6464 56.1144 26.3384 56.9857 19.1912C57.4969 14.9978 54.5213 11.1567 50.3527 10.6294Z" fill="black"/>
<path d="M26.4692 8.78967C21.7357 12.8857 16.2099 15.5665 10.0457 16.7575C8.16754 17.1206 6.89951 18.8964 7.15877 20.8009C7.59493 24.0031 8.48674 29.9919 9.55643 34.1205C11.5062 41.6478 13.3917 44.5138 14.342 45.5518C17.4658 48.965 23.2621 53.5259 26.439 55.9407C27.0696 56.4197 27.8249 56.659 28.5803 56.659C29.3356 56.659 30.091 56.4197 30.7216 55.9407C33.8985 53.5259 39.6948 48.965 42.8186 45.5518C43.7688 44.5138 45.6543 41.6478 47.6041 34.1205C48.6743 29.9909 49.5656 24.0026 50.0023 20.8009C50.2615 18.8964 48.993 17.1206 47.1148 16.7575C40.9506 15.5665 35.4248 12.8857 30.6914 8.78967C29.4877 7.74825 27.6729 7.74825 26.4692 8.78967ZM48.148 20.5479C47.7172 23.7092 46.8385 29.6147 45.7927 33.6512C43.8215 41.2604 41.9613 43.7165 41.4384 44.2886C38.3005 47.717 32.1066 52.5372 29.589 54.4504C28.995 54.9022 28.1656 54.9022 27.5715 54.4504C25.054 52.5372 18.86 47.7165 15.7226 44.2886C15.1992 43.7165 13.3391 41.2604 11.3678 33.6512C10.3225 29.6157 9.44386 23.7097 9.01306 20.5479C8.88733 19.6274 9.49698 18.7697 10.4005 18.5947C16.8912 17.3408 22.7094 14.5182 27.6938 10.2049C27.9463 9.98606 28.2635 9.87641 28.5803 9.87641C28.897 9.87641 29.2143 9.98606 29.4667 10.2049C34.4511 14.5182 40.2693 17.3408 46.7601 18.5947C47.6636 18.7697 48.2732 19.6274 48.148 20.5479Z" fill="black"/>
<path d="M23.3912 29.2015C22.6875 28.6284 20.3123 27.4451 18.6115 29.6922C16.9112 31.9388 18.3985 33.8988 19.1022 34.4719L21.8157 36.6795C22.2163 37.0055 22.8059 36.9456 23.1319 36.5445C23.458 36.1435 23.3975 35.5543 22.997 35.2278L20.2835 33.0202C19.9677 32.7629 19.2777 31.9251 20.0632 30.873C20.8488 29.8213 21.8941 30.3954 22.2099 30.6527L27.8283 35.2244C28.1992 35.526 28.7377 35.4997 29.0774 35.163L37.2991 27.0182C37.897 26.4256 38.8649 26.4305 39.4575 27.0285C40.0496 27.6259 40.0447 28.5942 39.4472 29.1864L29.6544 38.8881C28.879 39.6357 28.0252 39.3243 27.6173 38.9875L26.0627 37.7229C25.6617 37.3969 25.0725 37.4573 24.746 37.8579C24.42 38.2585 24.4804 38.8481 24.8815 39.1742L26.436 40.4393C27.0398 40.9305 27.801 41.2014 28.5798 41.2014C29.4818 41.2014 30.3313 40.852 30.9716 40.2175L40.764 30.5163C42.0949 29.1976 42.1051 27.0421 40.7864 25.7112C39.4682 24.3808 37.3127 24.3706 35.9818 25.6888L28.3571 33.2424L23.3912 29.2015Z" fill="black"/>
</g>
<defs>
<clipPath id="clip0">
<rect width="57.125" height="64" fill="white"/>
</clipPath>
</defs>
</svg>
