<svg width="57" height="64" viewBox="0 0 57 64" fill="none" xmlns="http://www.w3.org/2000/svg">
<g clip-path="url(#clip0)">
<path d="M4.56787 58.3989C4.90576 58.8711 5.52637 59.0532 6.06445 58.833C8.29541 57.9204 10.7378 57.418 13.2974 57.418C18.8018 57.418 23.7622 59.7397 27.2495 63.4565C27.9292 64.1812 29.0923 64.1812 29.772 63.4565C33.2607 59.7402 38.2212 57.418 43.7256 57.418C46.0908 57.418 48.3555 57.8472 50.4458 58.6323C51.0513 58.8599 51.7373 58.6543 52.1079 58.125C53.8916 55.5796 55.3794 52.7437 56.5093 49.6875C56.7075 49.1519 56.5684 48.5439 56.1465 48.1582C52.3291 44.6709 49.9355 39.6558 49.9355 34.0815C49.9355 28.9468 51.9673 24.2847 55.2725 20.8569C55.6777 20.437 55.7988 19.8174 55.5605 19.2842C53.7983 15.3379 51.4199 11.8213 48.5708 8.90869C48.1738 8.50244 47.5693 8.36182 47.0386 8.56641C46.0107 8.9624 44.894 9.18018 43.7256 9.18018C39.2109 9.18018 35.4551 5.93457 34.6753 1.65283C34.5732 1.09229 34.1338 0.648926 33.5747 0.535156C31.8418 0.183594 30.0591 0 28.2397 0C26.6279 0 25.0444 0.144043 23.4995 0.421387C22.9189 0.525879 22.4619 0.984375 22.3623 1.56494C21.6191 5.88965 17.8433 9.18066 13.2974 9.18066C12.0107 9.18066 10.7852 8.91699 9.67334 8.43945C9.13086 8.20654 8.50049 8.31152 8.08496 8.72998C5.28369 11.5522 2.92822 14.9531 1.1543 18.7715C0.901854 19.3149 1.02051 19.9619 1.45215 20.3784C5.03808 23.8438 7.26758 28.7031 7.26758 34.082C7.26758 39.8965 4.66211 45.1045 0.551756 48.6025C0.0976544 48.9893 -0.0566424 49.625 0.157713 50.1807C1.30469 53.1582 2.79394 55.9199 4.56787 58.3989Z" fill="#DD7736"/>
<path d="M56.1465 48.1587C52.3291 44.6714 49.9355 39.6558 49.9355 34.082C49.9355 28.9473 51.9673 24.2847 55.2729 20.8574C55.6782 20.437 55.7988 19.8174 55.561 19.2847C53.7983 15.3379 51.4199 11.8218 48.5708 8.90869C48.1738 8.50244 47.5693 8.36182 47.0386 8.56641C46.0107 8.96289 44.894 9.18066 43.7256 9.18066C41.1387 9.18066 38.8022 8.11328 37.1309 6.39795C38.8589 11.9087 39.791 17.771 39.791 23.8511C39.791 38.4004 34.4565 51.7056 25.6338 61.9248C26.2012 62.4043 26.7412 62.915 27.2495 63.4565C27.9292 64.1812 29.0923 64.1812 29.772 63.4565C33.2607 59.7402 38.2212 57.418 43.7256 57.418C46.0908 57.418 48.3555 57.8472 50.4458 58.6323C51.0518 58.8599 51.7373 58.6543 52.1079 58.1255C53.8921 55.5796 55.3799 52.7441 56.5098 49.688C56.708 49.1519 56.5688 48.5439 56.1465 48.1587Z" fill="#C35D1D"/>
<path d="M28.5107 60.0557C28.2744 60.0557 28.0371 59.9736 27.8447 59.8071C27.6177 59.6104 27.3828 59.4155 27.1475 59.228C26.7085 58.8779 26.6367 58.2393 26.9868 57.8013C27.3374 57.3633 27.9771 57.291 28.416 57.6411C28.4478 57.666 28.4795 57.6914 28.5112 57.7173C28.667 57.5918 28.8242 57.4683 28.981 57.3481C29.4268 57.0073 30.0649 57.0918 30.4067 57.5361C30.748 57.9814 30.6641 58.6182 30.2183 58.9595C29.98 59.1416 29.7417 59.332 29.5093 59.5249C29.4517 59.5728 29.3906 59.6133 29.3271 59.6465C29.3115 59.6665 29.2959 59.6865 29.2788 59.7061C29.0781 59.937 28.7949 60.0557 28.5107 60.0557ZM24.9878 57.5391C24.8135 57.5391 24.6377 57.4941 24.4766 57.4004C24.2168 57.249 23.9497 57.1011 23.6836 56.9604C23.187 56.6978 22.998 56.0835 23.2612 55.5879C23.5239 55.0928 24.1387 54.9038 24.6357 55.1665C24.9263 55.3203 25.2173 55.4819 25.501 55.647C25.9858 55.9292 26.1499 56.5508 25.8672 57.0347C25.6782 57.3584 25.3374 57.5391 24.9878 57.5391ZM32.4307 57.314C32.0742 57.314 31.728 57.1265 31.542 56.793C31.2686 56.3037 31.4443 55.6855 31.9346 55.4121C32.2197 55.2534 32.5137 55.0977 32.8096 54.9487C33.3105 54.6958 33.9224 54.8965 34.1753 55.397C34.4287 55.897 34.2275 56.5078 33.7261 56.7603C33.4556 56.897 33.186 57.0396 32.9248 57.1851C32.7686 57.2725 32.5986 57.314 32.4307 57.314ZM21.0601 55.7163C20.9468 55.7163 20.8315 55.6973 20.7192 55.6572C20.4346 55.5562 20.1445 55.46 19.8579 55.3711C19.3218 55.2046 19.0225 54.6357 19.189 54.1006C19.3555 53.5654 19.9248 53.2661 20.4619 53.4326C20.7744 53.5293 21.0908 53.6348 21.4014 53.7451C21.9302 53.9331 22.2065 54.5137 22.0181 55.0415C21.8696 55.457 21.478 55.7163 21.0601 55.7163ZM36.3931 55.5684C35.9678 55.5684 35.5708 55.2998 35.4287 54.8745C35.251 54.3428 35.5386 53.7681 36.0713 53.5903C36.3853 53.4858 36.7031 53.3867 37.0161 53.2964C37.5562 53.1411 38.1196 53.4502 38.2759 53.9888C38.4321 54.5273 38.1216 55.0903 37.582 55.2461C37.2949 55.3291 37.0034 55.4199 36.7153 55.5161C36.6084 55.5513 36.5 55.5684 36.3931 55.5684ZM49.8408 55.1885C49.752 55.1885 49.6621 55.1768 49.5728 55.1523C49.3774 55.0991 49.1812 55.0483 48.9849 55.0005C48.4395 54.8672 48.105 54.3184 48.2378 53.7734C48.3711 53.229 48.9219 52.8955 49.4668 53.0283C49.4727 53.0298 49.4785 53.0308 49.4844 53.0327C49.7949 52.8486 50.1943 52.8364 50.5259 53.0347C51.0078 53.3228 51.1641 53.9458 50.876 54.4268C50.8203 54.5195 50.7642 54.6118 50.7075 54.7041C50.5195 55.0103 50.1885 55.1885 49.8408 55.1885ZM7.31836 55.1504C6.86865 55.1504 6.45801 54.8511 6.33643 54.3975C6.19141 53.856 6.51367 53.2993 7.05615 53.1548C7.37256 53.0703 7.69629 52.9907 8.01904 52.9189C8.56641 52.7974 9.11084 53.1416 9.23291 53.689C9.35498 54.2358 9.00977 54.7783 8.46143 54.9004C8.1665 54.9663 7.8706 55.0386 7.58105 55.1157C7.49316 55.1392 7.40478 55.1504 7.31836 55.1504ZM16.8628 54.6509C16.8105 54.6509 16.7578 54.647 16.7041 54.6387C16.4062 54.5918 16.104 54.5508 15.8052 54.5166C15.2476 54.4526 14.8472 53.9492 14.9116 53.3921C14.9756 52.8354 15.4795 52.436 16.0376 52.4995C16.3638 52.5371 16.6943 52.582 17.0195 52.6328C17.5742 52.7197 17.9536 53.2393 17.8662 53.793C17.7876 54.2935 17.355 54.6509 16.8628 54.6509ZM40.6104 54.585C40.1099 54.585 39.6738 54.2158 39.604 53.707C39.5278 53.1519 39.9175 52.6396 40.4736 52.564C40.7988 52.5195 41.1304 52.481 41.458 52.4502C42.0186 52.3975 42.5137 52.8066 42.5664 53.3647C42.6196 53.9229 42.2095 54.418 41.6504 54.4712C41.3506 54.4995 41.0474 54.5347 40.7495 54.5752C40.7026 54.5815 40.6562 54.585 40.6104 54.585ZM45.8872 54.4722C45.856 54.4722 45.8242 54.4707 45.7925 54.4673C45.4922 54.4399 45.188 54.418 44.8877 54.4023C44.3267 54.3735 43.8955 53.8965 43.9243 53.3364C43.9531 52.7769 44.4277 52.3452 44.9922 52.375C45.3198 52.3921 45.6523 52.416 45.98 52.4463C46.5391 52.498 46.9507 52.9922 46.8984 53.5503C46.8496 54.0767 46.4067 54.4722 45.8872 54.4722ZM11.5898 54.4346C11.0615 54.4346 10.6152 54.0269 10.5767 53.4927C10.5361 52.9336 10.957 52.4473 11.5171 52.4072C11.8447 52.3833 12.1777 52.3662 12.5054 52.3555C13.0684 52.3389 13.5366 52.7773 13.5547 53.3374C13.5728 53.8975 13.1323 54.3667 12.5708 54.3843C12.27 54.394 11.9648 54.4102 11.6641 54.4316C11.6392 54.4336 11.6143 54.4346 11.5898 54.4346ZM5.36621 52.9106C4.99512 52.9106 4.63818 52.707 4.45898 52.3545C4.31299 52.0679 4.16797 51.7729 4.02881 51.4785C3.78857 50.9717 4.00586 50.3667 4.51367 50.127C5.021 49.8872 5.62744 50.104 5.86719 50.6108C5.99853 50.8882 6.13477 51.166 6.27197 51.436C6.52637 51.936 6.32617 52.5469 5.82568 52.8003C5.67822 52.875 5.521 52.9106 5.36621 52.9106ZM51.5918 51.9336C51.4478 51.9336 51.3008 51.9028 51.1616 51.8379C50.6533 51.6001 50.4336 50.9961 50.6714 50.4883C50.7993 50.2153 50.9268 49.9331 51.0493 49.6504C51.2729 49.1362 51.8716 48.9004 52.3872 49.1235C52.9023 49.3467 53.1387 49.9443 52.915 50.4585C52.7847 50.7588 52.6494 51.0581 52.5137 51.3481C52.3408 51.7168 51.9741 51.9336 51.5918 51.9336ZM6.37305 49.4043C6.15283 49.4043 5.93115 49.3335 5.74463 49.187C5.30371 48.8403 5.22754 48.2021 5.57471 47.7617C5.76123 47.5254 5.94482 47.2822 6.12158 47.0386C6.45068 46.5845 7.08643 46.4824 7.5415 46.8105C7.99609 47.1392 8.09863 47.7739 7.76904 48.228C7.57666 48.4941 7.37598 48.7593 7.17236 49.0176C6.97217 49.2715 6.67383 49.4043 6.37305 49.4043ZM50.0923 48.4087C49.7725 48.4087 49.457 48.2578 49.2593 47.9766C49.0698 47.707 48.8838 47.4307 48.707 47.1562C48.4033 46.6851 48.54 46.0566 49.0127 45.7534C49.4849 45.4507 50.1138 45.5869 50.4175 46.0586C50.5796 46.3101 50.75 46.5635 50.9238 46.8105C51.2466 47.2695 51.1353 47.9023 50.6753 48.2246C50.498 48.3486 50.2939 48.4087 50.0923 48.4087ZM8.72266 45.772C8.56445 45.772 8.4043 45.7349 8.25439 45.6572C7.75635 45.3984 7.5625 44.7856 7.82178 44.2881C7.96094 44.021 8.09619 43.748 8.22363 43.4766C8.46191 42.9692 9.06738 42.7505 9.57568 42.9883C10.0845 43.2266 10.3032 43.8306 10.0649 44.3384C9.92578 44.6348 9.77783 44.9336 9.62598 45.2251C9.44482 45.5728 9.08984 45.772 8.72266 45.772ZM47.9443 44.6538C47.5571 44.6538 47.1875 44.4321 47.0176 44.0576C46.8813 43.7578 46.75 43.4521 46.627 43.1494C46.416 42.6299 46.667 42.0381 47.187 41.8271C47.708 41.6172 48.3003 41.8672 48.5117 42.3862C48.624 42.6641 48.7446 42.9443 48.8696 43.2192C49.1016 43.73 48.8745 44.3315 48.3633 44.563C48.2271 44.6245 48.0845 44.6538 47.9443 44.6538ZM10.354 41.7656C10.2573 41.7656 10.1587 41.752 10.061 41.7222C9.52344 41.561 9.21826 40.9951 9.37988 40.458C9.4668 40.1694 9.54883 39.8765 9.62305 39.5859C9.76269 39.0435 10.3164 38.7158 10.8604 38.855C11.4043 38.9937 11.7324 39.5469 11.5933 40.0898C11.5117 40.4067 11.4224 40.7271 11.3276 41.0425C11.1953 41.4819 10.7915 41.7656 10.354 41.7656ZM46.5278 40.5664C46.0698 40.5664 45.6543 40.2559 45.5405 39.792C45.4629 39.4736 45.3906 39.1489 45.3257 38.8271C45.2148 38.2773 45.5713 37.7422 46.1216 37.6318C46.6738 37.5215 47.2085 37.877 47.3193 38.4263C47.3789 38.7217 47.4453 39.0195 47.5166 39.311C47.6494 39.8555 47.3149 40.4048 46.7695 40.5376C46.6885 40.5571 46.6074 40.5664 46.5278 40.5664ZM11.2085 37.5264C11.1729 37.5264 11.1367 37.5244 11.1011 37.5205C10.5425 37.4619 10.1372 36.9624 10.1958 36.4048C10.2271 36.1069 10.2529 35.8032 10.2725 35.5024C10.3081 34.9434 10.7896 34.5186 11.3521 34.5547C11.9121 34.5903 12.3374 35.0732 12.3018 35.6323C12.2803 35.9604 12.2524 36.2915 12.2183 36.6172C12.1636 37.1387 11.7222 37.5264 11.2085 37.5264ZM45.8984 36.2881C45.3608 36.2881 44.9121 35.8672 44.8838 35.3252C44.8667 34.9961 44.8564 34.6631 44.853 34.3364C44.8472 33.7759 45.2979 33.3169 45.8594 33.311C46.4233 33.3003 46.8809 33.7549 46.8867 34.3154C46.8896 34.6143 46.8994 34.9189 46.915 35.2207C46.9438 35.7808 46.5127 36.2578 45.9517 36.2866C45.9341 36.2876 45.916 36.2881 45.8984 36.2881ZM11.2578 33.2017C10.7329 33.2017 10.2881 32.7988 10.2456 32.2676C10.2212 31.9673 10.1909 31.6636 10.1548 31.3662C10.0869 30.8096 10.4844 30.3037 11.0415 30.2363C11.5972 30.1694 12.106 30.5654 12.1733 31.1221C12.2129 31.4468 12.2461 31.7778 12.2725 32.106C12.3174 32.6646 11.8994 33.1538 11.3398 33.1987C11.3125 33.2007 11.2852 33.2017 11.2578 33.2017ZM46.0796 31.9668C46.0342 31.9668 45.9883 31.9639 45.9419 31.9575C45.3853 31.8823 44.9951 31.3711 45.0708 30.8154C45.1147 30.4897 45.1665 30.1611 45.2231 29.8394C45.3208 29.2871 45.8481 28.9185 46.4014 29.0161C46.9541 29.1138 47.3232 29.6401 47.2256 30.1924C47.1733 30.4878 47.1265 30.7891 47.0859 31.0879C47.0171 31.5972 46.5806 31.9668 46.0796 31.9668ZM10.5127 28.9419C10.0654 28.9419 9.65576 28.6455 9.53223 28.1948C9.45312 27.9048 9.36621 27.6128 9.2749 27.3267C9.10449 26.7925 9.3999 26.2217 9.93506 26.0513C10.4702 25.8818 11.042 26.1763 11.2124 26.7104C11.3125 27.0229 11.4072 27.3423 11.4937 27.6592C11.6421 28.1997 11.3232 28.7583 10.7812 28.9058C10.6914 28.9302 10.6011 28.9419 10.5127 28.9419ZM47.0571 27.7549C46.9507 27.7549 46.8418 27.7383 46.7354 27.7026C46.2026 27.5249 45.9146 26.9502 46.0928 26.4185C46.1968 26.1069 46.3086 25.7939 46.4258 25.4868C46.625 24.9624 47.2134 24.7002 47.7373 24.8984C48.2622 25.0977 48.5259 25.6841 48.3267 26.208C48.2192 26.4893 48.1167 26.7764 48.0215 27.061C47.8794 27.4863 47.4829 27.7549 47.0571 27.7549ZM8.97998 24.8984C8.60449 24.8984 8.24365 24.6904 8.06689 24.3311C7.93408 24.0615 7.79394 23.7915 7.6499 23.5273C7.38135 23.0352 7.56348 22.4189 8.05664 22.1504C8.5498 21.8828 9.16748 22.0645 9.43603 22.5566C9.59326 22.8452 9.74658 23.1406 9.89209 23.4351C10.1396 23.9385 9.93213 24.5464 9.42822 24.7939C9.28369 24.8647 9.13086 24.8984 8.97998 24.8984ZM48.8086 23.8008C48.6406 23.8008 48.4697 23.7588 48.312 23.6709C47.8223 23.3965 47.6479 22.7778 47.9229 22.2891C48.0845 22.0015 48.2534 21.7144 48.4253 21.4365C48.7202 20.9595 49.3467 20.811 49.8242 21.105C50.3022 21.3994 50.4507 22.0244 50.1562 22.502C49.999 22.7559 49.8447 23.0186 49.6963 23.2822C49.5103 23.6138 49.1646 23.8008 48.8086 23.8008ZM6.70947 21.2163C6.40137 21.2163 6.09668 21.0771 5.89697 20.8125C5.71533 20.5718 5.52637 20.332 5.33594 20.1006C4.97998 19.667 5.04346 19.0273 5.47754 18.6719C5.91211 18.3169 6.55273 18.3799 6.90869 18.8135C7.1167 19.0664 7.32227 19.3276 7.52051 19.5903C7.8584 20.0381 7.76904 20.6743 7.3208 21.0117C7.13769 21.1499 6.92285 21.2163 6.70947 21.2163ZM51.0107 20.2148C50.6426 20.2148 50.2871 20.0142 50.1064 19.6646C49.9658 19.3931 49.8203 19.1206 49.6733 18.855C49.4019 18.3643 49.5796 17.7466 50.0713 17.4756C50.563 17.2041 51.1816 17.3823 51.4531 17.873C51.6094 18.1558 51.7646 18.4453 51.9136 18.7344C52.1709 19.2324 51.9751 19.8447 51.4761 20.1016C51.3271 20.1782 51.168 20.2148 51.0107 20.2148ZM6.9624 17.6245C6.7749 17.6245 6.58594 17.5732 6.41602 17.4653C5.94287 17.1636 5.8042 16.5356 6.10644 16.0635C6.28125 15.79 6.46289 15.5151 6.646 15.2471C6.96191 14.7837 7.59473 14.6646 8.05859 14.98C8.52295 15.2959 8.64258 15.9272 8.32617 16.3906C8.1543 16.6421 7.98437 16.8994 7.82031 17.1558C7.62646 17.459 7.29785 17.6245 6.9624 17.6245ZM48.772 16.5098C48.4512 16.5098 48.1357 16.3589 47.938 16.0767C47.7637 15.8286 47.583 15.5791 47.3999 15.335C47.064 14.8862 47.1558 14.25 47.6055 13.9141C48.0552 13.5791 48.6929 13.6704 49.0288 14.1191C49.2241 14.3804 49.4175 14.647 49.604 14.9126C49.9258 15.3716 49.814 16.0044 49.354 16.3262C49.1768 16.4502 48.9731 16.5098 48.772 16.5098ZM13.686 14.25C13.1377 14.25 12.686 13.8145 12.6699 13.2642C12.6538 12.7036 13.0957 12.2363 13.6572 12.2202C13.9492 12.2119 14.2437 12.1934 14.5322 12.1646C15.0908 12.1079 15.5894 12.5161 15.6445 13.0742C15.7002 13.6318 15.2925 14.1289 14.7334 14.1846C14.3975 14.2178 14.0552 14.2397 13.7153 14.2495C13.7056 14.25 13.6958 14.25 13.686 14.25ZM44.7739 14.2148C44.248 14.2148 43.8027 13.811 43.7612 13.2793C43.7173 12.7202 44.1357 12.2319 44.6953 12.188C44.9854 12.165 45.2783 12.1318 45.5659 12.0884C46.1191 12.0054 46.6392 12.3862 46.7227 12.9409C46.8066 13.4951 46.4243 14.0122 45.8691 14.0957C45.5342 14.1465 45.1924 14.1855 44.8545 14.2119C44.8271 14.2139 44.8003 14.2148 44.7739 14.2148ZM9.54492 14.1489C9.31055 14.1489 9.07519 14.0684 8.88281 13.9038C8.45703 13.5386 8.4082 12.8979 8.77393 12.4727C8.87744 12.3525 8.98144 12.2334 9.08643 12.1152C9.34228 11.8267 9.73975 11.7085 10.1123 11.8081C10.2554 11.8467 10.4028 11.8833 10.5498 11.917C11.0972 12.0425 11.439 12.5874 11.3135 13.1333C11.1953 13.646 10.709 13.9795 10.1963 13.9136C10.0098 14.0693 9.77783 14.1489 9.54492 14.1489ZM41.4004 14.0522C41.3418 14.0522 41.2822 14.0474 41.2222 14.0366C40.8887 13.9775 40.5527 13.9058 40.2236 13.8232C39.6792 13.686 39.3486 13.1343 39.4858 12.5908C39.623 12.0469 40.1763 11.7178 40.7202 11.8545C41.0024 11.9253 41.2905 11.9868 41.5767 12.0376C42.1294 12.1353 42.4985 12.6621 42.4009 13.2139C42.3135 13.7061 41.8843 14.0522 41.4004 14.0522ZM17.9268 13.4321C17.5137 13.4321 17.125 13.1787 16.9731 12.769C16.7783 12.2437 17.0474 11.6597 17.5737 11.4648C17.8467 11.3638 18.1191 11.252 18.3833 11.1323C18.8945 10.8999 19.4976 11.126 19.73 11.6362C19.9624 12.147 19.7363 12.7485 19.2246 12.9805C18.9165 13.1206 18.5986 13.251 18.2798 13.3687C18.1636 13.4116 18.0439 13.4321 17.9268 13.4321ZM37.3271 12.6191C37.1616 12.6191 36.9932 12.5786 36.8379 12.4932C36.541 12.3301 36.2461 12.1543 35.9614 11.9702C35.4897 11.666 35.355 11.0376 35.6597 10.5669C35.9648 10.0962 36.5947 9.96191 37.0659 10.2661C37.3101 10.4238 37.563 10.5747 37.8179 10.7148C38.3101 10.9849 38.4893 11.6021 38.2188 12.0933C38.0337 12.4292 37.6855 12.6191 37.3271 12.6191ZM21.6782 11.2949C21.3823 11.2949 21.0894 11.167 20.8882 10.9199C20.5342 10.4854 20.6001 9.8457 21.0361 9.49219C21.2612 9.30957 21.4834 9.11621 21.6958 8.91699C22.1055 8.5332 22.7485 8.55322 23.1328 8.96143C23.5176 9.37012 23.4971 10.0127 23.0879 10.3965C22.8403 10.6284 22.5815 10.8545 22.3188 11.0674C22.1304 11.2207 21.9033 11.2949 21.6782 11.2949ZM33.9326 9.95508C33.6577 9.95508 33.3833 9.84424 33.1826 9.62598C32.9536 9.37646 32.731 9.11523 32.5205 8.84961C32.1714 8.41016 32.2456 7.77197 32.686 7.42383C33.1265 7.07568 33.7656 7.1499 34.1143 7.58936C34.2949 7.81689 34.4858 8.04053 34.6821 8.25488C35.0615 8.66797 35.0332 9.31006 34.6191 9.68896C34.4243 9.86719 34.1782 9.95508 33.9326 9.95508ZM24.5371 8.06689C24.3525 8.06689 24.166 8.0166 23.998 7.91162C23.5225 7.61377 23.3784 6.98779 23.6768 6.5127C23.8311 6.2666 23.9785 6.01172 24.1147 5.75635C24.3779 5.26123 24.9932 5.07275 25.4893 5.33545C25.9854 5.59814 26.1738 6.21289 25.9106 6.70801C25.752 7.00635 25.5801 7.30371 25.3994 7.59082C25.2065 7.89844 24.876 8.06689 24.5371 8.06689ZM31.5757 6.34326C31.1841 6.34326 30.811 6.1167 30.644 5.73633C30.5078 5.42578 30.3809 5.10645 30.2676 4.78711C30.0796 4.25879 30.3564 3.67822 30.8857 3.49072C31.4146 3.30371 31.9961 3.57959 32.1841 4.10791C32.2812 4.38184 32.3896 4.65479 32.5063 4.92041C32.7319 5.43408 32.498 6.03271 31.9839 6.25781C31.8506 6.31592 31.7119 6.34326 31.5757 6.34326ZM27.0376 5.10693C26.5005 5.10693 26.0518 4.68701 26.0229 4.14551C25.9932 3.58545 26.4238 3.10791 26.9849 3.07812C27.3145 3.06055 27.6475 3.05029 27.9756 3.04639H27.9873C28.5435 3.04639 28.9971 3.49316 29.0034 4.0498C29.0098 4.61035 28.5601 5.06982 27.9985 5.07617C27.6987 5.07959 27.3936 5.08936 27.0918 5.10547C27.0737 5.10645 27.0557 5.10693 27.0376 5.10693Z" fill="#A33F03"/>
</g>
<defs>
<clipPath id="clip0">
<rect width="56.625" height="64" fill="white"/>
</clipPath>
</defs>
</svg>
