<svg width="65" height="64" viewBox="0 0 65 64" fill="none" xmlns="http://www.w3.org/2000/svg">
<g clip-path="url(#clip0)">
<path d="M32.1323 63.457L28.9634 60.2886C25.6265 56.9512 25.6265 51.521 28.9634 48.1841L29.6807 47.4668C31.2783 45.8691 33.4023 44.979 35.6621 44.9604C35.686 44.9604 35.7104 44.96 35.7344 44.96C37.9673 44.96 40.0776 45.8135 41.6841 47.3677L45.3706 50.9346C47.2476 52.75 50.2759 52.7251 52.1226 50.8789C53.0347 49.9668 53.5356 48.7534 53.5327 47.4634C53.5298 46.1729 53.0229 44.9624 52.1064 44.0542L38.7456 30.8174L41.3818 28.1567L54.7422 41.394C56.3716 43.0083 57.272 45.1606 57.2778 47.4541C57.2832 49.748 56.3926 51.9048 54.7705 53.5269C53.1729 55.1245 51.0488 56.0146 48.7891 56.0337C48.7651 56.0337 48.7407 56.0337 48.7168 56.0337C46.4839 56.0337 44.3735 55.1802 42.7671 53.626L39.0801 50.0591C37.2036 48.2437 34.1748 48.2686 32.3286 50.1147L31.6118 50.832C29.7344 52.709 29.7344 55.7632 31.6118 57.6401L34.7803 60.8091L32.1323 63.457Z" fill="#E2D9FB"/>
<path d="M0.125 64C0.125 64 45.9365 6.80176 49.2261 3.51318C51.0815 1.65722 53.3882 0.444821 55.7207 0.0986294C58.2231 -0.272953 60.561 0.416501 62.1343 1.99023C63.708 3.56396 64.3979 5.90185 64.0264 8.40429C63.6802 10.7368 62.4678 13.0435 60.6118 14.8994C57.3228 18.188 0.125 64 0.125 64Z" fill="#FD5D99"/>
<path d="M0.125 63.9995V64C0.125 64 57.3228 18.188 60.6118 14.8989C62.4678 13.0435 63.6802 10.7368 64.0264 8.40429C64.3975 5.90185 63.708 3.56396 62.1343 1.99023L0.125 63.9995Z" fill="#E2407A"/>
<path d="M53.0068 12.979C52.3432 12.979 51.8896 12.6294 51.6704 12.4096C51.3061 12.0459 50.5786 11.0288 51.7119 9.47507C51.9716 9.11863 52.3252 8.71433 52.7339 8.30564C53.1425 7.89695 53.5468 7.54343 53.9028 7.28367C55.456 6.15134 56.4736 6.8779 56.8388 7.24314C57.2041 7.60886 57.9306 8.62595 56.7978 10.1792C56.5385 10.5351 56.185 10.9394 55.7763 11.3481C55.3676 11.7573 54.9629 12.1103 54.6069 12.3701C53.9853 12.8232 53.4492 12.979 53.0068 12.979Z" fill="#E2407A"/>
<path d="M51.6929 12.4316C51.9199 12.6519 52.3647 12.979 53.0068 12.979C53.4492 12.979 53.9853 12.8232 54.6069 12.3701C54.9629 12.1104 55.3672 11.7568 55.7759 11.3481C56.185 10.9395 56.5381 10.5352 56.7978 10.1792C57.9092 8.65527 57.2309 7.64795 56.8599 7.26514L51.6929 12.4316Z" fill="#B51359"/>
<path d="M52.9072 5.83105C51.8589 4.7832 50.6328 3.97949 49.2974 3.44385C48.0366 2.93848 46.6787 2.67139 45.2793 2.67139C42.3979 2.67139 39.6889 3.79395 37.6514 5.83105L32.4692 11.0137C28.6382 14.8442 28.2978 20.8628 31.4453 25.084C32.2837 24.0483 33.1108 23.0273 33.9228 22.0264C32.4585 19.353 32.8554 15.9233 35.1172 13.6616L40.2998 8.479C41.6299 7.14893 43.3984 6.4165 45.2793 6.4165C45.7285 6.4165 46.1709 6.45947 46.6025 6.54102C47.9795 6.80127 49.2466 7.4668 50.2593 8.479L52.7339 10.9536L55.3818 8.30566L52.9072 5.83105Z" fill="#F2F2FC"/>
</g>
<defs>
<clipPath id="clip0">
<rect width="64.1252" height="64" fill="white"/>
</clipPath>
</defs>
</svg>
