<svg width="34" height="32" viewBox="0 0 34 32" fill="none" xmlns="http://www.w3.org/2000/svg">
<path d="M33.7905 6.08419C33.5853 5.80274 33.2575 5.63618 32.9091 5.63618H8.36376C8.3162 5.63618 8.26872 5.63908 8.22299 5.64524L7.21283 2.73333C7.10813 2.43217 6.87758 2.19211 6.58129 2.07546L1.4903 0.0755486C0.929217 -0.144119 0.296077 0.131474 0.0757222 0.691867C-0.144252 1.25256 0.131267 1.88608 0.692046 2.10643L5.31585 3.92282L10.9754 20.2362C10.7256 20.3232 10.514 20.5149 10.4176 20.783L8.78118 25.3285C8.6809 25.6072 8.72222 25.9169 8.89288 26.159C9.06332 26.4012 9.34052 26.5454 9.63651 26.5454H10.4768C9.95608 27.1249 9.63651 27.8881 9.63651 28.7273C9.63651 30.5319 11.1049 32 12.9093 32C14.7136 32 16.182 30.5319 16.182 28.7273C16.182 27.8881 15.8624 27.1249 15.3417 26.5454H22.477C21.9561 27.1249 21.6364 27.8881 21.6364 28.7273C21.6364 30.5319 23.1045 32 24.9092 32C26.7139 32 28.182 30.5319 28.182 28.7273C28.182 27.8881 27.8624 27.1249 27.3417 26.5454H28.3639C28.866 26.5454 29.2729 26.1384 29.2729 25.6363C29.2729 25.1342 28.8659 24.7273 28.3639 24.7273H10.93L11.9435 21.9123C12.0743 21.9674 12.2157 22 12.3637 22H28.3636C28.838 22 29.2578 21.6936 29.4022 21.2422L33.9478 7.06026C34.0544 6.72821 33.9958 6.36565 33.7905 6.08419ZM12.9093 30.1818C12.107 30.1818 11.4547 29.5295 11.4547 28.7273C11.4547 27.9251 12.107 27.2727 12.9093 27.2727C13.7115 27.2727 14.3638 27.9251 14.3638 28.7273C14.3638 29.5295 13.7115 30.1818 12.9093 30.1818ZM24.9092 30.1818C24.107 30.1818 23.4546 29.5295 23.4546 28.7273C23.4546 27.9251 24.107 27.2727 24.9092 27.2727C25.7113 27.2727 26.3637 27.9251 26.3637 28.7273C26.3637 29.5295 25.7113 30.1818 24.9092 30.1818ZM30.6275 10.2726H25.0607V7.81803H31.4141L30.6275 10.2726ZM29.0245 15.2725H25.0607V12.4543H29.9279L29.0245 15.2725ZM17.8484 15.2725V12.4543H22.8789V15.2725H17.8484ZM22.8789 17.4545V19.8181H17.8484V17.4545H22.8789ZM10.5852 12.4543H15.6667V15.2725H11.563L10.5852 12.4543ZM17.8484 10.2726V7.81803H22.8789V10.2726H17.8484ZM15.6667 7.81803V10.2726H9.82802L8.97651 7.81803H15.6667ZM12.3201 17.4545H15.6667V19.8181H13.14L12.3201 17.4545ZM25.0607 19.8182V17.4546H28.3257L27.5682 19.8182H25.0607Z" fill="white"/>
</svg>
