<svg width="1688" height="651" viewBox="0 0 1688 651" fill="none" xmlns="http://www.w3.org/2000/svg">
<path d="M-110.207 438.701C-157.83 303.289 -35.1658 282.781 78.7428 325.953C204.881 379.204 233.142 478.408 319.899 570.095C517.955 773.663 754.528 548.26 870.451 385.524C964.607 260.542 1066.9 182.84 1239.06 213.15C1298.34 221.442 1364.44 250.592 1422.75 237.822C1545.15 212.026 1644.19 65.7808 1674.72 -35.6717C1752.12 -265.552 1475.35 -392.229 1255.87 -426.096C912.031 -476.343 491.153 -412.811 192.302 -258.937C25.6937 -173.423 -191.189 -27.9329 -199.842 162.387C-202.206 236.367 -178.096 372.681 -122.704 423.352" fill="url(#paint0_linear)"/>
<defs>
<linearGradient id="paint0_linear" x1="-186.03" y1="692.829" x2="1671.31" y2="-938.601" gradientUnits="userSpaceOnUse">
<stop stop-color="#5364E1"/>
<stop offset="0.19" stop-color="#5B6CE3"/>
<stop offset="0.48" stop-color="#6F82EA"/>
<stop offset="0.84" stop-color="#91A5F5"/>
<stop offset="1" stop-color="#A2B7FA"/>
</linearGradient>
</defs>
</svg>
