<svg width="1920" height="836" viewBox="0 0 1920 836" fill="none" xmlns="http://www.w3.org/2000/svg">
<path d="M-278.394 660.337C-338.13 490.889 -184.265 465.258 -41.4059 519.248C116.822 585.882 158.169 590.746 267 705.5C515.398 960.187 806.197 797.453 951.6 593.793C1069.7 437.405 1197.98 340.064 1413.92 378.086C1488.26 388.472 1571.22 424.959 1644.31 408.974C1797.79 376.713 1922.05 193.682 1960.34 66.7354C2057.44 -220.953 1710.22 -379.419 1435.01 -421.849C1003.74 -484.726 475.868 -405.213 101.049 -212.662C-108.009 -105.639 -379.954 76.399 -390.799 314.577C-393.788 407.149 -363.536 577.718 -294.065 641.136" fill="#FFD6CA" style="mix-blend-mode:color-dodge"/>
</svg>
