<svg width="1716" height="754" viewBox="0 0 1716 754" fill="none" xmlns="http://www.w3.org/2000/svg">
<path d="M-178.408 499.658C-221.189 351.423 -92.8267 334.273 23.3124 385.64C151.675 448.341 176.104 556.659 261.702 659.277C457.293 887.313 714.018 653.577 842.451 482.558C946.367 351.423 1056.39 271.622 1233.67 311.523C1294.78 322.923 1362.03 357.123 1423.15 345.723C1551.51 322.923 1661.54 169.005 1698.22 60.72C1789.83 -184.366 1508.69 -332.684 1282.49 -378.235C927.961 -446.702 487.869 -395.385 170.01 -241.466C-7.26358 -155.949 -239.524 -7.73056 -257.877 197.505C-263.988 277.322 -245.653 425.541 -190.631 482.508" fill="#FFF5F2" style="mix-blend-mode:color-dodge"/>
</svg>
