<svg width="1276" height="2033" viewBox="0 0 1276 2033" fill="none" xmlns="http://www.w3.org/2000/svg">
<path d="M998.979 1978.24C1137.91 1962.12 1276.63 1871.36 1276 1731.5C1275.59 1642.09 1237.37 1597.52 1224.98 1512.19C1214.44 1440.03 1241.87 1368.16 1247.9 1295.52C1260.2 1147.89 1175.48 996.863 1038.71 922.589C933.29 865.372 797.679 847.769 722.538 757.934C650.121 671.378 661.094 545.427 705.961 443.82C743.24 359.378 802.31 273.843 782.853 184.336C766.704 110.39 697.789 54.4114 622.143 28.3537C546.496 2.29599 464.117 0.983998 383.529 0L-296.359 25.5111L-481 1465.06L-172.133 1430.17L167.601 1722.99C396.848 1920.57 698.353 2013.14 998.979 1978.24Z" fill="white" fill-opacity="0.5"/>
<path d="M801.337 1743.51C922.769 1729.66 1045.68 1650.68 1042.93 1528.49C1041.29 1455.39 1009.28 1417.5 998.747 1346.3C989.6 1284.82 1013.4 1223.59 1018.63 1161.71C1029.29 1035.94 955.814 907.27 837.174 843.994C745.738 795.247 628.11 780.251 562.934 703.716C500.12 629.976 509.639 522.672 548.555 436.109C580.89 364.17 632.127 291.299 615.251 215.043C601.243 152.046 541.467 104.355 475.852 82.1558C410.237 59.9561 338.783 58.8383 268.881 58L-320.844 79.734L-481 1306.15L-213.093 1276.43L80.3475 1524.84C280.232 1694.05 541.134 1773.18 801.337 1743.51Z" fill="#DCE4FF"/>
<path d="M728.283 1621.56C830.776 1609.47 931.969 1542.21 932.988 1439.01C933.677 1369.18 904.468 1335.51 895.107 1270.02C887.274 1215.57 907.65 1161.34 912.13 1106.54C921.263 995.139 858.343 881.183 756.751 825.14C678.455 781.966 577.73 768.684 521.92 700.899C468.133 635.588 476.283 540.552 509.607 463.884C537.296 400.169 581.17 335.628 566.718 268.09C554.724 212.295 503.538 170.056 447.352 150.394C391.166 130.732 329.979 129.742 270.123 129L-234.859 148.249L-372 1234.46L-142.591 1208.14L110.707 1429.92C280.177 1578.31 504.582 1647.94 728.283 1621.56Z" fill="url(#paint0_linear)"/>
<defs>
<linearGradient id="paint0_linear" x1="280.5" y1="129" x2="280.5" y2="1663" gradientUnits="userSpaceOnUse">
<stop stop-color="#9EB3F9"/>
<stop offset="1" stop-color="#5E83FE"/>
</linearGradient>
</defs>
</svg>
