<svg width="466" height="1179" viewBox="0 0 466 1179" fill="none" xmlns="http://www.w3.org/2000/svg">
<path d="M304.852 1146.67C385.381 1137.32 465.79 1084.71 465.422 1003.64C465.187 951.817 443.035 925.98 435.852 876.521C429.739 834.694 445.641 793.036 449.137 750.935C456.265 665.36 407.161 577.82 327.879 534.768C266.777 501.602 188.171 491.399 144.616 439.327C102.641 389.156 109.001 316.15 135.008 257.255C156.616 208.309 190.855 158.73 179.577 106.848C170.217 63.9862 130.271 31.5389 86.4235 16.4349C42.5758 1.33084 -5.17407 0.570363 -51.8864 0L-445.975 14.7872L-553 849.207L-373.969 828.983L-177.046 998.708C-44.1659 1113.24 130.598 1166.89 304.852 1146.67Z" fill="white" fill-opacity="0.5"/>
<path d="M190.292 1010.6C260.678 1002.58 331.92 956.797 330.33 885.973C329.379 843.601 310.82 821.637 304.718 780.365C299.416 744.731 313.209 709.241 316.241 673.373C322.424 600.468 279.832 525.889 211.064 489.211C158.064 460.956 89.8825 452.263 52.1039 407.901C15.6948 365.158 21.2119 302.961 43.7695 252.786C62.5121 211.087 92.2107 168.848 82.4285 124.648C74.3094 88.1318 39.661 60.4885 1.62802 47.6207C-36.4049 34.7529 -77.8226 34.1051 -118.34 33.6191L-460.168 46.217L-553 757.095L-397.711 739.866L-227.622 883.853C-111.761 981.934 39.4679 1027.8 190.292 1010.6Z" fill="#DCE4FF"/>
<path d="M147.946 939.919C207.355 932.913 266.011 893.921 266.601 834.104C267.001 793.631 250.07 774.113 244.644 736.152C240.104 704.592 251.914 673.159 254.511 641.392C259.805 576.821 223.334 510.767 164.448 478.283C119.064 453.257 60.6803 445.559 28.3305 406.268C-2.84665 368.411 1.87769 313.324 21.1937 268.885C37.243 231.953 62.6739 194.543 54.2975 155.396C47.345 123.054 17.6756 98.5711 -14.892 87.1744C-47.4596 75.7776 -82.9255 75.2038 -117.621 74.7734L-410.327 85.9311L-489.819 715.542L-356.845 700.283L-210.024 828.838C-111.793 914.847 18.2806 955.21 147.946 939.919Z" fill="url(#paint0_linear)"/>
<defs>
<linearGradient id="paint0_linear" x1="-111.606" y1="74.7734" x2="-111.606" y2="963.938" gradientUnits="userSpaceOnUse">
<stop stop-color="#9EB3F9"/>
<stop offset="1" stop-color="#5E83FE"/>
</linearGradient>
</defs>
</svg>
