<svg width="2368" height="1279" viewBox="0 0 2368 1279" fill="none" xmlns="http://www.w3.org/2000/svg">
<path d="M112.606 1103.34C52.8695 933.889 206.735 908.258 349.594 962.248C507.821 1028.88 549.169 1033.75 658 1148.5C906.398 1403.19 1197.2 1240.45 1342.6 1036.79C1460.7 880.405 1588.98 783.064 1804.92 821.086C1879.26 831.472 1962.22 867.959 2035.31 851.974C2188.79 819.713 2313.05 636.682 2351.34 509.735C2448.44 222.047 2101.22 63.5811 1826.01 21.1513C1394.74 -41.7257 866.868 37.7873 492.049 230.338C282.991 337.361 11.0457 519.399 0.201017 757.577C-2.78784 850.149 27.4642 1020.72 96.9349 1084.14" fill="#FFD6CA" style="mix-blend-mode:color-dodge"/>
<path d="M212.592 942.658C169.811 794.423 298.173 777.273 414.312 828.64C542.675 891.341 567.103 999.659 652.702 1102.28C848.293 1330.31 1105.02 1096.58 1233.45 925.558C1337.37 794.423 1447.39 714.622 1624.67 754.523C1685.78 765.923 1753.03 800.123 1814.15 788.723C1942.51 765.923 2052.54 612.005 2089.22 503.72C2180.83 258.634 1899.69 110.316 1673.49 64.7651C1318.96 -3.70196 878.869 47.6152 561.01 201.534C383.736 287.051 151.476 435.269 133.123 640.505C127.011 720.322 145.346 868.541 200.369 925.508" fill="#FFF5F2" style="mix-blend-mode:color-dodge"/>
<path d="M280.793 881.701C233.17 746.289 355.834 725.781 469.743 768.953C595.881 822.204 624.142 921.408 710.899 1013.1C908.955 1216.66 1145.53 991.26 1261.45 828.524C1355.61 703.542 1457.9 625.84 1630.06 656.15C1689.34 664.442 1755.44 693.592 1813.75 680.822C1936.15 655.026 2035.19 508.781 2065.72 407.328C2143.12 177.448 1866.35 50.7706 1646.87 16.9039C1303.03 -33.3432 882.153 30.189 583.302 184.063C416.694 269.577 199.811 415.067 191.158 605.387C188.794 679.367 212.904 815.681 268.296 866.352" fill="url(#paint0_linear)"/>
<defs>
<linearGradient id="paint0_linear" x1="204.97" y1="1135.83" x2="2062.31" y2="-495.601" gradientUnits="userSpaceOnUse">
<stop stop-color="#5364E1"/>
<stop offset="0.19" stop-color="#5B6CE3"/>
<stop offset="0.48" stop-color="#6F82EA"/>
<stop offset="0.84" stop-color="#91A5F5"/>
<stop offset="1" stop-color="#A2B7FA"/>
</linearGradient>
</defs>
</svg>
