<svg width="38" height="50" viewBox="0 0 38 50" fill="none" xmlns="http://www.w3.org/2000/svg">
<g clip-path="url(#clip0)">
<path d="M3.98352 18.5185C3.98352 26.5799 10.5419 33.1383 18.6034 33.1383C26.6648 33.1383 33.2232 26.5799 33.2232 18.5185C33.2232 10.457 26.6648 3.89862 18.6034 3.89862C10.5419 3.89862 3.98352 10.457 3.98352 18.5185ZM18.6034 5.84793C25.5901 5.84793 31.2739 11.5318 31.2739 18.5185C31.2739 25.5052 25.5901 31.189 18.6034 31.189C11.6167 31.189 5.93283 25.5052 5.93283 18.5185C5.93283 11.5318 11.6167 5.84793 18.6034 5.84793Z" fill="white"/>
<path d="M9.57716 16.7808L13.3551 20.5032L12.4859 25.7347C12.4254 26.0991 12.5758 26.4661 12.8746 26.6831C13.1731 26.9001 13.5687 26.9294 13.8965 26.7596L18.6034 24.3154L23.3099 26.7596C23.6351 26.9283 24.0306 26.902 24.3318 26.6831C24.6307 26.4661 24.7811 26.0991 24.7205 25.7347L23.8513 20.5032L27.6293 16.7808C27.8923 16.5219 27.9864 16.1367 27.8722 15.7852C27.7579 15.4342 27.4553 15.178 27.0902 15.1228L21.8472 14.3335L19.4749 9.58932C19.31 9.25924 18.9723 9.0506 18.6034 9.0506C18.2341 9.0506 17.8968 9.25924 17.7315 9.58932L15.3592 14.3335L10.1163 15.1228C9.75115 15.1776 9.44847 15.4342 9.33426 15.7852C9.22004 16.1367 9.31446 16.5219 9.57716 16.7808ZM16.15 16.1858C16.4637 16.1386 16.7348 15.9417 16.8768 15.6581L18.6034 12.2045L20.33 15.6581C20.472 15.9417 20.7431 16.1386 21.0568 16.1858L24.8728 16.7603L22.1228 19.4691C21.8971 19.6919 21.7935 20.0105 21.8453 20.3235L22.478 24.1311L19.0523 22.3524C18.9118 22.2793 18.7576 22.2427 18.6034 22.2427C18.4492 22.2427 18.295 22.2793 18.1541 22.3524L14.7284 24.1311L15.3611 20.3235C15.4133 20.0105 15.3097 19.6919 15.0836 19.4691L12.334 16.7603L16.15 16.1858Z" fill="white"/>
<path d="M19.578 0.974657C19.578 1.513 19.1417 1.94931 18.6033 1.94931C18.065 1.94931 17.6287 1.513 17.6287 0.974657C17.6287 0.436311 18.065 0 18.6033 0C19.1417 0 19.578 0.436311 19.578 0.974657Z" fill="white"/>
<path d="M14.0099 0.574509C5.81101 2.66736 0.0848999 10.0462 0.0848999 18.5185C0.0848999 23.7805 2.29729 28.7387 6.18107 32.2501L0.309147 42.5986C0.120307 42.9317 0.143912 43.3444 0.369302 43.6536C0.594691 43.9631 0.979985 44.112 1.355 44.0339L8.0234 42.6492L10.3671 49.2537C10.4943 49.6131 10.8198 49.8647 11.1998 49.8986C11.5798 49.9325 11.9441 49.741 12.1326 49.4094L18.6034 38.0333L25.0738 49.4094C25.2482 49.7159 25.5726 49.902 25.9205 49.902C25.9491 49.902 25.978 49.9009 26.0066 49.8986C26.3865 49.8647 26.7121 49.6127 26.8396 49.2537L29.183 42.6492L35.8514 44.0339C36.226 44.1116 36.6117 43.9627 36.8371 43.6536C37.0628 43.3444 37.0861 42.9317 36.8972 42.5986L31.0253 32.2501C34.9091 28.7387 37.1215 23.7805 37.1215 18.5185C37.1215 10.0462 31.3954 2.66736 23.1968 0.574509C22.6749 0.441256 22.1445 0.756115 22.0112 1.27771C21.878 1.7993 22.1929 2.33003 22.7144 2.46329C30.0495 4.33569 35.1725 10.9378 35.1725 18.5185C35.1725 27.7446 27.6795 35.0876 18.6034 35.0876C9.52079 35.0876 2.03421 27.7385 2.03421 18.5185C2.03421 10.9378 7.15687 4.33569 14.4919 2.46329C15.0135 2.33003 15.3284 1.7993 15.1955 1.27771C15.0623 0.756115 14.5319 0.441256 14.0099 0.574509ZM11.4918 46.5939L9.57638 41.1964C9.41343 40.7372 8.93676 40.4688 8.45971 40.5678L3.0675 41.6875L7.71463 33.4973C10.4243 35.4672 13.6326 36.6673 16.9689 36.9642L11.4918 46.5939ZM28.7467 40.5678C28.27 40.4688 27.7929 40.7372 27.63 41.1964L25.7149 46.5939L20.2374 36.9642C23.5741 36.6673 26.7821 35.4672 29.4921 33.4973L34.1393 41.6875L28.7467 40.5678Z" fill="white"/>
</g>
<defs>
<clipPath id="clip0">
<rect width="37.207" height="50" fill="white"/>
</clipPath>
</defs>
</svg>
