<svg width="45" height="50" viewBox="0 0 45 50" fill="none" xmlns="http://www.w3.org/2000/svg">
<g clip-path="url(#clip0)">
<path d="M44.1811 36.0882C44.1418 36.0634 40.2626 33.564 38.3789 28.2597C37.9559 27.0683 36.0997 27.7256 36.5235 28.9188C38.115 33.4011 40.934 36.0661 42.3222 37.1674L39.7129 41.1743C38.62 40.9573 36.3865 40.6445 33.6922 40.9828C30.4516 41.3899 25.9514 42.8471 22.3195 47.3808C18.6875 42.8471 14.1873 41.3899 10.9463 40.9828C8.252 40.6448 6.01849 40.9573 4.92558 41.1743L2.31747 37.1681C4.08024 35.7735 8.14022 31.8722 9.07025 24.9489C9.56425 21.2704 8.41565 17.4347 5.74879 13.8569C4.49833 12.1796 3.19752 10.9318 2.38499 10.2226L5.18269 6.97365C10.2009 8.3374 13.7585 6.8615 15.8879 5.34248C17.5869 4.13055 18.6444 2.71873 19.1315 1.96915H25.507C25.9942 2.71873 27.0516 4.13055 28.7507 5.34248C30.2876 6.43883 32.5684 7.51305 35.606 7.51267C36.7768 7.51267 38.06 7.35321 39.4558 6.97365L42.2524 10.2211C40.5381 11.7126 36.6707 15.5766 35.6846 20.8103C35.4504 22.0528 37.3852 22.4197 37.6198 21.1754C38.7257 15.3072 44.1895 11.1744 44.2437 11.134C44.6968 10.7975 44.7712 10.128 44.4031 9.70078L40.535 5.20859C40.2787 4.91104 39.8705 4.79431 39.4959 4.91104C35.8517 6.04706 32.6432 5.66826 29.9595 3.78532C27.921 2.35519 26.9432 0.543213 26.9349 0.527954C26.7651 0.203323 26.429 0 26.0628 0H18.5757C18.2118 0 17.8757 0.203705 17.7048 0.525284C17.6953 0.543213 16.7176 2.35519 14.679 3.78532C11.9954 5.66788 8.78682 6.04668 5.14264 4.91104C4.76803 4.79431 4.35986 4.91104 4.10351 5.20859L0.235409 9.70078C-0.132328 10.128 -0.0575595 10.7967 0.393719 11.1332C0.413556 11.1481 2.39224 12.6362 4.20155 15.0772C6.56514 18.2659 7.54628 21.4989 7.11827 24.6872C6.6811 27.9404 5.43293 30.8434 3.40847 33.316C1.88679 35.1746 0.47192 36.0794 0.459713 36.087C-0.00148346 36.375 -0.140338 37.0037 0.156445 37.4592L3.65033 42.8249C3.88531 43.1854 4.32858 43.351 4.74286 43.235C4.76918 43.2278 7.39903 42.5072 10.7758 42.9462C15.2348 43.5265 18.8469 45.7611 21.5111 49.5884C21.8926 50.1358 22.744 50.1385 23.1274 49.5884C25.792 45.7611 29.4037 43.5265 33.8631 42.9462C37.2399 42.5072 39.8697 43.2278 39.8941 43.2346C40.3092 43.3525 40.7528 43.1866 40.9882 42.8249L44.4821 37.4592C44.7781 37.0045 44.6389 36.3773 44.1811 36.0882C44.3772 36.2122 44.2231 36.1145 44.1811 36.0882C44.2112 36.1073 44.241 36.1263 44.2711 36.145C43.9721 35.9562 44.4821 36.2785 44.1811 36.0882C44.4035 36.2289 44.1418 36.0634 44.1811 36.0882Z" fill="white"/>
<path d="M36.5891 23.7927C36.0535 23.7927 35.6041 24.2417 35.6045 24.7772C35.6045 25.3132 36.0539 25.761 36.5891 25.761C37.109 25.761 37.5489 25.3391 37.5718 24.8203C37.5962 24.2684 37.1426 23.7927 36.5891 23.7927Z" fill="white"/>
<path d="M15.4423 26.7037C15.5884 25.7611 15.6628 24.8001 15.6628 23.8476C15.6628 23.077 15.614 22.2958 15.5186 21.5248C15.3626 20.2702 13.4083 20.5105 13.5639 21.7671C13.6498 22.4579 13.6933 23.1579 13.6933 23.8476C13.6933 24.6991 13.6269 25.5585 13.4964 26.4019C13.3023 27.6509 15.2466 27.9656 15.4423 26.7037C15.3668 27.19 15.5884 25.7611 15.4423 26.7037Z" fill="white"/>
<path d="M10.9059 35.104C12.1575 35.9111 13.0402 33.5567 13.4396 32.7762C13.836 32.0015 15.1822 29.9755 13.8039 29.4304C12.5599 28.9383 12.1617 30.9307 11.7905 31.6761C11.3801 32.5012 9.70007 34.3265 10.9059 35.104C11.0711 35.2104 10.4489 34.8091 10.9059 35.104Z" fill="white"/>
<path d="M12.7159 18.1385C13.1291 19.3325 14.9914 18.6916 14.5771 17.4949C13.5888 14.6381 12.2776 12.9024 12.2219 12.8299C11.4563 11.8267 9.89269 13.0161 10.6556 14.0236C10.6675 14.0388 11.8378 15.6009 12.7159 18.1385C12.8571 18.5463 11.8378 15.6009 12.7159 18.1385Z" fill="white"/>
<path d="M31.9187 34.8099C32.6077 35.8788 34.2579 34.8042 33.5739 33.7429C32.7858 32.5203 32.14 31.2599 31.654 29.9961C31.2004 28.8158 29.3617 29.5208 29.8161 30.7026C30.3501 32.0923 31.0574 33.4744 31.9187 34.8099C32.1068 35.1017 31.0574 33.4744 31.9187 34.8099C32.6077 35.8788 31.0574 33.4744 31.9187 34.8099Z" fill="white"/>
<path d="M30.2171 18.7473C30.7179 18.9205 31.2966 18.639 31.4698 18.1385C32.3479 15.601 33.5183 14.0389 33.5301 14.0236C34.2946 13.018 32.7313 11.8248 31.9634 12.83C31.9081 12.9025 30.597 14.6381 29.6086 17.495C29.4308 18.0088 29.7032 18.5696 30.2171 18.7473C29.7032 18.5696 30.3239 18.7843 30.2171 18.7473C29.7032 18.5696 30.7179 18.9205 30.2171 18.7473Z" fill="white"/>
<path d="M28.6675 21.5248C28.5717 22.2958 28.5233 23.0774 28.5233 23.8476C28.5233 24.8001 28.5973 25.7611 28.7434 26.7037C28.9391 27.9652 30.8831 27.6493 30.6897 26.4019C30.5588 25.5589 30.4924 24.6994 30.4924 23.8476C30.4924 23.1583 30.5359 22.4583 30.6218 21.7674C30.6889 21.2277 30.3055 20.7359 29.7661 20.6688C29.226 20.6021 28.7342 20.985 28.6675 21.5248C28.7342 20.985 28.5717 22.2958 28.6675 21.5248Z" fill="white"/>
</g>
<defs>
<clipPath id="clip0">
<rect width="44.7266" height="50" fill="white"/>
</clipPath>
</defs>
</svg>
