<svg width="74" height="144" viewBox="0 0 74 144" fill="none" xmlns="http://www.w3.org/2000/svg">
<path opacity="0.3" fill-rule="evenodd" clip-rule="evenodd" d="M74 4.08829C71.6583 3.11363 69.2243 2.29751 66.7094 1.6546C65.2083 1.27083 63.6832 2.17763 63.2999 3.67982C62.9167 5.18201 63.8222 6.71051 65.3222 7.09428C68.3546 7.86947 71.2554 8.92616 74 10.2322V4.08829ZM74 96.4143C67.7737 99.391 60.8155 101.052 53.4996 101.052C27.3799 101.052 5.84998 79.8869 5.84998 53.3332C5.84998 31.501 20.5817 12.4868 41.6759 7.09428C43.1759 6.71051 44.0813 5.18201 43.6992 3.67982C43.316 2.17763 41.7908 1.27083 40.2897 1.6546C16.7113 7.682 0.244141 28.933 0.244141 53.3332C0.244141 68.4878 6.60655 82.7674 17.7755 92.8803L0.889031 122.684C0.345965 123.643 0.413849 124.832 1.06202 125.722C1.7102 126.614 2.81823 127.042 3.89669 126.818L23.0737 122.83L29.8138 141.851C30.1795 142.886 31.1157 143.61 32.2084 143.708C33.3011 143.806 34.3489 143.254 34.8908 142.299L53.4996 109.536L72.1072 142.299C72.5166 143.02 73.2134 143.509 74 143.665V134.052L73.951 134.19L58.1989 106.457C63.6503 105.971 68.9822 104.646 74 102.551V96.4143ZM74 16.5808C67.9317 13.1726 60.9381 11.228 53.4996 11.228C30.3164 11.228 11.4558 30.1161 11.4558 53.3332C11.4558 76.5503 30.3164 95.4384 53.4996 95.4384C60.9381 95.4384 67.9317 93.4938 74 90.0856V83.4875C68.1558 87.4848 61.0954 89.8243 53.4996 89.8243C33.4072 89.8243 17.0616 73.4549 17.0616 53.3332C17.0616 33.2115 33.4072 16.8421 53.4996 16.8421C61.0954 16.8421 68.1558 19.1816 74 23.1789V16.5808ZM74 42.9648L62.8281 41.2806L56.0058 27.6172C55.5318 26.6666 54.5606 26.0657 53.4996 26.0657C52.4376 26.0657 51.4675 26.6666 50.9923 27.6172L44.1701 41.2806L29.0923 43.5536C28.0423 43.7115 27.1719 44.4505 26.8434 45.4615C26.515 46.4735 26.7865 47.5832 27.542 48.3288L38.4066 59.0492L35.9069 74.116C35.7329 75.1653 36.1653 76.2224 37.0248 76.8474C37.8832 77.4724 39.0208 77.5568 39.9635 77.0677L53.4996 70.0283L67.0347 77.0677C67.9697 77.5535 69.1073 77.4778 69.9734 76.8474C70.8329 76.2224 71.2653 75.1653 71.0913 74.116L68.5916 59.0492L74 53.7126V42.9648ZM56.3024 2.80701C56.3024 4.35745 55.0476 5.61402 53.4994 5.61402C51.9513 5.61402 50.6965 4.35745 50.6965 2.80701C50.6965 1.25658 51.9513 0 53.4994 0C55.0476 0 56.3024 1.25658 56.3024 2.80701ZM48.5343 45.0953C48.1259 45.9121 47.3464 46.479 46.4442 46.615L35.4701 48.2696L43.3774 56.0711C44.0277 56.7125 44.3256 57.6303 44.1756 58.5316L42.3558 69.4976L52.2077 64.3748C52.6128 64.1643 53.0562 64.059 53.4996 64.059C53.9431 64.059 54.3865 64.1643 54.7905 64.3748L64.6423 69.4976L62.8226 58.5316C62.6737 57.6303 62.9715 56.7125 63.6208 56.0711L71.5292 48.2696L60.5551 46.615C59.6529 46.479 58.8734 45.9121 58.465 45.0953L53.4996 35.149L48.5343 45.0953ZM27.5397 118.646L33.0481 134.19L48.7992 106.457C39.2047 105.602 29.9781 102.146 22.1857 96.4724L8.82151 120.06L24.3284 116.835C25.7003 116.55 27.0711 117.323 27.5397 118.646Z" fill="white"/>
</svg>
