<svg width="82" height="144" viewBox="0 0 82 144" fill="none" xmlns="http://www.w3.org/2000/svg">
<path opacity="0.3" fill-rule="evenodd" clip-rule="evenodd" d="M82 122.399V128.717C76.0903 131.979 70.9751 136.688 66.7038 142.815C65.5981 144.399 63.1424 144.391 62.0421 142.815C54.3581 131.792 43.94 125.356 31.0794 123.685C21.3402 122.421 13.7552 124.496 13.6793 124.517C12.4844 124.851 11.206 124.374 10.5282 123.336L0.451217 107.882C-0.404763 106.571 -0.00427855 104.76 1.3259 103.931C1.36111 103.909 5.44186 101.303 9.83068 95.9502C15.6696 88.8289 19.2696 80.4683 20.5304 71.0991C21.7649 61.9168 18.9351 52.6058 12.1181 43.4224C6.89967 36.3922 1.19277 32.1064 1.13556 32.0636C-0.166013 31.0946 -0.381658 29.1687 0.678965 27.9382L11.8353 15.0007C12.5747 14.1438 13.7519 13.8076 14.8323 14.1438C25.3428 17.4144 34.5969 16.3235 42.337 10.9017C48.2166 6.78296 51.0365 1.56445 51.064 1.51282C51.5569 0.58667 52.5262 0 53.5759 0H75.1701C76.2263 0 77.1956 0.585571 77.6852 1.52051L77.6863 1.52243C77.7331 1.60824 79.1411 4.18826 82 7.13314V14.7066C77.6365 11.381 74.8817 7.69116 73.5671 5.67114H55.1789C53.7739 7.82996 50.7241 11.896 45.8236 15.3864C39.6821 19.7611 29.4214 24.0117 14.9479 20.0841L6.87877 29.4412C9.22226 31.4835 12.974 35.0772 16.5806 39.9078C24.2723 50.2119 27.5851 61.2587 26.1603 71.8528C23.4779 91.7919 11.7682 103.028 6.68402 107.044L14.2063 118.582C17.3585 117.957 23.8003 117.057 31.5712 118.031C40.9188 119.203 53.8982 123.4 64.3735 136.457C69.8563 129.623 76.0252 125.216 82 122.399ZM44.5385 76.9066C44.9599 74.1918 45.1745 71.4244 45.1745 68.6811C45.1745 66.4619 45.0336 64.2119 44.7586 61.9915C44.3086 58.3781 38.6721 59.0703 39.121 62.6892C39.3686 64.6788 39.494 66.6948 39.494 68.6811C39.494 71.1332 39.3025 73.6085 38.9263 76.0375C38.3662 79.6345 43.9741 80.5408 44.5385 76.9066ZM38.2788 95.3966C36.973 98.1632 34.6238 103.14 31.4547 101.099C28.7338 99.3477 31.1074 95.7487 32.8364 93.1272C33.3173 92.3979 33.7484 91.7443 34.0061 91.2271C34.2196 90.7988 34.4363 90.2277 34.6748 89.5989C35.632 87.0757 36.941 83.6249 39.8131 84.7594C43.3121 86.1413 40.7229 90.8276 39.2729 93.4522L39.2728 93.4523C39.0755 93.8094 38.8993 94.1283 38.7624 94.3955C38.6218 94.6699 38.4604 95.0119 38.2788 95.3966ZM36.6752 52.2388C37.8668 55.6775 43.2381 53.8318 42.0432 50.3854C39.1925 42.1578 35.4111 37.159 35.2504 36.9503C33.0423 34.0609 28.5324 37.4864 30.7329 40.3879C30.767 40.4318 34.1425 44.9307 36.6752 52.2388Z" fill="white"/>
</svg>
