<svg width="32" height="32" viewBox="0 0 32 32" fill="none" xmlns="http://www.w3.org/2000/svg">
<g clip-path="url(#clip0)">
<path d="M28.4556 28.9659C23.5652 32.9581 8.29501 32.9581 3.50434 28.9659C-1.38612 24.9737 -0.887098 7.90701 3.50434 3.41578C7.89578 -1.07544 24.0642 -1.07544 28.4556 3.41578C32.8471 7.90701 33.3461 24.9738 28.4556 28.9659Z" fill="#00D8FF"/>
<path opacity="0.2" d="M16.0799 21.9796C11.6884 25.4727 6.79799 27.2692 2.20697 27.369C-1.18643 21.5803 -0.487767 7.50784 3.50444 3.41584C7.09743 -0.276936 18.3754 -0.975602 24.8628 1.31991C26.4596 7.90706 23.1661 16.2906 16.0799 21.9796Z" fill="white"/>
<path d="M13.6845 24.8739C12.9858 24.8739 12.2872 24.5745 11.888 23.9757L6.29895 16.7897C5.50049 15.7917 5.70014 14.3944 6.69817 13.5959C7.69621 12.7975 9.09347 12.9971 9.89193 13.9952L13.6845 18.8856L22.0681 8.00689C22.8666 7.00886 24.2639 6.80921 25.2619 7.60766C26.2599 8.40612 26.4596 9.80338 25.6611 10.8014L15.481 23.9757C14.982 24.4747 14.3832 24.8739 13.6845 24.8739Z" fill="#165888"/>
</g>
<defs>
<clipPath id="clip0">
<rect width="32" height="32" fill="white"/>
</clipPath>
</defs>
</svg>
