<svg width="196" height="50" viewBox="0 0 196 50" fill="none" xmlns="http://www.w3.org/2000/svg">
<path d="M189.915 8.88221C188.258 6.91707 185.309 6.67536 183.371 8.32616C182.899 8.72166 182.509 9.20692 182.225 9.7539C181.941 10.3009 181.768 10.8987 181.716 11.5129C181.664 12.1271 181.735 12.7455 181.923 13.3322C182.112 13.919 182.415 14.4626 182.815 14.9315C185.191 17.7477 186.502 21.3091 186.519 24.9935C186.506 33.6356 179.501 40.641 170.901 40.6117C168.847 40.6311 166.81 40.2366 164.911 39.4517C163.013 38.6668 161.292 37.5075 159.851 36.043C156.899 33.1164 155.275 29.1959 155.284 24.9935C155.276 22.9501 155.676 20.9257 156.46 19.0388C157.244 17.1519 158.397 15.4405 159.851 14.0048C161.292 12.5402 163.013 11.3808 164.911 10.5961C166.81 9.81129 168.847 9.41714 170.901 9.43717C172.446 9.40791 173.981 9.63445 175.47 10.0539C177.919 10.8354 180.528 9.44476 181.273 6.96693C181.454 6.38331 181.517 5.76969 181.459 5.16145C181.402 4.5532 181.225 3.96236 180.938 3.42298C180.651 2.88361 180.26 2.40637 179.787 2.01879C179.315 1.6312 178.771 1.34094 178.186 1.16473C175.826 0.435861 173.371 0.0614401 170.901 0.0537109C157.13 0.0667179 145.934 11.2625 145.961 24.9935C145.934 31.69 148.53 37.9572 153.246 42.6495C157.958 47.3851 164.225 49.9811 170.901 49.9952C177.557 49.98 183.824 47.3851 188.557 42.6495C193.251 37.9572 195.847 31.69 195.841 24.9935C195.842 19.0898 193.741 13.3784 189.915 8.88221Z" fill="white"/>
<path d="M142.048 31.5989C139.864 30.2321 136.989 30.9302 135.628 33.1424C132.785 37.8347 127.793 40.6399 122.293 40.6128C118.128 40.6399 114.207 39.0162 111.244 36.0441C108.308 33.1175 106.683 29.1959 106.675 24.9946C106.674 22.9522 107.078 20.9298 107.862 19.0438C108.646 17.1579 109.795 15.4457 111.244 14.0059C114.206 11.0327 118.128 9.40901 122.293 9.43827C127.495 9.40901 132.337 11.9844 135.257 16.2897C135.599 16.8001 136.038 17.2375 136.55 17.5764C137.062 17.9154 137.636 18.1491 138.24 18.264C138.843 18.3788 139.463 18.3726 140.064 18.2456C140.664 18.1186 141.234 17.8734 141.739 17.5243C143.872 16.1076 144.434 13.2049 142.974 11.0425C140.687 7.66022 137.606 4.89007 134.001 2.97455C130.395 1.05902 126.375 0.0565209 122.292 0.0548096C108.537 0.0667326 97.3428 11.2625 97.3547 24.9936C97.3428 31.69 99.9387 37.9572 104.639 42.6495C109.367 47.384 115.634 49.9811 122.295 49.9952C131.081 49.98 139.053 45.4991 143.655 38.019C144.967 35.7894 144.27 32.9159 142.048 31.5989Z" fill="white"/>
<path d="M93.1934 31.5989C92.6719 31.274 92.0909 31.0561 91.4843 30.9579C90.8778 30.8596 90.2577 30.883 89.6603 31.0267C89.0628 31.1703 88.4999 31.4313 88.0043 31.7946C87.5087 32.1578 87.0903 32.616 86.7734 33.1424C83.901 37.8347 78.9106 40.641 73.439 40.6128C69.2432 40.641 65.3216 39.0162 62.3896 36.0441C59.424 33.1175 57.7992 29.197 57.8209 24.9946C57.8067 22.9502 58.2038 20.9238 58.9887 19.036C59.7736 17.1482 60.9301 15.4376 62.3896 14.0059C65.3227 11.0327 69.2443 9.40899 73.439 9.43826C75.988 9.42649 78.5003 10.046 80.7516 11.2415C83.0028 12.4371 84.9231 14.1714 86.3409 16.2897C87.8107 18.4348 90.7134 18.9962 92.8227 17.5243C94.9884 16.1076 95.551 13.206 94.1191 11.0425C91.8277 7.66511 88.7459 4.89861 85.1418 2.9835C81.5377 1.0684 77.5203 0.0626494 73.439 0.0537109C59.6538 0.0667179 48.458 11.2625 48.4374 24.9935C48.458 31.69 51.054 37.9572 55.7831 42.6495C60.4819 47.3851 66.748 49.9811 73.439 49.9952C82.1949 49.98 90.1682 45.4991 94.7369 38.019C96.0832 35.7893 95.3851 32.9159 93.1934 31.5989Z" fill="white"/>
<path d="M44.7703 31.5989C42.5819 30.2321 39.7073 30.9302 38.3503 33.1424C35.5028 37.8347 30.5125 40.6399 25.0159 40.6128C22.4096 40.6381 19.8395 40.0011 17.5467 38.7614L42.7326 17.03C44.6012 15.3955 44.8971 12.6185 43.4122 10.6718C40.9569 7.40288 37.7363 4.78699 34.0336 3.05391C30.3308 1.32083 26.2591 0.523598 22.1761 0.732245C19.359 0.898084 16.6156 1.51158 14.0272 2.58466C11.6361 3.55043 10.4926 6.27648 11.4963 8.63508C11.7201 9.20507 12.0548 9.72494 12.4811 10.1645C12.9074 10.6041 13.4168 10.9547 13.9796 11.1959C14.5425 11.4371 15.1476 11.5641 15.76 11.5696C16.3723 11.5751 16.9796 11.4589 17.5467 11.2278C19.1792 10.5599 20.9099 10.1633 22.6704 10.0539C26.373 9.88375 29.9629 11.0186 32.8559 13.2027L11.0649 32.0314C9.96369 29.8491 9.39256 27.4379 9.3978 24.9935C9.40025 22.139 10.1905 19.3406 11.6816 16.9064C13.0105 14.7115 12.3124 11.8381 10.1381 10.4864C7.90633 9.15427 5.03287 9.85123 3.71808 12.0299C1.32418 15.9292 0.0631128 20.418 0.0761189 24.9935C0.0598601 31.69 2.65584 37.9572 7.36004 42.6495C12.0837 47.384 18.352 49.9811 25.0159 49.9952C33.7989 49.98 41.77 45.4991 46.3138 38.019C47.685 35.7893 46.9869 32.9159 44.7703 31.5989Z" fill="white"/>
</svg>
