<svg width="57" height="50" viewBox="0 0 57 50" fill="none" xmlns="http://www.w3.org/2000/svg">
<g clip-path="url(#clip0)">
<path d="M33.7096 39.9676C32.3005 40.5585 31.7096 42.2404 32.3459 43.604L34.5732 48.2858C35.2096 49.6035 36.755 50.1949 38.1187 49.6035C41.9823 47.9672 45.3005 45.8308 47.9369 43.2399C51.1641 40.1949 53.3459 36.6949 54.5278 32.8313C55.7096 28.9217 56.3459 23.604 56.346 16.8313L56.346 2.87673C56.346 1.37673 55.1187 0.149456 53.6187 0.149456L35.755 0.149454C34.255 0.149454 33.0278 1.37673 33.0278 2.87673L33.0278 20.7404C33.0278 22.2408 34.255 23.4676 35.755 23.4676L44.3005 23.4676C44.2096 28.059 43.1187 31.7404 41.1187 34.5135C39.4823 36.7399 37.0278 38.5581 33.7096 39.9676Z" fill="#00D8FF"/>
<path d="M1.61869 39.9679C0.209597 40.5588 -0.380857 42.2406 0.255051 43.6042L2.48232 48.2402C3.11869 49.5583 4.66414 50.1492 6.02778 49.5583C9.84596 47.922 13.1191 45.7856 15.8005 43.2402C19.0282 40.1492 21.255 36.6492 22.4373 32.7856C23.6191 28.9679 24.2096 23.6492 24.2096 16.8311L24.2096 2.87652C24.2096 1.37652 22.9823 0.149246 21.4823 0.149246L3.61869 0.149244C2.11869 0.149244 0.891419 1.37652 0.891419 2.87652L0.891417 20.7402C0.891417 22.2406 2.11869 23.4674 3.61869 23.4674L12.2096 23.4674C12.1187 28.0588 11.0273 31.7402 9.02778 34.5133C7.39142 36.7402 4.93687 38.5583 1.61869 39.9679Z" fill="#00D8FF"/>
</g>
<defs>
<clipPath id="clip0">
<rect width="56.3636" height="50" fill="white" transform="translate(56.3636 50) rotate(-180)"/>
</clipPath>
</defs>
</svg>
