<svg width="39" height="50" viewBox="0 0 39 50" fill="none" xmlns="http://www.w3.org/2000/svg">
<g clip-path="url(#clip0)">
<path d="M31.1133 25C31.1133 20.0455 33.3068 15.6124 36.7602 12.6427C37.4507 12.0487 37.4892 10.981 36.8479 10.3321C35.9084 9.3811 34.97 8.42896 34.0312 7.47681C33.6928 7.13348 33.2175 6.96793 32.7429 7.02934C32.4187 7.07169 32.0883 7.09343 31.7526 7.09343C28.1138 7.09343 25.054 4.58221 24.1606 1.17378C23.9794 0.482941 23.3668 0 22.6626 0H14.9085C14.2047 0 13.592 0.482941 13.4108 1.17378C12.517 4.58221 9.45726 7.09343 5.81842 7.09343C5.48311 7.09343 5.15276 7.07169 4.82813 7.02934C4.35358 6.96793 3.87827 7.13348 3.53991 7.47681C2.60149 8.42896 1.66307 9.3811 0.723133 10.3321C0.0822637 10.981 0.120411 12.0487 0.810871 12.6427C4.2647 15.612 6.45777 20.0451 6.45777 25C6.45777 30.0705 4.16132 34.5951 0.567875 37.5637C-0.143185 38.1508 -0.192776 39.2357 0.456485 39.893C1.41169 40.86 2.36689 41.8274 3.3217 42.7948C3.66999 43.1473 4.16246 43.3094 4.64884 43.2354C5.03069 43.1774 5.42093 43.1469 5.81842 43.1469C9.38211 43.1469 12.3904 45.5559 13.3525 48.8575C13.5489 49.5316 14.1497 50 14.8421 50H22.729C23.4213 50 24.0222 49.5316 24.2186 48.8575C25.1807 45.5559 28.189 43.1469 31.7526 43.1469C32.1501 43.1469 32.5404 43.177 32.9218 43.2354C33.4086 43.3094 33.9007 43.1473 34.249 42.7948C35.2042 41.8274 36.159 40.86 37.1146 39.893C37.7638 39.2357 37.7143 38.1512 37.0032 37.5637C33.4097 34.5951 31.1133 30.0705 31.1133 25Z" fill="#FFB74F"/>
<path d="M37.5683 37.5637C33.9199 34.5951 31.5884 30.0705 31.5884 25C31.5884 20.0451 33.815 15.6124 37.3215 12.6427C38.0226 12.0487 38.0615 10.981 37.4107 10.3321C36.4567 9.3811 35.5038 8.42896 34.5509 7.47681C34.2075 7.13348 33.7246 6.96793 33.2428 7.02934C32.9136 7.07169 32.5783 7.09343 32.2376 7.09343C28.5431 7.09343 25.4368 4.58221 24.5293 1.17378C24.3454 0.482941 23.7232 0 23.0083 0H19.9665C20.6814 0 21.3035 0.482941 21.4874 1.17378C22.3945 4.58221 25.5012 7.09343 29.1954 7.09343C29.536 7.09343 29.8717 7.07169 30.201 7.02934C30.6827 6.96793 31.1653 7.13348 31.509 7.47681C32.4619 8.42896 33.4145 9.3811 34.3685 10.3321C35.0193 10.981 34.9808 12.0487 34.2796 12.6427C30.7732 15.612 28.5465 20.0451 28.5465 25C28.5465 30.0705 30.8777 34.5951 34.5264 37.5637C35.2482 38.1508 35.2985 39.2357 34.6394 39.893C33.6697 40.86 32.7 41.8274 31.7303 42.7948C31.3766 43.1473 30.8769 43.3094 30.3829 43.2354C29.9957 43.1774 29.5994 43.1469 29.1954 43.1469C25.5772 43.1469 22.5231 45.5559 21.5465 48.8575C21.347 49.5316 20.7371 50 20.034 50H23.0759C23.7789 50 24.3889 49.5316 24.5884 48.8575C25.5649 45.5559 28.6194 43.1469 32.2376 43.1469C32.6412 43.1469 33.0376 43.177 33.4248 43.2354C33.9188 43.3094 34.4185 43.1473 34.7725 42.7948C35.7418 41.8274 36.7115 40.86 37.6816 39.893C38.3404 39.2357 38.2904 38.1508 37.5683 37.5637Z" fill="#FF9A00"/>
<path d="M3.7796 43.2007C3.8414 43.2625 3.90358 43.3243 3.96538 43.3861C4.10461 43.3514 4.24576 43.3205 4.38766 43.293C4.18777 43.2545 3.98483 43.2243 3.7796 43.2007Z" fill="#FFBC19"/>
<path d="M19.833 11.8977C19.833 12.318 19.4923 12.6583 19.0723 12.6583C18.6524 12.6583 18.3117 12.318 18.3117 11.8977C18.3117 11.4777 18.6524 11.1374 19.0723 11.1374C19.4923 11.1374 19.833 11.4777 19.833 11.8977Z" fill="#FF633E"/>
<path d="M19.0723 14.1792C18.6524 14.1792 18.3117 14.5191 18.3117 14.9398C18.3117 15.3595 18.6524 15.7001 19.0723 15.7001C19.492 15.7001 19.833 15.3595 19.833 14.9398C19.833 14.5191 19.492 14.1792 19.0723 14.1792Z" fill="#FF633E"/>
<path d="M19.833 8.85585C19.833 9.27585 19.4923 9.6165 19.0723 9.6165C18.6524 9.6165 18.3117 9.27585 18.3117 8.85585C18.3117 8.43585 18.6524 8.09558 19.0723 8.09558C19.4923 8.09558 19.833 8.43585 19.833 8.85585Z" fill="#FF633E"/>
<path d="M19.833 17.9817C19.833 18.4017 19.4923 18.7424 19.0723 18.7424C18.6524 18.7424 18.3117 18.4017 18.3117 17.9817C18.3117 17.5617 18.6524 17.2211 19.0723 17.2211C19.4923 17.2211 19.833 17.5617 19.833 17.9817Z" fill="#FF633E"/>
<path d="M19.833 21.0236C19.833 21.4436 19.4923 21.7842 19.0723 21.7842C18.6524 21.7842 18.3117 21.4436 18.3117 21.0236C18.3117 20.6036 18.6524 20.2633 19.0723 20.2633C19.4923 20.2633 19.833 20.6036 19.833 21.0236Z" fill="#FF633E"/>
<path d="M19.0723 33.952C19.492 33.952 19.833 33.6113 19.833 33.1913C19.833 32.7705 19.492 32.431 19.0723 32.431C18.6524 32.431 18.3117 32.7705 18.3117 33.1913C18.3117 33.6113 18.6524 33.952 19.0723 33.952Z" fill="#FF633E"/>
<path d="M19.833 36.2336C19.833 36.6535 19.4923 36.9938 19.0723 36.9938C18.6524 36.9938 18.3117 36.6535 18.3117 36.2336C18.3117 35.8136 18.6524 35.4729 19.0723 35.4729C19.4923 35.4729 19.833 35.8136 19.833 36.2336Z" fill="#FF633E"/>
<path d="M19.833 39.2754C19.833 39.6954 19.4923 40.0356 19.0723 40.0356C18.6524 40.0356 18.3117 39.6954 18.3117 39.2754C18.3117 38.8554 18.6524 38.5147 19.0723 38.5147C19.4923 38.5147 19.833 38.8554 19.833 39.2754Z" fill="#FF633E"/>
<path d="M19.833 30.1494C19.833 30.5694 19.4923 30.9101 19.0723 30.9101C18.6524 30.9101 18.3117 30.5694 18.3117 30.1494C18.3117 29.7294 18.6524 29.3892 19.0723 29.3892C19.4923 29.3892 19.833 29.7294 19.833 30.1494Z" fill="#FF633E"/>
<path d="M25.7485 23.3192H19.2173C19.1704 23.3105 19.1219 23.3051 19.0724 23.3051C19.0228 23.3051 18.9747 23.3101 18.9274 23.3192H12.3966C11.9763 23.3192 11.636 23.6599 11.636 24.0799C11.636 24.4999 11.9763 24.8401 12.3966 24.8401H25.7485C26.1685 24.8401 26.5087 24.4999 26.5087 24.0799C26.5087 23.6599 26.1685 23.3192 25.7485 23.3192Z" fill="#FF633E"/>
<path d="M22.5601 26.3909H19.3241C19.2451 26.363 19.1605 26.347 19.0723 26.347C18.9838 26.347 18.8995 26.363 18.8206 26.3909H15.5846C15.1646 26.3909 14.8239 26.7311 14.8239 27.1511C14.8239 27.5711 15.1646 27.9118 15.5846 27.9118H22.5601C22.9801 27.9118 23.3204 27.5711 23.3204 27.1511C23.3204 26.7311 22.9801 26.3909 22.5601 26.3909Z" fill="#FF633E"/>
<path d="M15.5846 6.57426H19.0693H19.0723H19.075H22.5601C22.9801 6.57426 23.3204 6.23361 23.3204 5.81361C23.3204 5.39362 22.9801 5.05334 22.5601 5.05334H15.5846C15.1642 5.05334 14.8239 5.39362 14.8239 5.81361C14.8239 6.23361 15.1646 6.57426 15.5846 6.57426Z" fill="#FF633E"/>
<path d="M22.5601 41.5852H19.276C19.2112 41.5672 19.1429 41.5569 19.0723 41.5569C19.0014 41.5569 18.9335 41.5672 18.8683 41.5852H15.5846C15.1642 41.5852 14.8239 41.9258 14.8239 42.3458C14.8239 42.7658 15.1642 43.1061 15.5846 43.1061H22.5601C22.9801 43.1061 23.3204 42.7658 23.3204 42.3458C23.3204 41.9258 22.9801 41.5852 22.5601 41.5852Z" fill="#FF633E"/>
</g>
<defs>
<clipPath id="clip0">
<rect width="38.1836" height="50" fill="white"/>
</clipPath>
</defs>
</svg>
