<svg width="41" height="50" viewBox="0 0 41 50" fill="none" xmlns="http://www.w3.org/2000/svg">
<g clip-path="url(#clip0)">
<path d="M18.4695 32.704H18.4694L17.1443 32.0803L17.0666 32.2456L8.68982 29.5081V29.5082L7.36472 28.8845L0.0604248 44.4055L7.27644 44.4999L11.9483 50L19.7945 33.3275L18.4695 32.704Z" fill="#FF9577"/>
<path d="M32.7405 28.8891L31.4134 29.5081V29.508L22.9819 32.2478L22.9031 32.0803L21.578 32.7039H21.5779L20.2529 33.3275L28.0991 50L32.771 44.4999L39.9786 44.4056L32.7405 28.8891Z" fill="#FF633E"/>
<path d="M37.5123 17.4886C37.5123 27.1315 29.6667 34.9771 20.0238 34.9771C10.3808 34.9771 2.53528 27.1315 2.53528 17.4886C2.53528 7.8456 10.3809 0 20.0238 0C29.6666 0 37.5123 7.8456 37.5123 17.4886Z" fill="#FFB74F"/>
<path d="M37.5123 17.4886C37.5123 27.1315 29.6667 34.9771 20.0237 34.9771V0C29.6667 0 37.5123 7.8456 37.5123 17.4886Z" fill="#FF9A00"/>
<path d="M25.7254 19.489L27.0717 27.3375L20.0238 23.6324L12.9759 27.3375L14.3222 19.489L8.62054 13.9318L16.5003 12.7866L20.0238 5.646L23.5473 12.7866L31.4271 13.9318L25.7254 19.489Z" fill="#FFEC97"/>
<path d="M25.7254 19.489L27.0717 27.3375L20.0237 23.6324V5.646L23.5473 12.7866L31.4271 13.9318L25.7254 19.489Z" fill="#FFDF48"/>
</g>
<defs>
<clipPath id="clip0">
<rect width="40.0391" height="50" fill="white"/>
</clipPath>
</defs>
</svg>
