<svg width="30" height="30" viewBox="0 0 30 30" fill="none" xmlns="http://www.w3.org/2000/svg">
<path d="M15 30C23.2843 30 30 23.2843 30 15C30 6.71573 23.2843 0 15 0C6.71573 0 0 6.71573 0 15C0 23.2843 6.71573 30 15 30Z" fill="url(#paint0_linear)"/>
<path d="M6.76157 15.7417C6.37443 15.3481 6.37958 14.7152 6.77307 14.3279L8.16475 12.9581C8.55752 12.5715 9.18904 12.5755 9.57681 12.9671L12.2461 15.6629C12.6361 16.0567 13.2719 16.0583 13.6638 15.6664L20.5481 8.78211C20.9363 8.39386 21.565 8.39126 21.9564 8.77629L23.2742 10.0725C23.6691 10.4609 23.673 11.0964 23.2829 11.4897L13.5997 21.2511C13.2074 21.6466 12.5675 21.6452 12.1768 21.248L6.76157 15.7417Z" fill="white"/>
<defs>
<linearGradient id="paint0_linear" x1="15" y1="0" x2="15" y2="30" gradientUnits="userSpaceOnUse">
<stop stop-color="#2CDB3D"/>
<stop offset="1" stop-color="#23C78C"/>
</linearGradient>
</defs>
</svg>
