<svg width="42" height="33" viewBox="0 0 42 33" fill="none" xmlns="http://www.w3.org/2000/svg">
<path d="M28.56 17.736C26.96 17.032 25.712 15.976 24.816 14.568C23.92 13.16 23.472 11.496 23.472 9.576C23.472 6.824 24.336 4.584 26.064 2.856C27.792 1.192 30 0.360001 32.688 0.360001C35.376 0.360001 37.616 1.224 39.408 2.952C41.136 4.68 42 6.888 42 9.576C42 10.856 41.84 12.136 41.52 13.416C41.2 14.696 40.496 16.616 39.408 19.176L33.84 33H24.336L28.56 17.736ZM5.904 17.736C4.304 17.032 3.056 15.976 2.16 14.568C1.264 13.16 0.815998 11.496 0.815998 9.576C0.815998 6.824 1.68 4.584 3.408 2.856C5.136 1.192 7.344 0.360001 10.032 0.360001C12.72 0.360001 14.96 1.224 16.752 2.952C18.48 4.68 19.344 6.888 19.344 9.576C19.344 10.856 19.184 12.136 18.864 13.416C18.544 14.696 17.84 16.616 16.752 19.176L11.184 33H1.68L5.904 17.736Z" fill="white"/>
</svg>
