<svg width="42" height="33" viewBox="0 0 42 33" fill="none" xmlns="http://www.w3.org/2000/svg">
<path d="M13.44 15.264C15.04 15.968 16.288 17.024 17.184 18.432C18.08 19.84 18.528 21.504 18.528 23.424C18.528 26.176 17.664 28.416 15.936 30.144C14.208 31.808 12 32.64 9.312 32.64C6.624 32.64 4.384 31.776 2.592 30.048C0.864 28.32 0 26.112 0 23.424C0 22.144 0.16 20.864 0.48 19.584C0.8 18.304 1.504 16.384 2.592 13.824L8.16 0H17.664L13.44 15.264ZM36.096 15.264C37.696 15.968 38.944 17.024 39.84 18.432C40.736 19.84 41.184 21.504 41.184 23.424C41.184 26.176 40.32 28.416 38.592 30.144C36.864 31.808 34.656 32.64 31.968 32.64C29.28 32.64 27.04 31.776 25.248 30.048C23.52 28.32 22.656 26.112 22.656 23.424C22.656 22.144 22.816 20.864 23.136 19.584C23.456 18.304 24.16 16.384 25.248 13.824L30.816 0H40.32L36.096 15.264Z" fill="white"/>
</svg>
