<svg width="50" height="48" viewBox="0 0 50 48" fill="none" xmlns="http://www.w3.org/2000/svg">
<path d="M49.692 8.94743C49.3901 8.53353 48.908 8.28858 48.3958 8.28858H12.2996C12.2297 8.28858 12.1599 8.29284 12.0926 8.3019L10.6071 4.01963C10.4531 3.57675 10.1141 3.22372 9.67837 3.05218L2.19162 0.111102C1.3665 -0.211942 0.435407 0.193346 0.111356 1.01746C-0.212136 1.84202 0.19304 2.77367 1.01772 3.09772L7.81742 5.76891L16.1404 29.7593C15.773 29.8873 15.4617 30.1692 15.3199 30.5635L12.9135 37.2481C12.766 37.658 12.8268 38.1134 13.0778 38.4696C13.3284 38.8257 13.7361 39.0378 14.1713 39.0378H15.4071C14.6413 39.89 14.1713 41.0123 14.1713 42.2464C14.1713 44.9003 16.3307 47.0593 18.9842 47.0593C21.6377 47.0593 23.7971 44.9003 23.7971 42.2464C23.7971 41.0123 23.3271 39.89 22.5613 39.0378H33.0545C32.2883 39.89 31.8183 41.0123 31.8183 42.2464C31.8183 44.9003 33.9772 47.0593 36.6312 47.0593C39.2852 47.0593 41.4441 44.9003 41.4441 42.2464C41.4441 41.0123 40.9742 39.89 40.2084 39.0378H41.7115C42.45 39.0378 43.0484 38.4392 43.0484 37.7008C43.0484 36.9624 42.4498 36.364 41.7115 36.364H16.0736L17.5639 32.2243C17.7564 32.3053 17.9643 32.3532 18.1819 32.3532H41.7112C42.4088 32.3532 43.0261 31.9026 43.2386 31.2388L49.9232 10.3828C50.0799 9.89452 49.9939 9.36133 49.692 8.94743ZM18.9842 44.3854C17.8045 44.3854 16.8452 43.4261 16.8452 42.2464C16.8452 41.0667 17.8045 40.1073 18.9842 40.1073C20.1639 40.1073 21.1232 41.0667 21.1232 42.2464C21.1232 43.4261 20.1639 44.3854 18.9842 44.3854ZM36.6311 44.3854C35.4514 44.3854 34.492 43.4261 34.492 42.2464C34.492 41.0667 35.4514 40.1073 36.6311 40.1073C37.8107 40.1073 38.7701 41.0667 38.7701 42.2464C38.7701 43.4261 37.8107 44.3854 36.6311 44.3854ZM45.0405 15.1069H36.854V11.4972H46.1972L45.0405 15.1069ZM42.6831 22.4598H36.854V18.3154H44.0117L42.6831 22.4598ZM26.2476 22.4598V18.3154H33.6454V22.4598H26.2476ZM33.6454 25.6686V29.1446H26.2476V25.6686H33.6454ZM15.5665 18.3154H23.0393V22.4598H17.0044L15.5665 18.3154ZM26.2476 15.1069V11.4972H33.6454V15.1069H26.2476ZM23.0392 11.4972V15.1069H14.453L13.2007 11.4972H23.0392ZM18.1178 25.6686H23.0392V29.1446H19.3236L18.1178 25.6686ZM36.854 29.1447V25.6687H41.6554L40.5415 29.1447H36.854Z" fill="white"/>
</svg>
