<svg width="392" height="100" viewBox="0 0 392 100" fill="none" xmlns="http://www.w3.org/2000/svg">
<path d="M379.83 17.7644C376.515 13.8341 370.619 13.3507 366.742 16.6523C365.797 17.4433 365.018 18.4138 364.449 19.5078C363.881 20.6018 363.535 21.7975 363.432 23.0258C363.329 24.2542 363.47 25.4909 363.847 26.6645C364.224 27.838 364.83 28.9252 365.63 29.8631C370.382 35.4955 373.004 42.6182 373.038 49.9871C373.012 67.2712 359.001 81.2819 341.802 81.2234C337.693 81.2623 333.619 80.4733 329.822 78.9034C326.026 77.3335 322.584 75.0149 319.703 72.086C313.798 66.2328 310.55 58.3918 310.568 49.9871C310.552 45.9003 311.352 41.8514 312.92 38.0776C314.489 34.3038 316.795 30.881 319.703 28.0096C322.584 25.0803 326.025 22.7617 329.822 21.1921C333.619 19.6226 337.693 18.8343 341.802 18.8743C344.893 18.8158 347.963 19.2689 350.939 20.1078C355.838 21.6709 361.056 18.8895 362.546 13.9339C362.907 12.7666 363.034 11.5394 362.919 10.3229C362.804 9.1064 362.449 7.92471 361.875 6.84596C361.301 5.76722 360.519 4.81274 359.575 4.03757C358.63 3.26241 357.542 2.68187 356.372 2.32945C351.652 0.871721 346.741 0.12288 341.802 0.107422C314.259 0.133436 291.868 22.525 291.922 49.9871C291.868 63.38 297.06 75.9144 306.492 85.2989C315.916 94.7702 328.45 99.9621 341.802 99.9903C355.114 99.96 367.649 94.7702 377.113 85.2989C386.502 75.9144 391.694 63.38 391.681 49.9871C391.683 38.1795 387.482 26.7568 379.83 17.7644Z" fill="#393A4F"/>
<path d="M284.096 63.1979C279.728 60.4642 273.978 61.8603 271.256 66.2849C265.569 75.6694 255.587 81.2798 244.587 81.2256C236.256 81.2798 228.415 78.0324 222.488 72.0882C216.615 66.235 213.366 58.3918 213.351 49.9893C213.349 45.9044 214.156 41.8596 215.724 38.0877C217.292 34.3158 219.591 30.8915 222.488 28.0118C228.413 22.0654 236.256 18.818 244.587 18.8765C254.99 18.818 264.674 23.9688 270.514 32.5794C271.197 33.6002 272.076 34.475 273.1 35.1528C274.124 35.8307 275.273 36.2981 276.479 36.5279C277.686 36.7577 278.926 36.7452 280.127 36.4913C281.329 36.2373 282.468 35.7469 283.478 35.0486C287.744 32.2152 288.867 26.4098 285.947 22.0849C281.374 15.3204 275.212 9.78015 268.001 5.9491C260.79 2.11804 252.75 0.113042 244.585 0.109619C217.075 0.133465 194.686 22.525 194.709 49.9871C194.686 63.38 199.877 75.9144 209.277 85.2989C218.733 94.768 231.268 99.9622 244.589 99.9903C262.162 99.96 278.106 90.9982 287.311 76.038C289.934 71.5787 288.54 65.8318 284.096 63.1979Z" fill="#393A4F"/>
<path d="M186.387 63.1979C185.344 62.5481 184.182 62.1123 182.969 61.9158C181.756 61.7193 180.515 61.766 179.321 62.0533C178.126 62.3406 177 62.8626 176.009 63.5891C175.017 64.3156 174.181 65.2319 173.547 66.2849C167.802 75.6694 157.821 81.2819 146.878 81.2256C138.486 81.2819 130.643 78.0323 124.779 72.0881C118.848 66.235 115.598 58.3939 115.642 49.9892C115.613 45.9004 116.408 41.8477 117.977 38.0721C119.547 34.2965 121.86 30.8752 124.779 28.0118C130.645 22.0654 138.489 18.818 146.878 18.8765C151.976 18.853 157.001 20.092 161.503 22.4831C166.006 24.8741 169.846 28.3427 172.682 32.5794C175.621 36.8695 181.427 37.9925 185.645 35.0485C189.977 32.2152 191.102 26.4119 188.238 22.0849C183.655 15.3302 177.492 9.79722 170.284 5.96701C163.075 2.13679 155.041 0.125299 146.878 0.107422C119.308 0.133436 96.9159 22.525 96.8748 49.9871C96.9159 63.38 102.108 75.9144 111.566 85.2989C120.964 94.7702 133.496 99.9621 146.878 99.9903C164.39 99.96 180.336 90.9981 189.474 76.0379C192.166 71.5787 190.77 65.8318 186.387 63.1979Z" fill="#393A4F"/>
<path d="M89.5406 63.1979C85.1638 60.4642 79.4147 61.8603 76.7006 66.2849C71.0057 75.6694 61.025 81.2797 50.0319 81.2255C44.8192 81.2763 39.679 80.0023 35.0934 77.5229L85.4651 34.06C89.2025 30.7909 89.7943 25.2369 86.8243 21.3435C81.9137 14.8058 75.4727 9.57398 68.0671 6.10783C60.6616 2.64167 52.5181 1.0472 44.3522 1.46449C38.718 1.79617 33.2312 3.02316 28.0544 5.16932C23.2722 7.10085 20.9851 12.553 22.9925 17.2702C23.4401 18.4101 24.1097 19.4499 24.9623 20.3291C25.8149 21.2082 26.8336 21.9094 27.9593 22.3918C29.085 22.8741 30.2953 23.1282 31.5199 23.1391C32.7446 23.1501 33.9592 22.9178 35.0934 22.4556C38.3583 21.1197 41.8198 20.3267 45.3407 20.1078C52.746 19.7675 59.9259 22.0372 65.7118 26.4054L22.1297 64.0628C19.9274 59.6982 18.7851 54.8758 18.7956 49.9871C18.8005 44.2781 20.3811 38.6811 23.3632 33.8129C26.021 29.423 24.6249 23.6761 20.2762 20.9728C15.8127 18.3085 10.0657 19.7025 7.43615 24.0598C2.64836 31.8585 0.126226 40.8361 0.152238 49.9871C0.11972 63.38 5.31168 75.9144 14.7201 85.2989C24.1675 94.768 36.7041 99.9621 50.0319 99.9903C67.5978 99.96 83.5401 90.9981 92.6276 76.0379C95.3699 71.5787 93.9739 65.8318 89.5406 63.1979Z" fill="#393A4F"/>
</svg>
