<svg width="520" height="87" viewBox="0 0 520 87" fill="none" xmlns="http://www.w3.org/2000/svg">
<path d="M71.8555 43.3477C71.8555 57.4492 67.832 68.25 59.7852 75.75C51.7773 83.25 40.1953 87 25.0391 87H0.78125V1.33594H27.6758C41.6602 1.33594 52.5195 5.02734 60.2539 12.4102C67.9883 19.793 71.8555 30.1055 71.8555 43.3477ZM52.9883 43.8164C52.9883 25.418 44.8633 16.2188 28.6133 16.2188H18.9453V72H26.7383C44.2383 72 52.9883 62.6055 52.9883 43.8164ZM142.051 87L135.84 66.6094H104.609L98.3984 87H78.8281L109.062 0.984375H131.27L161.621 87H142.051ZM131.504 51.375C125.762 32.8984 122.52 22.4492 121.777 20.0273C121.074 17.6055 120.566 15.6914 120.254 14.2852C118.965 19.2852 115.273 31.6484 109.18 51.375H131.504ZM208.73 87L188.105 19.793H187.578C188.32 33.4648 188.691 42.5859 188.691 47.1562V87H172.461V1.33594H197.188L217.461 66.8438H217.812L239.316 1.33594H264.043V87H247.109V46.4531C247.109 44.5391 247.129 42.332 247.168 39.832C247.246 37.332 247.52 30.6914 247.988 19.9102H247.461L225.371 87H208.73ZM338.105 87L331.895 66.6094H300.664L294.453 87H274.883L305.117 0.984375H327.324L357.676 87H338.105ZM327.559 51.375C321.816 32.8984 318.574 22.4492 317.832 20.0273C317.129 17.6055 316.621 15.6914 316.309 14.2852C315.02 19.2852 311.328 31.6484 305.234 51.375H327.559ZM386.68 39.3633H392.539C398.281 39.3633 402.52 38.4062 405.254 36.4922C407.988 34.5781 409.355 31.5703 409.355 27.4688C409.355 23.4063 407.949 20.5156 405.137 18.7969C402.363 17.0781 398.047 16.2188 392.188 16.2188H386.68V39.3633ZM386.68 54.1289V87H368.516V1.33594H393.477C405.117 1.33594 413.73 3.46484 419.316 7.72266C424.902 11.9414 427.695 18.3672 427.695 27C427.695 32.0391 426.309 36.5312 423.535 40.4766C420.762 44.3828 416.836 47.4492 411.758 49.6758C424.648 68.9336 433.047 81.375 436.953 87H416.797L396.348 54.1289H386.68ZM500.176 87L493.965 66.6094H462.734L456.523 87H436.953L467.188 0.984375H489.395L519.746 87H500.176ZM489.629 51.375C483.887 32.8984 480.645 22.4492 479.902 20.0273C479.199 17.6055 478.691 15.6914 478.379 14.2852C477.09 19.2852 473.398 31.6484 467.305 51.375H489.629Z" fill="#E4B69E"/>
</svg>
