<svg width="957" height="186" viewBox="0 0 957 186" fill="none" xmlns="http://www.w3.org/2000/svg">
<g filter="url(#filter0_d)">
<path d="M50.4618 90.7343C44.1395 90.3182 39.746 88.3695 37.2813 84.8882C34.8676 81.3621 33.8672 76.4618 34.2801 70.1874L35.6606 49.2088C36.083 42.7906 37.7185 38.0398 40.5671 34.9562C43.4189 31.8247 48.0299 30.4685 54.4001 30.8877C60.483 31.288 64.6975 33.0325 67.0438 36.1213C69.39 39.21 70.3866 43.4366 70.0336 48.801L69.7027 53.8301L57.1299 53.0027L57.5128 47.1833C57.661 44.9322 57.5349 43.1921 57.1348 41.9632C56.7346 40.7343 55.6245 40.0599 53.8044 39.9401C51.9844 39.8204 50.7444 40.3882 50.0845 41.6436C49.4278 42.851 49.0254 44.5804 48.8773 46.8315L47.076 74.2043C46.9247 76.5033 47.0954 78.2944 47.5882 79.5775C48.1321 80.8159 49.2901 81.4934 51.0623 81.61C52.8344 81.7266 53.9994 81.202 54.5572 80.0361C55.166 78.8255 55.546 77.0706 55.6973 74.7716L56.0992 68.6648L68.672 69.4922L68.341 74.5213C67.9817 79.9815 66.432 84.1608 63.6917 87.0591C60.9546 89.9095 56.5447 91.1346 50.4618 90.7343ZM73.6366 94.3519C77.3662 94.6935 80.195 94.4708 82.1228 93.6837C84.0507 92.8966 85.0918 91.3295 85.2462 88.9826C85.2935 88.2642 85.2337 87.3463 85.0667 86.2289L75.4328 33.0655L87.359 33.8504L90.8138 58.1056L92.1587 73.8519L94.9137 58.3032L100.722 34.7297L112.792 35.524L97.1526 88.9724C95.9016 93.3637 94.4148 96.5851 92.6924 98.6364C90.9668 100.736 88.618 102.072 85.6459 102.646C82.7217 103.224 78.5326 103.285 73.0787 102.83L73.6366 94.3519ZM117.944 35.863L152.789 38.1561L148.959 96.3502L136.315 95.5181L139.539 46.5201L129.984 45.8913L126.759 94.8893L114.115 94.0572L117.944 35.863ZM161.444 38.7256L187.595 40.4466L187.018 49.2116L173.727 48.3369L172.777 62.7777L182.907 63.4443L182.321 72.3531L172.191 71.6864L171.046 89.0728L184.481 89.9569L183.909 98.6501L157.614 96.9198L161.444 38.7256ZM193.577 40.8402L213.119 42.1262C218.244 42.4634 221.98 44.1764 224.326 47.2652C226.675 50.306 227.67 54.5565 227.311 60.0167C226.901 66.2432 225.131 70.4802 222.001 72.7275C218.922 74.93 214.724 75.8564 209.407 75.5065L204.234 75.1661L202.608 99.8806L189.748 99.0344L193.577 40.8402ZM209.136 66.4692C211.387 66.6173 212.911 66.1163 213.709 64.9662C214.554 63.8192 215.069 61.8328 215.255 59.0069C215.425 56.4205 215.192 54.481 214.556 53.1884C213.919 51.8958 212.428 51.1723 210.081 51.0179L205.842 50.7389L204.825 66.1855L209.136 66.4692ZM261.194 45.2898L275.85 46.2543L282.869 105.162L271.015 104.382L269.883 91.9692L261.334 91.4066L258.514 103.56L246.372 102.761L261.194 45.2898ZM269.168 84.2014L267.573 61.2952L262.989 83.7948L269.168 84.2014ZM292.79 47.369L305.65 48.2153L304.132 71.2775L305.425 71.3626L315.493 48.863L328.281 49.7046L315.851 76.3058L324.811 107.922L311.591 107.052L304.782 81.1334L303.489 81.0483L301.82 106.409L288.96 105.563L292.79 47.369ZM362.404 110.396L330.074 108.269L333.904 50.0746L346.764 50.9209L343.507 100.422L353.277 101.065L356.535 51.5639L369.395 52.4102L366.138 101.911L374.041 102.431L372.641 123.697L363.229 123.078L362.404 110.396ZM383.157 53.3158L393.287 53.9824L391.093 87.3183L408.159 54.9611L416.493 55.5095L412.663 113.704L402.317 113.023L404.549 79.1122L387.158 112.025L379.327 111.51L383.157 53.3158ZM430.663 88.9121C428.455 87.3718 426.742 85.2627 425.523 82.5849C424.355 79.8624 423.882 76.8247 424.102 73.472C424.525 67.0539 426.449 62.6588 429.877 60.2867C433.352 57.9177 438.394 56.9508 445.004 57.3857L459.947 58.3691L456.118 116.563L443.33 115.722L444.842 92.7314L442.543 92.5801L441.753 92.5281L431.763 114.961L417.897 114.048L430.663 88.9121ZM445.438 83.679L446.578 66.3645L444.566 66.2321C439.297 65.8854 436.474 68.5858 436.096 74.3334C435.714 80.1288 438.206 83.2031 443.57 83.5561L445.438 83.679ZM499.415 120.134C493.332 119.734 489.117 117.989 486.771 114.901C484.428 111.764 483.431 107.537 483.781 102.221L483.985 99.1315L496.557 99.9589L496.307 103.767C496.156 106.066 496.28 107.83 496.68 109.059C497.083 110.24 498.195 110.89 500.015 111.01C501.835 111.13 503.05 110.584 503.659 109.373C504.318 108.118 504.724 106.341 504.875 104.042L505.547 93.8399L495.919 93.2064L496.345 86.7404L505.972 87.3739L506.672 76.7409C506.823 74.4419 506.627 72.6732 506.083 71.4348C505.59 70.1517 504.482 69.4534 502.757 69.3399C500.985 69.2233 499.795 69.7703 499.186 70.9809C498.628 72.1468 498.274 73.8793 498.122 76.1783L497.858 80.2016L485.285 79.3742L485.474 76.5004C485.833 71.0402 487.383 66.861 490.123 63.9627C492.863 61.0644 497.275 59.8153 503.358 60.2156C509.68 60.6317 514.048 62.6028 516.462 66.1289C518.927 69.6102 519.951 74.5121 519.535 80.8344L518.159 101.741C517.737 108.159 516.076 112.933 513.176 116.061C510.324 119.192 505.737 120.55 499.415 120.134ZM533.211 72.787L524.446 72.2102L525.075 62.6549L555.465 64.6548L554.836 74.2101L546.143 73.6381L542.942 122.277L530.01 121.426L533.211 72.787ZM573.37 125.145C567.095 124.732 562.723 122.833 560.252 119.447C557.784 116.014 556.758 111.136 557.174 104.814L558.597 83.1885C559.013 76.8662 560.666 72.2127 563.556 69.228C566.45 66.1955 571.034 64.8856 577.308 65.2985C583.631 65.7146 588.027 67.6154 590.498 71.0009C593.017 74.3897 594.07 79.2212 593.657 85.4957L592.234 107.121C591.818 113.443 590.138 118.143 587.193 121.22C584.3 124.253 579.692 125.561 573.37 125.145ZM573.97 116.021C575.79 116.141 577.027 115.621 577.681 114.461C578.337 113.254 578.735 111.596 578.874 109.489L580.718 81.4693C580.86 79.314 580.682 77.6187 580.187 76.3835C579.691 75.1482 578.533 74.4707 576.712 74.3509C574.988 74.2375 573.798 74.7845 573.141 75.992C572.487 77.1516 572.091 78.7851 571.953 80.8925L570.109 108.912C569.97 111.019 570.123 112.713 570.568 113.993C571.016 115.225 572.15 115.901 573.97 116.021ZM602.9 67.7764L629.842 69.5493L629.213 79.1046L615.132 78.178L611.931 126.817L599.071 125.97L602.9 67.7764ZM648.723 130.104C642.448 129.691 638.075 127.792 635.604 124.406C633.137 120.973 632.111 116.095 632.527 109.772L633.95 88.1472C634.366 81.8249 636.019 77.1714 638.909 74.1867C641.803 71.1542 646.386 69.8443 652.661 70.2572C658.983 70.6733 663.38 72.5741 665.851 75.9596C668.37 79.3484 669.423 84.1799 669.01 90.4544L667.587 112.08C667.171 118.402 665.491 123.102 662.546 126.179C659.653 129.212 655.045 130.52 648.723 130.104ZM649.323 120.98C651.143 121.099 652.38 120.579 653.033 119.42C653.69 118.212 654.088 116.555 654.226 114.447L656.07 86.428C656.212 84.2727 656.035 82.5774 655.539 81.3422C655.043 80.1069 653.885 79.4294 652.065 79.3096C650.341 79.1962 649.15 79.7432 648.494 80.9507C647.84 82.1103 647.444 83.7438 647.305 85.8512L645.461 113.871C645.323 115.978 645.476 117.672 645.921 118.952C646.369 120.184 647.503 120.86 649.323 120.98ZM709.201 134.084C702.879 133.668 698.485 131.719 696.021 128.238C693.607 124.711 692.606 119.811 693.019 113.537L694.4 92.5581C694.822 86.14 696.458 81.3892 699.306 78.3056C702.158 75.1741 706.769 73.8179 713.139 74.2371C719.222 74.6374 723.437 76.3819 725.783 79.4706C728.129 82.5594 729.126 86.7859 728.773 92.1503L728.442 97.1795L715.869 96.3521L716.252 90.5327C716.4 88.2815 716.274 86.5415 715.874 85.3126C715.474 84.0837 714.364 83.4093 712.544 83.2895C710.724 83.1698 709.484 83.7376 708.824 84.9929C708.167 86.2004 707.765 87.9297 707.617 90.1809L705.815 117.554C705.664 119.853 705.835 121.644 706.328 122.927C706.871 124.165 708.029 124.843 709.802 124.959C711.574 125.076 712.739 124.551 713.296 123.385C713.905 122.175 714.285 120.42 714.437 118.121L714.838 112.014L727.411 112.842L727.08 117.871C726.721 123.331 725.171 127.51 722.431 130.408C719.694 133.259 715.284 134.484 709.201 134.084ZM736.902 76.5946L763.054 78.3155L762.477 87.0806L749.186 86.2059L748.235 100.647L758.365 101.313L757.779 110.222L747.649 109.555L746.505 126.942L759.94 127.826L759.368 136.519L733.073 134.789L736.902 76.5946ZM779.935 138.955C774.14 138.574 770.125 136.722 767.89 133.4C765.655 130.078 764.73 125.495 765.115 119.652L765.252 117.569L777.322 118.363L777.175 120.59C776.983 123.512 777.135 125.59 777.631 126.825C778.175 128.064 779.237 128.735 780.818 128.839C782.35 128.94 783.419 128.409 784.025 127.246C784.679 126.087 785.095 124.142 785.275 121.412C785.48 118.298 785.149 116.016 784.282 114.564C783.467 113.067 781.768 112.21 779.184 111.991C779.044 111.934 777.968 111.839 775.956 111.707L776.471 103.876L779.417 104.07C782.102 104.198 783.97 103.6 785.019 102.274C786.116 100.951 786.767 98.7327 786.972 95.6195C787.123 93.3204 786.878 91.5725 786.235 90.3757C785.595 89.131 784.485 88.4567 782.905 88.3527C781.42 88.255 780.303 88.7828 779.553 89.936C778.852 91.0925 778.403 92.7947 778.207 95.0427L777.994 98.2757L765.924 97.4814L766.156 93.961C766.497 88.7882 768.221 84.885 771.328 82.2513C774.484 79.6209 778.576 78.4711 783.605 78.8021C788.73 79.1393 792.617 80.742 795.267 83.6102C797.964 86.4815 799.144 90.4796 798.807 95.6045C798.589 98.9094 797.733 101.691 796.237 103.95C794.742 106.208 792.945 107.557 790.848 107.997C793.042 109.007 794.693 110.607 795.799 112.796C796.909 114.938 797.336 117.948 797.081 121.828C796.706 127.527 795.144 131.898 792.394 134.94C789.644 137.982 785.491 139.321 779.935 138.955ZM819.634 141.351C813.36 140.938 808.987 139.039 806.516 135.653C804.048 132.22 803.022 127.342 803.438 121.02L804.861 99.3943C805.277 93.072 806.931 88.4185 809.821 85.4338C812.714 82.4013 817.298 81.0914 823.572 81.5043C829.895 81.9204 834.291 83.8212 836.762 87.2068C839.281 90.5955 840.334 95.427 839.921 101.701L838.498 123.327C838.082 129.649 836.402 134.349 833.458 137.426C830.564 140.459 825.956 141.767 819.634 141.351ZM820.235 132.227C822.055 132.346 823.291 131.826 823.945 130.667C824.602 129.459 824.999 127.802 825.138 125.695L826.982 97.6751C827.124 95.5198 826.947 93.8245 826.451 92.5893C825.955 91.354 824.797 90.6765 822.977 90.5567C821.252 90.4433 820.062 90.9903 819.405 92.1978C818.752 93.3574 818.356 94.9909 818.217 97.0983L816.373 125.118C816.234 127.225 816.387 128.919 816.832 130.199C817.28 131.431 818.415 132.107 820.235 132.227ZM849.164 83.9822L862.025 84.8285L860.474 108.393L869.454 108.984L871.005 85.4194L883.937 86.2704L880.108 144.465L867.176 143.614L868.849 118.181L859.869 117.59L858.195 143.023L845.335 142.176L849.164 83.9822ZM900.99 87.3926L915.646 88.3571L922.665 147.265L910.811 146.485L909.679 134.072L901.13 133.509L898.31 145.662L886.168 144.863L900.99 87.3926ZM908.964 126.304L907.368 103.398L902.785 125.898L908.964 126.304Z" fill="#590B42"/>
<path d="M37.2813 84.8882L17.4767 98.4447C17.5481 98.549 17.6203 98.6528 17.6934 98.7559L37.2813 84.8882ZM40.5671 34.9562L58.1961 51.2418C58.2347 51.1999 58.2733 51.1579 58.3117 51.1157L40.5671 34.9562ZM69.7027 53.8301L68.1267 77.7783C81.3529 78.6487 92.7805 68.6323 93.6509 55.406L69.7027 53.8301ZM57.1299 53.0027L33.1817 51.4268C32.3113 64.653 42.3277 76.0805 55.5539 76.9509L57.1299 53.0027ZM57.1348 41.9632L34.3141 49.3941L34.3141 49.3941L57.1348 41.9632ZM50.0845 41.6436L71.1681 53.1101C71.2223 53.0105 71.2758 52.9104 71.3286 52.81L50.0845 41.6436ZM47.5882 79.5775L25.1838 88.1823C25.319 88.5342 25.4624 88.8828 25.6139 89.2279L47.5882 79.5775ZM54.5572 80.0361L33.1157 69.2535C33.0448 69.3946 32.9752 69.5363 32.9071 69.6788L54.5572 80.0361ZM56.0992 68.6648L57.6751 44.7166C44.4489 43.8463 33.0214 53.8627 32.151 67.0889L56.0992 68.6648ZM68.672 69.4922L92.6202 71.0682C93.4906 57.8419 83.4742 46.4144 70.2479 45.544L68.672 69.4922ZM63.6917 87.0591L81.003 103.682C81.0459 103.637 81.0887 103.592 81.1312 103.547L63.6917 87.0591ZM52.0378 66.7861C50.8466 66.7077 51.0985 66.553 52.1557 67.0219C53.3991 67.5734 55.2976 68.8006 56.8692 71.0204L17.6934 98.7559C26.0489 110.558 38.9426 114.028 48.8859 114.682L52.0378 66.7861ZM57.0858 71.3317C57.9686 72.6213 58.2032 73.6086 58.2357 73.7678C58.25 73.8378 58.2205 73.7202 58.2023 73.3755C58.1842 73.0308 58.1797 72.5014 58.2283 71.7633L10.3319 68.6114C9.72624 77.8152 10.8862 88.8167 17.4767 98.4447L57.0858 71.3317ZM58.2283 71.7633L59.6088 50.7847L11.7124 47.6328L10.3319 68.6114L58.2283 71.7633ZM59.6088 50.7847C59.6611 49.9907 59.7397 49.425 59.8076 49.0565C59.8756 48.6872 59.9235 48.5672 59.897 48.6441C59.8415 48.8053 59.4277 49.9085 58.1961 51.2418L22.9382 18.6706C14.833 27.4443 12.3129 38.5077 11.7124 47.6328L59.6088 50.7847ZM58.3117 51.1157C56.3947 53.2207 54.2665 54.224 52.9361 54.6152C51.8089 54.9468 51.5847 54.7544 52.8242 54.8359L55.9761 6.93953C46.1009 6.28967 32.6792 7.97327 22.8226 18.7966L58.3117 51.1157ZM52.8242 54.8359C54.0747 54.9182 53.9175 55.0745 52.9442 54.6717C51.8179 54.2055 49.7538 53.0365 47.9323 50.6386L86.1552 21.6039C77.6981 10.4705 65.0638 7.53756 55.9761 6.93953L52.8242 54.8359ZM47.9323 50.6386C46.845 49.2071 46.3712 47.878 46.1915 47.1158C46.0311 46.4353 46.1411 46.3789 46.0854 47.225L93.9818 50.3769C94.5683 41.464 93.1468 30.808 86.1552 21.6039L47.9323 50.6386ZM46.0854 47.225L45.7545 52.2541L93.6509 55.406L93.9818 50.3769L46.0854 47.225ZM71.2786 29.8819L58.7058 29.0545L55.5539 76.9509L68.1267 77.7783L71.2786 29.8819ZM81.0781 54.5787L81.461 48.7592L33.5646 45.6073L33.1817 51.4268L81.0781 54.5787ZM81.461 48.7592C81.6827 45.39 81.7564 40.0631 79.9554 34.5323L34.3141 49.3941C33.7453 47.6471 33.624 46.3642 33.5921 45.9235C33.5562 45.4273 33.586 45.283 33.5646 45.6073L81.461 48.7592ZM79.9554 34.5323C75.2608 20.1149 62.1934 16.4403 55.3804 15.9919L52.2285 63.8883C50.7526 63.7912 47.3465 63.359 43.5418 61.0477C39.2168 58.4205 35.9014 54.2687 34.3141 49.3941L79.9554 34.5323ZM55.3804 15.9919C51.7852 15.7554 46.7724 16.0487 41.5171 18.4552C35.8684 21.0419 31.5337 25.3533 28.8404 30.4772L71.3286 52.81C69.2953 56.6785 65.9104 60.0783 61.5017 62.0971C57.4864 63.9358 54.0036 64.0052 52.2285 63.8883L55.3804 15.9919ZM29.001 30.177C25.9526 35.782 25.1768 41.4912 24.9291 45.2555L72.8255 48.4074C72.8356 48.2529 72.8266 48.5941 72.6656 49.2858C72.5118 49.9468 72.1206 51.3588 71.1681 53.1101L29.001 30.177ZM24.9291 45.2555L23.1278 72.6283L71.0242 75.7802L72.8255 48.4074L24.9291 45.2555ZM23.1278 72.6283C22.8827 76.3524 22.8772 82.1764 25.1838 88.1823L69.9926 70.9727C70.7242 72.8774 70.9208 74.3501 70.9822 74.9941C71.0473 75.6767 71.0108 75.9827 71.0242 75.7802L23.1278 72.6283ZM25.6139 89.2279C30.9075 101.282 42.0461 105.069 49.4863 105.558L52.6382 57.6618C54.3164 57.7723 57.4793 58.2488 60.9842 60.2993C64.813 62.5393 67.8166 65.9515 69.5626 69.9271L25.6139 89.2279ZM49.4863 105.558C52.8467 105.779 57.8306 105.569 63.1201 103.187C68.9375 100.567 73.5126 96.0261 76.2072 90.3935L32.9071 69.6788C35.044 65.212 38.7577 61.5159 43.4101 59.4207C47.5346 57.5633 51.05 57.5573 52.6382 57.6618L49.4863 105.558ZM75.9986 90.8187C78.7215 85.4041 79.4105 79.9191 79.6455 76.3476L31.7491 73.1957C31.7305 73.4784 31.7242 73.2786 31.8426 72.732C31.9513 72.23 32.2715 70.9323 33.1157 69.2535L75.9986 90.8187ZM79.6455 76.3476L80.0474 70.2408L32.151 67.0889L31.7491 73.1957L79.6455 76.3476ZM54.5232 92.613L67.096 93.4404L70.2479 45.544L57.6751 44.7166L54.5232 92.613ZM44.7238 67.9163L44.3928 72.9454L92.2892 76.0973L92.6202 71.0682L44.7238 67.9163ZM44.3928 72.9454C44.3322 73.8662 44.2163 73.9196 44.4066 73.4064C44.6224 72.8245 45.1572 71.729 46.2522 70.5708L81.1312 103.547C88.926 95.3029 91.6988 85.0701 92.2892 76.0973L44.3928 72.9454ZM46.3805 70.4362C48.437 68.2945 50.6315 67.3459 51.9076 66.9914C53.0063 66.6862 53.2242 66.8642 52.0378 66.7861L48.8859 114.682C58.1844 115.294 71.2 113.891 81.003 103.682L46.3805 70.4362ZM73.6366 94.3519L75.8259 70.4519C69.381 69.8616 62.9709 71.8991 58.0497 76.1023C53.1285 80.3055 50.1134 86.318 49.6884 92.7759L73.6366 94.3519ZM82.1228 93.6837L73.051 71.4643L73.051 71.4643L82.1228 93.6837ZM85.0667 86.2289L108.803 82.6816C108.767 82.4369 108.726 82.1929 108.682 81.9495L85.0667 86.2289ZM75.4328 33.0655L77.0088 9.11733C69.6343 8.63204 62.4475 11.5714 57.5266 17.0853C52.6057 22.5993 50.4997 30.0729 51.8174 37.3449L75.4328 33.0655ZM87.359 33.8504L111.119 30.4661C109.518 19.2275 100.263 10.6476 88.935 9.90215L87.359 33.8504ZM90.8138 58.1056L114.727 56.0631C114.688 55.6145 114.637 55.1671 114.574 54.7213L90.8138 58.1056ZM92.1587 73.8519L68.2458 75.8943C69.2712 87.9002 79.0399 97.2845 91.0772 97.8275C103.115 98.3705 113.688 89.9038 115.791 78.039L92.1587 73.8519ZM94.9137 58.3032L71.6106 52.5614C71.4839 53.0758 71.3742 53.5943 71.2817 54.1161L94.9137 58.3032ZM100.722 34.7297L102.298 10.7815C90.6883 10.0175 80.2027 17.6909 77.4191 28.9879L100.722 34.7297ZM112.792 35.524L135.826 42.264C137.871 35.2761 136.633 27.7379 132.461 21.771C128.288 15.8042 121.633 12.0539 114.368 11.5758L112.792 35.524ZM97.1526 88.9724L74.1184 82.2324C74.1024 82.2871 74.0866 82.3419 74.071 82.3967L97.1526 88.9724ZM92.6924 98.6364L74.3124 83.2034C74.2587 83.2674 74.2053 83.3317 74.1522 83.3963L92.6924 98.6364ZM85.6459 102.646L81.0943 79.0819C81.0622 79.0881 81.0301 79.0944 80.9981 79.1007L85.6459 102.646ZM73.0787 102.83L49.1305 101.254C48.2709 114.316 58.0376 125.658 71.0829 126.746L73.0787 102.83ZM71.4473 118.252C76.4062 118.706 83.8846 118.888 91.1946 115.903L73.051 71.4643C74.0892 71.0404 74.9469 70.8139 75.5238 70.6914C76.1038 70.5683 76.5039 70.5283 76.6715 70.5151C76.9632 70.4921 76.7376 70.5354 75.8259 70.4519L71.4473 118.252ZM91.1946 115.903C96.1158 113.894 100.876 110.413 104.34 105.2C107.691 100.155 108.91 94.8799 109.194 90.5586L61.298 87.4067C61.428 85.4323 62.0493 82.1137 64.3596 78.6365C66.7822 74.9903 70.0577 72.6864 73.051 71.4643L91.1946 115.903ZM109.194 90.5586C109.399 87.4502 109.098 84.6529 108.803 82.6816L61.3303 89.7762C61.3366 89.8183 61.3095 89.6519 61.2877 89.317C61.2671 89.0022 61.2371 88.3321 61.298 87.4067L109.194 90.5586ZM108.682 81.9495L99.0482 28.7861L51.8174 37.3449L61.4513 90.5083L108.682 81.9495ZM73.8569 57.0137L85.7831 57.7986L88.935 9.90215L77.0088 9.11733L73.8569 57.0137ZM63.5988 37.2346L67.0536 61.4898L114.574 54.7213L111.119 30.4661L63.5988 37.2346ZM66.9009 60.148L68.2458 75.8943L116.072 71.8094L114.727 56.0631L66.9009 60.148ZM115.791 78.039L118.546 62.4904L71.2817 54.1161L68.5268 69.6647L115.791 78.039ZM118.217 64.045L124.025 40.4716L77.4191 28.9879L71.6106 52.5614L118.217 64.045ZM99.1462 58.6779L111.216 59.4722L114.368 11.5758L102.298 10.7815L99.1462 58.6779ZM89.7579 28.784L74.1184 82.2324L120.187 95.7124L135.826 42.264L89.7579 28.784ZM74.071 82.3967C73.8881 83.0386 73.7236 83.5425 73.5862 83.9245C73.4481 84.3087 73.3505 84.5329 73.3082 84.6247C73.2646 84.7191 73.3001 84.6284 73.4388 84.4006C73.5761 84.175 73.8552 83.748 74.3124 83.2034L111.072 114.069C115.985 108.218 118.62 101.214 120.234 95.5482L74.071 82.3967ZM74.1522 83.3963C75.1404 82.1941 76.3787 81.144 77.7664 80.3543C79.1232 79.5822 80.3151 79.2324 81.0943 79.0819L90.1975 126.211C97.9935 124.705 105.548 120.792 111.233 113.877L74.1522 83.3963ZM80.9981 79.1007C81.392 79.0229 81.1432 79.1104 79.9611 79.1276C78.8438 79.1439 77.2428 79.0936 75.0745 78.9126L71.0829 126.746C77.2346 127.26 84.0685 127.421 90.2937 126.192L80.9981 79.1007ZM97.0269 104.405L97.5848 95.9278L49.6884 92.7759L49.1305 101.254L97.0269 104.405ZM117.944 35.863L119.52 11.9148C106.294 11.0445 94.8662 21.0609 93.9959 34.2871L117.944 35.863ZM152.789 38.1561L176.737 39.732C177.607 26.5058 167.591 15.0782 154.365 14.2079L152.789 38.1561ZM148.959 96.3502L147.383 120.298C160.609 121.169 172.037 111.152 172.907 97.9261L148.959 96.3502ZM136.315 95.5181L112.366 93.9421C111.496 107.168 121.512 118.596 134.739 119.466L136.315 95.5181ZM139.539 46.5201L163.487 48.096C164.357 34.8698 154.341 23.4422 141.115 22.5719L139.539 46.5201ZM129.984 45.8913L131.56 21.9431C118.333 21.0727 106.906 31.0891 106.035 44.3153L129.984 45.8913ZM126.759 94.8893L125.183 118.837C138.409 119.708 149.837 109.691 150.707 96.4652L126.759 94.8893ZM114.115 94.0572L90.1663 92.4812C89.2959 105.707 99.3123 117.135 112.539 118.005L114.115 94.0572ZM116.368 59.8113L151.213 62.1043L154.365 14.2079L119.52 11.9148L116.368 59.8113ZM128.841 36.5801L125.011 94.7742L172.907 97.9261L176.737 39.732L128.841 36.5801ZM150.535 72.402L137.89 71.5699L134.739 119.466L147.383 120.298L150.535 72.402ZM160.263 97.094L163.487 48.096L115.591 44.9441L112.366 93.9421L160.263 97.094ZM141.115 22.5719L131.56 21.9431L128.408 69.8395L137.963 70.4683L141.115 22.5719ZM106.035 44.3153L102.811 93.3133L150.707 96.4652L153.932 47.4672L106.035 44.3153ZM128.335 70.9411L115.69 70.109L112.539 118.005L125.183 118.837L128.335 70.9411ZM138.063 95.6331L141.892 37.439L93.9959 34.2871L90.1663 92.4812L138.063 95.6331ZM161.444 38.7256L163.02 14.7774C149.793 13.907 138.366 23.9234 137.496 37.1497L161.444 38.7256ZM187.595 40.4466L211.543 42.0225C212.414 28.7963 202.397 17.3687 189.171 16.4983L187.595 40.4466ZM187.018 49.2116L185.442 73.1598C198.669 74.0302 210.096 64.0138 210.967 50.7875L187.018 49.2116ZM173.727 48.3369L175.303 24.3887C162.077 23.5184 150.649 33.5348 149.779 46.761L173.727 48.3369ZM172.777 62.7777L148.829 61.2018C147.958 74.428 157.975 85.8555 171.201 86.7259L172.777 62.7777ZM182.907 63.4443L206.855 65.0203C207.725 51.7941 197.709 40.3665 184.483 39.4961L182.907 63.4443ZM182.321 72.3531L180.745 96.3013C193.971 97.1716 205.398 87.1552 206.269 73.929L182.321 72.3531ZM172.191 71.6864L173.767 47.7382C160.54 46.8679 149.113 56.8843 148.242 70.1105L172.191 71.6864ZM171.046 89.0728L147.098 87.4969C146.228 100.723 156.244 112.151 169.47 113.021L171.046 89.0728ZM184.481 89.9569L208.43 91.5329C209.3 78.3067 199.284 66.8791 186.057 66.0087L184.481 89.9569ZM183.909 98.6501L182.333 122.598C195.56 123.469 206.987 113.452 207.858 100.226L183.909 98.6501ZM157.614 96.9198L133.666 95.3438C132.796 108.57 142.812 119.998 156.038 120.868L157.614 96.9198ZM159.868 62.6738L186.019 64.3948L189.171 16.4983L163.02 14.7774L159.868 62.6738ZM163.647 38.8706L163.07 47.6356L210.967 50.7875L211.543 42.0225L163.647 38.8706ZM188.594 25.2634L175.303 24.3887L172.151 72.2851L185.442 73.1598L188.594 25.2634ZM149.779 46.761L148.829 61.2018L196.725 64.3537L197.675 49.9129L149.779 46.761ZM171.201 86.7259L181.331 87.3925L184.483 39.4961L174.353 38.8295L171.201 86.7259ZM158.959 61.8684L158.372 70.7771L206.269 73.929L206.855 65.0203L158.959 61.8684ZM183.897 48.4049L173.767 47.7382L170.615 95.6346L180.745 96.3013L183.897 48.4049ZM148.242 70.1105L147.098 87.4969L194.995 90.6488L196.139 73.2624L148.242 70.1105ZM169.47 113.021L182.905 113.905L186.057 66.0087L172.622 65.1246L169.47 113.021ZM160.533 88.381L159.961 97.0742L207.858 100.226L208.43 91.5329L160.533 88.381ZM185.485 74.7019L159.19 72.9715L156.038 120.868L182.333 122.598L185.485 74.7019ZM181.562 98.4957L185.392 40.3016L137.496 37.1497L133.666 95.3438L181.562 98.4957ZM193.577 40.8402L195.153 16.892C181.927 16.0216 170.5 26.038 169.629 39.2643L193.577 40.8402ZM224.326 47.2652L205.214 61.7825C205.254 61.8347 205.294 61.8867 205.334 61.9386L224.326 47.2652ZM222.001 72.7275L235.963 92.2478C235.975 92.2398 235.986 92.2317 235.997 92.2236L222.001 72.7275ZM204.234 75.1661L205.81 51.2179C192.584 50.3475 181.157 60.3639 180.286 73.5901L204.234 75.1661ZM202.608 99.8806L201.032 123.829C214.258 124.699 225.686 114.683 226.556 101.457L202.608 99.8806ZM189.748 99.0344L165.8 97.4584C164.929 110.685 174.946 122.112 188.172 122.983L189.748 99.0344ZM213.709 64.9662L194.387 50.7295C194.25 50.9156 194.116 51.1036 193.984 51.2936L213.709 64.9662ZM214.556 53.1884L236.087 42.586L236.087 42.586L214.556 53.1884ZM205.842 50.7389L207.418 26.7907C194.192 25.9204 182.764 35.9368 181.894 49.163L205.842 50.7389ZM204.825 66.1855L180.877 64.6096C180.007 77.8358 190.023 89.2634 203.249 90.1337L204.825 66.1855ZM192.001 64.7884L211.543 66.0744L214.695 18.178L195.153 16.892L192.001 64.7884ZM211.543 66.0744C211.89 66.0972 211.12 66.1029 209.761 65.4795C208.259 64.7908 206.573 63.5708 205.214 61.7825L243.437 32.7479C235.631 22.4717 224.373 18.8149 214.695 18.178L211.543 66.0744ZM205.334 61.9386C204.14 60.3929 203.645 58.9693 203.466 58.2042C203.307 57.5242 203.424 57.5041 203.363 58.4408L251.259 61.5927C251.841 52.7448 250.506 41.8956 243.318 32.5918L205.334 61.9386ZM203.363 58.4408C203.274 59.796 203.103 59.6365 203.531 58.6128C204.029 57.4208 205.316 55.1611 208.004 53.2314L235.997 92.2236C247.772 83.7707 250.666 70.5993 251.259 61.5927L203.363 58.4408ZM208.038 53.2071C209.468 52.1841 210.733 51.7788 211.371 51.638C211.941 51.5123 211.896 51.6184 210.983 51.5583L207.831 99.4547C216.463 100.023 226.844 98.7706 235.963 92.2478L208.038 53.2071ZM210.983 51.5583L205.81 51.2179L202.658 99.1143L207.831 99.4547L210.983 51.5583ZM180.286 73.5901L178.66 98.3047L226.556 101.457L228.183 76.742L180.286 73.5901ZM204.184 75.9324L191.324 75.0862L188.172 122.983L201.032 123.829L204.184 75.9324ZM213.696 100.61L217.526 42.4162L169.629 39.2643L165.8 97.4584L213.696 100.61ZM207.56 90.4174C212.834 90.7645 225.399 90.2287 233.433 78.6388L193.984 51.2936C196.985 46.9637 201.033 44.5355 204.473 43.4046C207.561 42.3897 209.923 42.4691 210.712 42.521L207.56 90.4174ZM233.03 79.2029C238.186 72.2061 238.962 64.2527 239.203 60.5828L191.307 57.4309C191.279 57.8621 191.266 57.4837 191.499 56.587C191.699 55.8168 192.384 53.4483 194.387 50.7295L233.03 79.2029ZM239.203 60.5828C239.461 56.6738 239.54 49.5981 236.087 42.586L193.025 63.7908C191.804 61.3125 191.479 59.3048 191.38 58.4769C191.272 57.5861 191.324 57.1703 191.307 57.4309L239.203 60.5828ZM236.087 42.586C229.686 29.5869 216.888 27.4139 211.657 27.0697L208.505 74.9661C207.783 74.9186 205.432 74.6993 202.486 73.2704C199.184 71.6686 195.413 68.6415 193.025 63.7908L236.087 42.586ZM211.657 27.0697L207.418 26.7907L204.266 74.6871L208.505 74.9661L211.657 27.0697ZM181.894 49.163L180.877 64.6096L228.774 67.7615L229.79 52.3149L181.894 49.163ZM203.249 90.1337L207.56 90.4174L210.712 42.521L206.401 42.2373L203.249 90.1337ZM261.194 45.2898L262.77 21.3416C251.258 20.584 240.835 28.1248 237.954 39.2963L261.194 45.2898ZM275.85 46.2543L299.682 43.4148C298.314 31.9373 288.96 23.0651 277.426 22.3061L275.85 46.2543ZM282.869 105.162L281.293 129.111C288.413 129.579 295.372 126.855 300.282 121.678C305.193 116.501 307.545 109.408 306.701 102.323L282.869 105.162ZM271.015 104.382L247.114 106.561C248.186 118.322 257.654 127.555 269.439 128.33L271.015 104.382ZM269.883 91.9692L293.784 89.7908C292.712 78.0298 283.244 68.7965 271.459 68.021L269.883 91.9692ZM261.334 91.4066L262.91 67.4584C251.177 66.6863 240.613 74.5279 237.955 85.9815L261.334 91.4066ZM258.514 103.56L256.938 127.508C268.67 128.28 279.235 120.438 281.893 108.985L258.514 103.56ZM246.372 102.761L223.132 96.7671C221.348 103.686 222.739 111.04 226.928 116.829C231.116 122.618 237.666 126.24 244.796 126.709L246.372 102.761ZM269.168 84.2014L267.592 108.15C274.507 108.605 281.28 106.049 286.171 101.14C291.061 96.2303 293.591 89.4468 293.11 82.534L269.168 84.2014ZM267.573 61.2952L291.515 59.6278C290.681 47.6525 281.127 38.1353 269.149 37.347C257.17 36.5588 246.452 44.742 244.056 56.5047L267.573 61.2952ZM262.989 83.7948L239.472 79.0043C238.089 85.7943 239.708 92.8509 243.913 98.3587C248.118 103.867 254.499 107.288 261.413 107.743L262.989 83.7948ZM259.618 69.238L274.274 70.2025L277.426 22.3061L262.77 21.3416L259.618 69.238ZM252.019 49.0939L259.038 108.002L306.701 102.323L299.682 43.4148L252.019 49.0939ZM284.445 81.2141L272.591 80.4341L269.439 128.33L281.293 129.111L284.445 81.2141ZM294.916 102.204L293.784 89.7908L245.982 94.1475L247.114 106.561L294.916 102.204ZM271.459 68.021L262.91 67.4584L259.758 115.355L268.307 115.917L271.459 68.021ZM237.955 85.9815L235.135 98.1346L281.893 108.985L284.713 96.8316L237.955 85.9815ZM260.09 79.6114L247.948 78.8124L244.796 126.709L256.938 127.508L260.09 79.6114ZM269.612 108.754L284.433 51.2833L237.954 39.2963L223.132 96.7671L269.612 108.754ZM293.11 82.534L291.515 59.6278L243.631 62.9627L245.226 85.8689L293.11 82.534ZM244.056 56.5047L239.472 79.0043L286.506 88.5854L291.09 66.0858L244.056 56.5047ZM261.413 107.743L267.592 108.15L270.744 60.2532L264.565 59.8466L261.413 107.743ZM292.79 47.369L294.366 23.4208C281.139 22.5505 269.712 32.5669 268.842 45.7931L292.79 47.369ZM305.65 48.2153L329.598 49.7913C330.468 36.5651 320.452 25.1375 307.226 24.2671L305.65 48.2153ZM304.132 71.2775L280.184 69.7015C279.314 82.9277 289.33 94.3553 302.556 95.2257L304.132 71.2775ZM305.425 71.3626L303.85 95.3108C313.865 95.9698 323.233 90.3266 327.333 81.1646L305.425 71.3626ZM315.493 48.863L317.069 24.9148C307.053 24.2557 297.685 29.899 293.586 39.061L315.493 48.863ZM328.281 49.7046L350.024 59.8644C353.379 52.6844 352.973 44.3111 348.94 37.4893C344.906 30.6675 337.765 26.2768 329.857 25.7564L328.281 49.7046ZM315.851 76.3058L294.108 66.1461C291.666 71.371 291.188 77.3004 292.761 82.8491L315.851 76.3058ZM324.811 107.922L323.235 131.871C331.018 132.383 338.564 129.081 343.47 123.017C348.375 116.953 350.028 108.883 347.901 101.379L324.811 107.922ZM311.591 107.052L288.379 113.15C291.002 123.134 299.715 130.323 310.015 131.001L311.591 107.052ZM304.782 81.1334L327.995 75.0357C325.372 65.0516 316.659 57.8631 306.358 57.1852L304.782 81.1334ZM303.489 81.0483L305.065 57.1001C291.839 56.2297 280.411 66.2461 279.541 79.4724L303.489 81.0483ZM301.82 106.409L300.244 130.358C313.471 131.228 324.898 121.212 325.769 107.985L301.82 106.409ZM288.96 105.563L265.012 103.987C264.142 117.213 274.158 128.641 287.384 129.511L288.96 105.563ZM291.214 71.3172L304.074 72.1635L307.226 24.2671L294.366 23.4208L291.214 71.3172ZM281.702 46.6394L280.184 69.7015L328.08 72.8534L329.598 49.7913L281.702 46.6394ZM302.556 95.2257L303.85 95.3108L307.001 47.4143L305.708 47.3292L302.556 95.2257ZM327.333 81.1646L337.4 58.6651L293.586 39.061L283.518 61.5605L327.333 81.1646ZM313.917 72.8112L326.705 73.6528L329.857 25.7564L317.069 24.9148L313.917 72.8112ZM306.537 39.5448L294.108 66.1461L337.595 86.4656L350.024 59.8644L306.537 39.5448ZM292.761 82.8491L301.72 114.466L347.901 101.379L338.942 69.7625L292.761 82.8491ZM326.387 83.9742L313.167 83.1042L310.015 131.001L323.235 131.871L326.387 83.9742ZM334.804 100.955L327.995 75.0357L281.57 87.2312L288.379 113.15L334.804 100.955ZM306.358 57.1852L305.065 57.1001L301.913 104.997L303.207 105.082L306.358 57.1852ZM279.541 79.4724L277.872 104.834L325.769 107.985L327.437 82.6243L279.541 79.4724ZM303.396 82.4613L290.536 81.615L287.384 129.511L300.244 130.358L303.396 82.4613ZM312.908 107.139L316.738 48.945L268.842 45.7931L265.012 103.987L312.908 107.139ZM362.404 110.396L386.354 108.838C385.572 96.8176 376 87.2391 363.98 86.4481L362.404 110.396ZM330.074 108.269L306.126 106.693C305.256 119.919 315.272 131.347 328.498 132.217L330.074 108.269ZM333.904 50.0746L335.48 26.1264C322.254 25.2561 310.826 35.2725 309.956 48.4987L333.904 50.0746ZM346.764 50.9209L370.712 52.4969C371.583 39.2706 361.566 27.8431 348.34 26.9727L346.764 50.9209ZM343.507 100.422L319.558 98.8459C318.688 112.072 328.704 123.5 341.931 124.37L343.507 100.422ZM353.277 101.065L351.702 125.013C364.928 125.883 376.355 115.867 377.226 102.641L353.277 101.065ZM356.535 51.5639L358.111 27.6157C344.885 26.7453 333.457 36.7617 332.587 49.988L356.535 51.5639ZM369.395 52.4102L393.343 53.9861C394.214 40.7599 384.197 29.3324 370.971 28.462L369.395 52.4102ZM366.138 101.911L342.189 100.335C341.319 113.561 351.336 124.989 364.562 125.859L366.138 101.911ZM374.041 102.431L397.989 104.007C398.859 90.7809 388.843 79.3534 375.617 78.483L374.041 102.431ZM372.641 123.697L371.065 147.645C384.291 148.516 395.719 138.499 396.589 125.273L372.641 123.697ZM363.229 123.078L339.28 124.636C340.062 136.657 349.634 146.235 361.654 147.026L363.229 123.078ZM363.98 86.4481L331.65 84.3206L328.498 132.217L360.828 134.344L363.98 86.4481ZM354.023 109.845L357.852 51.6506L309.956 48.4987L306.126 106.693L354.023 109.845ZM332.328 74.0228L345.188 74.8691L348.34 26.9727L335.48 26.1264L332.328 74.0228ZM322.816 49.345L319.558 98.8459L367.455 101.998L370.712 52.4969L322.816 49.345ZM341.931 124.37L351.702 125.013L354.853 77.1166L345.083 76.4736L341.931 124.37ZM377.226 102.641L380.483 53.1399L332.587 49.988L329.329 99.4889L377.226 102.641ZM354.959 75.5121L367.819 76.3584L370.971 28.462L358.111 27.6157L354.959 75.5121ZM345.447 50.8342L342.189 100.335L390.086 103.487L393.343 53.9861L345.447 50.8342ZM364.562 125.859L372.465 126.379L375.617 78.483L367.714 77.9629L364.562 125.859ZM350.092 100.855L348.693 122.121L396.589 125.273L397.989 104.007L350.092 100.855ZM374.217 99.749L364.805 99.1296L361.654 147.026L371.065 147.645L374.217 99.749ZM387.179 121.52L386.354 108.838L338.455 111.954L339.28 124.636L387.179 121.52ZM383.157 53.3158L384.733 29.3676C371.506 28.4972 360.079 38.5136 359.209 51.7398L383.157 53.3158ZM393.287 53.9824L417.235 55.5584C418.105 42.3321 408.089 30.9046 394.863 30.0342L393.287 53.9824ZM391.093 87.3183L367.145 85.7424C366.401 97.0464 373.663 107.331 384.564 110.413C395.465 113.495 407.037 108.535 412.322 98.5144L391.093 87.3183ZM408.159 54.9611L409.735 31.0129C400.283 30.3909 391.349 35.3865 386.93 43.765L408.159 54.9611ZM416.493 55.5095L440.441 57.0855C441.311 43.8592 431.295 32.4317 418.069 31.5613L416.493 55.5095ZM412.663 113.704L411.087 137.652C424.313 138.522 435.741 128.506 436.611 115.28L412.663 113.704ZM402.317 113.023L378.369 111.447C377.499 124.673 387.515 136.101 400.742 136.971L402.317 113.023ZM404.549 79.1122L428.497 80.6881C429.241 69.3876 421.984 59.105 411.087 56.0199C400.19 52.9348 388.62 57.8867 383.329 67.8999L404.549 79.1122ZM387.158 112.025L385.582 135.973C395.028 136.595 403.956 131.607 408.378 123.238L387.158 112.025ZM379.327 111.51L355.379 109.934C354.509 123.16 364.525 134.588 377.751 135.458L379.327 111.51ZM381.581 77.264L391.711 77.9306L394.863 30.0342L384.733 29.3676L381.581 77.264ZM369.339 52.4065L367.145 85.7424L415.041 88.8943L417.235 55.5584L369.339 52.4065ZM412.322 98.5144L429.387 66.1572L386.93 43.765L369.865 76.1222L412.322 98.5144ZM406.583 78.9093L414.917 79.4577L418.069 31.5613L409.735 31.0129L406.583 78.9093ZM392.544 53.9336L388.715 112.128L436.611 115.28L440.441 57.0855L392.544 53.9336ZM414.239 89.7554L403.893 89.0746L400.742 136.971L411.087 137.652L414.239 89.7554ZM426.266 114.599L428.497 80.6881L380.601 77.5362L378.369 111.447L426.266 114.599ZM383.329 67.8999L365.938 100.813L408.378 123.238L425.769 90.3245L383.329 67.8999ZM388.734 88.0771L380.903 87.5617L377.751 135.458L385.582 135.973L388.734 88.0771ZM403.275 113.086L407.105 54.8917L359.209 51.7398L355.379 109.934L403.275 113.086ZM430.663 88.9121L452.061 99.7799C457.48 89.1095 454.21 76.0773 444.396 69.2294L430.663 88.9121ZM425.523 82.5849L403.466 92.0454C403.535 92.2067 403.606 92.3673 403.679 92.5271L425.523 82.5849ZM429.877 60.2867L416.358 40.4561C416.311 40.4881 416.264 40.5202 416.218 40.5525L429.877 60.2867ZM459.947 58.3691L483.896 59.9451C484.766 46.7188 474.75 35.2913 461.523 34.4209L459.947 58.3691ZM456.118 116.563L454.542 140.511C467.768 141.382 479.196 131.365 480.066 118.139L456.118 116.563ZM443.33 115.722L419.381 114.146C418.511 127.372 428.527 138.8 441.754 139.67L443.33 115.722ZM444.842 92.7314L468.791 94.3074C469.661 81.0811 459.645 69.6536 446.418 68.7832L444.842 92.7314ZM441.753 92.5281L443.329 68.5799C433.298 67.9198 423.919 73.581 419.829 82.764L441.753 92.5281ZM431.763 114.961L430.187 138.909C440.217 139.569 449.597 133.908 453.687 124.725L431.763 114.961ZM417.897 114.048L396.498 103.18C392.846 110.371 393.05 118.914 397.04 125.923C401.03 132.931 408.273 137.467 416.321 137.996L417.897 114.048ZM445.438 83.679L443.862 107.627C457.088 108.498 468.516 98.4812 469.386 85.255L445.438 83.679ZM446.578 66.3645L470.526 67.9404C471.396 54.7142 461.38 43.2866 448.154 42.4163L446.578 66.3645ZM444.396 69.2294C445.145 69.7525 445.809 70.3763 446.35 71.0429C446.884 71.6996 447.199 72.2745 447.367 72.6428L403.679 92.5271C406.509 98.7445 410.871 104.367 416.93 108.595L444.396 69.2294ZM447.58 73.1245C447.816 73.6761 447.945 74.1789 448.006 74.5679C448.064 74.9455 448.045 75.1247 448.051 75.0479L400.154 71.896C399.719 78.5144 400.617 85.4028 403.466 92.0454L447.58 73.1245ZM448.051 75.0479C448.137 73.7297 448.309 73.934 447.847 74.9897C447.3 76.2392 446.006 78.3109 443.535 80.0208L416.218 40.5525C404.093 48.9448 400.792 62.1975 400.154 71.896L448.051 75.0479ZM443.395 80.1173C441.892 81.1421 440.793 81.3537 440.785 81.3552C440.775 81.3571 440.977 81.3183 441.435 81.2974C441.892 81.2765 442.547 81.276 443.428 81.3339L446.58 33.4375C437.502 32.8401 426.171 33.7667 416.358 40.4561L443.395 80.1173ZM443.428 81.3339L458.371 82.3173L461.523 34.4209L446.58 33.4375L443.428 81.3339ZM435.999 56.7932L432.17 114.987L480.066 118.139L483.896 59.9451L435.999 56.7932ZM457.694 92.6151L444.905 91.7735L441.754 139.67L454.542 140.511L457.694 92.6151ZM467.278 117.298L468.791 94.3074L420.894 91.1555L419.381 114.146L467.278 117.298ZM446.418 68.7832L444.119 68.6319L440.967 116.528L443.266 116.68L446.418 68.7832ZM444.119 68.6319L443.329 68.5799L440.177 116.476L440.967 116.528L444.119 68.6319ZM419.829 82.764L409.839 105.196L453.687 124.725L463.677 102.292L419.829 82.764ZM433.338 91.0123L419.472 90.0998L416.321 137.996L430.187 138.909L433.338 91.0123ZM439.295 124.916L452.061 99.7799L409.264 78.0442L396.498 103.18L439.295 124.916ZM469.386 85.255L470.526 67.9404L422.629 64.7885L421.49 82.1031L469.386 85.255ZM448.154 42.4163L446.142 42.2839L442.99 90.1803L445.002 90.3127L448.154 42.4163ZM446.142 42.2839C439.254 41.8306 429.715 43.1862 421.908 50.6533C414.489 57.7496 412.547 66.6835 412.147 72.7574L460.044 75.9093C460.022 76.2357 459.682 80.9455 455.085 85.3415C450.102 90.1081 444.609 90.2868 442.99 90.1803L446.142 42.2839ZM412.147 72.7574C411.743 78.9068 412.53 88.0734 419.033 96.0968C425.836 104.491 435.125 107.052 441.994 107.504L445.146 59.6079C446.651 59.7069 452.012 60.5546 456.324 65.8745C460.335 70.8236 460.067 75.5553 460.044 75.9093L412.147 72.7574ZM441.994 107.504L443.862 107.627L447.014 59.7308L445.146 59.6079L441.994 107.504ZM486.771 114.901L467.544 129.264C467.582 129.315 467.621 129.367 467.66 129.418L486.771 114.901ZM483.985 99.1315L485.561 75.1833C472.334 74.3129 460.907 84.3293 460.036 97.5555L483.985 99.1315ZM496.557 99.9589L520.506 101.535C521.376 88.3086 511.36 76.881 498.133 76.0107L496.557 99.9589ZM496.68 109.059L473.86 116.489C473.895 116.598 473.931 116.707 473.968 116.815L496.68 109.059ZM503.659 109.373L482.414 98.2071C482.347 98.3344 482.282 98.4624 482.217 98.5909L503.659 109.373ZM505.547 93.8399L529.495 95.4159C530.365 82.1897 520.349 70.7621 507.123 69.8917L505.547 93.8399ZM495.919 93.2064L471.971 91.6304C471.101 104.857 481.117 116.284 494.343 117.155L495.919 93.2064ZM496.345 86.7404L497.921 62.7922C484.695 61.9218 473.267 71.9382 472.397 85.1644L496.345 86.7404ZM505.972 87.3739L504.396 111.322C517.622 112.192 529.05 102.176 529.92 88.9499L505.972 87.3739ZM506.083 71.4348L483.679 80.0396C483.814 80.3914 483.957 80.7401 484.109 81.0851L506.083 71.4348ZM499.186 70.9809L477.744 60.1984C477.674 60.3394 477.604 60.4811 477.536 60.6235L499.186 70.9809ZM497.858 80.2016L496.282 104.15C509.508 105.02 520.935 95.0038 521.806 81.7775L497.858 80.2016ZM485.285 79.3742L461.337 77.7983C460.466 91.0245 470.483 102.452 483.709 103.322L485.285 79.3742ZM490.123 63.9627L507.563 80.451L507.563 80.4509L490.123 63.9627ZM516.462 66.1289L496.657 79.6854C496.729 79.7897 496.801 79.8934 496.874 79.9966L516.462 66.1289ZM513.176 116.061L495.574 99.7458C495.526 99.7974 495.479 99.8493 495.431 99.9013L513.176 116.061ZM500.991 96.1858C499.74 96.1035 499.897 95.9472 500.871 96.3501C501.997 96.8163 504.061 97.9852 505.883 100.383L467.66 129.418C476.117 140.551 488.751 143.484 497.839 144.082L500.991 96.1858ZM505.999 100.537C507.002 101.881 507.451 103.131 507.626 103.87C507.782 104.532 507.677 104.595 507.73 103.797L459.833 100.645C459.244 109.603 460.716 120.124 467.544 129.264L505.999 100.537ZM507.73 103.797L507.933 100.707L460.036 97.5555L459.833 100.645L507.73 103.797ZM482.409 123.08L494.981 123.907L498.133 76.0107L485.561 75.1833L482.409 123.08ZM472.609 98.3829L472.359 102.191L520.255 105.343L520.506 101.535L472.609 98.3829ZM472.359 102.191C472.139 105.53 472.045 110.917 473.86 116.489L519.501 101.628C520.083 103.414 520.198 104.716 520.227 105.125C520.261 105.598 520.231 105.711 520.255 105.343L472.359 102.191ZM473.968 116.815C478.9 131.257 492.156 134.544 498.439 134.958L501.591 87.0616C502.951 87.1511 506.222 87.5442 509.936 89.717C514.177 92.1985 517.668 96.2542 519.392 101.302L473.968 116.815ZM498.439 134.958C501.885 135.185 506.862 134.947 512.124 132.584C517.859 130.008 522.366 125.593 525.1 120.156L482.217 98.5909C484.342 94.3647 487.937 90.8278 492.458 88.7972C496.506 86.9793 499.965 86.9546 501.591 87.0616L498.439 134.958ZM524.903 120.54C527.801 115.025 528.573 109.426 528.823 105.618L480.927 102.466C480.914 102.662 480.917 102.382 481.059 101.759C481.195 101.165 481.547 99.8564 482.414 98.2071L524.903 120.54ZM528.823 105.618L529.495 95.4159L481.598 92.264L480.927 102.466L528.823 105.618ZM507.123 69.8917L497.495 69.2582L494.343 117.155L503.971 117.788L507.123 69.8917ZM519.868 94.7823L520.293 88.3163L472.397 85.1644L471.971 91.6304L519.868 94.7823ZM494.769 110.689L504.396 111.322L507.548 63.4257L497.921 62.7922L494.769 110.689ZM529.92 88.9499L530.62 78.3169L482.724 75.165L482.024 85.798L529.92 88.9499ZM530.62 78.3169C530.869 74.5295 530.883 68.218 528.057 61.7844L484.109 81.0851C483.15 78.9033 482.875 77.1532 482.785 76.3373C482.689 75.4805 482.732 75.0362 482.724 75.165L530.62 78.3169ZM528.487 62.83C526.481 57.6065 522.836 52.8936 517.674 49.6419C512.836 46.5943 507.952 45.6299 504.333 45.3917L501.181 93.2881C499.287 93.1634 495.82 92.6049 492.09 90.2556C488.037 87.7021 485.192 83.98 483.679 80.0396L528.487 62.83ZM504.333 45.3917C500.818 45.1604 495.798 45.4273 490.515 47.8546C484.792 50.4844 480.404 54.9093 477.744 60.1984L520.627 81.7635C518.576 85.8419 515.089 89.388 510.556 91.4707C506.463 93.3511 502.924 93.4028 501.181 93.2881L504.333 45.3917ZM477.536 60.6235C475.007 65.9103 474.394 71.2626 474.174 74.6023L522.071 77.7542C522.095 77.3861 522.109 77.5019 522.014 77.9663C521.932 78.3678 521.647 79.6435 520.836 81.3383L477.536 60.6235ZM474.174 74.6023L473.909 78.6256L521.806 81.7775L522.071 77.7542L474.174 74.6023ZM499.434 56.2534L486.861 55.426L483.709 103.322L496.282 104.15L499.434 56.2534ZM509.233 80.9502L509.422 78.0764L461.526 74.9245L461.337 77.7983L509.233 80.9502ZM509.422 78.0764C509.483 77.1555 509.599 77.1022 509.408 77.6154C509.193 78.1972 508.658 79.2927 507.563 80.451L472.684 47.4744C464.889 55.7189 462.116 65.9516 461.526 74.9245L509.422 78.0764ZM507.563 80.4509C505.539 82.5913 503.349 83.5696 502.025 83.9445C500.887 84.2668 500.628 84.0879 501.782 84.1638L504.934 36.2674C495.528 35.6485 482.463 37.1306 472.684 47.4744L507.563 80.4509ZM501.782 84.1638C502.947 84.2405 502.631 84.3906 501.504 83.8818C500.177 83.283 498.229 81.9812 496.657 79.6854L536.266 52.5724C527.985 40.4745 514.94 36.9259 504.934 36.2674L501.782 84.1638ZM496.874 79.9966C495.902 78.6244 495.632 77.5432 495.586 77.3255C495.566 77.2274 495.594 77.3239 495.612 77.6577C495.63 77.9915 495.635 78.5166 495.587 79.2584L543.483 82.4103C544.092 73.1623 542.921 61.966 536.05 52.2611L496.874 79.9966ZM495.587 79.2584L494.211 100.165L542.107 103.317L543.483 82.4103L495.587 79.2584ZM494.211 100.165C494.16 100.944 494.082 101.497 494.015 101.854C493.949 102.212 493.902 102.326 493.93 102.247C493.99 102.075 494.395 101.018 495.574 99.7458L530.778 132.376C538.908 123.604 541.499 112.558 542.107 103.317L494.211 100.165ZM495.431 99.9013C497.324 97.8233 499.434 96.8146 500.785 96.4147C501.933 96.075 502.188 96.2646 500.991 96.1858L497.839 144.082C507.739 144.734 521.097 143.008 530.92 132.22L495.431 99.9013ZM533.211 72.787L557.159 74.363C558.029 61.1368 548.013 49.7092 534.787 48.8388L533.211 72.787ZM524.446 72.2102L500.498 70.6343C499.627 83.8605 509.644 95.2881 522.87 96.1585L524.446 72.2102ZM525.075 62.6549L526.65 38.7067C513.424 37.8363 501.997 47.8527 501.126 61.079L525.075 62.6549ZM555.465 64.6548L579.413 66.2307C580.283 53.0045 570.267 41.577 557.041 40.7066L555.465 64.6548ZM554.836 74.2101L553.26 98.1583C566.486 99.0287 577.914 89.0123 578.784 75.7861L554.836 74.2101ZM546.143 73.6381L547.719 49.6899C534.493 48.8195 523.065 58.8359 522.195 72.0621L546.143 73.6381ZM542.942 122.277L541.366 146.225C554.592 147.095 566.02 137.079 566.89 123.853L542.942 122.277ZM530.01 121.426L506.062 119.85C505.191 133.076 515.208 144.504 528.434 145.374L530.01 121.426ZM534.787 48.8388L526.022 48.262L522.87 96.1585L531.635 96.7352L534.787 48.8388ZM548.394 73.7862L549.023 64.2309L501.126 61.079L500.498 70.6343L548.394 73.7862ZM523.499 86.6031L553.889 88.603L557.041 40.7066L526.65 38.7067L523.499 86.6031ZM531.517 63.0788L530.888 72.6342L578.784 75.7861L579.413 66.2307L531.517 63.0788ZM556.412 50.2619L547.719 49.6899L544.567 97.5863L553.26 98.1583L556.412 50.2619ZM522.195 72.0621L518.994 120.701L566.89 123.853L570.091 75.214L522.195 72.0621ZM544.518 98.3287L531.586 97.4776L528.434 145.374L541.366 146.225L544.518 98.3287ZM553.958 123.002L557.159 74.363L509.263 71.2111L506.062 119.85L553.958 123.002ZM560.252 119.447L540.764 133.455C540.798 133.502 540.832 133.549 540.866 133.596L560.252 119.447ZM563.556 69.228L580.798 85.9236C580.839 85.881 580.88 85.8383 580.921 85.7954L563.556 69.228ZM590.498 71.0009L571.113 85.15C571.154 85.2063 571.195 85.2625 571.237 85.3185L590.498 71.0009ZM587.193 121.22L569.853 104.628C569.845 104.636 569.837 104.645 569.829 104.653L587.193 121.22ZM577.681 114.461L598.589 126.245C598.648 126.14 598.707 126.034 598.764 125.928L577.681 114.461ZM580.187 76.3835L557.915 85.3258L557.915 85.3258L580.187 76.3835ZM573.141 75.992L594.049 87.7759C594.108 87.6705 594.167 87.5648 594.225 87.4585L573.141 75.992ZM570.568 113.993L547.899 121.873C547.936 121.981 547.974 122.088 548.013 122.195L570.568 113.993ZM574.946 101.197C573.734 101.117 573.939 100.96 574.946 101.398C576.127 101.911 578.025 103.09 579.637 105.298L540.866 133.596C549.275 145.117 562.034 148.451 571.794 149.093L574.946 101.197ZM579.74 105.44C580.772 106.876 581.065 108.022 581.118 108.274C581.157 108.463 581.021 107.928 581.122 106.39L533.226 103.238C532.619 112.451 533.771 123.727 540.764 133.455L579.74 105.44ZM581.122 106.39L582.545 84.7644L534.649 81.6125L533.226 103.238L581.122 106.39ZM582.545 84.7644C582.647 83.2185 582.851 82.7454 582.764 82.9906C582.654 83.2998 582.152 84.5253 580.798 85.9236L546.315 52.5324C537.851 61.2731 535.25 72.4721 534.649 81.6125L582.545 84.7644ZM580.921 85.7954C579.033 87.7737 576.997 88.6937 575.758 89.0476C574.703 89.3493 574.521 89.167 575.732 89.2467L578.884 41.3503C569.125 40.7081 556.038 42.3412 546.192 52.6606L580.921 85.7954ZM575.732 89.2467C576.986 89.3292 576.811 89.4926 575.823 89.0656C574.662 88.5633 572.745 87.3873 571.113 85.15L609.884 56.8519C601.447 45.2929 588.62 41.991 578.884 41.3503L575.732 89.2467ZM571.237 85.3185C570.143 83.8475 569.804 82.6279 569.728 82.2768C569.667 81.9974 569.806 82.4474 569.709 83.9197L617.605 87.0716C618.215 77.8048 617.001 66.4249 609.76 56.6834L571.237 85.3185ZM569.709 83.9197L568.286 105.545L616.182 108.697L617.605 87.0716L569.709 83.9197ZM568.286 105.545C568.187 107.053 567.984 107.528 568.063 107.308C568.165 107.023 568.627 105.909 569.853 104.628L604.534 137.812C612.887 129.083 615.571 117.993 616.182 108.697L568.286 105.545ZM569.829 104.653C571.741 102.649 573.795 101.734 575.013 101.388C576.048 101.095 576.2 101.279 574.946 101.197L571.794 149.093C581.53 149.734 594.679 148.141 604.558 137.788L569.829 104.653ZM572.394 139.969C579.446 140.433 591.729 138.417 598.589 126.245L556.773 102.677C559.083 98.578 562.714 95.382 566.963 93.596C570.786 91.989 574.008 91.9714 575.546 92.0726L572.394 139.969ZM598.764 125.928C601.73 120.475 602.566 114.96 602.822 111.065L554.926 107.913C554.926 107.9 554.934 107.791 554.961 107.6C554.988 107.41 555.039 107.107 555.134 106.713C555.314 105.964 555.714 104.619 556.597 102.995L598.764 125.928ZM602.822 111.065L604.666 83.0453L556.769 79.8934L554.926 107.913L602.822 111.065ZM604.666 83.0453C604.914 79.279 604.875 73.4609 602.458 67.4411L557.915 85.3258C557.139 83.3944 556.903 81.8538 556.821 81.0744C556.737 80.2689 556.774 79.8315 556.769 79.8934L604.666 83.0453ZM602.458 67.4411C597.252 54.4753 585.34 50.8668 578.288 50.4027L575.137 98.2991C573.598 98.1979 570.406 97.7582 566.826 95.664C562.849 93.3367 559.668 89.6925 557.915 85.3258L602.458 67.4411ZM578.288 50.4027C574.669 50.1646 569.702 50.4807 564.506 52.868C558.962 55.4153 554.731 59.6098 552.057 64.5254L594.225 87.4585C592.208 91.1666 588.9 94.4839 584.547 96.4842C580.542 98.3245 577.031 98.4238 575.137 98.2991L578.288 50.4027ZM552.233 64.2081C549.078 69.8063 548.256 75.501 548.004 79.3166L595.901 82.4685C595.9 82.4809 595.892 82.5953 595.863 82.7973C595.835 82.9978 595.78 83.3206 595.678 83.7428C595.486 84.5356 595.046 86.0073 594.049 87.7759L552.233 64.2081ZM548.004 79.3166L546.161 107.336L594.057 110.488L595.901 82.4685L548.004 79.3166ZM546.161 107.336C545.916 111.051 545.976 116.343 547.899 121.873L593.238 106.113C593.797 107.721 593.965 108.97 594.022 109.602C594.081 110.252 594.051 110.581 594.057 110.488L546.161 107.336ZM548.013 122.195C552.987 135.873 565.456 139.512 572.394 139.969L575.546 92.0726C577.055 92.1719 580.351 92.6082 584.042 94.8081C588.189 97.2798 591.443 101.17 593.123 105.791L548.013 122.195ZM602.9 67.7764L604.476 43.8282C591.25 42.9578 579.822 52.9742 578.952 66.2004L602.9 67.7764ZM629.842 69.5493L653.79 71.1253C654.661 57.899 644.644 46.4715 631.418 45.6011L629.842 69.5493ZM629.213 79.1046L627.637 103.053C640.863 103.923 652.291 93.9068 653.161 80.6806L629.213 79.1046ZM615.132 78.178L616.708 54.2298C603.481 53.3594 592.054 63.3758 591.183 76.602L615.132 78.178ZM611.931 126.817L610.355 150.765C623.581 151.635 635.009 141.619 635.879 128.393L611.931 126.817ZM599.071 125.97L575.122 124.395C574.252 137.621 584.269 149.048 597.495 149.919L599.071 125.97ZM601.324 91.7246L628.266 93.4975L631.418 45.6011L604.476 43.8282L601.324 91.7246ZM605.894 67.9734L605.265 77.5287L653.161 80.6806L653.79 71.1253L605.894 67.9734ZM630.789 55.1564L616.708 54.2298L613.556 102.126L627.637 103.053L630.789 55.1564ZM591.183 76.602L587.983 125.241L635.879 128.393L639.08 79.7539L591.183 76.602ZM613.507 102.869L600.647 102.022L597.495 149.919L610.355 150.765L613.507 102.869ZM623.019 127.546L626.848 69.3523L578.952 66.2004L575.122 124.395L623.019 127.546ZM635.604 124.406L616.116 138.414C616.15 138.461 616.184 138.508 616.219 138.555L635.604 124.406ZM638.909 74.1867L656.15 90.8823C656.191 90.8397 656.233 90.797 656.274 90.7541L638.909 74.1867ZM665.851 75.9596L646.465 90.1087C646.506 90.165 646.548 90.2212 646.589 90.2772L665.851 75.9596ZM662.546 126.179L645.205 109.587C645.197 109.595 645.19 109.603 645.182 109.612L662.546 126.179ZM653.033 119.42L673.941 131.204C674.001 131.098 674.059 130.993 674.117 130.886L653.033 119.42ZM655.539 81.3422L633.267 90.2845L633.267 90.2845L655.539 81.3422ZM648.494 80.9507L669.402 92.7346C669.461 92.6292 669.519 92.5235 669.577 92.4172L648.494 80.9507ZM645.921 118.952L623.251 126.832C623.289 126.939 623.327 127.047 623.366 127.154L645.921 118.952ZM650.298 106.156C649.087 106.076 649.291 105.919 650.298 106.356C651.48 106.87 653.378 108.049 654.99 110.257L616.219 138.555C624.627 150.076 637.387 153.41 647.147 154.052L650.298 106.156ZM655.093 110.399C656.125 111.834 656.417 112.981 656.47 113.233C656.51 113.422 656.374 112.887 656.475 111.348L608.578 108.196C607.972 117.41 609.124 128.686 616.116 138.414L655.093 110.399ZM656.475 111.348L657.898 89.7231L610.002 86.5712L608.578 108.196L656.475 111.348ZM657.898 89.7231C658 88.1772 658.204 87.7041 658.117 87.9493C658.007 88.2585 657.504 89.484 656.15 90.8823L621.668 57.4911C613.204 66.2318 610.603 77.4308 610.002 86.5712L657.898 89.7231ZM656.274 90.7541C654.386 92.7324 652.35 93.6524 651.111 94.0063C650.055 94.308 649.873 94.1257 651.085 94.2054L654.237 46.309C644.477 45.6668 631.391 47.2999 621.545 57.6193L656.274 90.7541ZM651.085 94.2054C652.339 94.2879 652.164 94.4513 651.176 94.0243C650.014 93.522 648.098 92.346 646.465 90.1087L685.237 61.8106C676.8 50.2516 663.973 46.9497 654.237 46.309L651.085 94.2054ZM646.589 90.2772C645.496 88.8062 645.157 87.5866 645.08 87.2355C645.019 86.9561 645.159 87.4061 645.062 88.8784L692.958 92.0303C693.568 82.7635 692.354 71.3836 685.112 61.6421L646.589 90.2772ZM645.062 88.8784L643.639 110.504L691.535 113.656L692.958 92.0303L645.062 88.8784ZM643.639 110.504C643.539 112.011 643.337 112.486 643.415 112.267C643.517 111.981 643.98 110.868 645.205 109.587L679.887 142.771C688.239 134.042 690.923 122.951 691.535 113.656L643.639 110.504ZM645.182 109.612C647.094 107.608 649.148 106.693 650.365 106.347C651.4 106.053 651.552 106.238 650.298 106.156L647.147 154.052C656.883 154.693 670.032 153.1 679.91 142.746L645.182 109.612ZM647.747 144.928C654.799 145.392 667.081 143.375 673.941 131.204L632.125 107.636C634.436 103.537 638.067 100.341 642.315 98.5547C646.138 96.9477 649.36 96.9301 650.899 97.0313L647.747 144.928ZM674.117 130.886C677.083 125.434 677.918 119.919 678.175 116.023L630.278 112.871C630.279 112.858 630.287 112.75 630.314 112.559C630.341 112.368 630.392 112.066 630.487 111.671C630.666 110.922 631.066 109.578 631.95 107.953L674.117 130.886ZM678.175 116.023L680.019 88.004L632.122 84.8521L630.278 112.871L678.175 116.023ZM680.019 88.004C680.266 84.2377 680.228 78.4196 677.811 72.3998L633.267 90.2845C632.492 88.3531 632.255 86.8125 632.174 86.0331C632.09 85.2276 632.126 84.7902 632.122 84.8521L680.019 88.004ZM677.811 72.3998C672.605 59.434 660.693 55.8255 653.641 55.3614L650.489 103.258C648.951 103.157 645.759 102.717 642.179 100.623C638.201 98.2954 635.021 94.6512 633.267 90.2845L677.811 72.3998ZM653.641 55.3614C650.022 55.1233 645.054 55.4394 639.859 57.8267C634.315 60.374 630.083 64.5685 627.41 69.4841L669.577 92.4172C667.561 96.1253 664.253 99.4426 659.899 101.443C655.894 103.283 652.384 103.383 650.489 103.258L653.641 55.3614ZM627.586 69.1668C624.431 74.765 623.608 80.4597 623.357 84.2753L671.253 87.4272C671.253 87.4396 671.245 87.554 671.216 87.756C671.187 87.9565 671.133 88.2793 671.03 88.7015C670.838 89.4943 670.398 90.966 669.402 92.7346L627.586 69.1668ZM623.357 84.2753L621.513 112.295L669.41 115.447L671.253 87.4272L623.357 84.2753ZM621.513 112.295C621.269 116.009 621.329 121.301 623.251 126.832L668.59 111.072C669.149 112.68 669.318 113.929 669.375 114.561C669.434 115.211 669.403 115.54 669.41 115.447L621.513 112.295ZM623.366 127.154C628.34 140.831 640.809 144.471 647.747 144.928L650.899 97.0313C652.407 97.1306 655.704 97.5669 659.395 99.7668C663.542 102.239 666.795 106.129 668.476 110.749L623.366 127.154ZM696.021 128.238L676.216 141.794C676.287 141.898 676.36 142.002 676.433 142.105L696.021 128.238ZM699.306 78.3056L716.935 94.5912C716.974 94.5493 717.013 94.5073 717.051 94.4651L699.306 78.3056ZM728.442 97.1795L726.866 121.128C740.092 121.998 751.52 111.982 752.39 98.7554L728.442 97.1795ZM715.869 96.3521L691.921 94.7761C691.051 108.002 701.067 119.43 714.293 120.3L715.869 96.3521ZM715.874 85.3126L693.053 92.7435L693.053 92.7435L715.874 85.3126ZM708.824 84.9929L729.907 96.4595C729.962 96.3598 730.015 96.2598 730.068 96.1593L708.824 84.9929ZM706.328 122.927L683.923 131.532C684.058 131.884 684.202 132.232 684.353 132.577L706.328 122.927ZM713.296 123.385L691.855 112.603C691.784 112.744 691.714 112.886 691.646 113.028L713.296 123.385ZM714.838 112.014L716.414 88.066C703.188 87.1956 691.761 97.212 690.89 110.438L714.838 112.014ZM727.411 112.842L751.359 114.418C752.23 101.191 742.213 89.7638 728.987 88.8934L727.411 112.842ZM722.431 130.408L739.742 147.031C739.785 146.987 739.828 146.942 739.871 146.897L722.431 130.408ZM710.777 110.135C709.586 110.057 709.838 109.902 710.895 110.371C712.138 110.923 714.037 112.15 715.608 114.37L676.433 142.105C684.788 153.907 697.682 157.378 707.625 158.032L710.777 110.135ZM715.825 114.681C716.708 115.971 716.942 116.958 716.975 117.117C716.989 117.187 716.96 117.07 716.942 116.725C716.923 116.38 716.919 115.851 716.968 115.113L669.071 111.961C668.466 121.165 669.625 132.166 676.216 141.794L715.825 114.681ZM716.968 115.113L718.348 94.1341L670.452 90.9822L669.071 111.961L716.968 115.113ZM718.348 94.1341C718.4 93.3401 718.479 92.7744 718.547 92.4059C718.615 92.0366 718.663 91.9166 718.636 91.9935C718.581 92.1547 718.167 93.2579 716.935 94.5912L681.678 62.02C673.572 70.7937 671.052 81.857 670.452 90.9822L718.348 94.1341ZM717.051 94.4651C715.134 96.5701 713.006 97.5733 711.675 97.9646C710.548 98.2961 710.324 98.1037 711.563 98.1853L714.715 50.2889C704.84 49.6391 691.418 51.3227 681.562 62.146L717.051 94.4651ZM711.563 98.1853C712.814 98.2676 712.657 98.4239 711.684 98.0211C710.557 97.5548 708.493 96.3859 706.672 93.988L744.895 64.9533C736.437 53.8199 723.803 50.8869 714.715 50.2889L711.563 98.1853ZM706.672 93.988C705.584 92.5565 705.111 91.2274 704.931 90.4652C704.77 89.7847 704.88 89.7282 704.825 90.5744L752.721 93.7263C753.308 84.8134 751.886 74.1574 744.895 64.9533L706.672 93.988ZM704.825 90.5744L704.494 95.6035L752.39 98.7554L752.721 93.7263L704.825 90.5744ZM730.018 73.2313L717.445 72.4039L714.293 120.3L726.866 121.128L730.018 73.2313ZM739.817 97.928L740.2 92.1086L692.304 88.9567L691.921 94.7761L739.817 97.928ZM740.2 92.1086C740.422 88.7394 740.496 83.4125 738.695 77.8817L693.053 92.7435C692.485 90.9965 692.363 89.7136 692.331 89.2729C692.295 88.7767 692.325 88.6324 692.304 88.9567L740.2 92.1086ZM738.695 77.8817C734 63.4643 720.933 59.7897 714.12 59.3413L710.968 107.238C709.492 107.141 706.086 106.708 702.281 104.397C697.956 101.77 694.641 97.6181 693.053 92.7435L738.695 77.8817ZM714.12 59.3413C710.524 59.1047 705.512 59.3981 700.256 61.8046C694.608 64.3913 690.273 68.7027 687.58 73.8265L730.068 96.1593C728.035 100.028 724.65 103.428 720.241 105.447C716.226 107.285 712.743 107.355 710.968 107.238L714.12 59.3413ZM687.74 73.5264C684.692 79.1314 683.916 84.8406 683.668 88.6049L731.565 91.7568C731.575 91.6023 731.566 91.9435 731.405 92.6352C731.251 93.2962 730.86 94.7082 729.907 96.4595L687.74 73.5264ZM683.668 88.6049L681.867 115.978L729.763 119.13L731.565 91.7568L683.668 88.6049ZM681.867 115.978C681.622 119.702 681.616 125.526 683.923 131.532L728.732 114.322C729.463 116.227 729.66 117.7 729.722 118.343C729.787 119.026 729.75 119.332 729.763 119.13L681.867 115.978ZM684.353 132.577C689.647 144.631 700.785 148.418 708.226 148.908L711.377 101.011C713.056 101.122 716.219 101.598 719.723 103.649C723.552 105.889 726.556 109.301 728.302 113.277L684.353 132.577ZM708.226 148.908C711.586 149.129 716.57 148.919 721.859 146.537C727.677 143.917 732.252 139.375 734.947 133.743L691.646 113.028C693.783 108.561 697.497 104.865 702.149 102.77C706.274 100.913 709.789 100.907 711.377 101.011L708.226 148.908ZM734.738 134.168C737.461 128.754 738.15 123.269 738.385 119.697L690.488 116.545C690.47 116.828 690.463 116.628 690.582 116.081C690.691 115.579 691.011 114.282 691.855 112.603L734.738 134.168ZM738.385 119.697L738.787 113.59L690.89 110.438L690.488 116.545L738.385 119.697ZM713.263 135.962L725.835 136.79L728.987 88.8934L716.414 88.066L713.263 135.962ZM703.463 111.266L703.132 116.295L751.029 119.447L751.359 114.418L703.463 111.266ZM703.132 116.295C703.072 117.216 702.956 117.269 703.146 116.756C703.362 116.174 703.896 115.078 704.992 113.92L739.871 146.897C747.665 138.652 750.438 128.42 751.029 119.447L703.132 116.295ZM705.12 113.786C707.176 111.644 709.371 110.695 710.647 110.341C711.746 110.036 711.963 110.214 710.777 110.135L707.625 158.032C716.924 158.644 729.939 157.24 739.742 147.031L705.12 113.786ZM736.902 76.5946L738.478 52.6464C725.252 51.776 713.824 61.7924 712.954 75.0186L736.902 76.5946ZM763.054 78.3155L787.002 79.8915C787.872 66.6652 777.856 55.2377 764.63 54.3673L763.054 78.3155ZM762.477 87.0806L760.901 111.029C774.127 111.899 785.555 101.883 786.425 88.6565L762.477 87.0806ZM749.186 86.2059L750.762 62.2577C737.535 61.3873 726.108 71.4037 725.237 84.6299L749.186 86.2059ZM748.235 100.647L724.287 99.0707C723.417 112.297 733.433 123.724 746.659 124.595L748.235 100.647ZM758.365 101.313L782.314 102.889C783.184 89.663 773.168 78.2355 759.941 77.3651L758.365 101.313ZM757.779 110.222L756.203 134.17C769.429 135.041 780.857 125.024 781.727 111.798L757.779 110.222ZM747.649 109.555L749.225 85.6072C735.999 84.7368 724.571 94.7532 723.701 107.979L747.649 109.555ZM746.505 126.942L722.557 125.366C721.686 138.592 731.703 150.02 744.929 150.89L746.505 126.942ZM759.94 127.826L783.888 129.402C784.758 116.176 774.742 104.748 761.516 103.878L759.94 127.826ZM759.368 136.519L757.792 160.467C771.018 161.338 782.446 151.321 783.316 138.095L759.368 136.519ZM733.073 134.789L709.124 133.213C708.254 146.439 718.27 157.867 731.497 158.737L733.073 134.789ZM735.326 100.543L761.478 102.264L764.63 54.3673L738.478 52.6464L735.326 100.543ZM739.105 76.7396L738.529 85.5046L786.425 88.6565L787.002 79.8915L739.105 76.7396ZM764.053 63.1324L750.762 62.2577L747.61 110.154L760.901 111.029L764.053 63.1324ZM725.237 84.6299L724.287 99.0707L772.184 102.223L773.134 87.7818L725.237 84.6299ZM746.659 124.595L756.789 125.261L759.941 77.3651L749.811 76.6985L746.659 124.595ZM734.417 99.7373L733.831 108.646L781.727 111.798L782.314 102.889L734.417 99.7373ZM759.355 86.2738L749.225 85.6072L746.073 133.504L756.203 134.17L759.355 86.2738ZM723.701 107.979L722.557 125.366L770.453 128.518L771.597 111.131L723.701 107.979ZM744.929 150.89L758.364 151.774L761.516 103.878L748.081 102.994L744.929 150.89ZM735.992 126.25L735.42 134.943L783.316 138.095L783.888 129.402L735.992 126.25ZM760.944 112.571L734.649 110.841L731.497 158.737L757.792 160.467L760.944 112.571ZM757.021 136.365L760.85 78.1705L712.954 75.0186L709.124 133.213L757.021 136.365ZM767.89 133.4L747.977 146.796L767.89 133.4ZM765.252 117.569L766.828 93.6204C753.602 92.75 742.174 102.766 741.304 115.993L765.252 117.569ZM777.322 118.363L801.27 119.939C802.14 106.713 792.124 95.285 778.898 94.4147L777.322 118.363ZM777.631 126.825L755.359 135.768C755.454 136.005 755.554 136.241 755.657 136.476L777.631 126.825ZM784.025 127.246L763.117 115.462C762.987 115.692 762.862 115.925 762.74 116.159L784.025 127.246ZM784.282 114.564L763.207 126.046C763.357 126.321 763.513 126.593 763.673 126.863L784.282 114.564ZM779.184 111.991L770.116 134.212C772.366 135.131 774.743 135.702 777.165 135.906L779.184 111.991ZM775.956 111.707L752.008 110.131C751.137 123.357 761.154 134.785 774.38 135.655L775.956 111.707ZM776.471 103.876L778.047 79.9275C764.821 79.0572 753.394 89.0736 752.523 102.3L776.471 103.876ZM779.417 104.07L777.841 128.018C777.984 128.027 778.126 128.035 778.269 128.042L779.417 104.07ZM785.019 102.274L766.547 86.9513C766.429 87.0929 766.313 87.2358 766.199 87.3801L785.019 102.274ZM786.235 90.3757L764.889 101.346C764.955 101.475 765.023 101.604 765.092 101.732L786.235 90.3757ZM779.553 89.936L759.428 76.8598C759.293 77.0676 759.162 77.2774 759.033 77.4892L779.553 89.936ZM778.207 95.0427L754.298 92.9576C754.283 93.1272 754.27 93.2969 754.259 93.4667L778.207 95.0427ZM777.994 98.2757L776.418 122.224C789.645 123.094 801.072 113.078 801.943 99.8516L777.994 98.2757ZM765.924 97.4814L741.976 95.9054C741.106 109.132 751.122 120.559 764.348 121.43L765.924 97.4814ZM771.328 82.2514L755.961 63.8165C755.911 63.8581 755.861 63.8999 755.812 63.9419L771.328 82.2514ZM795.267 83.6102L777.637 99.895C777.683 99.9443 777.728 99.9934 777.774 100.042L795.267 83.6102ZM796.237 103.95L776.226 90.6999L776.226 90.6999L796.237 103.95ZM790.848 107.997L785.928 84.5062C775.793 86.6287 768.162 95.0124 767 105.302C765.837 115.592 771.405 125.467 780.811 129.797L790.848 107.997ZM795.799 112.796L774.38 123.623C774.416 123.695 774.453 123.767 774.491 123.839L795.799 112.796ZM781.511 115.007C780.676 114.952 781.275 114.862 782.628 115.486C784.186 116.204 786.214 117.641 787.804 120.004L747.977 146.796C755.985 158.701 768.64 162.264 778.359 162.903L781.511 115.007ZM787.804 120.004C788.716 121.361 788.987 122.434 789.046 122.723C789.093 122.958 788.977 122.54 789.063 121.228L741.167 118.076C740.589 126.857 741.683 137.44 747.977 146.796L787.804 120.004ZM789.063 121.228L789.2 119.145L741.304 115.993L741.167 118.076L789.063 121.228ZM763.676 141.517L775.746 142.311L778.898 94.4147L766.828 93.6204L763.676 141.517ZM753.374 116.787L753.227 119.014L801.124 122.166L801.27 119.939L753.374 116.787ZM753.227 119.014C753.016 122.218 752.678 129.092 755.359 135.768L799.903 117.883C800.468 119.291 800.742 120.441 800.878 121.136C801.018 121.854 801.065 122.365 801.081 122.591C801.111 123.001 801.074 122.925 801.124 122.166L753.227 119.014ZM755.657 136.476C757.697 141.123 761.128 145.459 766.015 148.547C770.701 151.507 775.477 152.54 779.242 152.787L782.393 104.891C784.577 105.035 788.032 105.679 791.656 107.969C795.48 110.385 798.108 113.766 799.605 117.175L755.657 136.476ZM779.242 152.787C783.049 153.038 788.174 152.629 793.443 150.012C798.976 147.264 802.904 142.954 805.31 138.334L762.74 116.159C764.541 112.701 767.631 109.237 772.094 107.021C776.295 104.935 780.119 104.741 782.393 104.891L779.242 152.787ZM804.933 139.03C808.397 132.884 809.005 126.296 809.223 122.988L761.327 119.836C761.287 120.438 761.254 120.388 761.36 119.891C761.418 119.621 761.542 119.102 761.781 118.408C762.016 117.727 762.426 116.689 763.117 115.462L804.933 139.03ZM809.223 122.988C809.515 118.555 809.6 110.154 804.892 102.265L763.673 126.863C762.011 124.078 761.562 121.727 761.429 120.807C761.286 119.823 761.355 119.41 761.327 119.836L809.223 122.988ZM805.357 103.082C798.959 91.3365 787.408 88.6003 781.203 88.0765L777.165 135.906C776.127 135.819 767.975 134.797 763.207 126.046L805.357 103.082ZM788.253 89.7706C786.598 89.0951 785.233 88.7598 784.769 88.648C784.133 88.4948 783.611 88.396 783.299 88.3404C782.674 88.2291 782.155 88.1611 781.883 88.127C781.303 88.0544 780.757 88.0032 780.379 87.97C779.573 87.8989 778.592 87.8283 777.532 87.7586L774.38 135.655C775.332 135.718 775.894 135.761 776.164 135.785C776.325 135.799 776.2 135.79 775.924 135.756C775.804 135.741 775.408 135.69 774.877 135.596C774.612 135.549 774.128 135.458 773.525 135.312C773.215 135.238 772.783 135.127 772.273 134.974C771.79 134.829 771.028 134.584 770.116 134.212L788.253 89.7706ZM799.904 113.283L800.42 105.452L752.523 102.3L752.008 110.131L799.904 113.283ZM774.895 127.824L777.841 128.018L780.993 80.1214L778.047 79.9275L774.895 127.824ZM778.269 128.042C784.034 128.318 795.686 127.469 803.839 117.167L766.199 87.3801C772.253 79.7304 780.171 80.0782 780.565 80.0971L778.269 128.042ZM803.491 117.596C809.533 110.312 810.62 101.764 810.92 97.1954L763.024 94.0435C763 94.4105 762.994 93.9078 763.302 92.8585C763.597 91.8541 764.423 89.5113 766.547 86.9513L803.491 117.596ZM810.92 97.1954C811.185 93.1769 811.162 86.0654 807.378 79.0196L765.092 101.732C763.739 99.2127 763.295 97.061 763.135 95.9258C762.972 94.7652 763.022 94.0679 763.024 94.0435L810.92 97.1954ZM807.581 79.4058C802.518 69.5535 793.149 64.9749 784.48 64.4045L781.329 112.301C779.102 112.154 775.854 111.509 772.462 109.448C768.938 107.308 766.431 104.346 764.889 101.346L807.581 79.4058ZM784.48 64.4045C775.198 63.7936 765.367 67.7193 759.428 76.8598L799.678 103.012C797.909 105.735 795.12 108.526 791.206 110.375C787.392 112.177 783.827 112.465 781.329 112.301L784.48 64.4045ZM759.033 77.4892C755.553 83.2272 754.626 89.1893 754.298 92.9576L802.116 97.1277C802.127 97.0064 802.103 97.4192 801.898 98.198C801.701 98.943 801.215 100.502 800.074 102.383L759.033 77.4892ZM754.259 93.4667L754.046 96.6997L801.943 99.8516L802.155 96.6186L754.259 93.4667ZM779.57 74.3275L767.5 73.5332L764.348 121.43L776.418 122.224L779.57 74.3275ZM789.873 99.0573L790.104 95.5369L742.208 92.385L741.976 95.9054L789.873 99.0573ZM790.104 95.5369C790.128 95.1698 790.146 95.7476 789.658 96.8508C789.125 98.058 788.193 99.4186 786.845 100.561L755.812 63.9419C746.476 71.8536 742.853 82.5898 742.208 92.385L790.104 95.5369ZM786.696 100.686C785.586 101.611 784.348 102.215 783.256 102.522C782.244 102.806 781.74 102.731 782.029 102.75L785.181 54.8539C775.476 54.2152 764.87 56.3901 755.961 63.8165L786.696 100.686ZM782.029 102.75C782.545 102.784 782.15 102.83 781.216 102.445C780.189 102.022 778.855 101.214 777.637 99.895L812.896 67.3253C804.892 58.6606 794.449 55.4637 785.181 54.8539L782.029 102.75ZM777.774 100.042C776.403 98.5827 775.565 96.9426 775.156 95.556C774.784 94.2943 774.883 93.6569 774.858 94.0286L822.755 97.1805C823.389 87.54 821.287 76.2566 812.759 67.178L777.774 100.042ZM774.858 94.0286C774.855 94.0883 774.954 92.621 776.226 90.6999L816.248 117.2C820.511 110.761 822.324 103.73 822.755 97.1805L774.858 94.0286ZM776.226 90.6999C776.69 89.9997 777.664 88.7349 779.357 87.4638C781.131 86.1321 783.37 85.042 785.928 84.5062L795.767 131.487C805.573 129.434 812.233 123.264 816.248 117.2L776.226 90.6999ZM780.811 129.797C779.57 129.226 778.248 128.371 777.028 127.187C775.81 126.007 774.95 124.75 774.38 123.623L817.219 101.97C813.707 95.023 808.086 89.5115 800.884 86.1961L780.811 129.797ZM774.491 123.839C773.525 121.976 773.262 120.537 773.19 120.032C773.117 119.52 773.18 119.531 773.133 120.252L821.029 123.404C821.413 117.57 821.112 109.479 817.108 101.753L774.491 123.839ZM773.133 120.252C773.059 121.372 772.912 121.628 773.028 121.302C773.166 120.917 773.596 119.946 774.589 118.847L810.198 151.034C817.761 142.667 820.436 132.411 821.029 123.404L773.133 120.252ZM774.589 118.847C776.224 117.038 778.185 115.921 779.856 115.382C781.337 114.905 782.066 115.043 781.511 115.007L778.359 162.903C788.441 163.567 800.915 161.305 810.198 151.034L774.589 118.847ZM806.516 135.653L787.028 149.661C787.062 149.708 787.096 149.755 787.13 149.802L806.516 135.653ZM809.821 85.4338L827.062 102.129C827.103 102.087 827.144 102.044 827.185 102.001L809.821 85.4338ZM836.762 87.2068L817.377 101.356C817.418 101.412 817.459 101.468 817.501 101.524L836.762 87.2068ZM833.458 137.426L816.117 120.834C816.109 120.842 816.101 120.851 816.093 120.859L833.458 137.426ZM823.945 130.667L844.853 142.451C844.912 142.345 844.971 142.24 845.029 142.133L823.945 130.667ZM826.451 92.5893L804.179 101.532L804.179 101.532L826.451 92.5893ZM819.405 92.1978L840.313 103.982C840.373 103.876 840.431 103.771 840.489 103.664L819.405 92.1978ZM816.832 130.199L794.163 138.079C794.2 138.186 794.239 138.294 794.278 138.401L816.832 130.199ZM821.21 117.403C819.999 117.323 820.203 117.166 821.21 117.604C822.391 118.117 824.29 119.296 825.902 121.504L787.13 149.802C795.539 161.323 808.299 164.657 818.058 165.299L821.21 117.403ZM826.004 121.646C827.036 123.082 827.329 124.228 827.382 124.48C827.422 124.669 827.285 124.134 827.386 122.595L779.49 119.444C778.884 128.657 780.036 139.933 787.028 149.661L826.004 121.646ZM827.386 122.595L828.81 100.97L780.913 97.8183L779.49 119.444L827.386 122.595ZM828.81 100.97C828.911 99.4243 829.116 98.9512 829.029 99.1965C828.919 99.5057 828.416 100.731 827.062 102.129L792.58 68.7382C784.115 77.4789 781.515 88.6779 780.913 97.8183L828.81 100.97ZM827.185 102.001C825.298 103.979 823.261 104.9 822.023 105.253C820.967 105.555 820.785 105.373 821.996 105.453L825.148 57.5561C815.389 56.9139 802.302 58.547 792.456 68.8664L827.185 102.001ZM821.996 105.453C823.25 105.535 823.076 105.698 822.088 105.271C820.926 104.769 819.01 103.593 817.377 101.356L856.148 73.0577C847.712 61.4987 834.885 58.1968 825.148 57.5561L821.996 105.453ZM817.501 101.524C816.407 100.053 816.068 98.8337 815.992 98.4826C815.931 98.2032 816.07 98.6532 815.973 100.126L863.87 103.277C864.48 94.0106 863.265 82.6307 856.024 72.8892L817.501 101.524ZM815.973 100.126L814.55 121.751L862.447 124.903L863.87 103.277L815.973 100.126ZM814.55 121.751C814.451 123.259 814.249 123.733 814.327 123.514C814.429 123.228 814.891 122.115 816.117 120.834L850.798 154.018C859.151 145.289 861.835 134.198 862.447 124.903L814.55 121.751ZM816.093 120.859C818.005 118.855 820.059 117.94 821.277 117.594C822.312 117.3 822.464 117.485 821.21 117.403L818.058 165.299C827.794 165.94 840.944 164.347 850.822 153.994L816.093 120.859ZM818.659 156.175C825.71 156.639 837.993 154.623 844.853 142.451L803.037 118.883C805.348 114.784 808.978 111.588 813.227 109.802C817.05 108.195 820.272 108.177 821.811 108.278L818.659 156.175ZM845.029 142.133C847.994 136.681 848.83 131.166 849.086 127.27L801.19 124.119C801.191 124.105 801.198 123.997 801.225 123.806C801.253 123.616 801.304 123.313 801.398 122.919C801.578 122.169 801.978 120.825 802.861 119.2L845.029 142.133ZM849.086 127.27L850.93 99.2511L803.034 96.0992L801.19 124.119L849.086 127.27ZM850.93 99.2511C851.178 95.4848 851.14 89.6667 848.723 83.6469L804.179 101.532C803.403 99.6002 803.167 98.0596 803.085 97.2802C803.001 96.4747 803.038 96.0373 803.034 96.0992L850.93 99.2511ZM848.723 83.6469C843.517 70.6811 831.604 67.0726 824.553 66.6085L821.401 114.505C819.862 114.404 816.67 113.964 813.091 111.87C809.113 109.543 805.932 105.898 804.179 101.532L848.723 83.6469ZM824.553 66.6085C820.934 66.3704 815.966 66.6865 810.77 69.0738C805.226 71.6211 800.995 75.8156 798.322 80.7312L840.489 103.664C838.472 107.372 835.164 110.69 830.811 112.69C826.806 114.53 823.296 114.63 821.401 114.505L824.553 66.6085ZM798.497 80.4139C795.342 86.0121 794.52 91.7068 794.269 95.5224L842.165 98.6743C842.164 98.6867 842.156 98.8011 842.128 99.0031C842.099 99.2036 842.044 99.5264 841.942 99.9486C841.75 100.741 841.31 102.213 840.313 103.982L798.497 80.4139ZM794.269 95.5224L792.425 123.542L840.321 126.694L842.165 98.6743L794.269 95.5224ZM792.425 123.542C792.18 127.256 792.241 132.549 794.163 138.079L839.502 122.319C840.061 123.927 840.229 125.176 840.286 125.808C840.345 126.458 840.315 126.787 840.321 126.694L792.425 123.542ZM794.278 138.401C799.251 152.078 811.72 155.718 818.659 156.175L821.811 108.278C823.319 108.378 826.616 108.814 830.307 111.014C834.454 113.486 837.707 117.376 839.387 121.996L794.278 138.401ZM849.164 83.9822L850.74 60.034C837.514 59.1636 826.087 69.18 825.216 82.4062L849.164 83.9822ZM862.025 84.8285L885.973 86.4044C886.843 73.1782 876.827 61.7506 863.601 60.8802L862.025 84.8285ZM860.474 108.393L836.526 106.818C835.655 120.044 845.672 131.471 858.898 132.342L860.474 108.393ZM869.454 108.984L867.879 132.933C881.105 133.803 892.532 123.787 893.403 110.56L869.454 108.984ZM871.005 85.4194L872.581 61.4712C859.355 60.6009 847.927 70.6173 847.057 83.8435L871.005 85.4194ZM883.937 86.2704L907.885 87.8464C908.756 74.6202 898.739 63.1926 885.513 62.3222L883.937 86.2704ZM880.108 144.465L878.532 168.413C891.758 169.283 903.186 159.267 904.056 146.041L880.108 144.465ZM867.176 143.614L843.227 142.038C842.357 155.264 852.374 166.691 865.6 167.562L867.176 143.614ZM868.849 118.181L892.798 119.757C893.668 106.53 883.651 95.1027 870.425 94.2324L868.849 118.181ZM859.869 117.59L861.445 93.6414C848.218 92.771 836.791 102.787 835.921 116.014L859.869 117.59ZM858.195 143.023L856.619 166.971C869.845 167.841 881.273 157.825 882.143 144.599L858.195 143.023ZM845.335 142.176L821.387 140.6C820.516 153.827 830.533 165.254 843.759 166.125L845.335 142.176ZM847.589 107.93L860.449 108.777L863.601 60.8802L850.74 60.034L847.589 107.93ZM838.076 83.2525L836.526 106.818L884.422 109.969L885.973 86.4044L838.076 83.2525ZM858.898 132.342L867.879 132.933L871.03 85.0363L862.05 84.4453L858.898 132.342ZM893.403 110.56L894.953 86.9954L847.057 83.8435L845.506 107.409L893.403 110.56ZM869.429 109.368L882.361 110.219L885.513 62.3222L872.581 61.4712L869.429 109.368ZM859.989 84.6945L856.16 142.889L904.056 146.041L907.885 87.8464L859.989 84.6945ZM881.684 120.516L868.752 119.665L865.6 167.562L878.532 168.413L881.684 120.516ZM891.124 145.19L892.798 119.757L844.901 116.605L843.227 142.038L891.124 145.19ZM870.425 94.2324L861.445 93.6414L858.293 141.538L867.273 142.129L870.425 94.2324ZM835.921 116.014L834.247 141.447L882.143 144.599L883.817 119.166L835.921 116.014ZM859.771 119.074L846.911 118.228L843.759 166.125L856.619 166.971L859.771 119.074ZM869.283 143.752L873.113 85.5581L825.216 82.4062L821.387 140.6L869.283 143.752ZM900.99 87.3926L902.566 63.4444C891.053 62.6868 880.631 70.2276 877.75 81.3991L900.99 87.3926ZM915.646 88.3571L939.477 85.5175C938.11 74.0401 928.756 65.1679 917.222 64.4089L915.646 88.3571ZM922.665 147.265L921.089 171.213C928.209 171.682 935.168 168.958 940.078 163.781C944.988 158.604 947.341 151.511 946.496 144.426L922.665 147.265ZM910.811 146.485L886.91 148.663C887.982 160.424 897.45 169.658 909.235 170.433L910.811 146.485ZM909.679 134.072L933.58 131.894C932.508 120.133 923.04 110.899 911.255 110.124L909.679 134.072ZM901.13 133.509L902.706 109.561C890.973 108.789 880.409 116.631 877.751 128.084L901.13 133.509ZM898.31 145.662L896.734 169.611C908.466 170.383 919.031 162.541 921.688 151.087L898.31 145.662ZM886.168 144.863L862.928 138.87C861.144 145.789 862.535 153.143 866.724 158.932C870.912 164.721 877.462 168.342 884.592 168.812L886.168 144.863ZM908.964 126.304L907.388 150.252C914.302 150.707 921.076 148.152 925.967 143.242C930.857 138.333 933.387 131.55 932.906 124.637L908.964 126.304ZM907.368 103.398L931.31 101.731C930.476 89.7553 920.923 80.2381 908.944 79.4498C896.966 78.6616 886.248 86.8447 883.851 98.6074L907.368 103.398ZM902.785 125.898L879.268 121.107C877.885 127.897 879.504 134.954 883.709 140.461C887.914 145.969 894.295 149.391 901.209 149.846L902.785 125.898ZM899.414 111.341L914.07 112.305L917.222 64.4089L902.566 63.4444L899.414 111.341ZM891.815 91.1966L898.834 150.105L946.496 144.426L939.477 85.5175L891.815 91.1966ZM924.241 123.317L912.387 122.537L909.235 170.433L921.089 171.213L924.241 123.317ZM934.712 144.307L933.58 131.894L885.778 136.25L886.91 148.663L934.712 144.307ZM911.255 110.124L902.706 109.561L899.554 157.458L908.103 158.02L911.255 110.124ZM877.751 128.084L874.931 140.237L921.688 151.087L924.509 138.934L877.751 128.084ZM899.886 121.714L887.744 120.915L884.592 168.812L896.734 169.611L899.886 121.714ZM909.407 150.857L924.229 93.3861L877.75 81.3991L862.928 138.87L909.407 150.857ZM932.906 124.637L931.31 101.731L883.426 105.065L885.022 127.972L932.906 124.637ZM883.851 98.6074L879.268 121.107L926.302 130.688L930.885 108.189L883.851 98.6074ZM901.209 149.846L907.388 150.252L910.54 102.356L904.361 101.949L901.209 149.846Z" fill="white"/>
</g>
<defs>
<filter id="filter0_d" x="0.190918" y="0.81813" width="956.474" height="184.447" filterUnits="userSpaceOnUse" color-interpolation-filters="sRGB">
<feFlood flood-opacity="0" result="BackgroundImageFix"/>
<feColorMatrix in="SourceAlpha" type="matrix" values="0 0 0 0 0 0 0 0 0 0 0 0 0 0 0 0 0 0 127 0"/>
<feOffset dy="4"/>
<feGaussianBlur stdDeviation="5"/>
<feColorMatrix type="matrix" values="0 0 0 0 0 0 0 0 0 0 0 0 0 0 0 0 0 0 0.5 0"/>
<feBlend mode="normal" in2="BackgroundImageFix" result="effect1_dropShadow"/>
<feBlend mode="normal" in="SourceGraphic" in2="effect1_dropShadow" result="shape"/>
</filter>
</defs>
</svg>
