<svg width="60" height="60" viewBox="0 0 60 60" fill="none" xmlns="http://www.w3.org/2000/svg">
<circle cx="30" cy="30" r="30" fill="#A3F9FF"/>
<g clip-path="url(#clip0)">
<path d="M26.8655 22.8072C27.5418 22.5235 27.8255 21.7162 27.52 21.0617L26.4509 18.8144C26.1455 18.1819 25.4036 17.8981 24.7491 18.1819C22.8945 18.9674 21.3018 19.9928 20.0364 21.2365C18.4873 22.6981 17.44 24.3781 16.8727 26.2326C16.3055 28.1092 16 30.6617 16 33.9126V40.6108C16 41.3308 16.5891 41.9199 17.3091 41.9199H25.8836C26.6036 41.9199 27.1927 41.3308 27.1927 40.6108V32.0362C27.1927 31.316 26.6036 30.7272 25.8836 30.7272H21.7818C21.8255 28.5233 22.3491 26.7562 23.3091 25.4251C24.0945 24.3565 25.2727 23.4837 26.8655 22.8072Z" fill="#393A4F"/>
<path d="M42.2691 22.8072C42.9455 22.5236 43.2289 21.7163 42.9237 21.0618L41.8546 18.8365C41.5491 18.2038 40.8073 17.9202 40.1527 18.2038C38.32 18.9892 36.7489 20.0147 35.4618 21.2365C33.9125 22.7202 32.8437 24.4002 32.2762 26.2547C31.7089 28.0872 31.4255 30.6402 31.4255 33.9129V40.6111C31.4255 41.3311 32.0146 41.9202 32.7346 41.9202H41.3091C42.0291 41.9202 42.6182 41.3311 42.6182 40.6111V32.0365C42.6182 31.3163 42.0291 30.7274 41.3091 30.7274H37.1855C37.2291 28.5236 37.753 26.7565 38.7127 25.4254C39.4982 24.3565 40.6764 23.4838 42.2691 22.8072Z" fill="#393A4F"/>
</g>
<defs>
<clipPath id="clip0">
<rect width="27.0545" height="24" fill="white" transform="translate(16 18)"/>
</clipPath>
</defs>
</svg>
